<?xml version="1.0" encoding="UTF-8" standalone="no"?>
<svg
   width="16"
   height="16"
   version="1.1"
   id="svg4"
   sodipodi:docname="preferences-desktop-online-accounts-symbolic.svg"
   inkscape:version="1.1.2 (0a00cf5339, 2022-02-04, custom)"
   xmlns:inkscape="http://www.inkscape.org/namespaces/inkscape"
   xmlns:sodipodi="http://sodipodi.sourceforge.net/DTD/sodipodi-0.dtd"
   xmlns="http://www.w3.org/2000/svg"
   xmlns:svg="http://www.w3.org/2000/svg">
  <defs
     id="defs8" />
  <sodipodi:namedview
     id="namedview6"
     pagecolor="#ffffff"
     bordercolor="#666666"
     borderopacity="1.0"
     inkscape:pageshadow="2"
     inkscape:pageopacity="0.0"
     inkscape:pagecheckerboard="0"
     showgrid="false"
     inkscape:zoom="32.25"
     inkscape:cx="8"
     inkscape:cy="8"
     inkscape:window-width="1366"
     inkscape:window-height="703"
     inkscape:window-x="0"
     inkscape:window-y="37"
     inkscape:window-maximized="1"
     inkscape:current-layer="svg4" />
  <path
     style="fill:#ffffff"
     d="M 8 1 A 7 7 0 0 0 1 8 A 7 7 0 0 0 8 15 A 7 7 0 0 0 15 8 A 7 7 0 0 0 8 1 z M 8 4 C 10.21 4 12 5.79 12 8 L 12 8.5 C 12 9.33 11.33 10 10.5 10 C 10.06 10 9.6396 9.8009 9.3496 9.4609 C 8.9996 9.7909 8.52 10 8 10 C 6.9 10 6 9.1 6 8 C 6 6.9 6.9 6 8 6 C 9.1 6 10 6.9 10 8 L 10 8.5 C 10 8.78 10.22 9 10.5 9 C 10.78 9 11 8.78 11 8.5 L 11 8 C 11 6.34 9.66 5 8 5 C 6.34 5 5 6.34 5 8 C 5 9.66 6.34 11 8 11 L 10.5 11 C 10.5 11 11 11 11 11.5 C 10.97 12 10.5 12 10.5 12 L 8 12 C 5.79 12 4 10.21 4 8 C 4 5.79 5.79 4 8 4 z M 8 7 C 7.45 7 7 7.45 7 8 C 7 8.55 7.45 9 8 9 C 8.55 9 9 8.55 9 8 C 9 7.45 8.55 7 8 7 z"
     id="path2" />
</svg>
