<?xml version="1.0" encoding="UTF-8" standalone="no"?>
<svg
   width="16"
   height="16"
   version="1.1"
   id="svg6"
   sodipodi:docname="mail-archive-symbolic.svg"
   inkscape:version="1.1.2 (0a00cf5339, 2022-02-04, custom)"
   xmlns:inkscape="http://www.inkscape.org/namespaces/inkscape"
   xmlns:sodipodi="http://sodipodi.sourceforge.net/DTD/sodipodi-0.dtd"
   xmlns="http://www.w3.org/2000/svg"
   xmlns:svg="http://www.w3.org/2000/svg">
  <defs
     id="defs10" />
  <sodipodi:namedview
     id="namedview8"
     pagecolor="#ffffff"
     bordercolor="#666666"
     borderopacity="1.0"
     inkscape:pageshadow="2"
     inkscape:pageopacity="0.0"
     inkscape:pagecheckerboard="0"
     showgrid="false"
     inkscape:zoom="22.92461"
     inkscape:cx="11.385144"
     inkscape:cy="9.2477035"
     inkscape:window-width="1366"
     inkscape:window-height="703"
     inkscape:window-x="0"
     inkscape:window-y="37"
     inkscape:window-maximized="1"
     inkscape:current-layer="svg6" />
  <path
     style="fill:#ffffff"
     d="M 4,0 V 1 H 12 V 0 Z M 4,2 V 3 H 12 V 2 Z M 4,4 V 9 H 12 V 4 Z M 5,5 8,6.5 11,5 V 6 L 8,7.5 5,6 Z"
     id="path2" />
  <path
     style="fill:#ffffff"
     d="M 2,1 C 1,1 1,2 1,2 V 14 C 1,14 1,15 2,15 H 14 C 15,15 15,14 15,14 V 2 C 15,2 15,1 14,1 H 13 V 10 H 10 C 10,11.11 9.11,12 8,12 6.89,12 6,11.11 6,10 H 3 V 1 Z"
     id="path4" />
</svg>
