<?xml version="1.0" encoding="UTF-8" standalone="no"?>
<svg
   width="16"
   height="16"
   version="1.1"
   id="svg4"
   sodipodi:docname="places-symbolic.svg"
   inkscape:version="1.1.2 (0a00cf5339, 2022-02-04, custom)"
   xmlns:inkscape="http://www.inkscape.org/namespaces/inkscape"
   xmlns:sodipodi="http://sodipodi.sourceforge.net/DTD/sodipodi-0.dtd"
   xmlns="http://www.w3.org/2000/svg"
   xmlns:svg="http://www.w3.org/2000/svg">
  <defs
     id="defs8" />
  <sodipodi:namedview
     id="namedview6"
     pagecolor="#ffffff"
     bordercolor="#666666"
     borderopacity="1.0"
     inkscape:pageshadow="2"
     inkscape:pageopacity="0.0"
     inkscape:pagecheckerboard="0"
     showgrid="false"
     inkscape:zoom="32.25"
     inkscape:cx="8"
     inkscape:cy="8"
     inkscape:window-width="1366"
     inkscape:window-height="703"
     inkscape:window-x="0"
     inkscape:window-y="37"
     inkscape:window-maximized="1"
     inkscape:current-layer="svg4" />
  <path
     style="fill:#ffffff"
     d="M 0.78515625 0 C 0.78515625 0 0 0.00030055 0 0.76953125 L 0 9.2304688 C 0 9.2304688 -0.00055815 10 0.78515625 10 L 4 10 L 4 6.7695312 C 4 6.0444397 4.5202474 5.4091637 4.953125 5.1972656 C 5.3860026 4.985367 5.7851562 5 5.7851562 5 L 10.056641 5 L 11 5.7324219 L 11 1.8066406 C 11.000001 1.0374099 10.214844 1 10.214844 1 L 6 1 L 4.7148438 0 L 0.78515625 0 z M 5.7851562 6 C 5.7851562 6 5 6.0003006 5 6.7695312 L 5 15.230469 C 5 15.230469 4.9994419 16 5.7851562 16 L 15.214844 16 C 15.214844 16 16 15.999699 16 15.230469 L 16 7.8085938 C 16.000001 7.0393631 15.214844 7 15.214844 7 L 11 7 L 9.7148438 6 L 5.7851562 6 z"
     id="path2" />
</svg>
