<?xml version="1.0" encoding="UTF-8" standalone="no"?>
<!-- Created with Inkscape (http://www.inkscape.org/) -->

<svg
   xmlns:dc="http://purl.org/dc/elements/1.1/"
   xmlns:cc="http://creativecommons.org/ns#"
   xmlns:rdf="http://www.w3.org/1999/02/22-rdf-syntax-ns#"
   xmlns:svg="http://www.w3.org/2000/svg"
   xmlns="http://www.w3.org/2000/svg"
   xmlns:xlink="http://www.w3.org/1999/xlink"
   xmlns:sodipodi="http://sodipodi.sourceforge.net/DTD/sodipodi-0.dtd"
   xmlns:inkscape="http://www.inkscape.org/namespaces/inkscape"
   width="96"
   height="96"
   id="svg2"
   version="1.1"
   inkscape:version="0.48.4 r9939"
   sodipodi:docname="gnome-sound-recorder.svg">
  <defs
     id="defs4">
    <linearGradient
       inkscape:collect="always"
       id="linearGradient3605">
      <stop
         style="stop-color:#242424;stop-opacity:1;"
         offset="0"
         id="stop3607" />
      <stop
         style="stop-color:#484848;stop-opacity:1"
         offset="1"
         id="stop3609" />
    </linearGradient>
    <linearGradient
       inkscape:collect="always"
       id="linearGradient3589">
      <stop
         style="stop-color:#e8e8e8;stop-opacity:0"
         offset="0"
         id="stop3591" />
      <stop
         id="stop3593"
         offset="0.26994699"
         style="stop-color:#e0e0e0;stop-opacity:0.21176471;" />
      <stop
         style="stop-color:#cacaca;stop-opacity:0.85490196;"
         offset="0.37416095"
         id="stop3595" />
      <stop
         id="stop3597"
         offset="0.4881945"
         style="stop-color:#c6c6c6;stop-opacity:1" />
      <stop
         style="stop-color:#cacaca;stop-opacity:0.85098039;"
         offset="0.59590477"
         id="stop3599" />
      <stop
         style="stop-color:#e1e1e1;stop-opacity:0.19215686;"
         offset="0.7150057"
         id="stop3601" />
      <stop
         style="stop-color:#e8e8e8;stop-opacity:0;"
         offset="1"
         id="stop3603" />
    </linearGradient>
    <linearGradient
       id="linearGradient3563"
       inkscape:collect="always">
      <stop
         id="stop3565"
         offset="0"
         style="stop-color:#e8e8e8;stop-opacity:0" />
      <stop
         style="stop-color:#e0e0e0;stop-opacity:0.21176471;"
         offset="0.10481472"
         id="stop3579" />
      <stop
         id="stop3585"
         offset="0.4184317"
         style="stop-color:#cacaca;stop-opacity:0.85490196;" />
      <stop
         style="stop-color:#c6c6c6;stop-opacity:1"
         offset="0.4881945"
         id="stop3571" />
      <stop
         id="stop3583"
         offset="0.56358474"
         style="stop-color:#cacaca;stop-opacity:0.85098039;" />
      <stop
         id="stop3581"
         offset="0.90070772"
         style="stop-color:#e1e1e1;stop-opacity:0.19215686;" />
      <stop
         id="stop3577"
         offset="1"
         style="stop-color:#e8e8e8;stop-opacity:0;" />
    </linearGradient>
    <linearGradient
       inkscape:collect="always"
       id="linearGradient3541">
      <stop
         style="stop-color:#e8e8e8;stop-opacity:0"
         offset="0"
         id="stop3543" />
      <stop
         id="stop3557"
         offset="0.24280472"
         style="stop-color:#cacaca;stop-opacity:0.2745098;" />
      <stop
         id="stop3553"
         offset="0.40703142"
         style="stop-color:#8b8b8b;stop-opacity:0.86666667;" />
      <stop
         id="stop3549"
         offset="0.52404124"
         style="stop-color:#7d7d7d;stop-opacity:1" />
      <stop
         style="stop-color:#8b8b8b;stop-opacity:0.86666667;"
         offset="0.61560041"
         id="stop3551" />
      <stop
         id="stop3555"
         offset="0.8170591"
         style="stop-color:#d7d7d7;stop-opacity:0.15294118;" />
      <stop
         style="stop-color:#e8e8e8;stop-opacity:0;"
         offset="1"
         id="stop3545" />
    </linearGradient>
    <linearGradient
       inkscape:collect="always"
       id="linearGradient3531">
      <stop
         style="stop-color:#393939;stop-opacity:1"
         offset="0"
         id="stop3533" />
      <stop
         style="stop-color:#1c1c1c;stop-opacity:1"
         offset="1"
         id="stop3535" />
    </linearGradient>
    <linearGradient
       inkscape:collect="always"
       id="linearGradient3523">
      <stop
         style="stop-color:#1b1b1b;stop-opacity:1"
         offset="0"
         id="stop3525" />
      <stop
         style="stop-color:#525252;stop-opacity:1"
         offset="1"
         id="stop3527" />
    </linearGradient>
    <linearGradient
       inkscape:collect="always"
       id="linearGradient3515">
      <stop
         style="stop-color:#2d2e2d;stop-opacity:1"
         offset="0"
         id="stop3517" />
      <stop
         style="stop-color:#555555;stop-opacity:1"
         offset="1"
         id="stop3519" />
    </linearGradient>
    <linearGradient
       inkscape:collect="always"
       id="linearGradient6239">
      <stop
         style="stop-color:#c7cbd7;stop-opacity:1"
         offset="0"
         id="stop6241" />
      <stop
         style="stop-color:#f7ebf7;stop-opacity:1"
         offset="1"
         id="stop6243" />
    </linearGradient>
    <linearGradient
       inkscape:collect="always"
       id="linearGradient3150">
      <stop
         style="stop-color:#ffffff;stop-opacity:1"
         offset="0"
         id="stop3152" />
      <stop
         style="stop-color:#ffffff;stop-opacity:1"
         offset="1"
         id="stop3154" />
    </linearGradient>
    <linearGradient
       inkscape:collect="always"
       id="linearGradient4196">
      <stop
         style="stop-color:#a0e65d;stop-opacity:1"
         offset="0"
         id="stop4198" />
      <stop
         style="stop-color:#7fcd35;stop-opacity:1"
         offset="1"
         id="stop4200" />
    </linearGradient>
    <linearGradient
       inkscape:collect="always"
       id="linearGradient4149">
      <stop
         style="stop-color:#4d9309;stop-opacity:1"
         offset="0"
         id="stop4151" />
      <stop
         style="stop-color:#83d92e;stop-opacity:1"
         offset="1"
         id="stop4153" />
    </linearGradient>
    <linearGradient
       id="linearGradient4137"
       inkscape:collect="always">
      <stop
         id="stop4139"
         offset="0"
         style="stop-color:#232323;stop-opacity:1" />
      <stop
         id="stop4141"
         offset="1"
         style="stop-color:#424242;stop-opacity:1" />
    </linearGradient>
    <linearGradient
       id="linearGradient4131"
       inkscape:collect="always">
      <stop
         id="stop4133"
         offset="0"
         style="stop-color:#7dba41;stop-opacity:1" />
      <stop
         id="stop4135"
         offset="1"
         style="stop-color:#a0e65c;stop-opacity:1" />
    </linearGradient>
    <linearGradient
       inkscape:collect="always"
       id="linearGradient4398">
      <stop
         style="stop-color:#ebe3e3;stop-opacity:1"
         offset="0"
         id="stop4400" />
      <stop
         id="stop3856"
         offset="0.43727577"
         style="stop-color:#f7ebef;stop-opacity:1" />
      <stop
         style="stop-color:#f7f7f7;stop-opacity:1"
         offset="1"
         id="stop4402" />
    </linearGradient>
    <linearGradient
       id="linearGradient4357"
       inkscape:collect="always">
      <stop
         id="stop4359"
         offset="0"
         style="stop-color:#ded3d6;stop-opacity:1" />
      <stop
         id="stop4361"
         offset="1"
         style="stop-color:#f7ebef;stop-opacity:1" />
    </linearGradient>
    <linearGradient
       id="linearGradient3076"
       inkscape:collect="always">
      <stop
         id="stop3078"
         offset="0"
         style="stop-color:#ffe7f7;stop-opacity:1" />
      <stop
         id="stop3080"
         offset="1"
         style="stop-color:#ffc3ef;stop-opacity:1" />
    </linearGradient>
    <linearGradient
       inkscape:collect="always"
       id="linearGradient3059">
      <stop
         style="stop-color:#29a221;stop-opacity:1"
         offset="0"
         id="stop3061" />
      <stop
         style="stop-color:#63db4a;stop-opacity:1"
         offset="1"
         id="stop3064" />
    </linearGradient>
    <linearGradient
       inkscape:collect="always"
       id="linearGradient3048">
      <stop
         style="stop-color:#c16d16;stop-opacity:1"
         offset="0"
         id="stop3050" />
      <stop
         style="stop-color:#ff8e31;stop-opacity:1"
         offset="1"
         id="stop3052" />
    </linearGradient>
    <linearGradient
       inkscape:collect="always"
       id="linearGradient3119">
      <stop
         style="stop-color:#92948f;stop-opacity:0"
         offset="0"
         id="stop3121" />
      <stop
         id="stop3123"
         offset="0.4283945"
         style="stop-color:#9b9e98;stop-opacity:1" />
      <stop
         style="stop-color:#939690;stop-opacity:0"
         offset="1"
         id="stop3125" />
    </linearGradient>
    <linearGradient
       id="linearGradient3073"
       inkscape:collect="always">
      <stop
         id="stop3075"
         offset="0"
         style="stop-color:#ffffff;stop-opacity:0" />
      <stop
         style="stop-color:#ffffff;stop-opacity:1"
         offset="0.45872402"
         id="stop3085" />
      <stop
         id="stop3083"
         offset="1"
         style="stop-color:#ffffff;stop-opacity:0" />
    </linearGradient>
    <linearGradient
       inkscape:collect="always"
       id="linearGradient3047">
      <stop
         style="stop-color:#000000;stop-opacity:1"
         offset="0"
         id="stop3049" />
      <stop
         id="stop3055"
         offset="0.06123874"
         style="stop-color:#1a1a1a;stop-opacity:1" />
      <stop
         style="stop-color:#333333;stop-opacity:1"
         offset="0.16480456"
         id="stop3057" />
      <stop
         id="stop3059"
         offset="0.55385184"
         style="stop-color:#4d4d4d;stop-opacity:1" />
      <stop
         style="stop-color:#999999;stop-opacity:1"
         offset="1"
         id="stop3051" />
    </linearGradient>
    <linearGradient
       id="linearGradient3041"
       inkscape:collect="always">
      <stop
         id="stop3043"
         offset="0"
         style="stop-color:#1a1a1a;stop-opacity:1" />
      <stop
         id="stop3045"
         offset="1"
         style="stop-color:#808080;stop-opacity:1" />
    </linearGradient>
    <linearGradient
       inkscape:collect="always"
       id="linearGradient3029">
      <stop
         style="stop-color:#333333;stop-opacity:1"
         offset="0"
         id="stop3031" />
      <stop
         style="stop-color:#e0e0dd;stop-opacity:0;"
         offset="1"
         id="stop3033" />
    </linearGradient>
    <linearGradient
       inkscape:collect="always"
       xlink:href="#linearGradient3029"
       id="linearGradient3035"
       x1="35.355339"
       y1="1030.3622"
       x2="35.355339"
       y2="975.33282"
       gradientUnits="userSpaceOnUse"
       gradientTransform="matrix(1.1638085,0,0,1.1638085,-7.862809,-164.23642)" />
    <linearGradient
       inkscape:collect="always"
       xlink:href="#linearGradient3041"
       id="linearGradient3039"
       gradientUnits="userSpaceOnUse"
       x1="35.355339"
       y1="1030.3622"
       x2="35.355339"
       y2="975.33282"
       gradientTransform="matrix(1.1218695,0,0,1.1218695,-5.8497348,-122.18782)" />
    <linearGradient
       inkscape:collect="always"
       xlink:href="#linearGradient3047"
       id="linearGradient3053"
       x1="40"
       y1="1043.4336"
       x2="39.285713"
       y2="972.33325"
       gradientUnits="userSpaceOnUse" />
    <linearGradient
       inkscape:collect="always"
       xlink:href="#linearGradient3073"
       id="linearGradient3113"
       gradientUnits="userSpaceOnUse"
       gradientTransform="translate(0,-956.36218)"
       x1="14.869445"
       y1="978.90387"
       x2="24.52651"
       y2="969.24683" />
    <linearGradient
       inkscape:collect="always"
       xlink:href="#linearGradient3073"
       id="linearGradient3115"
       gradientUnits="userSpaceOnUse"
       gradientTransform="matrix(-1,0,0,1,96,-956.36218)"
       x1="15.152279"
       y1="978.62103"
       x2="26.263966"
       y2="967.50934" />
    <linearGradient
       inkscape:collect="always"
       xlink:href="#linearGradient3119"
       id="linearGradient3117"
       gradientUnits="userSpaceOnUse"
       gradientTransform="translate(0,-956.36218)"
       x1="13.131983"
       y1="980.64136"
       x2="25.549681"
       y2="967.86646" />
    <linearGradient
       inkscape:collect="always"
       xlink:href="#linearGradient3119"
       id="linearGradient3129"
       gradientUnits="userSpaceOnUse"
       gradientTransform="matrix(-1,0,0,1,96,0)"
       x1="13.131983"
       y1="980.64136"
       x2="25.549681"
       y2="967.86646" />
    <linearGradient
       inkscape:collect="always"
       xlink:href="#linearGradient3048"
       id="linearGradient3054"
       x1="49.267925"
       y1="996.57349"
       x2="49.267925"
       y2="1045.8627"
       gradientUnits="userSpaceOnUse" />
    <linearGradient
       inkscape:collect="always"
       xlink:href="#linearGradient3048"
       id="linearGradient3058"
       x1="115.80308"
       y1="985.47241"
       x2="115.80308"
       y2="1033.5543"
       gradientUnits="userSpaceOnUse" />
    <linearGradient
       inkscape:collect="always"
       xlink:href="#linearGradient3059"
       id="linearGradient3066"
       x1="22.54203"
       y1="1043.3966"
       x2="22.54203"
       y2="964.45898"
       gradientUnits="userSpaceOnUse" />
    <linearGradient
       inkscape:collect="always"
       xlink:href="#linearGradient4137"
       id="linearGradient3068"
       x1="54.534199"
       y1="1043.6862"
       x2="53.796227"
       y2="962.96771"
       gradientUnits="userSpaceOnUse" />
    <linearGradient
       inkscape:collect="always"
       xlink:href="#linearGradient3076"
       id="linearGradient3086"
       gradientUnits="userSpaceOnUse"
       gradientTransform="matrix(1.4144782,0,0,1.4144782,-119.78686,-417.12598)"
       x1="115.80308"
       y1="985.47241"
       x2="115.80308"
       y2="1025.3639" />
    <linearGradient
       inkscape:collect="always"
       xlink:href="#linearGradient3076"
       id="linearGradient3091"
       gradientUnits="userSpaceOnUse"
       gradientTransform="matrix(1.4144782,0,0,1.4144782,-119.78686,-418.126)"
       x1="115.80308"
       y1="985.47241"
       x2="115.80308"
       y2="1025.3639" />
    <linearGradient
       inkscape:collect="always"
       xlink:href="#linearGradient3076"
       id="linearGradient3093"
       gradientUnits="userSpaceOnUse"
       gradientTransform="matrix(1.4144782,0,0,1.4144782,-119.78686,-1375.4171)"
       x1="115.80308"
       y1="985.47241"
       x2="115.80308"
       y2="1025.3639" />
    <linearGradient
       inkscape:collect="always"
       xlink:href="#linearGradient4357"
       id="linearGradient4354"
       gradientUnits="userSpaceOnUse"
       x1="93.242035"
       y1="1027.2615"
       x2="93.242035"
       y2="980.7262"
       gradientTransform="translate(86.884751,0)" />
    <linearGradient
       inkscape:collect="always"
       xlink:href="#linearGradient4398"
       id="linearGradient4404"
       x1="47.094341"
       y1="1025.5547"
       x2="47.094341"
       y2="975.55695"
       gradientUnits="userSpaceOnUse"
       gradientTransform="translate(86.218871,0)" />
    <linearGradient
       inkscape:collect="always"
       xlink:href="#linearGradient4131"
       id="linearGradient4129"
       gradientUnits="userSpaceOnUse"
       x1="53.796227"
       y1="1046.0226"
       x2="53.796227"
       y2="962.97437"
       gradientTransform="matrix(0.97619048,0,0,0.97619048,1.1428571,23.913382)" />
    <linearGradient
       inkscape:collect="always"
       xlink:href="#linearGradient4149"
       id="linearGradient4147"
       gradientUnits="userSpaceOnUse"
       gradientTransform="matrix(0.95238096,0,0,0.95238096,2.2857142,47.826764)"
       x1="53.796227"
       y1="1046.0226"
       x2="53.796227"
       y2="962.97437" />
    <linearGradient
       inkscape:collect="always"
       xlink:href="#linearGradient4131"
       id="linearGradient4171"
       gradientUnits="userSpaceOnUse"
       gradientTransform="matrix(0.97619048,0,0,0.97619048,1.1428571,23.913382)"
       x1="53.796227"
       y1="1046.0226"
       x2="53.796227"
       y2="962.97437" />
    <linearGradient
       inkscape:collect="always"
       xlink:href="#linearGradient4149"
       id="linearGradient4173"
       gradientUnits="userSpaceOnUse"
       gradientTransform="matrix(0.95238096,0,0,0.95238096,2.2857142,47.826764)"
       x1="53.796227"
       y1="1046.0226"
       x2="53.796227"
       y2="962.97437" />
    <linearGradient
       inkscape:collect="always"
       xlink:href="#linearGradient4149"
       id="linearGradient4176"
       gradientUnits="userSpaceOnUse"
       gradientTransform="matrix(0.95238096,0,0,0.95238096,2.2857142,59.610099)"
       x1="53.796227"
       y1="1046.0226"
       x2="53.796227"
       y2="962.97437" />
    <linearGradient
       inkscape:collect="always"
       xlink:href="#linearGradient4131"
       id="linearGradient4179"
       gradientUnits="userSpaceOnUse"
       gradientTransform="matrix(0.97619048,0,0,0.97619048,1.1428571,37.696717)"
       x1="53.796227"
       y1="1046.0226"
       x2="53.796227"
       y2="962.97437" />
    <linearGradient
       inkscape:collect="always"
       xlink:href="#linearGradient4131"
       id="linearGradient4185"
       gradientUnits="userSpaceOnUse"
       gradientTransform="matrix(0.97619048,0,0,0.97619048,1.1428571,23.913382)"
       x1="53.796227"
       y1="1046.0226"
       x2="53.796227"
       y2="962.97437" />
    <linearGradient
       inkscape:collect="always"
       xlink:href="#linearGradient4149"
       id="linearGradient4187"
       gradientUnits="userSpaceOnUse"
       gradientTransform="matrix(0.95238096,0,0,0.95238096,2.2857142,47.826764)"
       x1="53.796227"
       y1="1046.0226"
       x2="53.796227"
       y2="962.97437" />
    <linearGradient
       inkscape:collect="always"
       xlink:href="#linearGradient4149"
       id="linearGradient4190"
       gradientUnits="userSpaceOnUse"
       gradientTransform="matrix(0.95238096,0,0,0.95238096,2.2857142,-908.53542)"
       x1="53.796227"
       y1="1046.0226"
       x2="53.796227"
       y2="962.97437" />
    <linearGradient
       inkscape:collect="always"
       xlink:href="#linearGradient4131"
       id="linearGradient4193"
       gradientUnits="userSpaceOnUse"
       gradientTransform="matrix(0.97619048,0,0,0.97619048,1.1428571,23.913382)"
       x1="53.796227"
       y1="1046.0226"
       x2="53.796227"
       y2="962.97437" />
    <linearGradient
       inkscape:collect="always"
       xlink:href="#linearGradient4196"
       id="linearGradient4202"
       x1="16.906523"
       y1="8.3934689"
       x2="16.906523"
       y2="26.588005"
       gradientUnits="userSpaceOnUse" />
    <radialGradient
       inkscape:collect="always"
       xlink:href="#linearGradient3307"
       id="radialGradient4284"
       gradientUnits="userSpaceOnUse"
       gradientTransform="matrix(1.0514484,-1.0514485,1.1030109,1.1030109,-57.005386,-113.52253)"
       cx="-106.66165"
       cy="64.455704"
       fx="-106.66165"
       fy="64.455704"
       r="21.375" />
    <linearGradient
       inkscape:collect="always"
       id="linearGradient3307">
      <stop
         style="stop-color:#66b41a;stop-opacity:1"
         offset="0"
         id="stop3309" />
      <stop
         id="stop3341"
         offset="0.6955229"
         style="stop-color:#569817;stop-opacity:1" />
      <stop
         id="stop3339"
         offset="0.84899038"
         style="stop-color:#477b12;stop-opacity:1" />
      <stop
         style="stop-color:#3e6d10;stop-opacity:1"
         offset="1"
         id="stop3311" />
    </linearGradient>
    <linearGradient
       inkscape:collect="always"
       xlink:href="#linearGradient3315"
       id="linearGradient4282"
       gradientUnits="userSpaceOnUse"
       x1="-103.53697"
       y1="34.18985"
       x2="-103.53697"
       y2="76.055702" />
    <linearGradient
       inkscape:collect="always"
       id="linearGradient3315">
      <stop
         style="stop-color:#a5c69f;stop-opacity:1"
         offset="0"
         id="stop3317" />
      <stop
         style="stop-color:#fffbff;stop-opacity:1"
         offset="1"
         id="stop3319" />
    </linearGradient>
    <linearGradient
       inkscape:collect="always"
       xlink:href="#linearGradient3325"
       id="linearGradient4289"
       gradientUnits="userSpaceOnUse"
       gradientTransform="matrix(1.0625,0,0,1.0625,281.9462,944.84632)"
       x1="-109.75"
       y1="81"
       x2="-109.75"
       y2="30.747408" />
    <linearGradient
       inkscape:collect="always"
       id="linearGradient3325">
      <stop
         style="stop-color:#c2debe;stop-opacity:1"
         offset="0"
         id="stop3327" />
      <stop
         style="stop-color:#eeffe7;stop-opacity:1"
         offset="1"
         id="stop3329" />
    </linearGradient>
    <linearGradient
       inkscape:collect="always"
       xlink:href="#linearGradient4149"
       id="linearGradient3111"
       gradientUnits="userSpaceOnUse"
       gradientTransform="matrix(0.95238096,0,0,0.95238096,2.2857142,47.826764)"
       x1="53.796227"
       y1="1046.0226"
       x2="53.796227"
       y2="962.97437" />
    <linearGradient
       inkscape:collect="always"
       xlink:href="#linearGradient3150"
       id="linearGradient3156"
       x1="33.436245"
       y1="1024.1847"
       x2="33.436245"
       y2="990.54865"
       gradientUnits="userSpaceOnUse" />
    <linearGradient
       inkscape:collect="always"
       xlink:href="#linearGradient3150"
       id="linearGradient3158"
       gradientUnits="userSpaceOnUse"
       x1="33.436245"
       y1="1024.1847"
       x2="33.436245"
       y2="990.54865" />
    <linearGradient
       inkscape:collect="always"
       xlink:href="#linearGradient3150"
       id="linearGradient3160"
       gradientUnits="userSpaceOnUse"
       x1="33.436245"
       y1="1024.1847"
       x2="33.436245"
       y2="990.54865" />
    <linearGradient
       inkscape:collect="always"
       xlink:href="#linearGradient3150"
       id="linearGradient3163"
       gradientUnits="userSpaceOnUse"
       x1="33.436245"
       y1="1024.1847"
       x2="33.436245"
       y2="990.54865"
       gradientTransform="translate(0.889122,0)" />
    <linearGradient
       inkscape:collect="always"
       xlink:href="#linearGradient3150"
       id="linearGradient3166"
       gradientUnits="userSpaceOnUse"
       x1="33.436245"
       y1="1024.1847"
       x2="33.436245"
       y2="990.54865"
       gradientTransform="translate(0.889122,-956.36218)" />
    <linearGradient
       inkscape:collect="always"
       xlink:href="#linearGradient6239"
       id="linearGradient6247"
       x1="-76.951889"
       y1="1018.5491"
       x2="-39.808765"
       y2="992.93323"
       gradientUnits="userSpaceOnUse" />
    <linearGradient
       inkscape:collect="always"
       xlink:href="#linearGradient6239"
       id="linearGradient6258"
       gradientUnits="userSpaceOnUse"
       x1="-78.232689"
       y1="994.72626"
       x2="-39.808765"
       y2="992.93323"
       gradientTransform="translate(210.26757,0.05127262)" />
    <linearGradient
       inkscape:collect="always"
       xlink:href="#linearGradient6239"
       id="linearGradient6261"
       gradientUnits="userSpaceOnUse"
       x1="-72.597176"
       y1="68.078621"
       x2="-28.793911"
       y2="44.768112"
       gradientTransform="translate(210.26757,956.41345)" />
    <linearGradient
       inkscape:collect="always"
       xlink:href="#linearGradient3515"
       id="linearGradient3521"
       x1="-49.945026"
       y1="80.151054"
       x2="-49.945026"
       y2="31.270748"
       gradientUnits="userSpaceOnUse" />
    <linearGradient
       inkscape:collect="always"
       xlink:href="#linearGradient3523"
       id="linearGradient3529"
       x1="-33.50528"
       y1="75.357788"
       x2="-57.796432"
       y2="33.284275"
       gradientUnits="userSpaceOnUse" />
    <linearGradient
       inkscape:collect="always"
       xlink:href="#linearGradient3531"
       id="linearGradient3537"
       x1="-48.977917"
       y1="31.621881"
       x2="-48.977917"
       y2="81.425415"
       gradientUnits="userSpaceOnUse" />
    <linearGradient
       inkscape:collect="always"
       xlink:href="#linearGradient3541"
       id="linearGradient3547"
       x1="-62.746658"
       y1="78.149803"
       x2="-31.400616"
       y2="36.902599"
       gradientUnits="userSpaceOnUse" />
    <linearGradient
       inkscape:collect="always"
       xlink:href="#linearGradient3563"
       id="linearGradient3561"
       gradientUnits="userSpaceOnUse"
       x1="-62.746658"
       y1="78.149803"
       x2="-31.400616"
       y2="36.902599" />
    <linearGradient
       inkscape:collect="always"
       xlink:href="#linearGradient3589"
       id="linearGradient3587"
       gradientUnits="userSpaceOnUse"
       x1="-62.746658"
       y1="76.556496"
       x2="-33.312584"
       y2="35.309292" />
    <linearGradient
       inkscape:collect="always"
       xlink:href="#linearGradient3605"
       id="linearGradient3611"
       x1="-46.616344"
       y1="55.993435"
       x2="-59.835903"
       y2="38.251396"
       gradientUnits="userSpaceOnUse" />
    <linearGradient
       inkscape:collect="always"
       xlink:href="#linearGradient3515"
       id="linearGradient3623"
       gradientUnits="userSpaceOnUse"
       x1="-49.945026"
       y1="80.151054"
       x2="-49.945026"
       y2="31.270748" />
    <linearGradient
       inkscape:collect="always"
       xlink:href="#linearGradient3531"
       id="linearGradient3625"
       gradientUnits="userSpaceOnUse"
       x1="-48.977917"
       y1="31.621881"
       x2="-48.977917"
       y2="81.425415" />
    <linearGradient
       inkscape:collect="always"
       xlink:href="#linearGradient3523"
       id="linearGradient3627"
       gradientUnits="userSpaceOnUse"
       x1="-33.50528"
       y1="75.357788"
       x2="-57.796432"
       y2="33.284275" />
    <linearGradient
       inkscape:collect="always"
       xlink:href="#linearGradient3541"
       id="linearGradient3629"
       gradientUnits="userSpaceOnUse"
       x1="-62.746658"
       y1="78.149803"
       x2="-31.400616"
       y2="36.902599" />
    <linearGradient
       inkscape:collect="always"
       xlink:href="#linearGradient3589"
       id="linearGradient3631"
       gradientUnits="userSpaceOnUse"
       x1="-62.746658"
       y1="76.556496"
       x2="-33.312584"
       y2="35.309292" />
    <linearGradient
       inkscape:collect="always"
       xlink:href="#linearGradient3605"
       id="linearGradient3633"
       gradientUnits="userSpaceOnUse"
       x1="-46.616344"
       y1="55.993435"
       x2="-59.835903"
       y2="38.251396" />
    <linearGradient
       inkscape:collect="always"
       xlink:href="#linearGradient3605"
       id="linearGradient3636"
       gradientUnits="userSpaceOnUse"
       x1="-46.616344"
       y1="55.993435"
       x2="-59.835903"
       y2="38.251396"
       gradientTransform="translate(100.027,956.94532)" />
  </defs>
  <sodipodi:namedview
     id="base"
     pagecolor="#ffffff"
     bordercolor="#666666"
     borderopacity="1.0"
     inkscape:pageopacity="0.0"
     inkscape:pageshadow="2"
     inkscape:zoom="1.4372642"
     inkscape:cx="-36.9226"
     inkscape:cy="-30.016248"
     inkscape:document-units="px"
     inkscape:current-layer="layer1"
     showgrid="false"
     inkscape:window-width="1366"
     inkscape:window-height="716"
     inkscape:window-x="0"
     inkscape:window-y="27"
     inkscape:window-maximized="1"
     showguides="true"
     inkscape:guide-bbox="true" />
  <metadata
     id="metadata7">
    <rdf:RDF>
      <cc:Work
         rdf:about="">
        <dc:format>image/svg+xml</dc:format>
        <dc:type
           rdf:resource="http://purl.org/dc/dcmitype/StillImage" />
        <dc:title></dc:title>
      </cc:Work>
    </rdf:RDF>
  </metadata>
  <g
     inkscape:label="Layer 1"
     inkscape:groupmode="layer"
     id="layer1"
     transform="translate(0,-956.36218)">
    <rect
       style="opacity:0.05;fill:#000000;fill-opacity:1;stroke:none"
       id="rect3826"
       width="89"
       height="89"
       x="3.5"
       y="960.86218"
       rx="10.595235"
       ry="10.595235" />
    <g
       id="g3041">
      <rect
         style="opacity:0.05;fill:#000000;fill-opacity:1;stroke:none"
         id="rect3824"
         width="88"
         height="88"
         x="4"
         y="961.36218"
         rx="10.476188"
         ry="10.476188" />
      <rect
         ry="10.357141"
         rx="10.357141"
         y="961.86218"
         x="4.5"
         height="87"
         width="87"
         id="rect3822"
         style="opacity:0.05;fill:#000000;fill-opacity:1;stroke:none" />
      <rect
         style="opacity:0.1;fill:#000000;fill-opacity:1;stroke:none"
         id="rect3820"
         width="86"
         height="86"
         x="5"
         y="962.36218"
         rx="10.238094"
         ry="10.238094" />
      <rect
         ry="10.119047"
         rx="10.119047"
         y="962.86218"
         x="5.5"
         height="85"
         width="85"
         id="rect3818"
         style="opacity:0.1;fill:#000000;fill-opacity:1;stroke:none" />
      <rect
         style="opacity:0.3;fill:#000000;fill-opacity:1;stroke:none"
         id="rect3131"
         width="84"
         height="84"
         x="6"
         y="963.36218"
         rx="10"
         ry="10" />
    </g>
    <rect
       ry="10"
       rx="10"
       y="962.36218"
       x="6"
       height="84"
       width="84"
       id="rect3036"
       style="fill:url(#linearGradient3068);fill-opacity:1;stroke:none" />
    <path
       transform="matrix(1.3546798,0,0,1.3546798,113.81459,933.13123)"
       d="m -23.615093,56.272526 a 24.96804,24.96804 0 1 1 -49.936081,0 24.96804,24.96804 0 1 1 49.936081,0 z"
       sodipodi:ry="24.96804"
       sodipodi:rx="24.96804"
       sodipodi:cy="56.272526"
       sodipodi:cx="-48.583134"
       id="path3653"
       style="opacity:0.1;fill:#000000;fill-opacity:1;stroke:none"
       sodipodi:type="arc" />
    <path
       sodipodi:type="arc"
       style="opacity:0.1;fill:#000000;fill-opacity:1;stroke:none"
       id="path3651"
       sodipodi:cx="-48.583134"
       sodipodi:cy="56.272526"
       sodipodi:rx="24.96804"
       sodipodi:ry="24.96804"
       d="m -23.615093,56.272526 a 24.96804,24.96804 0 1 1 -49.936081,0 24.96804,24.96804 0 1 1 49.936081,0 z"
       transform="matrix(1.3546798,0,0,1.3546798,113.81459,932.13123)" />
    <path
       transform="matrix(1.3546798,0,0,1.3546798,113.81459,931.13123)"
       d="m -23.615093,56.272526 a 24.96804,24.96804 0 1 1 -49.936081,0 24.96804,24.96804 0 1 1 49.936081,0 z"
       sodipodi:ry="24.96804"
       sodipodi:rx="24.96804"
       sodipodi:cy="56.272526"
       sodipodi:cx="-48.583134"
       id="path3649"
       style="opacity:0.1;fill:#000000;fill-opacity:1;stroke:none"
       sodipodi:type="arc" />
    <path
       sodipodi:type="arc"
       style="opacity:0.1;fill:#000000;fill-opacity:1;stroke:none"
       id="path3647"
       sodipodi:cx="-48.583134"
       sodipodi:cy="56.272526"
       sodipodi:rx="24.96804"
       sodipodi:ry="24.96804"
       d="m -23.615093,56.272526 a 24.96804,24.96804 0 1 1 -49.936081,0 24.96804,24.96804 0 1 1 49.936081,0 z"
       transform="matrix(1.3546798,0,0,1.3546798,113.81459,930.13123)" />
    <path
       transform="matrix(1.3546798,0,0,1.3546798,113.81459,929.13123)"
       d="m -23.615093,56.272526 a 24.96804,24.96804 0 1 1 -49.936081,0 24.96804,24.96804 0 1 1 49.936081,0 z"
       sodipodi:ry="24.96804"
       sodipodi:rx="24.96804"
       sodipodi:cy="56.272526"
       sodipodi:cx="-48.583134"
       id="path3645"
       style="opacity:0.1;fill:#000000;fill-opacity:1;stroke:none"
       sodipodi:type="arc" />
    <path
       sodipodi:type="arc"
       style="fill:url(#linearGradient3623);fill-opacity:1;stroke:none"
       id="path3361"
       sodipodi:cx="-48.583134"
       sodipodi:cy="56.272526"
       sodipodi:rx="24.96804"
       sodipodi:ry="24.96804"
       d="m -23.615093,56.272526 a 24.96804,24.96804 0 1 1 -49.936081,0 24.96804,24.96804 0 1 1 49.936081,0 z"
       transform="matrix(1.3546798,0,0,1.3546798,113.81459,928.13093)" />
    <path
       transform="matrix(1.28895,0,0,1.28895,110.62123,931.82971)"
       d="m -23.615093,56.272526 a 24.96804,24.96804 0 1 1 -49.936081,0 24.96804,24.96804 0 1 1 49.936081,0 z"
       sodipodi:ry="24.96804"
       sodipodi:rx="24.96804"
       sodipodi:cy="56.272526"
       sodipodi:cx="-48.583134"
       id="path3363"
       style="fill:url(#linearGradient3625);fill-opacity:1;stroke:none"
       sodipodi:type="arc" />
    <path
       sodipodi:type="arc"
       style="fill:url(#linearGradient3627);fill-opacity:1;stroke:none"
       id="path3365"
       sodipodi:cx="-48.583134"
       sodipodi:cy="56.272526"
       sodipodi:rx="24.96804"
       sodipodi:ry="24.96804"
       d="m -23.615093,56.272526 a 24.96804,24.96804 0 1 1 -49.936081,0 24.96804,24.96804 0 1 1 49.936081,0 z"
       transform="matrix(1.2240655,0,0,1.2240655,107.46893,935.48092)" />
    <path
       transform="matrix(1.1335001,0,0,1.1335001,103.06898,940.57726)"
       d="m -23.615093,56.272526 a 24.96804,24.96804 0 1 1 -49.936081,0 24.96804,24.96804 0 1 1 49.936081,0 z"
       sodipodi:ry="24.96804"
       sodipodi:rx="24.96804"
       sodipodi:cy="56.272526"
       sodipodi:cx="-48.583134"
       id="path3367"
       style="fill:#a1a1a1;fill-opacity:1;stroke:none"
       sodipodi:type="arc" />
    <path
       sodipodi:type="arc"
       style="fill:#e8e8e8;fill-opacity:1;stroke:none"
       id="path3369"
       sodipodi:cx="-48.583134"
       sodipodi:cy="56.272526"
       sodipodi:rx="24.96804"
       sodipodi:ry="24.96804"
       d="m -23.615093,56.272526 a 24.96804,24.96804 0 1 1 -49.936081,0 24.96804,24.96804 0 1 1 49.936081,0 z"
       transform="matrix(1.0917007,0,0,1.0917007,101.03823,942.92942)" />
    <path
       transform="matrix(1.0917007,0,0,1.0917007,101.03823,942.92942)"
       d="m -23.615093,56.272526 a 24.96804,24.96804 0 1 1 -49.936081,0 24.96804,24.96804 0 1 1 49.936081,0 z"
       sodipodi:ry="24.96804"
       sodipodi:rx="24.96804"
       sodipodi:cy="56.272526"
       sodipodi:cx="-48.583134"
       id="path3539"
       style="fill:url(#linearGradient3629);fill-opacity:1;stroke:none"
       sodipodi:type="arc" />
    <path
       sodipodi:type="arc"
       style="fill:url(#linearGradient3631);fill-opacity:1;stroke:none"
       id="path3559"
       sodipodi:cx="-48.583134"
       sodipodi:cy="56.272526"
       sodipodi:rx="24.96804"
       sodipodi:ry="24.96804"
       d="m -23.615093,56.272526 a 24.96804,24.96804 0 1 1 -49.936081,0 24.96804,24.96804 0 1 1 49.936081,0 z"
       transform="matrix(0,1.0917007,-1.0917007,0,109.43275,1057.4004)" />
    <path
       inkscape:connector-curvature="0"
       style="fill:url(#linearGradient3636);fill-opacity:1;stroke:none"
       d="m 42.652,994.32032 c -0.924862,0 -1.6875,0.76264 -1.6875,1.6875 0,0.92486 0.762638,1.65625 1.6875,1.65625 0.924862,0 1.6875,-0.73139 1.6875,-1.65625 0,-0.92486 -0.762638,-1.6875 -1.6875,-1.6875 z m 5.25,0 c -0.924862,0 -1.65625,0.76264 -1.65625,1.6875 0,0.92486 0.731388,1.65625 1.65625,1.65625 0.924862,0 1.6875,-0.73139 1.6875,-1.65625 0,-0.92486 -0.762638,-1.6875 -1.6875,-1.6875 z m 5.25,0 c -0.924862,0 -1.65625,0.76264 -1.65625,1.6875 0,0.92486 0.731388,1.65625 1.65625,1.65625 0.924862,0 1.6875,-0.73139 1.6875,-1.65625 0,-0.92486 -0.762638,-1.6875 -1.6875,-1.6875 z m -13.28125,4.1875 c -0.924862,0 -1.65625,0.76264 -1.65625,1.68748 0,0.9249 0.731388,1.6563 1.65625,1.6563 0.924862,0 1.6875,-0.7314 1.6875,-1.6563 0,-0.92484 -0.762638,-1.68748 -1.6875,-1.68748 z m 5.1875,0 c -0.924862,0 -1.65625,0.76264 -1.65625,1.68748 0,0.9249 0.731388,1.6563 1.65625,1.6563 0.924862,0 1.6875,-0.7314 1.6875,-1.6563 0,-0.92484 -0.762638,-1.68748 -1.6875,-1.68748 z m 5.1875,0 c -0.924862,0 -1.65625,0.76264 -1.65625,1.68748 0,0.9249 0.731388,1.6563 1.65625,1.6563 0.924862,0 1.6875,-0.7314 1.6875,-1.6563 0,-0.92484 -0.762638,-1.68748 -1.6875,-1.68748 z m 5.1875,0 c -0.924862,0 -1.65625,0.76264 -1.65625,1.68748 0,0.9249 0.731388,1.6563 1.65625,1.6563 0.924862,0 1.6875,-0.7314 1.6875,-1.6563 0,-0.92484 -0.762638,-1.68748 -1.6875,-1.68748 z m -18.0625,4.18748 c -0.924862,0 -1.6875,0.7314 -1.6875,1.6563 0,0.9248 0.762638,1.6875 1.6875,1.6875 0.924862,0 1.65625,-0.7627 1.65625,-1.6875 0,-0.9249 -0.731388,-1.6563 -1.65625,-1.6563 z m 5.3125,0 c -0.924862,0 -1.6875,0.7314 -1.6875,1.6563 0,0.9248 0.762638,1.6875 1.6875,1.6875 0.924862,0 1.65625,-0.7627 1.65625,-1.6875 0,-0.9249 -0.731388,-1.6563 -1.65625,-1.6563 z m 5.3125,0 c -0.924862,0 -1.65625,0.7314 -1.65625,1.6563 0,0.9248 0.731388,1.6875 1.65625,1.6875 0.924862,0 1.6875,-0.7627 1.6875,-1.6875 0,-0.9249 -0.762638,-1.6563 -1.6875,-1.6563 z m 5.3125,0 c -0.924862,0 -1.65625,0.7314 -1.65625,1.6563 0,0.9248 0.731388,1.6875 1.65625,1.6875 0.924862,0 1.6875,-0.7627 1.6875,-1.6875 0,-0.9249 -0.762638,-1.6563 -1.6875,-1.6563 z m 5.34375,0 c -0.924862,0 -1.6875,0.7314 -1.6875,1.6563 0,0.9248 0.762638,1.6875 1.6875,1.6875 0.924862,0 1.65625,-0.7627 1.65625,-1.6875 0,-0.9249 -0.731388,-1.6563 -1.65625,-1.6563 z m -18.78125,4.1875 c -0.924862,0 -1.65625,0.7314 -1.65625,1.6563 0,0.9248 0.731388,1.6875 1.65625,1.6875 0.924862,0 1.6875,-0.7627 1.6875,-1.6875 0,-0.9249 -0.762638,-1.6563 -1.6875,-1.6563 z m 5.1875,0 c -0.924862,0 -1.65625,0.7314 -1.65625,1.6563 0,0.9248 0.731388,1.6875 1.65625,1.6875 0.924862,0 1.6875,-0.7627 1.6875,-1.6875 0,-0.9249 -0.762638,-1.6563 -1.6875,-1.6563 z m 5.1875,0 c -0.924862,0 -1.65625,0.7314 -1.65625,1.6563 0,0.9248 0.731388,1.6875 1.65625,1.6875 0.924862,0 1.6875,-0.7627 1.6875,-1.6875 0,-0.9249 -0.762638,-1.6563 -1.6875,-1.6563 z m 5.1875,0 c -0.924862,0 -1.65625,0.7314 -1.65625,1.6563 0,0.9248 0.731388,1.6875 1.65625,1.6875 0.924862,0 1.6875,-0.7627 1.6875,-1.6875 0,-0.9249 -0.762638,-1.6563 -1.6875,-1.6563 z m -12.78125,4.1563 c -0.924862,0 -1.6875,0.7626 -1.6875,1.6875 0,0.9248 0.762638,1.6875 1.6875,1.6875 0.924862,0 1.6875,-0.7627 1.6875,-1.6875 0,-0.9249 -0.762638,-1.6875 -1.6875,-1.6875 z m 5.25,0 c -0.924862,0 -1.65625,0.7626 -1.65625,1.6875 0,0.9248 0.731388,1.6875 1.65625,1.6875 0.924862,0 1.6875,-0.7627 1.6875,-1.6875 0,-0.9249 -0.762638,-1.6875 -1.6875,-1.6875 z m 5.25,0 c -0.924862,0 -1.65625,0.7626 -1.65625,1.6875 0,0.9248 0.731388,1.6875 1.65625,1.6875 0.924862,0 1.6875,-0.7627 1.6875,-1.6875 0,-0.9249 -0.762638,-1.6875 -1.6875,-1.6875 z"
       id="path3371" />
  </g>
</svg>
