<?xml version="1.0" encoding="UTF-8" standalone="no"?>
<svg
   width="64"
   height="64"
   version="1"
   id="svg34"
   sodipodi:docname="camera-video.svg"
   inkscape:version="1.1.2 (0a00cf5339, 2022-02-04, custom)"
   xmlns:inkscape="http://www.inkscape.org/namespaces/inkscape"
   xmlns:sodipodi="http://sodipodi.sourceforge.net/DTD/sodipodi-0.dtd"
   xmlns="http://www.w3.org/2000/svg"
   xmlns:svg="http://www.w3.org/2000/svg">
  <defs
     id="defs38" />
  <sodipodi:namedview
     id="namedview36"
     pagecolor="#ffffff"
     bordercolor="#666666"
     borderopacity="1.0"
     inkscape:pageshadow="2"
     inkscape:pageopacity="0.0"
     inkscape:pagecheckerboard="0"
     showgrid="false"
     inkscape:zoom="8.0625"
     inkscape:cx="32"
     inkscape:cy="32"
     inkscape:window-width="1366"
     inkscape:window-height="703"
     inkscape:window-x="0"
     inkscape:window-y="37"
     inkscape:window-maximized="1"
     inkscape:current-layer="svg34" />
  <rect
     x="13"
     y="6"
     width="42"
     height="54"
     rx="8"
     ry="8"
     fill="#4f4f4f"
     id="rect2" />
  <rect
     x="7"
     y="15"
     width="6"
     height="36"
     rx="1.5"
     ry="1.385"
     fill="#3f3f3f"
     id="rect4" />
  <circle
     cx="18.5"
     cy="50.5"
     r="1.5"
     opacity=".5"
     id="circle6" />
  <circle
     cx="24.5"
     cy="50.5"
     r="1.5"
     opacity=".5"
     id="circle8" />
  <circle
     cx="30.5"
     cy="50.5"
     r="1.5"
     opacity=".5"
     id="circle10" />
  <circle
     cx="36.5"
     cy="50.5"
     r="1.5"
     opacity=".5"
     id="circle12" />
  <circle
     cx="21.5"
     cy="54.5"
     r="1.5"
     opacity=".5"
     id="circle14" />
  <circle
     cx="27.5"
     cy="54.5"
     r="1.5"
     opacity=".5"
     id="circle16" />
  <circle
     cx="33.5"
     cy="54.5"
     r="1.5"
     opacity=".5"
     id="circle18" />
  <path
     d="M23 1c-1.662 0-3 1.338-3 3v28c0 7.202 5.798 13 13 13h24c1.662 0 3-1.338 3-3V14c0-7.202-5.798-13-13-13H23z"
     fill="#f9f9f9"
     style="paint-order:stroke fill markers"
     id="path20" />
  <circle
     transform="matrix(0 -1 -1 0 0 0)"
     cx="-13.5"
     cy="-47.5"
     r="2.5"
     fill="#fff"
     id="circle24"
     style="fill:#aaaaaa;fill-opacity:0.69803923" />
  <circle
     transform="matrix(0 -1 -1 0 0 0)"
     cx="-13.5"
     cy="-47.5"
     r="1.5"
     fill="#ff4d4d"
     id="circle26" />
  <circle
     transform="matrix(0 -1 -1 0 0 0)"
     cx="-27.5"
     cy="-35.5"
     r="11.5"
     fill="#fff"
     id="circle28"
     style="fill:#aaaaaa;fill-opacity:0.69803923" />
  <circle
     transform="rotate(-90)"
     cx="-27.5"
     cy="35.5"
     r="8.5"
     fill="#007095"
     id="circle30" />
  <circle
     transform="matrix(0 -1 -1 0 0 0)"
     cx="-27.5"
     cy="-35.5"
     r="4.5"
     fill="#49acdc"
     id="circle32" />
</svg>
