<?xml version="1.0" encoding="UTF-8" standalone="no"?>
<svg
   width="64"
   height="64"
   version="1"
   id="svg34"
   sodipodi:docname="chirp.svg"
   inkscape:version="1.1.2 (0a00cf5339, 2022-02-04, custom)"
   xmlns:inkscape="http://www.inkscape.org/namespaces/inkscape"
   xmlns:sodipodi="http://sodipodi.sourceforge.net/DTD/sodipodi-0.dtd"
   xmlns:xlink="http://www.w3.org/1999/xlink"
   xmlns="http://www.w3.org/2000/svg"
   xmlns:svg="http://www.w3.org/2000/svg">
  <defs
     id="defs38">
    <linearGradient
       inkscape:collect="always"
       id="linearGradient5462">
      <stop
         style="stop-color:#000000;stop-opacity:1;"
         offset="0"
         id="stop5458" />
      <stop
         style="stop-color:#000000;stop-opacity:0.99957746"
         offset="1"
         id="stop5460" />
    </linearGradient>
    <linearGradient
       inkscape:collect="always"
       id="linearGradient5294">
      <stop
         style="stop-color:#000000;stop-opacity:1;"
         offset="0"
         id="stop5290" />
      <stop
         style="stop-color:#000000;stop-opacity:1"
         offset="1"
         id="stop5292" />
    </linearGradient>
    <linearGradient
       inkscape:collect="always"
       id="linearGradient4325">
      <stop
         style="stop-color:#8e8e8e;stop-opacity:1;"
         offset="0"
         id="stop4321" />
      <stop
         style="stop-color:#ffffff;stop-opacity:1"
         offset="1"
         id="stop4323" />
    </linearGradient>
    <linearGradient
       inkscape:collect="always"
       id="linearGradient4007">
      <stop
         style="stop-color:#000000;stop-opacity:1"
         offset="0"
         id="stop4003" />
      <stop
         style="stop-color:#000000;stop-opacity:1"
         offset="1"
         id="stop4005" />
    </linearGradient>
    <radialGradient
       inkscape:collect="always"
       xlink:href="#linearGradient4007"
       id="radialGradient4009"
       cx="31.5"
       cy="32.5"
       fx="31.5"
       fy="32.5"
       r="18.5"
       gradientTransform="matrix(1,0,0,0.51351352,0,15.810811)"
       gradientUnits="userSpaceOnUse" />
    <filter
       inkscape:collect="always"
       style="color-interpolation-filters:sRGB"
       id="filter4169"
       x="-0.08172973"
       y="-0.15915789"
       width="1.1634595"
       height="1.3183158">
      <feGaussianBlur
         inkscape:collect="always"
         stdDeviation="1.26"
         id="feGaussianBlur4171" />
    </filter>
    <linearGradient
       inkscape:collect="always"
       xlink:href="#linearGradient4325"
       id="linearGradient4319"
       x1="18.132303"
       y1="44.345932"
       x2="18.287697"
       y2="58.553127"
       gradientUnits="userSpaceOnUse" />
    <radialGradient
       inkscape:collect="always"
       xlink:href="#linearGradient5294"
       id="radialGradient5296"
       cx="56"
       cy="32"
       fx="56"
       fy="32"
       r="5"
       gradientUnits="userSpaceOnUse" />
    <radialGradient
       inkscape:collect="always"
       xlink:href="#linearGradient5462"
       id="radialGradient5298"
       cx="7"
       cy="32"
       fx="7"
       fy="32"
       r="5"
       gradientUnits="userSpaceOnUse" />
    <filter
       inkscape:collect="always"
       style="color-interpolation-filters:sRGB"
       id="filter5528"
       x="-0.3"
       y="-0.3"
       width="1.6"
       height="1.6">
      <feGaussianBlur
         inkscape:collect="always"
         stdDeviation="1.25"
         id="feGaussianBlur5530" />
    </filter>
    <filter
       inkscape:collect="always"
       style="color-interpolation-filters:sRGB"
       id="filter5532"
       x="-0.3"
       y="-0.3"
       width="1.6"
       height="1.6">
      <feGaussianBlur
         inkscape:collect="always"
         stdDeviation="1.25"
         id="feGaussianBlur5534" />
    </filter>
  </defs>
  <sodipodi:namedview
     id="namedview36"
     pagecolor="#ffffff"
     bordercolor="#666666"
     borderopacity="1.0"
     inkscape:pageshadow="2"
     inkscape:pageopacity="0.0"
     inkscape:pagecheckerboard="0"
     showgrid="false"
     inkscape:zoom="4.7205462"
     inkscape:cx="18.641911"
     inkscape:cy="15.676152"
     inkscape:window-width="1366"
     inkscape:window-height="703"
     inkscape:window-x="0"
     inkscape:window-y="37"
     inkscape:window-maximized="1"
     inkscape:current-layer="svg34" />
  <rect
     style="opacity:0.2;fill-opacity:1;fill:url(#linearGradient4319)"
     width="52"
     height="32"
     x="6"
     y="17"
     rx="3.25"
     ry="2.857"
     id="rect2" />
  <rect
     style="fill:#8e8e8e"
     width="52"
     height="32"
     x="6"
     y="16"
     rx="3.25"
     ry="2.857"
     id="rect4" />
  <path
     style="fill:url(#radialGradient4009);fill-opacity:1;filter:url(#filter4169);opacity:0.5"
     d="m 15.665817,23 h 31.668366 c 1.462023,0 2.879386,1.077155 2.63903,2.375002 L 47.334183,39.625 C 47.093829,40.922845 46.157176,42 44.695153,42 H 18.304847 c -1.462023,0 -2.398675,-1.077155 -2.63903,-2.375 L 13.026787,25.375002 C 12.786431,24.077155 14.203794,23 15.665817,23 Z"
     id="path8-3" />
  <path
     style="fill:#00c7de;fill-opacity:1"
     d="m 15.665817,23 31.668366,0 c 1.462023,0 2.879386,1.077155 2.63903,2.375002 L 47.334183,39.625 C 47.093829,40.922845 46.157176,42 44.695153,42 l -26.390306,0 c -1.462023,0 -2.398675,-1.077155 -2.63903,-2.375 L 13.026787,25.375002 C 12.786431,24.077155 14.203794,23 15.665817,23 Z"
     id="path8" />
  <rect
     style="fill:url(#radialGradient5298);fill-opacity:1;filter:url(#filter5532);opacity:0.3"
     width="10"
     height="10"
     x="2"
     y="27"
     rx="2.273"
     ry="2.145"
     id="rect12-6" />
  <rect
     style="fill:#b3b3b3"
     width="10"
     height="10"
     x="2"
     y="27"
     rx="2.273"
     ry="2.145"
     id="rect12" />
  <rect
     style="fill:url(#radialGradient5296);fill-opacity:1;filter:url(#filter5528);opacity:0.3"
     width="10"
     height="10"
     x="51"
     y="27"
     rx="2.273"
     ry="2.145"
     id="rect18-7" />
  <circle
     style="opacity:0.5"
     cx="7"
     cy="32"
     r="3"
     id="circle14" />
  <rect
     style="fill:#b3b3b3"
     width="10"
     height="10"
     x="51"
     y="27"
     rx="2.273"
     ry="2.145"
     id="rect18" />
  <circle
     style="opacity:0.5"
     cx="56"
     cy="32"
     r="3"
     id="circle20" />
  <path
     style="fill:#4f4f4f"
     d="M 20.5 27 A 2.5 2.5 0 0 0 18 29.5 A 2.5 2.5 0 0 0 20.5 32 A 2.5 2.5 0 0 0 23 29.5 A 2.5 2.5 0 0 0 20.5 27 z M 27.5 27 A 2.5 2.5 0 0 0 25 29.5 A 2.5 2.5 0 0 0 27.5 32 A 2.5 2.5 0 0 0 30 29.5 A 2.5 2.5 0 0 0 27.5 27 z M 34.5 27 A 2.5 2.5 0 0 0 32 29.5 A 2.5 2.5 0 0 0 34.5 32 A 2.5 2.5 0 0 0 37 29.5 A 2.5 2.5 0 0 0 34.5 27 z M 41.5 27 A 2.5 2.5 0 0 0 39 29.5 A 2.5 2.5 0 0 0 41.5 32 A 2.5 2.5 0 0 0 44 29.5 A 2.5 2.5 0 0 0 41.5 27 z M 24.5 33 A 2.5 2.5 0 0 0 22 35.5 A 2.5 2.5 0 0 0 24.5 38 A 2.5 2.5 0 0 0 27 35.5 A 2.5 2.5 0 0 0 24.5 33 z M 31.5 33 A 2.5 2.5 0 0 0 29 35.5 A 2.5 2.5 0 0 0 31.5 38 A 2.5 2.5 0 0 0 34 35.5 A 2.5 2.5 0 0 0 31.5 33 z M 38.5 33 A 2.5 2.5 0 0 0 36 35.5 A 2.5 2.5 0 0 0 38.5 38 A 2.5 2.5 0 0 0 41 35.5 A 2.5 2.5 0 0 0 38.5 33 z"
     id="path28" />
</svg>
