<?xml version="1.0" encoding="UTF-8" standalone="no"?>
<!-- Created with Inkscape (http://www.inkscape.org/) -->

<svg
   xmlns:dc="http://purl.org/dc/elements/1.1/"
   xmlns:cc="http://creativecommons.org/ns#"
   xmlns:rdf="http://www.w3.org/1999/02/22-rdf-syntax-ns#"
   xmlns:svg="http://www.w3.org/2000/svg"
   xmlns="http://www.w3.org/2000/svg"
   xmlns:xlink="http://www.w3.org/1999/xlink"
   xmlns:sodipodi="http://sodipodi.sourceforge.net/DTD/sodipodi-0.dtd"
   xmlns:inkscape="http://www.inkscape.org/namespaces/inkscape"
   width="96"
   height="96"
   id="svg2"
   version="1.1"
   inkscape:version="0.48.4 r9939"
   sodipodi:docname="drive-harddisk-usb.svg">
  <defs
     id="defs4">
    <linearGradient
       id="linearGradient4246"
       inkscape:collect="always">
      <stop
         id="stop4248"
         offset="0"
         style="stop-color:#ffffff;stop-opacity:1" />
      <stop
         id="stop4250"
         offset="1"
         style="stop-color:#ffffff;stop-opacity:0" />
    </linearGradient>
    <linearGradient
       inkscape:collect="always"
       id="linearGradient4178">
      <stop
         style="stop-color:#ccffaa;stop-opacity:1"
         offset="0"
         id="stop4180" />
      <stop
         style="stop-color:#66ff00;stop-opacity:1"
         offset="1"
         id="stop4182" />
    </linearGradient>
    <linearGradient
       inkscape:collect="always"
       id="linearGradient4152">
      <stop
         style="stop-color:#c6c3d6;stop-opacity:1"
         offset="0"
         id="stop4154" />
      <stop
         style="stop-color:#e2deee;stop-opacity:1"
         offset="1"
         id="stop4156" />
    </linearGradient>
    <linearGradient
       id="linearGradient4146"
       inkscape:collect="always">
      <stop
         id="stop4148"
         offset="0"
         style="stop-color:#ded7e7;stop-opacity:1" />
      <stop
         id="stop4150"
         offset="1"
         style="stop-color:#f3edf7;stop-opacity:1" />
    </linearGradient>
    <linearGradient
       id="linearGradient4130">
      <stop
         id="stop4132"
         offset="0"
         style="stop-color:#000000;stop-opacity:1" />
      <stop
         style="stop-color:#333333;stop-opacity:1"
         offset="0.05052935"
         id="stop4134" />
      <stop
         id="stop4136"
         offset="0.18049203"
         style="stop-color:#000000;stop-opacity:1" />
      <stop
         style="stop-color:#000000;stop-opacity:1"
         offset="0.82271612"
         id="stop4138" />
      <stop
         id="stop4140"
         offset="0.94249851"
         style="stop-color:#333333;stop-opacity:1" />
      <stop
         id="stop4142"
         offset="1"
         style="stop-color:#000000;stop-opacity:1" />
    </linearGradient>
    <linearGradient
       id="linearGradient4293">
      <stop
         style="stop-color:#3b69a4;stop-opacity:1;"
         offset="0"
         id="stop4295" />
      <stop
         id="stop4301"
         offset="0.12751994"
         style="stop-color:#3b69a4;stop-opacity:0" />
      <stop
         style="stop-color:#3b69a4;stop-opacity:0"
         offset="0.88838893"
         id="stop4303" />
      <stop
         style="stop-color:#3b69a4;stop-opacity:1;"
         offset="1"
         id="stop4297" />
    </linearGradient>
    <linearGradient
       id="linearGradient3059">
      <stop
         style="stop-color:#101018;stop-opacity:1"
         offset="0"
         id="stop3061" />
      <stop
         id="stop4042"
         offset="0.05052935"
         style="stop-color:#212442;stop-opacity:1" />
      <stop
         style="stop-color:#100c18;stop-opacity:1"
         offset="0.18049203"
         id="stop4044" />
      <stop
         id="stop3352"
         offset="0.82271612"
         style="stop-color:#100c18;stop-opacity:1" />
      <stop
         style="stop-color:#212442;stop-opacity:1;"
         offset="0.94249851"
         id="stop3354" />
      <stop
         style="stop-color:#101018;stop-opacity:1"
         offset="1"
         id="stop3064" />
    </linearGradient>
    <linearGradient
       inkscape:collect="always"
       id="linearGradient3048">
      <stop
         style="stop-color:#c16d16;stop-opacity:1"
         offset="0"
         id="stop3050" />
      <stop
         style="stop-color:#ff8e31;stop-opacity:1"
         offset="1"
         id="stop3052" />
    </linearGradient>
    <linearGradient
       inkscape:collect="always"
       id="linearGradient3119">
      <stop
         style="stop-color:#92948f;stop-opacity:0"
         offset="0"
         id="stop3121" />
      <stop
         id="stop3123"
         offset="0.4283945"
         style="stop-color:#9b9e98;stop-opacity:1" />
      <stop
         style="stop-color:#939690;stop-opacity:0"
         offset="1"
         id="stop3125" />
    </linearGradient>
    <linearGradient
       id="linearGradient3073"
       inkscape:collect="always">
      <stop
         id="stop3075"
         offset="0"
         style="stop-color:#ffffff;stop-opacity:0" />
      <stop
         style="stop-color:#ffffff;stop-opacity:1"
         offset="0.45872402"
         id="stop3085" />
      <stop
         id="stop3083"
         offset="1"
         style="stop-color:#ffffff;stop-opacity:0" />
    </linearGradient>
    <linearGradient
       inkscape:collect="always"
       id="linearGradient3047">
      <stop
         style="stop-color:#000000;stop-opacity:1"
         offset="0"
         id="stop3049" />
      <stop
         id="stop3055"
         offset="0.06123874"
         style="stop-color:#1a1a1a;stop-opacity:1" />
      <stop
         style="stop-color:#333333;stop-opacity:1"
         offset="0.16480456"
         id="stop3057" />
      <stop
         id="stop3059"
         offset="0.55385184"
         style="stop-color:#4d4d4d;stop-opacity:1" />
      <stop
         style="stop-color:#999999;stop-opacity:1"
         offset="1"
         id="stop3051" />
    </linearGradient>
    <linearGradient
       id="linearGradient3041"
       inkscape:collect="always">
      <stop
         id="stop3043"
         offset="0"
         style="stop-color:#1a1a1a;stop-opacity:1" />
      <stop
         id="stop3045"
         offset="1"
         style="stop-color:#808080;stop-opacity:1" />
    </linearGradient>
    <linearGradient
       inkscape:collect="always"
       id="linearGradient3029">
      <stop
         style="stop-color:#333333;stop-opacity:1"
         offset="0"
         id="stop3031" />
      <stop
         style="stop-color:#e0e0dd;stop-opacity:0;"
         offset="1"
         id="stop3033" />
    </linearGradient>
    <linearGradient
       inkscape:collect="always"
       xlink:href="#linearGradient3029"
       id="linearGradient3035"
       x1="35.355339"
       y1="1030.3622"
       x2="35.355339"
       y2="975.33282"
       gradientUnits="userSpaceOnUse"
       gradientTransform="matrix(1.1638085,0,0,1.1638085,-7.862809,-164.23642)" />
    <linearGradient
       inkscape:collect="always"
       xlink:href="#linearGradient3041"
       id="linearGradient3039"
       gradientUnits="userSpaceOnUse"
       x1="35.355339"
       y1="1030.3622"
       x2="35.355339"
       y2="975.33282"
       gradientTransform="matrix(1.1218695,0,0,1.1218695,-5.8497348,-122.18782)" />
    <linearGradient
       inkscape:collect="always"
       xlink:href="#linearGradient3047"
       id="linearGradient3053"
       x1="40"
       y1="1043.4336"
       x2="39.285713"
       y2="972.33325"
       gradientUnits="userSpaceOnUse" />
    <linearGradient
       inkscape:collect="always"
       xlink:href="#linearGradient3073"
       id="linearGradient3113"
       gradientUnits="userSpaceOnUse"
       gradientTransform="translate(0,-956.36218)"
       x1="14.869445"
       y1="978.90387"
       x2="24.52651"
       y2="969.24683" />
    <linearGradient
       inkscape:collect="always"
       xlink:href="#linearGradient3073"
       id="linearGradient3115"
       gradientUnits="userSpaceOnUse"
       gradientTransform="matrix(-1,0,0,1,96,-956.36218)"
       x1="15.152279"
       y1="978.62103"
       x2="26.263966"
       y2="967.50934" />
    <linearGradient
       inkscape:collect="always"
       xlink:href="#linearGradient3119"
       id="linearGradient3117"
       gradientUnits="userSpaceOnUse"
       gradientTransform="translate(0,-956.36218)"
       x1="13.131983"
       y1="980.64136"
       x2="25.549681"
       y2="967.86646" />
    <linearGradient
       inkscape:collect="always"
       xlink:href="#linearGradient3119"
       id="linearGradient3129"
       gradientUnits="userSpaceOnUse"
       gradientTransform="matrix(-1,0,0,1,96,0)"
       x1="13.131983"
       y1="980.64136"
       x2="25.549681"
       y2="967.86646" />
    <linearGradient
       inkscape:collect="always"
       xlink:href="#linearGradient3048"
       id="linearGradient3054"
       x1="49.267925"
       y1="996.57349"
       x2="49.267925"
       y2="1045.8627"
       gradientUnits="userSpaceOnUse" />
    <linearGradient
       inkscape:collect="always"
       xlink:href="#linearGradient3048"
       id="linearGradient3058"
       x1="115.80308"
       y1="985.47241"
       x2="115.80308"
       y2="1033.5543"
       gradientUnits="userSpaceOnUse" />
    <linearGradient
       inkscape:collect="always"
       xlink:href="#linearGradient4130"
       id="linearGradient4128"
       gradientUnits="userSpaceOnUse"
       x1="7.7721348"
       y1="1046.0226"
       x2="87.516144"
       y2="1046.0226" />
    <linearGradient
       inkscape:collect="always"
       xlink:href="#linearGradient4146"
       id="linearGradient4144"
       gradientUnits="userSpaceOnUse"
       x1="48.543396"
       y1="1030.6263"
       x2="48.543396"
       y2="963.96973"
       gradientTransform="matrix(0.97560976,0,0,0.97560976,0.17073171,25.179566)" />
    <linearGradient
       inkscape:collect="always"
       xlink:href="#linearGradient4152"
       id="linearGradient4158"
       x1="21.011322"
       y1="1036.0603"
       x2="21.011322"
       y2="962.49835"
       gradientUnits="userSpaceOnUse" />
    <radialGradient
       inkscape:collect="always"
       xlink:href="#linearGradient4178"
       id="radialGradient4186"
       cx="-18.219341"
       cy="85.049187"
       fx="-18.219341"
       fy="85.049187"
       r="3.2660329"
       gradientUnits="userSpaceOnUse"
       gradientTransform="matrix(0.72555705,-0.72555705,0.70710569,0.70710787,-65.138933,11.691067)" />
    <linearGradient
       inkscape:collect="always"
       xlink:href="#linearGradient4146"
       id="linearGradient4193"
       gradientUnits="userSpaceOnUse"
       gradientTransform="matrix(0.97560976,0,0,0.97560976,0.17073171,25.179566)"
       x1="48.543396"
       y1="1030.6263"
       x2="48.543396"
       y2="963.96973" />
    <linearGradient
       inkscape:collect="always"
       xlink:href="#linearGradient4146"
       id="linearGradient4197"
       gradientUnits="userSpaceOnUse"
       gradientTransform="matrix(0.97560976,0,0,0.97560976,1.1707317,24.179546)"
       x1="48.543396"
       y1="1030.6263"
       x2="48.543396"
       y2="963.96973" />
    <linearGradient
       inkscape:collect="always"
       xlink:href="#linearGradient4130"
       id="linearGradient4213"
       gradientUnits="userSpaceOnUse"
       x1="7.7721348"
       y1="1046.0226"
       x2="87.516144"
       y2="1046.0226"
       gradientTransform="translate(0,-956.36218)" />
    <linearGradient
       inkscape:collect="always"
       xlink:href="#linearGradient4146"
       id="linearGradient4241"
       gradientUnits="userSpaceOnUse"
       gradientTransform="matrix(0.97560976,0,0,0.97560976,1.1707317,-932.18263)"
       x1="48.543396"
       y1="1030.6263"
       x2="48.543396"
       y2="963.96973" />
    <linearGradient
       inkscape:collect="always"
       xlink:href="#linearGradient4246"
       id="linearGradient4244"
       gradientUnits="userSpaceOnUse"
       gradientTransform="matrix(0.97560976,0,0,0.97560976,1.1707317,-932.18263)"
       x1="67.973091"
       y1="1017.4982"
       x2="48.543396"
       y2="963.96973" />
  </defs>
  <sodipodi:namedview
     id="base"
     pagecolor="#ffffff"
     bordercolor="#666666"
     borderopacity="1.0"
     inkscape:pageopacity="0.0"
     inkscape:pageshadow="2"
     inkscape:zoom="3.9038186"
     inkscape:cx="114.40472"
     inkscape:cy="62.959076"
     inkscape:document-units="px"
     inkscape:current-layer="layer1"
     showgrid="false"
     inkscape:window-width="1366"
     inkscape:window-height="705"
     inkscape:window-x="0"
     inkscape:window-y="28"
     inkscape:window-maximized="1"
     showguides="true"
     inkscape:guide-bbox="true" />
  <metadata
     id="metadata7">
    <rdf:RDF>
      <cc:Work
         rdf:about="">
        <dc:format>image/svg+xml</dc:format>
        <dc:type
           rdf:resource="http://purl.org/dc/dcmitype/StillImage" />
        <dc:title />
      </cc:Work>
    </rdf:RDF>
  </metadata>
  <g
     inkscape:label="Layer 1"
     inkscape:groupmode="layer"
     id="layer1"
     transform="translate(0,-956.36218)">
    <rect
       style="opacity:0.05;fill:#000000;fill-opacity:1;stroke:none"
       id="rect3826"
       width="89"
       height="89"
       x="3.5"
       y="960.86218"
       rx="10.595235"
       ry="10.595235" />
    <g
       id="g3041">
      <rect
         style="opacity:0.05;fill:#000000;fill-opacity:1;stroke:none"
         id="rect3824"
         width="88"
         height="88"
         x="4"
         y="961.36218"
         rx="10.476188"
         ry="10.476188" />
      <rect
         ry="10.357141"
         rx="10.357141"
         y="961.86218"
         x="4.5"
         height="87"
         width="87"
         id="rect3822"
         style="opacity:0.05;fill:#000000;fill-opacity:1;stroke:none" />
      <rect
         style="opacity:0.1;fill:#000000;fill-opacity:1;stroke:none"
         id="rect3820"
         width="86"
         height="86"
         x="5"
         y="962.36218"
         rx="10.238094"
         ry="10.238094" />
      <rect
         ry="10.119047"
         rx="10.119047"
         y="962.86218"
         x="5.5"
         height="85"
         width="85"
         id="rect3818"
         style="opacity:0.1;fill:#000000;fill-opacity:1;stroke:none" />
      <rect
         style="opacity:0.3;fill:#000000;fill-opacity:1;stroke:none"
         id="rect3131"
         width="84"
         height="84"
         x="6"
         y="963.36218"
         rx="10"
         ry="10" />
    </g>
    <rect
       ry="10"
       rx="10"
       y="962.36218"
       x="6"
       height="84"
       width="84"
       id="rect3036"
       style="fill:url(#linearGradient4128);fill-opacity:1;stroke:none" />
    <path
       style="fill:url(#linearGradient4158);fill-opacity:1;stroke:none"
       d="m 16,962.36218 64,0 c 5.54,0 10,4.46 10,10 l 0,54.00002 c 0,5.54 -4.46,10 -10,10 l -64,0 c -5.54,0 -10,-4.46 -10,-10 l 0,-54.00002 c 0,-5.54 4.46,-10 10,-10 z"
       id="rect4125"
       inkscape:connector-curvature="0"
       sodipodi:nodetypes="sssssssss" />
    <path
       style="fill:#4d4d4d;fill-opacity:1;stroke:none"
       d="M 6 74.5 L 6 75.5 C 6 81.04 10.46 85.5 16 85.5 L 80 85.5 C 85.54 85.5 90 81.04 90 75.5 L 90 74.5 C 90 80.04 85.54 84.5 80 84.5 L 16 84.5 C 10.46 84.5 6 80.04 6 74.5 z "
       transform="translate(0,956.36218)"
       id="rect4160" />
    <path
       style="fill:#b5b6c6;fill-opacity:1;stroke:none"
       d="m 17.52381,966.02066 60.95238,0 c 5.27619,0 9.52381,4.24762 9.52381,9.52381 l 0,47.29393 c 0,5.2762 -4.24762,9.5238 -9.52381,9.5238 l -60.95238,0 C 12.24762,1032.3622 8,1028.1146 8,1022.8384 l 0,-47.29393 c 0,-5.27619 4.24762,-9.52381 9.52381,-9.52381 z"
       id="path4200"
       inkscape:connector-curvature="0"
       sodipodi:nodetypes="sssssssss" />
    <path
       sodipodi:nodetypes="sssssssss"
       inkscape:connector-curvature="0"
       id="path4167"
       d="m 17.52381,965.02068 60.95238,0 c 5.27619,0 9.52381,4.24762 9.52381,9.52381 l 0,47.29391 c 0,5.2762 -4.24762,9.5238 -9.52381,9.5238 l -60.95238,0 C 12.24762,1031.3622 8,1027.1146 8,1021.8384 l 0,-47.29391 c 0,-5.27619 4.24762,-9.52381 9.52381,-9.52381 z"
       style="fill:#8c8a9c;fill-opacity:1;stroke:none" />
    <path
       style="fill:url(#linearGradient4197);fill-opacity:1;stroke:none"
       d="m 17.52381,964.04509 60.95238,0 c 5.27619,0 9.52381,4.24762 9.52381,9.52381 l 0,47.2939 c 0,5.2762 -4.24762,9.5238 -9.52381,9.5238 l -60.95238,0 C 12.24762,1030.3866 8,1026.139 8,1020.8628 l 0,-47.2939 c 0,-5.27619 4.24762,-9.52381 9.52381,-9.52381 z"
       id="rect3034"
       inkscape:connector-curvature="0"
       sodipodi:nodetypes="sssssssss" />
    <path
       style="fill:#ffffff;fill-opacity:1;stroke:none"
       d="M 17.512195,964.04509 C 12.236005,964.04509 8,968.28109 8,973.55728 l 0,0.97561 c 0,-5.27619 4.236005,-9.51219 9.512195,-9.51219 l 60.97561,0 c 5.27619,0 9.512195,4.236 9.512195,9.51219 l 0,-0.97561 c 0,-5.27619 -4.236005,-9.51219 -9.512195,-9.51219 l -60.97561,0 z"
       id="path4171"
       inkscape:connector-curvature="0" />
    <path
       sodipodi:type="arc"
       style="fill:url(#radialGradient4186);fill-opacity:1;stroke:none"
       id="path4176"
       sodipodi:cx="-18.66762"
       sodipodi:cy="85.753624"
       sodipodi:rx="3.2660329"
       sodipodi:ry="3.2660329"
       d="m -15.401587,85.753624 c 0,1.80378 -1.462253,3.266033 -3.266033,3.266033 -1.80378,0 -3.266033,-1.462253 -3.266033,-3.266033 0,-1.80378 1.462253,-3.266033 3.266033,-3.266033 1.80378,0 3.266033,1.462253 3.266033,3.266033 z"
       transform="matrix(0.76545462,0,0,0.76545462,93.789216,975.72167)" />
    <path
       style="opacity:1;fill:#5a5563;fill-opacity:1;stroke:none"
       d="m 25.03125,80 1.09375,1.875 43.75,0 L 70.96875,80 z"
       transform="translate(0,956.36218)"
       id="path4202"
       inkscape:connector-curvature="0"
       sodipodi:nodetypes="ccccc" />
    <path
       style="fill:url(#linearGradient4244);fill-opacity:1;stroke:none"
       d="M 17.53125 7.6875 C 12.25506 7.6875 8 11.94256 8 17.21875 L 8 50.53125 C 26.00906 33.752274 55.024067 22.614558 88 21.78125 L 88 17.21875 C 88 11.94256 83.74494 7.6875 78.46875 7.6875 L 17.53125 7.6875 z "
       transform="translate(0,956.36218)"
       id="path4219" />
    <path
       style="fill:#8c8a9c;fill-opacity:1;stroke:none;display:inline"
       id="path1334"
       inkscape:connector-curvature="0"
       d="m 34.286102,993.17424 c 0,1.39932 1.041111,2.59824 2.518207,3.13616 l 0,3.49427 c 0,1.24913 0.781278,2.42523 1.720769,3.27253 0.01,0.01 0.0109,0.024 0.021,0.034 0,0 0,0.017 0,0.017 2e-5,10e-5 0.0419,0.052 0.042,0.052 1.8e-4,2e-4 0.0361,0.047 0.042,0.052 0.006,0.01 0.0174,0 0.021,0 0.004,0 -0.004,0.014 0,0.017 0.0142,0.012 0.0424,0.018 0.063,0.035 0.007,0.01 0.0138,0.011 0.021,0.017 0.0225,0.016 6.96545,5.2705 7.05097,5.3352 0.33325,0.3441 0.57483,0.8178 0.58758,1.2442 l 0,3.0508 c -2.10382,0.5697 -3.63041,2.1698 -3.63041,4.0397 -10e-6,2.348 2.38871,4.2441 5.33019,4.2441 2.94237,0 5.3302,-1.8961 5.3302,-4.2441 0,-1.8703 -1.52537,-3.47 -3.63041,-4.0397 l 0,-3.0167 c 0,0.01 -3.9e-4,-0.026 0,-0.034 3.9e-4,-0.01 0.002,0 0,-0.034 l 0,-5.2668 c 0.0136,-0.4259 0.25098,-0.8646 0.58758,-1.2102 0.0425,-0.033 1.7506,-1.3352 3.5045,-2.6589 0.8878,-0.6702 1.78727,-1.33683 2.45525,-1.84093 0.33399,-0.2519 0.60139,-0.4657 0.79743,-0.6137 0.098,-0.074 0.17772,-0.1303 0.23084,-0.1704 0.0266,-0.019 0.049,-0.023 0.063,-0.034 0.007,-0.01 0.0142,-0.024 0.021,-0.035 0.0192,-0.015 0.0498,-0.023 0.063,-0.034 0.004,0 -0.004,-0.013 0,-0.017 0.004,0 0.0145,0.01 0.021,0 0.006,-0.01 0.0418,-0.068 0.042,-0.068 2e-5,-10e-5 0.0419,-0.034 0.042,-0.034 0,0 0,-0.0172 0,-0.0172 0,0 0.021,-0.0172 0.021,-0.0172 0.004,0 -0.004,-0.0137 0,-0.0171 0.008,-0.0172 0.021,-0.0343 0.021,-0.0343 0.92526,-0.84578 1.69979,-2.00253 1.69979,-3.23848 l 0,-3.20448 2.37131,0 0,-6.8008 -8.15739,0 0,6.8008 2.3865,0 c 0,0.71345 0,1.45443 0,3.25554 -0.0123,0.42625 -0.2491,0.86218 -0.58758,1.21025 l -5.58202,4.2271 0,-18.83453 3.68178,0 -5.45527,-7.97693 -5.45668,7.97693 3.8306,0 0,24.10143 -5.58202,-4.2101 c -0.33439,-0.3454 -0.5752,-0.8176 -0.58758,-1.24443 0,-1.4692 2e-4,-2.6134 0,-3.51115 1.51183,-0.52772 2.58116,-1.73445 2.58116,-3.15321 0,-1.90295 -1.9172,-3.46015 -4.25996,-3.46015 -2.342763,0 -4.238981,1.5572 -4.238981,3.46015 z" />
    <path
       style="fill:#4d4b51;fill-opacity:0.57918555;stroke:none;display:inline"
       d="M 48 16.84375 L 42.53125 24.84375 L 43.21875 24.84375 L 48 17.84375 L 52.78125 24.84375 L 53.46875 24.84375 L 48 16.84375 z M 53.5625 28.1875 L 53.5625 29.1875 L 61.71875 29.1875 L 61.71875 28.1875 L 53.5625 28.1875 z M 38.53125 33.34375 C 36.188487 33.34375 34.28125 34.90955 34.28125 36.8125 C 34.28125 36.987415 34.312397 37.144747 34.34375 37.3125 C 34.645885 35.648428 36.401141 34.34375 38.53125 34.34375 C 40.70056 34.34375 42.463453 35.697742 42.71875 37.40625 C 42.759772 37.215361 42.78125 37.013196 42.78125 36.8125 C 42.78125 34.90955 40.87401 33.34375 38.53125 33.34375 z M 55.9375 38.21875 C 55.9252 38.645 55.68223 39.08943 55.34375 39.4375 L 49.78125 43.65625 L 49.78125 44.65625 L 55.34375 40.4375 C 55.68223 40.08943 55.9252 39.645 55.9375 39.21875 L 55.9375 38.21875 z M 40.21875 43.46875 C 40.218731 43.8373 40.21875 44.048964 40.21875 44.46875 C 40.23113 44.89555 40.44686 45.37335 40.78125 45.71875 L 46.375 49.9375 L 46.375 48.9375 L 40.78125 44.71875 C 40.44686 44.37335 40.23113 43.89558 40.21875 43.46875 z M 46.375 56.5625 C 44.27118 57.1322 42.75 58.72385 42.75 60.59375 C 42.749999 60.771317 42.754722 60.953226 42.78125 61.125 C 43.012533 59.461137 44.450091 58.083752 46.375 57.5625 L 46.375 56.5625 z M 49.78125 56.5625 L 49.78125 57.5625 C 51.695413 58.080542 53.130525 59.443344 53.375 61.09375 C 53.398442 60.932035 53.40625 60.760544 53.40625 60.59375 C 53.40625 58.72345 51.88629 57.1322 49.78125 56.5625 z "
       transform="translate(0,956.36218)"
       id="path3206" />
  </g>
</svg>
