<?xml version="1.0" encoding="UTF-8" standalone="no"?>
<!-- Created with Inkscape (http://www.inkscape.org/) -->

<svg
   xmlns:dc="http://purl.org/dc/elements/1.1/"
   xmlns:cc="http://creativecommons.org/ns#"
   xmlns:rdf="http://www.w3.org/1999/02/22-rdf-syntax-ns#"
   xmlns:svg="http://www.w3.org/2000/svg"
   xmlns="http://www.w3.org/2000/svg"
   xmlns:xlink="http://www.w3.org/1999/xlink"
   xmlns:sodipodi="http://sodipodi.sourceforge.net/DTD/sodipodi-0.dtd"
   xmlns:inkscape="http://www.inkscape.org/namespaces/inkscape"
   width="96"
   height="96"
   id="svg2"
   version="1.1"
   inkscape:version="0.48.4 r9939"
   sodipodi:docname="drive-removable-media.svg">
  <defs
     id="defs4">
    <linearGradient
       id="linearGradient48169">
      <stop
         id="stop48171"
         offset="0"
         style="stop-color:#e49121;stop-opacity:1" />
      <stop
         style="stop-color:#e49221;stop-opacity:1;"
         offset="0.02899331"
         id="stop3170" />
      <stop
         style="stop-color:#efab33;stop-opacity:1"
         offset="0.54755884"
         id="stop48177" />
      <stop
         style="stop-color:#f4c141;stop-opacity:1"
         offset="0.56443256"
         id="stop48175" />
      <stop
         id="stop48173"
         offset="1"
         style="stop-color:#fddc61;stop-opacity:1" />
    </linearGradient>
    <linearGradient
       inkscape:collect="always"
       id="linearGradient3847">
      <stop
         style="stop-color:#ffffff;stop-opacity:1;"
         offset="0"
         id="stop3849" />
      <stop
         style="stop-color:#ffffff;stop-opacity:0;"
         offset="1"
         id="stop3851" />
    </linearGradient>
    <linearGradient
       id="linearGradient4807">
      <stop
         id="stop4809"
         offset="0"
         style="stop-color:#d5b400;stop-opacity:1;" />
      <stop
         id="stop4811"
         offset="1"
         style="stop-color:#ffac58;stop-opacity:1;" />
    </linearGradient>
    <linearGradient
       id="linearGradient4246"
       inkscape:collect="always">
      <stop
         id="stop4248"
         offset="0"
         style="stop-color:#ffffff;stop-opacity:1" />
      <stop
         id="stop4250"
         offset="1"
         style="stop-color:#ffffff;stop-opacity:0" />
    </linearGradient>
    <linearGradient
       inkscape:collect="always"
       id="linearGradient4178">
      <stop
         style="stop-color:#ccffaa;stop-opacity:1"
         offset="0"
         id="stop4180" />
      <stop
         style="stop-color:#66ff00;stop-opacity:1"
         offset="1"
         id="stop4182" />
    </linearGradient>
    <linearGradient
       id="linearGradient4152">
      <stop
         style="stop-color:#ff8a00;stop-opacity:1;"
         offset="0"
         id="stop4154" />
      <stop
         style="stop-color:#ffb045;stop-opacity:1;"
         offset="1"
         id="stop4156" />
    </linearGradient>
    <linearGradient
       id="linearGradient4146"
       inkscape:collect="always">
      <stop
         id="stop4148"
         offset="0"
         style="stop-color:#ded7e7;stop-opacity:1" />
      <stop
         id="stop4150"
         offset="1"
         style="stop-color:#f3edf7;stop-opacity:1" />
    </linearGradient>
    <linearGradient
       id="linearGradient4130">
      <stop
         id="stop4132"
         offset="0"
         style="stop-color:#000000;stop-opacity:1" />
      <stop
         style="stop-color:#333333;stop-opacity:1"
         offset="0.05052935"
         id="stop4134" />
      <stop
         id="stop4136"
         offset="0.18049203"
         style="stop-color:#000000;stop-opacity:1" />
      <stop
         style="stop-color:#000000;stop-opacity:1"
         offset="0.82271612"
         id="stop4138" />
      <stop
         id="stop4140"
         offset="0.94249851"
         style="stop-color:#333333;stop-opacity:1" />
      <stop
         id="stop4142"
         offset="1"
         style="stop-color:#000000;stop-opacity:1" />
    </linearGradient>
    <linearGradient
       id="linearGradient4293">
      <stop
         style="stop-color:#3b69a4;stop-opacity:1;"
         offset="0"
         id="stop4295" />
      <stop
         id="stop4301"
         offset="0.12751994"
         style="stop-color:#3b69a4;stop-opacity:0" />
      <stop
         style="stop-color:#3b69a4;stop-opacity:0"
         offset="0.88838893"
         id="stop4303" />
      <stop
         style="stop-color:#3b69a4;stop-opacity:1;"
         offset="1"
         id="stop4297" />
    </linearGradient>
    <linearGradient
       id="linearGradient3059">
      <stop
         style="stop-color:#101018;stop-opacity:1"
         offset="0"
         id="stop3061" />
      <stop
         id="stop4042"
         offset="0.05052935"
         style="stop-color:#212442;stop-opacity:1" />
      <stop
         style="stop-color:#100c18;stop-opacity:1"
         offset="0.18049203"
         id="stop4044" />
      <stop
         id="stop3352"
         offset="0.82271612"
         style="stop-color:#100c18;stop-opacity:1" />
      <stop
         style="stop-color:#212442;stop-opacity:1;"
         offset="0.94249851"
         id="stop3354" />
      <stop
         style="stop-color:#101018;stop-opacity:1"
         offset="1"
         id="stop3064" />
    </linearGradient>
    <linearGradient
       inkscape:collect="always"
       id="linearGradient3048">
      <stop
         style="stop-color:#c16d16;stop-opacity:1"
         offset="0"
         id="stop3050" />
      <stop
         style="stop-color:#ff8e31;stop-opacity:1"
         offset="1"
         id="stop3052" />
    </linearGradient>
    <linearGradient
       inkscape:collect="always"
       id="linearGradient3119">
      <stop
         style="stop-color:#92948f;stop-opacity:0"
         offset="0"
         id="stop3121" />
      <stop
         id="stop3123"
         offset="0.4283945"
         style="stop-color:#9b9e98;stop-opacity:1" />
      <stop
         style="stop-color:#939690;stop-opacity:0"
         offset="1"
         id="stop3125" />
    </linearGradient>
    <linearGradient
       id="linearGradient3073"
       inkscape:collect="always">
      <stop
         id="stop3075"
         offset="0"
         style="stop-color:#ffffff;stop-opacity:0" />
      <stop
         style="stop-color:#ffffff;stop-opacity:1"
         offset="0.45872402"
         id="stop3085" />
      <stop
         id="stop3083"
         offset="1"
         style="stop-color:#ffffff;stop-opacity:0" />
    </linearGradient>
    <linearGradient
       inkscape:collect="always"
       id="linearGradient3047">
      <stop
         style="stop-color:#000000;stop-opacity:1"
         offset="0"
         id="stop3049" />
      <stop
         id="stop3055"
         offset="0.06123874"
         style="stop-color:#1a1a1a;stop-opacity:1" />
      <stop
         style="stop-color:#333333;stop-opacity:1"
         offset="0.16480456"
         id="stop3057" />
      <stop
         id="stop3059"
         offset="0.55385184"
         style="stop-color:#4d4d4d;stop-opacity:1" />
      <stop
         style="stop-color:#999999;stop-opacity:1"
         offset="1"
         id="stop3051" />
    </linearGradient>
    <linearGradient
       id="linearGradient3041"
       inkscape:collect="always">
      <stop
         id="stop3043"
         offset="0"
         style="stop-color:#1a1a1a;stop-opacity:1" />
      <stop
         id="stop3045"
         offset="1"
         style="stop-color:#808080;stop-opacity:1" />
    </linearGradient>
    <linearGradient
       inkscape:collect="always"
       id="linearGradient3029">
      <stop
         style="stop-color:#333333;stop-opacity:1"
         offset="0"
         id="stop3031" />
      <stop
         style="stop-color:#e0e0dd;stop-opacity:0;"
         offset="1"
         id="stop3033" />
    </linearGradient>
    <linearGradient
       inkscape:collect="always"
       xlink:href="#linearGradient3029"
       id="linearGradient3035"
       x1="35.355339"
       y1="1030.3622"
       x2="35.355339"
       y2="975.33282"
       gradientUnits="userSpaceOnUse"
       gradientTransform="matrix(1.1638085,0,0,1.1638085,-7.862809,-164.23642)" />
    <linearGradient
       inkscape:collect="always"
       xlink:href="#linearGradient3041"
       id="linearGradient3039"
       gradientUnits="userSpaceOnUse"
       x1="35.355339"
       y1="1030.3622"
       x2="35.355339"
       y2="975.33282"
       gradientTransform="matrix(1.1218695,0,0,1.1218695,-5.8497348,-122.18782)" />
    <linearGradient
       inkscape:collect="always"
       xlink:href="#linearGradient3047"
       id="linearGradient3053"
       x1="40"
       y1="1043.4336"
       x2="39.285713"
       y2="972.33325"
       gradientUnits="userSpaceOnUse" />
    <linearGradient
       inkscape:collect="always"
       xlink:href="#linearGradient3073"
       id="linearGradient3113"
       gradientUnits="userSpaceOnUse"
       gradientTransform="translate(0,-956.36218)"
       x1="14.869445"
       y1="978.90387"
       x2="24.52651"
       y2="969.24683" />
    <linearGradient
       inkscape:collect="always"
       xlink:href="#linearGradient3073"
       id="linearGradient3115"
       gradientUnits="userSpaceOnUse"
       gradientTransform="matrix(-1,0,0,1,96,-956.36218)"
       x1="15.152279"
       y1="978.62103"
       x2="26.263966"
       y2="967.50934" />
    <linearGradient
       inkscape:collect="always"
       xlink:href="#linearGradient3119"
       id="linearGradient3117"
       gradientUnits="userSpaceOnUse"
       gradientTransform="translate(0,-956.36218)"
       x1="13.131983"
       y1="980.64136"
       x2="25.549681"
       y2="967.86646" />
    <linearGradient
       inkscape:collect="always"
       xlink:href="#linearGradient3119"
       id="linearGradient3129"
       gradientUnits="userSpaceOnUse"
       gradientTransform="matrix(-1,0,0,1,96,0)"
       x1="13.131983"
       y1="980.64136"
       x2="25.549681"
       y2="967.86646" />
    <linearGradient
       inkscape:collect="always"
       xlink:href="#linearGradient3048"
       id="linearGradient3054"
       x1="49.267925"
       y1="996.57349"
       x2="49.267925"
       y2="1045.8627"
       gradientUnits="userSpaceOnUse" />
    <linearGradient
       inkscape:collect="always"
       xlink:href="#linearGradient3048"
       id="linearGradient3058"
       x1="115.80308"
       y1="985.47241"
       x2="115.80308"
       y2="1033.5543"
       gradientUnits="userSpaceOnUse" />
    <linearGradient
       inkscape:collect="always"
       xlink:href="#linearGradient4130"
       id="linearGradient4128"
       gradientUnits="userSpaceOnUse"
       x1="7.7721348"
       y1="1046.0226"
       x2="87.516144"
       y2="1046.0226"
       gradientTransform="translate(0,-956.36218)" />
    <linearGradient
       inkscape:collect="always"
       xlink:href="#linearGradient4146"
       id="linearGradient4144"
       gradientUnits="userSpaceOnUse"
       x1="48.543396"
       y1="1030.6263"
       x2="48.543396"
       y2="963.96973"
       gradientTransform="matrix(0.97560976,0,0,0.97560976,0.17073171,25.179566)" />
    <linearGradient
       inkscape:collect="always"
       xlink:href="#linearGradient48169"
       id="linearGradient4158"
       x1="73.267845"
       y1="1033.2955"
       x2="51.911171"
       y2="961.25067"
       gradientUnits="userSpaceOnUse" />
    <radialGradient
       inkscape:collect="always"
       xlink:href="#linearGradient4178"
       id="radialGradient4186"
       cx="-18.219341"
       cy="85.049187"
       fx="-18.219341"
       fy="85.049187"
       r="3.2660329"
       gradientUnits="userSpaceOnUse"
       gradientTransform="matrix(0.72555705,-0.72555705,0.70710569,0.70710787,-65.138933,11.691067)" />
    <linearGradient
       inkscape:collect="always"
       xlink:href="#linearGradient4146"
       id="linearGradient4193"
       gradientUnits="userSpaceOnUse"
       gradientTransform="matrix(0.97560976,0,0,0.97560976,0.17073171,25.179566)"
       x1="48.543396"
       y1="1030.6263"
       x2="48.543396"
       y2="963.96973" />
    <linearGradient
       inkscape:collect="always"
       xlink:href="#linearGradient4146"
       id="linearGradient4197"
       gradientUnits="userSpaceOnUse"
       gradientTransform="matrix(0.97560976,0,0,0.97560976,1.1707317,24.179546)"
       x1="48.543396"
       y1="1030.6263"
       x2="48.543396"
       y2="963.96973" />
    <linearGradient
       inkscape:collect="always"
       xlink:href="#linearGradient4130"
       id="linearGradient4213"
       gradientUnits="userSpaceOnUse"
       x1="7.7721348"
       y1="1046.0226"
       x2="87.516144"
       y2="1046.0226"
       gradientTransform="translate(0,-956.36218)" />
    <linearGradient
       inkscape:collect="always"
       xlink:href="#linearGradient4146"
       id="linearGradient4241"
       gradientUnits="userSpaceOnUse"
       gradientTransform="matrix(0.97560976,0,0,0.97560976,1.1707317,-932.18263)"
       x1="48.543396"
       y1="1030.6263"
       x2="48.543396"
       y2="963.96973" />
    <linearGradient
       inkscape:collect="always"
       xlink:href="#linearGradient4246"
       id="linearGradient4244"
       gradientUnits="userSpaceOnUse"
       gradientTransform="matrix(0.97560976,0,0,0.97560976,1.1707317,-932.18263)"
       x1="67.973091"
       y1="1017.4982"
       x2="48.543396"
       y2="963.96973" />
    <linearGradient
       inkscape:collect="always"
       xlink:href="#linearGradient4152"
       id="linearGradient4787"
       gradientUnits="userSpaceOnUse"
       x1="21.011322"
       y1="1036.0603"
       x2="21.011322"
       y2="988.58136"
       gradientTransform="translate(0,-1.00002)" />
    <linearGradient
       inkscape:collect="always"
       xlink:href="#linearGradient4152"
       id="linearGradient4789"
       gradientUnits="userSpaceOnUse"
       x1="21.011322"
       y1="1036.0603"
       x2="21.011322"
       y2="988.58136"
       gradientTransform="translate(0,-956.36218)" />
    <linearGradient
       inkscape:collect="always"
       xlink:href="#linearGradient4152"
       id="linearGradient4802"
       gradientUnits="userSpaceOnUse"
       x1="21.011322"
       y1="1036.0603"
       x2="21.011322"
       y2="988.58136"
       gradientTransform="translate(0,-956.36218)" />
    <linearGradient
       inkscape:collect="always"
       xlink:href="#linearGradient4807"
       id="linearGradient4805"
       gradientUnits="userSpaceOnUse"
       gradientTransform="translate(0,-956.36218)"
       x1="21.011322"
       y1="1008.8905"
       x2="21.011322"
       y2="963.58063" />
    <linearGradient
       inkscape:collect="always"
       xlink:href="#linearGradient3847"
       id="linearGradient3853"
       x1="16.906523"
       y1="2.7063873"
       x2="16.906523"
       y2="55.0741"
       gradientUnits="userSpaceOnUse" />
    <linearGradient
       x1="105.55817"
       y1="62.97105"
       x2="24.668499"
       y2="62.97105"
       id="linearGradient3193"
       xlink:href="#linearGradient3767"
       gradientUnits="userSpaceOnUse"
       gradientTransform="matrix(0,0.6766374,-0.847943,0,101.39586,-1.691629)" />
    <linearGradient
       id="linearGradient3767">
      <stop
         id="stop3769"
         style="stop-color:#4d4d4d;stop-opacity:0.70731705"
         offset="0" />
      <stop
         id="stop3771"
         style="stop-color:#4d4d4d;stop-opacity:0.3137255"
         offset="1" />
    </linearGradient>
    <clipPath
       id="clipPath3520">
      <path
         d="m 9.9375,33.6875 c -3.2232728,0 -5.84375,1.784 -5.84375,4 l 0,67.71875 c 0,2.216 2.6204767,4 5.84375,4 l 77.625,0 c 3.223273,0 5.843753,-1.784 5.84375,-4 l 0,-67.71875 c 0,-2.216 -2.62048,-4 -5.84375,-4 l -77.625,0 z M 47.90625,42 c 3.431866,0 6.21875,2.198129 6.21875,4.9375 0,2.181733 -1.764187,4.054067 -4.21875,4.71875 l 0,3.5625 c 0.01488,0.497551 0.298693,1.06729 0.6875,1.46875 0.09978,0.07533 8.192442,6.200116 8.21875,6.21875 0.0084,0.0065 0.02327,-0.0068 0.03125,0 0.02396,0.01835 0.04599,0.04881 0.0625,0.0625 0.0042,0.0036 0.02447,-0.006 0.03125,0 0.0068,0.006 0.03104,0.06226 0.03125,0.0625 2.6e-5,2.9e-5 0.06248,0.06248 0.0625,0.0625 0,0 10e-7,0.03125 0,0.03125 0.01173,0.01044 0.01956,0.02072 0.03125,0.03125 1.096118,0.988597 2.000001,2.355113 2,3.8125 l 0,4.09375 C 62.785851,71.690189 64,73.086119 64,74.71875 c 0,2.220106 -2.20417,4.031251 -4.9375,4.03125 -2.733338,0 -4.96875,-1.811144 -4.96875,-4.03125 0,-1.655395 1.236126,-3.071778 3,-3.6875 -2.35e-4,-1.047382 -10e-7,-2.379418 0,-4.09375 -0.01444,-0.497879 -0.297358,-1.034548 -0.6875,-1.4375 l -6.5,-4.9375 0,28.125 4.46875,0 L 48,98 l -6.375,-9.3125 4.3125,0 0,-21.96875 -6.53125,4.9375 c -0.394904,0.406057 -0.673191,0.908993 -0.6875,1.40625 0,2.101393 0,2.980142 0,3.8125 l 2.8125,0 0,7.90625 -9.53125,0 0,-7.90625 2.78125,0 0,-3.75 c 0,-1.44207 0.88924,-2.794493 1.96875,-3.78125 0,0 0.0213,-0.01152 0.03125,-0.03125 0.0043,-0.0039 -0.0044,-0.02734 0,-0.03125 0,0 0.03125,-0.03125 0.03125,-0.03125 1.5e-5,-2.1e-5 0.03122,-0.03122 0.03125,-0.03125 2.03e-4,-2.43e-4 0.05499,-0.08694 0.0625,-0.09375 0.0047,-0.004 -0.0046,-0.02742 0,-0.03125 0.01531,-0.01278 0.07133,-0.01367 0.09375,-0.03125 0.0079,-0.01061 0.02312,-0.02513 0.03125,-0.03125 0.01626,-0.01224 0.03151,-0.0079 0.0625,-0.03125 0.06197,-0.04673 0.166883,-0.13246 0.28125,-0.21875 0.228732,-0.172571 0.516577,-0.424672 0.90625,-0.71875 0.779348,-0.588157 1.839188,-1.343188 2.875,-2.125 2.046308,-1.544518 4.044131,-3.087545 4.09375,-3.125 0.392715,-0.403164 0.671626,-0.909306 0.6875,-1.40625 l 0,-6.15625 c -0.003,-0.04389 -4.59e-4,-0.02213 0,-0.03125 4.59e-4,-0.0091 -10e-7,-0.03827 0,-0.03125 l 0,-3.53125 C 43.481518,50.991635 41.687502,49.119667 41.6875,46.9375 41.6875,44.198126 44.473344,42 47.90625,42 z"
         inkscape:connector-curvature="0"
         id="path3522"
         style="fill:#ffffff;fill-opacity:1;fill-rule:nonzero;stroke:none" />
    </clipPath>
    <filter
       x="-0.24171428"
       y="-0.14338984"
       width="1.4834286"
       height="1.2867796"
       color-interpolation-filters="sRGB"
       id="filter3536">
      <feGaussianBlur
         id="feGaussianBlur3538"
         stdDeviation="3.525" />
    </filter>
    <linearGradient
       inkscape:collect="always"
       xlink:href="#linearGradient48169-5"
       id="linearGradient4158-6"
       x1="78.391037"
       y1="1071.4633"
       x2="48.164223"
       y2="953.22937"
       gradientUnits="userSpaceOnUse" />
    <linearGradient
       id="linearGradient48169-5">
      <stop
         id="stop48171-6"
         offset="0"
         style="stop-color:#ff8400;stop-opacity:1" />
      <stop
         style="stop-color:#ff9d0f;stop-opacity:1;"
         offset="0.63986129"
         id="stop48177-6" />
      <stop
         style="stop-color:#ffaa17;stop-opacity:1;"
         offset="0.65642005"
         id="stop48175-1" />
      <stop
         id="stop48173-5"
         offset="1"
         style="stop-color:#ffaf1b;stop-opacity:1" />
    </linearGradient>
    <linearGradient
       gradientTransform="translate(-6,-962.36218)"
       y2="953.22937"
       x2="48.164223"
       y1="1071.4633"
       x1="78.391037"
       gradientUnits="userSpaceOnUse"
       id="linearGradient3122"
       xlink:href="#linearGradient48169-5"
       inkscape:collect="always" />
    <linearGradient
       inkscape:collect="always"
       xlink:href="#linearGradient48169-5"
       id="linearGradient3166"
       gradientUnits="userSpaceOnUse"
       x1="78.391037"
       y1="1071.4633"
       x2="48.164223"
       y2="953.22937"
       gradientTransform="translate(108.6116,0)" />
  </defs>
  <sodipodi:namedview
     id="base"
     pagecolor="#ffffff"
     bordercolor="#666666"
     borderopacity="1.0"
     inkscape:pageopacity="0.0"
     inkscape:pageshadow="2"
     inkscape:zoom="1.9519093"
     inkscape:cx="153.10358"
     inkscape:cy="41.314407"
     inkscape:document-units="px"
     inkscape:current-layer="layer1"
     showgrid="false"
     inkscape:window-width="1366"
     inkscape:window-height="719"
     inkscape:window-x="0"
     inkscape:window-y="25"
     inkscape:window-maximized="1"
     showguides="false"
     inkscape:guide-bbox="true">
    <sodipodi:guide
       orientation="0,1"
       position="112.30189,67.743398"
       id="guide4798" />
    <sodipodi:guide
       orientation="0,1"
       position="103.60755,43.833963"
       id="guide4800" />
  </sodipodi:namedview>
  <metadata
     id="metadata7">
    <rdf:RDF>
      <cc:Work
         rdf:about="">
        <dc:format>image/svg+xml</dc:format>
        <dc:type
           rdf:resource="http://purl.org/dc/dcmitype/StillImage" />
        <dc:title />
      </cc:Work>
    </rdf:RDF>
  </metadata>
  <g
     inkscape:label="Layer 1"
     inkscape:groupmode="layer"
     id="layer1"
     transform="translate(0,-956.36218)">
    <rect
       style="opacity:0.05;fill:#000000;fill-opacity:1;stroke:none"
       id="rect3826"
       width="89"
       height="89"
       x="3.5"
       y="960.86218"
       rx="10.595235"
       ry="10.595235" />
    <g
       id="g3041">
      <rect
         style="opacity:0.05;fill:#000000;fill-opacity:1;stroke:none"
         id="rect3824"
         width="88"
         height="88"
         x="4"
         y="961.36218"
         rx="10.476188"
         ry="10.476188" />
      <rect
         ry="10.357141"
         rx="10.357141"
         y="961.86218"
         x="4.5"
         height="87"
         width="87"
         id="rect3822"
         style="opacity:0.05;fill:#000000;fill-opacity:1;stroke:none" />
      <rect
         style="opacity:0.1;fill:#000000;fill-opacity:1;stroke:none"
         id="rect3820"
         width="86"
         height="86"
         x="5"
         y="962.36218"
         rx="10.238094"
         ry="10.238094" />
      <rect
         ry="10.119047"
         rx="10.119047"
         y="962.86218"
         x="5.5"
         height="85"
         width="85"
         id="rect3818"
         style="opacity:0.1;fill:#000000;fill-opacity:1;stroke:none" />
      <rect
         style="opacity:0.3;fill:#000000;fill-opacity:1;stroke:none"
         id="rect3131"
         width="84"
         height="84"
         x="6"
         y="963.36218"
         rx="10"
         ry="10" />
    </g>
    <path
       style="fill:url(#linearGradient4128);fill-opacity:1;stroke:none"
       d="M 6 70 L 6 80 C 6 85.54 10.46 90 16 90 L 80 90 C 85.54 90 90 85.54 90 80 L 90 70 C 90 75.54 85.54 80 80 80 L 16 80 C 10.46 80 6 75.54 6 70 z "
       transform="translate(0,956.36218)"
       id="rect3036" />
    <path
       style="fill:url(#linearGradient4158);fill-opacity:1;stroke:none"
       d="m 16,962.36218 64,0 c 5.54,0 10,4.46 10,10 l 0,54.00002 c 0,5.54 -4.46,10 -10,10 l -64,0 c -5.54,0 -10,-4.46 -10,-10 l 0,-54.00002 c 0,-5.54 4.46,-10 10,-10 z"
       id="rect4125"
       inkscape:connector-curvature="0"
       sodipodi:nodetypes="sssssssss" />
    <path
       style="fill:#2e2e2e;fill-opacity:1;stroke:none"
       d="M 6 74.5 L 6 75.5 C 6 81.04 10.46 85.5 16 85.5 L 80 85.5 C 85.54 85.5 90 81.04 90 75.5 L 90 74.5 C 90 80.04 85.54 84.5 80 84.5 L 16 84.5 C 10.46 84.5 6 80.04 6 74.5 z "
       transform="translate(0,956.36218)"
       id="rect4160" />
    <path
       sodipodi:type="arc"
       style="fill:url(#radialGradient4186);fill-opacity:1;stroke:none"
       id="path4176"
       sodipodi:cx="-18.66762"
       sodipodi:cy="85.753624"
       sodipodi:rx="3.2660329"
       sodipodi:ry="3.2660329"
       d="m -15.401587,85.753624 c 0,1.80378 -1.462253,3.266033 -3.266033,3.266033 -1.80378,0 -3.266033,-1.462253 -3.266033,-3.266033 0,-1.80378 1.462253,-3.266033 3.266033,-3.266033 1.80378,0 3.266033,1.462253 3.266033,3.266033 z"
       transform="matrix(0.76545462,0,0,0.76545462,93.789216,975.72167)" />
    <path
       style="opacity:1;fill:#2e2e2e;fill-opacity:1;stroke:none"
       d="m 25.03125,80 1.09375,1.875 43.75,0 L 70.96875,80 z"
       id="path4202"
       inkscape:connector-curvature="0"
       sodipodi:nodetypes="ccccc"
       transform="translate(0,956.36218)" />
    <path
       style="fill:#dfa228;fill-opacity:1;stroke:none;opacity:1"
       d="M 6 69 L 6 70 C 6 75.54 10.46 80 16 80 L 80 80 C 85.54 80 90 75.54 90 70 L 90 69 C 90 74.54 85.54 79 80 79 L 16 79 C 10.46 79 6 74.54 6 69 z "
       transform="translate(0,956.36218)"
       id="path4783" />
    <path
       style="fill:#ffffff;fill-opacity:1;stroke:none;display:inline"
       id="path1334"
       inkscape:connector-curvature="0"
       d="m 34.286279,995.32117 c 0,1.39932 1.041111,2.59824 2.518207,3.13616 l 0,3.49427 c 0,1.2491 0.781278,2.4252 1.72077,3.2725 0.01004,0.01 0.01094,0.024 0.02099,0.034 0,0 0,0.017 0,0.017 1.4e-5,1e-4 0.04194,0.052 0.04197,0.052 1.8e-4,2e-4 0.03615,0.047 0.04197,0.052 0.0058,0.01 0.0174,0 0.02098,0 0.0036,0 -0.0036,0.014 0,0.017 0.01415,0.012 0.04242,0.018 0.06296,0.035 0.0069,0.01 0.01383,0.011 0.02099,0.017 0.02255,0.016 6.965444,5.2705 7.050967,5.3352 0.33325,0.3441 0.574829,0.8178 0.587583,1.2442 l 0,3.0509 c -2.103822,0.5697 -3.630413,2.1698 -3.630413,4.0397 -7e-6,2.348 2.388715,4.2441 5.330193,4.2441 2.94237,0 5.330202,-1.8961 5.330202,-4.2441 -3e-6,-1.8703 -1.525373,-3.47 -3.630413,-4.0397 l 0,-3.0168 c 0,0.01 -3.94e-4,-0.026 0,-0.034 3.93e-4,-0.01 0.0025,0 0,-0.034 l 0,-5.2668 c 0.01361,-0.4259 0.250982,-0.8646 0.587581,-1.2102 0.04253,-0.033 1.750594,-1.3352 3.504501,-2.6589 0.8878,-0.6702 1.787265,-1.3368 2.45525,-1.8409 0.333991,-0.2519 0.601383,-0.4657 0.797431,-0.6137 0.09802,-0.074 0.17772,-0.1303 0.230835,-0.1704 0.02655,-0.019 0.04902,-0.023 0.06296,-0.034 0.0069,-0.01 0.01423,-0.024 0.02098,-0.035 0.01922,-0.015 0.04983,-0.023 0.06296,-0.034 0.004,0 -0.0041,-0.013 0,-0.017 0.0041,0 0.01455,0.01 0.02098,0 0.0064,-0.01 0.04179,-0.068 0.04197,-0.068 2.4e-5,-10e-5 0.04195,-0.034 0.04198,-0.034 0,0 0,-0.0172 0,-0.0172 0,0 0.02098,-0.0172 0.02098,-0.0172 0.0038,0 -0.0037,-0.0137 0,-0.0171 0.0085,-0.0172 0.02098,-0.0343 0.02098,-0.0343 0.925257,-0.84578 1.69979,-2.00254 1.69979,-3.23849 l 0,-3.20447 2.371307,0 0,-6.80081 -8.157387,0 0,6.80081 2.386505,0 c 0,0.71345 0,1.45443 0,3.25554 -0.01227,0.42625 -0.249108,0.86218 -0.587584,1.21025 l -5.582019,4.22705 0,-18.83448 3.681781,0 -5.45527,-7.97693 -5.456683,7.97693 3.830605,0 0,24.10138 -5.58202,-4.2101 c -0.334392,-0.3454 -0.575204,-0.8176 -0.587581,-1.2444 0,-1.4692 2.02e-4,-2.61338 0,-3.51113 1.511829,-0.52772 2.581159,-1.73445 2.581159,-3.15321 0,-1.90295 -1.9172,-3.46015 -4.259965,-3.46015 -2.342759,0 -4.238977,1.5572 -4.238977,3.46015 z" />
    <path
       style="fill:url(#linearGradient3166);fill-opacity:1;stroke:none"
       d="m 124.6116,962.36218 64,0 c 5.54,0 10,4.46 10,10 l 0,54.00002 c 0,5.54 -4.46,10 -10,10 l -64,0 c -5.54,0 -10,-4.46 -10,-10 l 0,-54.00002 c 0,-5.54 4.46,-10 10,-10 z"
       id="rect4125-2"
       inkscape:connector-curvature="0"
       sodipodi:nodetypes="sssssssss" />
  </g>
</svg>
