<?xml version="1.0" encoding="UTF-8" standalone="no"?>
<!-- Created with Inkscape (http://www.inkscape.org/) -->

<svg
   xmlns:dc="http://purl.org/dc/elements/1.1/"
   xmlns:cc="http://creativecommons.org/ns#"
   xmlns:rdf="http://www.w3.org/1999/02/22-rdf-syntax-ns#"
   xmlns:svg="http://www.w3.org/2000/svg"
   xmlns="http://www.w3.org/2000/svg"
   xmlns:xlink="http://www.w3.org/1999/xlink"
   xmlns:sodipodi="http://sodipodi.sourceforge.net/DTD/sodipodi-0.dtd"
   xmlns:inkscape="http://www.inkscape.org/namespaces/inkscape"
   width="96"
   height="96"
   id="svg2"
   version="1.1"
   inkscape:version="0.48.4 r9939"
   sodipodi:docname="drive-harddisk-system.svg">
  <defs
     id="defs4">
    <linearGradient
       id="linearGradient4246"
       inkscape:collect="always">
      <stop
         id="stop4248"
         offset="0"
         style="stop-color:#ffffff;stop-opacity:1" />
      <stop
         id="stop4250"
         offset="1"
         style="stop-color:#ffffff;stop-opacity:0" />
    </linearGradient>
    <linearGradient
       inkscape:collect="always"
       id="linearGradient4178">
      <stop
         style="stop-color:#ccffaa;stop-opacity:1"
         offset="0"
         id="stop4180" />
      <stop
         style="stop-color:#66ff00;stop-opacity:1"
         offset="1"
         id="stop4182" />
    </linearGradient>
    <linearGradient
       inkscape:collect="always"
       id="linearGradient4152">
      <stop
         style="stop-color:#c6c3d6;stop-opacity:1"
         offset="0"
         id="stop4154" />
      <stop
         style="stop-color:#e2deee;stop-opacity:1"
         offset="1"
         id="stop4156" />
    </linearGradient>
    <linearGradient
       id="linearGradient4146"
       inkscape:collect="always">
      <stop
         id="stop4148"
         offset="0"
         style="stop-color:#ded7e7;stop-opacity:1" />
      <stop
         id="stop4150"
         offset="1"
         style="stop-color:#f3edf7;stop-opacity:1" />
    </linearGradient>
    <linearGradient
       id="linearGradient4130">
      <stop
         id="stop4132"
         offset="0"
         style="stop-color:#000000;stop-opacity:1" />
      <stop
         style="stop-color:#333333;stop-opacity:1"
         offset="0.05052935"
         id="stop4134" />
      <stop
         id="stop4136"
         offset="0.18049203"
         style="stop-color:#000000;stop-opacity:1" />
      <stop
         style="stop-color:#000000;stop-opacity:1"
         offset="0.82271612"
         id="stop4138" />
      <stop
         id="stop4140"
         offset="0.94249851"
         style="stop-color:#333333;stop-opacity:1" />
      <stop
         id="stop4142"
         offset="1"
         style="stop-color:#000000;stop-opacity:1" />
    </linearGradient>
    <linearGradient
       id="linearGradient4293">
      <stop
         style="stop-color:#3b69a4;stop-opacity:1;"
         offset="0"
         id="stop4295" />
      <stop
         id="stop4301"
         offset="0.12751994"
         style="stop-color:#3b69a4;stop-opacity:0" />
      <stop
         style="stop-color:#3b69a4;stop-opacity:0"
         offset="0.88838893"
         id="stop4303" />
      <stop
         style="stop-color:#3b69a4;stop-opacity:1;"
         offset="1"
         id="stop4297" />
    </linearGradient>
    <linearGradient
       id="linearGradient3059">
      <stop
         style="stop-color:#101018;stop-opacity:1"
         offset="0"
         id="stop3061" />
      <stop
         id="stop4042"
         offset="0.05052935"
         style="stop-color:#212442;stop-opacity:1" />
      <stop
         style="stop-color:#100c18;stop-opacity:1"
         offset="0.18049203"
         id="stop4044" />
      <stop
         id="stop3352"
         offset="0.82271612"
         style="stop-color:#100c18;stop-opacity:1" />
      <stop
         style="stop-color:#212442;stop-opacity:1;"
         offset="0.94249851"
         id="stop3354" />
      <stop
         style="stop-color:#101018;stop-opacity:1"
         offset="1"
         id="stop3064" />
    </linearGradient>
    <linearGradient
       inkscape:collect="always"
       id="linearGradient3048">
      <stop
         style="stop-color:#c16d16;stop-opacity:1"
         offset="0"
         id="stop3050" />
      <stop
         style="stop-color:#ff8e31;stop-opacity:1"
         offset="1"
         id="stop3052" />
    </linearGradient>
    <linearGradient
       inkscape:collect="always"
       id="linearGradient3119">
      <stop
         style="stop-color:#92948f;stop-opacity:0"
         offset="0"
         id="stop3121" />
      <stop
         id="stop3123"
         offset="0.4283945"
         style="stop-color:#9b9e98;stop-opacity:1" />
      <stop
         style="stop-color:#939690;stop-opacity:0"
         offset="1"
         id="stop3125" />
    </linearGradient>
    <linearGradient
       id="linearGradient3073"
       inkscape:collect="always">
      <stop
         id="stop3075"
         offset="0"
         style="stop-color:#ffffff;stop-opacity:0" />
      <stop
         style="stop-color:#ffffff;stop-opacity:1"
         offset="0.45872402"
         id="stop3085" />
      <stop
         id="stop3083"
         offset="1"
         style="stop-color:#ffffff;stop-opacity:0" />
    </linearGradient>
    <linearGradient
       inkscape:collect="always"
       id="linearGradient3047">
      <stop
         style="stop-color:#000000;stop-opacity:1"
         offset="0"
         id="stop3049" />
      <stop
         id="stop3055"
         offset="0.06123874"
         style="stop-color:#1a1a1a;stop-opacity:1" />
      <stop
         style="stop-color:#333333;stop-opacity:1"
         offset="0.16480456"
         id="stop3057" />
      <stop
         id="stop3059"
         offset="0.55385184"
         style="stop-color:#4d4d4d;stop-opacity:1" />
      <stop
         style="stop-color:#999999;stop-opacity:1"
         offset="1"
         id="stop3051" />
    </linearGradient>
    <linearGradient
       id="linearGradient3041"
       inkscape:collect="always">
      <stop
         id="stop3043"
         offset="0"
         style="stop-color:#1a1a1a;stop-opacity:1" />
      <stop
         id="stop3045"
         offset="1"
         style="stop-color:#808080;stop-opacity:1" />
    </linearGradient>
    <linearGradient
       inkscape:collect="always"
       id="linearGradient3029">
      <stop
         style="stop-color:#333333;stop-opacity:1"
         offset="0"
         id="stop3031" />
      <stop
         style="stop-color:#e0e0dd;stop-opacity:0;"
         offset="1"
         id="stop3033" />
    </linearGradient>
    <linearGradient
       inkscape:collect="always"
       xlink:href="#linearGradient3029"
       id="linearGradient3035"
       x1="35.355339"
       y1="1030.3622"
       x2="35.355339"
       y2="975.33282"
       gradientUnits="userSpaceOnUse"
       gradientTransform="matrix(1.1638085,0,0,1.1638085,-7.862809,-164.23642)" />
    <linearGradient
       inkscape:collect="always"
       xlink:href="#linearGradient3041"
       id="linearGradient3039"
       gradientUnits="userSpaceOnUse"
       x1="35.355339"
       y1="1030.3622"
       x2="35.355339"
       y2="975.33282"
       gradientTransform="matrix(1.1218695,0,0,1.1218695,-5.8497348,-122.18782)" />
    <linearGradient
       inkscape:collect="always"
       xlink:href="#linearGradient3047"
       id="linearGradient3053"
       x1="40"
       y1="1043.4336"
       x2="39.285713"
       y2="972.33325"
       gradientUnits="userSpaceOnUse" />
    <linearGradient
       inkscape:collect="always"
       xlink:href="#linearGradient3073"
       id="linearGradient3113"
       gradientUnits="userSpaceOnUse"
       gradientTransform="translate(0,-956.36218)"
       x1="14.869445"
       y1="978.90387"
       x2="24.52651"
       y2="969.24683" />
    <linearGradient
       inkscape:collect="always"
       xlink:href="#linearGradient3073"
       id="linearGradient3115"
       gradientUnits="userSpaceOnUse"
       gradientTransform="matrix(-1,0,0,1,96,-956.36218)"
       x1="15.152279"
       y1="978.62103"
       x2="26.263966"
       y2="967.50934" />
    <linearGradient
       inkscape:collect="always"
       xlink:href="#linearGradient3119"
       id="linearGradient3117"
       gradientUnits="userSpaceOnUse"
       gradientTransform="translate(0,-956.36218)"
       x1="13.131983"
       y1="980.64136"
       x2="25.549681"
       y2="967.86646" />
    <linearGradient
       inkscape:collect="always"
       xlink:href="#linearGradient3119"
       id="linearGradient3129"
       gradientUnits="userSpaceOnUse"
       gradientTransform="matrix(-1,0,0,1,96,0)"
       x1="13.131983"
       y1="980.64136"
       x2="25.549681"
       y2="967.86646" />
    <linearGradient
       inkscape:collect="always"
       xlink:href="#linearGradient3048"
       id="linearGradient3054"
       x1="49.267925"
       y1="996.57349"
       x2="49.267925"
       y2="1045.8627"
       gradientUnits="userSpaceOnUse" />
    <linearGradient
       inkscape:collect="always"
       xlink:href="#linearGradient3048"
       id="linearGradient3058"
       x1="115.80308"
       y1="985.47241"
       x2="115.80308"
       y2="1033.5543"
       gradientUnits="userSpaceOnUse" />
    <linearGradient
       inkscape:collect="always"
       xlink:href="#linearGradient4130"
       id="linearGradient4128"
       gradientUnits="userSpaceOnUse"
       x1="7.7721348"
       y1="1046.0226"
       x2="87.516144"
       y2="1046.0226" />
    <linearGradient
       inkscape:collect="always"
       xlink:href="#linearGradient4146"
       id="linearGradient4144"
       gradientUnits="userSpaceOnUse"
       x1="48.543396"
       y1="1030.6263"
       x2="48.543396"
       y2="963.96973"
       gradientTransform="matrix(0.97560976,0,0,0.97560976,0.17073171,25.179566)" />
    <linearGradient
       inkscape:collect="always"
       xlink:href="#linearGradient4152"
       id="linearGradient4158"
       x1="21.011322"
       y1="1036.0603"
       x2="21.011322"
       y2="962.49835"
       gradientUnits="userSpaceOnUse" />
    <radialGradient
       inkscape:collect="always"
       xlink:href="#linearGradient4178"
       id="radialGradient4186"
       cx="-18.219341"
       cy="85.049187"
       fx="-18.219341"
       fy="85.049187"
       r="3.2660329"
       gradientUnits="userSpaceOnUse"
       gradientTransform="matrix(0.72555705,-0.72555705,0.70710569,0.70710787,-65.138933,11.691067)" />
    <linearGradient
       inkscape:collect="always"
       xlink:href="#linearGradient4146"
       id="linearGradient4193"
       gradientUnits="userSpaceOnUse"
       gradientTransform="matrix(0.97560976,0,0,0.97560976,0.17073171,25.179566)"
       x1="48.543396"
       y1="1030.6263"
       x2="48.543396"
       y2="963.96973" />
    <linearGradient
       inkscape:collect="always"
       xlink:href="#linearGradient4146"
       id="linearGradient4197"
       gradientUnits="userSpaceOnUse"
       gradientTransform="matrix(0.97560976,0,0,0.97560976,1.1707317,24.179546)"
       x1="48.543396"
       y1="1030.6263"
       x2="48.543396"
       y2="963.96973" />
    <linearGradient
       inkscape:collect="always"
       xlink:href="#linearGradient4130"
       id="linearGradient4213"
       gradientUnits="userSpaceOnUse"
       x1="7.7721348"
       y1="1046.0226"
       x2="87.516144"
       y2="1046.0226"
       gradientTransform="translate(0,-956.36218)" />
    <linearGradient
       inkscape:collect="always"
       xlink:href="#linearGradient4146"
       id="linearGradient4241"
       gradientUnits="userSpaceOnUse"
       gradientTransform="matrix(0.97560976,0,0,0.97560976,1.1707317,-932.18263)"
       x1="48.543396"
       y1="1030.6263"
       x2="48.543396"
       y2="963.96973" />
    <linearGradient
       inkscape:collect="always"
       xlink:href="#linearGradient4246"
       id="linearGradient4244"
       gradientUnits="userSpaceOnUse"
       gradientTransform="matrix(0.97560976,0,0,0.97560976,1.1707317,-932.18263)"
       x1="67.973091"
       y1="1017.4982"
       x2="48.543396"
       y2="963.96973" />
    <linearGradient
       inkscape:collect="always"
       xlink:href="#linearGradient3083"
       id="linearGradient4113"
       gradientUnits="userSpaceOnUse"
       x1="53.796227"
       y1="1046.2493"
       x2="53.796227"
       y2="962.97437" />
    <linearGradient
       inkscape:collect="always"
       id="linearGradient3083">
      <stop
         style="stop-color:#949494;stop-opacity:1"
         offset="0"
         id="stop3086" />
      <stop
         style="stop-color:#ebebeb;stop-opacity:1"
         offset="1"
         id="stop3088" />
    </linearGradient>
    <linearGradient
       inkscape:collect="always"
       xlink:href="#linearGradient3090"
       id="linearGradient4115"
       gradientUnits="userSpaceOnUse"
       x1="22.54203"
       y1="1043.3966"
       x2="22.54203"
       y2="964.45898" />
    <linearGradient
       id="linearGradient3090">
      <stop
         id="stop3092"
         offset="0"
         style="stop-color:#d2d2d2;stop-opacity:1" />
      <stop
         style="stop-color:#cfcfcf;stop-opacity:1;"
         offset="0.05662009"
         id="stop3156" />
      <stop
         style="stop-color:#b8b8b8;stop-opacity:1"
         offset="0.20890255"
         id="stop3151" />
      <stop
         id="stop4073"
         offset="0.39948541"
         style="stop-color:#c9c9c9;stop-opacity:1;" />
      <stop
         id="stop4071"
         offset="0.71619117"
         style="stop-color:#d2d2d2;stop-opacity:1;" />
      <stop
         id="stop3153"
         offset="0.76428562"
         style="stop-color:#d5d5d5;stop-opacity:1;" />
      <stop
         id="stop3094"
         offset="1"
         style="stop-color:#d7d7d7;stop-opacity:1" />
    </linearGradient>
    <linearGradient
       inkscape:collect="always"
       xlink:href="#linearGradient3297"
       id="linearGradient4117"
       gradientUnits="userSpaceOnUse"
       gradientTransform="matrix(0.50385764,0,0,0.50385764,97.61267,79.43312)"
       x1="-126.46678"
       y1="-59.920971"
       x2="-125.15525"
       y2="-43.432453" />
    <linearGradient
       id="linearGradient3297"
       inkscape:collect="always">
      <stop
         id="stop3299"
         offset="0"
         style="stop-color:#383b3a;stop-opacity:1" />
      <stop
         id="stop3301"
         offset="1"
         style="stop-color:#383d3e;stop-opacity:1" />
    </linearGradient>
    <linearGradient
       inkscape:collect="always"
       xlink:href="#linearGradient3287"
       id="linearGradient4119"
       gradientUnits="userSpaceOnUse"
       x1="47.72971"
       y1="41.552776"
       x2="52.325901"
       y2="63.473087" />
    <linearGradient
       id="linearGradient3287">
      <stop
         style="stop-color:#ffffff;stop-opacity:0.29411766;"
         offset="0"
         id="stop3289" />
      <stop
         style="stop-color:#ffffff;stop-opacity:0"
         offset="1"
         id="stop3291" />
    </linearGradient>
    <linearGradient
       y2="63.473087"
       x2="52.325901"
       y1="41.552776"
       x1="47.72971"
       gradientUnits="userSpaceOnUse"
       id="linearGradient3644"
       xlink:href="#linearGradient3287"
       inkscape:collect="always" />
    <linearGradient
       inkscape:collect="always"
       xlink:href="#linearGradient3083"
       id="linearGradient4076"
       gradientUnits="userSpaceOnUse"
       x1="53.796227"
       y1="1046.2493"
       x2="53.796227"
       y2="962.97437" />
    <linearGradient
       inkscape:collect="always"
       xlink:href="#linearGradient3090"
       id="linearGradient4078"
       gradientUnits="userSpaceOnUse"
       x1="22.54203"
       y1="1043.3966"
       x2="22.54203"
       y2="964.45898" />
    <linearGradient
       inkscape:collect="always"
       xlink:href="#linearGradient3297"
       id="linearGradient4080"
       gradientUnits="userSpaceOnUse"
       gradientTransform="matrix(0.50385764,0,0,0.50385764,97.61267,79.43312)"
       x1="-126.46678"
       y1="-59.920971"
       x2="-125.15525"
       y2="-43.432453" />
    <linearGradient
       inkscape:collect="always"
       xlink:href="#linearGradient3287"
       id="linearGradient4082"
       gradientUnits="userSpaceOnUse"
       x1="47.72971"
       y1="41.552776"
       x2="52.325901"
       y2="63.473087" />
    <linearGradient
       inkscape:collect="always"
       xlink:href="#linearGradient3287"
       id="linearGradient4085"
       gradientUnits="userSpaceOnUse"
       x1="47.72971"
       y1="41.552776"
       x2="52.325901"
       y2="63.473087"
       gradientTransform="translate(187.10944,985.61123)" />
    <linearGradient
       inkscape:collect="always"
       xlink:href="#linearGradient3297"
       id="linearGradient4088"
       gradientUnits="userSpaceOnUse"
       gradientTransform="matrix(0.50385764,0,0,0.50385764,284.72211,1065.0443)"
       x1="-126.46678"
       y1="-59.920971"
       x2="-125.15525"
       y2="-43.432453" />
    <linearGradient
       inkscape:collect="always"
       xlink:href="#linearGradient3090"
       id="linearGradient4092"
       gradientUnits="userSpaceOnUse"
       x1="22.54203"
       y1="1043.3966"
       x2="22.54203"
       y2="964.45898"
       gradientTransform="translate(187.10944,29.249054)" />
    <linearGradient
       inkscape:collect="always"
       xlink:href="#linearGradient3083"
       id="linearGradient4095"
       gradientUnits="userSpaceOnUse"
       x1="53.796227"
       y1="1046.2493"
       x2="53.796227"
       y2="962.97437"
       gradientTransform="translate(187.10944,29.249054)" />
    <linearGradient
       inkscape:collect="always"
       xlink:href="#linearGradient3297"
       id="linearGradient4109"
       gradientUnits="userSpaceOnUse"
       gradientTransform="matrix(0.50385764,0,0,0.50385764,284.72211,1065.0443)"
       x1="-126.46678"
       y1="-59.920971"
       x2="-125.15525"
       y2="-43.432453" />
    <linearGradient
       inkscape:collect="always"
       xlink:href="#linearGradient3287"
       id="linearGradient4111"
       gradientUnits="userSpaceOnUse"
       gradientTransform="translate(187.10944,985.61123)"
       x1="47.72971"
       y1="41.552776"
       x2="52.325901"
       y2="63.473087" />
  </defs>
  <sodipodi:namedview
     id="base"
     pagecolor="#ffffff"
     bordercolor="#666666"
     borderopacity="1.0"
     inkscape:pageopacity="0.0"
     inkscape:pageshadow="2"
     inkscape:zoom="1.9519093"
     inkscape:cx="-93.429806"
     inkscape:cy="82.269994"
     inkscape:document-units="px"
     inkscape:current-layer="layer1"
     showgrid="false"
     inkscape:window-width="1366"
     inkscape:window-height="714"
     inkscape:window-x="0"
     inkscape:window-y="28"
     inkscape:window-maximized="1"
     showguides="true"
     inkscape:guide-bbox="true" />
  <metadata
     id="metadata7">
    <rdf:RDF>
      <cc:Work
         rdf:about="">
        <dc:format>image/svg+xml</dc:format>
        <dc:type
           rdf:resource="http://purl.org/dc/dcmitype/StillImage" />
        <dc:title />
      </cc:Work>
    </rdf:RDF>
  </metadata>
  <g
     inkscape:label="Layer 1"
     inkscape:groupmode="layer"
     id="layer1"
     transform="translate(0,-956.36218)">
    <rect
       style="opacity:0.05;fill:#000000;fill-opacity:1;stroke:none"
       id="rect3826"
       width="89"
       height="89"
       x="3.5"
       y="960.86218"
       rx="10.595235"
       ry="10.595235" />
    <g
       id="g3041">
      <rect
         style="opacity:0.05;fill:#000000;fill-opacity:1;stroke:none"
         id="rect3824"
         width="88"
         height="88"
         x="4"
         y="961.36218"
         rx="10.476188"
         ry="10.476188" />
      <rect
         ry="10.357141"
         rx="10.357141"
         y="961.86218"
         x="4.5"
         height="87"
         width="87"
         id="rect3822"
         style="opacity:0.05;fill:#000000;fill-opacity:1;stroke:none" />
      <rect
         style="opacity:0.1;fill:#000000;fill-opacity:1;stroke:none"
         id="rect3820"
         width="86"
         height="86"
         x="5"
         y="962.36218"
         rx="10.238094"
         ry="10.238094" />
      <rect
         ry="10.119047"
         rx="10.119047"
         y="962.86218"
         x="5.5"
         height="85"
         width="85"
         id="rect3818"
         style="opacity:0.1;fill:#000000;fill-opacity:1;stroke:none" />
      <rect
         style="opacity:0.3;fill:#000000;fill-opacity:1;stroke:none"
         id="rect3131"
         width="84"
         height="84"
         x="6"
         y="963.36218"
         rx="10"
         ry="10" />
    </g>
    <rect
       ry="10"
       rx="10"
       y="962.36218"
       x="6"
       height="84"
       width="84"
       id="rect3036"
       style="fill:url(#linearGradient4128);fill-opacity:1;stroke:none" />
    <path
       style="fill:url(#linearGradient4158);fill-opacity:1;stroke:none"
       d="m 16,962.36218 64,0 c 5.54,0 10,4.46 10,10 l 0,54.00002 c 0,5.54 -4.46,10 -10,10 l -64,0 c -5.54,0 -10,-4.46 -10,-10 l 0,-54.00002 c 0,-5.54 4.46,-10 10,-10 z"
       id="rect4125"
       inkscape:connector-curvature="0"
       sodipodi:nodetypes="sssssssss" />
    <path
       style="fill:#4d4d4d;fill-opacity:1;stroke:none"
       d="M 6 74.5 L 6 75.5 C 6 81.04 10.46 85.5 16 85.5 L 80 85.5 C 85.54 85.5 90 81.04 90 75.5 L 90 74.5 C 90 80.04 85.54 84.5 80 84.5 L 16 84.5 C 10.46 84.5 6 80.04 6 74.5 z "
       transform="translate(0,956.36218)"
       id="rect4160" />
    <path
       style="fill:#b5b6c6;fill-opacity:1;stroke:none"
       d="m 17.52381,966.02066 60.95238,0 c 5.27619,0 9.52381,4.24762 9.52381,9.52381 l 0,47.29393 c 0,5.2762 -4.24762,9.5238 -9.52381,9.5238 l -60.95238,0 C 12.24762,1032.3622 8,1028.1146 8,1022.8384 l 0,-47.29393 c 0,-5.27619 4.24762,-9.52381 9.52381,-9.52381 z"
       id="path4200"
       inkscape:connector-curvature="0"
       sodipodi:nodetypes="sssssssss" />
    <path
       sodipodi:nodetypes="sssssssss"
       inkscape:connector-curvature="0"
       id="path4167"
       d="m 17.52381,965.02068 60.95238,0 c 5.27619,0 9.52381,4.24762 9.52381,9.52381 l 0,47.29391 c 0,5.2762 -4.24762,9.5238 -9.52381,9.5238 l -60.95238,0 C 12.24762,1031.3622 8,1027.1146 8,1021.8384 l 0,-47.29391 c 0,-5.27619 4.24762,-9.52381 9.52381,-9.52381 z"
       style="fill:#8c8a9c;fill-opacity:1;stroke:none" />
    <path
       style="fill:url(#linearGradient4197);fill-opacity:1;stroke:none"
       d="m 17.52381,964.04509 60.95238,0 c 5.27619,0 9.52381,4.24762 9.52381,9.52381 l 0,47.2939 c 0,5.2762 -4.24762,9.5238 -9.52381,9.5238 l -60.95238,0 C 12.24762,1030.3866 8,1026.139 8,1020.8628 l 0,-47.2939 c 0,-5.27619 4.24762,-9.52381 9.52381,-9.52381 z"
       id="rect3034"
       inkscape:connector-curvature="0"
       sodipodi:nodetypes="sssssssss" />
    <path
       style="fill:#ffffff;fill-opacity:1;stroke:none"
       d="M 17.512195,964.04509 C 12.236005,964.04509 8,968.28109 8,973.55728 l 0,0.97561 c 0,-5.27619 4.236005,-9.51219 9.512195,-9.51219 l 60.97561,0 c 5.27619,0 9.512195,4.236 9.512195,9.51219 l 0,-0.97561 c 0,-5.27619 -4.236005,-9.51219 -9.512195,-9.51219 l -60.97561,0 z"
       id="path4171"
       inkscape:connector-curvature="0" />
    <path
       sodipodi:type="arc"
       style="fill:url(#radialGradient4186);fill-opacity:1;stroke:none"
       id="path4176"
       sodipodi:cx="-18.66762"
       sodipodi:cy="85.753624"
       sodipodi:rx="3.2660329"
       sodipodi:ry="3.2660329"
       d="m -15.401587,85.753624 c 0,1.80378 -1.462253,3.266033 -3.266033,3.266033 -1.80378,0 -3.266033,-1.462253 -3.266033,-3.266033 0,-1.80378 1.462253,-3.266033 3.266033,-3.266033 1.80378,0 3.266033,1.462253 3.266033,3.266033 z"
       transform="matrix(0.76545462,0,0,0.76545462,93.789216,975.72167)" />
    <path
       style="opacity:1;fill:#5a5563;fill-opacity:1;stroke:none"
       d="m 25.03125,80 1.09375,1.875 43.75,0 L 70.96875,80 z"
       transform="translate(0,956.36218)"
       id="path4202"
       inkscape:connector-curvature="0"
       sodipodi:nodetypes="ccccc" />
    <path
       style="fill:url(#linearGradient4244);fill-opacity:1;stroke:none"
       d="M 17.53125 7.6875 C 12.25506 7.6875 8 11.94256 8 17.21875 L 8 50.53125 C 26.00906 33.752274 55.024067 22.614558 88 21.78125 L 88 17.21875 C 88 11.94256 83.74494 7.6875 78.46875 7.6875 L 17.53125 7.6875 z "
       transform="translate(0,956.36218)"
       id="path4219" />
    <g
       id="g4104"
       transform="matrix(0.65454188,0,0,0.65454188,-105.9523,320.12163)">
      <path
         id="path4093"
         d="m 252.54694,1007.9552 c -11.23379,0 -13.35088,16 -7.03125,16 6.31872,0 18.26549,-16 7.03125,-16 z m -17.375,1.9688 c -0.17838,-6e-4 -0.36487,0.01 -0.5625,0.031 -6.32192,0.8205 -4.08496,11.8258 -0.71875,12.0312 3.25969,0.1991 6.81117,-12.0434 1.28125,-12.0625 z m -10.75,4.3437 c -0.38633,-0.025 -0.80497,0.053 -1.28125,0.25 -5.08128,2.0968 -0.78407,10.7693 2.0625,10.1875 2.58178,-0.5263 2.95329,-10.1936 -0.78125,-10.4375 z m -8.28125,6.7813 c -0.44179,-0.015 -0.92882,0.1487 -1.4375,0.5 -4.06758,2.8105 1.35685,9.5842 3.75,8.5313 2.09401,-0.9218 0.78003,-8.9272 -2.3125,-9.0313 z m 21.875,5.2187 c -8.5194,0.2892 -18.98008,4.6542 -20.84375,13.0001 -2.12466,9.5077 8.75129,22.6875 20.09375,22.6875 5.57991,0 12.01464,-5.0237 13.21875,-11.4063 0.91963,-4.8671 -10.82817,-2.908 -10.40625,0.3125 0.50548,3.8603 -2.82526,5.7386 -6.09375,3.25 -10.40502,-7.9219 17.22771,-11.8642 15.40625,-22.6875 -0.6142,-3.6496 -5.54594,-5.3541 -11.375,-5.1563 z"
         style="opacity:0.75;fill:#ffffff;fill-opacity:1;fill-rule:nonzero;stroke:none"
         inkscape:connector-curvature="0" />
      <path
         style="fill:url(#linearGradient4109);fill-opacity:1;fill-rule:nonzero;stroke:none"
         d="m 252.54694,1006.955 c -11.23379,0 -13.35088,16 -7.03125,16 6.31872,0 18.26549,-16 7.03125,-16 z m -17.375,1.9687 c -0.17838,-6e-4 -0.36487,0.01 -0.5625,0.031 -6.32192,0.8205 -4.08496,11.8257 -0.71875,12.0312 3.25969,0.1991 6.81117,-12.0434 1.28125,-12.0625 z m -10.75,4.3438 c -0.38633,-0.025 -0.80497,0.053 -1.28125,0.25 -5.08128,2.0968 -0.78407,10.7692 2.0625,10.1875 2.58178,-0.5264 2.95329,-10.1937 -0.78125,-10.4375 z m -8.28125,6.7812 c -0.44179,-0.015 -0.92882,0.1488 -1.4375,0.5 -4.06758,2.8105 1.35685,9.5842 3.75,8.5313 2.09401,-0.9218 0.78003,-8.9272 -2.3125,-9.0313 z m 21.875,5.2188 c -8.5194,0.2892 -18.98008,4.6541 -20.84375,13 -2.12466,9.5077 8.75129,22.6875 20.09375,22.6875 5.57991,0 12.01464,-5.0237 13.21875,-11.4063 0.91963,-4.8671 -10.82817,-2.908 -10.40625,0.3125 0.50548,3.8603 -2.82526,5.7386 -6.09375,3.25 -10.40502,-7.9219 17.22771,-11.8642 15.40625,-22.6875 -0.6142,-3.6495 -5.54594,-5.3541 -11.375,-5.1562 z"
         id="path4095"
         inkscape:connector-curvature="0" />
      <path
         style="fill:url(#linearGradient4111);fill-opacity:1;stroke:none"
         d="m 240.14069,1027.1737 c -9.17732,0 -16.625,5.2126 -16.625,11.6563 0,4.2853 3.31503,8.034 8.21875,10.0625 1.43489,-5.4768 19.12562,-9.7377 17.65625,-18.4688 -0.0939,-0.5582 -0.31004,-1.0639 -0.59375,-1.5312 -2.5237,-1.0856 -5.47977,-1.7188 -8.65625,-1.7188 z m 6.34375,19.4375 c -3.04334,0.023 -6.64358,1.4385 -6.40625,3.25 0.0287,0.2195 0.0579,0.4188 0.0625,0.625 3.83307,0 7.34488,-0.9067 10.15625,-2.4375 -0.57048,-1.0327 -2.10818,-1.4503 -3.8125,-1.4375 z"
         id="path4097"
         inkscape:connector-curvature="0" />
    </g>
  </g>
</svg>
