<?xml version="1.0" encoding="UTF-8" standalone="no"?>
<svg
   width="384pt"
   height="384pt"
   version="1.1"
   viewBox="0 0 384 384"
   id="svg30"
   sodipodi:docname="input-touchpad.svg"
   inkscape:version="1.1.2 (0a00cf5339, 2022-02-04, custom)"
   xmlns:inkscape="http://www.inkscape.org/namespaces/inkscape"
   xmlns:sodipodi="http://sodipodi.sourceforge.net/DTD/sodipodi-0.dtd"
   xmlns:xlink="http://www.w3.org/1999/xlink"
   xmlns="http://www.w3.org/2000/svg"
   xmlns:svg="http://www.w3.org/2000/svg">
  <sodipodi:namedview
     id="namedview32"
     pagecolor="#ffffff"
     bordercolor="#666666"
     borderopacity="1.0"
     inkscape:pageshadow="2"
     inkscape:pageopacity="0.0"
     inkscape:pagecheckerboard="0"
     inkscape:document-units="pt"
     showgrid="false"
     inkscape:zoom="0.66674478"
     inkscape:cx="190.47768"
     inkscape:cy="287.96626"
     inkscape:window-width="1366"
     inkscape:window-height="703"
     inkscape:window-x="0"
     inkscape:window-y="37"
     inkscape:window-maximized="1"
     inkscape:current-layer="svg30"
     showguides="false" />
  <defs
     id="defs14">
    <linearGradient
       inkscape:collect="always"
       id="linearGradient851">
      <stop
         style="stop-color:#652b97;stop-opacity:1"
         offset="0"
         id="stop847" />
      <stop
         style="stop-color:#640a75;stop-opacity:1"
         offset="1"
         id="stop849" />
    </linearGradient>
    <clipPath
       id="clipPath4">
      <rect
         width="384"
         height="384"
         id="rect2" />
    </clipPath>
    <clipPath
       id="clipPath8">
      <rect
         width="384"
         height="384"
         id="rect6" />
    </clipPath>
    <clipPath
       id="clipPath12">
      <rect
         width="384"
         height="384"
         id="rect10" />
    </clipPath>
    <radialGradient
       inkscape:collect="always"
       xlink:href="#linearGradient851"
       id="radialGradient853"
       cx="118.32465"
       cy="139.4617"
       fx="118.32465"
       fy="139.4617"
       r="171.252"
       gradientUnits="userSpaceOnUse"
       gradientTransform="matrix(2.1972346,0.53184572,-0.38529618,1.5917888,-87.928324,-145.46233)" />
  </defs>
  <g
     id="g1009">
    <path
       d="m360.75 344.52v-305.05c0-8.9648-7.2656-16.227-16.227-16.227h-305.05c-8.9609 0-16.227 7.2617-16.227 16.227v305.05c0 8.9609 7.2656 16.227 16.227 16.227h305.05c8.9609 0 16.227-7.2656 16.227-16.227z"
       fill="#fff"
       id="path18"
       style="fill:url(#radialGradient853);fill-opacity:1;stroke:none;stroke-opacity:1;stroke-width:5;stroke-miterlimit:4;stroke-dasharray:none" />
    <path
       d="m 297,97.89 c -0.6374,0 -1.1514,0.5125 -1.1514,1.1499 v 10.68 c 0,0.6374 0.51397,1.1499 1.1514,1.1499 h 49.62 c 0.6374,0 1.1514,-0.5125 1.1514,-1.1499 v -10.68 c 0,-0.63741 -0.5139,-1.1499 -1.1514,-1.1499 z m 0,25.96 c -0.6374,0 -1.1514,0.51396 -1.1514,1.1514 v 10.678 c 0,0.6374 0.51397,1.1514 1.1514,1.1514 h 49.62 c 0.6374,0 1.1514,-0.51397 1.1514,-1.1514 v -10.678 c 0,-0.63741 -0.5139,-1.1514 -1.1514,-1.1514 z m 0,25.961 c -0.6374,0 -1.1514,0.51249 -1.1514,1.1499 v 10.68 c 0,0.6374 0.51397,1.1499 1.1514,1.1499 h 49.62 c 0.6374,0 1.1514,-0.5125 1.1514,-1.1499 v -10.68 c 0,-0.63741 -0.5139,-1.1499 -1.1514,-1.1499 z M 52.22,266.639 c -8.4458,0 -15.244,6.799 -15.244,15.244 v 47.464 c 0,8.4458 6.799,15.244 15.244,15.244 h 110.63 c 8.4458,0 15.244,-6.799 15.244,-15.244 v -47.464 c 0,-8.4458 -6.799,-15.244 -15.244,-15.244 z m 168.93,0 c -8.4458,0 -15.244,6.799 -15.244,15.244 v 47.464 c 0,8.4458 6.799,15.244 15.244,15.244 h 110.63 c 8.4458,0 15.244,-6.799 15.244,-15.244 v -47.464 c 0,-8.4458 -6.799,-15.244 -15.244,-15.244 z"
       stroke="#000"
       stroke-width="0.75"
       style="opacity:0.35;fill:#f9f9f9;fill-opacity:1;stroke:none;stroke-opacity:1;paint-order:normal"
       id="path20"
       sodipodi:nodetypes="sssssssssssssssssssssssssssssssssssssssssssss" />
  </g>
</svg>
