<?xml version="1.0" encoding="UTF-8" standalone="no"?>
<svg
   id="Iterm"
   width="64"
   height="64"
   enable-background="new 0 0 1024 1024"
   image-rendering="optimizeSpeed"
   version="1.1"
   viewBox="0 0 64 64"
   sodipodi:docname="input-mouse.svg"
   inkscape:version="1.1.2 (0a00cf5339, 2022-02-04, custom)"
   xmlns:inkscape="http://www.inkscape.org/namespaces/inkscape"
   xmlns:sodipodi="http://sodipodi.sourceforge.net/DTD/sodipodi-0.dtd"
   xmlns="http://www.w3.org/2000/svg"
   xmlns:svg="http://www.w3.org/2000/svg">
  <sodipodi:namedview
     id="namedview51"
     pagecolor="#ffffff"
     bordercolor="#666666"
     borderopacity="1.0"
     inkscape:pageshadow="2"
     inkscape:pageopacity="0.0"
     inkscape:pagecheckerboard="0"
     showgrid="false"
     inkscape:zoom="5.4571321"
     inkscape:cx="25.654501"
     inkscape:cy="37.382273"
     inkscape:window-width="1366"
     inkscape:window-height="703"
     inkscape:window-x="0"
     inkscape:window-y="37"
     inkscape:window-maximized="1"
     inkscape:current-layer="Iterm" />
  <defs
     id="defs15">
    <linearGradient
       id="a"
       x1="18.601"
       x2="18.601"
       y1=".85446"
       y2="49.956"
       gradientTransform="matrix(1.1117,0,0,0.96015,24.948,10.068)"
       gradientUnits="userSpaceOnUse">
      <stop
         stop-color="#fafafa"
         offset="0"
         id="stop2" />
      <stop
         stop-color="#d4d4d4"
         offset="1"
         id="stop4" />
    </linearGradient>
    <filter
       id="c"
       x="-0.083606137"
       y="-0.046789293"
       width="1.1672123"
       height="1.0935786"
       color-interpolation-filters="sRGB">
      <feGaussianBlur
         stdDeviation="0.89678916"
         id="feGaussianBlur7" />
    </filter>
    <linearGradient
       id="linearGradient862-3"
       x1="7.9373"
       x2="7.9373"
       y1="15.081"
       y2="1.852"
       gradientTransform="scale(3.7796)"
       gradientUnits="userSpaceOnUse">
      <stop
         stop-color="#676767"
         offset="0"
         id="stop10" />
      <stop
         stop-color="#c6c6c6"
         offset="1"
         id="stop12" />
    </linearGradient>
  </defs>
  <mask
     id="mask20">
    <g
       id="g">
      <path
         d="m969.75 392.05c-1.1-4.35-2.35-9-3.65-13.6-1-3.4-2-6.85-3.15-10.5-1.6-5.15-3.4-10.5-5.3-15.85-6.45-18.25-14.15-36.05-23.15-53.65-3.8-7.4-7.95-14.95-12.3-22.4-20.3-34.5-45.8-67.2-76.35-97.75-72.6-72.6-157.15-116.65-253.65-132.05-16.25-2.6-32.8-4.4-50.05-5.35-9.7-0.55-19.85-0.85-30.1-0.85-9.35 0-18.6 0.25-27.9 0.75-118.35 6.1-220.3 51.95-305.85 137.5q-138.25 138.25-138.25 333.75c0 130.35 46.1 241.65 138.25 333.8 56.7 56.65 120.55 95.9 191.1 117.55 36.75 11.25 74.8 17.85 114.75 19.95h0.4c8.5 0.45 16.6 0.7 24.5 0.7h3c10.3 0 20.5-0.3 30.1-0.8 2.5-0.15 4.75-0.3 6.95-0.45 20.2-1.45 39.9-4.05 58.7-7.7 7.95-1.55 15.8-3.3 23.4-5.15 80.8-20.3 152.15-61.6 214.65-124.1 48.6-48.6 84.4-102.5 107.35-161.8 18.45-47.65 28.65-98.8 30.55-153.5 0.2-6.05 0.3-12.25 0.3-18.5v-3c-0.2-40.65-4.95-79.5-14.3-117z"
         fill="#fff"
         id="path17" />
    </g>
  </mask>
  <g
     id="g843"
     transform="translate(-1.6674696,-2.9787012)">
    <g
       transform="matrix(1.1786757,0,0,1.1786757,-4.2705556,-6.2135092)"
       id="g46">
      <path
         d="m 31.053,11.95 c -2.9256,0.03249 -6.0709,0.29912 -8.2143,2.3085 -3.2829,3.0776 -2.8684,5.2064 -3.1908,9.4186 -0.65823,8.5986 -0.40341,20.383 1.3449,28.849 0.51282,2.4834 2.8552,4.231 5.34,4.7093 1.9071,0.36711 3.8793,0.6452 5.8542,0.71233 1.9749,-0.06713 3.9471,-0.34522 5.8542,-0.71233 2.4848,-0.47832 4.8271,-2.2259 5.34,-4.7093 1.7483,-8.4664 2.0031,-20.251 1.3449,-28.849 -0.32245,-4.2122 0.09208,-6.341 -3.1908,-9.4186 -2.1434,-2.0094 -5.2888,-2.276 -8.2143,-2.3085 -0.38236,-0.0042 -0.76171,-4.91e-4 -1.1339,0 -0.37221,-4.91e-4 -0.75155,-0.0042 -1.1339,0 z"
         color="#000000"
         enable-background="accumulate"
         filter="url(#c)"
         opacity="0.35"
         id="path38" />
      <path
         d="m 31.053,11.45 c -2.9256,0.03249 -6.0709,0.29912 -8.2143,2.3085 -3.2829,3.0776 -2.8684,5.2064 -3.1908,9.4186 -0.65823,8.5986 -0.40341,20.383 1.3449,28.849 0.51282,2.4834 2.8552,4.231 5.34,4.7093 1.9071,0.36711 3.8793,0.6452 5.8542,0.71233 1.9749,-0.06713 3.9471,-0.34522 5.8542,-0.71233 2.4848,-0.47832 4.8271,-2.2259 5.34,-4.7093 1.7483,-8.4664 2.0031,-20.251 1.3449,-28.849 -0.32245,-4.2122 0.09208,-6.341 -3.1908,-9.4186 -2.1434,-2.0094 -5.2888,-2.276 -8.2143,-2.3085 -0.38236,-0.0042 -0.76171,-4.91e-4 -1.1339,0 -0.37221,-4.91e-4 -0.75155,-0.0042 -1.1339,0 z"
         color="#000000"
         enable-background="accumulate"
         fill="url(#a)"
         id="path40"
         style="fill:url(#a)" />
      <path
         d="m 32.187,17.448 c 0.554,0 1,0.54953 1,1.2321 v 3.5357 c 0,0.68261 -0.446,1.2321 -1,1.2321 -0.554,0 -1,-0.54954 -1,-1.2321 v -3.5357 c 0,-0.68261 0.446,-1.2321 1,-1.2321 z"
         fill="#4d4d4d"
         fill-opacity="0.58824"
         id="path42" />
      <path
         d="m 32.187,18.448 c 0.554,0 1,0.54953 1,1.2321 v 3.5357 c 0,0.68261 -0.446,1.2321 -1,1.2321 -0.554,0 -1,-0.54954 -1,-1.2321 v -3.5357 c 0,-0.68261 0.446,-1.2321 1,-1.2321 z"
         fill="#4d4d4d"
         fill-opacity="0.58824"
         id="path44" />
    </g>
    <path
       d="m 31.483175,53.482942 c 0.315715,0.03769 0.670442,0.24221 0.967302,0.27834 0.298457,0.03769 0.390816,-0.203266 0.390816,-0.203266 0,0 0.335858,-0.07498 0.688952,-0.08362 0.353437,-0.01049 0.688,0.07351 0.688,0.07351 0,0 0.06487,0.148711 0.185991,0.213481 0.121119,0.06615 0.381867,0.07499 0.548989,-0.101107 0.167444,-0.177351 0.614187,-0.400729 0.86504,-0.540382 0.252449,-0.140072 0.206117,-0.353402 0.04762,-0.418281 -0.158488,-0.06488 -0.288233,-0.167034 -0.278328,-0.363346 0.0085,-0.194628 -0.139967,-0.32434 -0.139967,-0.32434 0,0 0.130062,-0.428201 0.0088,-0.782916 -0.121069,-0.353085 -0.520519,-0.92096 -0.827607,-1.347876 -0.307083,-0.428203 -0.04635,-0.922544 -0.325935,-1.554305 -0.279625,-0.632729 -1.004683,-0.595321 -1.395499,-0.325643 -0.390816,0.269698 -0.270996,0.938531 -0.252146,1.255854 0.01885,0.315722 0.0086,0.54163 -0.02748,0.622809 -0.03611,0.08258 -0.288234,0.381882 -0.455676,0.632729 -0.167122,0.252131 -0.288251,0.772676 -0.410639,0.98744 -0.119843,0.213454 -0.03612,0.408063 -0.03612,0.408063 0,0 -0.08372,0.02885 -0.149865,0.168723 -0.06488,0.138388 -0.194618,0.204529 -0.428217,0.249562 -0.231999,0.04758 -0.231999,0.197155 -0.176072,0.364613 0.05622,0.167029 0,0.260761 -0.06488,0.474243 -0.06487,0.213413 0.259803,0.278273 0.576789,0.315684 z m 3.281833,-0.973707 c 0.16585,0.07245 0.404234,-0.02844 0.476772,-0.101107 0.07223,-0.07224 0.123355,-0.17967 0.123355,-0.17967 0,0 0.07255,0.03602 0.0652,0.150809 -0.0077,0.116265 0.04984,0.282168 0.158494,0.339693 0.108639,0.0573 0.274492,0.137125 0.188537,0.216982 -0.08758,0.07983 -0.572,0.274792 -0.716751,0.426913 -0.14348,0.151238 -0.332022,0.274816 -0.446747,0.238376 -0.115982,-0.03602 -0.21729,-0.194626 -0.167424,-0.426597 0.05145,-0.23103 0.09491,-0.484445 0.08755,-0.629191 -0.0077,-0.14471 -0.03611,-0.339698 0,-0.368446 0.0361,-0.02846 0.09363,-0.01473 0.09363,-0.01473 0,0 -0.0288,0.274563 0.137401,0.346746 z M 33.688755,48.59855 c 0.159769,0 0.288559,0.158398 0.288559,0.353404 0,0.138388 -0.06488,0.258219 -0.159786,0.315744 -0.02397,-0.01049 -0.0489,-0.02107 -0.07638,-0.03265 0.05752,-0.02844 0.09745,-0.101107 0.09745,-0.184729 0,-0.109534 -0.0674,-0.199683 -0.152108,-0.199683 -0.08243,0 -0.151157,0.09015 -0.151157,0.199683 0,0.04003 0.0099,0.07983 0.0262,0.11122 -0.04984,-0.02107 -0.09491,-0.03728 -0.131015,-0.05119 -0.01885,-0.04761 -0.03004,-0.101324 -0.03004,-0.158398 1.9e-5,-0.194837 0.128467,-0.353446 0.28827,-0.353446 z m -0.395623,0.609052 c 0.07861,0.01474 0.294618,0.107425 0.37453,0.136071 0.0799,0.02738 0.168395,0.07857 0.159767,0.129752 -0.0099,0.05265 -0.05112,0.05265 -0.159767,0.118805 -0.107378,0.06488 -0.34192,0.209581 -0.417023,0.219524 -0.07477,0.01049 -0.117266,-0.03223 -0.197185,-0.08384 -0.0799,-0.05245 -0.229739,-0.174828 -0.192054,-0.239663 0,0 0.117266,-0.08972 0.168415,-0.135858 0.05113,-0.04761 0.183425,-0.159875 0.263318,-0.14513 z m -0.344484,-0.552813 c 0.125901,0 0.228485,0.149762 0.228485,0.334572 0,0.0335 -0.0037,0.06488 -0.0099,0.09627 -0.03131,0.01049 -0.06261,0.02613 -0.09268,0.05244 -0.01469,0.01265 -0.02846,0.02359 -0.04089,0.03603 0.0198,-0.03728 0.02748,-0.09099 0.01852,-0.147235 -0.01726,-0.09964 -0.08468,-0.173564 -0.150832,-0.163664 -0.06647,0.01049 -0.106105,0.102576 -0.09012,0.203474 0.01759,0.10237 0.08371,0.176092 0.151139,0.164929 0.0037,-0.001 0.0073,-0.0022 0.0112,-0.0041 -0.03227,0.03138 -0.06232,0.05877 -0.09363,0.0811 -0.09108,-0.04255 -0.158498,-0.169773 -0.158498,-0.319557 1.8e-5,-0.185991 0.101003,-0.334554 0.22721,-0.334554 z m -0.701418,2.417743 c 0.12974,-0.204529 0.213452,-0.651561 0.343193,-0.800165 0.131033,-0.148287 0.232001,-0.464305 0.185991,-0.603935 0,0 0.279605,0.334552 0.474224,0.279599 0.194926,-0.05625 0.633043,-0.381863 0.697901,-0.325938 0.06488,0.05624 0.622819,1.283321 0.679052,1.674133 0.05626,0.3905 -0.03737,0.68897 -0.03737,0.68897 0,0 -0.213454,-0.05622 -0.240955,0.07352 -0.02748,0.131012 -0.02748,0.605575 -0.02748,0.605575 0,0 -0.288555,0.399429 -0.735301,0.465572 -0.446746,0.06488 -0.670441,0.01683 -0.670441,0.01683 l -0.250856,-0.287291 c 0,0 0.194944,-0.02885 0.167445,-0.224637 -0.02748,-0.194631 -0.59566,-0.464325 -0.69792,-0.706542 -0.102214,-0.242229 -0.01881,-0.651581 0.112517,-0.856404 z m -1.1047,1.46548 c 0.02237,-0.09585 0.311875,-0.09585 0.423085,-0.163242 0.111219,-0.0674 0.13356,-0.26109 0.223373,-0.31221 0.0885,-0.05246 0.252126,0.133546 0.319551,0.238383 0.06615,0.10237 0.319571,0.549316 0.423105,0.660506 0.104796,0.112068 0.201005,0.260768 0.170959,0.394332 -0.02843,0.133547 -0.185973,0.231049 -0.185973,0.231049 -0.140915,0.04342 -0.533976,-0.126172 -0.712594,-0.200948 -0.178618,-0.07498 -0.63304,-0.09753 -0.691514,-0.163665 -0.06008,-0.0674 0.02874,-0.216027 0.0524,-0.356962 0.02107,-0.1426 -0.04506,-0.231024 -0.02239,-0.327201 z"
       id="path2"
       style="fill:#4d4d4d;fill-opacity:1;stroke-width:0.019004" />
  </g>
</svg>
