<?xml version="1.0" encoding="UTF-8" standalone="no"?>
<!-- Created with Inkscape (http://www.inkscape.org/) -->

<svg
   xmlns:dc="http://purl.org/dc/elements/1.1/"
   xmlns:cc="http://creativecommons.org/ns#"
   xmlns:rdf="http://www.w3.org/1999/02/22-rdf-syntax-ns#"
   xmlns:svg="http://www.w3.org/2000/svg"
   xmlns="http://www.w3.org/2000/svg"
   xmlns:xlink="http://www.w3.org/1999/xlink"
   xmlns:sodipodi="http://sodipodi.sourceforge.net/DTD/sodipodi-0.dtd"
   xmlns:inkscape="http://www.inkscape.org/namespaces/inkscape"
   width="96"
   height="96"
   id="svg2"
   version="1.1"
   inkscape:version="0.48.4 r9939"
   sodipodi:docname="media-flash.svg">
  <defs
     id="defs4">
    <linearGradient
       inkscape:collect="always"
       id="linearGradient3515">
      <stop
         style="stop-color:#d40000;stop-opacity:1"
         offset="0"
         id="stop3517" />
      <stop
         style="stop-color:#ff0000;stop-opacity:1"
         offset="1"
         id="stop3520" />
    </linearGradient>
    <linearGradient
       inkscape:collect="always"
       id="linearGradient3424">
      <stop
         style="stop-color:#000000;stop-opacity:1"
         offset="0"
         id="stop3427" />
      <stop
         style="stop-color:#1a1a1a;stop-opacity:1"
         offset="1"
         id="stop3429" />
    </linearGradient>
    <linearGradient
       id="linearGradient8530"
       inkscape:collect="always">
      <stop
         id="stop8532"
         offset="0"
         style="stop-color:#000000;stop-opacity:1" />
      <stop
         id="stop8534"
         offset="1"
         style="stop-color:#333333;stop-opacity:1" />
    </linearGradient>
    <linearGradient
       inkscape:collect="always"
       id="linearGradient8518">
      <stop
         style="stop-color:#1a1a1a;stop-opacity:1;"
         offset="0"
         id="stop8520" />
      <stop
         style="stop-color:#000000;stop-opacity:1"
         offset="1"
         id="stop8522" />
    </linearGradient>
    <inkscape:perspective
       sodipodi:type="inkscape:persp3d"
       inkscape:vp_x="0 : 48 : 1"
       inkscape:vp_y="0 : 1000 : 0"
       inkscape:vp_z="96 : 48 : 1"
       inkscape:persp3d-origin="48 : 32 : 1"
       id="perspective3054" />
    <linearGradient
       inkscape:collect="always"
       id="linearGradient3558">
      <stop
         style="stop-color:#ded3d6;stop-opacity:1"
         offset="0"
         id="stop3560" />
      <stop
         style="stop-color:#efebef;stop-opacity:1"
         offset="1"
         id="stop3562" />
    </linearGradient>
    <linearGradient
       id="linearGradient3076"
       inkscape:collect="always">
      <stop
         id="stop3078"
         offset="0"
         style="stop-color:#ffe7f7;stop-opacity:1" />
      <stop
         id="stop3080"
         offset="1"
         style="stop-color:#ffc3ef;stop-opacity:1" />
    </linearGradient>
    <linearGradient
       inkscape:collect="always"
       id="linearGradient3048">
      <stop
         style="stop-color:#c16d16;stop-opacity:1"
         offset="0"
         id="stop3050" />
      <stop
         style="stop-color:#ff8e31;stop-opacity:1"
         offset="1"
         id="stop3052" />
    </linearGradient>
    <linearGradient
       inkscape:collect="always"
       id="linearGradient3119">
      <stop
         style="stop-color:#92948f;stop-opacity:0"
         offset="0"
         id="stop3121" />
      <stop
         id="stop3123"
         offset="0.4283945"
         style="stop-color:#9b9e98;stop-opacity:1" />
      <stop
         style="stop-color:#939690;stop-opacity:0"
         offset="1"
         id="stop3125" />
    </linearGradient>
    <linearGradient
       id="linearGradient3073"
       inkscape:collect="always">
      <stop
         id="stop3075"
         offset="0"
         style="stop-color:#ffffff;stop-opacity:0" />
      <stop
         style="stop-color:#ffffff;stop-opacity:1"
         offset="0.45872402"
         id="stop3085" />
      <stop
         id="stop3083"
         offset="1"
         style="stop-color:#ffffff;stop-opacity:0" />
    </linearGradient>
    <linearGradient
       inkscape:collect="always"
       id="linearGradient3047">
      <stop
         style="stop-color:#000000;stop-opacity:1"
         offset="0"
         id="stop3049" />
      <stop
         id="stop3055"
         offset="0.06123874"
         style="stop-color:#1a1a1a;stop-opacity:1" />
      <stop
         style="stop-color:#333333;stop-opacity:1"
         offset="0.16480456"
         id="stop3057" />
      <stop
         id="stop3059"
         offset="0.55385184"
         style="stop-color:#4d4d4d;stop-opacity:1" />
      <stop
         style="stop-color:#999999;stop-opacity:1"
         offset="1"
         id="stop3051" />
    </linearGradient>
    <linearGradient
       id="linearGradient3041"
       inkscape:collect="always">
      <stop
         id="stop3043"
         offset="0"
         style="stop-color:#1a1a1a;stop-opacity:1" />
      <stop
         id="stop3045"
         offset="1"
         style="stop-color:#808080;stop-opacity:1" />
    </linearGradient>
    <linearGradient
       inkscape:collect="always"
       id="linearGradient3029">
      <stop
         style="stop-color:#333333;stop-opacity:1"
         offset="0"
         id="stop3031" />
      <stop
         style="stop-color:#e0e0dd;stop-opacity:0;"
         offset="1"
         id="stop3033" />
    </linearGradient>
    <linearGradient
       inkscape:collect="always"
       xlink:href="#linearGradient3029"
       id="linearGradient3035"
       x1="35.355339"
       y1="1030.3622"
       x2="35.355339"
       y2="975.33282"
       gradientUnits="userSpaceOnUse"
       gradientTransform="matrix(1.1638085,0,0,1.1638085,-7.862809,-164.23642)" />
    <linearGradient
       inkscape:collect="always"
       xlink:href="#linearGradient3041"
       id="linearGradient3039"
       gradientUnits="userSpaceOnUse"
       x1="35.355339"
       y1="1030.3622"
       x2="35.355339"
       y2="975.33282"
       gradientTransform="matrix(1.1218695,0,0,1.1218695,-5.8497348,-122.18782)" />
    <linearGradient
       inkscape:collect="always"
       xlink:href="#linearGradient3047"
       id="linearGradient3053"
       x1="40"
       y1="1043.4336"
       x2="39.285713"
       y2="972.33325"
       gradientUnits="userSpaceOnUse" />
    <linearGradient
       inkscape:collect="always"
       xlink:href="#linearGradient3073"
       id="linearGradient3113"
       gradientUnits="userSpaceOnUse"
       gradientTransform="translate(0,-956.36218)"
       x1="14.869445"
       y1="978.90387"
       x2="24.52651"
       y2="969.24683" />
    <linearGradient
       inkscape:collect="always"
       xlink:href="#linearGradient3073"
       id="linearGradient3115"
       gradientUnits="userSpaceOnUse"
       gradientTransform="matrix(-1,0,0,1,96,-956.36218)"
       x1="15.152279"
       y1="978.62103"
       x2="26.263966"
       y2="967.50934" />
    <linearGradient
       inkscape:collect="always"
       xlink:href="#linearGradient3119"
       id="linearGradient3117"
       gradientUnits="userSpaceOnUse"
       gradientTransform="translate(0,-956.36218)"
       x1="13.131983"
       y1="980.64136"
       x2="25.549681"
       y2="967.86646" />
    <linearGradient
       inkscape:collect="always"
       xlink:href="#linearGradient3119"
       id="linearGradient3129"
       gradientUnits="userSpaceOnUse"
       gradientTransform="matrix(-1,0,0,1,96,0)"
       x1="13.131983"
       y1="980.64136"
       x2="25.549681"
       y2="967.86646" />
    <linearGradient
       inkscape:collect="always"
       xlink:href="#linearGradient3048"
       id="linearGradient3054"
       x1="49.267925"
       y1="996.57349"
       x2="49.267925"
       y2="1045.8627"
       gradientUnits="userSpaceOnUse" />
    <linearGradient
       inkscape:collect="always"
       xlink:href="#linearGradient3048"
       id="linearGradient3058"
       x1="115.80308"
       y1="985.47241"
       x2="115.80308"
       y2="1033.5543"
       gradientUnits="userSpaceOnUse" />
    <linearGradient
       inkscape:collect="always"
       xlink:href="#linearGradient3076"
       id="linearGradient3055"
       gradientUnits="userSpaceOnUse"
       x1="115.80308"
       y1="985.47241"
       x2="115.80308"
       y2="1025.3639"
       gradientTransform="matrix(1.4144782,0,0,1.4144782,-119.78686,-419.05496)" />
    <linearGradient
       inkscape:collect="always"
       xlink:href="#linearGradient3076"
       id="linearGradient3086"
       gradientUnits="userSpaceOnUse"
       gradientTransform="matrix(1.4144782,0,0,1.4144782,-119.78686,-417.12598)"
       x1="115.80308"
       y1="985.47241"
       x2="115.80308"
       y2="1025.3639" />
    <linearGradient
       inkscape:collect="always"
       xlink:href="#linearGradient3076"
       id="linearGradient3091"
       gradientUnits="userSpaceOnUse"
       gradientTransform="matrix(1.4144782,0,0,1.4144782,-119.78686,-418.126)"
       x1="115.80308"
       y1="985.47241"
       x2="115.80308"
       y2="1025.3639" />
    <linearGradient
       inkscape:collect="always"
       xlink:href="#linearGradient3076"
       id="linearGradient3093"
       gradientUnits="userSpaceOnUse"
       gradientTransform="matrix(1.4144782,0,0,1.4144782,-119.78686,-1375.4171)"
       x1="115.80308"
       y1="985.47241"
       x2="115.80308"
       y2="1025.3639" />
    <linearGradient
       inkscape:collect="always"
       xlink:href="#linearGradient3558"
       id="linearGradient3564"
       x1="93.242035"
       y1="1027.2615"
       x2="93.242035"
       y2="980.7262"
       gradientUnits="userSpaceOnUse" />
    <linearGradient
       inkscape:collect="always"
       xlink:href="#linearGradient3558"
       id="linearGradient4350"
       gradientUnits="userSpaceOnUse"
       x1="93.242035"
       y1="1027.2615"
       x2="93.242035"
       y2="980.7262" />
    <linearGradient
       x1="48"
       y1="20.220806"
       x2="48"
       y2="138.66119"
       id="linearGradient3613"
       xlink:href="#linearGradient3737"
       gradientUnits="userSpaceOnUse" />
    <linearGradient
       id="linearGradient3737">
      <stop
         id="stop3739"
         style="stop-color:#ffffff;stop-opacity:1"
         offset="0" />
      <stop
         id="stop3741"
         style="stop-color:#ffffff;stop-opacity:0"
         offset="1" />
    </linearGradient>
    <clipPath
       id="clipPath4355">
      <rect
         width="84"
         height="80"
         rx="6"
         ry="6"
         x="6"
         y="6"
         id="rect4357"
         style="fill:#ffffff;fill-opacity:1;fill-rule:nonzero;stroke:none" />
    </clipPath>
    <filter
       x="-0.192"
       y="-0.192"
       width="1.3839999"
       height="1.3839999"
       color-interpolation-filters="sRGB"
       id="filter3794">
      <feGaussianBlur
         id="feGaussianBlur3796"
         stdDeviation="5.28" />
    </filter>
    <linearGradient
       y2="138.66119"
       x2="48"
       y1="20.220806"
       x1="48"
       gradientUnits="userSpaceOnUse"
       id="linearGradient3155"
       xlink:href="#linearGradient3737"
       inkscape:collect="always" />
    <linearGradient
       x1="48"
       y1="20.220806"
       x2="48"
       y2="138.66119"
       id="linearGradient3613-9"
       xlink:href="#linearGradient3737-7"
       gradientUnits="userSpaceOnUse" />
    <linearGradient
       id="linearGradient3737-7">
      <stop
         id="stop3739-5"
         style="stop-color:#ffffff;stop-opacity:1"
         offset="0" />
      <stop
         id="stop3741-8"
         style="stop-color:#ffffff;stop-opacity:0"
         offset="1" />
    </linearGradient>
    <clipPath
       id="clipPath4355-8">
      <rect
         width="84"
         height="80"
         rx="6"
         ry="6"
         x="6"
         y="6"
         id="rect4357-5"
         style="fill:#ffffff;fill-opacity:1;fill-rule:nonzero;stroke:none" />
    </clipPath>
    <filter
       x="-0.192"
       y="-0.192"
       width="1.3839999"
       height="1.3839999"
       color-interpolation-filters="sRGB"
       id="filter3794-7">
      <feGaussianBlur
         id="feGaussianBlur3796-7"
         stdDeviation="5.28" />
    </filter>
    <linearGradient
       x1="32.251034"
       y1="6.1317081"
       x2="32.251034"
       y2="90.238609"
       id="linearGradient3026"
       xlink:href="#ButtonShadow-0"
       gradientUnits="userSpaceOnUse"
       gradientTransform="matrix(1.0238095,0,0,1.0119048,-1.1428571,-98.071429)" />
    <linearGradient
       x1="45.447727"
       y1="92.539597"
       x2="45.447727"
       y2="7.0165396"
       id="ButtonShadow-0"
       gradientUnits="userSpaceOnUse"
       gradientTransform="matrix(1.0058652,0,0,0.994169,100,0)">
      <stop
         id="stop3750-8"
         style="stop-color:#000000;stop-opacity:1"
         offset="0" />
      <stop
         id="stop3752-5"
         style="stop-color:#000000;stop-opacity:0.58823532"
         offset="1" />
    </linearGradient>
    <linearGradient
       x1="32.251034"
       y1="6.1317081"
       x2="32.251034"
       y2="90.238609"
       id="linearGradient3780"
       xlink:href="#ButtonShadow-0"
       gradientUnits="userSpaceOnUse"
       gradientTransform="matrix(1.0238095,0,0,1.0119048,-1.1428571,-98.071429)" />
    <linearGradient
       x1="45.447727"
       y1="92.539597"
       x2="45.447727"
       y2="7.0165396"
       id="linearGradient3180"
       gradientUnits="userSpaceOnUse"
       gradientTransform="matrix(1.0058652,0,0,0.994169,100,0)">
      <stop
         id="stop3182"
         style="stop-color:#000000;stop-opacity:1"
         offset="0" />
      <stop
         id="stop3184"
         style="stop-color:#000000;stop-opacity:0.58823532"
         offset="1" />
    </linearGradient>
    <linearGradient
       x1="32.251034"
       y1="6.1317081"
       x2="32.251034"
       y2="90.238609"
       id="linearGradient3772"
       xlink:href="#ButtonShadow-0"
       gradientUnits="userSpaceOnUse"
       gradientTransform="matrix(1.0238095,0,0,1.0119048,-1.1428571,-98.071429)" />
    <linearGradient
       x1="45.447727"
       y1="92.539597"
       x2="45.447727"
       y2="7.0165396"
       id="linearGradient3187"
       gradientUnits="userSpaceOnUse"
       gradientTransform="matrix(1.0058652,0,0,0.994169,100,0)">
      <stop
         id="stop3189"
         style="stop-color:#000000;stop-opacity:1"
         offset="0" />
      <stop
         id="stop3191"
         style="stop-color:#000000;stop-opacity:0.58823532"
         offset="1" />
    </linearGradient>
    <linearGradient
       x1="32.251034"
       y1="6.1317081"
       x2="32.251034"
       y2="90.238609"
       id="linearGradient3725"
       xlink:href="#ButtonShadow-0"
       gradientUnits="userSpaceOnUse"
       gradientTransform="matrix(1.0238095,0,0,1.0119048,-1.1428571,-98.071429)" />
    <linearGradient
       x1="45.447727"
       y1="92.539597"
       x2="45.447727"
       y2="7.0165396"
       id="linearGradient3194"
       gradientUnits="userSpaceOnUse"
       gradientTransform="matrix(1.0058652,0,0,0.994169,100,0)">
      <stop
         id="stop3196"
         style="stop-color:#000000;stop-opacity:1"
         offset="0" />
      <stop
         id="stop3198"
         style="stop-color:#000000;stop-opacity:0.58823532"
         offset="1" />
    </linearGradient>
    <linearGradient
       x1="32.251034"
       y1="6.1317081"
       x2="32.251034"
       y2="90.238609"
       id="linearGradient3721"
       xlink:href="#ButtonShadow-0"
       gradientUnits="userSpaceOnUse"
       gradientTransform="translate(0,-97)" />
    <linearGradient
       x1="45.447727"
       y1="92.539597"
       x2="45.447727"
       y2="7.0165396"
       id="linearGradient3201"
       gradientUnits="userSpaceOnUse"
       gradientTransform="matrix(1.0058652,0,0,0.994169,100,0)">
      <stop
         id="stop3203"
         style="stop-color:#000000;stop-opacity:1"
         offset="0" />
      <stop
         id="stop3205"
         style="stop-color:#000000;stop-opacity:0.58823532"
         offset="1" />
    </linearGradient>
    <linearGradient
       x1="48"
       y1="20.220806"
       x2="48"
       y2="138.66119"
       id="linearGradient3613-2"
       xlink:href="#linearGradient3737-1"
       gradientUnits="userSpaceOnUse" />
    <linearGradient
       id="linearGradient3737-1">
      <stop
         id="stop3739-3"
         style="stop-color:#ffffff;stop-opacity:1"
         offset="0" />
      <stop
         id="stop3741-7"
         style="stop-color:#ffffff;stop-opacity:0"
         offset="1" />
    </linearGradient>
    <clipPath
       id="clipPath4355-0">
      <rect
         width="84"
         height="80"
         rx="6"
         ry="6"
         x="6"
         y="6"
         id="rect4357-3"
         style="fill:#ffffff;fill-opacity:1;fill-rule:nonzero;stroke:none" />
    </clipPath>
    <filter
       x="-0.192"
       y="-0.192"
       width="1.3839999"
       height="1.3839999"
       color-interpolation-filters="sRGB"
       id="filter3794-73">
      <feGaussianBlur
         id="feGaussianBlur3796-0"
         stdDeviation="5.28" />
    </filter>
    <linearGradient
       x1="32.251034"
       y1="6.1317081"
       x2="32.251034"
       y2="90.238609"
       id="linearGradient3026-1"
       xlink:href="#ButtonShadow-0-5"
       gradientUnits="userSpaceOnUse"
       gradientTransform="matrix(1.0238095,0,0,1.0119048,-1.1428571,-98.071429)" />
    <linearGradient
       x1="45.447727"
       y1="92.539597"
       x2="45.447727"
       y2="7.0165396"
       id="ButtonShadow-0-5"
       gradientUnits="userSpaceOnUse"
       gradientTransform="matrix(1.0058652,0,0,0.994169,100,0)">
      <stop
         id="stop3750-8-2"
         style="stop-color:#000000;stop-opacity:1"
         offset="0" />
      <stop
         id="stop3752-5-7"
         style="stop-color:#000000;stop-opacity:0.58823532"
         offset="1" />
    </linearGradient>
    <linearGradient
       x1="32.251034"
       y1="6.1317081"
       x2="32.251034"
       y2="90.238609"
       id="linearGradient3780-7"
       xlink:href="#ButtonShadow-0-5"
       gradientUnits="userSpaceOnUse"
       gradientTransform="matrix(1.0238095,0,0,1.0119048,-1.1428571,-98.071429)" />
    <linearGradient
       x1="45.447727"
       y1="92.539597"
       x2="45.447727"
       y2="7.0165396"
       id="linearGradient3241"
       gradientUnits="userSpaceOnUse"
       gradientTransform="matrix(1.0058652,0,0,0.994169,100,0)">
      <stop
         id="stop3243"
         style="stop-color:#000000;stop-opacity:1"
         offset="0" />
      <stop
         id="stop3245"
         style="stop-color:#000000;stop-opacity:0.58823532"
         offset="1" />
    </linearGradient>
    <linearGradient
       x1="32.251034"
       y1="6.1317081"
       x2="32.251034"
       y2="90.238609"
       id="linearGradient3772-5"
       xlink:href="#ButtonShadow-0-5"
       gradientUnits="userSpaceOnUse"
       gradientTransform="matrix(1.0238095,0,0,1.0119048,-1.1428571,-98.071429)" />
    <linearGradient
       x1="45.447727"
       y1="92.539597"
       x2="45.447727"
       y2="7.0165396"
       id="linearGradient3248"
       gradientUnits="userSpaceOnUse"
       gradientTransform="matrix(1.0058652,0,0,0.994169,100,0)">
      <stop
         id="stop3250"
         style="stop-color:#000000;stop-opacity:1"
         offset="0" />
      <stop
         id="stop3252"
         style="stop-color:#000000;stop-opacity:0.58823532"
         offset="1" />
    </linearGradient>
    <linearGradient
       x1="32.251034"
       y1="6.1317081"
       x2="32.251034"
       y2="90.238609"
       id="linearGradient3725-9"
       xlink:href="#ButtonShadow-0-5"
       gradientUnits="userSpaceOnUse"
       gradientTransform="matrix(1.0238095,0,0,1.0119048,-1.1428571,-98.071429)" />
    <linearGradient
       x1="45.447727"
       y1="92.539597"
       x2="45.447727"
       y2="7.0165396"
       id="linearGradient3255"
       gradientUnits="userSpaceOnUse"
       gradientTransform="matrix(1.0058652,0,0,0.994169,100,0)">
      <stop
         id="stop3257"
         style="stop-color:#000000;stop-opacity:1"
         offset="0" />
      <stop
         id="stop3259"
         style="stop-color:#000000;stop-opacity:0.58823532"
         offset="1" />
    </linearGradient>
    <linearGradient
       x1="32.251034"
       y1="6.1317081"
       x2="32.251034"
       y2="90.238609"
       id="linearGradient3721-0"
       xlink:href="#ButtonShadow-0-5"
       gradientUnits="userSpaceOnUse"
       gradientTransform="translate(0,-97)" />
    <linearGradient
       x1="45.447727"
       y1="92.539597"
       x2="45.447727"
       y2="7.0165396"
       id="linearGradient3262"
       gradientUnits="userSpaceOnUse"
       gradientTransform="matrix(1.0058652,0,0,0.994169,100,0)">
      <stop
         id="stop3264"
         style="stop-color:#000000;stop-opacity:1"
         offset="0" />
      <stop
         id="stop3266"
         style="stop-color:#000000;stop-opacity:0.58823532"
         offset="1" />
    </linearGradient>
    <linearGradient
       inkscape:collect="always"
       xlink:href="#linearGradient4384"
       id="linearGradient3280"
       gradientUnits="userSpaceOnUse"
       spreadMethod="reflect"
       x1="48"
       y1="82"
       x2="112.12357"
       y2="82.454597"
       gradientTransform="translate(-102.19033,953.17606)" />
    <linearGradient
       id="linearGradient4384">
      <stop
         id="stop4386"
         style="stop-color:#ffffff;stop-opacity:1"
         offset="0" />
      <stop
         id="stop4388"
         style="stop-color:#ffffff;stop-opacity:0"
         offset="1" />
    </linearGradient>
    <linearGradient
       inkscape:collect="always"
       xlink:href="#linearGradient4384"
       id="linearGradient3284"
       gradientUnits="userSpaceOnUse"
       gradientTransform="matrix(1,0,0,-1,-102.19033,1045.176)"
       x1="48"
       y1="88"
       x2="48"
       y2="-40" />
    <linearGradient
       id="linearGradient3386">
      <stop
         id="stop3388"
         style="stop-color:#ffffff;stop-opacity:1"
         offset="0" />
      <stop
         id="stop3390"
         style="stop-color:#ffffff;stop-opacity:0"
         offset="1" />
    </linearGradient>
    <clipPath
       id="clipPath4165">
      <rect
         width="84"
         height="84"
         rx="6"
         ry="6"
         x="6"
         y="6"
         id="rect4167"
         style="fill:#ff2a2a;fill-opacity:1;fill-rule:nonzero;stroke:none" />
    </clipPath>
    <radialGradient
       cx="24.821428"
       cy="26.357143"
       r="8.0357141"
       fx="24.821428"
       fy="26.357143"
       id="radialGradient4393"
       xlink:href="#linearGradient3853"
       gradientUnits="userSpaceOnUse" />
    <linearGradient
       id="linearGradient3853">
      <stop
         id="stop3855"
         style="stop-color:#e88d01;stop-opacity:0.18431373"
         offset="0" />
      <stop
         id="stop3863"
         style="stop-color:#e58907;stop-opacity:0.4108527"
         offset="0.5" />
      <stop
         id="stop4397"
         style="stop-color:#e48a0a;stop-opacity:0.68217057"
         offset="0.75" />
      <stop
         id="stop3859"
         style="stop-color:#e4870a;stop-opacity:1"
         offset="1" />
    </linearGradient>
    <radialGradient
       cx="43.392857"
       cy="30.464287"
       r="4.1071429"
       fx="43.392857"
       fy="30.464287"
       id="radialGradient4045"
       xlink:href="#linearGradient3853"
       gradientUnits="userSpaceOnUse" />
    <linearGradient
       id="linearGradient3401">
      <stop
         id="stop3403"
         style="stop-color:#e88d01;stop-opacity:0.18431373"
         offset="0" />
      <stop
         id="stop3405"
         style="stop-color:#e58907;stop-opacity:0.4108527"
         offset="0.5" />
      <stop
         id="stop3407"
         style="stop-color:#e48a0a;stop-opacity:0.68217057"
         offset="0.75" />
      <stop
         id="stop3409"
         style="stop-color:#e4870a;stop-opacity:1"
         offset="1" />
    </linearGradient>
    <radialGradient
       cx="53.542297"
       cy="24.639818"
       r="2.1428571"
       fx="53.542297"
       fy="24.639818"
       id="radialGradient4047"
       xlink:href="#linearGradient3698"
       gradientUnits="userSpaceOnUse" />
    <linearGradient
       id="linearGradient3698">
      <stop
         id="stop3700"
         style="stop-color:#f0a801;stop-opacity:0.18604651"
         offset="0" />
      <stop
         id="stop3711"
         style="stop-color:#f0a801;stop-opacity:0.35658914"
         offset="0.5" />
      <stop
         id="stop4395"
         style="stop-color:#e8a301;stop-opacity:0.83720928"
         offset="0.75" />
      <stop
         id="stop3703"
         style="stop-color:#e09201;stop-opacity:1"
         offset="1" />
    </linearGradient>
    <radialGradient
       cx="62.678574"
       cy="37.607143"
       r="5.3571429"
       fx="62.678574"
       fy="37.607143"
       id="radialGradient4049"
       xlink:href="#linearGradient3698"
       gradientUnits="userSpaceOnUse" />
    <linearGradient
       id="linearGradient3418">
      <stop
         id="stop3420"
         style="stop-color:#f0a801;stop-opacity:0.18604651"
         offset="0" />
      <stop
         id="stop3422"
         style="stop-color:#f0a801;stop-opacity:0.35658914"
         offset="0.5" />
      <stop
         id="stop3424"
         style="stop-color:#e8a301;stop-opacity:0.83720928"
         offset="0.75" />
      <stop
         id="stop3426"
         style="stop-color:#e09201;stop-opacity:1"
         offset="1" />
    </linearGradient>
    <radialGradient
       cx="30.529381"
       cy="62.282928"
       r="6.6071429"
       fx="30.529381"
       fy="62.282928"
       id="radialGradient4051"
       xlink:href="#linearGradient3698"
       gradientUnits="userSpaceOnUse" />
    <linearGradient
       id="linearGradient3429">
      <stop
         id="stop3431"
         style="stop-color:#f0a801;stop-opacity:0.18604651"
         offset="0" />
      <stop
         id="stop3433"
         style="stop-color:#f0a801;stop-opacity:0.35658914"
         offset="0.5" />
      <stop
         id="stop3435"
         style="stop-color:#e8a301;stop-opacity:0.83720928"
         offset="0.75" />
      <stop
         id="stop3437"
         style="stop-color:#e09201;stop-opacity:1"
         offset="1" />
    </linearGradient>
    <radialGradient
       cx="65.730751"
       cy="71.637032"
       r="8.2142859"
       fx="65.730751"
       fy="71.637032"
       id="radialGradient4053"
       xlink:href="#linearGradient3853"
       gradientUnits="userSpaceOnUse" />
    <linearGradient
       id="linearGradient3440">
      <stop
         id="stop3442"
         style="stop-color:#e88d01;stop-opacity:0.18431373"
         offset="0" />
      <stop
         id="stop3444"
         style="stop-color:#e58907;stop-opacity:0.4108527"
         offset="0.5" />
      <stop
         id="stop3446"
         style="stop-color:#e48a0a;stop-opacity:0.68217057"
         offset="0.75" />
      <stop
         id="stop3448"
         style="stop-color:#e4870a;stop-opacity:1"
         offset="1" />
    </linearGradient>
    <radialGradient
       cx="48.795593"
       cy="56.425529"
       r="3.3928571"
       fx="48.795593"
       fy="56.425529"
       id="radialGradient4055"
       xlink:href="#linearGradient3698"
       gradientUnits="userSpaceOnUse" />
    <linearGradient
       id="linearGradient3451">
      <stop
         id="stop3453"
         style="stop-color:#f0a801;stop-opacity:0.18604651"
         offset="0" />
      <stop
         id="stop3455"
         style="stop-color:#f0a801;stop-opacity:0.35658914"
         offset="0.5" />
      <stop
         id="stop3457"
         style="stop-color:#e8a301;stop-opacity:0.83720928"
         offset="0.75" />
      <stop
         id="stop3459"
         style="stop-color:#e09201;stop-opacity:1"
         offset="1" />
    </linearGradient>
    <radialGradient
       cx="12.211246"
       cy="77.45517"
       r="7.8571429"
       fx="12.211246"
       fy="77.45517"
       id="radialGradient4125"
       xlink:href="#linearGradient3853"
       gradientUnits="userSpaceOnUse" />
    <linearGradient
       id="linearGradient3462">
      <stop
         id="stop3464"
         style="stop-color:#e88d01;stop-opacity:0.18431373"
         offset="0" />
      <stop
         id="stop3466"
         style="stop-color:#e58907;stop-opacity:0.4108527"
         offset="0.5" />
      <stop
         id="stop3468"
         style="stop-color:#e48a0a;stop-opacity:0.68217057"
         offset="0.75" />
      <stop
         id="stop3470"
         style="stop-color:#e4870a;stop-opacity:1"
         offset="1" />
    </linearGradient>
    <radialGradient
       cx="33.899441"
       cy="87.035973"
       r="4.1071429"
       fx="33.899441"
       fy="87.035973"
       id="radialGradient4059"
       xlink:href="#linearGradient3698"
       gradientUnits="userSpaceOnUse" />
    <linearGradient
       id="linearGradient3473">
      <stop
         id="stop3475"
         style="stop-color:#f0a801;stop-opacity:0.18604651"
         offset="0" />
      <stop
         id="stop3477"
         style="stop-color:#f0a801;stop-opacity:0.35658914"
         offset="0.5" />
      <stop
         id="stop3479"
         style="stop-color:#e8a301;stop-opacity:0.83720928"
         offset="0.75" />
      <stop
         id="stop3481"
         style="stop-color:#e09201;stop-opacity:1"
         offset="1" />
    </linearGradient>
    <radialGradient
       cx="50.863728"
       cy="86.75354"
       r="5.3571429"
       fx="50.863728"
       fy="86.75354"
       id="radialGradient4061"
       xlink:href="#linearGradient3698"
       gradientUnits="userSpaceOnUse" />
    <linearGradient
       id="linearGradient3484">
      <stop
         id="stop3486"
         style="stop-color:#f0a801;stop-opacity:0.18604651"
         offset="0" />
      <stop
         id="stop3488"
         style="stop-color:#f0a801;stop-opacity:0.35658914"
         offset="0.5" />
      <stop
         id="stop3490"
         style="stop-color:#e8a301;stop-opacity:0.83720928"
         offset="0.75" />
      <stop
         id="stop3492"
         style="stop-color:#e09201;stop-opacity:1"
         offset="1" />
    </linearGradient>
    <radialGradient
       cx="73.392853"
       cy="13.678572"
       r="3.5714285"
       fx="73.392853"
       fy="13.678572"
       id="radialGradient4063"
       xlink:href="#linearGradient3853"
       gradientUnits="userSpaceOnUse" />
    <linearGradient
       id="linearGradient3495">
      <stop
         id="stop3497"
         style="stop-color:#e88d01;stop-opacity:0.18431373"
         offset="0" />
      <stop
         id="stop3499"
         style="stop-color:#e58907;stop-opacity:0.4108527"
         offset="0.5" />
      <stop
         id="stop3501"
         style="stop-color:#e48a0a;stop-opacity:0.68217057"
         offset="0.75" />
      <stop
         id="stop3503"
         style="stop-color:#e4870a;stop-opacity:1"
         offset="1" />
    </linearGradient>
    <radialGradient
       cx="80.714287"
       cy="25.642857"
       r="9.2857141"
       fx="80.714287"
       fy="25.642857"
       id="radialGradient4065"
       xlink:href="#linearGradient3698"
       gradientUnits="userSpaceOnUse" />
    <linearGradient
       id="linearGradient3506">
      <stop
         id="stop3508"
         style="stop-color:#f0a801;stop-opacity:0.18604651"
         offset="0" />
      <stop
         id="stop3510"
         style="stop-color:#f0a801;stop-opacity:0.35658914"
         offset="0.5" />
      <stop
         id="stop3512"
         style="stop-color:#e8a301;stop-opacity:0.83720928"
         offset="0.75" />
      <stop
         id="stop3514"
         style="stop-color:#e09201;stop-opacity:1"
         offset="1" />
    </linearGradient>
    <radialGradient
       cx="78.237083"
       cy="79.565102"
       r="2.1428571"
       fx="78.237083"
       fy="79.565102"
       id="radialGradient4105"
       xlink:href="#linearGradient3853"
       gradientUnits="userSpaceOnUse" />
    <linearGradient
       id="linearGradient3517">
      <stop
         id="stop3519"
         style="stop-color:#e88d01;stop-opacity:0.18431373"
         offset="0" />
      <stop
         id="stop3521"
         style="stop-color:#e58907;stop-opacity:0.4108527"
         offset="0.5" />
      <stop
         id="stop3523"
         style="stop-color:#e48a0a;stop-opacity:0.68217057"
         offset="0.75" />
      <stop
         id="stop3525"
         style="stop-color:#e4870a;stop-opacity:1"
         offset="1" />
    </linearGradient>
    <radialGradient
       cx="82.597511"
       cy="69.737335"
       r="4.8214288"
       fx="82.597511"
       fy="69.737335"
       id="radialGradient4102"
       xlink:href="#linearGradient3698"
       gradientUnits="userSpaceOnUse" />
    <linearGradient
       id="linearGradient3528">
      <stop
         id="stop3530"
         style="stop-color:#f0a801;stop-opacity:0.18604651"
         offset="0" />
      <stop
         id="stop3532"
         style="stop-color:#f0a801;stop-opacity:0.35658914"
         offset="0.5" />
      <stop
         id="stop3534"
         style="stop-color:#e8a301;stop-opacity:0.83720928"
         offset="0.75" />
      <stop
         id="stop3536"
         style="stop-color:#e09201;stop-opacity:1"
         offset="1" />
    </linearGradient>
    <radialGradient
       cx="12.649444"
       cy="34.282673"
       r="3.2142856"
       fx="12.649444"
       fy="34.282673"
       id="radialGradient4121"
       xlink:href="#linearGradient3698"
       gradientUnits="userSpaceOnUse" />
    <linearGradient
       id="linearGradient3539">
      <stop
         id="stop3541"
         style="stop-color:#f0a801;stop-opacity:0.18604651"
         offset="0" />
      <stop
         id="stop3543"
         style="stop-color:#f0a801;stop-opacity:0.35658914"
         offset="0.5" />
      <stop
         id="stop3545"
         style="stop-color:#e8a301;stop-opacity:0.83720928"
         offset="0.75" />
      <stop
         id="stop3547"
         style="stop-color:#e09201;stop-opacity:1"
         offset="1" />
    </linearGradient>
    <radialGradient
       cx="34.68845"
       cy="5.0425529"
       r="6.0714288"
       fx="34.68845"
       fy="5.0425529"
       id="radialGradient4073"
       xlink:href="#linearGradient3698"
       gradientUnits="userSpaceOnUse" />
    <linearGradient
       id="linearGradient3550">
      <stop
         id="stop3552"
         style="stop-color:#f0a801;stop-opacity:0.18604651"
         offset="0" />
      <stop
         id="stop3554"
         style="stop-color:#f0a801;stop-opacity:0.35658914"
         offset="0.5" />
      <stop
         id="stop3556"
         style="stop-color:#e8a301;stop-opacity:0.83720928"
         offset="0.75" />
      <stop
         id="stop3558"
         style="stop-color:#e09201;stop-opacity:1"
         offset="1" />
    </linearGradient>
    <radialGradient
       cx="3.0230496"
       cy="17.705017"
       r="7.1428571"
       fx="3.0230496"
       fy="17.705017"
       id="radialGradient4119"
       xlink:href="#linearGradient3698"
       gradientUnits="userSpaceOnUse"
       gradientTransform="matrix(1,0,0,0.97500003,0,0.37767813)" />
    <linearGradient
       id="linearGradient3561">
      <stop
         id="stop3563"
         style="stop-color:#f0a801;stop-opacity:0.18604651"
         offset="0" />
      <stop
         id="stop3565"
         style="stop-color:#f0a801;stop-opacity:0.35658914"
         offset="0.5" />
      <stop
         id="stop3567"
         style="stop-color:#e8a301;stop-opacity:0.83720928"
         offset="0.75" />
      <stop
         id="stop3569"
         style="stop-color:#e09201;stop-opacity:1"
         offset="1" />
    </linearGradient>
    <radialGradient
       cx="60.238728"
       cy="7.8686676"
       r="2.7678571"
       fx="60.238728"
       fy="7.8686676"
       id="radialGradient4077"
       xlink:href="#linearGradient3698"
       gradientUnits="userSpaceOnUse" />
    <linearGradient
       id="linearGradient3572">
      <stop
         id="stop3574"
         style="stop-color:#f0a801;stop-opacity:0.18604651"
         offset="0" />
      <stop
         id="stop3576"
         style="stop-color:#f0a801;stop-opacity:0.35658914"
         offset="0.5" />
      <stop
         id="stop3578"
         style="stop-color:#e8a301;stop-opacity:0.83720928"
         offset="0.75" />
      <stop
         id="stop3580"
         style="stop-color:#e09201;stop-opacity:1"
         offset="1" />
    </linearGradient>
    <radialGradient
       inkscape:collect="always"
       xlink:href="#linearGradient3737-0"
       id="radialGradient3327"
       gradientUnits="userSpaceOnUse"
       gradientTransform="matrix(1.1573129,0,0,0.99590774,-109.74135,953.37319)"
       cx="48"
       cy="90.171875"
       fx="48"
       fy="90.171875"
       r="42" />
    <linearGradient
       id="linearGradient3737-0">
      <stop
         id="stop3739-3-7"
         style="stop-color:#ffffff;stop-opacity:1"
         offset="0" />
      <stop
         id="stop3741-0"
         style="stop-color:#ffffff;stop-opacity:0"
         offset="1" />
    </linearGradient>
    <linearGradient
       inkscape:collect="always"
       xlink:href="#linearGradient3737-0"
       id="linearGradient3330"
       gradientUnits="userSpaceOnUse"
       x1="36.357143"
       y1="6"
       x2="36.357143"
       y2="63.893143"
       gradientTransform="translate(-102.19033,953.17606)" />
    <linearGradient
       id="linearGradient3587">
      <stop
         id="stop3589"
         style="stop-color:#ffffff;stop-opacity:1"
         offset="0" />
      <stop
         id="stop3591"
         style="stop-color:#ffffff;stop-opacity:0"
         offset="1" />
    </linearGradient>
    <linearGradient
       inkscape:collect="always"
       xlink:href="#linearGradient2841"
       id="linearGradient3333"
       gradientUnits="userSpaceOnUse"
       x1="48"
       y1="90"
       x2="48"
       y2="5.9877172"
       gradientTransform="translate(-30.101695,23.186441)" />
    <linearGradient
       id="linearGradient2841">
      <stop
         id="stop2843"
         style="stop-color:#f0bf39;stop-opacity:1"
         offset="0" />
      <stop
         id="stop2845"
         style="stop-color:#f8e699;stop-opacity:1"
         offset="1" />
    </linearGradient>
    <linearGradient
       y2="5.9877172"
       x2="48"
       y1="90"
       x1="48"
       gradientTransform="translate(-102.19033,953.17606)"
       gradientUnits="userSpaceOnUse"
       id="linearGradient3639"
       xlink:href="#linearGradient2841"
       inkscape:collect="always" />
    <linearGradient
       x1="90"
       y1="88"
       x2="48"
       y2="88"
       id="linearGradient3890"
       xlink:href="#linearGradient3892"
       gradientUnits="userSpaceOnUse"
       spreadMethod="reflect" />
    <linearGradient
       id="linearGradient3892">
      <stop
         id="stop3894"
         style="stop-color:#000000;stop-opacity:0.47058824"
         offset="0" />
      <stop
         id="stop3896"
         style="stop-color:#000000;stop-opacity:0.39215687"
         offset="0.11780351" />
      <stop
         id="stop3898"
         style="stop-color:#000000;stop-opacity:0.29411766"
         offset="0.23809524" />
      <stop
         id="stop3900"
         style="stop-color:#000000;stop-opacity:0.15686275"
         offset="1" />
    </linearGradient>
    <linearGradient
       x1="6"
       y1="115"
       x2="24"
       y2="115"
       id="linearGradient3884"
       xlink:href="#linearGradient3864"
       gradientUnits="userSpaceOnUse"
       gradientTransform="matrix(-1,0,0,1,96,-30)" />
    <linearGradient
       id="linearGradient3864">
      <stop
         id="stop3866"
         style="stop-color:#ffffff;stop-opacity:0.07843138"
         offset="0" />
      <stop
         id="stop3872"
         style="stop-color:#ffffff;stop-opacity:0.3137255"
         offset="0.25" />
      <stop
         id="stop3874"
         style="stop-color:#ffffff;stop-opacity:0"
         offset="0.60000002" />
      <stop
         id="stop3868"
         style="stop-color:#ffffff;stop-opacity:0"
         offset="1" />
    </linearGradient>
    <linearGradient
       x1="6"
       y1="115"
       x2="24"
       y2="115"
       id="linearGradient3886"
       xlink:href="#linearGradient3864"
       gradientUnits="userSpaceOnUse"
       gradientTransform="translate(0,-30)" />
    <linearGradient
       id="linearGradient3664">
      <stop
         id="stop3666"
         style="stop-color:#ffffff;stop-opacity:0.07843138"
         offset="0" />
      <stop
         id="stop3668"
         style="stop-color:#ffffff;stop-opacity:0.3137255"
         offset="0.25" />
      <stop
         id="stop3670"
         style="stop-color:#ffffff;stop-opacity:0"
         offset="0.60000002" />
      <stop
         id="stop3672"
         style="stop-color:#ffffff;stop-opacity:0"
         offset="1" />
    </linearGradient>
    <linearGradient
       x1="90"
       y1="88"
       x2="48"
       y2="88"
       id="linearGradient3855"
       xlink:href="#linearGradient4482"
       gradientUnits="userSpaceOnUse"
       gradientTransform="translate(0,40)"
       spreadMethod="reflect" />
    <linearGradient
       id="linearGradient4482">
      <stop
         id="stop4484"
         style="stop-color:#ffffff;stop-opacity:0.12977099"
         offset="0" />
      <stop
         id="stop4486"
         style="stop-color:#424242;stop-opacity:0.28244275"
         offset="0.11780351" />
      <stop
         id="stop4488"
         style="stop-color:#2f2f2f;stop-opacity:0.30534351"
         offset="0.23809524" />
      <stop
         id="stop4490"
         style="stop-color:#000000;stop-opacity:0.35114503"
         offset="1" />
    </linearGradient>
    <linearGradient
       id="linearGradient4384-0">
      <stop
         id="stop4386-0"
         style="stop-color:#ffffff;stop-opacity:1"
         offset="0" />
      <stop
         id="stop4388-9"
         style="stop-color:#ffffff;stop-opacity:0"
         offset="1" />
    </linearGradient>
    <linearGradient
       x1="90"
       y1="88"
       x2="48"
       y2="88"
       id="linearGradient3890-1"
       xlink:href="#linearGradient3892-8"
       gradientUnits="userSpaceOnUse"
       spreadMethod="reflect" />
    <linearGradient
       id="linearGradient3892-8">
      <stop
         id="stop3894-9"
         style="stop-color:#000000;stop-opacity:0.47058824"
         offset="0" />
      <stop
         id="stop3896-2"
         style="stop-color:#000000;stop-opacity:0.39215687"
         offset="0.11780351" />
      <stop
         id="stop3898-6"
         style="stop-color:#000000;stop-opacity:0.29411766"
         offset="0.23809524" />
      <stop
         id="stop3900-7"
         style="stop-color:#000000;stop-opacity:0.15686275"
         offset="1" />
    </linearGradient>
    <linearGradient
       x1="6"
       y1="115"
       x2="24"
       y2="115"
       id="linearGradient3884-9"
       xlink:href="#linearGradient3864-6"
       gradientUnits="userSpaceOnUse"
       gradientTransform="matrix(-1,0,0,1,96,-30)" />
    <linearGradient
       id="linearGradient3864-6">
      <stop
         id="stop3866-1"
         style="stop-color:#ffffff;stop-opacity:0.07843138"
         offset="0" />
      <stop
         id="stop3872-2"
         style="stop-color:#ffffff;stop-opacity:0.3137255"
         offset="0.25" />
      <stop
         id="stop3874-1"
         style="stop-color:#ffffff;stop-opacity:0"
         offset="0.60000002" />
      <stop
         id="stop3868-8"
         style="stop-color:#ffffff;stop-opacity:0"
         offset="1" />
    </linearGradient>
    <linearGradient
       x1="6"
       y1="115"
       x2="24"
       y2="115"
       id="linearGradient3886-2"
       xlink:href="#linearGradient3864-6"
       gradientUnits="userSpaceOnUse"
       gradientTransform="translate(0,-30)" />
    <linearGradient
       id="linearGradient3664-6">
      <stop
         id="stop3666-5"
         style="stop-color:#ffffff;stop-opacity:0.07843138"
         offset="0" />
      <stop
         id="stop3668-8"
         style="stop-color:#ffffff;stop-opacity:0.3137255"
         offset="0.25" />
      <stop
         id="stop3670-6"
         style="stop-color:#ffffff;stop-opacity:0"
         offset="0.60000002" />
      <stop
         id="stop3672-6"
         style="stop-color:#ffffff;stop-opacity:0"
         offset="1" />
    </linearGradient>
    <linearGradient
       x1="90"
       y1="88"
       x2="48"
       y2="88"
       id="linearGradient3855-3"
       xlink:href="#linearGradient4482-0"
       gradientUnits="userSpaceOnUse"
       gradientTransform="translate(0,40)"
       spreadMethod="reflect" />
    <linearGradient
       id="linearGradient4482-0">
      <stop
         id="stop4484-5"
         style="stop-color:#ffffff;stop-opacity:0.12977099"
         offset="0" />
      <stop
         id="stop4486-2"
         style="stop-color:#424242;stop-opacity:0.28244275"
         offset="0.11780351" />
      <stop
         id="stop4488-6"
         style="stop-color:#2f2f2f;stop-opacity:0.30534351"
         offset="0.23809524" />
      <stop
         id="stop4490-7"
         style="stop-color:#000000;stop-opacity:0.35114503"
         offset="1" />
    </linearGradient>
    <linearGradient
       id="linearGradient4384-3">
      <stop
         id="stop4386-9"
         style="stop-color:#ffffff;stop-opacity:1"
         offset="0" />
      <stop
         id="stop4388-3"
         style="stop-color:#ffffff;stop-opacity:0"
         offset="1" />
    </linearGradient>
    <linearGradient
       inkscape:collect="always"
       xlink:href="#linearGradient3059"
       id="linearGradient3066"
       x1="10.341395"
       y1="1022.5382"
       x2="73.940445"
       y2="1005.7335"
       gradientUnits="userSpaceOnUse"
       gradientTransform="translate(-215.80251,-2000.541)" />
    <linearGradient
       inkscape:collect="always"
       id="linearGradient3059">
      <stop
         style="stop-color:#1a1a1a;stop-opacity:1"
         offset="0"
         id="stop3061" />
      <stop
         style="stop-color:#333333;stop-opacity:1"
         offset="1"
         id="stop3064" />
    </linearGradient>
    <linearGradient
       inkscape:collect="always"
       xlink:href="#linearGradient3070"
       id="linearGradient3068"
       x1="90.320015"
       y1="994.79559"
       x2="42.581512"
       y2="994.79559"
       gradientUnits="userSpaceOnUse"
       gradientTransform="translate(-1044.1788,-836.55972)" />
    <linearGradient
       id="linearGradient3070">
      <stop
         id="stop3072"
         offset="0"
         style="stop-color:#989898;stop-opacity:1;" />
      <stop
         id="stop3074"
         offset="1"
         style="stop-color:#f7f3f7;stop-opacity:1" />
    </linearGradient>
    <linearGradient
       inkscape:collect="always"
       xlink:href="#linearGradient8518"
       id="linearGradient3538"
       gradientUnits="userSpaceOnUse"
       gradientTransform="translate(0,-956.36218)"
       x1="53.071697"
       y1="989.14703"
       x2="18.223532"
       y2="1044.4631" />
    <linearGradient
       inkscape:collect="always"
       xlink:href="#linearGradient8530"
       id="linearGradient3541"
       gradientUnits="userSpaceOnUse"
       gradientTransform="translate(0,-956.36218)"
       x1="60.043682"
       y1="1043.0271"
       x2="80.682686"
       y2="966.00134" />
    <linearGradient
       inkscape:collect="always"
       xlink:href="#linearGradient3515"
       id="linearGradient3567"
       gradientUnits="userSpaceOnUse"
       x1="71.366035"
       y1="1013.6"
       x2="66.210945"
       y2="993.7287" />
    <linearGradient
       inkscape:collect="always"
       xlink:href="#linearGradient3424"
       id="linearGradient3570"
       gradientUnits="userSpaceOnUse"
       x1="81.690567"
       y1="979.90936"
       x2="16.120754"
       y2="1034.249" />
  </defs>
  <sodipodi:namedview
     id="base"
     pagecolor="#ffffff"
     bordercolor="#666666"
     borderopacity="1.0"
     inkscape:pageopacity="0.0"
     inkscape:pageshadow="2"
     inkscape:zoom="5.5208332"
     inkscape:cx="64.501062"
     inkscape:cy="65.799891"
     inkscape:document-units="px"
     inkscape:current-layer="layer1"
     showgrid="false"
     inkscape:window-width="1366"
     inkscape:window-height="709"
     inkscape:window-x="0"
     inkscape:window-y="28"
     inkscape:window-maximized="1"
     showguides="true"
     inkscape:guide-bbox="true" />
  <metadata
     id="metadata7">
    <rdf:RDF>
      <cc:Work
         rdf:about="">
        <dc:format>image/svg+xml</dc:format>
        <dc:type
           rdf:resource="http://purl.org/dc/dcmitype/StillImage" />
        <dc:title></dc:title>
      </cc:Work>
    </rdf:RDF>
  </metadata>
  <g
     inkscape:label="Layer 1"
     inkscape:groupmode="layer"
     id="layer1"
     transform="translate(0,-956.36218)">
    <path
       style="opacity:0.05;fill:#000000;fill-opacity:1;stroke:none"
       d="M 14.09375 4.5 C 8.2239868 4.5 3.5 9.22397 3.5 15.09375 L 3.5 28.6875 L 3.5 31 L 3.5 41.8125 C 3.5 42.490723 4.3463696 43.026635 5.5 43.1875 L 5.5 55 L 3.5 55 L 3.5 82.90625 C 3.5 88.77585 8.2239868 93.5 14.09375 93.5 L 81.90625 93.5 C 87.776013 93.5 92.5 88.77585 92.5 82.90625 L 92.5 45.40625 L 90.46875 45.40625 L 90.46875 40.6875 L 92.5 40.6875 L 92.5 26.03125 C 92.5 24.02685 91.804606 22.24211 90.3125 20.75 L 75.78125 6.21875 C 74.867711 5.26118 73.361955 4.5 71.03125 4.5 L 14.09375 4.5 z "
       transform="translate(0,956.36218)"
       id="path3450" />
    <path
       style="opacity:0.05;fill:#000000;fill-opacity:1;stroke:none"
       d="M 14.46875 5 C 8.6649443 5 4 9.66492 4 15.46875 L 4 29.125 L 4 30.5 L 4 41.375 C 4 42.072188 4.8720234 42.636717 6 42.71875 L 6 54.5 L 4 54.5 L 4 82.53125 C 4 88.33485 8.6649443 93 14.46875 93 L 81.53125 93 C 87.335056 93 92 88.33485 92 82.53125 L 92 45 L 90 45 L 90 40.25 L 92 40.25 L 92 26.3125 C 92 24.33063 91.319089 22.53785 89.84375 21.0625 L 75.46875 6.6875 C 74.565477 5.74069 73.085766 5 70.78125 5 L 14.46875 5 z "
       transform="translate(0,956.36218)"
       id="path3448" />
    <path
       style="opacity:0.05;fill:#000000;fill-opacity:1;stroke:none"
       d="M 14.84375 5.5 C 9.1058914 5.5 4.5 10.10587 4.5 15.84375 L 4.5 29.53125 L 4.5 30 L 4.5 40.96875 C 4.5 41.672387 5.3332515 42.25 6.375 42.25 L 6.5 42.25 L 6.5 54 L 4.5 54 L 4.5 82.15625 C 4.5 87.89395 9.1058914 92.5 14.84375 92.5 L 81.15625 92.5 C 86.894109 92.5 91.5 87.89395 91.5 82.15625 L 91.5 44.5625 L 89.59375 44.5625 L 89.59375 39.8125 L 91.5 39.8125 L 91.5 26.5625 C 91.5 24.60315 90.802325 22.83359 89.34375 21.375 L 75.15625 7.1875 C 74.263241 6.25145 72.778331 5.5 70.5 5.5 L 14.84375 5.5 z "
       transform="translate(0,956.36218)"
       id="path3446" />
    <path
       style="opacity:0.1;fill:#000000;fill-opacity:1;stroke:none"
       d="M 15.25 6 C 9.5780942 6 5 10.57808 5 16.25 L 5 29.5 L 5.125 29.5 C 5.0584291 29.634262 5 29.784013 5 29.9375 L 5 40.5625 C 5 41.215877 5.677567 41.75 6.5 41.75 L 7 41.75 L 7 53.5 L 5 53.5 L 5 81.75 C 5 87.4218 9.5780942 92 15.25 92 L 80.75 92 C 86.421906 92 91 87.4218 91 81.75 L 91 44.1875 L 89.1875 44.1875 L 89.1875 39.4375 L 91 39.4375 L 91 26.8125 C 91 24.87567 90.31681 23.12932 88.875 21.6875 L 74.84375 7.65625 C 73.961006 6.73096 72.502143 6 70.25 6 L 15.25 6 z "
       transform="translate(0,956.36218)"
       id="path3444" />
    <path
       style="opacity:0.1;fill:#000000;fill-opacity:1;stroke:none"
       d="M 15.625 6.5 C 10.019047 6.5 5.5 11.01904 5.5 16.625 L 5.5 29 L 7.5 29 L 7.5 29.3125 C 7.3940049 29.278262 7.2739315 29.25 7.15625 29.25 L 6.59375 29.25 C 5.9906324 29.25 5.5 29.740632 5.5 30.34375 L 5.5 40.15625 C 5.5 40.759368 5.9906324 41.25 6.59375 41.25 L 7.15625 41.25 C 7.2739315 41.25 7.3940049 41.221738 7.5 41.1875 L 7.5 53 L 5.5 53 L 5.5 81.375 C 5.5 86.9809 10.019047 91.5 15.625 91.5 L 80.375 91.5 C 85.980953 91.5 90.5 86.9809 90.5 81.375 L 90.5 43.71875 L 88.71875 43.71875 L 88.71875 38.96875 L 90.5 38.96875 L 90.5 27.0625 C 90.5 25.14819 89.831295 23.4563 88.40625 22.03125 L 74.53125 8.125 C 73.658771 7.21047 72.225955 6.5 70 6.5 L 15.625 6.5 z "
       transform="translate(0,956.36218)"
       id="path3442" />
    <path
       style="opacity:0.3;fill:#000000;fill-opacity:1;stroke:none"
       d="M 16 7 C 10.46 7 6 11.46 6 17 L 6 28.5 L 7.5 28.5 L 7.5 28.90625 C 7.3855506 28.817553 7.2529654 28.75 7.09375 28.75 L 6.65625 28.75 C 6.2866427 28.75 6 29.020219 6 29.375 L 6 40.125 C 6 40.479781 6.2866427 40.75 6.65625 40.75 L 7.09375 40.75 C 7.2529654 40.75 7.3855506 40.682447 7.5 40.59375 L 7.5 52.5 L 6 52.5 L 6 81 C 6 86.54 10.46 91 16 91 L 80 91 C 85.54 91 90 86.54 90 81 L 90 43.28125 L 88.21875 43.28125 L 88.21875 38.53125 L 90 38.53125 L 90 27.34375 C 90 25.45196 89.34578 23.75203 87.9375 22.34375 L 74.21875 8.625 C 73.356536 7.72123 71.949767 7 69.75 7 L 16 7 z "
       transform="translate(0,956.36218)"
       id="path3435" />
    <path
       style="fill:url(#linearGradient3541);fill-opacity:1;stroke:none"
       d="M 16 6 C 10.46 6 6 10.46 6 16 L 6 28 L 8 28 L 8 52 L 6 52 L 6 80 C 6 85.54 10.46 90 16 90 L 80 90 C 85.54 90 90 85.54 90 80 L 90 42.71875 L 87.625 42.71875 L 87.625 37.96875 L 90 37.96875 L 90 26.34375 C 90 24.451954 89.34578 22.75203 87.9375 21.34375 L 74.21875 7.625 C 73.356536 6.7212246 71.949767 6 69.75 6 L 16 6 z "
       transform="translate(0,956.36218)"
       id="rect3036" />
    <rect
       y="984.61218"
       x="6"
       height="12"
       width="1.75"
       id="rect3524"
       style="fill:#0f0f0f;fill-opacity:1;stroke:none"
       rx="0.66716111"
       ry="0.64039862" />
    <path
       style="fill:url(#linearGradient3538);fill-opacity:1;stroke:none"
       d="M 16.75 7 C 11.341905 7 7 11.341905 7 16.75 L 7 28 L 8 28 L 8 52 L 7 52 L 7 79.25 C 7 84.658095 11.341905 89 16.75 89 L 79.25 89 C 84.658095 89 89 84.658095 89 79.25 L 89 42.71875 L 87.625 42.71875 L 87.625 37.96875 L 89 37.96875 L 89 26.78125 C 89 25.104383 88.170476 23.433699 86.75 21.96875 L 73.59375 8.8125 C 72.37626 7.5950104 70.958445 7 68.9375 7 L 16.75 7 z "
       transform="translate(0,956.36218)"
       id="rect3034" />
    <rect
       ry="2.508086"
       rx="2.508086"
       y="978.69818"
       x="12"
       height="58"
       width="72"
       id="rect3410"
       style="fill:url(#linearGradient3570);fill-opacity:1;stroke:none" />
    <rect
       style="fill:url(#linearGradient3567);fill-opacity:1;stroke:none"
       id="rect3408"
       width="70"
       height="56"
       x="13"
       y="979.69806"
       rx="5.4339623"
       ry="5.4339623" />
    <g
       style="font-size:0.65917605000000001px;font-style:normal;font-variant:normal;font-weight:normal;font-stretch:normal;text-align:start;line-height:125%;letter-spacing:0px;word-spacing:0px;text-anchor:start;fill:#ffffff;fill-opacity:1;stroke:none;font-family:Cantarell;-inkscape-font-specification:Cantarell"
       id="text3396">
      <path
         d="m 17.25846,986.01705 0.536868,0 0,0.72613 c 0.187967,-0.26779 0.381084,-0.46348 0.579354,-0.58708 0.272938,-0.16479 0.56004,-0.24719 0.861306,-0.24719 0.203415,0 0.396533,0.0399 0.579354,0.11973 0.182815,0.0798 0.332159,0.18668 0.448034,0.32057 0.115867,0.13133 0.216288,0.32058 0.301264,0.56777 0.180239,-0.32958 0.405543,-0.57935 0.675913,-0.7493 0.27036,-0.17251 0.561324,-0.25877 0.872893,-0.25877 0.290959,0 0.547162,0.0734 0.76861,0.22015 0.22401,0.14677 0.390092,0.35148 0.498244,0.61412 0.10814,0.26264 0.162213,0.6566 0.162219,1.18188 l 0,2.29424 -0.552317,0 0,-2.29424 c -6e-6,-0.45061 -0.03219,-0.7596 -0.09656,-0.92697 -0.06438,-0.16994 -0.1751,-0.30641 -0.332163,-0.40941 -0.1545,-0.10299 -0.339893,-0.15449 -0.55618,-0.15449 -0.262645,0 -0.503399,0.0773 -0.722261,0.23174 -0.216297,0.1545 -0.374653,0.36049 -0.47507,0.61798 -0.100426,0.25749 -0.150637,0.6875 -0.150633,1.29002 l 0,1.64537 -0.536868,0 0,-2.15134 c -3e-6,-0.50725 -0.03219,-0.851 -0.09656,-1.03125 -0.0618,-0.18281 -0.171234,-0.32829 -0.3283,-0.43644 -0.157072,-0.11072 -0.343753,-0.16608 -0.560042,-0.16608 -0.249769,0 -0.484085,0.076 -0.70295,0.22788 -0.216294,0.14934 -0.377225,0.35147 -0.482795,0.60639 -0.102997,0.25491 -0.154495,0.64501 -0.154494,1.17029 l 0,1.78055 -0.536868,0 0,-4.20225"
         style="font-size:7.91011332999999972px;font-family:Century Gothic;-inkscape-font-specification:Century Gothic;fill:#ffffff"
         id="path3634" />
      <path
         d="m 24.867309,984.28671 c 0.123595,10e-6 0.229166,0.0438 0.316714,0.13132 0.08754,0.0876 0.131319,0.19313 0.13132,0.31672 -10e-7,0.12102 -0.04378,0.22531 -0.13132,0.31285 -0.08755,0.0875 -0.193119,0.13132 -0.316714,0.13132 -0.121021,0 -0.225305,-0.0438 -0.312851,-0.13132 -0.08755,-0.0875 -0.131321,-0.19183 -0.13132,-0.31285 -1e-6,-0.12359 0.04377,-0.22916 0.13132,-0.31672 0.08755,-0.0875 0.19183,-0.13131 0.312851,-0.13132 m -0.270365,1.73034 0.544593,0 0,4.20225 -0.544593,0 0,-4.20225"
         style="font-size:7.91011332999999972px;font-family:Century Gothic;-inkscape-font-specification:Century Gothic;fill:#ffffff"
         id="path3636" />
      <path
         d="m 30.363448,986.88994 -0.428722,0.26651 c -0.370791,-0.49181 -0.87676,-0.73771 -1.517908,-0.73771 -0.512409,0 -0.938555,0.16479 -1.278441,0.49438 -0.337314,0.32959 -0.50597,0.72999 -0.505969,1.20119 -1e-6,0.30642 0.07725,0.59481 0.231741,0.86517 0.157068,0.27037 0.370785,0.48022 0.641152,0.62957 0.272938,0.14934 0.578064,0.22401 0.915379,0.22401 0.617975,0 1.122656,-0.2459 1.514046,-0.73771 l 0.428722,0.28195 c -0.200848,0.30127 -0.471213,0.53559 -0.811096,0.70295 -0.337316,0.1648 -0.722265,0.2472 -1.154846,0.2472 -0.664328,0 -1.215357,-0.21115 -1.65309,-0.63343 -0.437735,-0.42229 -0.656601,-0.93598 -0.656601,-1.54108 0,-0.40684 0.101708,-0.78406 0.305126,-1.13167 0.205992,-0.35019 0.487944,-0.62313 0.845857,-0.81883 0.35791,-0.19568 0.758308,-0.29353 1.201194,-0.29353 0.278087,0 0.545877,0.0425 0.803371,0.12745 0.260062,0.085 0.480216,0.1957 0.660464,0.33217 0.180239,0.13647 0.333446,0.31028 0.459621,0.52141"
         style="font-size:7.91011332999999972px;font-family:Century Gothic;-inkscape-font-specification:Century Gothic;fill:#ffffff"
         id="path3638" />
      <path
         d="m 31.193855,986.01705 0.552318,0 0,0.61412 c 0.164792,-0.24204 0.338598,-0.42228 0.521418,-0.54073 0.182817,-0.12102 0.37336,-0.18153 0.571629,-0.18153 0.149343,0 0.308987,0.0476 0.478933,0.1429 l -0.281952,0.45576 c -0.113298,-0.0489 -0.20857,-0.0734 -0.285815,-0.0734 -0.180245,0 -0.354051,0.0747 -0.521418,0.22401 -0.167371,0.14678 -0.294828,0.37594 -0.382374,0.6875 -0.06695,0.23947 -0.100422,0.72355 -0.100421,1.45225 l 0,1.42135 -0.552318,0 0,-4.20225"
         style="font-size:7.91011332999999972px;font-family:Century Gothic;-inkscape-font-specification:Century Gothic;fill:#ffffff"
         id="path3640" />
      <path
         d="m 35.766889,985.90891 c 0.646298,0 1.181878,0.23432 1.606742,0.70295 0.386231,0.42743 0.579349,0.9334 0.579354,1.5179 -5e-6,0.58708 -0.20471,1.10078 -0.614116,1.54108 -0.406839,0.43774 -0.930832,0.65661 -1.57198,0.65661 -0.643729,0 -1.170297,-0.21887 -1.579705,-0.65661 -0.406836,-0.4403 -0.610254,-0.954 -0.610253,-1.54108 -1e-6,-0.58192 0.193117,-1.0866 0.579354,-1.51404 0.424858,-0.47121 0.961725,-0.70681 1.610604,-0.70681 m 0,0.52914 c -0.448036,0 -0.832984,0.16608 -1.154846,0.49824 -0.321864,0.33217 -0.482796,0.73385 -0.482795,1.20506 -10e-7,0.30384 0.07338,0.58708 0.220155,0.84972 0.146768,0.26264 0.345036,0.46606 0.594803,0.61025 0.249764,0.14162 0.523991,0.21243 0.822683,0.21243 0.298686,0 0.572913,-0.0708 0.822683,-0.21243 0.249762,-0.14419 0.448029,-0.34761 0.594803,-0.61025 0.146766,-0.26264 0.22015,-0.54588 0.220155,-0.84972 -5e-6,-0.47121 -0.162224,-0.87289 -0.486658,-1.20506 -0.321867,-0.33216 -0.705527,-0.49824 -1.150983,-0.49824"
         style="font-size:7.91011332999999972px;font-family:Century Gothic;-inkscape-font-specification:Century Gothic;fill:#ffffff"
         id="path3642" />
      <path
         d="m 38.455091,989.16101 0.482795,-0.28967 c 0.339887,0.6257 0.73256,0.93855 1.17802,0.93855 0.190541,0 0.369497,-0.0438 0.536868,-0.13132 0.167366,-0.0901 0.294824,-0.20986 0.382373,-0.3592 0.08754,-0.14934 0.131318,-0.3077 0.131321,-0.47507 -3e-6,-0.19054 -0.06438,-0.37722 -0.193118,-0.56004 -0.177671,-0.25234 -0.502109,-0.55618 -0.973315,-0.91152 -0.473784,-0.35791 -0.768611,-0.61669 -0.884481,-0.77633 -0.200843,-0.26779 -0.301264,-0.55747 -0.301264,-0.86904 0,-0.24718 0.05922,-0.47249 0.177669,-0.67591 0.118445,-0.20341 0.284526,-0.36305 0.498244,-0.47893 0.216291,-0.11844 0.450607,-0.17766 0.70295,-0.17767 0.267788,10e-6 0.517554,0.067 0.749298,0.20084 0.234313,0.13133 0.481504,0.37466 0.741573,0.72999 l -0.463483,0.35147 c -0.21372,-0.28323 -0.396538,-0.46991 -0.548455,-0.56004 -0.149347,-0.0901 -0.312854,-0.13518 -0.49052,-0.13518 -0.229168,0 -0.417136,0.0695 -0.563905,0.20857 -0.144196,0.13905 -0.216293,0.31028 -0.216292,0.51369 -1e-6,0.1236 0.02575,0.24333 0.07725,0.3592 0.0515,0.11587 0.145481,0.24205 0.281953,0.37851 0.07467,0.0721 0.319286,0.26136 0.733848,0.56777 0.491805,0.36306 0.829117,0.68621 1.011938,0.96945 0.182815,0.28324 0.274224,0.56777 0.274228,0.85358 -4e-6,0.41199 -0.157073,0.7699 -0.471208,1.07374 -0.311566,0.30384 -0.691365,0.45576 -1.139396,0.45576 -0.345039,0 -0.65789,-0.0914 -0.938554,-0.27423 -0.280665,-0.18539 -0.539443,-0.49438 -0.776334,-0.92697"
         style="font-size:7.91011332999999972px;font-family:Century Gothic;-inkscape-font-specification:Century Gothic;fill:#ffffff"
         id="path3644" />
      <path
         d="m 42.981777,990.2193 0,-5.68153 1.17802,0 c 0.849717,0 1.466406,0.0682 1.850071,0.2047 0.551025,0.19313 0.981034,0.52786 1.290028,1.00422 0.311558,0.47636 0.46734,1.04412 0.467345,1.7033 -5e-6,0.56905 -0.123601,1.06987 -0.370786,1.50246 -0.244621,0.43258 -0.563909,0.75187 -0.957866,0.95786 -0.391389,0.20599 -0.941131,0.30899 -1.649227,0.30899 l -1.807585,0 m 0.544593,-0.53687 0.656601,0 c 0.785344,0 1.329936,-0.0489 1.633779,-0.14677 0.42743,-0.13904 0.763455,-0.38881 1.008075,-0.7493 0.244612,-0.36306 0.36692,-0.80594 0.366925,-1.32865 -5e-6,-0.54845 -0.132613,-1.01708 -0.397823,-1.4059 -0.26522,-0.3888 -0.634719,-0.65531 -1.108498,-0.79951 -0.35534,-0.10814 -0.941131,-0.16221 -1.757374,-0.16221 l -0.401685,0 0,4.59234"
         style="font-size:7.91011332999999972px;font-family:Century Gothic;-inkscape-font-specification:Century Gothic;fill:#ffffff"
         id="path3646" />
      <path
         d="m 48.2595,983.72122 0,-0.35901 2.026029,0 0,0.35901 -0.823467,0 0,3.33403 -0.376585,0 0,-3.33403 -0.825977,0"
         style="font-size:5.14164591000000026px;baseline-shift:super;font-family:Century Gothic;-inkscape-font-specification:Century Gothic;fill:#ffffff"
         id="path3648" />
      <path
         d="m 50.637011,987.05525 0.524709,-3.69304 0.06025,0 1.50132,3.03025 1.486257,-3.03025 0.06025,0 0.52973,3.69304 -0.364033,0 -0.361522,-2.64111 -1.305496,2.64111 -0.09289,0 -1.32307,-2.6612 -0.359011,2.6612 -0.356501,0"
         style="font-size:5.14164591000000026px;baseline-shift:super;font-family:Century Gothic;-inkscape-font-specification:Century Gothic;fill:#ffffff"
         id="path3650" />
    </g>
    <g
       style="font-size:8.52889155999999993px;font-style:normal;font-variant:normal;font-weight:normal;font-stretch:normal;text-align:start;line-height:125%;letter-spacing:0px;word-spacing:0px;text-anchor:start;fill:#ffffff;fill-opacity:1;stroke:none;font-family:Arial Rounded MT Bold;-inkscape-font-specification:Arial Rounded MT Bold"
       id="text3402">
      <path
         d="m 48.843573,1021.8802 -0.291515,-0.7663 -2.482041,0 -0.291515,0.7829 c -0.113831,0.3054 -0.211002,0.5123 -0.291515,0.6205 -0.08051,0.1055 -0.21239,0.1583 -0.395627,0.1583 -0.155475,0 -0.292903,-0.057 -0.412285,-0.1708 -0.119383,-0.1138 -0.179074,-0.2429 -0.179073,-0.3873 -1e-6,-0.083 0.01388,-0.1693 0.04164,-0.2582 0.02776,-0.089 0.07357,-0.2123 0.137429,-0.3706 l 1.561687,-3.9646 c 0.04442,-0.1138 0.09717,-0.2499 0.158251,-0.4081 0.06385,-0.161 0.130485,-0.2943 0.199895,-0.3998 0.07218,-0.1055 0.16519,-0.1902 0.279022,-0.254 0.116603,-0.067 0.259584,-0.1 0.428943,-0.1 0.172129,0 0.31511,0.033 0.428943,0.1 0.116603,0.064 0.20961,0.1471 0.279022,0.2498 0.07218,0.1028 0.131872,0.2138 0.179073,0.3332 0.04997,0.1166 0.112437,0.2735 0.187402,0.4706 l 1.595003,3.9396 c 0.124929,0.2998 0.187397,0.5178 0.187403,0.6538 -6e-6,0.1416 -0.0597,0.2721 -0.179074,0.3915 -0.116611,0.1166 -0.258204,0.1749 -0.424779,0.1749 -0.09718,0 -0.180466,-0.018 -0.249869,-0.054 -0.06941,-0.033 -0.127717,-0.079 -0.174909,-0.1374 -0.0472,-0.061 -0.09857,-0.1527 -0.154087,-0.2748 -0.05275,-0.125 -0.09856,-0.2346 -0.137428,-0.329 m -2.448725,-1.695 1.82405,0 -0.920354,-2.5195 -0.903696,2.5195"
         style="font-family:Arial Rounded MT Bold;-inkscape-font-specification:Arial Rounded MT Bold;fill:#ffffff"
         id="path3573" />
      <path
         d="m 54.103333,1022.0259 0,-0.1124 c -0.152701,0.1749 -0.304011,0.3179 -0.45393,0.4289 -0.147148,0.1083 -0.308176,0.1902 -0.483082,0.2457 -0.172135,0.058 -0.360925,0.087 -0.566371,0.087 -0.272083,0 -0.524729,-0.057 -0.757939,-0.1708 -0.230437,-0.1166 -0.430332,-0.2818 -0.599688,-0.4955 -0.169356,-0.2138 -0.298456,-0.4651 -0.387298,-0.7538 -0.08607,-0.2887 -0.1291,-0.6011 -0.129099,-0.937 -1e-6,-0.7108 0.17352,-1.2646 0.520562,-1.6617 0.34704,-0.397 0.803746,-0.5955 1.37012,-0.5955 0.327604,0 0.603849,0.057 0.828735,0.1708 0.224879,0.111 0.444209,0.2832 0.65799,0.5164 l 0,-1.6783 c -3e-6,-0.2332 0.04581,-0.4095 0.137429,-0.5289 0.09439,-0.1194 0.227655,-0.1791 0.399792,-0.1791 0.172128,0 0.304004,0.055 0.395627,0.1666 0.09439,0.1083 0.141588,0.2693 0.141593,0.4831 l 0,5.014 c -5e-6,0.2166 -0.04998,0.379 -0.149922,0.4873 -0.09995,0.1082 -0.229052,0.1624 -0.387298,0.1624 -0.155479,0 -0.284578,-0.056 -0.387299,-0.1666 -0.09995,-0.1138 -0.149925,-0.2749 -0.149922,-0.4831 m -2.236335,-1.6699 c -1e-6,0.3081 0.0472,0.5705 0.141593,0.787 0.09717,0.2166 0.229046,0.3804 0.395627,0.4915 0.166578,0.1082 0.348428,0.1624 0.54555,0.1624 0.199893,0 0.381742,-0.051 0.545549,-0.1541 0.166576,-0.1055 0.298452,-0.2651 0.395627,-0.4789 0.09994,-0.2166 0.149918,-0.4859 0.149922,-0.8079 -4e-6,-0.3027 -0.04998,-0.5622 -0.149922,-0.7788 -0.09718,-0.2193 -0.230439,-0.3859 -0.399792,-0.4997 -0.166583,-0.1166 -0.34982,-0.1749 -0.549713,-0.175 -0.208228,10e-5 -0.394242,0.06 -0.558043,0.1791 -0.163806,0.1166 -0.291517,0.286 -0.383134,0.5081 -0.08884,0.2193 -0.133265,0.4747 -0.133264,0.7663"
         style="font-family:Arial Rounded MT Bold;-inkscape-font-specification:Arial Rounded MT Bold;fill:#ffffff"
         id="path3575" />
      <path
         d="m 59.19235,1022.0343 c -0.27486,0.2137 -0.541388,0.3748 -0.799584,0.483 -0.255425,0.1055 -0.542775,0.1583 -0.862051,0.1583 -0.291516,0 -0.548326,-0.057 -0.770432,-0.1708 -0.219331,-0.1166 -0.388687,-0.2734 -0.508069,-0.4705 -0.119382,-0.1972 -0.179073,-0.4109 -0.179073,-0.6414 0,-0.3109 0.09856,-0.5761 0.295679,-0.7954 0.197119,-0.2193 0.467811,-0.3665 0.812078,-0.4414 0.07218,-0.017 0.251256,-0.054 0.53722,-0.1125 0.28596,-0.058 0.530277,-0.111 0.732951,-0.1582 0.205446,-0.05 0.427552,-0.1097 0.66632,-0.1791 -0.01389,-0.2998 -0.07496,-0.5192 -0.183238,-0.658 -0.105504,-0.1416 -0.326222,-0.2124 -0.662155,-0.2124 -0.288741,0 -0.506683,0.04 -0.653826,0.1208 -0.144371,0.081 -0.269306,0.2013 -0.374805,0.3623 -0.102726,0.161 -0.176298,0.2679 -0.220718,0.3207 -0.04165,0.05 -0.133266,0.075 -0.274857,0.075 -0.127712,0 -0.238766,-0.04 -0.33316,-0.1207 -0.09162,-0.083 -0.137429,-0.1888 -0.137429,-0.3165 0,-0.1999 0.0708,-0.3943 0.21239,-0.5831 0.141592,-0.1888 0.36231,-0.3442 0.662155,-0.4664 0.299842,-0.1222 0.673258,-0.1832 1.12025,-0.1832 0.499737,0 0.892587,0.06 1.178553,0.179 0.285958,0.1166 0.487242,0.3027 0.603852,0.5581 0.119378,0.2554 0.179069,0.5941 0.179073,1.0161 -4e-6,0.2665 -0.0014,0.4928 -0.0042,0.6788 -5e-6,0.186 -0.0014,0.3929 -0.0042,0.6205 -4e-6,0.2138 0.0347,0.4373 0.104113,0.6705 0.07218,0.2305 0.108272,0.379 0.108277,0.4456 -5e-6,0.1166 -0.05553,0.2235 -0.16658,0.3207 -0.108281,0.094 -0.231828,0.1416 -0.37064,0.1416 -0.11661,0 -0.231828,-0.054 -0.345654,-0.1624 -0.113833,-0.1111 -0.234603,-0.2707 -0.362311,-0.4789 m -0.07496,-1.645 c -0.166583,0.061 -0.409512,0.1263 -0.728787,0.1957 -0.316504,0.067 -0.535834,0.1166 -0.657991,0.1499 -0.12216,0.031 -0.238766,0.093 -0.349818,0.1874 -0.111054,0.092 -0.166581,0.2208 -0.16658,0.3873 -10e-7,0.1722 0.06524,0.3193 0.195732,0.4415 0.130486,0.1193 0.30123,0.179 0.512233,0.179 0.224881,0 0.431717,-0.048 0.62051,-0.1457 0.191564,-0.1 0.331769,-0.2277 0.420615,-0.3832 0.102721,-0.1721 0.154083,-0.4553 0.154086,-0.8495 l 0,-0.1624"
         style="font-family:Arial Rounded MT Bold;-inkscape-font-specification:Arial Rounded MT Bold;fill:#ffffff"
         id="path3577" />
      <path
         d="m 62.324052,1018.6902 0,0.1374 c 0.213776,-0.2638 0.435882,-0.4567 0.66632,-0.5789 0.230433,-0.1249 0.491408,-0.1874 0.782926,-0.1874 0.349814,0 0.671868,0.09 0.966163,0.2707 0.294287,0.1805 0.52611,0.4442 0.695471,0.7913 0.172128,0.347 0.258194,0.7579 0.258199,1.2327 -5e-6,0.3498 -0.04998,0.6718 -0.149922,0.9661 -0.09718,0.2915 -0.231828,0.5372 -0.403956,0.7371 -0.172137,0.1972 -0.376197,0.3499 -0.612181,0.4581 -0.233216,0.1055 -0.484474,0.1583 -0.753774,0.1583 -0.324834,0 -0.598302,-0.065 -0.820407,-0.1957 -0.219332,-0.1305 -0.428945,-0.3221 -0.628839,-0.5747 l 0,1.7074 c -1e-6,0.4997 -0.181851,0.7496 -0.545549,0.7496 -0.213778,0 -0.355371,-0.065 -0.424779,-0.1957 -0.06941,-0.1277 -0.104113,-0.3151 -0.104112,-0.5622 l 0,-4.9058 c -10e-7,-0.2166 0.0472,-0.3776 0.141593,-0.4831 0.09439,-0.1083 0.223494,-0.1624 0.387298,-0.1624 0.161026,0 0.291514,0.056 0.391463,0.1666 0.102723,0.1083 0.154085,0.2651 0.154086,0.4706 m 2.228007,1.6533 c -4e-6,-0.2999 -0.04581,-0.5567 -0.137429,-0.7705 -0.09162,-0.2165 -0.219334,-0.3817 -0.383134,-0.4955 -0.16103,-0.1166 -0.340103,-0.1749 -0.53722,-0.175 -0.313728,10e-5 -0.578867,0.1236 -0.795419,0.3707 -0.213779,0.2471 -0.320668,0.6108 -0.320666,1.0911 -2e-6,0.4525 0.106887,0.8051 0.320666,1.0578 0.213775,0.2498 0.478915,0.3748 0.795419,0.3748 0.188788,0 0.363696,-0.054 0.524727,-0.1624 0.161024,-0.1111 0.290123,-0.2763 0.387298,-0.4956 0.09717,-0.2193 0.145754,-0.4845 0.145758,-0.7954"
         style="font-family:Arial Rounded MT Bold;-inkscape-font-specification:Arial Rounded MT Bold;fill:#ffffff"
         id="path3579" />
      <path
         d="m 66.675953,1018.1529 0.124934,0 0,-0.6829 c 0,-0.1833 0.0042,-0.3263 0.01249,-0.429 0.0111,-0.1055 0.03887,-0.1957 0.08329,-0.2707 0.04442,-0.078 0.108276,-0.1402 0.191567,-0.1874 0.08329,-0.05 0.176296,-0.075 0.279021,-0.075 0.144368,0 0.274855,0.054 0.391463,0.1624 0.07773,0.072 0.126321,0.161 0.145757,0.2665 0.02221,0.1027 0.03331,0.2499 0.03332,0.4414 l 0,0.7746 0.41645,0 c 0.161025,0 0.283183,0.039 0.366476,0.1166 0.08606,0.075 0.129097,0.1722 0.129099,0.2916 -2e-6,0.1527 -0.06108,0.2596 -0.183237,0.3206 -0.119385,0.061 -0.291518,0.092 -0.516398,0.092 l -0.21239,0 0,2.0906 c -2e-6,0.1777 0.0056,0.3151 0.01666,0.4123 0.01388,0.094 0.0472,0.1721 0.09995,0.2332 0.05553,0.058 0.144367,0.088 0.266528,0.088 0.06663,0 0.156861,-0.011 0.270693,-0.033 0.113826,-0.025 0.202669,-0.038 0.266527,-0.038 0.09162,0 0.173518,0.038 0.245706,0.1124 0.07496,0.072 0.112438,0.1624 0.112441,0.2707 -3e-6,0.1833 -0.09995,0.3235 -0.299844,0.4206 -0.199898,0.097 -0.487248,0.1458 -0.862051,0.1458 -0.355372,0 -0.624676,-0.06 -0.807912,-0.1791 -0.183239,-0.1194 -0.304009,-0.2846 -0.362312,-0.4956 -0.05553,-0.211 -0.08329,-0.4928 -0.08329,-0.8454 l 0,-2.1822 -0.149921,0 c -0.163804,0 -0.288739,-0.039 -0.374805,-0.1166 -0.08607,-0.078 -0.1291,-0.1763 -0.1291,-0.2956 0,-0.1194 0.04442,-0.2166 0.133264,-0.2916 0.09162,-0.078 0.223495,-0.1166 0.395628,-0.1166"
         style="font-family:Arial Rounded MT Bold;-inkscape-font-specification:Arial Rounded MT Bold;fill:#ffffff"
         id="path3581" />
      <path
         d="m 72.801929,1020.6433 -2.223842,0 c 0.0028,0.2582 0.05414,0.4859 0.154087,0.683 0.102722,0.1971 0.237374,0.3456 0.403956,0.4456 0.169354,0.1 0.355368,0.1499 0.558043,0.1499 0.136037,0 0.259584,-0.015 0.37064,-0.046 0.113826,-0.033 0.223491,-0.083 0.328995,-0.1499 0.105497,-0.069 0.202669,-0.143 0.291515,-0.2207 0.08884,-0.078 0.204057,-0.1833 0.345653,-0.3165 0.0583,-0.05 0.141589,-0.075 0.24987,-0.075 0.116602,0 0.210997,0.032 0.283186,0.096 0.07218,0.064 0.108273,0.1541 0.108277,0.2707 -4e-6,0.1027 -0.04026,0.2235 -0.12077,0.3623 -0.08052,0.136 -0.202677,0.2679 -0.366476,0.3956 -0.161031,0.1249 -0.365092,0.2291 -0.612181,0.3123 -0.244321,0.083 -0.526118,0.125 -0.845393,0.125 -0.730178,0 -1.297937,-0.2082 -1.70328,-0.6247 -0.405345,-0.4164 -0.608017,-0.9814 -0.608017,-1.6949 0,-0.336 0.04997,-0.6469 0.149922,-0.9329 0.09995,-0.2887 0.245705,-0.5358 0.437273,-0.7413 0.191565,-0.2054 0.427553,-0.3623 0.707964,-0.4706 0.280408,-0.111 0.591357,-0.1665 0.932848,-0.1665 0.44421,0 0.824567,0.094 1.141072,0.2831 0.319274,0.1861 0.558039,0.4276 0.716294,0.7247 0.158246,0.297 0.237371,0.5997 0.237376,0.9078 -5e-6,0.286 -0.08191,0.472 -0.245705,0.5581 -0.163808,0.083 -0.394243,0.1249 -0.691307,0.1249 m -2.223842,-0.6455 2.061427,0 c -0.02777,-0.3887 -0.133268,-0.6788 -0.316502,-0.8704 -0.180465,-0.1943 -0.419229,-0.2915 -0.716294,-0.2915 -0.283188,0 -0.5164,0.099 -0.699635,0.2957 -0.180464,0.1943 -0.290129,0.4831 -0.328996,0.8662"
         style="font-family:Arial Rounded MT Bold;-inkscape-font-specification:Arial Rounded MT Bold;fill:#ffffff"
         id="path3583" />
      <path
         d="m 75.82119,1021.0348 0,0.9495 c -10e-7,0.2304 -0.05414,0.4039 -0.162415,0.5205 -0.108278,0.1139 -0.245707,0.1708 -0.412285,0.1708 -0.163805,0 -0.298457,-0.058 -0.403957,-0.1749 -0.105501,-0.1166 -0.158251,-0.2888 -0.158251,-0.5164 l 0,-3.165 c 0,-0.5109 0.184626,-0.7663 0.553879,-0.7663 0.188789,0 0.324829,0.06 0.40812,0.1791 0.08329,0.1194 0.129098,0.2956 0.137429,0.5289 0.136038,-0.2333 0.274855,-0.4095 0.41645,-0.5289 0.144367,-0.1194 0.335933,-0.1791 0.5747,-0.1791 0.238762,0 0.470585,0.06 0.695472,0.1791 0.224879,0.1194 0.33732,0.2776 0.337324,0.4747 -4e-6,0.1388 -0.04859,0.2541 -0.145758,0.3457 -0.0944,0.089 -0.197123,0.1332 -0.308172,0.1332 -0.04165,0 -0.142985,-0.025 -0.304009,-0.075 -0.158253,-0.053 -0.298458,-0.079 -0.420614,-0.079 -0.166582,10e-5 -0.302622,0.044 -0.408121,0.1333 -0.105502,0.086 -0.187404,0.2152 -0.245705,0.3873 -0.05831,0.1721 -0.09856,0.3776 -0.120771,0.6164 -0.02221,0.2359 -0.03332,0.5247 -0.03332,0.8662"
         style="font-family:Arial Rounded MT Bold;-inkscape-font-specification:Arial Rounded MT Bold;fill:#ffffff"
         id="path3585" />
    </g>
    <g
       style="font-size:0.65917605000000001px;font-style:normal;font-variant:normal;font-weight:normal;font-stretch:normal;text-align:start;line-height:125%;letter-spacing:0px;word-spacing:0px;text-anchor:start;fill:#ffffff;fill-opacity:1;stroke:none;font-family:Cantarell;-inkscape-font-specification:Cantarell"
       id="text3412">
      <path
         d="m 16.533931,994.51705 0.536868,0 0,0.72613 c 0.187967,-0.26779 0.381085,-0.46348 0.579354,-0.58708 0.272939,-0.16479 0.56004,-0.24719 0.861307,-0.24719 0.203415,0 0.396532,0.0399 0.579354,0.11973 0.182815,0.0798 0.332159,0.18668 0.448033,0.32057 0.115868,0.13133 0.216289,0.32058 0.301265,0.56777 0.180239,-0.32958 0.405543,-0.57935 0.675913,-0.7493 0.27036,-0.17251 0.561324,-0.25877 0.872893,-0.25877 0.290959,0 0.547162,0.0734 0.76861,0.22015 0.22401,0.14677 0.390091,0.35148 0.498244,0.61412 0.108139,0.26264 0.162212,0.6566 0.162219,1.18188 l 0,2.29424 -0.552317,0 0,-2.29424 c -7e-6,-0.45061 -0.03219,-0.7596 -0.09656,-0.92697 -0.06438,-0.16994 -0.1751,-0.30641 -0.332163,-0.40941 -0.1545,-0.10299 -0.339894,-0.15449 -0.55618,-0.15449 -0.262646,0 -0.503399,0.0773 -0.722262,0.23174 -0.216296,0.1545 -0.374653,0.36049 -0.47507,0.61798 -0.100425,0.25749 -0.150636,0.6875 -0.150632,1.29002 l 0,1.64537 -0.536868,0 0,-2.15134 c -3e-6,-0.50725 -0.03219,-0.851 -0.09656,-1.03125 -0.0618,-0.18281 -0.171234,-0.32829 -0.3283,-0.43644 -0.157073,-0.11072 -0.343753,-0.16608 -0.560043,-0.16608 -0.249768,0 -0.484084,0.076 -0.702949,0.22788 -0.216294,0.14934 -0.377225,0.35147 -0.482795,0.60639 -0.102998,0.25491 -0.154496,0.64501 -0.154495,1.17029 l 0,1.78055 -0.536868,0 0,-4.20225"
         style="font-size:7.91011332999999972px;font-family:Century Gothic;-inkscape-font-specification:Century Gothic;fill:#ffffff"
         id="path3611" />
      <path
         d="m 24.142781,992.78671 c 0.123594,10e-6 0.229165,0.0438 0.316713,0.13132 0.08755,0.0876 0.131319,0.19313 0.131321,0.31672 -2e-6,0.12102 -0.04378,0.22531 -0.131321,0.31285 -0.08755,0.0875 -0.193119,0.13132 -0.316713,0.13132 -0.121022,0 -0.225305,-0.0438 -0.312851,-0.13132 -0.08755,-0.0875 -0.131321,-0.19183 -0.131321,-0.31285 0,-0.12359 0.04377,-0.22916 0.131321,-0.31672 0.08755,-0.0875 0.191829,-0.13131 0.312851,-0.13132 m -0.270365,1.73034 0.544592,0 0,4.20225 -0.544592,0 0,-4.20225"
         style="font-size:7.91011332999999972px;font-family:Century Gothic;-inkscape-font-specification:Century Gothic;fill:#ffffff"
         id="path3613" />
      <path
         d="m 29.638919,995.38994 -0.428722,0.26651 c -0.37079,-0.49181 -0.876759,-0.73771 -1.517907,-0.73771 -0.512409,0 -0.938556,0.16479 -1.278441,0.49438 -0.337314,0.32959 -0.505971,0.72999 -0.50597,1.20119 -1e-6,0.30642 0.07725,0.59481 0.231742,0.86517 0.157068,0.27037 0.370785,0.48022 0.641152,0.62957 0.272938,0.14934 0.578064,0.22401 0.915379,0.22401 0.617974,0 1.122656,-0.2459 1.514045,-0.73771 l 0.428722,0.28195 c -0.200847,0.30127 -0.471212,0.53559 -0.811095,0.70295 -0.337317,0.1648 -0.722265,0.2472 -1.154846,0.2472 -0.664328,0 -1.215357,-0.21115 -1.65309,-0.63343 -0.437735,-0.42229 -0.656602,-0.93598 -0.656601,-1.54108 -1e-6,-0.40684 0.101708,-0.78406 0.305126,-1.13167 0.205992,-0.35019 0.487944,-0.62313 0.845857,-0.81883 0.35791,-0.19568 0.758308,-0.29353 1.201194,-0.29353 0.278087,0 0.545877,0.0425 0.803371,0.12745 0.260062,0.085 0.480216,0.1957 0.660463,0.33217 0.180239,0.13647 0.333446,0.31028 0.459621,0.52141"
         style="font-size:7.91011332999999972px;font-family:Century Gothic;-inkscape-font-specification:Century Gothic;fill:#ffffff"
         id="path3615" />
      <path
         d="m 30.469327,994.51705 0.552317,0 0,0.61412 c 0.164793,-0.24204 0.338599,-0.42228 0.521419,-0.54073 0.182817,-0.12102 0.373359,-0.18153 0.571629,-0.18153 0.149342,0 0.308987,0.0476 0.478933,0.1429 l -0.281953,0.45576 c -0.113298,-0.0489 -0.208569,-0.0734 -0.285814,-0.0734 -0.180245,0 -0.354051,0.0747 -0.521419,0.22401 -0.16737,0.14678 -0.294828,0.37594 -0.382373,0.6875 -0.06695,0.23947 -0.100423,0.72355 -0.100422,1.45225 l 0,1.42135 -0.552317,0 0,-4.20225"
         style="font-size:7.91011332999999972px;font-family:Century Gothic;-inkscape-font-specification:Century Gothic;fill:#ffffff"
         id="path3617" />
      <path
         d="m 35.042361,994.40891 c 0.646298,0 1.181878,0.23432 1.606741,0.70295 0.386232,0.42743 0.57935,0.9334 0.579354,1.5179 -4e-6,0.58708 -0.204709,1.10078 -0.614115,1.54108 -0.406839,0.43774 -0.930832,0.65661 -1.57198,0.65661 -0.643729,0 -1.170297,-0.21887 -1.579706,-0.65661 -0.406836,-0.4403 -0.610253,-0.954 -0.610253,-1.54108 0,-0.58192 0.193118,-1.0866 0.579354,-1.51404 0.424859,-0.47121 0.961726,-0.70681 1.610605,-0.70681 m 0,0.52914 c -0.448036,0 -0.832985,0.16608 -1.154846,0.49824 -0.321865,0.33217 -0.482796,0.73385 -0.482795,1.20506 -10e-7,0.30384 0.07338,0.58708 0.220154,0.84972 0.146769,0.26264 0.345036,0.46606 0.594804,0.61025 0.249764,0.14162 0.523991,0.21243 0.822683,0.21243 0.298686,0 0.572913,-0.0708 0.822682,-0.21243 0.249763,-0.14419 0.44803,-0.34761 0.594804,-0.61025 0.146765,-0.26264 0.22015,-0.54588 0.220154,-0.84972 -4e-6,-0.47121 -0.162223,-0.87289 -0.486657,-1.20506 -0.321867,-0.33216 -0.705528,-0.49824 -1.150983,-0.49824"
         style="font-size:7.91011332999999972px;font-family:Century Gothic;-inkscape-font-specification:Century Gothic;fill:#ffffff"
         id="path3619" />
      <path
         d="m 37.730563,997.66101 0.482795,-0.28967 c 0.339886,0.6257 0.732559,0.93855 1.178019,0.93855 0.190542,0 0.369497,-0.0438 0.536868,-0.13132 0.167367,-0.0901 0.294825,-0.20986 0.382374,-0.3592 0.08754,-0.14934 0.131318,-0.3077 0.13132,-0.47507 -2e-6,-0.19054 -0.06437,-0.37722 -0.193118,-0.56004 -0.177671,-0.25234 -0.502109,-0.55618 -0.973314,-0.91152 -0.473784,-0.35791 -0.768611,-0.61669 -0.884481,-0.77633 -0.200843,-0.26779 -0.301264,-0.55747 -0.301264,-0.86904 0,-0.24718 0.05922,-0.47249 0.177669,-0.67591 0.118445,-0.20341 0.284526,-0.36305 0.498244,-0.47893 0.216291,-0.11844 0.450607,-0.17766 0.70295,-0.17767 0.267788,10e-6 0.517553,0.067 0.749297,0.20084 0.234314,0.13133 0.481505,0.37466 0.741574,0.72999 l -0.463484,0.35147 c -0.21372,-0.28323 -0.396538,-0.46991 -0.548455,-0.56004 -0.149347,-0.0901 -0.312853,-0.13518 -0.490519,-0.13518 -0.229169,0 -0.417137,0.0695 -0.563905,0.20857 -0.144196,0.13905 -0.216293,0.31028 -0.216292,0.51369 -1e-6,0.1236 0.02575,0.24333 0.07725,0.3592 0.0515,0.11587 0.145481,0.24205 0.281952,0.37851 0.07467,0.0721 0.319287,0.26136 0.733849,0.56777 0.491804,0.36306 0.829117,0.68621 1.011938,0.96945 0.182815,0.28324 0.274224,0.56777 0.274228,0.85358 -4e-6,0.41199 -0.157073,0.7699 -0.471208,1.07374 -0.311567,0.30384 -0.691365,0.45576 -1.139397,0.45576 -0.345039,0 -0.657889,-0.0914 -0.938553,-0.27423 -0.280665,-0.18539 -0.539443,-0.49438 -0.776334,-0.92697"
         style="font-size:7.91011332999999972px;font-family:Century Gothic;-inkscape-font-specification:Century Gothic;fill:#ffffff"
         id="path3621" />
      <path
         d="m 42.257249,998.7193 0,-5.68153 1.17802,0 c 0.849716,0 1.466406,0.0682 1.85007,0.2047 0.551026,0.19313 0.981035,0.52786 1.290028,1.00422 0.311559,0.47636 0.467341,1.04412 0.467346,1.7033 -5e-6,0.56905 -0.123601,1.06987 -0.370787,1.50246 -0.244621,0.43258 -0.563909,0.75187 -0.957865,0.95786 -0.391389,0.20599 -0.941131,0.30899 -1.649228,0.30899 l -1.807584,0 m 0.544593,-0.53687 0.656601,0 c 0.785344,0 1.329936,-0.0489 1.633778,-0.14677 0.427431,-0.13904 0.763456,-0.38881 1.008076,-0.7493 0.244612,-0.36306 0.366919,-0.80594 0.366924,-1.32865 -5e-6,-0.54845 -0.132612,-1.01708 -0.397823,-1.4059 -0.265219,-0.3888 -0.634718,-0.65531 -1.108497,-0.79951 -0.35534,-0.10814 -0.941131,-0.16221 -1.757374,-0.16221 l -0.401685,0 0,4.59234"
         style="font-size:7.91011332999999972px;font-family:Century Gothic;-inkscape-font-specification:Century Gothic;fill:#ffffff"
         id="path3623" />
      <path
         d="m 48.13576,993.03777 0.57163,0 0,2.38307 2.889045,0 0,-2.38307 0.571629,0 0,5.68153 -0.571629,0 0,-2.74228 -2.889045,0 0,2.74228 -0.57163,0 0,-5.68153"
         style="font-size:7.91011332999999972px;font-family:Century Gothic;-inkscape-font-specification:Century Gothic;fill:#ffffff"
         id="path3625" />
      <path
         d="m 58.842221,994.09219 -0.448034,0.34375 c -0.247196,-0.32186 -0.544597,-0.56519 -0.892205,-0.72998 -0.345041,-0.16737 -0.72484,-0.25105 -1.139396,-0.25106 -0.453187,1e-5 -0.872896,0.10944 -1.259129,0.3283 -0.386238,0.2163 -0.686214,0.50855 -0.89993,0.87676 -0.211144,0.36564 -0.316715,0.77762 -0.316714,1.23595 -10e-7,0.69266 0.23689,1.27072 0.710675,1.7342 0.476355,0.46349 1.076308,0.69523 1.799859,0.69523 0.795642,0 1.461255,-0.31156 1.99684,-0.93469 l 0.448034,0.33989 c -0.283245,0.36048 -0.637295,0.63986 -1.062149,0.83813 -0.422289,0.19569 -0.894784,0.29354 -1.417486,0.29354 -0.993916,0 -1.777975,-0.33088 -2.352177,-0.99263 -0.481508,-0.55875 -0.722262,-1.23338 -0.722261,-2.02388 -10e-7,-0.83169 0.290963,-1.53077 0.872893,-2.09726 0.584502,-0.56905 1.315775,-0.85357 2.19382,-0.85358 0.530427,10e-6 1.009359,0.10558 1.436798,0.31671 0.427429,0.20858 0.777616,0.50212 1.050562,0.88062"
         style="font-size:7.91011332999999972px;font-family:Century Gothic;-inkscape-font-specification:Century Gothic;fill:#ffffff"
         id="path3627" />
      <path
         d="m 59.369242,992.22122 0,-0.35901 2.026029,0 0,0.35901 -0.823466,0 0,3.33403 -0.376586,0 0,-3.33403 -0.825977,0"
         style="font-size:5.14164591000000026px;baseline-shift:super;font-family:Century Gothic;-inkscape-font-specification:Century Gothic;fill:#ffffff"
         id="path3629" />
      <path
         d="m 61.746753,995.55525 0.524709,-3.69304 0.06025,0 1.50132,3.03025 1.486257,-3.03025 0.06025,0 0.52973,3.69304 -0.364032,0 -0.361522,-2.64111 -1.305496,2.64111 -0.09289,0 -1.32307,-2.6612 -0.359012,2.6612 -0.356501,0"
         style="font-size:5.14164591000000026px;baseline-shift:super;font-family:Century Gothic;-inkscape-font-specification:Century Gothic;fill:#ffffff"
         id="path3631" />
    </g>
    <g
       style="font-size:0.65917605000000001px;font-style:normal;font-variant:normal;font-weight:normal;font-stretch:normal;text-align:start;line-height:125%;letter-spacing:0px;word-spacing:0px;text-anchor:start;fill:#ffffff;fill-opacity:1;stroke:none;font-family:Cantarell;-inkscape-font-specification:Cantarell"
       id="text3418">
      <path
         d="m 16.533931,1003.0171 0.536868,0 0,0.7261 c 0.187967,-0.2678 0.381085,-0.4635 0.579354,-0.5871 0.272939,-0.1648 0.56004,-0.2472 0.861307,-0.2472 0.203415,0 0.396532,0.04 0.579354,0.1197 0.182815,0.08 0.332159,0.1867 0.448033,0.3206 0.115868,0.1313 0.216289,0.3206 0.301265,0.5678 0.180239,-0.3296 0.405543,-0.5794 0.675913,-0.7493 0.27036,-0.1725 0.561324,-0.2588 0.872893,-0.2588 0.290959,0 0.547162,0.073 0.76861,0.2202 0.22401,0.1467 0.390091,0.3514 0.498244,0.6141 0.108139,0.2626 0.162212,0.6566 0.162219,1.1819 l 0,2.2942 -0.552317,0 0,-2.2942 c -7e-6,-0.4506 -0.03219,-0.7596 -0.09656,-0.927 -0.06438,-0.1699 -0.1751,-0.3064 -0.332163,-0.4094 -0.1545,-0.103 -0.339894,-0.1545 -0.55618,-0.1545 -0.262646,0 -0.503399,0.077 -0.722262,0.2317 -0.216296,0.1545 -0.374653,0.3605 -0.47507,0.618 -0.100425,0.2575 -0.150636,0.6875 -0.150632,1.29 l 0,1.6454 -0.536868,0 0,-2.1513 c -3e-6,-0.5073 -0.03219,-0.851 -0.09656,-1.0313 -0.0618,-0.1828 -0.171234,-0.3283 -0.3283,-0.4364 -0.157073,-0.1107 -0.343753,-0.1661 -0.560043,-0.1661 -0.249768,0 -0.484084,0.076 -0.702949,0.2279 -0.216294,0.1493 -0.377225,0.3514 -0.482795,0.6064 -0.102998,0.2549 -0.154496,0.645 -0.154495,1.1703 l 0,1.7805 -0.536868,0 0,-4.2022"
         style="font-size:7.91011332999999972px;font-family:Century Gothic;-inkscape-font-specification:Century Gothic;fill:#ffffff"
         id="path3588" />
      <path
         d="m 24.142781,1001.2867 c 0.123594,0 0.229165,0.044 0.316713,0.1313 0.08755,0.088 0.131319,0.1932 0.131321,0.3167 -2e-6,0.1211 -0.04378,0.2254 -0.131321,0.3129 -0.08755,0.088 -0.193119,0.1313 -0.316713,0.1313 -0.121022,0 -0.225305,-0.044 -0.312851,-0.1313 -0.08755,-0.087 -0.131321,-0.1918 -0.131321,-0.3129 0,-0.1235 0.04377,-0.2291 0.131321,-0.3167 0.08755,-0.087 0.191829,-0.1313 0.312851,-0.1313 m -0.270365,1.7304 0.544592,0 0,4.2022 -0.544592,0 0,-4.2022"
         style="font-size:7.91011332999999972px;font-family:Century Gothic;-inkscape-font-specification:Century Gothic;fill:#ffffff"
         id="path3590" />
      <path
         d="m 29.638919,1003.8899 -0.428722,0.2665 c -0.37079,-0.4918 -0.876759,-0.7377 -1.517907,-0.7377 -0.512409,0 -0.938556,0.1648 -1.278441,0.4944 -0.337314,0.3296 -0.505971,0.73 -0.50597,1.2012 -1e-6,0.3064 0.07725,0.5948 0.231742,0.8652 0.157068,0.2703 0.370785,0.4802 0.641152,0.6295 0.272938,0.1494 0.578064,0.2241 0.915379,0.2241 0.617974,0 1.122656,-0.2459 1.514045,-0.7377 l 0.428722,0.2819 c -0.200847,0.3013 -0.471212,0.5356 -0.811095,0.703 -0.337317,0.1647 -0.722265,0.2471 -1.154846,0.2471 -0.664328,0 -1.215357,-0.2111 -1.65309,-0.6334 -0.437735,-0.4223 -0.656602,-0.936 -0.656601,-1.5411 -1e-6,-0.4068 0.101708,-0.784 0.305126,-1.1316 0.205992,-0.3502 0.487944,-0.6232 0.845857,-0.8189 0.35791,-0.1956 0.758308,-0.2935 1.201194,-0.2935 0.278087,0 0.545877,0.043 0.803371,0.1275 0.260062,0.085 0.480216,0.1957 0.660463,0.3321 0.180239,0.1365 0.333446,0.3103 0.459621,0.5214"
         style="font-size:7.91011332999999972px;font-family:Century Gothic;-inkscape-font-specification:Century Gothic;fill:#ffffff"
         id="path3592" />
      <path
         d="m 30.469327,1003.0171 0.552317,0 0,0.6141 c 0.164793,-0.2421 0.338599,-0.4223 0.521419,-0.5408 0.182817,-0.121 0.373359,-0.1815 0.571629,-0.1815 0.149342,0 0.308987,0.048 0.478933,0.1429 l -0.281953,0.4558 c -0.113298,-0.049 -0.208569,-0.073 -0.285814,-0.073 -0.180245,0 -0.354051,0.075 -0.521419,0.224 -0.16737,0.1468 -0.294828,0.3759 -0.382373,0.6875 -0.06695,0.2395 -0.100423,0.7236 -0.100422,1.4523 l 0,1.4213 -0.552317,0 0,-4.2022"
         style="font-size:7.91011332999999972px;font-family:Century Gothic;-inkscape-font-specification:Century Gothic;fill:#ffffff"
         id="path3594" />
      <path
         d="m 35.042361,1002.9089 c 0.646298,0 1.181878,0.2343 1.606741,0.703 0.386232,0.4274 0.57935,0.9334 0.579354,1.5179 -4e-6,0.587 -0.204709,1.1007 -0.614115,1.541 -0.406839,0.4378 -0.930832,0.6566 -1.57198,0.6566 -0.643729,0 -1.170297,-0.2188 -1.579706,-0.6566 -0.406836,-0.4403 -0.610253,-0.954 -0.610253,-1.541 0,-0.582 0.193118,-1.0866 0.579354,-1.5141 0.424859,-0.4712 0.961726,-0.7068 1.610605,-0.7068 m 0,0.5291 c -0.448036,10e-5 -0.832985,0.1661 -1.154846,0.4983 -0.321865,0.3322 -0.482796,0.7338 -0.482795,1.205 -10e-7,0.3039 0.07338,0.5871 0.220154,0.8498 0.146769,0.2626 0.345036,0.466 0.594804,0.6102 0.249764,0.1416 0.523991,0.2125 0.822683,0.2125 0.298686,0 0.572913,-0.071 0.822682,-0.2125 0.249763,-0.1442 0.44803,-0.3476 0.594804,-0.6102 0.146765,-0.2627 0.22015,-0.5459 0.220154,-0.8498 -4e-6,-0.4712 -0.162223,-0.8728 -0.486657,-1.205 -0.321867,-0.3322 -0.705528,-0.4982 -1.150983,-0.4983"
         style="font-size:7.91011332999999972px;font-family:Century Gothic;-inkscape-font-specification:Century Gothic;fill:#ffffff"
         id="path3596" />
      <path
         d="m 37.730563,1006.161 0.482795,-0.2897 c 0.339886,0.6257 0.732559,0.9386 1.178019,0.9386 0.190542,0 0.369497,-0.044 0.536868,-0.1313 0.167367,-0.09 0.294825,-0.2099 0.382374,-0.3592 0.08754,-0.1494 0.131318,-0.3077 0.13132,-0.4751 -2e-6,-0.1905 -0.06437,-0.3772 -0.193118,-0.56 -0.177671,-0.2524 -0.502109,-0.5562 -0.973314,-0.9116 -0.473784,-0.3579 -0.768611,-0.6166 -0.884481,-0.7763 -0.200843,-0.2678 -0.301264,-0.5575 -0.301264,-0.869 0,-0.2472 0.05922,-0.4725 0.177669,-0.6759 0.118445,-0.2035 0.284526,-0.3631 0.498244,-0.479 0.216291,-0.1184 0.450607,-0.1776 0.70295,-0.1776 0.267788,0 0.517553,0.067 0.749297,0.2008 0.234314,0.1313 0.481505,0.3747 0.741574,0.73 l -0.463484,0.3515 c -0.21372,-0.2833 -0.396538,-0.47 -0.548455,-0.5601 -0.149347,-0.09 -0.312853,-0.1352 -0.490519,-0.1352 -0.229169,0 -0.417137,0.07 -0.563905,0.2086 -0.144196,0.1391 -0.216293,0.3103 -0.216292,0.5137 -1e-6,0.1236 0.02575,0.2433 0.07725,0.3592 0.0515,0.1159 0.145481,0.242 0.281952,0.3785 0.07467,0.072 0.319287,0.2614 0.733849,0.5678 0.491804,0.363 0.829117,0.6862 1.011938,0.9694 0.182815,0.2833 0.274224,0.5678 0.274228,0.8536 -4e-6,0.412 -0.157073,0.7699 -0.471208,1.0737 -0.311567,0.3039 -0.691365,0.4558 -1.139397,0.4558 -0.345039,0 -0.657889,-0.091 -0.938553,-0.2742 -0.280665,-0.1854 -0.539443,-0.4944 -0.776334,-0.927"
         style="font-size:7.91011332999999972px;font-family:Century Gothic;-inkscape-font-specification:Century Gothic;fill:#ffffff"
         id="path3598" />
      <path
         d="m 42.257249,1007.2193 0,-5.6815 1.17802,0 c 0.849716,0 1.466406,0.068 1.85007,0.2047 0.551026,0.1931 0.981035,0.5278 1.290028,1.0042 0.311559,0.4763 0.467341,1.0441 0.467346,1.7033 -5e-6,0.569 -0.123601,1.0699 -0.370787,1.5024 -0.244621,0.4326 -0.563909,0.7519 -0.957865,0.9579 -0.391389,0.206 -0.941131,0.309 -1.649228,0.309 l -1.807584,0 m 0.544593,-0.5369 0.656601,0 c 0.785344,0 1.329936,-0.049 1.633778,-0.1467 0.427431,-0.1391 0.763456,-0.3888 1.008076,-0.7493 0.244612,-0.3631 0.366919,-0.806 0.366924,-1.3287 -5e-6,-0.5484 -0.132612,-1.0171 -0.397823,-1.4059 -0.265219,-0.3888 -0.634718,-0.6553 -1.108497,-0.7995 -0.35534,-0.1081 -0.941131,-0.1622 -1.757374,-0.1622 l -0.401685,0 0,4.5923"
         style="font-size:7.91011332999999972px;font-family:Century Gothic;-inkscape-font-specification:Century Gothic;fill:#ffffff"
         id="path3600" />
      <path
         d="m 48.13576,1001.5378 0.57163,0 0,2.383 2.889045,0 0,-2.383 0.571629,0 0,5.6815 -0.571629,0 0,-2.7423 -2.889045,0 0,2.7423 -0.57163,0 0,-5.6815"
         style="font-size:7.91011332999999972px;font-family:Century Gothic;-inkscape-font-specification:Century Gothic;fill:#ffffff"
         id="path3602" />
      <path
         d="m 58.842221,1002.5922 -0.448034,0.3437 c -0.247196,-0.3218 -0.544597,-0.5651 -0.892205,-0.7299 -0.345041,-0.1674 -0.72484,-0.2511 -1.139396,-0.2511 -0.453187,0 -0.872896,0.1094 -1.259129,0.3283 -0.386238,0.2163 -0.686214,0.5086 -0.89993,0.8768 -0.211144,0.3656 -0.316715,0.7776 -0.316714,1.2359 -10e-7,0.6927 0.23689,1.2707 0.710675,1.7342 0.476355,0.4635 1.076308,0.6952 1.799859,0.6952 0.795642,0 1.461255,-0.3115 1.99684,-0.9347 l 0.448034,0.3399 c -0.283245,0.3605 -0.637295,0.6399 -1.062149,0.8382 -0.422289,0.1957 -0.894784,0.2935 -1.417486,0.2935 -0.993916,0 -1.777975,-0.3309 -2.352177,-0.9926 -0.481508,-0.5588 -0.722262,-1.2334 -0.722261,-2.0239 -10e-7,-0.8317 0.290963,-1.5308 0.872893,-2.0973 0.584502,-0.569 1.315775,-0.8535 2.19382,-0.8535 0.530427,0 1.009359,0.1055 1.436798,0.3167 0.427429,0.2085 0.777616,0.5021 1.050562,0.8806"
         style="font-size:7.91011332999999972px;font-family:Century Gothic;-inkscape-font-specification:Century Gothic;fill:#ffffff"
         id="path3604" />
      <path
         d="m 59.369242,1000.7212 0,-0.359 2.026029,0 0,0.359 -0.823466,0 0,3.3341 -0.376586,0 0,-3.3341 -0.825977,0"
         style="font-size:5.14164591000000026px;baseline-shift:super;font-family:Century Gothic;-inkscape-font-specification:Century Gothic;fill:#ffffff"
         id="path3606" />
      <path
         d="m 61.746753,1004.0553 0.524709,-3.6931 0.06025,0 1.50132,3.0303 1.486257,-3.0303 0.06025,0 0.52973,3.6931 -0.364032,0 -0.361522,-2.6412 -1.305496,2.6412 -0.09289,0 -1.32307,-2.6612 -0.359012,2.6612 -0.356501,0"
         style="font-size:5.14164591000000026px;baseline-shift:super;font-family:Century Gothic;-inkscape-font-specification:Century Gothic;fill:#ffffff"
         id="path3608" />
    </g>
    <rect
       style="fill:#ffffff;fill-opacity:1;stroke:none"
       id="rect3433"
       width="70"
       height="1"
       x="13"
       y="1029.3622"
       rx="0"
       ry="0" />
  </g>
</svg>
