<?xml version="1.0" encoding="UTF-8" standalone="no"?>
<svg
   width="64"
   height="64"
   version="1.1"
   id="svg36"
   sodipodi:docname="media-tape.svg"
   inkscape:version="1.1.2 (0a00cf5339, 2022-02-04, custom)"
   xmlns:inkscape="http://www.inkscape.org/namespaces/inkscape"
   xmlns:sodipodi="http://sodipodi.sourceforge.net/DTD/sodipodi-0.dtd"
   xmlns:xlink="http://www.w3.org/1999/xlink"
   xmlns="http://www.w3.org/2000/svg"
   xmlns:svg="http://www.w3.org/2000/svg">
  <defs
     id="defs40">
    <linearGradient
       inkscape:collect="always"
       id="linearGradient6056">
      <stop
         style="stop-color:#1e1e1e;stop-opacity:1"
         offset="0"
         id="stop6052" />
      <stop
         style="stop-color:#3f3f3f;stop-opacity:1"
         offset="1"
         id="stop6054" />
    </linearGradient>
    <linearGradient
       inkscape:collect="always"
       id="linearGradient5474">
      <stop
         style="stop-color:#000000;stop-opacity:1"
         offset="0"
         id="stop5470" />
      <stop
         style="stop-color:#ffffff;stop-opacity:1"
         offset="1"
         id="stop5472" />
    </linearGradient>
    <linearGradient
       inkscape:collect="always"
       id="linearGradient2640">
      <stop
         style="stop-color:#000000;stop-opacity:1"
         offset="0"
         id="stop2636" />
      <stop
         style="stop-color:#000000;stop-opacity:1"
         offset="1"
         id="stop2638" />
    </linearGradient>
    <linearGradient
       inkscape:collect="always"
       id="linearGradient2001">
      <stop
         style="stop-color:#1eb26f;stop-opacity:1"
         offset="0"
         id="stop1997" />
      <stop
         style="stop-color:#1eb6a0;stop-opacity:1"
         offset="1"
         id="stop1999" />
    </linearGradient>
    <linearGradient
       inkscape:collect="always"
       id="linearGradient1787">
      <stop
         style="stop-color:#0071e2;stop-opacity:1;"
         offset="0"
         id="stop1783" />
      <stop
         style="stop-color:#39a6f4;stop-opacity:1"
         offset="1"
         id="stop1785" />
    </linearGradient>
    <linearGradient
       inkscape:collect="always"
       id="linearGradient1637">
      <stop
         style="stop-color:#874f29;stop-opacity:1;"
         offset="0"
         id="stop1633" />
      <stop
         style="stop-color:#c38d29;stop-opacity:1"
         offset="1"
         id="stop1635" />
    </linearGradient>
    <linearGradient
       inkscape:collect="always"
       xlink:href="#linearGradient1637"
       id="linearGradient1639"
       x1="25.09"
       y1="1092.8041"
       x2="25.095236"
       y2="1087.2815"
       gradientUnits="userSpaceOnUse" />
    <linearGradient
       inkscape:collect="always"
       xlink:href="#linearGradient1787"
       id="linearGradient1789"
       x1="11.174534"
       y1="1081.8369"
       x2="11.30687"
       y2="1072.5197"
       gradientUnits="userSpaceOnUse" />
    <linearGradient
       inkscape:collect="always"
       xlink:href="#linearGradient2001"
       id="linearGradient2003"
       x1="9"
       y1="39.451172"
       x2="9"
       y2="25"
       gradientUnits="userSpaceOnUse" />
    <radialGradient
       inkscape:collect="always"
       xlink:href="#linearGradient2640"
       id="radialGradient2642"
       cx="32.036611"
       cy="1086.5057"
       fx="32.036611"
       fy="1086.5057"
       r="22.990829"
       gradientTransform="matrix(1,0,0,0.60833096,0,425.55064)"
       gradientUnits="userSpaceOnUse" />
    <filter
       inkscape:collect="always"
       style="color-interpolation-filters:sRGB"
       id="filter2930"
       x="-0.042364397"
       y="-0.069640376"
       width="1.0847288"
       height="1.1392808">
      <feGaussianBlur
         inkscape:collect="always"
         stdDeviation="0.81166054"
         id="feGaussianBlur2932" />
    </filter>
    <linearGradient
       inkscape:collect="always"
       xlink:href="#linearGradient5474"
       id="linearGradient5468"
       x1="31.610579"
       y1="1108.9883"
       x2="32.320892"
       y2="1118.1221"
       gradientUnits="userSpaceOnUse" />
    <linearGradient
       inkscape:collect="always"
       xlink:href="#linearGradient6056"
       id="linearGradient6058"
       x1="7.5258555"
       y1="1066.5197"
       x2="6.7682972"
       y2="1111.5947"
       gradientUnits="userSpaceOnUse" />
  </defs>
  <sodipodi:namedview
     id="namedview38"
     pagecolor="#ffffff"
     bordercolor="#666666"
     borderopacity="1.0"
     inkscape:pageshadow="2"
     inkscape:pageopacity="0.0"
     inkscape:pagecheckerboard="0"
     showgrid="false"
     inkscape:zoom="5.5257491"
     inkscape:cx="20.630687"
     inkscape:cy="42.528171"
     inkscape:window-width="1366"
     inkscape:window-height="703"
     inkscape:window-x="0"
     inkscape:window-y="37"
     inkscape:window-maximized="1"
     inkscape:current-layer="g34" />
  <g
     transform="translate(0,-1058.5197)"
     id="g34">
    <path
       style="opacity:0.2;fill-opacity:1;fill:url(#linearGradient5468)"
       d="m 3,1108.6271 v 1 c 0,2.7089 2.0181735,4.8926 4.5253906,4.8926 H 56.474609 c 2.507217,0 4.525391,-2.1837 4.525391,-4.8926 v -1 c 0,2.7089 -2.018174,4.8926 -4.525391,4.8926 H 7.5253906 C 5.0181735,1113.5197 3,1111.336 3,1108.6271 Z"
       id="path2" />
    <path
       style="fill:url(#linearGradient6058);fill-opacity:1"
       d="m 7.5258554,1066.5196 c -2.507217,0 -4.5258558,2.1833 -4.5258558,4.8922 v 37.2156 c 0,2.7089 2.0186387,4.8922 4.5258558,4.8922 H 56.474144 c 2.507217,0 4.525856,-2.1833 4.525856,-4.8922 v -37.2156 c 0,-2.7089 -2.018639,-4.8922 -4.525856,-4.8922 z m 12.0455726,17.2794 a 6.2142858,6.220599 0 0 1 6.214286,6.2207 6.2142858,6.220599 0 0 1 -6.214286,6.2205 6.2142858,6.220599 0 0 1 -6.214285,-6.2205 6.2142858,6.220599 0 0 1 6.214285,-6.2207 z m 24.857144,0 a 6.2142858,6.220599 0 0 1 6.214285,6.2207 6.2142858,6.220599 0 0 1 -6.214285,6.2205 6.2142858,6.220599 0 0 1 -6.214286,-6.2205 6.2142858,6.220599 0 0 1 6.214286,-6.2207 z"
       id="path4" />
    <rect
       style="opacity:0.22407381;fill:url(#radialGradient2642);fill-opacity:1;stroke:none;stroke-width:6.79517;stroke-linejoin:bevel;paint-order:stroke fill markers;filter:url(#filter2930)"
       id="rect2253"
       width="45.981659"
       height="27.972067"
       x="9.0457811"
       y="1072.5197"
       rx="2.4592111"
       ry="3.5322201" />
    <path
       style="fill:#828282;fill-opacity:1"
       d="m 8.9999998,1113.5197 5.4117632,-10 h 35.176472 l 5.411765,10 z"
       id="path6" />
    <path
       style="fill:url(#linearGradient1789);fill-opacity:1"
       d="m 11.30687,1072.5197 c -1.278768,0 -2.3068701,1.2071 -2.3068701,2.7083 v 8.2917 H 55 v -8.2917 c 0,-1.5012 -1.028107,-2.7083 -2.306871,-2.7083 z"
       id="path8" />
    <path
       style="fill:url(#linearGradient2003);fill-opacity:1"
       transform="translate(0,1058.5197)"
       d="M 9 25 L 9 39.451172 C 9 40.864072 10.027873 42 11.306641 42 L 52.693359 42 C 53.972123 42 55 40.864072 55 39.451172 L 55 25 L 9 25 z M 20 26.5 A 4.5 4.5 0 0 1 24.5 31 A 4.5 4.5 0 0 1 20 35.5 A 4.5 4.5 0 0 1 15.5 31 A 4.5 4.5 0 0 1 20 26.5 z M 44 26.5 A 4.5 4.5 0 0 1 48.5 31 A 4.5 4.5 0 0 1 44 35.5 A 4.5 4.5 0 0 1 39.5 31 A 4.5 4.5 0 0 1 44 26.5 z"
       id="path10" />
    <circle
       style="opacity:0.4"
       cx="19.5"
       cy="1108.02"
       r="2.5"
       id="circle12" />
    <path
       style="fill:#1e1e1e;fill-opacity:1"
       transform="translate(0,1058.5197)"
       d="M 20 25 A 6 6 0 0 0 14 31 A 6 6 0 0 0 20 37 L 44 37 A 6 6 0 0 0 50 31 A 6 6 0 0 0 44 25 L 20 25 z M 20 27 A 4 4 0 0 1 24 31 A 4 4 0 0 1 20 35 A 4 4 0 0 1 16 31 A 4 4 0 0 1 20 27 z M 44 27 A 4 4 0 0 1 48 31 A 4 4 0 0 1 44 35 A 4 4 0 0 1 40 31 A 4 4 0 0 1 44 27 z"
       id="path14" />
    <g
       transform="matrix(1.0137931,0,0,1.0862069,-0.44136325,-94.492961)"
       id="g20">
      <rect
         style="fill:#cccccc"
         width="13.81"
         height="5.524"
         x="25.09"
         y="1087.28"
         id="rect16" />
      <path
         style="fill:url(#linearGradient1639);fill-opacity:1"
         d="m 25.095235,1087.2815 v 5.5238 h 5.435294 c 0.316646,-0.8865 0.479913,-1.8205 0.482789,-2.7618 -0.0029,-0.9414 -0.16612,-1.8754 -0.482789,-2.762 z"
         id="path18" />
    </g>
    <circle
       style="opacity:0.4"
       cx="44.5"
       cy="1108.02"
       r="2.5"
       id="circle22" />
  </g>
</svg>
