<?xml version="1.0" encoding="UTF-8" standalone="no"?>
<svg
   width="64"
   height="64"
   version="1.1"
   id="svg26"
   sodipodi:docname="network-server.svg"
   inkscape:version="1.1.2 (0a00cf5339, 2022-02-04, custom)"
   xmlns:inkscape="http://www.inkscape.org/namespaces/inkscape"
   xmlns:sodipodi="http://sodipodi.sourceforge.net/DTD/sodipodi-0.dtd"
   xmlns="http://www.w3.org/2000/svg"
   xmlns:svg="http://www.w3.org/2000/svg">
  <defs
     id="defs30" />
  <sodipodi:namedview
     id="namedview28"
     pagecolor="#ffffff"
     bordercolor="#666666"
     borderopacity="1.0"
     inkscape:pageshadow="2"
     inkscape:pageopacity="0.0"
     inkscape:pagecheckerboard="0"
     showgrid="false"
     inkscape:zoom="8.0625"
     inkscape:cx="32"
     inkscape:cy="32"
     inkscape:window-width="1366"
     inkscape:window-height="703"
     inkscape:window-x="0"
     inkscape:window-y="37"
     inkscape:window-maximized="1"
     inkscape:current-layer="svg26" />
  <rect
     x="16"
     y="11"
     width="32"
     height="42"
     rx="3"
     ry="3"
     fill="#666"
     style="paint-order:stroke fill markers"
     id="rect2" />
  <path
     d="M8 5C5.784 5 4 6.784 4 9v8c0 2.216 1.784 4 4 4h48c2.216 0 4-1.784 4-4V9c0-2.216-1.784-4-4-4H8zm0 19c-2.216 0-4 1.784-4 4v8c0 2.216 1.784 4 4 4h48c2.216 0 4-1.784 4-4v-8c0-2.216-1.784-4-4-4H8zm0 19c-2.216 0-4 1.784-4 4v8c0 2.216 1.784 4 4 4h48c2.216 0 4-1.784 4-4v-8c0-2.216-1.784-4-4-4H8z"
     fill="#f9f9f9"
     id="path4" />
  <circle
     cx="47.5"
     cy="12.5"
     r="2.5"
     fill="#fff"
     id="circle8"
     style="fill:#aaaaaa;fill-opacity:0.69803923" />
  <g
     fill="#fff"
     color="#000"
     id="g12"
     style="fill:#aaaaaa;fill-opacity:0.69803923">
    <path
       d="m25 10-4 6m-2-6-4 6m-2-6-4 6m22-6-4 6M13 9a1 1 0 0 0-.832.445l-4 6a1 1 0 0 0 .277 1.387 1 1 0 0 0 1.387-.277l4-6a1 1 0 0 0-.277-1.387A1 1 0 0 0 13 9zm6 0a1 1 0 0 0-.832.445l-4 6a1 1 0 0 0 .277 1.387 1 1 0 0 0 1.387-.277l4-6a1 1 0 0 0-.277-1.387A1 1 0 0 0 19 9zm6 0a1 1 0 0 0-.832.445l-4 6a1 1 0 0 0 .277 1.387 1 1 0 0 0 1.387-.277l4-6a1 1 0 0 0-.277-1.387A1 1 0 0 0 25 9zm6 0a1 1 0 0 0-.832.445l-4 6a1 1 0 0 0 .277 1.387 1 1 0 0 0 1.387-.277l4-6a1 1 0 0 0-.277-1.387A1 1 0 0 0 31 9z"
       style="font-feature-settings:normal;font-variant-alternates:normal;font-variant-caps:normal;font-variant-east-asian:normal;font-variant-ligatures:normal;font-variant-numeric:normal;font-variant-position:normal;font-variation-settings:normal;inline-size:0;isolation:auto;mix-blend-mode:normal;shape-margin:0;shape-padding:0;text-decoration-color:#000;text-decoration-line:none;text-decoration-style:solid;text-indent:0;text-orientation:mixed;text-transform:none;white-space:normal;fill:#aaaaaa;fill-opacity:0.69803923"
       transform="translate(4)"
       id="path10" />
  </g>
  <circle
     cx="47.5"
     cy="31.5"
     r="2.5"
     fill="#fff"
     id="circle14"
     style="fill:#aaaaaa;fill-opacity:0.69803923" />
  <g
     fill="#fff"
     color="#000"
     id="g18"
     style="fill:#aaaaaa;fill-opacity:0.69803923">
    <path
       d="m25 10-4 6m-2-6-4 6m-2-6-4 6m22-6-4 6M13 9a1 1 0 0 0-.832.445l-4 6a1 1 0 0 0 .277 1.387 1 1 0 0 0 1.387-.277l4-6a1 1 0 0 0-.277-1.387A1 1 0 0 0 13 9zm6 0a1 1 0 0 0-.832.445l-4 6a1 1 0 0 0 .277 1.387 1 1 0 0 0 1.387-.277l4-6a1 1 0 0 0-.277-1.387A1 1 0 0 0 19 9zm6 0a1 1 0 0 0-.832.445l-4 6a1 1 0 0 0 .277 1.387 1 1 0 0 0 1.387-.277l4-6a1 1 0 0 0-.277-1.387A1 1 0 0 0 25 9zm6 0a1 1 0 0 0-.832.445l-4 6a1 1 0 0 0 .277 1.387 1 1 0 0 0 1.387-.277l4-6a1 1 0 0 0-.277-1.387A1 1 0 0 0 31 9z"
       style="font-feature-settings:normal;font-variant-alternates:normal;font-variant-caps:normal;font-variant-east-asian:normal;font-variant-ligatures:normal;font-variant-numeric:normal;font-variant-position:normal;font-variation-settings:normal;inline-size:0;isolation:auto;mix-blend-mode:normal;shape-margin:0;shape-padding:0;text-decoration-color:#000;text-decoration-line:none;text-decoration-style:solid;text-indent:0;text-orientation:mixed;text-transform:none;white-space:normal;fill:#aaaaaa;fill-opacity:0.69803923"
       transform="translate(4 19)"
       id="path16" />
  </g>
  <circle
     cx="47.5"
     cy="50.5"
     r="2.5"
     fill="#fff"
     id="circle20"
     style="fill:#aaaaaa;fill-opacity:0.69803923" />
  <g
     fill="#fff"
     color="#000"
     id="g24"
     style="fill:#aaaaaa;fill-opacity:0.69803923">
    <path
       d="m25 10-4 6m-2-6-4 6m-2-6-4 6m22-6-4 6M13 9a1 1 0 0 0-.832.445l-4 6a1 1 0 0 0 .277 1.387 1 1 0 0 0 1.387-.277l4-6a1 1 0 0 0-.277-1.387A1 1 0 0 0 13 9zm6 0a1 1 0 0 0-.832.445l-4 6a1 1 0 0 0 .277 1.387 1 1 0 0 0 1.387-.277l4-6a1 1 0 0 0-.277-1.387A1 1 0 0 0 19 9zm6 0a1 1 0 0 0-.832.445l-4 6a1 1 0 0 0 .277 1.387 1 1 0 0 0 1.387-.277l4-6a1 1 0 0 0-.277-1.387A1 1 0 0 0 25 9zm6 0a1 1 0 0 0-.832.445l-4 6a1 1 0 0 0 .277 1.387 1 1 0 0 0 1.387-.277l4-6a1 1 0 0 0-.277-1.387A1 1 0 0 0 31 9z"
       style="font-feature-settings:normal;font-variant-alternates:normal;font-variant-caps:normal;font-variant-east-asian:normal;font-variant-ligatures:normal;font-variant-numeric:normal;font-variant-position:normal;font-variation-settings:normal;inline-size:0;isolation:auto;mix-blend-mode:normal;shape-margin:0;shape-padding:0;text-decoration-color:#000;text-decoration-line:none;text-decoration-style:solid;text-indent:0;text-orientation:mixed;text-transform:none;white-space:normal;fill:#aaaaaa;fill-opacity:0.69803923"
       transform="translate(4 38)"
       id="path22" />
  </g>
</svg>
