<?xml version="1.0" encoding="UTF-8" standalone="no"?>
<svg
   width="64"
   height="64"
   version="1.1"
   viewBox="0 0 64 64"
   id="svg74"
   sodipodi:docname="notification-display-brightness-off.svg"
   inkscape:version="1.1.2 (0a00cf5339, 2022-02-04, custom)"
   xmlns:inkscape="http://www.inkscape.org/namespaces/inkscape"
   xmlns:sodipodi="http://sodipodi.sourceforge.net/DTD/sodipodi-0.dtd"
   xmlns:xlink="http://www.w3.org/1999/xlink"
   xmlns="http://www.w3.org/2000/svg"
   xmlns:svg="http://www.w3.org/2000/svg">
  <defs
     id="defs78">
    <linearGradient
       id="linearGradient1033"
       x1="11.993"
       x2="11.993"
       y1="15.289"
       y2="8.3841"
       gradientTransform="matrix(7.1129025,0,0,7.2245925,15.972981,19.026923)"
       gradientUnits="userSpaceOnUse">
      <stop
         stop-color="#dbdbdb"
         offset="0"
         id="stop17"
         style="stop-color:#c01111;stop-opacity:1" />
      <stop
         stop-color="#f5f5f5"
         offset="1"
         id="stop19"
         style="stop-color:#f82121;stop-opacity:1" />
    </linearGradient>
  </defs>
  <sodipodi:namedview
     id="namedview76"
     pagecolor="#ffffff"
     bordercolor="#666666"
     borderopacity="1.0"
     inkscape:pageshadow="2"
     inkscape:pageopacity="0.0"
     inkscape:pagecheckerboard="0"
     showgrid="false"
     inkscape:zoom="5.9552879"
     inkscape:cx="33.079845"
     inkscape:cy="30.561075"
     inkscape:window-width="1366"
     inkscape:window-height="703"
     inkscape:window-x="0"
     inkscape:window-y="37"
     inkscape:window-maximized="1"
     inkscape:current-layer="g72" />
  <linearGradient
     id="a">
    <stop
       stop-color="#909090"
       offset="0"
       id="stop2" />
    <stop
       stop-color="#636363"
       stop-opacity="0"
       offset="1"
       id="stop4" />
  </linearGradient>
  <radialGradient
     id="b"
     cx="199.22"
     cy="60.978"
     r="62.148"
     gradientTransform="matrix(1.0119,3e-8,-1.5e-7,5.0958,-134.28,-251.23)"
     gradientUnits="userSpaceOnUse">
    <stop
       stop-color="#e6e6e8"
       offset="0"
       id="stop7" />
    <stop
       stop-color="#cbccce"
       offset="1"
       id="stop9" />
  </radialGradient>
  <radialGradient
     id="c"
     cx="199.22"
     cy="60.978"
     r="62.148"
     gradientTransform="matrix(1.3103,-4e-8,1e-7,3.6151,-193.73,-160.94)"
     gradientUnits="userSpaceOnUse">
    <stop
       stop-color="#ececef"
       offset="0"
       id="stop12" />
    <stop
       stop-color="#cbccce"
       stop-opacity="0"
       offset="1"
       id="stop14" />
  </radialGradient>
  <filter
     id="d"
     x="-0.014479607"
     y="-0.01731424"
     width="1.0289592"
     height="1.0346285"
     color-interpolation-filters="sRGB">
    <feGaussianBlur
       stdDeviation=".74992302"
       id="feGaussianBlur17" />
  </filter>
  <linearGradient
     id="e"
     x1="174.79"
     x2="174.86"
     y1="109.47"
     y2="118.12"
     gradientUnits="userSpaceOnUse">
    <stop
       stop-color="#909090"
       offset="0"
       id="stop20" />
    <stop
       stop-color="#727272"
       stop-opacity="0"
       offset="1"
       id="stop22" />
  </linearGradient>
  <radialGradient
     id="f"
     cx="178.79"
     cy="120.7"
     r="22.055"
     gradientTransform="matrix(3.8591,-2.3e-7,0,0.1388,-511.17,103.95)"
     gradientUnits="userSpaceOnUse"
     xlink:href="#a" />
  <filter
     id="g"
     x="-0.024991525"
     y="-0.5039996"
     width="1.0499831"
     height="2.0079992"
     color-interpolation-filters="sRGB">
    <feGaussianBlur
       stdDeviation=".32830532"
       id="feGaussianBlur26" />
  </filter>
  <filter
     id="h"
     x="-0.080466326"
     y="-0.24545603"
     width="1.1609327"
     height="1.4909121"
     color-interpolation-filters="sRGB">
    <feGaussianBlur
       stdDeviation="1.4789442"
       id="feGaussianBlur29" />
  </filter>
  <linearGradient
     id="i"
     x1="183.06"
     x2="183.06"
     y1="129.42"
     y2="127.06"
     gradientUnits="userSpaceOnUse"
     xlink:href="#a" />
  <linearGradient
     id="j"
     x1="23.844"
     x2="23.816"
     y1="17.574"
     y2="85.151"
     gradientUnits="userSpaceOnUse">
    <stop
       stop-color="#1bd2fa"
       offset="0"
       id="stop33"
       style="stop-color:#787cbc;stop-opacity:1" />
    <stop
       stop-color="#1c7ef2"
       offset="1"
       id="stop35"
       style="stop-color:#ff7a98;stop-opacity:1" />
  </linearGradient>
  <g
     transform="matrix(.48966 0 0 .48209 -.95621 -1.3862)"
     id="g72">
    <path
       d="m10.318 12.352v73.33h113.49v-73.33zm0.55273 0.50781h112.48v72.361h-112.48z"
       fill-opacity=".21198"
       stroke-width="2.0582"
       id="path68" />
    <g
       stroke-width="2.0582"
       id="g64"
       transform="translate(0,-7e-4)">
      <rect
         x="5.1564002"
         y="8.7788"
         width="124.3"
         height="103.95"
         rx="5.6616998"
         fill="#1a1a1a"
         filter="url(#d)"
         opacity="0.887"
         id="rect38" />
      <rect
         x="5.1564002"
         y="8.7788"
         width="124.3"
         height="103.95"
         rx="5.6616998"
         fill="url(#b)"
         id="rect40"
         style="fill:url(#b)" />
      <rect
         x="5.1564002"
         y="8.7788"
         width="124.3"
         height="103.95"
         rx="5.6616998"
         fill="url(#c)"
         id="rect42"
         style="fill:url(#c)" />
      <path
         d="m 10.818,8.778 c -3.1366,0 -5.6621,2.5256 -5.6621,5.6621 v 75.664 h 124.3 v -75.664 c 0,-3.1366 -2.5256,-5.6621 -5.6621,-5.6621 z"
         fill="#080808"
         id="path44" />
      <path
         d="m 10.318,12.353 h 113.49 V 85.682 H 10.318 Z"
         fill="url(#j)"
         id="path46"
         style="fill:url(#j)" />
      <path
         d="m 64.061635,104.62426 c 0.521269,0.0632 1.106956,0.40619 1.597099,0.46678 0.49278,0.0632 0.645273,-0.34088 0.645273,-0.34088 0,0 0.554529,-0.12575 1.137518,-0.14024 0.583553,-0.0177 1.135949,0.12328 1.135949,0.12328 0,0 0.107123,0.24939 0.307088,0.35801 0.199969,0.11092 0.630495,0.12576 0.906427,-0.16956 0.276464,-0.29742 1.014079,-0.67203 1.428258,-0.90623 0.416816,-0.2349 0.340318,-0.59266 0.07863,-0.70146 -0.261681,-0.1088 -0.475899,-0.28012 -0.459547,-0.60934 0.01419,-0.32639 -0.231097,-0.54392 -0.231097,-0.54392 0,0 0.214745,-0.7181 0.01473,-1.31296 -0.199903,-0.59213 -0.859421,-1.544463 -1.36645,-2.260409 -0.507022,-0.718101 -0.07653,-1.547118 -0.538148,-2.606589 -0.461685,-1.061097 -1.65882,-0.998361 -2.304092,-0.546109 -0.645272,0.452288 -0.447439,1.57393 -0.416314,2.106085 0.03113,0.52947 0.01423,0.90832 -0.04537,1.044458 -0.05961,0.13847 -0.475899,0.640423 -0.752364,1.061097 -0.275931,0.422827 -0.475928,1.295787 -0.677998,1.655947 -0.197865,0.35797 -0.05961,0.68433 -0.05961,0.68433 0,0 -0.138217,0.0484 -0.247441,0.28295 -0.107119,0.23208 -0.321333,0.343 -0.707023,0.41852 -0.383052,0.0798 -0.383052,0.33063 -0.290711,0.61146 0.09284,0.28011 0,0.4373 -0.107119,0.79531 -0.107095,0.3579 0.428957,0.46667 0.952329,0.52941 z m 5.418593,-1.63292 c 0.273832,0.12152 0.667426,-0.0477 0.787191,-0.16955 0.119261,-0.12116 0.20367,-0.30131 0.20367,-0.30131 0,0 0.119774,0.0604 0.107627,0.25291 -0.01257,0.19499 0.0823,0.4732 0.26169,0.56967 0.17938,0.0961 0.453212,0.22996 0.311292,0.36388 -0.144587,0.13388 -0.944425,0.46083 -1.183424,0.71594 -0.236895,0.25363 -0.548192,0.46087 -0.737615,0.39976 -0.191496,-0.0604 -0.358767,-0.32639 -0.276432,-0.71541 0.08494,-0.38744 0.156698,-0.81242 0.144555,-1.05516 -0.01262,-0.24268 -0.05962,-0.56968 0,-0.61789 0.05961,-0.0477 0.154594,-0.0247 0.154594,-0.0247 0,0 -0.04754,0.46045 0.226861,0.5815 z m -1.776986,-6.558275 c 0.26379,0 0.476432,0.265636 0.476432,0.592665 0,0.232078 -0.107122,0.433036 -0.263818,0.529506 -0.03956,-0.01766 -0.08073,-0.03533 -0.126101,-0.05475 0.09498,-0.04769 0.160904,-0.169555 0.160904,-0.309791 0,-0.183685 -0.11129,-0.334871 -0.251145,-0.334871 -0.136114,0 -0.249573,0.151186 -0.249573,0.334871 0,0.06712 0.01638,0.133877 0.04328,0.18651 -0.08231,-0.03532 -0.156699,-0.06252 -0.216315,-0.08584 -0.03113,-0.07983 -0.04961,-0.169908 -0.04961,-0.265636 3.1e-5,-0.326746 0.21211,-0.592736 0.47596,-0.592736 z m -0.653211,1.021392 c 0.129802,0.02473 0.486441,0.180152 0.618382,0.228192 0.131912,0.04592 0.278035,0.131759 0.26379,0.217596 -0.01635,0.08831 -0.0844,0.08831 -0.26379,0.199227 -0.17728,0.108798 -0.564538,0.351473 -0.688542,0.368146 -0.123471,0.01766 -0.193629,-0.05405 -0.325569,-0.140589 -0.131909,-0.08796 -0.379319,-0.293189 -0.317098,-0.401916 0,0 0.19363,-0.15048 0.278067,-0.227839 0.08443,-0.07983 0.302852,-0.268109 0.434762,-0.243383 z M 66.481257,96.52738 c 0.207874,0 0.377248,0.251153 0.377248,0.561085 0,0.05617 -0.0064,0.108798 -0.01635,0.161431 -0.0517,0.01766 -0.103384,0.0438 -0.153026,0.08796 -0.02424,0.02119 -0.04698,0.03956 -0.06752,0.0604 0.03269,-0.06252 0.04538,-0.152599 0.03057,-0.246914 -0.02848,-0.167083 -0.139817,-0.291069 -0.24904,-0.274467 -0.109752,0.01766 -0.17518,0.172027 -0.14879,0.341229 0.02904,0.171675 0.138217,0.295308 0.249545,0.276587 0.0064,-0.0018 0.0121,-0.0035 0.0185,-0.0071 -0.05328,0.05263 -0.10289,0.09855 -0.154598,0.135997 -0.150366,-0.07135 -0.261693,-0.284711 -0.261693,-0.5359 3.1e-5,-0.31191 0.166739,-0.56105 0.375146,-0.56105 z m -1.158103,4.05459 c 0.214214,-0.343 0.352429,-1.092677 0.566642,-1.341888 0.216346,-0.24868 0.383054,-0.778646 0.307088,-1.012808 0,0 0.461653,0.56105 0.782986,0.46889 0.321838,-0.09432 1.045207,-0.640388 1.152297,-0.546603 0.107123,0.09431 1.028329,2.152149 1.121173,2.807549 0.09288,0.65487 -0.06172,1.15541 -0.06172,1.15541 0,0 -0.35243,-0.0943 -0.397834,0.12328 -0.04537,0.21971 -0.04537,1.01556 -0.04537,1.01556 0,0 -0.476432,0.66985 -1.214048,0.78077 -0.737615,0.10879 -1.106955,0.0282 -1.106955,0.0282 l -0.414186,-0.48179 c 0,0 0.321868,-0.0484 0.276466,-0.37672 -0.04537,-0.3264 -0.983488,-0.77868 -1.152328,-1.18488 -0.168777,-0.40622 -0.03106,-1.09271 0.185783,-1.4362 z m -1.823956,2.45763 c 0.03693,-0.16073 0.514932,-0.16073 0.69855,-0.27376 0.18362,-0.11304 0.22052,-0.43785 0.368809,-0.52358 0.146122,-0.088 0.416281,0.22396 0.527607,0.39977 0.10922,0.17167 0.527639,0.92121 0.698583,1.10768 0.173044,0.18793 0.331878,0.43731 0.282267,0.6613 -0.04694,0.22396 -0.307057,0.38747 -0.307057,0.38747 -0.232664,0.0728 -0.881638,-0.21159 -1.176552,-0.33699 -0.294916,-0.12575 -1.045206,-0.16355 -1.141753,-0.27447 -0.09919,-0.11303 0.04747,-0.36228 0.0865,-0.59863 0.03479,-0.23914 -0.0744,-0.38743 -0.03696,-0.54872 z"
         id="path2"
         style="fill:#000000;stroke-width:0.0316226" />
      <path
         d="m 5.1558,106.01 v 1.0566 c 0,3.1366 2.5256,5.6621 5.6621,5.6621 h 112.97 c 3.1366,0 5.6621,-2.5256 5.6621,-5.6621 V 106.01 c 0,3.1366 -2.5256,5.6621 -5.6621,5.6621 h -112.97 c -3.1366,0 -5.6621,-2.5256 -5.6621,-5.6621 z"
         fill="#afafaf"
         id="path48" />
      <g
         transform="translate(-111.48,-1.4739)"
         id="g62">
        <path
           d="m 194.34,114.95 c -0.0882,3.6995 -0.94643,7.8217 4.9506,11.334 4.7067,2.9258 -2.6114,3.1267 -4.4295,3.1267 h -5.6672 -26.478 c -1.8181,0 -9.1362,-0.20092 -4.4295,-3.1267 5.8971,-3.5127 5.0389,-7.6349 4.9506,-11.334 z"
           filter="url(#h)"
           id="path50" />
        <path
           d="m 194.34,113.47 c -0.0882,3.6995 -0.94643,7.8217 4.9506,11.334 4.7067,2.9258 -2.6114,3.1267 -4.4295,3.1267 -10.492,0.46272 -21.162,0.7623 -32.145,0 -1.8181,0 -9.1362,-0.20092 -4.4295,-3.1267 5.8971,-3.5127 5.0389,-7.6349 4.9506,-11.334 z"
           fill="#e0e1e6"
           id="path52" />
        <path
           d="m 194.34,113.47 c -0.0882,3.6995 -0.94643,7.8217 4.9506,11.334 4.7067,2.9258 -2.6114,3.1267 -4.4295,3.1267 h -5.6672 -26.478 c -1.8181,0 -9.1362,-0.20092 -4.4295,-3.1267 5.8971,-3.5127 5.0389,-7.6349 4.9506,-11.334 z"
           fill="url(#e)"
           id="path54"
           style="fill:url(#e)" />
        <path
           d="m 194.34,113.47 c -0.0882,3.6995 -0.94643,7.8217 4.9506,11.334 4.7067,2.9258 -2.6114,3.1267 -4.4295,3.1267 h -5.6672 -26.478 c -1.8181,0 -9.1362,-0.20092 -4.4295,-3.1267 5.8971,-3.5127 5.0389,-7.6349 4.9506,-11.334 z"
           fill="url(#f)"
           id="path56"
           style="fill:url(#f)" />
        <ellipse
           cx="178.28999"
           cy="127.15"
           rx="15.764"
           ry="0.78167999"
           fill="#ffffff"
           filter="url(#g)"
           opacity="0.887"
           id="ellipse58" />
        <path
           d="m 194.34,113.47 c -0.0882,3.6995 -0.94643,7.8217 4.9506,11.334 4.7067,2.9258 -2.6114,3.1267 -4.4295,3.1267 h -5.6672 -26.478 c -1.8181,0 -9.1362,-0.20092 -4.4295,-3.1267 5.8971,-3.5127 5.0389,-7.6349 4.9506,-11.334 z"
           fill="url(#i)"
           id="path60"
           style="fill:url(#i)" />
      </g>
    </g>
    <path
       d="m10.818 9.0273c-3.1366 0-5.6621 2.5256-5.6621 5.6621v75.414h124.3v-75.414c0-3.1366-2.5255-5.6621-5.6621-5.6621zm-0.5 5.3262h113.49v71.328h-113.49z"
       fill="#080808"
       stroke-width="2.0582"
       id="path70" />
    <ellipse
       cx="102.54503"
       cy="105.04716"
       fill="url(#linearGradient1033)"
       stroke-width="7.16853"
       id="circle37"
       style="fill:url(#linearGradient1033)"
       rx="30.11071"
       ry="30.583523" />
    <path
       d="m 91.700485,89.636419 -4.327947,4.395912 10.844163,11.014829 -10.844163,11.01445 4.327947,4.39629 10.844545,-11.01483 10.84416,11.01483 4.32833,-4.39629 -10.84454,-11.01445 10.84454,-11.014829 -4.32833,-4.395912 -10.84416,11.014451 z"
       fill="#ffffff"
       stroke-width="4.12046"
       id="path36" />
  </g>
</svg>
