<?xml version="1.0" encoding="UTF-8" standalone="no"?>
<svg
   width="64"
   height="64"
   version="1"
   id="svg28"
   sodipodi:docname="uninterruptible-power-supply.svg"
   inkscape:version="1.1.2 (0a00cf5339, 2022-02-04, custom)"
   xmlns:inkscape="http://www.inkscape.org/namespaces/inkscape"
   xmlns:sodipodi="http://sodipodi.sourceforge.net/DTD/sodipodi-0.dtd"
   xmlns:xlink="http://www.w3.org/1999/xlink"
   xmlns="http://www.w3.org/2000/svg"
   xmlns:svg="http://www.w3.org/2000/svg">
  <defs
     id="defs32">
    <linearGradient
       inkscape:collect="always"
       id="linearGradient4912">
      <stop
         style="stop-color:#000000;stop-opacity:1;"
         offset="0"
         id="stop4908" />
      <stop
         style="stop-color:#ffffff;stop-opacity:1"
         offset="1"
         id="stop4910" />
    </linearGradient>
    <linearGradient
       inkscape:collect="always"
       id="linearGradient4669">
      <stop
         style="stop-color:#46465a;stop-opacity:1"
         offset="0"
         id="stop4665" />
      <stop
         style="stop-color:#bebebe;stop-opacity:1"
         offset="1"
         id="stop4667" />
    </linearGradient>
    <linearGradient
       inkscape:collect="always"
       id="linearGradient4283">
      <stop
         style="stop-color:#000000;stop-opacity:1"
         offset="0"
         id="stop4279" />
      <stop
         style="stop-color:#000000;stop-opacity:1"
         offset="1"
         id="stop4281" />
    </linearGradient>
    <linearGradient
       inkscape:collect="always"
       id="linearGradient3517">
      <stop
         style="stop-color:#20a303;stop-opacity:1"
         offset="0"
         id="stop3513" />
      <stop
         style="stop-color:#20a303;stop-opacity:1"
         offset="1"
         id="stop3515" />
    </linearGradient>
    <linearGradient
       inkscape:collect="always"
       id="linearGradient1115">
      <stop
         style="stop-color:#ff1212;stop-opacity:1"
         offset="0"
         id="stop1111" />
      <stop
         style="stop-color:#ff1c10;stop-opacity:1"
         offset="1"
         id="stop1113" />
    </linearGradient>
    <radialGradient
       inkscape:collect="always"
       xlink:href="#linearGradient1115"
       id="radialGradient1117"
       cx="32"
       cy="21"
       fx="32"
       fy="21"
       r="3"
       gradientUnits="userSpaceOnUse" />
    <filter
       inkscape:collect="always"
       style="color-interpolation-filters:sRGB"
       id="filter1277"
       x="-0.3"
       y="-0.3"
       width="1.6"
       height="1.6">
      <feGaussianBlur
         inkscape:collect="always"
         stdDeviation="0.75"
         id="feGaussianBlur1279" />
    </filter>
    <radialGradient
       inkscape:collect="always"
       xlink:href="#linearGradient3517"
       id="radialGradient3519"
       cx="32"
       cy="13"
       fx="32"
       fy="13"
       r="3"
       gradientUnits="userSpaceOnUse" />
    <filter
       inkscape:collect="always"
       style="color-interpolation-filters:sRGB"
       id="filter3679"
       x="-0.3"
       y="-0.3"
       width="1.6"
       height="1.6">
      <feGaussianBlur
         inkscape:collect="always"
         stdDeviation="0.75"
         id="feGaussianBlur3681" />
    </filter>
    <radialGradient
       inkscape:collect="always"
       xlink:href="#linearGradient4283"
       id="radialGradient4285"
       cx="32"
       cy="34"
       fx="32"
       fy="34"
       r="6"
       gradientUnits="userSpaceOnUse" />
    <filter
       inkscape:collect="always"
       style="color-interpolation-filters:sRGB"
       id="filter4445"
       x="-0.108"
       y="-0.108"
       width="1.216"
       height="1.216">
      <feGaussianBlur
         inkscape:collect="always"
         stdDeviation="0.54"
         id="feGaussianBlur4447" />
    </filter>
    <linearGradient
       inkscape:collect="always"
       xlink:href="#linearGradient4669"
       id="linearGradient4663"
       x1="-59.402225"
       y1="-18.794424"
       x2="-4"
       y2="-18"
       gradientUnits="userSpaceOnUse" />
    <linearGradient
       inkscape:collect="always"
       xlink:href="#linearGradient4912"
       id="linearGradient4906"
       x1="-54.481121"
       y1="-19.569954"
       x2="-70.607796"
       y2="-19.382238"
       gradientUnits="userSpaceOnUse" />
  </defs>
  <sodipodi:namedview
     id="namedview30"
     pagecolor="#ffffff"
     bordercolor="#666666"
     borderopacity="1.0"
     inkscape:pageshadow="2"
     inkscape:pageopacity="0.0"
     inkscape:pagecheckerboard="0"
     showgrid="false"
     inkscape:zoom="6.3928282"
     inkscape:cx="29.251529"
     inkscape:cy="45.989035"
     inkscape:window-width="1366"
     inkscape:window-height="703"
     inkscape:window-x="0"
     inkscape:window-y="37"
     inkscape:window-maximized="1"
     inkscape:current-layer="svg28" />
  <rect
     style="opacity:0.2;fill-opacity:1;fill:url(#linearGradient4906)"
     width="56"
     height="44"
     x="-61"
     y="-54"
     rx="4"
     ry="4"
     transform="matrix(0,-1,-1,0,0,0)"
     id="rect2" />
  <rect
     style="fill:url(#linearGradient4663);fill-opacity:1"
     width="56"
     height="44"
     x="-60"
     y="-54"
     rx="4"
     ry="4"
     transform="matrix(0,-1,-1,0,0,0)"
     id="rect4" />
  <path
     style="opacity:0.5"
     d="M 46,4 V 34 C 46,41.756 39.756,48 32,48 24.244,48 18,41.756 18,34 V 4 Z"
     id="path6" />
  <circle
     style="fill:url(#radialGradient3519);fill-opacity:1;filter:url(#filter3679)"
     cx="32"
     cy="13"
     r="3"
     id="circle20-6" />
  <circle
     style="fill:url(#radialGradient4285);fill-opacity:1;filter:url(#filter4445);opacity:0.5"
     cx="32"
     cy="34"
     r="6"
     id="circle12-7" />
  <circle
     style="fill:#8e8e8e"
     cx="32"
     cy="34"
     r="6"
     id="circle12" />
  <circle
     style="fill:url(#radialGradient1117);fill-opacity:1;filter:url(#filter1277)"
     cx="32"
     cy="21"
     r="3"
     id="circle16-3" />
  <circle
     style="fill:#ff3d17;fill-opacity:1"
     cx="32"
     cy="21"
     r="3"
     id="circle16" />
  <circle
     style="fill:#76ff03"
     cx="32"
     cy="13"
     r="3"
     id="circle20" />
  <rect
     style="opacity:0.5"
     width="34"
     height="4"
     x="15"
     y="56"
     id="rect22" />
  <path
     style="opacity:0.5"
     d="M 51,32 C 50.446,32 50,32.446 50,33 50,33.554 50.446,34 51,34 H 54 V 32 Z M 51,36 C 50.446,36 50,36.446 50,37 50,37.554 50.446,38 51,38 H 54 V 36 Z M 51,40 C 50.446,40 50,40.446 50,41 50,41.554 50.446,42 51,42 H 54 V 40 Z"
     id="path24" />
  <path
     style="opacity:0.5"
     d="M 13,32 C 13.554,32 14,32.446 14,33 14,33.554 13.554,34 13,34 H 10 V 32 Z M 13,36 C 13.554,36 14,36.446 14,37 14,37.554 13.554,38 13,38 H 10 V 36 Z M 13,40 C 13.554,40 14,40.446 14,41 14,41.554 13.554,42 13,42 H 10 V 40 Z"
     id="path26" />
</svg>
