<?xml version="1.0" encoding="UTF-8" standalone="no"?>
<svg
   width="64"
   height="64"
   version="1.1"
   id="svg95"
   sodipodi:docname="video-television.svg"
   inkscape:version="1.1.2 (0a00cf5339, 2022-02-04, custom)"
   xmlns:inkscape="http://www.inkscape.org/namespaces/inkscape"
   xmlns:sodipodi="http://sodipodi.sourceforge.net/DTD/sodipodi-0.dtd"
   xmlns:xlink="http://www.w3.org/1999/xlink"
   xmlns="http://www.w3.org/2000/svg"
   xmlns:svg="http://www.w3.org/2000/svg">
  <sodipodi:namedview
     id="namedview97"
     pagecolor="#ffffff"
     bordercolor="#666666"
     borderopacity="1.0"
     inkscape:pageshadow="2"
     inkscape:pageopacity="0.0"
     inkscape:pagecheckerboard="0"
     showgrid="false"
     inkscape:zoom="3.9010774"
     inkscape:cx="14.867688"
     inkscape:cy="28.710017"
     inkscape:window-width="1366"
     inkscape:window-height="703"
     inkscape:window-x="0"
     inkscape:window-y="37"
     inkscape:window-maximized="1"
     inkscape:current-layer="g93" />
  <defs
     id="defs43">
    <linearGradient
       id="k"
       x1="33"
       x2="24"
       y1="21"
       y2="12"
       gradientTransform="matrix(1.2857 0 0 1.2857 377.71 494.8)"
       gradientUnits="userSpaceOnUse">
      <stop
         stop-color="#ee6406"
         offset="0"
         id="stop2" />
      <stop
         stop-color="#ffce0d"
         offset="1"
         id="stop4" />
    </linearGradient>
    <filter
       id="d"
       x="-0.014479607"
       y="-0.01731424"
       width="1.0289592"
       height="1.0346285"
       color-interpolation-filters="sRGB">
      <feGaussianBlur
         stdDeviation=".74992302"
         id="feGaussianBlur7" />
    </filter>
    <radialGradient
       id="b"
       cx="199.22"
       cy="60.978"
       r="62.148"
       gradientTransform="matrix(1.0119,3e-8,-1.5e-7,5.0958,-134.28,-251.23)"
       gradientUnits="userSpaceOnUse">
      <stop
         stop-color="#e6e6e8"
         offset="0"
         id="stop10" />
      <stop
         stop-color="#cbccce"
         offset="1"
         id="stop12" />
    </radialGradient>
    <radialGradient
       id="c"
       cx="199.22"
       cy="60.978"
       r="62.148"
       gradientTransform="matrix(1.3103,-4e-8,1e-7,3.6151,-193.73,-160.94)"
       gradientUnits="userSpaceOnUse">
      <stop
         stop-color="#ececef"
         offset="0"
         id="stop15" />
      <stop
         stop-color="#cbccce"
         stop-opacity="0"
         offset="1"
         id="stop17" />
    </radialGradient>
    <linearGradient
       id="j"
       x1="23.844"
       x2="23.816"
       y1="17.574"
       y2="85.151"
       gradientUnits="userSpaceOnUse">
      <stop
         stop-color="#1bd2fa"
         offset="0"
         id="stop20" />
      <stop
         stop-color="#1c7ef2"
         offset="1"
         id="stop22" />
    </linearGradient>
    <filter
       id="h"
       x="-0.080466691"
       y="-0.24545603"
       width="1.1609334"
       height="1.4909121"
       color-interpolation-filters="sRGB">
      <feGaussianBlur
         stdDeviation="1.4789442"
         id="feGaussianBlur25" />
    </filter>
    <linearGradient
       id="e"
       x1="174.79"
       x2="174.86"
       y1="109.47"
       y2="118.12"
       gradientUnits="userSpaceOnUse">
      <stop
         stop-color="#909090"
         offset="0"
         id="stop28" />
      <stop
         stop-color="#727272"
         stop-opacity="0"
         offset="1"
         id="stop30" />
    </linearGradient>
    <radialGradient
       id="f"
       cx="178.79"
       cy="120.7"
       r="22.055"
       gradientTransform="matrix(3.8591 -2.3e-7 0 .1388 -511.17 103.95)"
       gradientUnits="userSpaceOnUse"
       xlink:href="#a" />
    <linearGradient
       id="a">
      <stop
         stop-color="#909090"
         offset="0"
         id="stop34" />
      <stop
         stop-color="#636363"
         stop-opacity="0"
         offset="1"
         id="stop36" />
    </linearGradient>
    <filter
       id="g"
       x="-0.024991525"
       y="-0.5039996"
       width="1.0499831"
       height="2.0079992"
       color-interpolation-filters="sRGB">
      <feGaussianBlur
         stdDeviation=".32830532"
         id="feGaussianBlur39" />
    </filter>
    <linearGradient
       id="i"
       x1="183.06"
       x2="183.06"
       y1="129.42"
       y2="127.06"
       gradientUnits="userSpaceOnUse"
       xlink:href="#a" />
    <filter
       id="d-3"
       x="-0.014479607"
       y="-0.01731424"
       width="1.0289592"
       height="1.0346285"
       color-interpolation-filters="sRGB">
      <feGaussianBlur
         stdDeviation=".74992302"
         id="feGaussianBlur17" />
    </filter>
    <radialGradient
       id="b-6"
       cx="199.22"
       cy="60.978001"
       r="62.147999"
       gradientTransform="matrix(0.49548695,1.44627e-8,-7.3449e-8,2.4566342,-50.516981,-119.11698)"
       gradientUnits="userSpaceOnUse">
      <stop
         stop-color="#e6e6e8"
         offset="0"
         id="stop7" />
      <stop
         stop-color="#cbccce"
         offset="1"
         id="stop9" />
    </radialGradient>
    <radialGradient
       id="c-7"
       cx="199.22"
       cy="60.978001"
       r="62.147999"
       gradientTransform="matrix(0.6416015,-1.92836e-8,4.8966e-8,1.7428036,-79.627268,-75.589078)"
       gradientUnits="userSpaceOnUse">
      <stop
         stop-color="#ececef"
         offset="0"
         id="stop12-5" />
      <stop
         stop-color="#cbccce"
         stop-opacity="0"
         offset="1"
         id="stop14" />
    </radialGradient>
    <linearGradient
       id="j-3"
       x1="23.844"
       x2="23.816"
       y1="17.573999"
       y2="85.151001"
       gradientUnits="userSpaceOnUse"
       gradientTransform="matrix(0.48966,0,0,0.48209,15.234564,1.9984863)">
      <stop
         stop-color="#1bd2fa"
         offset="0"
         id="stop33"
         style="stop-color:#787cbc;stop-opacity:1" />
      <stop
         stop-color="#1c7ef2"
         offset="1"
         id="stop35"
         style="stop-color:#ff7a98;stop-opacity:1" />
    </linearGradient>
    <filter
       id="h-5"
       x="-0.080466326"
       y="-0.24545603"
       width="1.1609327"
       height="1.4909121"
       color-interpolation-filters="sRGB">
      <feGaussianBlur
         stdDeviation="1.4789442"
         id="feGaussianBlur29" />
    </filter>
    <radialGradient
       id="f-9"
       cx="178.78999"
       cy="120.7"
       r="22.055"
       gradientTransform="matrix(3.8591,-2.3e-7,0,0.1388,-511.17,103.95)"
       gradientUnits="userSpaceOnUse"
       xlink:href="#a" />
    <filter
       id="g-7"
       x="-0.024991525"
       y="-0.5039996"
       width="1.0499831"
       height="2.0079992"
       color-interpolation-filters="sRGB">
      <feGaussianBlur
         stdDeviation=".32830532"
         id="feGaussianBlur26" />
    </filter>
    <linearGradient
       inkscape:collect="always"
       xlink:href="#e"
       id="linearGradient995"
       gradientUnits="userSpaceOnUse"
       x1="174.79"
       y1="109.47"
       x2="174.86"
       y2="118.12" />
    <linearGradient
       inkscape:collect="always"
       xlink:href="#a"
       id="linearGradient997"
       gradientUnits="userSpaceOnUse"
       x1="183.06"
       y1="129.42"
       x2="183.06"
       y2="127.06" />
  </defs>
  <g
     id="g1031"
     transform="translate(-16.191815,-3.3748427)">
    <rect
       x="5.1564002"
       y="8.7788"
       width="124.3"
       height="103.95"
       rx="5.6616998"
       fill="#1a1a1a"
       filter="url(#d)"
       opacity="0.887"
       id="rect38"
       style="filter:url(#d-3)"
       transform="matrix(0.48966,0,0,0.48209,15.234564,1.9984863)" />
    <rect
       x="17.759447"
       y="6.2306581"
       width="60.864738"
       height="50.113255"
       rx="2.7723079"
       fill="url(#b)"
       id="rect40"
       style="fill:url(#b-6);stroke-width:0.48586" />
    <rect
       x="17.759447"
       y="6.2306581"
       width="60.864738"
       height="50.113255"
       rx="2.7723079"
       fill="url(#c)"
       id="rect42"
       style="fill:url(#c-7);stroke-width:0.48586" />
    <path
       d="m 20.531706,6.2302723 c -1.535868,0 -2.772504,1.2175665 -2.772504,2.7296418 V 45.436772 H 78.62394 V 8.9599141 c 0,-1.5121235 -1.236685,-2.7296418 -2.772504,-2.7296418 z"
       fill="#080808"
       id="path44"
       style="stroke-width:0.48586" />
    <path
       d="M 20.286876,7.9537441 H 75.858389 V 43.304922 H 20.286876 Z"
       fill="url(#j)"
       id="path46"
       style="fill:url(#j-3);stroke-width:0.48586" />
    <path
       d="m 46.602984,52.436796 c 0.255245,0.03047 0.542032,0.19582 0.782036,0.22503 0.241294,0.03047 0.315964,-0.164335 0.315964,-0.164335 0,0 0.271531,-0.06062 0.556997,-0.06761 0.285743,-0.0085 0.556229,0.05943 0.556229,0.05943 0,0 0.05245,0.120228 0.150369,0.172593 0.09792,0.05347 0.308728,0.06063 0.443841,-0.08174 0.135373,-0.143384 0.496554,-0.323979 0.69936,-0.436885 0.204099,-0.113243 0.166641,-0.285715 0.0385,-0.338167 -0.128134,-0.05245 -0.233028,-0.135043 -0.225021,-0.293756 0.0069,-0.15735 -0.113159,-0.262219 -0.113159,-0.262219 0,0 0.105152,-0.346189 0.0072,-0.632965 -0.09788,-0.28546 -0.420824,-0.74457 -0.669096,-1.08972 -0.248268,-0.34619 -0.03747,-0.74585 -0.263509,-1.256611 -0.226069,-0.511544 -0.812258,-0.4813 -1.128222,-0.263273 -0.315964,0.218043 -0.219093,0.758775 -0.203852,1.015322 0.01524,0.255252 0.007,0.437892 -0.02222,0.503523 -0.02919,0.06676 -0.233029,0.308741 -0.368402,0.511544 -0.135113,0.203841 -0.233043,0.624686 -0.331989,0.798316 -0.09689,0.172573 -0.02919,0.329908 -0.02919,0.329908 0,0 -0.06768,0.02333 -0.121162,0.136408 -0.05245,0.111883 -0.157343,0.165356 -0.3462,0.201764 -0.187566,0.03847 -0.187566,0.159393 -0.14235,0.294779 0.04546,0.135038 0,0.210818 -0.05245,0.383411 -0.05244,0.17254 0.210043,0.224977 0.466318,0.255223 z m 2.653268,-0.787215 c 0.134085,0.05858 0.326812,-0.02299 0.385456,-0.08174 0.0584,-0.05841 0.09973,-0.145258 0.09973,-0.145258 0,0 0.05865,0.02912 0.0527,0.121925 -0.0062,0.094 0.0403,0.228125 0.128139,0.274632 0.08783,0.04633 0.22192,0.110862 0.152427,0.175423 -0.0708,0.06454 -0.462447,0.222162 -0.579475,0.345148 -0.115998,0.122272 -0.268428,0.22218 -0.361181,0.19272 -0.09377,-0.02912 -0.175673,-0.15735 -0.135357,-0.344892 0.04159,-0.186781 0.07673,-0.39166 0.07078,-0.508682 -0.0062,-0.116994 -0.02919,-0.274637 0,-0.297879 0.02919,-0.023 0.0757,-0.01191 0.0757,-0.01191 0,0 -0.02328,0.221978 0.111085,0.280335 z m -0.870119,-3.161678 c 0.129168,0 0.23329,0.12806 0.23329,0.285717 0,0.111883 -0.05245,0.208763 -0.129181,0.25527 -0.01937,-0.0085 -0.03953,-0.01703 -0.06175,-0.02639 0.04651,-0.02299 0.07879,-0.08174 0.07879,-0.149348 0,-0.08855 -0.05449,-0.161438 -0.122976,-0.161438 -0.06665,0 -0.122206,0.07289 -0.122206,0.161438 0,0.03236 0.008,0.06454 0.02119,0.08992 -0.0403,-0.01703 -0.07673,-0.03014 -0.105921,-0.04138 -0.01524,-0.03849 -0.02429,-0.08191 -0.02429,-0.12806 1.5e-5,-0.157521 0.103862,-0.285752 0.233058,-0.285752 z m -0.319851,0.492402 c 0.06356,0.01192 0.238191,0.08685 0.302797,0.11001 0.06459,0.02214 0.136143,0.06352 0.129168,0.1049 -0.008,0.04257 -0.04133,0.04257 -0.129168,0.09605 -0.08681,0.05245 -0.276432,0.169441 -0.337151,0.177479 -0.06046,0.0085 -0.09481,-0.02606 -0.159418,-0.06778 -0.06459,-0.04241 -0.185738,-0.141344 -0.155271,-0.19376 0,0 0.09481,-0.07254 0.136159,-0.109839 0.04134,-0.03849 0.148294,-0.129253 0.212885,-0.117332 z m -0.278506,-0.446934 c 0.101788,0 0.184724,0.121078 0.184724,0.270493 0,0.02708 -0.0031,0.05245 -0.008,0.07783 -0.02532,0.0085 -0.05062,0.02112 -0.07493,0.0424 -0.01187,0.01022 -0.023,0.01907 -0.03306,0.02912 0.01601,-0.03014 0.02222,-0.07357 0.01497,-0.119035 -0.01395,-0.08055 -0.06846,-0.140322 -0.121945,-0.132318 -0.05374,0.0085 -0.08578,0.08293 -0.07286,0.164503 0.01422,0.08276 0.06768,0.142365 0.122192,0.13334 0.0031,-8.68e-4 0.0059,-0.0017 0.0091,-0.0034 -0.02609,0.02537 -0.05038,0.04751 -0.0757,0.06556 -0.07363,-0.0344 -0.128141,-0.137256 -0.128141,-0.258352 1.6e-5,-0.150369 0.08165,-0.270477 0.183694,-0.270477 z M 47.2207,50.488048 c 0.104892,-0.165357 0.17257,-0.526768 0.277462,-0.646911 0.105935,-0.119886 0.187566,-0.375377 0.150368,-0.488264 0,0 0.226053,0.270476 0.383397,0.226047 0.157591,-0.04547 0.511796,-0.308725 0.564234,-0.263512 0.05245,0.04547 0.503531,1.03753 0.548993,1.353491 0.04548,0.315707 -0.03022,0.557012 -0.03022,0.557012 0,0 -0.172571,-0.04546 -0.194804,0.05943 -0.02222,0.10592 -0.02222,0.489591 -0.02222,0.489591 0,0 -0.233289,0.322928 -0.59447,0.376402 -0.361181,0.05245 -0.542032,0.0136 -0.542032,0.0136 l -0.20281,-0.232266 c 0,0 0.157606,-0.02333 0.135374,-0.181613 -0.02222,-0.157354 -0.481575,-0.375394 -0.564249,-0.571219 -0.08264,-0.195835 -0.01521,-0.526785 0.09097,-0.692378 z m -0.893119,1.184799 c 0.01808,-0.07749 0.252142,-0.07749 0.342052,-0.131977 0.08991,-0.05449 0.10798,-0.211083 0.180591,-0.252413 0.07155,-0.04242 0.203836,0.107969 0.258348,0.192726 0.05348,0.08276 0.258364,0.444106 0.342068,0.534001 0.08473,0.0906 0.162508,0.210823 0.138215,0.318806 -0.02298,0.107969 -0.150353,0.186796 -0.150353,0.186796 -0.113926,0.0351 -0.431703,-0.102006 -0.576111,-0.16246 -0.144408,-0.06062 -0.511795,-0.07885 -0.55907,-0.132319 -0.04857,-0.05449 0.02324,-0.174652 0.04236,-0.288594 0.01703,-0.115287 -0.03643,-0.186776 -0.0181,-0.264532 z"
       id="path2"
       style="fill:#000000;stroke-width:0.0153642" />
    <path
       d="m 17.759153,53.104847 v 0.509376 c 0,1.512124 1.236685,2.729642 2.772504,2.729642 h 55.31689 c 1.535868,0 2.772504,-1.217566 2.772504,-2.729642 v -0.509376 c 0,1.512124 -1.236685,2.729642 -2.772504,2.729642 h -55.31689 c -1.535868,0 -2.772504,-1.217567 -2.772504,-2.729642 z"
       fill="#afafaf"
       id="path48"
       style="stroke-width:0.48586" />
    <g
       transform="matrix(0.48966,0,0,0.48209,-39.352733,1.2879338)"
       id="g62">
      <path
         d="m 194.34,114.95 c -0.0882,3.6995 -0.94643,7.8217 4.9506,11.334 4.7067,2.9258 -2.6114,3.1267 -4.4295,3.1267 h -5.6672 -26.478 c -1.8181,0 -9.1362,-0.20092 -4.4295,-3.1267 5.8971,-3.5127 5.0389,-7.6349 4.9506,-11.334 z"
         filter="url(#h)"
         id="path50"
         style="filter:url(#h-5)" />
      <path
         d="m 194.34,113.47 c -0.0882,3.6995 -0.94643,7.8217 4.9506,11.334 4.7067,2.9258 -2.6114,3.1267 -4.4295,3.1267 -10.492,0.46272 -21.162,0.7623 -32.145,0 -1.8181,0 -9.1362,-0.20092 -4.4295,-3.1267 5.8971,-3.5127 5.0389,-7.6349 4.9506,-11.334 z"
         fill="#e0e1e6"
         id="path52" />
      <path
         d="m 194.34,113.47 c -0.0882,3.6995 -0.94643,7.8217 4.9506,11.334 4.7067,2.9258 -2.6114,3.1267 -4.4295,3.1267 h -5.6672 -26.478 c -1.8181,0 -9.1362,-0.20092 -4.4295,-3.1267 5.8971,-3.5127 5.0389,-7.6349 4.9506,-11.334 z"
         fill="url(#e)"
         id="path54"
         style="fill:url(#linearGradient995)" />
      <path
         d="m 194.34,113.47 c -0.0882,3.6995 -0.94643,7.8217 4.9506,11.334 4.7067,2.9258 -2.6114,3.1267 -4.4295,3.1267 h -5.6672 -26.478 c -1.8181,0 -9.1362,-0.20092 -4.4295,-3.1267 5.8971,-3.5127 5.0389,-7.6349 4.9506,-11.334 z"
         fill="url(#f)"
         id="path56"
         style="fill:url(#f-9)" />
      <ellipse
         cx="178.28999"
         cy="127.15"
         rx="15.764"
         ry="0.78167999"
         fill="#ffffff"
         filter="url(#g)"
         opacity="0.887"
         id="ellipse58"
         style="filter:url(#g-7)" />
      <path
         d="m 194.34,113.47 c -0.0882,3.6995 -0.94643,7.8217 4.9506,11.334 4.7067,2.9258 -2.6114,3.1267 -4.4295,3.1267 h -5.6672 -26.478 c -1.8181,0 -9.1362,-0.20092 -4.4295,-3.1267 5.8971,-3.5127 5.0389,-7.6349 4.9506,-11.334 z"
         fill="url(#i)"
         id="path60"
         style="fill:url(#linearGradient997)" />
    </g>
    <path
       d="m 20.286876,7.953262 v 35.35166 H 75.858389 V 7.953262 Z m 0.27065,0.2448101 H 75.634482 V 43.082587 H 20.557526 Z"
       fill-opacity="0.21198"
       stroke-width="0.999997"
       id="path68" />
    <path
       d="m 20.531706,6.3504574 c -1.535868,0 -2.772504,1.2175665 -2.772504,2.7296417 V 45.436434 H 78.62394 V 9.0800991 c 0,-1.5121234 -1.236636,-2.7296417 -2.772504,-2.7296417 z m -0.24483,2.5677077 H 75.858389 V 43.304681 H 20.286876 Z"
       fill="#080808"
       stroke-width="0.999997"
       id="path70" />
  </g>
  <g
     transform="translate(-376.57 -491.8)"
     id="g93">
    <g
       transform="translate(0 -6.9999)"
       id="g91">
      <path
         d="m408.57 512.8c-4.986 0-9 4.014-9 9s4.014 9 9 9 9-4.014 9-9-4.014-9-9-9zm0 1a8 8 0 018 8 8 8 0 01-8 8 8 8 0 01-8-8 8 8 0 018-8z"
         fill="#fff"
         fill-opacity=".45263"
         opacity=".85"
         stroke-width=".1"
         id="path81" />
      <path
         d="m408.57 512.8v1a8 8 0 018 8h1c0-4.986-4.014-9-9-9z"
         fill="url(#k)"
         opacity=".85"
         stroke-width=".1"
         id="path83" />
      <g
         transform="translate(-1.1e-5 -2.0001)"
         id="g89">
        <rect
           x="405.62"
           y="520.8"
           width="5.9091"
           height="6"
           rx="2.9545"
           ry="3"
           opacity=".8"
           stroke-width=".1"
           id="rect85" />
        <path
           d="m410.34 523.8-2.9545-1.8v3.6z"
           fill="#fff"
           fill-rule="evenodd"
           id="path87" />
      </g>
    </g>
  </g>
</svg>
