<?xml version="1.0" encoding="UTF-8" standalone="no"?>
<svg
   width="64"
   height="64"
   version="1"
   id="svg18"
   sodipodi:docname="wiimotedev.svg"
   inkscape:version="1.1.2 (0a00cf5339, 2022-02-04, custom)"
   xmlns:inkscape="http://www.inkscape.org/namespaces/inkscape"
   xmlns:sodipodi="http://sodipodi.sourceforge.net/DTD/sodipodi-0.dtd"
   xmlns="http://www.w3.org/2000/svg"
   xmlns:svg="http://www.w3.org/2000/svg">
  <defs
     id="defs22" />
  <sodipodi:namedview
     id="namedview20"
     pagecolor="#ffffff"
     bordercolor="#666666"
     borderopacity="1.0"
     inkscape:pageshadow="2"
     inkscape:pageopacity="0.0"
     inkscape:pagecheckerboard="0"
     showgrid="false"
     inkscape:zoom="8.0625"
     inkscape:cx="32"
     inkscape:cy="33.24031"
     inkscape:window-width="1366"
     inkscape:window-height="703"
     inkscape:window-x="0"
     inkscape:window-y="37"
     inkscape:window-maximized="1"
     inkscape:current-layer="svg18" />
  <rect
     transform="rotate(90)"
     x="2"
     y="-45"
     width="56"
     height="26"
     rx="6"
     ry="6"
     fill="gray"
     id="rect2" />
  <path
     d="M39 13.6c0-.776-.624-1.6-1.4-1.6H35V9.4c0-.776-.824-1.4-1.6-1.4h-2.8c-.776 0-1.6.624-1.6 1.4V12h-2.6c-.776 0-1.4.825-1.4 1.6v2.8c0 .776.624 1.6 1.4 1.6H29v2.6c0 .776.824 1.4 1.6 1.4h2.8c.776 0 1.6-.624 1.6-1.4l-.002-2.6h2.599c.776 0 1.401-.824 1.401-1.6v-2.8z"
     fill="#fff"
     opacity=".35"
     id="path4" />
  <rect
     x="24"
     y="37"
     width="16"
     height="26"
     rx="3"
     ry="3.12"
     fill="#f9f9f9"
     style="paint-order:stroke fill markers"
     id="rect6" />
  <circle
     transform="rotate(90)"
     cx="49"
     cy="-36"
     r="3"
     fill="#fff"
     id="circle10"
     style="fill:#aaaaaa;fill-opacity:0.69999999" />
  <circle
     transform="rotate(90)"
     cx="41"
     cy="-36"
     r="3"
     fill="#fff"
     id="circle12"
     style="fill:#aaaaaa;fill-opacity:0.69999999" />
  <circle
     transform="rotate(90)"
     cx="49"
     cy="-28"
     r="3"
     fill="#fff"
     id="circle14"
     style="fill:#aaaaaa;fill-opacity:0.69999999" />
  <circle
     transform="rotate(90)"
     cx="41"
     cy="-28"
     r="3"
     fill="#fff"
     id="circle16"
     style="fill:#aaaaaa;fill-opacity:0.69999999" />
</svg>
