<?xml version="1.0" encoding="UTF-8" standalone="no"?>
<svg
   width="128"
   height="128"
   viewBox="0 0 33.866666 33.866668"
   version="1.1"
   id="svg1582"
   inkscape:version="1.1.2 (0a00cf5339, 2022-02-04, custom)"
   sodipodi:docname="sweeper.svg"
   xmlns:inkscape="http://www.inkscape.org/namespaces/inkscape"
   xmlns:sodipodi="http://sodipodi.sourceforge.net/DTD/sodipodi-0.dtd"
   xmlns:xlink="http://www.w3.org/1999/xlink"
   xmlns="http://www.w3.org/2000/svg"
   xmlns:svg="http://www.w3.org/2000/svg"
   xmlns:rdf="http://www.w3.org/1999/02/22-rdf-syntax-ns#"
   xmlns:cc="http://creativecommons.org/ns#"
   xmlns:dc="http://purl.org/dc/elements/1.1/">
  <defs
     id="defs1576">
    <linearGradient
       gradientUnits="userSpaceOnUse"
       y2="28.95187"
       x2="4.9738135"
       y1="6.4081883"
       x1="26.124226"
       id="linearGradient2042"
       xlink:href="#linearGradient2040"
       inkscape:collect="always"
       gradientTransform="translate(0.09429155,-0.02758586)" />
    <linearGradient
       id="linearGradient2040"
       inkscape:collect="always">
      <stop
         id="stop2036"
         offset="0"
         style="stop-color:#000000;stop-opacity:1" />
      <stop
         id="stop2038"
         offset="1"
         style="stop-color:#000000;stop-opacity:1" />
    </linearGradient>
    <filter
       id="a-7"
       color-interpolation-filters="sRGB"
       height="1.1039146"
       width="1.1419957"
       x="-0.070997873"
       y="-0.051957282">
      <feGaussianBlur
         stdDeviation="1.8946195"
         id="feGaussianBlur2" />
    </filter>
    <linearGradient
       id="b-59"
       gradientUnits="userSpaceOnUse"
       x1="255.44232"
       x2="254.91199"
       y1="1039.9878"
       y2="1000.7434">
      <stop
         offset="0"
         stop-color="#cfd1d5"
         id="stop5" />
      <stop
         offset="1"
         stop-color="#f5f7f7"
         id="stop7-621" />
    </linearGradient>
    <linearGradient
       id="c-7"
       gradientUnits="userSpaceOnUse"
       x1="257.03333"
       x2="258.44754"
       y1="1035.3916"
       y2="1004.8093">
      <stop
         offset="0"
         stop-color="#ebe9ea"
         id="stop10-8" />
      <stop
         offset="1"
         stop-color="#ebe9ea"
         id="stop12-5" />
    </linearGradient>
    <linearGradient
       id="d-7"
       gradientTransform="matrix(-1,0,0,1,621.89645,0)"
       gradientUnits="userSpaceOnUse"
       x1="324.6875"
       x2="324.6875"
       xlink:href="#e-4"
       y1="970.17468"
       y2="965.79968" />
    <linearGradient
       id="e-4">
      <stop
         offset="0"
         stop-color="#272c41"
         id="stop16" />
      <stop
         offset=".44285771"
         stop-color="#596379"
         id="stop18" />
      <stop
         offset=".60000056"
         stop-color="#586278"
         id="stop20-1" />
      <stop
         offset="1"
         stop-color="#4b647b"
         id="stop22-8" />
    </linearGradient>
    <linearGradient
       id="f-5"
       gradientTransform="matrix(-1,0,0,1,621.89645,0)"
       gradientUnits="userSpaceOnUse"
       x1="313"
       x2="313.5"
       xlink:href="#g-9"
       y1="1034.3622"
       y2="964.36218" />
    <linearGradient
       id="g-9">
      <stop
         offset="0"
         stop-color="#d9e5ee"
         id="stop26" />
      <stop
         offset="1"
         stop-color="#f0f3f6"
         id="stop28" />
    </linearGradient>
    <linearGradient
       id="h-7"
       gradientTransform="matrix(-1,0,0,1,621.89645,956.36218)"
       gradientUnits="userSpaceOnUse"
       x1="314.18091"
       x2="302.66379"
       xlink:href="#i-5"
       y1="24.922836"
       y2="15.010517" />
    <linearGradient
       id="i-5">
      <stop
         offset="0"
         stop-color="#a8bdca"
         id="stop32-3" />
      <stop
         offset="1"
         stop-color="#a8bdca"
         stop-opacity="0"
         id="stop34" />
    </linearGradient>
    <linearGradient
       id="j-8"
       gradientUnits="userSpaceOnUse"
       x1="352.31595"
       x2="292.38864"
       y1="1045.1144"
       y2="1053.4229">
      <stop
         offset="0"
         stop-color="#38404d"
         id="stop37-8" />
      <stop
         offset="1"
         stop-color="#374154"
         id="stop39" />
    </linearGradient>
    <linearGradient
       id="k-3"
       gradientUnits="userSpaceOnUse"
       x1="249.78548"
       x2="251.19968"
       y1="1029.0277"
       y2="1008.5215">
      <stop
         offset="0"
         stop-color="#222424"
         id="stop42-1" />
      <stop
         offset="1"
         stop-color="#8f959d"
         id="stop44" />
    </linearGradient>
    <linearGradient
       id="l-8"
       gradientUnits="userSpaceOnUse"
       x1="253.321"
       x2="253.321"
       y1="1028.1438"
       y2="1011.7036">
      <stop
         offset="0"
         stop-color="#747474"
         id="stop47-9" />
      <stop
         offset="1"
         stop-color="#fafafa"
         id="stop49" />
    </linearGradient>
    <linearGradient
       id="m-6"
       gradientUnits="userSpaceOnUse"
       x1="256.625"
       x2="256.625"
       y1="1024.9872"
       y2="1015.8622">
      <stop
         offset="0"
         stop-color="#2e2e2e"
         id="stop52-4" />
      <stop
         offset="1"
         stop-color="#9d9d9d"
         id="stop54" />
    </linearGradient>
    <linearGradient
       id="n-3"
       gradientUnits="userSpaceOnUse"
       x1="324.6875"
       x2="324.6875"
       xlink:href="#e-4"
       y1="970.17468"
       y2="965.79968" />
    <linearGradient
       id="o-3"
       gradientUnits="userSpaceOnUse"
       x1="313"
       x2="313.5"
       xlink:href="#g-9"
       y1="1034.3622"
       y2="964.36218" />
    <linearGradient
       id="p-3"
       gradientUnits="userSpaceOnUse"
       x1="314.18091"
       x2="302.66379"
       xlink:href="#i-5"
       y1="981.28503"
       y2="971.37268" />
    <linearGradient
       inkscape:collect="always"
       xlink:href="#linearGradient1474"
       id="linearGradient3680"
       x1="2.3962355"
       y1="13.573166"
       x2="31.483866"
       y2="13.573166"
       gradientUnits="userSpaceOnUse"
       gradientTransform="translate(0.0942913,-0.0275859)" />
    <linearGradient
       inkscape:collect="always"
       id="linearGradient1474">
      <stop
         style="stop-color:#0473ff;stop-opacity:1"
         offset="0"
         id="stop1470" />
      <stop
         style="stop-color:#04c6ff;stop-opacity:1"
         offset="1"
         id="stop1472" />
    </linearGradient>
    <radialGradient
       inkscape:collect="always"
       xlink:href="#linearGradient11547"
       id="radialGradient11549"
       cx="17.060562"
       cy="28.739515"
       fx="17.060562"
       fy="28.739515"
       r="1.5804152"
       gradientTransform="matrix(0.80979407,0,0,0.95086263,3.0579768,1.5890396)"
       gradientUnits="userSpaceOnUse" />
    <linearGradient
       inkscape:collect="always"
       id="linearGradient11547">
      <stop
         style="stop-color:#3c3c3c;stop-opacity:1"
         offset="0"
         id="stop11543" />
      <stop
         style="stop-color:#141414;stop-opacity:0.99607843"
         offset="1"
         id="stop11545" />
    </linearGradient>
  </defs>
  <sodipodi:namedview
     id="base"
     pagecolor="#ffffff"
     bordercolor="#666666"
     borderopacity="1.0"
     inkscape:pageopacity="0.0"
     inkscape:pageshadow="2"
     inkscape:zoom="3.959798"
     inkscape:cx="64.397224"
     inkscape:cy="74.246212"
     inkscape:document-units="mm"
     inkscape:current-layer="layer1"
     inkscape:document-rotation="0"
     showgrid="false"
     units="px"
     inkscape:window-width="1366"
     inkscape:window-height="703"
     inkscape:window-x="0"
     inkscape:window-y="37"
     inkscape:window-maximized="1"
     inkscape:pagecheckerboard="0" />
  <metadata
     id="metadata1579">
    <rdf:RDF>
      <cc:Work
         rdf:about="">
        <dc:format>image/svg+xml</dc:format>
        <dc:type
           rdf:resource="http://purl.org/dc/dcmitype/StillImage" />
      </cc:Work>
    </rdf:RDF>
  </metadata>
  <g
     inkscape:label="Capa 1"
     inkscape:groupmode="layer"
     id="layer1">
    <g
       style="opacity:0.295"
       transform="matrix(0.97573206,0,0,0.97573206,-65.654095,-37.230681)"
       id="g1702">
      <rect
         ry="6.6098609"
         rx="6.6098609"
         y="40.709618"
         x="69.839508"
         height="29.810888"
         width="29.810888"
         id="rect1634"
         style="fill:none;fill-opacity:1;stroke:#000000;stroke-width:0.1;stroke-linecap:round;stroke-linejoin:round;stroke-miterlimit:4;stroke-dasharray:none;stroke-opacity:0.02" />
      <rect
         style="fill:none;fill-opacity:1;stroke:#000000;stroke-width:0.2;stroke-linecap:round;stroke-linejoin:round;stroke-miterlimit:4;stroke-dasharray:none;stroke-opacity:0.02"
         id="rect1638"
         width="29.810888"
         height="29.810888"
         x="69.839508"
         y="40.709618"
         rx="6.6098609"
         ry="6.6098609" />
      <rect
         ry="6.6098609"
         rx="6.6098609"
         y="40.709618"
         x="69.839508"
         height="29.810888"
         width="29.810888"
         id="rect1640"
         style="fill:none;fill-opacity:1;stroke:#000000;stroke-width:0.3;stroke-linecap:round;stroke-linejoin:round;stroke-miterlimit:4;stroke-dasharray:none;stroke-opacity:0.02" />
      <rect
         style="fill:none;fill-opacity:1;stroke:#000000;stroke-width:0.4;stroke-linecap:round;stroke-linejoin:round;stroke-miterlimit:4;stroke-dasharray:none;stroke-opacity:0.02"
         id="rect1642"
         width="29.810888"
         height="29.810888"
         x="69.839508"
         y="40.709618"
         rx="6.6098609"
         ry="6.6098609" />
      <rect
         ry="6.6098609"
         rx="6.6098609"
         y="40.709618"
         x="69.839508"
         height="29.810888"
         width="29.810888"
         id="rect1644"
         style="fill:none;fill-opacity:1;stroke:#000000;stroke-width:0.5;stroke-linecap:round;stroke-linejoin:round;stroke-miterlimit:4;stroke-dasharray:none;stroke-opacity:0.02" />
      <rect
         style="fill:none;fill-opacity:1;stroke:#000000;stroke-width:0.6;stroke-linecap:round;stroke-linejoin:round;stroke-miterlimit:4;stroke-dasharray:none;stroke-opacity:0.02"
         id="rect1646"
         width="29.810888"
         height="29.810888"
         x="69.839508"
         y="40.709618"
         rx="6.6098609"
         ry="6.6098609" />
      <rect
         ry="6.6098609"
         rx="6.6098609"
         y="40.709618"
         x="69.839508"
         height="29.810888"
         width="29.810888"
         id="rect1648"
         style="fill:none;fill-opacity:1;stroke:#000000;stroke-width:0.7;stroke-linecap:round;stroke-linejoin:round;stroke-miterlimit:4;stroke-dasharray:none;stroke-opacity:0.02" />
      <rect
         style="fill:none;fill-opacity:1;stroke:#000000;stroke-width:0.8;stroke-linecap:round;stroke-linejoin:round;stroke-miterlimit:4;stroke-dasharray:none;stroke-opacity:0.02"
         id="rect1650"
         width="29.810888"
         height="29.810888"
         x="69.839508"
         y="40.709618"
         rx="6.6098609"
         ry="6.6098609" />
      <rect
         ry="6.6098609"
         rx="6.6098609"
         y="40.709618"
         x="69.839508"
         height="29.810888"
         width="29.810888"
         id="rect1652"
         style="fill:none;fill-opacity:1;stroke:#000000;stroke-width:1;stroke-linecap:round;stroke-linejoin:round;stroke-miterlimit:4;stroke-dasharray:none;stroke-opacity:0.02" />
      <rect
         style="fill:none;fill-opacity:1;stroke:#000000;stroke-width:1.2;stroke-linecap:round;stroke-linejoin:round;stroke-miterlimit:4;stroke-dasharray:none;stroke-opacity:0.02"
         id="rect1654"
         width="29.810888"
         height="29.810888"
         x="69.839508"
         y="40.709618"
         rx="6.6098609"
         ry="6.6098609" />
      <rect
         ry="6.6098609"
         rx="6.6098609"
         y="40.709618"
         x="69.839508"
         height="29.810888"
         width="29.810888"
         id="rect1656"
         style="fill:none;fill-opacity:1;stroke:#000000;stroke-width:1.4;stroke-linecap:round;stroke-linejoin:round;stroke-miterlimit:4;stroke-dasharray:none;stroke-opacity:0.02" />
      <rect
         style="fill:none;fill-opacity:1;stroke:#000000;stroke-width:1.6;stroke-linecap:round;stroke-linejoin:round;stroke-miterlimit:4;stroke-dasharray:none;stroke-opacity:0.02"
         id="rect1658"
         width="29.810888"
         height="29.810888"
         x="69.839508"
         y="40.709618"
         rx="6.6098609"
         ry="6.6098609" />
      <rect
         ry="6.6098609"
         rx="6.6098609"
         y="40.709618"
         x="69.839508"
         height="29.810888"
         width="29.810888"
         id="rect1660"
         style="fill:none;fill-opacity:1;stroke:#000000;stroke-width:1.8;stroke-linecap:round;stroke-linejoin:round;stroke-miterlimit:4;stroke-dasharray:none;stroke-opacity:0.02" />
      <rect
         style="fill:none;fill-opacity:1;stroke:#000000;stroke-width:2;stroke-linecap:round;stroke-linejoin:round;stroke-miterlimit:4;stroke-dasharray:none;stroke-opacity:0.02"
         id="rect1662"
         width="29.810888"
         height="29.810888"
         x="69.839508"
         y="40.709618"
         rx="6.6098609"
         ry="6.6098609" />
      <rect
         ry="6.6098609"
         rx="6.6098609"
         y="40.709618"
         x="69.839508"
         height="29.810888"
         width="29.810888"
         id="rect1664"
         style="fill:none;fill-opacity:1;stroke:#000000;stroke-width:2.2;stroke-linecap:round;stroke-linejoin:round;stroke-miterlimit:4;stroke-dasharray:none;stroke-opacity:0.02" />
      <rect
         style="fill:none;fill-opacity:1;stroke:#000000;stroke-width:2.6;stroke-linecap:round;stroke-linejoin:round;stroke-miterlimit:4;stroke-dasharray:none;stroke-opacity:0.02"
         id="rect1666"
         width="29.810888"
         height="29.810888"
         x="69.839508"
         y="40.709618"
         rx="6.6098609"
         ry="6.6098609" />
      <rect
         ry="6.6098609"
         rx="6.6098609"
         y="40.709618"
         x="69.839508"
         height="29.810888"
         width="29.810888"
         id="rect1668"
         style="fill:none;fill-opacity:1;stroke:#000000;stroke-width:3;stroke-linecap:round;stroke-linejoin:round;stroke-miterlimit:4;stroke-dasharray:none;stroke-opacity:0.02" />
      <rect
         style="fill:none;fill-opacity:1;stroke:#000000;stroke-width:3.4;stroke-linecap:round;stroke-linejoin:round;stroke-miterlimit:4;stroke-dasharray:none;stroke-opacity:0.02"
         id="rect1670"
         width="29.810888"
         height="29.810888"
         x="69.839508"
         y="40.709618"
         rx="6.6098609"
         ry="6.6098609" />
      <rect
         ry="6.6098609"
         rx="6.6098609"
         y="40.709618"
         x="69.839508"
         height="29.810888"
         width="29.810888"
         id="rect1672"
         style="fill:none;fill-opacity:1;stroke:#000000;stroke-width:3.8;stroke-linecap:round;stroke-linejoin:round;stroke-miterlimit:4;stroke-dasharray:none;stroke-opacity:0.02" />
      <rect
         style="fill:none;fill-opacity:1;stroke:#000000;stroke-width:4.2;stroke-linecap:round;stroke-linejoin:round;stroke-miterlimit:4;stroke-dasharray:none;stroke-opacity:0.02"
         id="rect1674"
         width="29.810888"
         height="29.810888"
         x="69.839508"
         y="40.709618"
         rx="6.6098609"
         ry="6.6098609" />
      <rect
         ry="6.6098609"
         rx="6.6098609"
         y="40.709618"
         x="69.839508"
         height="29.810888"
         width="29.810888"
         id="rect1676"
         style="fill:none;fill-opacity:1;stroke:#000000;stroke-width:4.6;stroke-linecap:round;stroke-linejoin:round;stroke-miterlimit:4;stroke-dasharray:none;stroke-opacity:0.02" />
      <rect
         style="fill:none;fill-opacity:1;stroke:#000000;stroke-width:5;stroke-linecap:round;stroke-linejoin:round;stroke-miterlimit:4;stroke-dasharray:none;stroke-opacity:0.02"
         id="rect1678"
         width="29.810888"
         height="29.810888"
         x="69.839508"
         y="40.709618"
         rx="6.6098609"
         ry="6.6098609" />
    </g>
    <rect
       ry="6.4494534"
       rx="6.4494534"
       y="2.490999"
       x="2.4905548"
       height="29.08744"
       width="29.08744"
       id="rect849"
       style="fill:url(#linearGradient2042);fill-opacity:1;stroke-width:2.68801;stroke-linecap:round;stroke-linejoin:round;stroke-miterlimit:4;stroke-dasharray:none" />
    <path
       id="rect901"
       style="fill:#dbdbde;fill-opacity:1;stroke:#808080;stroke-width:0.233683;stroke-miterlimit:4;stroke-dasharray:none;stroke-opacity:1"
       d="m 8.9402633,2.4911201 c -3.5729973,0 -6.4497358,2.8762217 -6.4497358,6.4492194 V 25.129016 c 0,3.572999 2.8767385,6.449221 6.4497358,6.449221 H 25.128423 c 3.572997,0 6.449735,-2.876222 6.449735,-6.449221 V 8.9403395 c 0,-3.5729977 -2.876738,-6.4492194 -6.449735,-6.4492194 z" />
    <path
       id="rect897"
       style="fill:#000000;fill-opacity:1;stroke:none;stroke-width:0.10242"
       d="m 8.9402633,2.4911201 c -3.5729973,0 -6.4497358,2.8762217 -6.4497358,6.4492194 V 25.129016 c 0,0.422472 0.04151,0.834642 0.118339,1.234034 H 31.459821 c 0.07682,-0.399386 0.118337,-0.811569 0.118337,-1.234034 V 8.9403395 c 0,-3.5729977 -2.876738,-6.4492194 -6.449735,-6.4492194 z" />
    <path
       id="path1424"
       style="fill:url(#linearGradient3680);fill-opacity:1;stroke:none;stroke-width:0.102918"
       d="m 8.9402633,2.4911201 c -3.572999,0 -6.449737,2.9041969 -6.449737,6.5119449 V 24.60004 H 31.578157 V 9.003065 c 0,-3.607748 -2.876738,-6.5119449 -6.449735,-6.5119449 z"
       sodipodi:nodetypes="ssccsss" />
    <path
       d="m 15.887538,30.257427 c 0.1585,0.01901 0.336603,0.121606 0.485644,0.139741 0.149837,0.01901 0.196217,-0.102055 0.196217,-0.102055 0,0 0.168614,-0.03764 0.345894,-0.042 0.17744,-0.0053 0.34542,0.0369 0.34542,0.0369 0,0 0.03258,0.07466 0.09336,0.107173 0.06081,0.03322 0.191732,0.03764 0.275625,-0.05077 0.08408,-0.08906 0.308361,-0.201193 0.434306,-0.271306 0.12674,-0.07032 0.103486,-0.177439 0.02392,-0.209994 -0.07957,-0.03258 -0.144699,-0.08386 -0.139741,-0.182416 0.0043,-0.0977 -0.07026,-0.162839 -0.07026,-0.162839 0,0 0.06529,-0.214995 0.0045,-0.393073 -0.0608,-0.177275 -0.261331,-0.462378 -0.41551,-0.676717 -0.154179,-0.214993 -0.02324,-0.463174 -0.163638,-0.780355 -0.140378,-0.317669 -0.504414,-0.298888 -0.700627,-0.163499 -0.196217,0.135403 -0.136053,0.471201 -0.126596,0.630517 0.0094,0.158521 0.0043,0.271929 -0.01388,0.312688 -0.01808,0.04145 -0.144723,0.191733 -0.228771,0.317668 -0.08391,0.126581 -0.144722,0.387931 -0.206168,0.495754 -0.06018,0.107174 -0.01808,0.204878 -0.01808,0.204878 0,0 -0.04204,0.01455 -0.07525,0.0847 -0.03258,0.06947 -0.0977,0.10269 -0.214992,0.12528 -0.116488,0.02389 -0.116488,0.09897 -0.08839,0.18305 0.02823,0.08386 0,0.130919 -0.03259,0.238097 -0.03255,0.107144 0.130428,0.139727 0.289584,0.158499 z m 1.64768,-0.488861 c 0.08327,0.03638 0.202953,-0.01432 0.23937,-0.05077 0.03627,-0.03629 0.06194,-0.0902 0.06194,-0.0902 0,0 0.03643,0.01808 0.03272,0.07572 -0.0037,0.05837 0.02502,0.141665 0.07957,0.170539 0.05455,0.02878 0.137818,0.06884 0.09467,0.108925 -0.04396,0.04008 -0.287182,0.137962 -0.359853,0.214337 -0.07203,0.07592 -0.166692,0.137962 -0.224288,0.119682 -0.05824,-0.01808 -0.109098,-0.09772 -0.08405,-0.214171 0.02582,-0.115995 0.04765,-0.243219 0.04396,-0.31589 -0.0037,-0.07267 -0.01808,-0.170564 0,-0.184973 0.01808,-0.01432 0.04702,-0.0075 0.04702,-0.0075 0,0 -0.01455,0.137847 0.06898,0.174082 z m -0.540345,-1.963403 c 0.08022,0 0.144863,0.07952 0.144863,0.177441 0,0.06947 -0.03258,0.129632 -0.08022,0.158521 -0.012,-0.0053 -0.02455,-0.01056 -0.03835,-0.01643 0.02889,-0.01431 0.04894,-0.05077 0.04894,-0.09274 0,-0.05499 -0.03384,-0.100247 -0.07637,-0.100247 -0.04137,0 -0.07587,0.04525 -0.07587,0.100247 0,0.02019 0.0049,0.04008 0.01316,0.05584 -0.02501,-0.01056 -0.04765,-0.01877 -0.06577,-0.02569 -0.0094,-0.02389 -0.01502,-0.05086 -0.01502,-0.07952 9e-6,-0.09783 0.0645,-0.177441 0.144721,-0.177441 z m -0.198634,0.305781 c 0.03948,0.0075 0.147913,0.05394 0.188025,0.06833 0.04012,0.01388 0.08455,0.03945 0.08022,0.06516 -0.0049,0.02643 -0.02565,0.02643 -0.08022,0.05964 -0.05392,0.03258 -0.171666,0.105222 -0.209359,0.110226 -0.03756,0.0053 -0.05889,-0.0162 -0.099,-0.04208 -0.04012,-0.02633 -0.115329,-0.08778 -0.09641,-0.120335 0,0 0.05889,-0.04504 0.08458,-0.0682 0.02568,-0.02389 0.0921,-0.08028 0.132206,-0.07286 z M 16.623282,27.8334 c 0.06321,0 0.114708,0.0752 0.114708,0.16798 0,0.0169 -0.0018,0.03258 -0.0049,0.04833 -0.01572,0.0053 -0.03142,0.01316 -0.04654,0.02633 -0.0072,0.0064 -0.01432,0.01172 -0.02043,0.01808 0.0098,-0.01877 0.01388,-0.04569 0.0094,-0.07391 -0.0087,-0.05002 -0.04251,-0.08715 -0.07572,-0.08217 -0.03338,0.0053 -0.05328,0.0515 -0.04525,0.102141 0.009,0.05139 0.04204,0.08842 0.07588,0.0828 0.0018,-5.37e-4 0.0037,-0.0011 0.0057,-0.0022 -0.0162,0.01572 -0.03129,0.0295 -0.04702,0.04073 -0.04573,-0.02137 -0.07957,-0.08525 -0.07957,-0.160446 9e-6,-0.09336 0.0507,-0.167958 0.114072,-0.167958 z m -0.352154,1.213855 c 0.06513,-0.102691 0.107173,-0.327124 0.1723,-0.401733 0.06579,-0.07444 0.116487,-0.233113 0.09336,-0.30321 0,0 0.140377,0.167956 0.238088,0.140377 0.09787,-0.02823 0.317826,-0.19171 0.35039,-0.163638 0.03258,0.02823 0.312693,0.644306 0.340926,0.840517 0.02825,0.196052 -0.01877,0.345905 -0.01877,0.345905 0,0 -0.107174,-0.02823 -0.12097,0.03692 -0.01388,0.06577 -0.01388,0.304036 -0.01388,0.304036 0,0 -0.144862,0.200536 -0.369166,0.233747 -0.224287,0.03258 -0.336603,0.0084 -0.336603,0.0084 l -0.125944,-0.144223 c 0,0 0.09787,-0.01455 0.08408,-0.112771 -0.01388,-0.09772 -0.299061,-0.233113 -0.3504,-0.354725 -0.05133,-0.121622 -0.0094,-0.327136 0.0565,-0.42997 z m -0.554626,0.73576 c 0.01128,-0.04811 0.156574,-0.04811 0.212411,-0.08196 0.05584,-0.03384 0.06706,-0.131079 0.112149,-0.156739 0.04443,-0.02633 0.126581,0.06706 0.160446,0.119683 0.0332,0.05139 0.160447,0.275789 0.212435,0.331615 0.05263,0.05626 0.100927,0.13092 0.08583,0.197977 -0.01432,0.06706 -0.09336,0.115996 -0.09336,0.115996 -0.07075,0.02182 -0.268088,-0.06334 -0.357764,-0.100884 -0.08969,-0.03764 -0.317826,-0.04896 -0.347185,-0.08216 -0.03016,-0.03384 0.01431,-0.108461 0.0263,-0.179224 0.01056,-0.07159 -0.02253,-0.115996 -0.01128,-0.164272 z"
       id="path2-3"
       style="fill:url(#radialGradient11549);fill-opacity:1;stroke-width:0.00954116" />
    <g
       transform="matrix(0.33159629,0,0,0.33411144,2.6943545,-319.34856)"
       id="g167"
       style="display:inline">
      <path
         d="m 56.662109,960.2585 c -4.985196,1.03813 -11.291109,1.43601 -13.920589,6.56892 -3.479295,6.97716 -0.05241,14.87488 3.666557,20.99374 1.141423,1.65353 4.110195,8.32006 4.670699,3.65378 -3.317191,-4.39069 -6.375305,-9.20685 -7.822232,-14.59351 -1.528339,-5.26304 0.577096,-11.96946 6.218366,-13.70565 1.910695,-2.00308 10.971494,2.0645 7.187199,-2.91728 z m -5.111328,31.9707 c -3.983745,2.25633 2.263703,5.74333 3.329628,8.2818 3.826519,4.9036 5.812524,11.0787 5.546537,17.2947 0.154141,7.6163 0.307644,15.91 -3.7596,22.6448 -2.8244,4.3013 -8.714072,6.5687 -13.484457,4.1383 -6.037932,-2.3587 -10.097314,-8.9697 -8.928333,-15.4416 0.494198,-8.8187 4.973885,-16.6582 7.264973,-25.0122 0.955065,-5.50202 -1.406035,-11.71642 -6.321098,-14.56465 -2.175963,-3.95757 -0.263765,-10.11554 -5.634298,-12.18548 -5.463745,-3.14753 -13.381167,0.8973 -13.58975,7.33821 -0.562728,5.9996 5.799006,11.2932 11.604322,9.55884 2.771781,-0.94086 5.948261,-5.74451 8.135255,-1.06457 3.361947,3.2107 4.389661,8.36285 2.311514,12.54885 -3.245802,9.5023 -8.206082,19.328 -6.038854,29.6431 1.607386,10.542 16.281695,16.54 24.293555,8.9631 6.474723,-5.8755 6.48387,-15.3272 6.826883,-23.4139 0.229438,-5.7681 -1.620941,-12.1072 1.840501,-17.2648 4.382353,-6.82754 8.928625,-13.60461 12.624567,-20.83247 2.631447,-5.65074 4.023271,-13.37274 -0.708565,-18.33229 -3.450962,-2.63049 -9.000896,-4.81018 -12.819974,-3.54891 -0.454136,4.30604 6.075002,-0.33503 8.405932,2.49986 5.840121,2.16389 7.125561,9.48966 5.245999,14.79512 -3.366119,9.19353 -10.220756,16.48152 -15.431161,24.62479 -4.179155,1.3097 -5.82516,-5.86427 -8.698718,-8.31601 -0.656858,-0.5987 -1.297101,-2.32112 -2.014858,-2.35459 z"
         filter="url(#a)"
         opacity="0.3"
         id="path133"
         style="filter:url(#a-7)" />
      <g
         transform="matrix(0.45420844,0,0,0.45420844,-91.753824,518.10168)"
         id="g165">
        <circle
           style="fill:url(#b-59)"
           cx="257.29846"
           cy="1020.2772"
           fill="url(#b)"
           r="20.064156"
           id="circle135" />
        <circle
           style="fill:url(#c-7)"
           cx="257.29846"
           cy="1020.2772"
           fill="url(#c)"
           r="19.063999"
           id="circle137" />
        <g
           fill-rule="evenodd"
           transform="translate(49.182474,-6.5e-4)"
           id="g145">
          <path
             style="fill:url(#d-7)"
             d="m 302.08395,966.61218 v 2.875 c -1.72165,0.58723 -3.44211,1.17878 -5.16451,1.76331 -0.93041,0.27949 -2.03029,0.0883 -2.70546,-0.64312 -0.5702,-0.60305 -0.86592,-1.40415 -1.1192,-2.17991 -0.23798,-0.74694 -0.23395,-1.63019 0.27564,-2.26787 0.338,-0.43009 0.75154,-0.8121 1.21586,-1.10024 0.73379,-0.29552 1.55212,-0.14864 2.30925,-0.0361 1.7813,0.33401 3.50484,0.92767 5.18842,1.58894 z"
             fill="url(#d)"
             id="path139" />
          <path
             style="fill:url(#f-5)"
             d="m 302.05217,969.48153 c 7.34767,0.64496 15.24562,3.37177 19.52789,9.74529 5.45503,8.16504 4.84069,18.88667 1.4569,27.72658 -4.00045,9.7369 -9.62867,18.7397 -15.79929,27.2378 -1.6932,1.1079 0.10298,1.7534 0.96904,2.5266 0.70435,0.2631 1.6783,2.0124 2.13149,0.8908 3.45096,-5.6949 7.00392,-11.3319 10.39015,-17.0636 3.74331,-7.5494 7.28748,-15.4676 8.11406,-23.94196 0.55076,-7.82276 -0.94255,-16.51006 -6.67758,-22.26673 -4.97003,-4.2858 -11.3681,-6.85439 -17.86101,-7.61954 -1.92577,-0.67108 -2.5816,0.13849 -2.24995,1.87922 -5.7e-4,0.29518 -0.001,0.59036 -0.002,0.88554 z"
             fill="url(#f)"
             id="path141" />
          <path
             style="fill:url(#h-7)"
             d="m 302.05465,967.83093 c 5.40791,0.90713 10.59148,3.26178 14.88672,6.66797 -4.35977,-3.03124 -9.63437,-4.57712 -14.88867,-5.01758 6.5e-4,-0.55013 10e-4,-1.10026 0.002,-1.65039 z m 18.26563,5.00195 c 5.9155,4.22472 8.20334,11.83098 8.58633,18.78818 0.60535,9.60554 -3.28728,18.71744 -7.31469,27.21294 -2.18384,4.3272 -4.95564,8.3258 -7.4137,12.4996 -1.38689,2.2661 -2.77379,4.5321 -4.16068,6.7981 -1.06914,-0.4983 -1.22681,-1.1622 -0.38056,-2.0085 3.32028,-5.4811 6.74254,-10.9041 9.99806,-16.422 3.74019,-7.5421 7.27951,-15.4523 8.1119,-23.91761 0.56138,-8.1004 -1.04894,-17.33017 -7.42666,-22.95071 z"
             fill="url(#h)"
             id="path143" />
        </g>
        <path
           style="fill:url(#j-8)"
           d="m 311.17118,1038.7062 c 1.62145,-0.9953 3.41313,-3.2384 4.92673,-3.4431 5.91907,8.0109 11.77345,16.0865 17.73339,24.0561 6.59681,3.2797 8.814,-7.8424 12.7904,-11.3477 3.30185,-3.456 5.96747,-11.0826 9.63869,-12.1505 1.62656,1.2945 4.28193,2.4137 1.86231,4.3974 -5.07826,8.1202 -10.63661,15.9641 -15.37514,24.28 -4.36441,8.6799 -1.57342,18.446 -1.90223,27.6724 -0.0357,15.9807 -0.0487,32.7484 -6.84348,47.5505 -5.92718,12.231 -20.04447,20.2592 -33.60359,17.4584 -13.46828,-2.4723 -25.51649,-13.0584 -27.9674,-26.812 -3.98834,-18.9862 3.06259,-37.8489 9.74759,-55.3306 3.14116,-9.0279 8.49136,-18.9238 4.51304,-28.5535 -3.87517,-8.2603 -10.99065,-14.5842 -19.22835,-18.3398 -3.35386,-0.7139 -8.71662,-6.8785 -1.8208,-5.8209 9.94156,1.7717 18.31225,9.0198 23.74387,17.2589 6.60249,9.8999 4.95548,22.551 0.67948,33.01 -6.53849,15.8535 -12.91104,32.4472 -12.78813,49.8592 -0.1169,8.2696 3.49496,16.3232 9.82889,21.6641 8.10356,7.7855 21.4781,11.8418 31.50385,5.2551 9.74942,-6.2509 14.03428,-17.8775 15.23061,-28.9287 1.80952,-15.1971 2.33012,-30.7998 -0.60053,-45.8892 -3.07469,-14.1287 -13.77308,-24.6196 -22.0692,-35.8461 z"
           fill="url(#j)"
           fill-rule="evenodd"
           id="path147" />
        <circle
           style="fill:url(#k-3)"
           cx="257.29846"
           cy="1020.2772"
           fill="url(#k)"
           r="12.816311"
           id="circle149" />
        <circle
           style="fill:url(#l-8)"
           cx="257.29846"
           cy="1020.2772"
           fill="url(#l)"
           r="9.6343307"
           id="circle151" />
        <circle
           cx="257.29846"
           cy="1020.2772"
           fill="#3a3a3a"
           opacity="0.3"
           r="8.0433407"
           id="circle153" />
        <circle
           style="fill:url(#m-6)"
           cx="257.29846"
           cy="1020.2772"
           fill="url(#m)"
           opacity="0.99"
           r="7.1594572"
           id="circle155" />
        <g
           fill-rule="evenodd"
           id="g163">
          <path
             style="fill:url(#n-3)"
             d="m 319.8125,966.61218 v 2.875 c 1.72165,0.58723 3.44211,1.17878 5.16451,1.76331 0.93041,0.27949 2.03029,0.0883 2.70546,-0.64312 0.5702,-0.60305 0.86592,-1.40415 1.1192,-2.17991 0.23798,-0.74694 0.23395,-1.63019 -0.27564,-2.26787 -0.338,-0.43009 -0.75154,-0.8121 -1.21586,-1.10024 -0.73379,-0.29552 -1.55212,-0.14864 -2.30925,-0.0361 -1.7813,0.33401 -3.50484,0.92767 -5.18842,1.58894 z"
             fill="url(#n)"
             id="path157" />
          <path
             style="fill:url(#o-3)"
             d="m 319.84428,969.48153 c -0.47684,0.004 -13.30658,0.80295 -19.23995,9.32194 -6.25627,8.9826 -5.22786,21.1107 -0.26073,31.66263 6.48227,13.7707 15.15861,24.8371 15.15861,24.8371 l -3.62392,2.8284 -10.38564,-16.9705 c 0,0 -7.51301,-13.877 -8.39689,-24.04164 -0.96083,-11.04954 2.62537,-20.02313 8.13173,-24.04163 5.50637,-4.0185 12.78678,-6.47444 18.61126,-6.47444 z"
             fill="url(#o)"
             id="path159" />
          <path
             style="fill:url(#p-3)"
             d="m 319.8418,967.83093 c -5.40791,0.90713 -10.59148,3.26178 -14.88672,6.66797 4.35977,-3.03124 9.63437,-4.57712 14.88867,-5.01758 -6.5e-4,-0.55013 -10e-4,-1.10026 -0.002,-1.65039 z m -18.26563,5.00195 c -5.9155,4.22472 -8.20334,11.83098 -8.58633,18.78818 -0.60535,9.60554 3.28728,18.71744 7.31469,27.21294 2.18384,4.3272 4.95564,8.3258 7.4137,12.4996 1.38689,2.2661 2.77379,4.5321 4.16068,6.7981 1.06913,-0.4983 1.22681,-1.1622 0.38056,-2.0085 -3.32028,-5.4811 -6.74254,-10.9042 -9.99806,-16.422 -3.7402,-7.5422 -7.27952,-15.4523 -8.1119,-23.91761 -0.56138,-8.1004 1.04894,-17.33017 7.42666,-22.95071 z"
             fill="url(#p)"
             id="path161" />
        </g>
      </g>
    </g>
  </g>
</svg>
