<?xml version="1.0" encoding="UTF-8" standalone="no"?>
<!-- Created with Inkscape (http://www.inkscape.org/) -->

<svg
   width="64"
   height="64"
   viewBox="0 0 16.933333 16.933333"
   version="1.1"
   id="svg5"
   inkscape:version="1.1.1 (3bf5ae0d25, 2021-09-20, custom)"
   sodipodi:docname="fonts.svg"
   xmlns:inkscape="http://www.inkscape.org/namespaces/inkscape"
   xmlns:sodipodi="http://sodipodi.sourceforge.net/DTD/sodipodi-0.dtd"
   xmlns:xlink="http://www.w3.org/1999/xlink"
   xmlns="http://www.w3.org/2000/svg"
   xmlns:svg="http://www.w3.org/2000/svg">
  <sodipodi:namedview
     id="namedview7"
     pagecolor="#ffffff"
     bordercolor="#666666"
     borderopacity="1.0"
     inkscape:pageshadow="2"
     inkscape:pageopacity="0.0"
     inkscape:pagecheckerboard="0"
     inkscape:document-units="px"
     showgrid="false"
     units="px"
     height="48px"
     inkscape:zoom="7.9999996"
     inkscape:cx="17.625001"
     inkscape:cy="23.125001"
     inkscape:window-width="1920"
     inkscape:window-height="1011"
     inkscape:window-x="0"
     inkscape:window-y="0"
     inkscape:window-maximized="1"
     inkscape:current-layer="svg5"
     inkscape:lockguides="true" />
  <defs
     id="defs2">
    <linearGradient
       inkscape:collect="always"
       id="linearGradient72937">
      <stop
         style="stop-color:#000000;stop-opacity:1;"
         offset="0"
         id="stop72933" />
      <stop
         style="stop-color:#000000;stop-opacity:0;"
         offset="1"
         id="stop72935" />
    </linearGradient>
    <linearGradient
       inkscape:collect="always"
       id="linearGradient70738">
      <stop
         style="stop-color:#333333;stop-opacity:1;"
         offset="0"
         id="stop70734" />
      <stop
         style="stop-color:#666666;stop-opacity:1"
         offset="1"
         id="stop70736" />
    </linearGradient>
    <linearGradient
       inkscape:collect="always"
       id="linearGradient1083">
      <stop
         style="stop-color:#818f9b;stop-opacity:1"
         offset="0"
         id="stop1079" />
      <stop
         style="stop-color:#d2d7dc;stop-opacity:0.99856877"
         offset="1"
         id="stop1081" />
    </linearGradient>
    <linearGradient
       inkscape:collect="always"
       xlink:href="#linearGradient37218"
       id="linearGradient1781"
       x1="2.8346456e-08"
       y1="2.2677165e-07"
       x2="64"
       y2="64"
       gradientUnits="userSpaceOnUse"
       gradientTransform="scale(0.26458333)" />
    <linearGradient
       inkscape:collect="always"
       id="linearGradient37218">
      <stop
         style="stop-color:#ffffff;stop-opacity:1"
         offset="0"
         id="stop37214" />
      <stop
         style="stop-color:#717171;stop-opacity:0.00392157"
         offset="0.49741825"
         id="stop37220" />
      <stop
         style="stop-color:#010101;stop-opacity:1"
         offset="1"
         id="stop37216" />
    </linearGradient>
    <linearGradient
       inkscape:collect="always"
       xlink:href="#linearGradient1083"
       id="linearGradient1085"
       x1="8.4666662"
       y1="16.933334"
       x2="8.4666672"
       y2="6.7529299e-07"
       gradientUnits="userSpaceOnUse" />
    <linearGradient
       inkscape:collect="always"
       xlink:href="#linearGradient70738"
       id="linearGradient70740"
       x1="13.711638"
       y1="7.4083343"
       x2="13.697676"
       y2="3.7148819"
       gradientUnits="userSpaceOnUse" />
    <linearGradient
       inkscape:collect="always"
       xlink:href="#linearGradient70738"
       id="linearGradient71162"
       x1="7.5299745"
       y1="7.4083347"
       x2="7.53862"
       y2="3.6821537"
       gradientUnits="userSpaceOnUse" />
    <linearGradient
       inkscape:collect="always"
       xlink:href="#linearGradient70738"
       id="linearGradient71554"
       x1="8.1895618"
       y1="12.964587"
       x2="8.1878443"
       y2="9.2186327"
       gradientUnits="userSpaceOnUse" />
    <linearGradient
       inkscape:collect="always"
       xlink:href="#linearGradient70738"
       id="linearGradient72026"
       x1="13.86047"
       y1="12.911166"
       x2="13.890132"
       y2="9.4213657"
       gradientUnits="userSpaceOnUse" />
    <linearGradient
       inkscape:collect="always"
       xlink:href="#linearGradient72937"
       id="linearGradient72939"
       x1="1.0584481"
       y1="15.478126"
       x2="14.276753"
       y2="0.66145915"
       gradientUnits="userSpaceOnUse"
       gradientTransform="scale(3.7795276)" />
  </defs>
  <path
     id="rect863"
     style="fill:url(#linearGradient1085);stroke-width:0.264583;fill-opacity:1"
     d="M 3.1750003,1.0583333 H 13.758333 c 1.172634,0 2.116667,0.944034 2.116667,2.116667 V 13.758333 c 0,1.172634 -0.944033,2.116667 -2.116667,2.116667 H 3.1750003 c -1.172633,0 -2.116667,-0.944033 -2.116667,-2.116667 V 3.1750003 c 0,-1.172633 0.944034,-2.116667 2.116667,-2.116667 z" />
  <path
     id="rect1345"
     style="opacity:0.3;fill:url(#linearGradient1781);fill-opacity:1;stroke-width:0.264583"
     d="m 3.1750003,1.0583333 c -1.172633,0 -2.116667,0.944034 -2.116667,2.116667 V 13.758333 c 0,1.172634 0.944034,2.116667 2.116667,2.116667 H 13.758334 c 1.172633,0 2.116666,-0.944033 2.116666,-2.116667 V 3.1750003 c 0,-1.172633 -0.944033,-2.116667 -2.116666,-2.116667 z m 0,0.264584 H 13.758334 c 1.026054,0 1.852083,0.826029 1.852083,1.852083 V 13.758333 c 0,1.026054 -0.826029,1.852084 -1.852083,1.852084 H 3.1750003 c -1.026054,0 -1.852083,-0.82603 -1.852083,-1.852084 V 3.1750003 c 0,-1.026054 0.826029,-1.852083 1.852083,-1.852083 z" />
  <path
     d="m 3.9687496,7.4083347 h 0.469969 L 4.7975122,6.2763664 H 6.1518314 L 6.5055715,7.4083347 H 7.0008077 L 5.7425036,3.7041705 H 5.2220003 Z M 4.9137411,5.907466 5.0956645,5.3364284 C 5.2270537,4.9169937 5.3483361,4.5177727 5.4645649,4.0831777 h 0.020214 c 0.1212823,0.4295416 0.2375112,0.833816 0.3739538,1.2532507 l 0.17687,0.5710376 z"
     style="font-size:5.05343px;line-height:1.25;font-family:'Noto Sans CJK KR';-inkscape-font-specification:'Noto Sans CJK KR';stroke-width:0.126336;fill:url(#linearGradient71162);fill-opacity:1"
     id="path70510" />
  <path
     d="M 9.5249983,7.4083343 V 7.190442 h 0.09857 q 0.15045,0 0.22308,-0.077819 0.07782,-0.077819 0.1712017,-0.3268384 l 1.151716,-3.0816185 h 0.404657 l 1.172468,3.2113163 q 0.05707,0.1608252 0.134885,0.2178922 0.08301,0.057067 0.233456,0.057067 h 0.06744 V 7.4083343 H 11.7558 V 7.190442 h 0.119322 q 0.311275,0 0.311275,-0.2490197 0,-0.041503 -0.01038,-0.088194 -0.01038,-0.046691 -0.03113,-0.1037582 l -0.207516,-0.581046 h -1.36442 L 10.37581,6.7131547 q -0.04669,0.1245098 -0.04669,0.2230801 0,0.2542076 0.342402,0.2542076 h 0.119322 V 7.4083343 Z M 10.671527,5.9090282 h 1.172467 L 11.522344,5.001144 Q 11.439337,4.7728759 11.371895,4.5705474 11.304452,4.3682189 11.262949,4.1814542 11.226633,4.3682189 11.169566,4.53942 11.112499,4.710621 11.024305,4.9544528 Z"
     id="path70513"
     style="font-size:5.18791px;line-height:1.25;font-family:'Noto Serif';-inkscape-font-specification:'Noto Serif';stroke-width:0.129698;fill:url(#linearGradient70740);fill-opacity:1" />
  <path
     d="m 10.540053,12.964583 q -0.293135,0 -0.486338,-0.159892 -0.1932027,-0.159892 -0.2864737,-0.433041 -0.08661,-0.279811 -0.08661,-0.626244 0,-0.313122 0.07995,-0.652893 0.08661,-0.346433 0.2531627,-0.666217 0.166554,-0.326446 0.406392,-0.5862709 0.239839,-0.2664866 0.552961,-0.4197165 0.313122,-0.1598921 0.692865,-0.1598921 0.239838,0 0.439703,0.066622 0.206528,0.066622 0.339771,0.1732164 l 0.293136,-0.1665546 h 0.213189 l -0.45303,2.1318947 q -0.01332,0.07328 -0.03997,0.213189 -0.02665,0.139906 -0.04664,0.286473 -0.01332,0.146568 -0.01332,0.239838 0,0.339771 0.219852,0.339771 0.113256,0 0.233175,-0.04663 0.11992,-0.0533 0.246501,-0.126581 l 0.119919,0.193203 q -0.09327,0.08661 -0.253163,0.179878 -0.159892,0.09327 -0.33977,0.15323 -0.179879,0.06662 -0.346433,0.06662 -0.239838,0 -0.379744,-0.146568 -0.139905,-0.146568 -0.139905,-0.406392 0,-0.133244 0.01332,-0.239838 0.01999,-0.113257 0.0533,-0.279812 h -0.03997 q -0.226514,0.512988 -0.539635,0.792799 -0.313122,0.279811 -0.706191,0.279811 z m 0.239839,-0.419717 q 0.173216,0 0.353095,-0.133243 0.18654,-0.133244 0.346432,-0.359757 0.166555,-0.226514 0.293136,-0.506325 0.126581,-0.279811 0.186541,-0.566285 l 0.2465,-1.1792039 q -0.07328,-0.1199189 -0.213189,-0.1798784 -0.139906,-0.05996 -0.293136,-0.05996 -0.266487,0 -0.479676,0.1532299 -0.21319,0.1465685 -0.373082,0.3930684 -0.159892,0.2465 -0.273149,0.539636 -0.106594,0.293135 -0.159892,0.592933 -0.0533,0.293135 -0.0533,0.532973 0,0.413055 0.119919,0.592934 0.119919,0.179878 0.299798,0.179878 z"
     style="font-style:italic;font-size:6.66217px;line-height:1.25;font-family:'Noto Serif';-inkscape-font-specification:'Noto Serif Italic';fill:url(#linearGradient72026);fill-opacity:1;stroke-width:0.166555"
     id="path70516" />
  <path
     d="m 4.821993,12.764584 v 0.200003 H 3.7041666 v -0.200003 l 0.273977,-0.07397 1.3068706,-3.4301926 h 0.7945334 l 1.3013911,3.4301926 0.2794566,0.07397 v 0.200003 H 6.0247522 V 12.764584 L 6.4494167,12.69061 6.098726,11.73991 H 4.6877442 l -0.3369918,0.9507 z M 5.4055641,9.8138511 4.8000748,11.438535 h 1.19454 z"
     style="font-weight:bold;font-size:5.61105px;line-height:1.25;font-family:'Liberation Serif';-inkscape-font-specification:'Liberation Serif Bold';stroke-width:0.140276;fill:url(#linearGradient71554);fill-opacity:1"
     id="path70519" />
  <path
     id="path70510-5"
     style="font-size:5.05343px;line-height:1.25;font-family:'Noto Sans CJK KR';-inkscape-font-specification:'Noto Sans CJK KR';opacity:0.3;fill:url(#linearGradient72939);fill-opacity:1;stroke-width:0.47749"
     d="M 20.652344 15.433594 C 20.213054 17.076158 19.754402 18.584656 19.257812 20.169922 L 18.570312 22.328125 L 18.888672 22.328125 L 19.257812 21.169922 C 19.754402 19.584656 20.213054 18.076158 20.652344 16.433594 L 20.728516 16.433594 C 21.186905 18.057058 21.62689 19.584656 22.142578 21.169922 L 22.501953 22.328125 L 22.810547 22.328125 L 22.142578 20.169922 C 21.62689 18.584656 21.186905 17.057058 20.728516 15.433594 L 20.652344 15.433594 z M 42.568359 15.804688 C 42.476857 16.275276 42.358617 16.72683 42.214844 17.158203 C 42.071052 17.589576 41.888252 18.112183 41.666016 18.726562 L 40.332031 22.333984 L 40.701172 22.333984 L 41.666016 19.726562 C 41.888252 19.112183 42.071052 18.589576 42.214844 18.158203 C 42.358617 17.72683 42.476857 17.275276 42.568359 16.804688 C 42.672939 17.275276 42.810515 17.765587 42.980469 18.275391 C 43.150396 18.785195 43.339673 19.32718 43.548828 19.902344 L 44.410156 22.333984 L 44.763672 22.333984 L 43.548828 18.902344 C 43.339673 18.32718 43.150396 17.785195 42.980469 17.275391 C 42.810515 16.765587 42.672939 16.275276 42.568359 15.804688 z M 39.960938 23.314453 L 39.214844 25.373047 C 39.097187 25.686772 39.039062 25.968429 39.039062 26.216797 C 39.039062 26.383366 39.068723 26.527123 39.126953 26.650391 C 39.151833 26.560521 39.178879 26.468944 39.214844 26.373047 L 39.960938 24.314453 L 45.117188 24.314453 L 45.902344 26.509766 C 45.925518 26.573515 45.94495 26.634657 45.962891 26.693359 C 46.025983 26.565935 46.058594 26.414083 46.058594 26.236328 C 46.058594 26.131752 46.04561 26.019989 46.019531 25.902344 C 45.993339 25.784696 45.954615 25.653558 45.902344 25.509766 L 45.117188 23.314453 L 44.755859 23.314453 L 44.763672 23.333984 L 40.332031 23.333984 L 40.339844 23.314453 L 39.960938 23.314453 z M 18.130859 23.722656 L 16.775391 28 L 15.337891 28 L 15 29 L 16.775391 29 L 18.130859 24.722656 L 23.25 24.722656 L 24.587891 29 L 26.458984 29 L 26.119141 28 L 24.587891 28 L 23.25 23.722656 L 18.130859 23.722656 z M 37.074219 28 C 36.89814 28.117555 36.664347 28.177734 36.371094 28.177734 L 36 28.177734 L 36 29 L 40.783203 29 L 40.783203 28.177734 L 40.332031 28.177734 C 39.961156 28.177734 39.67214 28.118398 39.460938 28 L 37.074219 28 z M 45.681641 28 C 45.48863 28.118648 45.221849 28.177734 44.880859 28.177734 L 44.431641 28.177734 L 44.431641 29 L 49.822266 29 L 49.822266 28.177734 L 49.568359 28.177734 C 49.225483 28.177734 48.951981 28.117815 48.748047 28 L 45.681641 28 z M 44.216797 36.134766 C 43.545334 36.134766 42.941466 36.326799 42.404297 36.712891 C 41.867124 37.082195 41.397019 37.57812 40.994141 38.199219 C 40.591262 38.82032 40.246292 39.499671 39.960938 40.238281 C 39.69236 40.976888 39.491708 41.72312 39.357422 42.478516 C 39.223097 43.217126 39.15625 43.889824 39.15625 44.494141 C 39.15625 44.674672 39.16279 44.843044 39.171875 45.005859 C 39.197695 44.532998 39.258152 44.024372 39.357422 43.478516 C 39.491708 42.72312 39.69236 41.976888 39.960938 41.238281 C 40.246292 40.499671 40.591262 39.82032 40.994141 39.199219 C 41.397019 38.578121 41.867124 38.082195 42.404297 37.712891 C 42.941466 37.326799 43.545334 37.134766 44.216797 37.134766 C 44.602887 37.134767 44.971702 37.210249 45.324219 37.361328 C 45.584375 37.472824 45.799767 37.624629 45.96875 37.818359 L 46.130859 37.041016 C 45.946218 36.738859 45.676735 36.512407 45.324219 36.361328 C 44.971702 36.210249 44.602887 36.134767 44.216797 36.134766 z M 48.738281 36.277344 L 47.238281 43.335938 C 47.204719 43.520579 47.155053 43.788108 47.087891 44.140625 C 47.020728 44.493142 46.96249 44.855312 46.912109 45.224609 C 46.878698 45.593915 46.861328 45.895848 46.861328 46.130859 C 46.861328 46.283641 46.871075 46.421409 46.888672 46.546875 C 46.896034 46.442553 46.901426 46.342693 46.912109 46.224609 C 46.96249 45.855312 47.020728 45.493142 47.087891 45.140625 C 47.155053 44.788108 47.204719 44.520579 47.238281 44.335938 L 48.951172 36.277344 L 48.738281 36.277344 z M 20.429688 37.091797 L 18.140625 43.232422 L 18.513672 43.232422 L 20.429688 38.091797 L 22.292969 43.232422 L 22.65625 43.232422 L 20.429688 37.091797 z M 17.716797 44.371094 L 16.443359 47.964844 L 16.779297 48.017578 L 17.716797 45.371094 L 23.048828 45.371094 L 24.027344 48.025391 L 24.375 47.964844 L 23.048828 44.371094 L 17.716797 44.371094 z M 36.601562 44.910156 C 36.593298 45.072294 36.587891 45.233129 36.587891 45.392578 C 36.587891 46.265483 36.695833 47.054729 36.914062 47.759766 C 37.149077 48.448014 37.51124 48.993609 37.998047 49.396484 C 38.484858 49.799363 39.097327 50 39.835938 50 C 40.826348 50 41.716891 49.648389 42.505859 48.943359 C 43.268594 48.261762 43.927578 47.302958 44.486328 46.072266 C 44.488882 46.049616 44.491361 46.0261 44.494141 46.003906 C 44.544522 45.718533 44.611369 45.366933 44.695312 44.947266 L 44.544922 44.947266 C 43.974179 46.239834 43.294824 47.238323 42.505859 47.943359 C 41.716891 48.648389 40.826348 49 39.835938 49 C 39.097327 49 38.484858 48.799363 37.998047 48.396484 C 37.511241 47.993609 37.149077 47.448014 36.914062 46.759766 C 36.739883 46.197043 36.63642 45.579889 36.601562 44.910156 z M 44.466797 47.291016 C 44.452076 47.483103 44.443359 47.688816 44.443359 47.910156 C 44.443359 48.564835 44.620128 49.07796 44.972656 49.447266 C 45.325173 49.816563 45.803887 50 46.408203 50 C 46.827867 50 47.263556 49.915896 47.716797 49.748047 C 48.17003 49.596979 48.599074 49.40494 49.001953 49.169922 C 49.404832 48.934911 49.723973 48.708464 49.958984 48.490234 L 49.544922 47.822266 C 49.384829 47.936065 49.204374 48.051844 49.001953 48.169922 C 48.599074 48.40494 48.17003 48.596979 47.716797 48.748047 C 47.263556 48.915896 46.827867 49 46.408203 49 C 45.803887 49 45.325173 48.816563 44.972656 48.447266 C 44.691918 48.153167 44.524097 47.766388 44.466797 47.291016 z M 14.904297 49 L 14 49.244141 L 14 50 L 18.224609 50 L 18.224609 49.244141 L 16.667969 49 L 14.904297 49 z M 24.173828 49 L 22.769531 49.244141 L 22.769531 50 L 28.951172 50 L 28.951172 49.244141 L 28.029297 49 L 24.173828 49 z "
     transform="scale(0.26458333)" />
</svg>
