<?xml version="1.0" encoding="UTF-8" standalone="no"?>
<!-- Created with Inkscape (http://www.inkscape.org/) -->

<svg
   width="64"
   height="64"
   viewBox="0 0 16.933333 16.933333"
   version="1.1"
   id="svg5"
   inkscape:version="1.1.1 (3bf5ae0d25, 2021-09-20, custom)"
   sodipodi:docname="application-games.svg"
   xmlns:inkscape="http://www.inkscape.org/namespaces/inkscape"
   xmlns:sodipodi="http://sodipodi.sourceforge.net/DTD/sodipodi-0.dtd"
   xmlns:xlink="http://www.w3.org/1999/xlink"
   xmlns="http://www.w3.org/2000/svg"
   xmlns:svg="http://www.w3.org/2000/svg">
  <sodipodi:namedview
     id="namedview7"
     pagecolor="#ffffff"
     bordercolor="#666666"
     borderopacity="1.0"
     inkscape:pageshadow="2"
     inkscape:pageopacity="0.0"
     inkscape:pagecheckerboard="0"
     inkscape:document-units="px"
     showgrid="false"
     units="px"
     height="48px"
     inkscape:zoom="4"
     inkscape:cx="111"
     inkscape:cy="53.875"
     inkscape:window-width="1920"
     inkscape:window-height="1019"
     inkscape:window-x="0"
     inkscape:window-y="0"
     inkscape:window-maximized="1"
     inkscape:current-layer="svg5"
     inkscape:lockguides="true" />
  <defs
     id="defs2">
    <linearGradient
       inkscape:collect="always"
       id="linearGradient30864">
      <stop
         style="stop-color:#000000;stop-opacity:1;"
         offset="0"
         id="stop30860" />
      <stop
         style="stop-color:#000000;stop-opacity:0;"
         offset="1"
         id="stop30862" />
    </linearGradient>
    <linearGradient
       inkscape:collect="always"
       id="linearGradient30007">
      <stop
         style="stop-color:#b3b3b3;stop-opacity:1;"
         offset="0"
         id="stop30003" />
      <stop
         style="stop-color:#ececec;stop-opacity:1"
         offset="1"
         id="stop30005" />
    </linearGradient>
    <linearGradient
       inkscape:collect="always"
       id="linearGradient20273">
      <stop
         style="stop-color:#333333;stop-opacity:1;"
         offset="0"
         id="stop20269" />
      <stop
         style="stop-color:#666666;stop-opacity:1"
         offset="1"
         id="stop20271" />
    </linearGradient>
    <linearGradient
       inkscape:collect="always"
       id="linearGradient19697">
      <stop
         style="stop-color:#ffffff;stop-opacity:1"
         offset="0"
         id="stop19693" />
      <stop
         style="stop-color:#ffffff;stop-opacity:0"
         offset="1"
         id="stop19695" />
    </linearGradient>
    <linearGradient
       inkscape:collect="always"
       xlink:href="#linearGradient37218"
       id="linearGradient1781"
       x1="2.8346456e-08"
       y1="2.2677165e-07"
       x2="64"
       y2="64"
       gradientUnits="userSpaceOnUse"
       gradientTransform="scale(0.26458333)" />
    <linearGradient
       inkscape:collect="always"
       id="linearGradient37218">
      <stop
         style="stop-color:#ffffff;stop-opacity:1"
         offset="0"
         id="stop37214" />
      <stop
         style="stop-color:#b5b5b5;stop-opacity:0.00392157"
         offset="0.49741825"
         id="stop37220" />
      <stop
         style="stop-color:#000000;stop-opacity:1"
         offset="1"
         id="stop37216" />
    </linearGradient>
    <linearGradient
       inkscape:collect="always"
       xlink:href="#linearGradient19697"
       id="linearGradient19699"
       x1="4"
       y1="20.784904"
       x2="54"
       y2="20.784904"
       gradientUnits="userSpaceOnUse"
       gradientTransform="matrix(0.26458333,0,0,0.26458333,0,-0.08048256)" />
    <linearGradient
       inkscape:collect="always"
       xlink:href="#linearGradient20273"
       id="linearGradient20275"
       x1="6.8791666"
       y1="11.289068"
       x2="10.583332"
       y2="3.8807354"
       gradientUnits="userSpaceOnUse"
       gradientTransform="translate(0,-0.08048256)" />
    <linearGradient
       inkscape:collect="always"
       xlink:href="#linearGradient30007"
       id="linearGradient30009"
       x1="8.4666662"
       y1="16.933334"
       x2="8.4666672"
       y2="6.7529299e-07"
       gradientUnits="userSpaceOnUse" />
    <linearGradient
       inkscape:collect="always"
       xlink:href="#linearGradient30864"
       id="linearGradient30866"
       x1="1.058333"
       y1="10.847929"
       x2="14.816667"
       y2="4.4979291"
       gradientUnits="userSpaceOnUse"
       gradientTransform="matrix(3.7795276,0,0,3.7795276,0,0.99999986)" />
  </defs>
  <path
     id="rect863"
     style="fill:url(#linearGradient30009);stroke-width:0.264583;fill-opacity:1"
     d="M 3.1750003,1.0583333 H 13.758333 c 1.172634,0 2.116667,0.944034 2.116667,2.116667 V 13.758333 c 0,1.172634 -0.944033,2.116667 -2.116667,2.116667 H 3.1750003 c -1.172633,0 -2.116667,-0.944033 -2.116667,-2.116667 V 3.1750003 c 0,-1.172633 0.944034,-2.116667 2.116667,-2.116667 z" />
  <path
     id="rect1345"
     style="opacity:0.3;fill:url(#linearGradient1781);fill-opacity:1;stroke-width:0.264583"
     d="m 3.1750003,1.0583333 c -1.172633,0 -2.116667,0.944034 -2.116667,2.116667 V 13.758333 c 0,1.172634 0.944034,2.116667 2.116667,2.116667 H 13.758334 c 1.172633,0 2.116666,-0.944033 2.116666,-2.116667 V 3.1750003 c 0,-1.172633 -0.944033,-2.116667 -2.116666,-2.116667 z m 0,0.264584 H 13.758334 c 1.026054,0 1.852083,0.826029 1.852083,1.852083 V 13.758333 c 0,1.026054 -0.826029,1.852084 -1.852083,1.852084 H 3.1750003 c -1.026054,0 -1.852083,-0.82603 -1.852083,-1.852084 V 3.1750003 c 0,-1.026054 0.826029,-1.852083 1.852083,-1.852083 z" />
  <path
     id="path6-3"
     style="fill:url(#linearGradient20275);fill-opacity:1;stroke-width:0.176388"
     d="m 4.7609497,5.7382838 v 5.291e-4 C 4.6251307,5.855935 4.49986,6.0012338 4.40955,6.1816799 c 0,0 -1.2266131,2.7045674 -1.23455,4.5862831 0.07214,1.246188 0.7526477,1.402476 0.8821165,1.410767 0.1783292,-0.0028 0.3326678,-0.01395 0.5291667,-0.176217 0.1007182,-0.09084 0.960089,-0.959737 1.2345501,-1.23455 0.2748129,-0.274637 0.3526062,-0.35295 0.7053834,-0.35295 h 1.9404499 v -5.29e-4 h 1.9404494 c 0.352779,0 0.430923,0.07813 0.705384,0.35295 0.274814,0.274637 1.134009,1.143534 1.23455,1.23455 0.196674,0.162277 0.351013,0.17391 0.529167,0.176733 0.129644,-0.0083 0.810149,-0.165272 0.882116,-1.411283 -0.0078,-1.8818921 -1.23455,-4.5862832 -1.23455,-4.5862832 -0.08989,-0.1804948 -0.215175,-0.3257881 -0.350883,-0.442867 0,0 -5.03e-4,1.3e-6 -5.29e-4,0 8e-6,-1.654e-4 -7e-6,-3.44e-4 0,-5.292e-4 C 12.170492,5.7366434 11.860364,5.5529503 11.72692,5.5052107 11.184788,5.3670538 10.239332,5.322439 9.8779247,5.2995385 H 8.4666666 7.0553833 c -0.00295,4.2e-6 -1.2186713,0.0018 -1.8479492,0.2056722 -0.1585066,0.011046 -0.4459676,0.2330609 -0.4459676,0.2330609 -5.292e-4,5.292e-4 -8.02e-5,0 -5.292e-4,0 z"
     sodipodi:nodetypes="cccccccsccscccccccccccccccc" />
  <path
     id="path6-3-31"
     style="opacity:0.3;fill:url(#linearGradient30866);fill-opacity:1;stroke-width:0.666663"
     d="M 32 39.332031 L 32 39.333984 L 24.666016 39.333984 C 23.332681 39.333984 23.038663 39.629967 22 40.667969 C 20.962667 41.706625 17.714651 44.990652 17.333984 45.333984 C 16.591311 45.947273 16.007984 45.989417 15.333984 46 C 14.854037 45.969269 12.371879 45.397625 12.019531 40.931641 C 12.008233 41.180021 12.00102 41.42625 12 41.667969 C 12.272655 46.377971 14.844653 46.968668 15.333984 47 C 16.007984 46.989417 16.591311 46.947273 17.333984 46.333984 C 17.714651 45.990652 20.962667 42.706628 22 41.667969 C 23.038663 40.629971 23.332681 40.333984 24.666016 40.333984 L 32 40.333984 L 32 40.332031 L 39.333984 40.332031 C 40.667322 40.332031 40.962667 40.627326 42 41.666016 C 43.038667 42.70401 46.286018 45.988034 46.666016 46.332031 C 47.40935 46.945358 47.992678 46.98933 48.666016 47 C 49.156009 46.96863 51.727999 46.375349 52 41.666016 C 51.998998 41.424275 51.991751 41.178087 51.980469 40.929688 C 51.628738 45.39514 49.146612 45.969232 48.666016 46 C 47.992678 45.989327 47.40935 45.945362 46.666016 45.332031 C 46.286018 44.988034 43.038667 41.704006 42 40.666016 C 40.962667 39.627326 40.667322 39.332031 39.333984 39.332031 L 32 39.332031 z "
     transform="scale(0.26458333)" />
  <path
     id="path6-3-3"
     style="opacity:0.3;fill:url(#linearGradient19699);fill-opacity:1;stroke-width:0.176389"
     d="m 8.4470294,5.2917994 c -0.7670887,0.00102 -1.3916461,0.00827 -1.3916461,0.00827 0,0 -1.2184234,0.00156 -1.8484659,0.205672 C 5.0484105,5.5167857 4.7609497,5.7388005 4.7609497,5.7388005 4.6251304,5.8559223 4.4998613,6.0017381 4.40955,6.1821842 c 0,0 -1.2266125,2.7040499 -1.23455,4.5857668 0.00138,0.0239 0.00334,0.04666 0.00517,0.06976 C 3.2651414,8.969867 4.40955,6.4462508 4.40955,6.4462508 4.4998613,6.2658047 4.6251304,6.1205056 4.7609497,6.0033838 v -5.167e-4 c 0,-3e-7 0.2874608,-0.2214941 0.4459677,-0.2325441 0.6300425,-0.2040721 1.8484659,-0.205672 1.8484659,-0.205672 0,0 1.5992136,-0.019287 2.8225665,-5.17e-4 h 0.00465 c 0,0 1.4896262,0.083951 1.8438152,0.206189 0.133847,0.047883 0.445967,0.2325441 0.445967,0.2325441 0.135821,0.1171218 0.26144,0.2627617 0.3514,0.4433837 0,0 1.144524,2.5234678 1.229383,4.3914632 0.0018,-0.0231 0.0038,-0.04587 0.0052,-0.06976 -0.0078,-1.8818939 -1.23455,-4.5862835 -1.23455,-4.5862835 -0.08996,-0.180622 -0.215579,-0.3257452 -0.3514,-0.442867 0,0 -0.31212,-0.1851771 -0.445967,-0.2330609 C 11.372227,5.3835024 9.8826007,5.2995506 9.8826007,5.2995506 h -0.00465 c -0.4587573,-0.00704 -0.9706671,-0.00836 -1.4309204,-0.00775 z" />
  <circle
     style="opacity:1;fill:#cfba58;fill-opacity:1;stroke-width:0.198437"
     id="path20665"
     cx="10.980208"
     cy="6.9309754"
     r="0.39687499" />
  <circle
     style="fill:#77cf58;fill-opacity:1;stroke-width:0.198437"
     id="path20665-8"
     cx="10.980208"
     cy="8.5184755"
     r="0.39687499" />
  <circle
     style="fill:#cf6558;fill-opacity:1;stroke-width:0.198437"
     id="path20665-9"
     cx="7.7247257"
     cy="-11.773958"
     r="0.39687499"
     transform="rotate(90)" />
  <circle
     style="fill:#587acf;fill-opacity:1;stroke-width:0.198437"
     id="path20665-8-7"
     cx="7.7247257"
     cy="-10.186459"
     r="0.39687499"
     transform="rotate(90)" />
  <path
     id="rect28732"
     style="opacity:1;fill:#808080;fill-opacity:1;stroke-width:0.203676"
     d="m 5.8208333,6.5341007 v 0.79375 h -0.79375 v 0.5291666 h 0.79375 v 0.79375 h 0.5291666 v -0.79375 h 0.79375 V 7.3278507 h -0.79375 v -0.79375 z" />
</svg>
