<?xml version="1.0" encoding="UTF-8" standalone="no"?>
<svg
   width="64"
   height="64"
   version="1.1"
   id="svg41"
   sodipodi:docname="autopsy.svg"
   inkscape:version="1.1.2 (0a00cf5339, 2022-02-04, custom)"
   xmlns:inkscape="http://www.inkscape.org/namespaces/inkscape"
   xmlns:sodipodi="http://sodipodi.sourceforge.net/DTD/sodipodi-0.dtd"
   xmlns:xlink="http://www.w3.org/1999/xlink"
   xmlns="http://www.w3.org/2000/svg"
   xmlns:svg="http://www.w3.org/2000/svg">
  <sodipodi:namedview
     id="namedview43"
     pagecolor="#ffffff"
     bordercolor="#666666"
     borderopacity="1.0"
     inkscape:pageshadow="2"
     inkscape:pageopacity="0.0"
     inkscape:pagecheckerboard="0"
     showgrid="false"
     inkscape:zoom="8.0625"
     inkscape:cx="30.387597"
     inkscape:cy="32"
     inkscape:window-width="1366"
     inkscape:window-height="703"
     inkscape:window-x="0"
     inkscape:window-y="37"
     inkscape:window-maximized="1"
     inkscape:current-layer="svg41" />
  <defs
     id="defs15">
    <linearGradient
       inkscape:collect="always"
       id="linearGradient5405">
      <stop
         style="stop-color:#bf0000;stop-opacity:1"
         offset="0"
         id="stop5401" />
      <stop
         style="stop-color:#ff7100;stop-opacity:1"
         offset="1"
         id="stop5403" />
    </linearGradient>
    <linearGradient
       inkscape:collect="always"
       id="linearGradient4591">
      <stop
         style="stop-color:#bf0000;stop-opacity:1"
         offset="0"
         id="stop4587" />
      <stop
         style="stop-color:#ff7100;stop-opacity:1"
         offset="1"
         id="stop4589" />
    </linearGradient>
    <linearGradient
       id="a"
       x1="28.285"
       x2="28.774"
       y1="13.142"
       y2="52.167"
       gradientUnits="userSpaceOnUse">
      <stop
         stop-color="#ff6c1c"
         offset="0"
         id="stop2" />
      <stop
         stop-color="#ff2579"
         offset="1"
         id="stop4" />
    </linearGradient>
    <filter
       id="d"
       x="-0.058882896"
       y="-0.061158956"
       width="1.1177658"
       height="1.1223179"
       color-interpolation-filters="sRGB">
      <feGaussianBlur
         stdDeviation="10.562379"
         id="feGaussianBlur7" />
    </filter>
    <linearGradient
       id="linearGradient862-3"
       x1="7.9373"
       x2="7.9373"
       y1="15.081"
       y2="1.852"
       gradientTransform="matrix(3.7795 0 0 3.7795 .00014309 .031541)"
       gradientUnits="userSpaceOnUse">
      <stop
         stop-color="#f1efeb"
         offset="0"
         id="stop10" />
      <stop
         stop-color="#fdfcfc"
         offset="1"
         id="stop12" />
    </linearGradient>
    <linearGradient
       inkscape:collect="always"
       xlink:href="#linearGradient4591"
       id="linearGradient4593"
       x1="32.63269"
       y1="14.733673"
       x2="35.344105"
       y2="64.373047"
       gradientUnits="userSpaceOnUse" />
    <linearGradient
       inkscape:collect="always"
       xlink:href="#linearGradient5405"
       id="linearGradient4595"
       x1="58.975101"
       y1="-177.6004"
       x2="91.125671"
       y2="410.53082"
       gradientUnits="userSpaceOnUse" />
  </defs>
  <g
     transform="scale(3.7796)"
     shape-rendering="auto"
     id="g29">
    <path
       d="m4.3693 0.52916c-2.1142 0-3.8402 1.7835-3.8402 3.9682v8.4675c0 2.1846 1.726 3.9682 3.8402 3.9682h8.1944c2.1142 0 3.8402-1.7835 3.8402-3.9682v-8.4675c0-2.1846-1.726-3.9682-3.8402-3.9682zm0.25704 0.52089h7.6808c1.8443 0 3.3291 1.5342 3.3291 3.44v7.9368c0 1.9058-1.4847 3.44-3.3291 3.44h-7.6808c-1.8443 0-3.3291-1.5342-3.3291-3.44v-7.9368c0-1.9058 1.4847-3.44 3.3291-3.44z"
       color="#000000"
       color-rendering="auto"
       dominant-baseline="auto"
       image-rendering="auto"
       opacity=".01"
       solid-color="#000000"
       stop-color="#000000"
       style="font-feature-settings:normal;font-variant-alternates:normal;font-variant-caps:normal;font-variant-east-asian:normal;font-variant-ligatures:normal;font-variant-numeric:normal;font-variant-position:normal;font-variation-settings:normal;inline-size:0;isolation:auto;mix-blend-mode:normal;shape-margin:0;shape-padding:0;text-decoration-color:#000000;text-decoration-line:none;text-decoration-style:solid;text-indent:0;text-orientation:mixed;text-transform:none;white-space:normal"
       id="path17" />
    <path
       d="m4.3587 0.79373c-1.9668 0-3.5639 1.6528-3.5639 3.6876v8.4996c0 2.0348 1.5971 3.6876 3.5639 3.6876h8.2162c1.9668 0 3.5644-1.6528 3.5644-3.6876v-8.4996c0-2.0348-1.5976-3.6876-3.5644-3.6876zm0.27222 0.25631h7.6718c1.8422 0 3.3251 1.5342 3.3251 3.44v7.9368c0 1.9058-1.483 3.44-3.3251 3.44h-7.6718c-1.8422 0-3.3251-1.5342-3.3251-3.44v-7.9368c0-1.9058 1.483-3.44 3.3251-3.44z"
       color="#000000"
       color-rendering="auto"
       dominant-baseline="auto"
       image-rendering="auto"
       opacity=".01"
       solid-color="#000000"
       stop-color="#000000"
       style="font-feature-settings:normal;font-variant-alternates:normal;font-variant-caps:normal;font-variant-east-asian:normal;font-variant-ligatures:normal;font-variant-numeric:normal;font-variant-position:normal;font-variation-settings:normal;inline-size:0;isolation:auto;mix-blend-mode:normal;shape-margin:0;shape-padding:0;text-decoration-color:#000000;text-decoration-line:none;text-decoration-style:solid;text-indent:0;text-orientation:mixed;text-transform:none;white-space:normal"
       id="path19" />
    <g
       id="g27">
      <path
         d="m4.3097 1.0583c-1.8657 0-3.3751 1.5383-3.3751 3.439v8.4675c0 1.9007 1.57 3.439 3.4357 3.439h8.1996c1.8657 0 3.4274-1.5383 3.4274-3.439v-8.4675c0-1.9007-1.51-3.439-3.3756-3.439h-0.09688c1.794 0.086515 3.2138 1.5819 3.2138 3.4318v7.9368c0 1.9058-1.5059 3.44-3.3766 3.44h-7.7905c-1.8707 0-3.3766-1.5342-3.3766-3.44v-7.9368c0-1.8498 1.4199-3.3451 3.2138-3.4318z"
         color="#000000"
         color-rendering="auto"
         dominant-baseline="auto"
         image-rendering="auto"
         opacity=".03"
         solid-color="#000000"
         stop-color="#000000"
         style="font-feature-settings:normal;font-variant-alternates:normal;font-variant-caps:normal;font-variant-east-asian:normal;font-variant-ligatures:normal;font-variant-numeric:normal;font-variant-position:normal;font-variation-settings:normal;inline-size:0;isolation:auto;mix-blend-mode:normal;shape-margin:0;shape-padding:0;text-decoration-color:#000000;text-decoration-line:none;text-decoration-style:solid;text-indent:0;text-orientation:mixed;text-transform:none;white-space:normal"
         id="path21" />
      <path
         transform="scale(.26458)"
         d="m4 46.969v2.0312c0 6.6479 5.8957 12 12.544 12h30.961c6.6479 0 12.495-5.3521 12.495-12v-1.9922c-0.021173 7.1849-5.81 12.963-13 12.963h-29.998c-7.2032 0-13.002-5.7987-13.002-13.002z"
         color="#000000"
         color-rendering="auto"
         dominant-baseline="auto"
         image-rendering="auto"
         opacity=".03"
         solid-color="#000000"
         stop-color="#000000"
         style="font-feature-settings:normal;font-variant-alternates:normal;font-variant-caps:normal;font-variant-east-asian:normal;font-variant-ligatures:normal;font-variant-numeric:normal;font-variant-position:normal;font-variation-settings:normal;inline-size:0;isolation:auto;mix-blend-mode:normal;shape-margin:0;shape-padding:0;text-decoration-color:#000000;text-decoration-line:none;text-decoration-style:solid;text-indent:0;text-orientation:mixed;text-transform:none;white-space:normal"
         id="path23" />
      <path
         d="m1.0583 11.906v0.59234c0 1.9386 1.5729 3.4993 3.3318 3.4993h8.1603c1.7589 0 3.3243-1.5608 3.3243-3.4993v-0.58095c-0.0056 2.0952-1.5372 3.7801-3.4395 3.7801h-7.9368c-1.9058 0-3.44-1.691-3.44-3.7915z"
         color="#000000"
         color-rendering="auto"
         dominant-baseline="auto"
         image-rendering="auto"
         opacity=".05"
         solid-color="#000000"
         stop-color="#000000"
         style="font-feature-settings:normal;font-variant-alternates:normal;font-variant-caps:normal;font-variant-east-asian:normal;font-variant-ligatures:normal;font-variant-numeric:normal;font-variant-position:normal;font-variation-settings:normal;inline-size:0;isolation:auto;mix-blend-mode:normal;shape-margin:0;shape-padding:0;text-decoration-color:#000000;text-decoration-line:none;text-decoration-style:solid;text-indent:0;text-orientation:mixed;text-transform:none;white-space:normal"
         id="path25" />
    </g>
  </g>
  <rect
     x="4"
     y="4"
     width="56"
     height="56"
     rx="13.002"
     ry="13.002"
     fill="url(#linearGradient862-3)"
     stroke-width="3.7795"
     id="rect31" />
  <path
     d="m 33.204703,51.195363 c -1.09048,-0.26425 -1.336626,-0.49124 -1.765514,-1.628325 -0.104528,-0.27712 -0.393997,-0.887286 -0.643284,-1.355864 -0.370535,-0.696514 -0.513423,-0.87189 -0.783129,-0.960907 -0.740364,-0.24435 -2.642333,-0.627055 -3.42143,-0.688448 l -0.831498,-0.06552 -0.392361,0.707845 c -0.585091,1.055525 -1.754828,2.168378 -2.83676,2.698701 -1.154719,0.566046 -1.985351,0.766358 -3.178066,0.766358 -1.192715,0 -2.023317,-0.2003 -3.178069,-0.766358 -1.65947,-0.813476 -3.006658,-2.48274 -3.510414,-4.35001 -0.296302,-1.098099 -0.249898,-2.942033 0.09975,-3.963664 0.342365,-1.000371 0.990036,-2.019469 1.776078,-2.794693 1.802357,-1.777518 4.641931,-2.396445 7.103095,-1.548208 0.678684,0.23393 0.926367,0.279929 1.033949,0.192031 0.07783,-0.06356 0.363397,-0.531924 0.634578,-1.040835 l 0.493066,-0.925215 0.006,-1.336466 c 0.007,-1.570359 -0.05591,-1.774609 -1.100784,-3.574437 -0.878517,-1.513186 -1.36022,-2.545571 -1.565619,-3.355491 -0.239583,-0.94471 -0.0835,-1.760011 1.04493,-5.458158 0.503594,-1.650378 0.431608,-3.85163 -0.189344,-5.788809 -0.185378,-0.578339 -0.199961,-0.714949 -0.08398,-0.786617 0.191124,-0.118121 1.037249,0.141961 1.859462,0.571548 1.841183,0.961997 3.007239,2.609495 4.576955,6.466438 0.835718,2.053626 1.473561,3.274833 1.769995,3.388464 0.07137,0.02739 0.78854,-0.05057 1.593755,-0.17323 1.220467,-0.185923 1.942844,-0.224667 4.342648,-0.23289 l 2.878526,-0.0099 0.277416,-0.509643 c 0.431,-0.791707 0.753329,-1.88606 1.164515,-3.953419 0.571776,-2.874879 0.981873,-4.018398 1.925274,-5.368533 0.410227,-0.587108 0.707077,-0.837161 0.914559,-0.619787 0.05231,0.05481 0.187793,0.879348 0.298255,1.835005 0.351715,3.042831 0.477894,3.49249 1.622564,5.780167 0.618635,1.148673 0.940741,1.454194 0.940741,2.672967 0,0.791643 -0.087,0.970734 -0.381162,1.591803 -0.1823,0.384873 -0.587107,1.091984 -0.899546,1.571314 -0.312448,0.479334 -0.568094,0.956813 -0.568094,1.061066 0,0.104249 0.07523,0.368647 0.167196,0.587585 0.137899,0.328315 0.155848,0.623245 0.102425,1.683158 -0.03563,0.706787 -0.09126,1.423852 -0.12365,1.593466 -0.05121,0.268195 0.0564,0.462625 0.825061,1.490687 1.684148,2.252499 2.128848,3.746322 1.791153,6.01671 -0.07873,0.529301 -0.0826,0.816004 -0.01197,0.886648 0.07062,0.07062 0.709734,0.05172 1.976517,-0.05843 1.029663,-0.08953 1.937885,-0.16279 2.018195,-0.16279 0.08031,0 0.237708,0.15035 0.34976,0.334108 0.248886,0.40821 0.280268,1.482846 0.05597,1.916596 -0.146957,0.284188 -0.161717,0.287917 -1.404005,0.354722 -0.690528,0.03715 -1.884333,0.06822 -2.65293,0.06908 -0.768597,7.56e-4 -1.45106,0.03571 -1.516613,0.07741 -0.06554,0.04171 -0.19675,0.269695 -0.291556,0.506636 -0.130011,0.324922 -0.359717,0.571839 -0.934596,1.004504 -0.431961,0.325113 -0.762196,0.650547 -0.762165,0.751152 3e-5,0.0976 0.09255,0.420853 0.205613,0.718279 0.113059,0.297453 0.205558,0.759348 0.205558,1.026398 0,0.466658 -0.02705,0.510958 -0.693921,1.13654 -0.810913,0.760627 -1.86407,1.482492 -2.427911,1.664078 -0.499178,0.160781 -1.365723,0.07265 -2.501014,-0.254355 -0.799582,-0.23031 -0.877814,-0.235237 -1.539149,-0.09687 -0.38318,0.08018 -1.038272,0.307964 -1.455699,0.506221 -0.851373,0.404336 -1.383233,0.448445 -2.409088,0.199834 z m 2.054714,-0.752369 c 1.982698,-0.872498 4.343288,-1.460694 3.558109,-0.886646 -0.330137,0.241401 -0.08507,0.419861 0.751346,0.547192 1.326833,0.201976 1.325136,0.202417 2.615802,-0.684606 1.073771,-0.737934 1.180361,-0.840426 1.259998,-1.211506 0.132598,-0.617579 -0.07035,-1.253531 -0.424853,-1.331282 -0.153464,-0.03364 -1.042338,-0.276038 -1.975306,-0.538645 -1.231637,-0.346689 -1.883498,-0.478053 -2.379763,-0.47959 -0.654809,-0.0019 -0.752562,0.03322 -2.33012,0.839754 -1.65928,0.8483 -2.279196,1.065224 -2.51334,0.879508 -0.07006,-0.05558 -0.31243,-0.1341 -0.538613,-0.174493 -0.788762,-0.140864 -1.392898,-0.681885 -2.387609,-2.138097 -0.4511,-0.660442 -0.593635,-0.796927 -0.890167,-0.852559 -0.349888,-0.06564 -3.540182,0.414196 -3.677821,0.553146 -0.03715,0.03748 -0.116726,0.250179 -0.176835,0.472613 -0.143034,0.529298 -0.01821,0.675066 0.577888,0.675066 0.254403,0 0.954217,0.07578 1.555187,0.168409 1.512101,0.233057 1.505344,0.233233 1.495712,-0.0399 -0.0119,-0.336445 0.09357,-0.289411 0.57632,0.257012 0.576608,0.652693 0.969325,1.354552 1.283364,2.29363 0.297277,0.88895 0.814403,1.48534 1.592506,1.836542 0.658807,0.297376 1.002037,0.265972 2.028149,-0.185572 z m 1.840896,-2.501976 c 0.159008,-0.25728 0.969136,-0.529171 1.708155,-0.573311 0.728299,-0.0435 0.796606,-0.03102 0.795166,0.145538 -0.0039,0.452286 -0.136813,0.50126 -1.375711,0.506381 -0.648533,0.0026 -1.156,-0.03272 -1.12764,-0.07857 z m -16.565245,1.821659 c 1.485725,-0.310563 2.845593,-1.232214 3.688069,-2.499702 0.71578,-1.076716 0.989423,-2.020306 0.989423,-3.41183 0,-0.95732 -0.0434,-1.275267 -0.263596,-1.931224 -0.636399,-1.895885 -2.191042,-3.400947 -3.99887,-3.872114 -0.792126,-0.206322 -2.402139,-0.206322 -3.194231,0 -2.502969,0.651956 -4.365378,3.149003 -4.365378,5.852503 0,1.622692 0.619085,3.14001 1.746631,4.280871 1.421611,1.438288 3.362535,2.006894 5.398303,1.5814 z m 14.944954,-3.545625 c 1.317842,-0.644435 2.229646,-1.259999 2.489014,-1.680339 0.155372,-0.251803 0.194765,-0.475847 0.173366,-0.985875 l -0.0277,-0.660055 -0.66825,-0.407058 c -0.367525,-0.223885 -0.89689,-0.59767 -1.176391,-0.830631 -0.502252,-0.418644 -2.113357,-2.28233 -2.113357,-2.444712 0,-0.04616 0.10409,-0.07292 0.231314,-0.05945 0.22712,0.02403 0.23179,0.0019 0.25746,-1.209201 0.01738,-0.819235 -0.0071,-1.182153 -0.07282,-1.0803 -0.127503,0.197567 -0.251081,0.0659 -0.412722,-0.439675 -0.06842,-0.214038 -0.224357,-0.451742 -0.346528,-0.528243 -0.306214,-0.191751 -2.293663,-0.570687 -3.383341,-0.645075 -0.947143,-0.06467 -1.111539,0.01451 -0.671066,0.323002 0.125667,0.08802 0.190614,0.160038 0.144331,0.160038 -0.277517,0 -2.35461,-0.725706 -2.518431,-0.879926 -0.02093,-0.01973 0.107518,-0.219701 0.285475,-0.444377 0.807041,-1.019004 0.568608,-1.657039 -0.619115,-1.657039 -0.341632,0 -0.469025,0.0641 -0.766067,0.385515 -0.425015,0.459843 -0.610508,1.001081 -0.515921,1.50522 0.07906,0.421462 0.300922,0.576577 0.824549,0.576577 0.599396,0 0.417588,0.163564 -0.330364,0.297235 -1.009848,0.180467 -2.040023,0.762259 -2.465868,1.392672 -0.570048,0.84382 -0.562717,0.884665 0.314768,1.756524 0.425494,0.422739 0.822659,0.76863 0.882579,0.76863 0.05992,0 0.228763,-0.253303 0.37524,-0.56291 0.299328,-0.632723 0.615246,-0.925219 1.182989,-1.095347 0.514381,-0.154109 1.126838,-0.04054 1.126838,0.208951 0,0.102458 0.335389,0.530454 0.745326,0.951081 0.421655,0.432632 1.011229,1.200144 1.357531,1.767244 0.750767,1.229399 0.813411,1.288166 1.100017,1.032574 l 0.217658,-0.194093 -0.06336,0.359811 c -0.03484,0.197899 -0.09215,0.776184 -0.127341,1.28506 l -0.06399,0.92522 0.427671,0.655156 c 0.558329,0.855215 1.403139,1.689526 1.855168,1.831966 0.768502,0.24222 1.236858,0.166897 2.351375,-0.378154 z m 8.019834,-0.531796 c 0.7057,-0.461089 1.127994,-1.014906 1.401254,-1.837501 0.157798,-0.47508 0.153943,-0.514416 -0.150894,-1.540559 -0.302301,-1.017595 -0.412178,-1.922261 -0.218966,-1.802866 0.05162,0.03189 0.125235,0.243735 0.163585,0.470722 0.101964,0.603494 0.291886,0.750061 0.864271,0.666871 0.259481,-0.03767 0.5309,-0.125735 0.603112,-0.195616 0.339743,-0.328666 0.332925,-2.856378 -0.01114,-4.123384 -0.152973,-0.563359 -0.42143,-1.133916 -0.57949,-1.23161 -0.05552,-0.03431 -0.387978,-0.481442 -0.738764,-0.993617 -0.724009,-1.057031 -0.557883,-1.007642 -2.033365,-0.604873 -0.796958,0.217559 -1.825919,0.260599 -2.719864,0.113782 -0.276423,-0.04539 -0.684158,-0.04175 -0.906108,0.0081 -0.511851,0.115003 -0.636369,0.03831 -0.435478,-0.268282 0.08701,-0.132787 0.185322,-0.581444 0.218489,-0.996981 0.03318,-0.415572 0.102458,-0.837608 0.153983,-0.937864 0.08519,-0.165771 0.113968,-0.168098 0.317271,-0.02569 0.404753,0.283518 0.705412,0.181261 1.947391,-0.662294 0.975186,-0.66236 1.302861,-0.83095 1.723394,-0.886774 0.43292,-0.05743 0.529459,-0.109487 0.580577,-0.31314 0.136492,-0.54383 -0.05559,-0.947657 -0.866065,-1.820732 -0.435385,-0.469027 -1.082476,-1.183529 -1.438003,-1.587832 -0.577824,-0.65708 -0.715462,-0.756401 -1.296776,-0.935939 -1.183688,-0.365608 -2.19165,-0.45837 -3.530902,-0.324986 -1.72358,0.171704 -1.699959,0.158709 -1.151197,0.633006 0.254546,0.220012 0.388587,0.395759 0.302672,0.396783 -0.08481,0.0011 -0.616844,-0.141417 -1.182251,-0.316582 -1.200299,-0.371813 -2.813005,-0.501705 -3.768084,-0.303452 -0.503118,0.104442 -0.632466,0.185392 -1.008057,0.630864 -0.404016,0.479141 -1.188618,1.002359 -1.314444,0.876529 -0.03106,-0.03102 0.06596,-0.329177 0.215567,-0.662552 0.339777,-0.757075 0.365511,-1.550928 0.06725,-2.072706 -0.528243,-0.924096 -0.843306,-1.601113 -1.386593,-2.97977 -0.615146,-1.560945 -1.270496,-2.859001 -1.563888,-3.097661 -0.15355,-0.124896 -0.164282,-0.1176 -0.09551,0.0649 0.345856,0.917759 0.603815,2.279386 0.652501,3.443839 0.02955,0.706786 0.02894,1.26195 -0.0011,1.233654 -0.03023,-0.0283 -0.24171,-0.821412 -0.469921,-1.762476 -0.505332,-2.08384 -0.899904,-3.134212 -1.547186,-4.11855 -0.436283,-0.663606 -1.061546,-1.222548 -1.206001,-1.078089 -0.02823,0.02826 -0.0019,0.318823 0.05852,0.645748 0.141149,0.763506 0.1417,2.910759 7.56e-4,3.698948 -0.0599,0.335518 -0.270757,1.296136 -0.468547,2.134767 -0.197796,0.838633 -0.400301,1.879531 -0.449946,2.313123 -0.254868,2.224363 0.609257,4.005596 2.464814,5.080454 0.747374,0.432953 1.02963,0.47146 1.425291,0.194483 0.150085,-0.105069 0.382571,-0.248471 0.516623,-0.318676 0.277986,-0.145581 0.274102,-0.135062 -0.21864,0.592485 -0.351392,0.518834 -0.315328,0.693346 0.186634,0.903068 0.462881,0.19341 0.637011,0.137087 1.284324,-0.415443 0.647637,-0.552793 1.198541,-0.715337 2.205861,-0.650678 0.990902,0.0636 2.005806,0.546777 2.935763,1.397667 1.115477,1.020671 1.684946,1.197295 1.967009,0.610221 l 0.160542,-0.334109 0.263672,0.591141 c 0.259311,0.581342 0.270693,0.591136 0.687325,0.591136 0.233,0 0.517107,-0.05 0.631283,-0.11113 0.2914,-0.155954 0.351457,-0.04505 0.145691,0.269012 -0.134608,0.205437 -0.147648,0.300076 -0.05648,0.409941 0.210281,0.253367 0.0015,0.357442 -0.71703,0.357442 -0.675933,0 -0.715176,0.01394 -1.021979,0.363397 -0.238331,0.271441 -0.317727,0.460063 -0.313771,0.745327 l 0.0053,0.381928 0.159911,-0.385514 c 0.08794,-0.212039 0.191962,-0.385515 0.231148,-0.385515 0.03918,0 0.128187,0.275729 0.197796,0.612714 0.14817,0.717352 0.47245,1.151522 1.050565,1.406567 0.470178,0.207451 0.441848,0.258347 -0.272537,0.48996 -1.179338,0.382348 -1.013597,0.422327 1.627652,0.392588 2.755484,-0.03098 3.082487,-0.06009 3.31772,-0.295209 0.196781,-0.19678 0.136153,-0.432504 -0.281432,-1.094225 -0.170847,-0.270726 -0.280142,-0.522737 -0.242874,-0.559996 0.03727,-0.03726 0.477093,0.347459 0.977428,0.85499 0.821956,0.833769 0.922047,0.978194 1.038368,1.497983 0.121992,0.545146 0.114438,0.60654 -0.144143,1.171335 -0.394381,0.861456 -1.610978,2.028021 -2.709716,2.598292 l -0.848139,0.440152 v 0.757426 c 0,0.416565 0.02706,0.827945 0.06012,0.914079 0.09972,0.259889 3.120869,1.468281 3.744402,1.497729 0.08529,0.004 0.449468,-0.185049 0.809313,-0.420181 z M 34.900021,32.062588 c -0.07186,-0.02891 -0.204016,-0.194418 -0.293664,-0.36778 l -0.163001,-0.315204 0.281833,0.221686 c 0.155009,0.12193 0.396911,0.22169 0.537557,0.22169 0.21567,0 0.23569,0.02418 0.127757,0.154208 -0.13041,0.157136 -0.25729,0.179227 -0.49047,0.0854 z m 3.732239,-0.381033 c -0.47005,-0.470049 -0.86104,-1.503424 -0.568861,-1.503424 0.05654,0 0.102979,0.12722 0.103187,0.282709 7.56e-4,0.52245 0.638644,1.282086 0.92698,1.10386 0.05537,-0.03423 0.100683,0.005 0.100683,0.08705 0,0.266407 -0.309034,0.282811 -0.562011,0.02985 z m -4.41851,-0.635666 c -0.183267,-0.279694 -0.181745,-0.673273 0.0026,-0.733994 0.06875,-0.0226 0.09436,0.07758 0.06717,0.262852 -0.02418,0.164657 0.0084,0.397232 0.07242,0.516786 0.162204,0.303085 0.06586,0.272185 -0.142418,-0.04567 z m -9.081243,-1.018041 c -2.064253,-0.989268 -2.80702,-2.734392 -2.342605,-5.50393 0.343491,-2.048476 0.429912,-2.043257 0.428922,0.02573 -0.0011,2.333478 0.371079,3.41727 1.458325,4.24758 0.719113,0.549079 0.781818,0.46397 0.429367,-0.582306 -0.205267,-0.60932 -0.197256,-1.326415 0.01482,-1.326415 0.05025,0 0.09137,0.03982 0.09137,0.08848 0,0.2194 0.779094,1.247964 0.945284,1.247964 0.206748,0 0.241404,-0.122039 0.364936,-1.285064 l 0.08735,-0.822467 0.13395,0.411218 c 0.156494,0.480423 0.270481,2.082818 0.175173,2.46254 -0.055,0.219139 -0.125289,0.261801 -0.431351,0.261801 -0.364327,0 -0.365575,0.0015 -0.348321,0.436921 0.03352,0.846507 0.04545,0.842505 -1.007255,0.338016 z m 2.665958,14.173861 c 0.223201,-0.137952 -0.08198,-0.247373 -0.689888,-0.247373 -0.483271,0 -0.66217,0.03703 -0.66217,0.137067 0,0.07539 0.03469,0.172539 0.0771,0.215882 0.079,0.08074 1.111895,-0.0048 1.274979,-0.105576 z m 2.587276,-0.319016 c 0.05277,-0.03261 0.07258,-0.350561 0.04401,-0.706563 -0.04538,-0.565309 -0.134853,-0.7871 -0.706885,-1.752295 -0.973005,-1.6418 -2.054264,-2.712596 -2.739127,-2.712596 -0.34035,0 -1.359804,1.33522 -1.359804,1.781074 0,0.367717 0.550904,1.829628 0.724459,1.922484 0.236579,0.126615 0.925567,7.55e-4 0.995637,-0.181691 0.03397,-0.0885 -0.0639,-0.246172 -0.240259,-0.387117 -0.163655,-0.130784 -0.271622,-0.264016 -0.239925,-0.296064 0.03171,-0.03204 0.432662,0.05689 0.890998,0.19766 0.636882,0.195583 0.945797,0.35866 1.310124,0.691585 l 0.476773,0.43564 -0.218368,0.446844 c -0.312702,0.639891 -0.225593,0.778425 0.434393,0.690848 0.292629,-0.03882 0.575232,-0.09727 0.628014,-0.129881 z m 2.685389,-8.988417 c 0.366501,-0.120313 0.742958,-0.30341 0.836584,-0.406899 0.1588,-0.175464 0.157107,-0.210648 -0.0252,-0.522801 -0.107499,-0.184065 -0.305266,-0.360579 -0.43945,-0.392302 -0.134211,-0.03166 -0.256344,-0.141541 -0.271396,-0.244128 -0.83953,-0.839527 -0.143487,0.186094 -0.767318,0.353252 -0.226269,0.147066 -0.634642,0.01689 -0.907678,-0.289292 l -0.464865,-0.617834 c 1.110262,-0.443901 0.924576,-0.448382 0.178237,-0.58794 -0.0455,0.01183 -0.351777,-0.224022 -0.474343,-0.309867 -0.335611,-0.235074 -0.864973,-0.201942 -1.006741,0.06302 -0.187344,0.350081 -0.07752,1.571669 0.171261,1.904848 0.37444,0.501516 0.941124,0.879254 1.602909,1.068457 0.831463,0.237689 0.785721,0.238233 1.568019,-0.01856 z m -3.643252,-0.59764 c 0,-0.0532 -0.04626,-0.125335 -0.102806,-0.160274 -0.05655,-0.03492 -0.102809,0.0086 -0.102809,0.09673 0,0.08815 0.04626,0.16028 0.102809,0.16028 0.05655,0 0.102806,-0.04353 0.102806,-0.09674 z m 13.295219,-0.20549 c 0.423541,-0.164343 0.656725,-0.327193 0.796349,-0.556217 0.216195,-0.354563 0.263915,-1.114294 0.09748,-1.552046 -0.132052,-0.347331 -0.542039,-0.538038 -0.851084,-0.395858 -0.12674,0.05829 0.0202,0.251553 -0.149417,0.302555 -0.433081,0.130213 -0.780762,0.334109 -0.392142,0.639793 0.371559,0.292273 0.145494,0.667963 -0.406929,0.714473 -1.246365,0 -0.124053,-0.574975 -0.974226,-0.08413 -0.179349,0 -0.518031,0.445756 -0.518031,0.68179 0,0.127489 0.104089,0.306905 0.231314,0.398703 0.316813,0.228593 1.38234,0.155292 2.166654,-0.149051 z m 1.755366,-6.541658 c 0.6574,-0.860976 0.833064,-1.338549 0.829127,-2.254133 -0.0035,-0.806784 -0.01642,-0.847912 -0.680797,-2.158902 -0.805856,-1.590265 -1.149343,-2.509147 -1.36726,-3.657975 -0.08881,-0.46813 -0.180908,-0.870611 -0.204677,-0.894396 -0.261491,-0.26149 -0.362917,1.361498 -0.161847,2.589428 0.0547,0.334044 0.268453,1.210572 0.475012,1.947866 0.423574,1.511877 0.433144,2.156057 0.04672,3.136427 -0.116134,0.294623 -0.211146,0.648019 -0.211146,0.785305 0,0.275598 0.557659,0.97643 0.776984,0.97643 0.07637,0 0.300409,-0.211589 0.497866,-0.470179 z m -1.955935,-1.701561 c 0.125795,-0.628944 0.06055,-1.740162 -0.199402,-3.396144 -0.279304,-1.779407 -0.355683,-3.313882 -0.218442,-4.38842 0.05394,-0.422323 0.0477,-0.630447 -0.01767,-0.590018 -0.189408,0.117059 -0.52232,1.342581 -0.840268,3.092987 -0.389868,2.14658 -0.646324,3.17765 -0.975728,3.922368 -0.139059,0.314444 -0.23056,0.607756 -0.203338,0.651797 0.02724,0.04406 0.204799,0.10923 0.394604,0.144833 0.189807,0.0356 0.641395,0.246861 1.00348,0.469445 0.812133,0.499211 0.972721,0.513359 1.056745,0.0931 z"
     stroke="#000000"
     stroke-width="0.169385"
     id="path20"
     style="stroke:none;fill-opacity:1;fill:url(#linearGradient4593)" />
  <g
     id="g2953"
     transform="matrix(0.08433485,0,0,0.08440187,27.659036,29.723479)"
     style="fill:url(#linearGradient4595);fill-opacity:1">
    <path
       d="m 71.816438,255.24633 c -11.387059,-1.66922 -20.216196,-5.87324 -22.735189,-10.82581 -1.188481,-2.33676 -5.55728,-11.21737 -9.708989,-19.73433 -4.151331,-8.51695 -8.459887,-15.96131 -9.575954,-16.54183 -6.490045,-3.37979 -46.641964,-10.58884 -50.572576,-9.08047 -1.004461,0.38539 -3.602671,4.044 -5.773843,8.13032 -2.225558,4.18837 -7.925096,11.45963 -13.066261,16.6692 -24.46617,24.79159 -62.220836,31.17543 -94.058786,15.90537 -36.89862,-17.69569 -54.99081,-59.92292 -42.55266,-99.30463 14.12035,-44.699373 63.20727,-68.275486 107.759242,-51.759357 6.677127,2.475114 8.586498,2.769229 10.055942,1.549455 0.997771,-0.828112 1.814129,-2.06686 1.814129,-2.752865 0,-0.685967 2.287502,-5.125669 5.083339,-9.865836 5.050836,-8.563821 5.086741,-8.708573 5.58676,-22.751063 0.643071,-18.063807 -0.935712,-23.797587 -11.817914,-42.919259 -17.976502,-31.588136 -21.426748,-40.848129 -20.33298,-54.563697 0.735327,-9.22371 4.246573,-23.598412 11.063161,-45.292745 6.310522,-20.083163 7.453423,-31.396523 5.037608,-49.880983 -1.07797,-8.24635 -3.039534,-18.19835 -4.359199,-22.11498 -3.357953,-9.96788 -3.206775,-13.26771 0.607884,-13.26771 4.081411,0 17.343069,5.09846 23.848232,9.16891 20.376066,12.74917 32.575665,30.47774 49.6541741,72.160749 8.7837839,21.436575 15.1098019,34.552348 19.2815419,39.97886 l 2.272082,2.9548 21.412387,-2.692885 c 27.204748,-3.421257 48.535499,-4.348239 66.245931,-2.878833 7.67792,0.637061 14.5769,0.924903 15.33128,0.639669 1.82335,-0.689369 8.13296,-14.709182 11.25855,-25.016834 1.37746,-4.542502 4.17439,-16.925064 6.21566,-27.516926 7.20436,-37.38769 14.33577,-55.56525 27.03997,-68.918 6.04558,-6.35549 8.42965,-5.87702 11.75442,23.41625 1.36709,12.04468 3.85766,27.0256 5.53422,33.2919 3.07612,11.4944 4.69066,15.20467 16.02027,36.8151 7.02408,13.397339 9.40323,22.480455 8.19344,31.277845 -0.95495,6.9432 -7.44247,20.695806 -16.2614,34.469956 -3.40183,5.313507 -6.18542,10.1201916 -6.18542,10.6814376 0,0.5612461 0.92014,2.7685115 2.04482,4.90532821 2.33172,4.42987529 2.813,18.07212219 1.22896,34.83845019 l -0.97483,10.318234 10.39156,13.714813 c 12.21513,16.121178 15.76855,22.712512 18.9497,35.150631 2.60403,10.181795 3.12465,28.838225 1.05526,37.817025 -0.83287,3.61314 -0.83427,5.75192 -0.004,6.58188 0.82989,0.82989 8.41831,0.61409 23.35388,-0.66427 15.68352,-1.3423 22.92908,-1.52719 24.88682,-0.63513 6.00137,2.73442 8.46821,20.05859 3.89849,27.37633 -2.16947,3.47391 -4.29722,3.83197 -22.92303,3.85691 -9.01281,0.0151 -22.55377,0.37757 -30.09034,0.81164 l -13.7031,0.7896 -2.45436,5.57806 c -1.83904,4.1793 -4.74697,7.35403 -11.59871,12.66262 -6.5747,5.0943 -8.95764,7.65222 -8.48067,9.10428 0.36471,1.11058 1.76401,5.02361 3.10915,8.69534 4.40644,12.02918 3.33622,15.54557 -7.79282,25.60113 -16.46851,14.8804 -24.66761,19.31217 -35.72473,19.31217 -4.42836,0 -11.03821,-0.82638 -14.68877,-1.83639 -16.75348,-4.6351 -18.69875,-4.82105 -26.86384,-2.56076 -4.2307,1.17098 -11.857599,4.00507 -16.949254,6.29767 -9.806499,4.41627 -9.95692,4.43706 -20.742293,2.85608 z m 18.136751,-10.68068 c 23.410571,-10.30199 51.283151,-17.24708 42.012191,-10.46904 -3.89811,2.85033 -1.00449,4.95748 8.87147,6.46094 15.66651,2.38483 15.64648,2.39009 30.88592,-8.08345 12.67849,-8.71311 13.93704,-9.92291 14.87736,-14.30479 1.56564,-7.29204 -0.83075,-14.80102 -5.01644,-15.71904 -1.81201,-0.3973 -12.30735,-3.25931 -23.32327,-6.36002 -14.54251,-4.09351 -22.23932,-5.64459 -28.09896,-5.66273 -7.73159,-0.0227 -8.88583,0.39227 -27.51277,9.91533 -19.591836,10.01626 -26.911467,12.57758 -29.676123,10.38476 -0.827243,-0.65626 -3.688993,-1.58343 -6.359655,-2.06032 -9.313282,-1.6633 -16.446587,-8.05133 -28.191558,-25.24548 -5.326357,-7.79811 -7.00934,-9.40966 -10.510608,-10.06653 -4.1313,-0.77504 -41.800546,4.89059 -43.425666,6.53124 -0.438603,0.44273 -1.378246,2.95394 -2.087948,5.58034 -1.688878,6.24967 -0.21505,7.97083 6.823353,7.97083 3.0038193,0 11.26687275,0.89474 18.3627612,1.98843 17.8540488,2.7518 17.7743028,2.75392 17.6605418,-0.4711 -0.140217,-3.97257 1.10488,-3.41722 6.804872,3.03461 6.808274,7.70664 11.445262,15.99381 15.153265,27.08229 3.510075,10.49625 9.616016,17.5381 18.803443,21.6849 7.778833,3.51124 11.83152,3.1404 23.947254,-2.19113 z m 21.736281,-29.54234 c 1.87747,-3.03779 11.443,-6.24816 20.16896,-6.76934 8.59934,-0.51355 9.40587,-0.36623 9.38887,1.71843 -0.0457,5.34034 -1.61537,5.91859 -16.24363,5.97907 -7.65752,0.0302 -13.64943,-0.3863 -13.31457,-0.92774 z m -193.121508,20.271 c 19.619801,-4.99679 36.571699,-18.8745 45.198258,-37.00104 5.669152,-11.91239 7.556602,-19.79629 7.556602,-31.56092 0,-11.76424 -1.887639,-19.64852 -7.556602,-31.56092 -13.793047,-28.98373 -47.265609,-44.846772 -78.07178,-37.001421 -24.47486,6.233041 -44.65402,26.413331 -50.90521,50.912761 -2.36713,9.27209 -2.36713,26.02746 0,35.29879 6.15217,24.09804 26.00667,44.57842 49.28761,50.83716 8.65075,2.32677 25.50287,2.36219 34.493389,0.0726 z M 92.554196,194.66918 c 15.592434,-7.62501 26.341144,-14.88833 29.360534,-19.84052 1.65876,-2.72036 2.3473,-6.07847 2.35051,-11.46416 l 0.004,-7.61669 -5.65819,-3.30826 C 108.14708,146.32178 98.221911,138.05125 90.476338,128.99496 70.578371,105.73028 69.178468,104.41957 58.58887,99.124959 52.986237,96.323642 43.572421,92.416084 37.669322,90.441708 29.327732,87.651578 27.517383,86.667186 29.544671,86.023926 34.717584,84.382064 31.533334,81.216486 18.055946,74.602097 8.6069817,69.964731 2.7911877,67.876215 -1.8378638,67.457832 -18.153267,65.983399 -38.059549,73.874556 -45.388251,84.720399 c -6.730795,9.963346 -6.644246,10.445602 3.71662,20.740021 5.024003,4.9915 9.713525,9.07556 10.421036,9.07556 0.70751,0 2.701086,-2.99085 4.430631,-6.64651 3.5343,-7.47081 7.264451,-10.924458 13.967996,-12.933228 6.0735517,-1.819684 13.30512186,-0.478703 13.30512186,2.467177 0,1.20976 3.96009154,6.263281 8.80041344,11.229831 4.9786497,5.10829 11.9399897,14.17062 16.0289597,20.86664 8.864664,14.51605 9.6043,15.20996 12.988405,12.19208 l 2.569638,-2.29178 -0.748064,4.24847 c -0.411542,2.33667 -1.088061,9.16475 -1.503572,15.17329 l -0.755585,10.92446 5.049703,7.73575 c 6.592468,10.09789 16.56753,19.94897 21.904847,21.63082 9.074045,2.86001 14.604113,1.97064 27.763727,-4.46501 z m 94.693734,-6.27878 c 8.33252,-5.44427 13.31873,-11.98345 16.54523,-21.69622 1.86319,-5.60944 1.81768,-6.07393 -1.7817,-18.19004 -3.56937,-12.0152 -4.86678,-22.69702 -2.58544,-21.28729 0.60955,0.37666 1.47871,2.87789 1.93156,5.55804 1.20394,7.12575 3.44643,8.85635 10.20485,7.87407 3.06384,-0.44502 6.26857,-1.4846 7.12121,-2.30972 4.01905,-3.88753 3.92986,-33.7239 -0.14551,-48.73959 -2.28126,-8.407731 -3.94724,-11.213583 -10.41687,-17.54527 -3.06985,-3.00431 -7.33967,-8.057376 -9.48828,-11.228322 -2.19747,-3.243208 -4.84901,-5.765905 -6.05994,-5.765905 -1.18425,0 -5.97529,1.111494 -10.64667,2.469973 -4.67138,1.358518 -13.05341,2.809065 -18.62656,3.223367 -10.70752,0.796024 -10.89309,1.753809 -0.77921,4.020184 3.22567,0.722893 6.48778,2.165919 7.24896,3.206775 0.76363,1.044371 3.98654,2.185798 7.19188,2.547037 l 5.80824,0.654636 -5.08485,4.647948 c -5.56749,5.089009 -5.81844,7.890326 -0.67369,7.51276 2.38607,-0.175252 3.13153,0.228014 2.66586,1.441401 -2.51959,6.566012 -3.40663,13.160747 -2.7814,20.678416 0.61874,7.43907 0.32126,9.36166 -2.33822,15.10149 -4.49601,9.7037 -19.15379,23.62298 -31.7737,30.17236 l -10.01437,5.1971 v 8.94328 c 0,4.91855 0.31936,9.77588 0.70978,10.79293 1.17752,3.0686 36.84948,17.33664 44.21182,17.68435 1.00699,0.0476 5.30708,-2.18496 9.55592,-4.96126 z M -4.3996402,170.37422 c 1.3334602,-0.86175 0.439964,-1.18168 -3.3381478,-1.19529 -2.837411,-0.008 -5.158928,0.52765 -5.158928,1.19529 0,1.54889 6.1003852,1.54889 8.4973026,0 z m 36.3139412,-4.12526 c 2.758912,-3.3242 -0.381269,-15.19899 -6.967765,-26.35021 C 12.418088,118.6878 1.2494807,107.2535 -6.940932,107.2535 c -3.904156,0 -9.919844,6.35701 -14.282446,15.09204 l -2.766432,5.53952 3.118789,7.79584 c 1.715334,4.28777 3.118827,8.54946 3.118827,9.47013 0,2.91337 2.760651,4.58785 7.564123,4.58785 6.4923127,0 7.1544697,-2.69451 2.0039696,-8.15262 -2.5437866,-2.69579 -3.2827036,-4.05949 -1.9423646,-3.58471 1.1898414,0.42163 5.5470759,1.64303 9.68253327,2.71469 9.79175913,2.53732 11.33528073,3.38694 18.17341173,10.00416 5.140409,4.97412 5.555013,5.76288 3.959335,7.52599 -0.980347,1.0833 -2.130354,3.7091 -2.555578,5.83469 l -0.773045,3.86561 h 6.072417 c 3.720929,0 6.618168,-0.6574 7.481391,-1.69761 z M 148.43805,98.797395 c 6.75234,-0.976115 9.73469,-2.48033 9.80423,-4.945768 0.0265,-0.902491 -11.24797,-18.941771 -15.33014,-24.531176 -1.82864,-2.503573 -4.09918,-4.551951 -5.04555,-4.551951 -1.31437,0 -1.54114,1.075022 -0.96024,4.551951 1.87158,11.202244 2.16807,18.222922 0.80532,19.065358 -0.76832,0.474848 -5.60868,1.889339 -10.75627,3.143317 -5.14759,1.254055 -12.09041,3.354778 -15.4284,4.668736 l -6.0694,2.388338 10.31824,0.445482 c 20.81561,0.898636 25.03875,0.868439 32.66263,-0.233531 z M 68.132623,58.735388 c 7.103069,-3.081562 7.865381,-5.096189 3.856913,-10.192379 -13.969924,-10.452404 -1.625119,-6.487777 -7.574365,-8.466311 0,-2.600214 -3.269173,-3.228847 -5.877776,-3.228847 -2.589102,0 -3.025891,3.572737 -0.72225,5.90839 1.216297,1.233116 1.035678,1.894139 -0.910353,3.331572 -3.793796,2.802261 -10.094114,0.570165 -12.832314,-4.546282 -0.948676,-1.772706 -0.48048,-2.537928 2.494049,-4.07612 2.172683,-1.123513 3.66197,-2.855666 3.66197,-4.259045 0,-2.792851 -6.490424,-6.559587 -9.808011,-5.692207 -1.232701,0.322537 -2.845348,-0.141766 -3.58366,-1.031332 -2.183266,-2.630675 -8.462154,-3.503007 -10.506072,-1.459542 -4.635855,4.635855 -2.840359,19.514355 3.146152,26.06865 9.82842,10.761184 24.694448,13.700829 38.656057,7.643907 z m 60.270647,-4.070073 c 3.34276,-4.493748 4.3917,-23.067779 1.52001,-26.919779 -0.9946,-1.334254 -2.13024,-2.103973 -2.5236,-1.710685 -0.39318,0.393174 -1.20115,4.58521 -1.79505,9.315172 -0.67708,5.392497 -2.30908,10.858694 -4.37583,14.655514 -1.81269,3.330551 -2.90986,6.679772 -2.43811,7.443218 1.473,2.383236 6.94887,0.797726 9.61261,-2.783402 z M 174.5615,51.68164 c 11.85873,-4.068939 14.65363,-7.215318 14.65363,-16.49383 0,-7.675654 -2.9344,-12.906391 -7.23951,-12.906391 -1.61427,0 -3.27265,0.546279 -3.68529,1.213916 -0.41245,0.667637 -2.33747,1.213841 -4.27756,1.213841 -4.37394,0 -6.78069,3.631697 -4.82634,7.283349 0.71461,1.335236 2.0994,2.427757 3.07736,2.427757 2.14362,0 1.50996,2.338979 -0.52141,4.370538 -0.80116,0.801127 -2.80449,2.146379 -5.06104,2.146379 -3.89659,0 -3.71855,0.589743 -2.98288,-2.759667 0.46306,-2.108434 0.22715,-3.864472 -0.58698,-4.367515 -2.06943,-1.278998 -6.97004,2.271176 -6.25686,4.998302 0.46563,1.780379 1.37489,0.557807 -0.54182,0.557807 -1.60901,0 -1.79228,3.289393 -4.78514,6.089425 -1.78941,3.460299 -1.78196,3.926833 0.0952,6.001364 3.9514,4.366003 10.67691,4.432143 22.93777,0.224801 z M 110.39048,41.632502 c 3.26203,-3.064517 3.74924,-7.35289 1.6814,-14.799132 -1.25674,-4.525117 -3.19022,-5.934846 -4.16305,-3.034697 -0.27968,0.834574 -1.09861,3.821764 -1.81935,6.638577 -1.16406,4.549305 -1.86258,5.286673 -6.255715,6.602672 -5.524778,1.655241 -6.966254,3.744588 -4.572738,6.628372 2.302696,2.774559 11.296733,1.563968 15.129073,-2.036321 z M 85.201306,34.106136 C 85.576226,32.158631 76.553203,16.10998 72.16528,10.920438 69.010246,7.1888513 57.206656,1.8940146 43.403027,-1.9821735 28.382042,-6.2000225 25.607181,-6.4702521 26.165025,-3.6614519 c 0.219586,1.1063161 7.338151,5.7073242 16.172579,10.4531602 17.89071,9.6107247 26.668824,15.9080177 33.862978,24.2926937 5.010019,5.838849 8.24786,6.926192 8.999968,3.021885 z m 9.846939,-12.539408 c 3.011604,-2.534111 3.734761,-4.072341 3.734761,-7.945128 0,-9.3760212 -9.259615,-13.84142317 -17.110256,-8.2512615 -4.262446,3.0351128 -4.575762,7.0357955 -1.003402,12.8156845 4.48959,7.264452 8.611819,8.233877 14.378859,3.381007 z m 43.973725,-2.264751 c 5.4027,-3.671154 7.3098,-10.4338851 3.98012,-14.1127868 -5.11925,-5.65630178 -18.72634,-3.3505065 -18.72634,3.1734023 0,4.0708295 2.93571,9.6451175 6.33244,12.0242715 3.44087,2.410107 3.22994,2.437281 8.41378,-1.085114 z m 24.07991,-3.934391 c 15.31427,-4.38868 20.68258,-8.3328978 20.63344,-15.15931262 -0.0151,-1.81000898 -4.9983,-8.64621258 -14.00129,-19.19839438 -7.68926,-9.012817 -14.91781,-17.094382 -16.06335,-17.958361 -6.70888,-5.059529 -41.30166,-9.641716 -38.49354,-5.098835 0.32654,0.528856 4.82973,1.895386 10.00605,3.0367 12.13123,2.674668 15.86569,4.266604 21.39311,9.119776 3.71216,3.259346 4.39473,4.546659 3.81345,7.193775 -0.46922,2.136212 0.39503,5.634004 2.56246,10.367745 1.85585,4.0538219 3.31853,9.4716414 3.38153,12.5254246 0.10356,5.0228686 -0.31445,5.7568348 -6.26252,11.0026904 -10.85492,9.57293 -8.47841,10.333352 13.03149,4.169094 z M -27.460956,-9.5827299 c -3.41e-4,-0.8345371 -1.125365,-4.4767401 -2.500059,-8.0932811 -1.774142,-4.667602 -2.271402,-7.926608 -1.71352,-11.228322 0.961942,-5.693341 1.980575,-5.847542 4.448395,-0.672362 2.568012,5.385317 8.096305,11.800529 10.168569,11.800529 2.310217,0 2.691713,-2.633057 3.470088,-23.952167 0.534109,-14.62868 0.308779,-19.318202 -1.080201,-22.456644 -0.965381,-2.181717 -3.164445,-10.938063 -4.886771,-19.45842 -3.875054,-19.170803 -8.901324,-34.836183 -15.412534,-48.036613 -4.832385,-9.79781 -11.435813,-18.40774 -14.116188,-18.40774 -0.905477,0 -1.086777,5.15779 -0.589819,16.77691 0.431725,10.09449 0.152689,21.33567 -0.6998,28.22255 -2.012247,16.250816 -2.100081,60.845121 -0.134926,68.498476 2.397711,9.335204 6.832084,17.225529 13.006546,23.1411 5.439363,5.2118408 10.04158,6.9843956 10.040068,3.8671179 z M 9.0940752,-13.737462 c 1.9233168,-0.384936 4.1966838,-0.118826 5.0519698,0.59133 2.198838,1.824862 9.321598,-1.602178 19.380563,-9.324999 4.501307,-3.455688 9.417595,-6.749692 10.924456,-7.320387 5.513817,-2.086739 17.560765,-2.678069 27.625399,-1.355948 20.380223,2.677352 23.477848,2.885032 22.632766,1.517481 -1.139424,-1.843721 -21.652381,-8.421336 -31.398787,-10.068414 -6.124951,-1.035073 -10.794821,-1.028044 -18.730499,0.02759 -12.31491,1.638801 -12.837606,1.872408 -19.237701,8.590277 -2.67051,2.803169 -7.54942,6.36797 -10.842064,7.921317 -8.8642855,4.1827 -9.9444479,2.611363 -4.9593736,-7.214563 C 15.47943,-42.078309 14.954466,-49.181756 7.199747,-62.059423 4.8120892,-66.024428 0.11746448,-76.301846 -3.2322484,-84.898547 -9.4188049,-100.77406 -16.315101,-115.51272 -17.160561,-114.66727 c -0.899505,0.89951 5.505843,23.917402 9.7512815,35.042924 9.1772231,24.048165 11.0552241,38.727867 7.15069024,55.894059 -2.31584854,10.182174 -1.74972704,12.599123 2.69008816,11.484945 1.740732,-0.436751 4.7386551,-1.109112 6.6620094,-1.493746 z M 198.46643,-25.363003 c 2.09142,-2.837411 5.43444,-8.595946 7.42923,-12.79641 3.12937,-6.590956 3.55879,-8.699124 3.13319,-15.383055 -0.43082,-6.768967 -1.74043,-10.244157 -10.38589,-27.564929 -9.59674,-19.225983 -11.93545,-25.538393 -14.86754,-40.130033 -1.77025,-8.81062 -3.27877,-9.78231 -4.32783,-2.78734 -1.22601,8.17568 1.29918,26.053535 6.09169,43.127132 5.28025,18.811759 5.51609,26.789011 1.14914,38.894162 -1.82048,5.046679 -2.83881,9.874151 -2.4281,11.510646 0.922,3.673573 6.51462,10.288755 8.69875,10.288755 0.93791,0 3.41646,-2.321555 5.50815,-5.158928 z"
       fill="#2d303b"
       stroke-width="1.21384"
       id="path18"
       style="fill:url(#linearGradient4595);fill-opacity:1" />
  </g>
</svg>
