<?xml version="1.0" encoding="UTF-8" standalone="no"?>
<!-- Created with Inkscape (http://www.inkscape.org/) -->

<svg
   width="64"
   height="64"
   viewBox="0 0 16.933333 16.933333"
   version="1.1"
   id="svg5"
   inkscape:version="1.1.1 (3bf5ae0d25, 2021-09-20, custom)"
   sodipodi:docname="org.gnome.Baobab.svg"
   xmlns:inkscape="http://www.inkscape.org/namespaces/inkscape"
   xmlns:sodipodi="http://sodipodi.sourceforge.net/DTD/sodipodi-0.dtd"
   xmlns:xlink="http://www.w3.org/1999/xlink"
   xmlns="http://www.w3.org/2000/svg"
   xmlns:svg="http://www.w3.org/2000/svg">
  <sodipodi:namedview
     id="namedview7"
     pagecolor="#ffffff"
     bordercolor="#666666"
     borderopacity="1.0"
     inkscape:pageshadow="2"
     inkscape:pageopacity="0.0"
     inkscape:pagecheckerboard="0"
     inkscape:document-units="px"
     showgrid="false"
     units="px"
     height="48px"
     inkscape:zoom="4.4138931"
     inkscape:cx="55.279997"
     inkscape:cy="48.14344"
     inkscape:window-width="1920"
     inkscape:window-height="1011"
     inkscape:window-x="0"
     inkscape:window-y="0"
     inkscape:window-maximized="1"
     inkscape:current-layer="svg5"
     inkscape:lockguides="true" />
  <defs
     id="defs2">
    <linearGradient
       inkscape:collect="always"
       id="linearGradient1916">
      <stop
         style="stop-color:#ffffff;stop-opacity:1"
         offset="0"
         id="stop1912" />
      <stop
         style="stop-color:#999999;stop-opacity:1"
         offset="1"
         id="stop1914" />
    </linearGradient>
    <linearGradient
       inkscape:collect="always"
       id="linearGradient5352">
      <stop
         style="stop-color:#1ca460;stop-opacity:1;"
         offset="0"
         id="stop5348" />
      <stop
         style="stop-color:#20bea0;stop-opacity:1"
         offset="1"
         id="stop5350" />
    </linearGradient>
    <linearGradient
       inkscape:collect="always"
       id="linearGradient3289">
      <stop
         style="stop-color:#349cd7;stop-opacity:1;"
         offset="0"
         id="stop3285" />
      <stop
         style="stop-color:#34cdd7;stop-opacity:1"
         offset="1"
         id="stop3287" />
    </linearGradient>
    <linearGradient
       inkscape:collect="always"
       id="linearGradient2649">
      <stop
         style="stop-color:#d74c34;stop-opacity:1;"
         offset="0"
         id="stop2645" />
      <stop
         style="stop-color:#d76b34;stop-opacity:1"
         offset="1"
         id="stop2647" />
    </linearGradient>
    <linearGradient
       inkscape:collect="always"
       id="linearGradient4764">
      <stop
         style="stop-color:#ffffff;stop-opacity:1"
         offset="0"
         id="stop4760" />
      <stop
         style="stop-color:#b3b3b3;stop-opacity:1"
         offset="1"
         id="stop4762" />
    </linearGradient>
    <linearGradient
       inkscape:collect="always"
       id="linearGradient3908">
      <stop
         style="stop-color:#000000;stop-opacity:1;"
         offset="0"
         id="stop3904" />
      <stop
         style="stop-color:#000000;stop-opacity:0;"
         offset="1"
         id="stop3906" />
    </linearGradient>
    <linearGradient
       inkscape:collect="always"
       id="linearGradient867">
      <stop
         style="stop-color:#b3b3b3;stop-opacity:1;"
         offset="0"
         id="stop863" />
      <stop
         style="stop-color:#e6e6e6;stop-opacity:1"
         offset="1"
         id="stop865" />
    </linearGradient>
    <linearGradient
       inkscape:collect="always"
       xlink:href="#linearGradient3908"
       id="linearGradient3910"
       x1="15.001922"
       y1="58.742687"
       x2="52"
       y2="18.742687"
       gradientUnits="userSpaceOnUse" />
    <linearGradient
       inkscape:collect="always"
       xlink:href="#linearGradient4764"
       id="linearGradient4766"
       x1="3.9687499"
       y1="12.235105"
       x2="4.1533575"
       y2="15.410105"
       gradientUnits="userSpaceOnUse" />
    <linearGradient
       inkscape:collect="always"
       xlink:href="#linearGradient1916"
       id="linearGradient2023"
       gradientUnits="userSpaceOnUse"
       x1="12.7"
       y1="-12.295832"
       x2="12.7"
       y2="15.345835"
       gradientTransform="matrix(0.26458333,0,0,0.26458333,7.14375,6.6145832)" />
    <linearGradient
       inkscape:collect="always"
       xlink:href="#linearGradient37218"
       id="linearGradient1781"
       x1="2.8346456e-08"
       y1="2.2677165e-07"
       x2="64"
       y2="64"
       gradientUnits="userSpaceOnUse"
       gradientTransform="scale(0.26458333)" />
    <linearGradient
       inkscape:collect="always"
       id="linearGradient37218">
      <stop
         style="stop-color:#808080;stop-opacity:1"
         offset="0"
         id="stop37214" />
      <stop
         style="stop-color:#717171;stop-opacity:0.00392157"
         offset="0.49741825"
         id="stop37220" />
      <stop
         style="stop-color:#808080;stop-opacity:1"
         offset="1"
         id="stop37216" />
    </linearGradient>
    <linearGradient
       inkscape:collect="always"
       xlink:href="#linearGradient867"
       id="linearGradient917"
       x1="16.404167"
       y1="16.933334"
       x2="16.404167"
       y2="6.7529299e-07"
       gradientUnits="userSpaceOnUse"
       gradientTransform="scale(3.7795276)" />
    <linearGradient
       inkscape:collect="always"
       xlink:href="#linearGradient3289"
       id="linearGradient3850"
       x1="6.614583"
       y1="12.7"
       x2="6.614583"
       y2="2.1166663"
       gradientUnits="userSpaceOnUse" />
    <linearGradient
       inkscape:collect="always"
       xlink:href="#linearGradient2649"
       id="linearGradient4536"
       x1="13.493751"
       y1="13.4366"
       x2="13.49375"
       y2="3.3824329"
       gradientUnits="userSpaceOnUse"
       gradientTransform="translate(0.26458335)" />
    <linearGradient
       inkscape:collect="always"
       xlink:href="#linearGradient5352"
       id="linearGradient5354"
       x1="14.287499"
       y1="12.7"
       x2="7.937499"
       y2="7.4083338"
       gradientUnits="userSpaceOnUse" />
  </defs>
  <rect
     style="opacity:1;fill:url(#linearGradient3850);fill-opacity:1;stroke-width:2.45991;stroke-linecap:round;stroke-linejoin:round"
     id="rect3681"
     width="12.170833"
     height="12.170833"
     x="2.3812499"
     y="2.3812499" />
  <rect
     style="opacity:1;fill:url(#linearGradient4536);fill-opacity:1;stroke-width:2.38125;stroke-linecap:round;stroke-linejoin:round"
     id="rect4448"
     width="5.2916665"
     height="11.641666"
     x="8.4666662"
     y="2.3240991" />
  <path
     id="rect4798"
     style="opacity:1;fill:url(#linearGradient5354);stroke-width:2.38125;stroke-linecap:round;stroke-linejoin:round"
     d="m 8.4666662,7.9375 5.2916668,3.175 -5.2916668,3.175 z"
     sodipodi:nodetypes="cccc" />
  <path
     id="rect863"
     style="fill:url(#linearGradient917);fill-opacity:1;stroke-width:0.999999"
     d="M 12,4 C 7.5680004,4 4,7.5680004 4,12 v 40 c 0,4.432003 3.5680004,8 8,8 h 40 c 4.432003,0 8,-3.567997 8,-8 V 12 C 60,7.5680004 56.432003,4 52,4 Z m 20,10 c 8.836556,-10e-7 16,7.163444 16,16 0,8.836555 -7.163444,15.999989 -16,16 -0.99043,-0.0035 -1.978394,-0.09898 -2.951172,-0.285156 L 37.248047,38 22.089844,42.558594 C 18.244784,39.525081 16.000859,34.897618 16,30 c -10e-7,-8.836556 7.163444,-16.000001 16,-16 z"
     transform="scale(0.26458333)"
     sodipodi:nodetypes="ssssssssssscccccs" />
  <path
     id="rect1345"
     style="opacity:0.3;fill:url(#linearGradient1781);fill-opacity:1;stroke-width:0.264583"
     d="m 3.175,1.0583333 c -1.1726333,0 -2.1166667,0.9440334 -2.1166667,2.1166667 v 10.583333 c 0,1.172634 0.9440334,2.116667 2.1166667,2.116667 h 10.583334 c 1.172633,0 2.116666,-0.944033 2.116666,-2.116667 V 3.175 c 0,-1.1726333 -0.944033,-2.1166667 -2.116666,-2.1166667 z m 0,0.2645834 h 10.583334 c 1.026054,0 1.852083,0.8260291 1.852083,1.8520833 v 10.583333 c 0,1.026054 -0.826029,1.852084 -1.852083,1.852084 H 3.175 c -1.0260542,0 -1.8520834,-0.82603 -1.8520834,-1.852084 V 3.175 c 0,-1.0260542 0.8260292,-1.8520833 1.8520834,-1.8520833 z" />
  <path
     id="path1496"
     style="opacity:1;fill:url(#linearGradient4766);stroke-width:0.264593;fill-opacity:1"
     d="m 8.9158572,10.583333 -4.417842,1.328669 c -0.5061043,0.292271 -0.6795136,0.939444 -0.3873501,1.44561 0.2922716,0.506105 0.9394435,0.679514 1.4456104,0.38735 z"
     sodipodi:nodetypes="ccccc" />
  <path
     id="path1150-5"
     style="opacity:0.3;fill:url(#linearGradient3910);fill-opacity:1;stroke-width:1.05951"
     d="M 36.96875,30.445312 C 36.738576,33.019535 34.584486,34.994117 32,35 c -2.563938,-0.0052 -4.708455,-1.948908 -4.964844,-4.5 -0.02007,0.165974 -0.0318,0.33285 -0.03516,0.5 0,2.761424 2.238576,5 5,5 2.761424,0 5,-2.238576 5,-5 -1.28e-4,-0.185332 -0.01056,-0.370514 -0.03125,-0.554688 z M 47.990234,30.5 C 47.725708,39.104858 40.669031,45.999978 32,46 c -0.683552,-0.0024 -1.365947,-0.04906 -2.042969,-0.138672 l -0.908203,0.853516 C 30.021606,46.901023 31.00957,46.996485 32,47 c 8.836556,-2.3e-5 16,-7.163446 16,-16 0,-0.167525 -0.0047,-0.333715 -0.0098,-0.5 z m -31.982422,0.01953 C 16.003092,30.679354 16,30.839034 16,31 c 8.55e-4,4.871635 2.221552,9.47556 6.029297,12.509766 L 33.697266,40 33.591797,40.099609 35.685547,39.470703 37.248047,38 22.089844,42.558594 C 18.380921,39.632488 16.161076,35.223692 16.007812,30.519531 Z M 33.697266,41 32.134766,41.46875 21,51.949219 c -1.913072,1.104242 -4.358242,0.447994 -5.462891,-1.464844 -0.273964,-0.474636 -0.438798,-0.982596 -0.503906,-1.494141 -0.104635,0.834929 0.05072,1.709014 0.503906,2.494141 1.104649,1.912838 3.549819,2.569086 5.462891,1.464844 z"
     transform="scale(0.26458333)"
     sodipodi:nodetypes="ccccscccccccscccccccccccccccccc" />
  <path
     d="m 8.4666666,6.6145832 c -0.7306267,0 -1.3229166,0.5922899 -1.3229166,1.3229166 0,0.7306268 0.5922901,1.3229167 1.3229166,1.3229167 0.7306268,0 1.3229167,-0.5922899 1.3229167,-1.3229167 0,-0.7306267 -0.5922899,-1.3229166 -1.3229167,-1.3229166 z"
     style="opacity:1;fill:url(#linearGradient2023);fill-opacity:1.0;stroke-width:0.0741704"
     id="path1928" />
</svg>
