<?xml version="1.0" encoding="UTF-8" standalone="no"?>
<svg
   width="64"
   height="64"
   version="1.1"
   viewBox="0 0 16.933 16.933"
   id="svg45"
   sodipodi:docname="bitwarden.svg"
   inkscape:version="1.2.1 (9c6d41e410, 2022-07-14)"
   xmlns:inkscape="http://www.inkscape.org/namespaces/inkscape"
   xmlns:sodipodi="http://sodipodi.sourceforge.net/DTD/sodipodi-0.dtd"
   xmlns="http://www.w3.org/2000/svg"
   xmlns:svg="http://www.w3.org/2000/svg">
  <sodipodi:namedview
     id="namedview47"
     pagecolor="#505050"
     bordercolor="#ffffff"
     borderopacity="1"
     inkscape:showpageshadow="0"
     inkscape:pageopacity="0"
     inkscape:pagecheckerboard="1"
     inkscape:deskcolor="#505050"
     showgrid="false"
     inkscape:zoom="13.03125"
     inkscape:cx="23.904077"
     inkscape:cy="32"
     inkscape:window-width="1920"
     inkscape:window-height="1015"
     inkscape:window-x="0"
     inkscape:window-y="37"
     inkscape:window-maximized="1"
     inkscape:current-layer="g43" />
  <defs
     id="defs23">
    <filter
       id="filter1178"
       x="-0.047999482"
       y="-0.047999482"
       width="1.095999"
       height="1.095999"
       color-interpolation-filters="sRGB">
      <feGaussianBlur
         stdDeviation="0.30691668"
         id="feGaussianBlur2" />
    </filter>
    <linearGradient
       id="linearGradient1340"
       x1="8.6644"
       x2="8.6644"
       y1="15.931"
       y2=".79375"
       gradientUnits="userSpaceOnUse">
      <stop
         stop-color="#5e81ac"
         offset="0"
         id="stop5"
         style="stop-color:#2d7cdd;stop-opacity:1;" />
      <stop
         stop-color="#81a1c1"
         offset="1"
         id="stop7"
         style="stop-color:#5ba1e7;stop-opacity:1;" />
    </linearGradient>
    <linearGradient
       id="linearGradient2401"
       x1="8.1555"
       x2="8.1555"
       y1="12.841"
       y2="4.2132"
       gradientUnits="userSpaceOnUse">
      <stop
         stop-color="#d8dee9"
         offset="0"
         id="stop10" />
      <stop
         stop-color="#eceff4"
         offset="1"
         id="stop12" />
    </linearGradient>
    <linearGradient
       id="linearGradient3045"
       x1="9.1928"
       x2="10.403"
       y1="10.446"
       y2="5.4934"
       gradientUnits="userSpaceOnUse">
      <stop
         stop-color="#88c0d0"
         offset="0"
         id="stop15"
         style="stop-color:#67d2f1;stop-opacity:1;" />
      <stop
         stop-color="#5e81ac"
         offset="1"
         id="stop17"
         style="stop-color:#2d7cdd;stop-opacity:1;" />
    </linearGradient>
    <filter
       id="filter3795"
       x="-0.082444629"
       y="-0.068788655"
       width="1.1648893"
       height="1.1375773"
       color-interpolation-filters="sRGB">
      <feGaussianBlur
         stdDeviation="0.29958865"
         id="feGaussianBlur20" />
    </filter>
  </defs>
  <g
     stroke-linecap="round"
     stroke-linejoin="round"
     id="g31">
    <rect
       transform="matrix(.99138 0 0 1 .072989 .0019055)"
       x=".79375"
       y=".90545"
       width="15.346"
       height="15.346"
       rx="3.0526"
       ry="3.0526"
       fill="#000000"
       filter="url(#filter1178)"
       opacity=".15"
       stroke-width="1.2489"
       style="mix-blend-mode:normal;opacity:0.3"
       id="rect25" />
    <rect
       x=".92604"
       y=".92604"
       width="15.081"
       height="15.081"
       rx="3"
       ry="3"
       fill="url(#linearGradient1340)"
       stroke-width="1.2274"
       id="rect27" />
    <rect
       x=".01215"
       y=".0060174"
       width="16.924"
       height="16.927"
       fill="none"
       opacity=".15"
       stroke-width="1.052"
       id="rect29" />
  </g>
  <g
     transform="matrix(1.0483 0 0 1.0483 -.29733 -.78157)"
     stroke-width=".95394"
     id="g43">
    <g
       transform="translate(.14832 .2472)"
       fill="#2e3440"
       filter="url(#filter3795)"
       opacity=".3"
       id="g37">
      <path
         d="m8.5565 14.028c0.15989-0.0732 0.80454-0.42416 1.0248-0.5579 0.072097-0.04378 0.50776-0.33126 0.70073-0.46237 0.12103-0.08224 0.5261-0.41283 0.72583-0.59237 0.36263-0.32598 0.76942-0.78421 0.99316-1.1187 0.17773-0.26573 0.4239-0.76319 0.50682-1.0241 0.15486-0.48735 0.14604-0.27944 0.14604-3.4428 0-2.8097-6.67e-4 -2.8544-0.04389-2.9395-0.02414-0.04751-0.08064-0.11566-0.12555-0.15145l-0.08165-0.065075-0.78526-0.020335c-0.94882-0.024571-7.1942-0.0054142-7.3433 0.022565-0.13903 0.02606-0.21172 0.081928-0.27847 0.21403l-0.054867 0.10859-0.00653 2.425c-0.00709 2.6084 0.00851 3.2972 0.080849 3.5775 0.147 0.5696 0.4309 1.1181 0.8519 1.646 0.1386 0.1738 0.68882 0.74103 0.8625 0.88917 0.54977 0.46895 1.0067 0.78214 1.7439 1.1953 0.70199 0.39343 0.80797 0.42244 1.083 0.29651zm-0.2372-5.2231v-3.8517h3.0305l-0.0128 4.7296-0.09389 0.24142c-0.11298 0.2905-0.24401 0.52276-0.45017 0.7979-0.43676 0.58292-1.1796 1.2024-2.0676 1.7242-0.12071 0.07094-0.25026 0.14726-0.2879 0.16962-0.037637 0.02236-0.079614 0.04066-0.093274 0.04066-0.018401 0-0.024842-0.99918-0.024842-3.8517z"
         stroke-width=".95394"
         id="path33" />
      <path
         d="m8.3192 4.9528v3.8519c0 2.8525 0.0064 3.8514 0.024791 3.8514 0.013652 0 0.055892-0.01795 0.093534-0.04031 0.037636-0.02236 0.16712-0.09856 0.28783-0.1695 0.88803-0.52183 1.6308-1.1415 2.0675-1.7244 0.20615-0.27514 0.33712-0.50737 0.45009-0.79787l0.09405-0.24132 0.0062-2.3652 0.0067-2.3647h-1.5156z"
         opacity=".45"
         id="path35" />
    </g>
    <path
       d="m8.5565 14.028c0.15989-0.0732 0.80454-0.42416 1.0248-0.5579 0.072097-0.04378 0.50776-0.33126 0.70073-0.46237 0.12103-0.08224 0.5261-0.41283 0.72583-0.59237 0.36263-0.32598 0.76942-0.78421 0.99316-1.1187 0.17773-0.26573 0.4239-0.76319 0.50682-1.0241 0.15486-0.48735 0.14604-0.27944 0.14604-3.4428 0-2.8097-6.67e-4 -2.8544-0.04389-2.9395-0.02414-0.04751-0.08064-0.11566-0.12555-0.15145l-0.08165-0.065075-0.78526-0.020335c-0.94882-0.024571-7.1942-0.0054142-7.3433 0.022565-0.13903 0.02606-0.21172 0.081928-0.27847 0.21403l-0.054867 0.10859-0.00653 2.425c-0.00709 2.6084 0.00851 3.2972 0.080849 3.5775 0.147 0.5696 0.4309 1.1181 0.8519 1.646 0.1386 0.1738 0.68882 0.74103 0.8625 0.88917 0.54977 0.46895 1.0067 0.78214 1.7439 1.1953 0.70199 0.39343 0.80797 0.42244 1.083 0.29651zm-0.2372-5.2231v-3.8517h3.0305l-0.0128 4.7296-0.09389 0.24142c-0.11298 0.2905-0.24401 0.52276-0.45017 0.7979-0.43676 0.58292-1.1796 1.2024-2.0676 1.7242-0.12071 0.07094-0.25026 0.14726-0.2879 0.16962-0.037637 0.02236-0.079614 0.04066-0.093274 0.04066-0.018401 0-0.024842-0.99918-0.024842-3.8517z"
       fill="url(#linearGradient2401)"
       stroke-width=".95394"
       id="path39" />
    <path
       d="m8.3192 4.9528v3.8519c0 2.8525 0.0064 3.8514 0.024791 3.8514 0.013652 0 0.055892-0.01795 0.093534-0.04031 0.037636-0.02236 0.16712-0.09856 0.28783-0.1695 0.88803-0.52183 1.6308-1.1415 2.0675-1.7244 0.20615-0.27514 0.33712-0.50737 0.45009-0.79787l0.09405-0.24132 0.0062-2.3652 0.0067-2.3647h-1.5156z"
       fill="url(#linearGradient3045)"
       opacity=".45"
       id="path41" />
  </g>
</svg>
