<?xml version="1.0" encoding="UTF-8" standalone="no"?>
<svg
   width="512"
   height="512"
   version="1.1"
   viewBox="0 0 135.47 135.47"
   id="svg32"
   sodipodi:docname="chntpw.svg"
   inkscape:version="1.1.2 (0a00cf5339, 2022-02-04, custom)"
   xmlns:inkscape="http://www.inkscape.org/namespaces/inkscape"
   xmlns:sodipodi="http://sodipodi.sourceforge.net/DTD/sodipodi-0.dtd"
   xmlns:xlink="http://www.w3.org/1999/xlink"
   xmlns="http://www.w3.org/2000/svg"
   xmlns:svg="http://www.w3.org/2000/svg">
  <defs
     id="defs36">
    <linearGradient
       inkscape:collect="always"
       id="linearGradient2513">
      <stop
         style="stop-color:#000000;stop-opacity:1"
         offset="0"
         id="stop2509" />
      <stop
         style="stop-color:#00347a;stop-opacity:0.59607846"
         offset="1"
         id="stop2511" />
    </linearGradient>
    <linearGradient
       inkscape:collect="always"
       id="linearGradient1683">
      <stop
         style="stop-color:#4a9ae6;stop-opacity:1"
         offset="0"
         id="stop1679" />
      <stop
         style="stop-color:#7cf3ff;stop-opacity:1"
         offset="1"
         id="stop1681" />
    </linearGradient>
    <linearGradient
       inkscape:collect="always"
       id="linearGradient1457">
      <stop
         style="stop-color:#8c42ab;stop-opacity:1;"
         offset="0"
         id="stop1453" />
      <stop
         style="stop-color:#f2b8e8;stop-opacity:1"
         offset="1"
         id="stop1455" />
    </linearGradient>
    <filter
       inkscape:collect="always"
       style="color-interpolation-filters:sRGB"
       id="filter1365"
       x="-0.032275021"
       y="-0.032275517"
       width="1.06455"
       height="1.064551">
      <feGaussianBlur
         inkscape:collect="always"
         stdDeviation="0.87650889"
         id="feGaussianBlur1367" />
    </filter>
    <linearGradient
       inkscape:collect="always"
       xlink:href="#linearGradient1457"
       id="linearGradient1459"
       x1="101.03577"
       y1="68.58847"
       x2="101.34161"
       y2="135.63811"
       gradientUnits="userSpaceOnUse" />
    <linearGradient
       inkscape:collect="always"
       xlink:href="#linearGradient1683"
       id="linearGradient1685"
       x1="69.120934"
       y1="8.4631348"
       x2="68.536186"
       y2="142.11966"
       gradientUnits="userSpaceOnUse" />
    <radialGradient
       inkscape:collect="always"
       xlink:href="#linearGradient2513"
       id="radialGradient2281"
       cx="67.732109"
       cy="67.732101"
       fx="67.732109"
       fy="67.732101"
       r="59.529999"
       gradientUnits="userSpaceOnUse" />
    <filter
       inkscape:collect="always"
       style="color-interpolation-filters:sRGB"
       id="filter2283"
       x="-0.061074383"
       y="-0.061074383"
       width="1.1221488"
       height="1.1221488">
      <feGaussianBlur
         inkscape:collect="always"
         stdDeviation="3.0297982"
         id="feGaussianBlur2285" />
    </filter>
  </defs>
  <sodipodi:namedview
     id="namedview34"
     pagecolor="#ffffff"
     bordercolor="#666666"
     borderopacity="1.0"
     inkscape:pageshadow="2"
     inkscape:pageopacity="0.0"
     inkscape:pagecheckerboard="0"
     showgrid="false"
     inkscape:zoom="1.0078125"
     inkscape:cx="256"
     inkscape:cy="309.5814"
     inkscape:window-width="1366"
     inkscape:window-height="703"
     inkscape:window-x="0"
     inkscape:window-y="37"
     inkscape:window-maximized="1"
     inkscape:current-layer="svg32" />
  <rect
     x="8.2021074"
     y="8.2020998"
     width="119.06"
     height="119.06"
     rx="15.875"
     ry="15.875"
     fill="#4aaee6"
     stroke-linecap="round"
     stroke-linejoin="round"
     stroke-width="2.6458"
     id="rect2-7"
     style="fill:url(#radialGradient2281);fill-opacity:1;filter:url(#filter2283)" />
  <rect
     x="8.2021"
     y="8.2021"
     width="119.06"
     height="119.06"
     rx="15.875"
     ry="15.875"
     fill="#4aaee6"
     stroke-linecap="round"
     stroke-linejoin="round"
     stroke-width="2.6458"
     id="rect2"
     style="fill-opacity:1;fill:url(#linearGradient1685)" />
  <rect
     x="26.534"
     y="26.534"
     width="36.524"
     height="36.524"
     rx="0"
     ry="0"
     fill="#fff"
     stroke-linecap="round"
     stroke-linejoin="round"
     stroke-width="3.1073"
     id="rect6" />
  <rect
     x="72.408"
     y="26.534"
     width="36.524"
     height="36.524"
     rx="0"
     ry="0"
     fill="#fff"
     stroke-linecap="round"
     stroke-linejoin="round"
     stroke-width="3.1073"
     id="rect10" />
  <rect
     x="72.408"
     y="75.054"
     width="36.524"
     height="36.524"
     rx="0"
     ry="0"
     opacity=".3"
     stroke-linecap="round"
     stroke-linejoin="round"
     stroke-width="3.1073"
     id="rect12" />
  <rect
     x="72.408"
     y="72.408"
     width="36.524"
     height="36.524"
     rx="0"
     ry="0"
     fill="#fff"
     stroke-linecap="round"
     stroke-linejoin="round"
     stroke-width="3.1073"
     id="rect14" />
  <rect
     x="26.534"
     y="72.408"
     width="36.524"
     height="36.524"
     rx="0"
     ry="0"
     fill="#fff"
     stroke-linecap="round"
     stroke-linejoin="round"
     stroke-width="3.1073"
     id="rect20" />
  <path
     d="m 133.88246,100.76328 c 0,17.997 -14.591,32.588 -32.589,32.588 -17.999,0 -32.589,-14.591 -32.589,-32.588 0,-17.999 14.591,-32.589 32.589,-32.589 17.999,0 32.589,14.591 32.589,32.589 z"
     opacity="0.3"
     stroke-width="0.35278"
     id="path22"
     style="mix-blend-mode:normal;filter:url(#filter1365)" />
  <path
     d="m 133.88246,100.76328 c 0,17.997 -14.591,32.588 -32.589,32.588 -17.999,0 -32.589,-14.591 -32.589,-32.588 0,-17.999001 14.591,-32.589001 32.589,-32.589001 17.999,0 32.589,14.591 32.589,32.589001 z"
     fill="#8c42ab"
     stroke-width="0.35278"
     id="path24"
     style="fill-opacity:1;fill:url(#linearGradient1459)" />
  <path
     d="m 114.53969,87.490602 -1.7e-4,8.3e-4 c 0.0581,0.058 0.1153,0.11686 0.17161,0.176 0.16874,0.17751 0.3293,0.35974 0.48173,0.54652 0.2034,0.24926 0.39227,0.50642 0.56661,0.77027 0.13065,0.19772 0.25302,0.39932 0.36736,0.60414 0.0762,0.1366 0.14891,0.27458 0.2179,0.414 1.5869,3.2065 1.2533,7.1175 -1.0017,10.027998 -7e-5,9e-5 -1.7e-4,1.6e-4 -2.4e-4,2.4e-4 -0.13801,0.17804 -0.28345,0.35232 -0.43581,0.5225 l -0.004,0.004 c -0.0437,0.0493 -0.0889,0.0974 -0.1343,0.14561 -0.017,0.0183 -0.0338,0.0366 -0.0507,0.055 -7.5e-4,8e-4 -0.002,0.002 -0.002,0.002 l -0.005,0.005 c -8e-5,8e-5 -1.6e-4,1.6e-4 -2.3e-4,2.4e-4 -0.004,0.004 -0.009,0.009 -0.013,0.0132 -0.0143,0.0148 -0.0288,0.0295 -0.043,0.0444 -0.0383,0.0396 -0.0764,0.0792 -0.11552,0.11834 -0.0204,0.0204 -0.0413,0.0399 -0.0617,0.0603 -0.0378,0.0372 -0.0757,0.0742 -0.11442,0.11018 -1.9344,1.8398 -4.4493,2.7232 -6.9354,2.6332 -1.3e-4,-10e-6 -2.4e-4,-1.2e-4 -3.6e-4,-1.2e-4 -0.74716,-0.0271 -1.4916,-0.1419 -2.2169,-0.34506 -1.3e-4,-4e-5 -2.4e-4,-9e-5 -3.6e-4,-1.1e-4 -0.1035,-0.029 -0.20658,-0.0596 -0.30925,-0.0922 l 2.4e-4,-2.4e-4 c -2e-4,-5e-5 -4.1e-4,-5e-5 -5.7e-4,-9e-5 l -12.768996,12.769 h 2.4e-4 l -0.74834,0.74834 -4.8414,-1.205 c 1.7e-4,-1.7e-4 2.1e-4,-2.2e-4 3.5e-4,-3.4e-4 h -2.5e-4 c 0.002,-0.003 0.003,-0.004 0.007,-0.007 l -1.2903,-4.911 1.6208,-1.6208 4.8e-4,-1e-5 3.4e-4,-3.4e-4 2.2037,-0.0722 v 4.7e-4 l 0.65992,-0.0217 -0.16079,-2.6099 0.46225,-0.46224 h 4.8e-4 l 4.7e-4,-4.7e-4 2.2362,-0.0356 v 2.3e-4 l 0.60145,-0.01 0.10097,-2.8943 8.1e-4,-1.3e-4 1e-5,-2.5e-4 2.285,-0.0826 -1e-5,2.4e-4 0.63531,-0.0229 -0.0149,-0.72057 -0.0423,-2.0376 -1.2e-4,-1.2e-4 2.908,-2.908098 c -0.0338,-0.10311 -0.0657,-0.20678 -0.0953,-0.31097 -7.2e-4,-0.002 -8.1e-4,-0.004 -0.002,-0.006 -0.0276,-0.0951 -0.0531,-0.19058 -0.0773,-0.28635 l -0.009,-0.036 c -0.0498,-0.2011 -0.0937,-0.40326 -0.13054,-0.60657 -0.001,-0.009 -0.003,-0.0177 -0.005,-0.0262 -0.0371,-0.20796 -0.0675,-0.41682 -0.0907,-0.62642 -3.2e-4,-0.003 -3.2e-4,-0.005 -1.3e-4,-0.008 -0.0111,-0.10063 -0.0204,-0.20142 -0.0282,-0.30232 -3.3e-4,-0.005 -0.001,-0.0116 -0.002,-0.0173 -0.0157,-0.20599 -0.0246,-0.41237 -0.0269,-0.61886 -2.9e-4,-0.0127 2.1e-4,-0.0263 -1.5e-4,-0.0392 -0.002,-0.20422 0.003,-0.40844 0.0149,-0.61242 9.4e-4,-0.0119 0.001,-0.0232 0.002,-0.0349 0.006,-0.0956 0.0128,-0.19124 0.0214,-0.28671 1.2e-4,-0.007 0.001,-0.0141 0.002,-0.0214 0.01,-0.10245 0.0207,-0.20468 0.0335,-0.30682 0.002,-0.01 0.003,-0.0196 0.004,-0.0292 0.0113,-0.0884 0.0241,-0.17658 0.0379,-0.26468 0.003,-0.0201 0.006,-0.0401 0.009,-0.0603 0.032,-0.19623 0.0703,-0.39168 0.11461,-0.58599 0.004,-0.0186 0.009,-0.0372 0.0131,-0.0559 0.0203,-0.0869 0.0418,-0.17363 0.0647,-0.26005 0.003,-0.0101 0.005,-0.021 0.008,-0.0314 0.0264,-0.0985 0.0546,-0.19678 0.0842,-0.29463 0.003,-0.0102 0.007,-0.0208 0.01,-0.0312 0.0273,-0.0893 0.0561,-0.17826 0.0861,-0.26686 0.004,-0.0123 0.008,-0.0242 0.0122,-0.0363 0.0667,-0.19428 0.13993,-0.38681 0.21949,-0.57733 0.006,-0.0145 0.0121,-0.0289 0.0182,-0.0434 0.0367,-0.0868 0.0747,-0.17315 0.11412,-0.25908 0.004,-0.008 0.008,-0.016 0.0113,-0.024 0.043,-0.0929 0.0876,-0.18522 0.13373,-0.27697 0.006,-0.0135 0.0136,-0.0263 0.0203,-0.0396 0.0401,-0.0791 0.0814,-0.15759 0.12385,-0.23571 0.009,-0.0165 0.0182,-0.0335 0.0274,-0.0503 0.0488,-0.0883 0.0988,-0.17625 0.15052,-0.26336 0.006,-0.01 0.0121,-0.0192 0.0177,-0.0291 0.0466,-0.0777 0.0946,-0.15485 0.14358,-0.23156 0.0119,-0.019 0.0239,-0.0381 0.0364,-0.0567 0.1109,-0.17086 0.227666,-0.33898 0.350536,-0.50401 0.0136,-0.0178 0.0272,-0.0357 0.0408,-0.0535 0.0523,-0.0693 0.10568,-0.13805 0.16014,-0.20623 0.0117,-0.0145 0.0233,-0.0289 0.035,-0.0434 0.0657,-0.0813 0.133,-0.16171 0.20182,-0.24128 0.008,-0.008 0.0156,-0.017 0.0231,-0.0259 0.062,-0.0704 0.12463,-0.14075 0.18864,-0.21014 0.0146,-0.0157 0.0289,-0.0316 0.044,-0.0469 0.0727,-0.0769 0.14566,-0.15415 0.22109,-0.22957 0.17456,-0.17457 0.35463,-0.34049 0.53848,-0.49902 0.061,-0.0525 0.12248,-0.10394 0.18453,-0.15456 2.7e-4,-2e-4 6.1e-4,-4.1e-4 8.7e-4,-6.4e-4 0.062,-0.0507 0.12453,-0.10046 0.18755,-0.14933 2.2e-4,-1.9e-4 4.9e-4,-3.2e-4 7.3e-4,-4.9e-4 0.063,-0.0489 0.12656,-0.0968 0.1905,-0.14371 2.7e-4,-2e-4 5.9e-4,-4.2e-4 8.6e-4,-6.5e-4 0.064,-0.0471 0.12835,-0.0931 0.19321,-0.13832 2.4e-4,-1.7e-4 4.9e-4,-3.3e-4 7.3e-4,-5e-4 0.0148,-0.0102 0.03,-0.0202 0.0448,-0.0304 0.0504,-0.0347 0.10078,-0.0695 0.1518,-0.103 0.0656,-0.0435 0.1318,-0.0858 0.19827,-0.12746 2.9e-4,-1.8e-4 5.7e-4,-4.3e-4 8.6e-4,-6.4e-4 0.0665,-0.0416 0.13335,-0.0821 0.20057,-0.12197 3e-4,-1.7e-4 5.7e-4,-4.4e-4 8.6e-4,-6.4e-4 0.0673,-0.0398 0.13498,-0.0786 0.20301,-0.11662 2.5e-4,-1.4e-4 4.7e-4,-3.3e-4 7.3e-4,-4.8e-4 0.0681,-0.0379 0.13643,-0.0751 0.20524,-0.11121 2.6e-4,-1.3e-4 4.7e-4,-3.4e-4 7.4e-4,-4.8e-4 3.5893,-1.8883 8.1259,-1.3213 11.146,1.6991 z m -1.9718,2.0164 c -7e-4,-7.1e-4 -0.002,-0.002 -0.004,-0.003 -0.0318,-0.0316 -0.064,-0.0625 -0.0969,-0.0922 -0.0119,-0.0108 -0.0241,-0.0209 -0.0361,-0.0314 -0.0214,-0.0188 -0.0428,-0.0375 -0.0646,-0.0555 -0.0156,-0.0129 -0.0315,-0.0252 -0.0472,-0.0378 -0.0199,-0.0158 -0.0398,-0.0315 -0.0601,-0.0466 -0.0165,-0.0123 -0.0332,-0.0242 -0.0498,-0.0361 -0.0187,-0.0134 -0.0375,-0.0265 -0.0565,-0.0395 -0.018,-0.0122 -0.0361,-0.0244 -0.0545,-0.0361 -0.0208,-0.0135 -0.0417,-0.0265 -0.0628,-0.0394 -0.0158,-0.01 -0.0315,-0.0192 -0.0474,-0.0284 -0.0201,-0.0117 -0.0404,-0.023 -0.0608,-0.0342 -0.0204,-0.0112 -0.0407,-0.0223 -0.0613,-0.0331 -0.0122,-0.006 -0.0246,-0.0122 -0.0369,-0.0184 -0.0989,-0.0493 -0.19986,-0.093 -0.30267,-0.12996 -4.2e-4,-1.5e-4 -0.001,-3.4e-4 -0.001,-2.1e-4 -0.0281,-0.0101 -0.0563,-0.0195 -0.0847,-0.0287 -0.0128,-0.004 -0.0259,-0.008 -0.039,-0.0124 -0.0258,-0.008 -0.0519,-0.0155 -0.0779,-0.0226 -0.0145,-0.004 -0.0288,-0.008 -0.0433,-0.0116 -0.0289,-0.007 -0.0578,-0.0145 -0.0868,-0.021 -0.009,-0.002 -0.0187,-0.004 -0.0279,-0.006 -0.0317,-0.007 -0.0635,-0.0132 -0.0954,-0.0189 -0.007,-0.001 -0.0149,-0.002 -0.0228,-0.004 -0.70372,-0.11962 -1.4437,0.0299 -2.0573,0.44887 4.1e-4,-6e-4 9.2e-4,-0.001 0.001,-0.001 -0.14471,0.0986 -0.28275,0.21161 -0.41132,0.34018 -0.10644,0.10648 -0.2024,0.21924 -0.28834,0.33699 3.4e-4,-2.3e-4 6.6e-4,-5e-4 9.5e-4,-7.1e-4 -0.10058,0.13778 -0.18716,0.28248 -0.25968,0.43215 -1.3e-4,2.7e-4 -2.4e-4,5.7e-4 -3.8e-4,8.3e-4 -5e-5,1.3e-4 -6e-5,2.7e-4 -1e-4,3.7e-4 -0.0175,0.0359 -0.0339,0.0723 -0.0496,0.10897 -6.4e-4,10e-4 -10e-4,0.002 -0.002,0.005 -3.9e-4,9e-4 -6.5e-4,0.002 -0.001,0.002 -0.0151,0.0351 -0.0293,0.0704 -0.0429,0.10601 -0.002,0.005 -0.003,0.009 -0.005,0.013 -0.0129,0.0344 -0.0251,0.069 -0.0366,0.10372 -0.002,0.006 -0.004,0.0114 -0.006,0.017 -0.0113,0.0346 -0.0218,0.0696 -0.0317,0.10445 -3.1e-4,9.9e-4 -6.5e-4,0.002 -0.001,0.002 -7.4e-4,0.002 -0.002,0.005 -0.002,0.008 -0.0103,0.0373 -0.0199,0.0745 -0.0288,0.11205 -0.0374,0.15943 -0.0607,0.32139 -0.0699,0.48403 -0.002,0.036 -0.003,0.0723 -0.004,0.10828 -1.9e-4,0.006 -6.3e-4,0.012 -5e-4,0.0183 -3.8e-4,0.0333 6e-5,0.0669 8.8e-4,0.10029 4e-4,0.009 4.8e-4,0.0184 9e-4,0.0277 9.8e-4,0.0291 0.002,0.0583 0.004,0.0874 9.6e-4,0.0152 0.002,0.0302 0.003,0.0452 0.002,0.0289 0.005,0.0576 0.008,0.0864 9.3e-4,0.0104 0.002,0.0213 0.004,0.032 0.004,0.0306 0.008,0.0613 0.0128,0.0917 0.002,0.0124 0.004,0.0248 0.006,0.0371 0.005,0.0294 0.0102,0.0587 0.0162,0.0878 0.002,0.0118 0.005,0.0233 0.008,0.035 0.006,0.0293 0.0127,0.0587 0.0201,0.0878 0.003,0.0112 0.006,0.0222 0.009,0.0334 0.0278,0.10527 0.0617,0.20929 0.10195,0.31144 0.002,0.004 0.002,0.008 0.004,0.0116 1.6e-4,3.7e-4 8e-5,6e-4 2.8e-4,9.6e-4 0.0108,0.0271 0.0227,0.0539 0.0345,0.0807 0.006,0.0138 0.0117,0.0276 0.0179,0.0413 0.0105,0.0229 0.0218,0.0457 0.0329,0.0685 0.008,0.0175 0.017,0.0349 0.0259,0.0523 0.01,0.0189 0.0199,0.0377 0.0302,0.0565 0.0115,0.0212 0.0233,0.0426 0.0354,0.0637 0.0106,0.0184 0.0215,0.0366 0.0326,0.0548 0.0108,0.0177 0.022,0.0354 0.0333,0.053 0.0132,0.0207 0.0266,0.0412 0.0404,0.0616 0.0121,0.0178 0.0244,0.0354 0.0369,0.053 0.0127,0.0178 0.0254,0.0355 0.0386,0.0532 0.015,0.0199 0.0304,0.0396 0.0459,0.0594 0.0127,0.0162 0.0252,0.0325 0.0383,0.0483 0.0154,0.0187 0.0315,0.0369 0.0475,0.0553 0.0145,0.0166 0.0286,0.0336 0.0436,0.0499 0.0287,0.0316 0.0583,0.0626 0.0887,0.0931 0.001,0.002 0.003,0.003 0.004,0.004 l 2.4e-4,2.4e-4 c 0.0322,0.0322 0.0651,0.0633 0.0984,0.0935 0.0147,0.0134 0.0298,0.0261 0.0447,0.0391 0.0203,0.0178 0.0406,0.0356 0.0612,0.0528 0.0139,0.0115 0.0282,0.0225 0.0424,0.0336 0.0218,0.0173 0.0436,0.0345 0.0658,0.0509 0.0152,0.0114 0.0307,0.0223 0.0461,0.0334 0.0205,0.0147 0.0412,0.0291 0.062,0.0432 0.0173,0.0117 0.0348,0.0232 0.0522,0.0345 0.0216,0.0139 0.0434,0.0274 0.0653,0.0407 0.0142,0.009 0.0284,0.017 0.0426,0.0253 0.0258,0.015 0.0518,0.0295 0.0779,0.0436 0.0138,0.007 0.0276,0.015 0.0415,0.0222 0.0241,0.0125 0.0484,0.0244 0.0727,0.0362 0.0161,0.008 0.0321,0.0155 0.0484,0.0231 0.0238,0.0109 0.0478,0.0212 0.0717,0.0313 0.0168,0.007 0.0333,0.0147 0.0502,0.0214 0.034,0.0137 0.0682,0.0265 0.10256,0.0388 0.005,0.002 0.0112,0.004 0.0168,0.006 0.0421,0.0148 0.0845,0.0284 0.12703,0.041 0.006,0.002 0.0127,0.004 0.0189,0.005 0.0349,0.0101 0.0699,0.0199 0.10514,0.0287 0.0168,0.004 0.034,0.008 0.051,0.0116 0.0245,0.006 0.0491,0.0113 0.0737,0.0162 0.0177,0.004 0.0355,0.007 0.0532,0.01 0.0265,0.005 0.0529,0.009 0.0794,0.0134 0.0163,0.003 0.0324,0.005 0.0486,0.007 0.0263,0.004 0.0526,0.007 0.0789,0.01 0.0162,0.002 0.0324,0.003 0.0486,0.005 0.0282,0.003 0.0563,0.004 0.0845,0.006 0.0158,9.4e-4 0.0316,0.002 0.0475,0.002 0.0276,8.7e-4 0.0553,0.002 0.0831,0.002 0.015,1.3e-4 0.03,2.6e-4 0.0451,4.6e-4 0.0289,-5e-4 0.0581,-9.8e-4 0.0871,-0.002 0.0149,-8.8e-4 0.03,-8e-4 0.045,-0.002 0.0279,-0.001 0.0556,-0.004 0.0835,-0.006 0.0157,-0.001 0.0313,-0.002 0.0471,-0.003 0.042,-0.004 0.0839,-0.009 0.12568,-0.0151 5.8e-4,-1e-4 0.001,-4.4e-4 0.002,-4e-4 0.004,-7e-4 0.007,-10e-4 0.0115,-10e-4 0.0377,-0.006 0.0757,-0.012 0.11327,-0.0193 0.0193,-0.004 0.0386,-0.008 0.0579,-0.0124 0.0231,-0.005 0.0465,-0.009 0.0695,-0.0155 0.0185,-0.004 0.0365,-0.009 0.0548,-0.0141 0.0243,-0.006 0.0485,-0.0126 0.0727,-0.0196 0.0176,-0.005 0.0348,-0.0104 0.052,-0.016 0.024,-0.007 0.0481,-0.015 0.072,-0.0234 0.0189,-0.006 0.0371,-0.0131 0.0555,-0.0201 0.0227,-0.008 0.0452,-0.0173 0.0679,-0.0254 0.017,-0.007 0.0344,-0.0134 0.0513,-0.021 0.0242,-0.0106 0.0484,-0.0212 0.0726,-0.0317 0.017,-0.008 0.0336,-0.0152 0.0504,-0.0228 0.0233,-0.0104 0.0456,-0.0226 0.0684,-0.0339 0.0166,-0.008 0.0326,-0.016 0.0487,-0.0249 0.0246,-0.0139 0.0495,-0.0273 0.0741,-0.0414 0.014,-0.009 0.0289,-0.016 0.0431,-0.0246 0.027,-0.0155 0.053,-0.0326 0.0793,-0.0496 0.0116,-0.007 0.023,-0.0145 0.0346,-0.0219 0.001,-8.5e-4 0.002,-0.002 0.004,-0.002 0.15416,-0.10259 0.30061,-0.22169 0.43677,-0.35785 0.13189,-0.13193 0.24757,-0.27374 0.34799,-0.42253 0.0142,-0.0212 0.0279,-0.0426 0.0416,-0.0639 0.009,-0.0146 0.018,-0.0294 0.0272,-0.0436 0.0144,-0.0229 0.0279,-0.0465 0.0413,-0.07 0.008,-0.0138 0.0155,-0.0283 0.0235,-0.042 0.0128,-0.0241 0.0258,-0.0477 0.0381,-0.0718 0.008,-0.0149 0.0152,-0.0304 0.0227,-0.0455 0.0109,-0.0223 0.0217,-0.0447 0.032,-0.0671 0.007,-0.0174 0.0151,-0.0344 0.0225,-0.0515 0.0541,-0.12524 0.0987,-0.25341 0.13374,-0.38368 0.003,-0.0132 0.007,-0.0262 0.0106,-0.0393 0.006,-0.0237 0.0113,-0.0474 0.0167,-0.0712 0.004,-0.0195 0.009,-0.0391 0.0129,-0.0587 0.004,-0.0215 0.008,-0.0432 0.0122,-0.0648 0.004,-0.0207 0.007,-0.0414 0.0105,-0.0621 0.003,-0.0198 0.006,-0.0395 0.009,-0.0593 0.003,-0.0235 0.006,-0.047 0.008,-0.0706 l 0.006,-0.0594 c 0.002,-0.022 0.003,-0.044 0.005,-0.066 0.001,-0.02 0.003,-0.04 0.004,-0.0601 10e-4,-0.0256 10e-4,-0.0511 0.002,-0.0767 2.9e-4,-0.017 0.001,-0.0341 9.5e-4,-0.0512 -1.4e-4,-0.0412 -0.001,-0.0823 -0.003,-0.12338 -3e-4,-0.009 -0.001,-0.0193 -0.002,-0.029 -0.002,-0.0346 -0.004,-0.0694 -0.007,-0.10388 -0.001,-0.0101 -0.002,-0.0198 -0.003,-0.0297 -0.003,-0.0328 -0.007,-0.0656 -0.0118,-0.0983 -0.002,-0.0125 -0.004,-0.0249 -0.006,-0.0374 -0.005,-0.0303 -0.01,-0.0605 -0.0154,-0.0906 -0.003,-0.0144 -0.006,-0.0287 -0.009,-0.0431 -0.006,-0.0276 -0.0117,-0.0553 -0.0181,-0.0827 -0.003,-0.014 -0.007,-0.028 -0.0101,-0.042 -0.008,-0.0322 -0.0169,-0.0642 -0.0262,-0.0961 -0.002,-0.009 -0.005,-0.0178 -0.008,-0.0267 -0.0102,-0.0337 -0.0211,-0.0671 -0.0325,-0.10053 -0.003,-0.009 -0.006,-0.0182 -0.009,-0.0272 -0.0437,-0.12357 -0.0963,-0.24467 -0.15786,-0.36247 -0.006,-0.0114 -0.012,-0.0225 -0.0181,-0.0337 -0.0158,-0.0293 -0.032,-0.0584 -0.049,-0.0872 -0.006,-0.009 -0.0111,-0.0185 -0.0167,-0.0277 -0.0166,-0.0275 -0.0335,-0.055 -0.0511,-0.0821 -0.009,-0.0134 -0.0176,-0.0267 -0.0265,-0.04 -0.0164,-0.0243 -0.0333,-0.0483 -0.0505,-0.0722 -0.009,-0.0123 -0.0178,-0.0247 -0.0269,-0.0369 -0.018,-0.0243 -0.0368,-0.0482 -0.0557,-0.072 -0.01,-0.0126 -0.02,-0.0251 -0.0302,-0.0376 -0.021,-0.0254 -0.0426,-0.0505 -0.0646,-0.0754 -0.008,-0.009 -0.0154,-0.0179 -0.0234,-0.0268 -0.031,-0.0343 -0.063,-0.068 -0.0961,-0.10101 z m 2.3409,11.044998 c -3.9e-4,3.5e-4 -8.5e-4,6.8e-4 -10e-4,10e-4 3.2e-4,-3.7e-4 8e-4,-7.7e-4 10e-4,-10e-4 z"
     fill="#ffffff"
     fill-rule="evenodd"
     stroke-width="0.11759"
     id="path28" />
</svg>
