<?xml version="1.0" encoding="UTF-8" standalone="no"?>
<svg
   width="128"
   height="128"
   viewBox="0 0 33.866666 33.866668"
   version="1.1"
   id="svg1535"
   inkscape:version="1.1.2 (0a00cf5339, 2022-02-04, custom)"
   sodipodi:docname="com.github.panosx2.brightness.svg"
   xmlns:inkscape="http://www.inkscape.org/namespaces/inkscape"
   xmlns:sodipodi="http://sodipodi.sourceforge.net/DTD/sodipodi-0.dtd"
   xmlns:xlink="http://www.w3.org/1999/xlink"
   xmlns="http://www.w3.org/2000/svg"
   xmlns:svg="http://www.w3.org/2000/svg"
   xmlns:rdf="http://www.w3.org/1999/02/22-rdf-syntax-ns#"
   xmlns:cc="http://creativecommons.org/ns#"
   xmlns:dc="http://purl.org/dc/elements/1.1/">
  <defs
     id="defs1529">
    <linearGradient
       gradientUnits="userSpaceOnUse"
       y2="28.95187"
       x2="4.9738135"
       y1="6.4081883"
       x1="26.124226"
       id="linearGradient2042"
       xlink:href="#linearGradient2040"
       inkscape:collect="always"
       gradientTransform="translate(-0.0365727,-0.06189527)" />
    <linearGradient
       id="linearGradient2040"
       inkscape:collect="always">
      <stop
         id="stop2036"
         offset="0"
         style="stop-color:#000000;stop-opacity:1" />
      <stop
         id="stop2038"
         offset="1"
         style="stop-color:#000000;stop-opacity:1" />
    </linearGradient>
    <linearGradient
       gradientUnits="userSpaceOnUse"
       y2="4.3134179"
       x2="17.585337"
       y1="25.474516"
       x1="17.585337"
       id="linearGradient7784"
       xlink:href="#linearGradient7782"
       inkscape:collect="always"
       gradientTransform="translate(-0.0365727,-0.06189527)" />
    <linearGradient
       id="linearGradient7782"
       inkscape:collect="always">
      <stop
         id="stop7778"
         offset="0"
         style="stop-color:#0b95ff;stop-opacity:1" />
      <stop
         id="stop7780"
         offset="1"
         style="stop-color:#03caf1;stop-opacity:1" />
    </linearGradient>
    <linearGradient
       gradientTransform="matrix(0.26458333,0,0,0.26458333,-0.0365727,-0.06189857)"
       gradientUnits="userSpaceOnUse"
       y2="21.264637"
       x2="79.514992"
       y1="96.281647"
       x1="66.464264"
       id="linearGradient7756"
       xlink:href="#linearGradient7754"
       inkscape:collect="always" />
    <linearGradient
       id="linearGradient7754"
       inkscape:collect="always">
      <stop
         id="stop7750"
         offset="0"
         style="stop-color:#0b95ff;stop-opacity:1" />
      <stop
         id="stop7752"
         offset="1"
         style="stop-color:#5dc3ef;stop-opacity:1" />
    </linearGradient>
    <radialGradient
       inkscape:collect="always"
       xlink:href="#linearGradient11547"
       id="radialGradient11549"
       cx="17.060562"
       cy="28.739515"
       fx="17.060562"
       fy="28.739515"
       r="1.5804152"
       gradientTransform="matrix(0.80979407,0,0,0.95086263,3.0879198,1.4692607)"
       gradientUnits="userSpaceOnUse" />
    <linearGradient
       inkscape:collect="always"
       id="linearGradient11547">
      <stop
         style="stop-color:#3c3c3c;stop-opacity:1"
         offset="0"
         id="stop11543" />
      <stop
         style="stop-color:#141414;stop-opacity:0.99607843"
         offset="1"
         id="stop11545" />
    </linearGradient>
  </defs>
  <sodipodi:namedview
     id="base"
     pagecolor="#ffffff"
     bordercolor="#666666"
     borderopacity="1.0"
     inkscape:pageopacity="0.0"
     inkscape:pageshadow="2"
     inkscape:zoom="3.1123458"
     inkscape:cx="41.126535"
     inkscape:cy="50.765567"
     inkscape:document-units="mm"
     inkscape:current-layer="layer1"
     inkscape:document-rotation="0"
     showgrid="false"
     units="px"
     inkscape:window-width="1366"
     inkscape:window-height="703"
     inkscape:window-x="0"
     inkscape:window-y="37"
     inkscape:window-maximized="1"
     inkscape:pagecheckerboard="0" />
  <metadata
     id="metadata1532">
    <rdf:RDF>
      <cc:Work
         rdf:about="">
        <dc:format>image/svg+xml</dc:format>
        <dc:type
           rdf:resource="http://purl.org/dc/dcmitype/StillImage" />
      </cc:Work>
    </rdf:RDF>
  </metadata>
  <g
     inkscape:label="Capa 1"
     inkscape:groupmode="layer"
     id="layer1">
    <g
       style="opacity:0.295"
       transform="matrix(0.97573206,0,0,0.97573206,-65.784958,-37.264988)"
       id="g1702">
      <rect
         ry="6.6098609"
         rx="6.6098609"
         y="40.709618"
         x="69.839508"
         height="29.810888"
         width="29.810888"
         id="rect1634"
         style="fill:none;fill-opacity:1;stroke:#000000;stroke-width:0.1;stroke-linecap:round;stroke-linejoin:round;stroke-miterlimit:4;stroke-dasharray:none;stroke-opacity:0.02" />
      <rect
         style="fill:none;fill-opacity:1;stroke:#000000;stroke-width:0.2;stroke-linecap:round;stroke-linejoin:round;stroke-miterlimit:4;stroke-dasharray:none;stroke-opacity:0.02"
         id="rect1638"
         width="29.810888"
         height="29.810888"
         x="69.839508"
         y="40.709618"
         rx="6.6098609"
         ry="6.6098609" />
      <rect
         ry="6.6098609"
         rx="6.6098609"
         y="40.709618"
         x="69.839508"
         height="29.810888"
         width="29.810888"
         id="rect1640"
         style="fill:none;fill-opacity:1;stroke:#000000;stroke-width:0.3;stroke-linecap:round;stroke-linejoin:round;stroke-miterlimit:4;stroke-dasharray:none;stroke-opacity:0.02" />
      <rect
         style="fill:none;fill-opacity:1;stroke:#000000;stroke-width:0.4;stroke-linecap:round;stroke-linejoin:round;stroke-miterlimit:4;stroke-dasharray:none;stroke-opacity:0.02"
         id="rect1642"
         width="29.810888"
         height="29.810888"
         x="69.839508"
         y="40.709618"
         rx="6.6098609"
         ry="6.6098609" />
      <rect
         ry="6.6098609"
         rx="6.6098609"
         y="40.709618"
         x="69.839508"
         height="29.810888"
         width="29.810888"
         id="rect1644"
         style="fill:none;fill-opacity:1;stroke:#000000;stroke-width:0.5;stroke-linecap:round;stroke-linejoin:round;stroke-miterlimit:4;stroke-dasharray:none;stroke-opacity:0.02" />
      <rect
         style="fill:none;fill-opacity:1;stroke:#000000;stroke-width:0.6;stroke-linecap:round;stroke-linejoin:round;stroke-miterlimit:4;stroke-dasharray:none;stroke-opacity:0.02"
         id="rect1646"
         width="29.810888"
         height="29.810888"
         x="69.839508"
         y="40.709618"
         rx="6.6098609"
         ry="6.6098609" />
      <rect
         ry="6.6098609"
         rx="6.6098609"
         y="40.709618"
         x="69.839508"
         height="29.810888"
         width="29.810888"
         id="rect1648"
         style="fill:none;fill-opacity:1;stroke:#000000;stroke-width:0.7;stroke-linecap:round;stroke-linejoin:round;stroke-miterlimit:4;stroke-dasharray:none;stroke-opacity:0.02" />
      <rect
         style="fill:none;fill-opacity:1;stroke:#000000;stroke-width:0.8;stroke-linecap:round;stroke-linejoin:round;stroke-miterlimit:4;stroke-dasharray:none;stroke-opacity:0.02"
         id="rect1650"
         width="29.810888"
         height="29.810888"
         x="69.839508"
         y="40.709618"
         rx="6.6098609"
         ry="6.6098609" />
      <rect
         ry="6.6098609"
         rx="6.6098609"
         y="40.709618"
         x="69.839508"
         height="29.810888"
         width="29.810888"
         id="rect1652"
         style="fill:none;fill-opacity:1;stroke:#000000;stroke-width:1;stroke-linecap:round;stroke-linejoin:round;stroke-miterlimit:4;stroke-dasharray:none;stroke-opacity:0.02" />
      <rect
         style="fill:none;fill-opacity:1;stroke:#000000;stroke-width:1.2;stroke-linecap:round;stroke-linejoin:round;stroke-miterlimit:4;stroke-dasharray:none;stroke-opacity:0.02"
         id="rect1654"
         width="29.810888"
         height="29.810888"
         x="69.839508"
         y="40.709618"
         rx="6.6098609"
         ry="6.6098609" />
      <rect
         ry="6.6098609"
         rx="6.6098609"
         y="40.709618"
         x="69.839508"
         height="29.810888"
         width="29.810888"
         id="rect1656"
         style="fill:none;fill-opacity:1;stroke:#000000;stroke-width:1.4;stroke-linecap:round;stroke-linejoin:round;stroke-miterlimit:4;stroke-dasharray:none;stroke-opacity:0.02" />
      <rect
         style="fill:none;fill-opacity:1;stroke:#000000;stroke-width:1.6;stroke-linecap:round;stroke-linejoin:round;stroke-miterlimit:4;stroke-dasharray:none;stroke-opacity:0.02"
         id="rect1658"
         width="29.810888"
         height="29.810888"
         x="69.839508"
         y="40.709618"
         rx="6.6098609"
         ry="6.6098609" />
      <rect
         ry="6.6098609"
         rx="6.6098609"
         y="40.709618"
         x="69.839508"
         height="29.810888"
         width="29.810888"
         id="rect1660"
         style="fill:none;fill-opacity:1;stroke:#000000;stroke-width:1.8;stroke-linecap:round;stroke-linejoin:round;stroke-miterlimit:4;stroke-dasharray:none;stroke-opacity:0.02" />
      <rect
         style="fill:none;fill-opacity:1;stroke:#000000;stroke-width:2;stroke-linecap:round;stroke-linejoin:round;stroke-miterlimit:4;stroke-dasharray:none;stroke-opacity:0.02"
         id="rect1662"
         width="29.810888"
         height="29.810888"
         x="69.839508"
         y="40.709618"
         rx="6.6098609"
         ry="6.6098609" />
      <rect
         ry="6.6098609"
         rx="6.6098609"
         y="40.709618"
         x="69.839508"
         height="29.810888"
         width="29.810888"
         id="rect1664"
         style="fill:none;fill-opacity:1;stroke:#000000;stroke-width:2.2;stroke-linecap:round;stroke-linejoin:round;stroke-miterlimit:4;stroke-dasharray:none;stroke-opacity:0.02" />
      <rect
         style="fill:none;fill-opacity:1;stroke:#000000;stroke-width:2.6;stroke-linecap:round;stroke-linejoin:round;stroke-miterlimit:4;stroke-dasharray:none;stroke-opacity:0.02"
         id="rect1666"
         width="29.810888"
         height="29.810888"
         x="69.839508"
         y="40.709618"
         rx="6.6098609"
         ry="6.6098609" />
      <rect
         ry="6.6098609"
         rx="6.6098609"
         y="40.709618"
         x="69.839508"
         height="29.810888"
         width="29.810888"
         id="rect1668"
         style="fill:none;fill-opacity:1;stroke:#000000;stroke-width:3;stroke-linecap:round;stroke-linejoin:round;stroke-miterlimit:4;stroke-dasharray:none;stroke-opacity:0.02" />
      <rect
         style="fill:none;fill-opacity:1;stroke:#000000;stroke-width:3.4;stroke-linecap:round;stroke-linejoin:round;stroke-miterlimit:4;stroke-dasharray:none;stroke-opacity:0.02"
         id="rect1670"
         width="29.810888"
         height="29.810888"
         x="69.839508"
         y="40.709618"
         rx="6.6098609"
         ry="6.6098609" />
      <rect
         ry="6.6098609"
         rx="6.6098609"
         y="40.709618"
         x="69.839508"
         height="29.810888"
         width="29.810888"
         id="rect1672"
         style="fill:none;fill-opacity:1;stroke:#000000;stroke-width:3.8;stroke-linecap:round;stroke-linejoin:round;stroke-miterlimit:4;stroke-dasharray:none;stroke-opacity:0.02" />
      <rect
         style="fill:none;fill-opacity:1;stroke:#000000;stroke-width:4.2;stroke-linecap:round;stroke-linejoin:round;stroke-miterlimit:4;stroke-dasharray:none;stroke-opacity:0.02"
         id="rect1674"
         width="29.810888"
         height="29.810888"
         x="69.839508"
         y="40.709618"
         rx="6.6098609"
         ry="6.6098609" />
      <rect
         ry="6.6098609"
         rx="6.6098609"
         y="40.709618"
         x="69.839508"
         height="29.810888"
         width="29.810888"
         id="rect1676"
         style="fill:none;fill-opacity:1;stroke:#000000;stroke-width:4.6;stroke-linecap:round;stroke-linejoin:round;stroke-miterlimit:4;stroke-dasharray:none;stroke-opacity:0.02" />
      <rect
         style="fill:none;fill-opacity:1;stroke:#000000;stroke-width:5;stroke-linecap:round;stroke-linejoin:round;stroke-miterlimit:4;stroke-dasharray:none;stroke-opacity:0.02"
         id="rect1678"
         width="29.810888"
         height="29.810888"
         x="69.839508"
         y="40.709618"
         rx="6.6098609"
         ry="6.6098609" />
    </g>
    <rect
       ry="6.4494534"
       rx="6.4494534"
       y="2.4566898"
       x="2.3596914"
       height="29.08744"
       width="29.08744"
       id="rect849"
       style="fill:url(#linearGradient2042);fill-opacity:1;stroke-width:2.68801;stroke-linecap:round;stroke-linejoin:round;stroke-miterlimit:4;stroke-dasharray:none" />
    <path
       id="rect901"
       style="fill:#dbdbde;fill-opacity:1;stroke:#808080;stroke-width:0.233683;stroke-miterlimit:4;stroke-dasharray:none;stroke-opacity:1"
       d="m 8.8093994,2.4568108 c -3.5729974,0 -6.4497359,2.8762216 -6.4497359,6.4492187 V 25.094707 c 0,3.572998 2.8767385,6.44922 6.4497359,6.44922 H 24.99756 c 3.572997,0 6.449735,-2.876222 6.449735,-6.44922 V 8.9060295 c 0,-3.5729971 -2.876738,-6.4492187 -6.449735,-6.4492187 z" />
    <path
       id="rect897"
       style="fill:#000000;fill-opacity:1;stroke:none;stroke-width:0.10242"
       d="m 8.8093994,2.4568108 c -3.5729974,0 -6.4497359,2.8762216 -6.4497359,6.4492187 V 25.094707 c 0,0.422472 0.041513,0.834642 0.1183391,1.234034 H 31.328958 c 0.07682,-0.399386 0.118337,-0.811569 0.118337,-1.234034 V 8.9060295 c 0,-3.5729971 -2.876738,-6.4492187 -6.449735,-6.4492187 z" />
    <path
       style="fill:url(#linearGradient7784);fill-opacity:1;stroke:url(#linearGradient7756);stroke-width:0.150866;stroke-miterlimit:4;stroke-dasharray:0.0377164, 0.0377164;stroke-dashoffset:0;stroke-opacity:1"
       d="m 8.8093991,2.4568141 c -3.4613411,0 -6.2693527,2.6993309 -6.4414674,6.1164224 -0.00427,0.118358 -0.00827,0.234968 -0.00827,0.332796 V 24.492162 H 31.447292 V 8.9060325 c 0,-0.111656 -0.0027,-0.222567 -0.0083,-0.332796 C 31.26691,5.156145 28.458898,2.4568141 24.997559,2.4568141 Z"
       id="rect1848" />
    <path
       d="m 15.917481,30.137648 c 0.1585,0.01901 0.336603,0.121606 0.485644,0.139741 0.149837,0.01901 0.196217,-0.102055 0.196217,-0.102055 0,0 0.168614,-0.03764 0.345894,-0.042 0.17744,-0.0053 0.34542,0.0369 0.34542,0.0369 0,0 0.03258,0.07466 0.09336,0.107173 0.06081,0.03322 0.191732,0.03764 0.275625,-0.05077 0.08408,-0.08906 0.308361,-0.201193 0.434306,-0.271306 0.12674,-0.07032 0.103486,-0.177439 0.02392,-0.209994 -0.07957,-0.03258 -0.144699,-0.08386 -0.139741,-0.182416 0.0043,-0.0977 -0.07026,-0.162839 -0.07026,-0.162839 0,0 0.06529,-0.214995 0.0045,-0.393073 -0.0608,-0.177275 -0.261331,-0.462378 -0.41551,-0.676717 -0.154179,-0.214993 -0.02324,-0.463174 -0.163638,-0.780355 -0.140378,-0.317669 -0.504414,-0.298888 -0.700627,-0.163499 -0.196217,0.135403 -0.136053,0.471201 -0.126596,0.630517 0.0094,0.158521 0.0043,0.271929 -0.01388,0.312688 -0.01808,0.04145 -0.144723,0.191733 -0.228771,0.317668 -0.08391,0.126581 -0.144722,0.387931 -0.206168,0.495754 -0.06018,0.107174 -0.01808,0.204878 -0.01808,0.204878 0,0 -0.04204,0.01455 -0.07525,0.0847 -0.03258,0.06947 -0.0977,0.10269 -0.214992,0.12528 -0.116488,0.02389 -0.116488,0.09897 -0.08839,0.18305 0.02823,0.08386 0,0.130919 -0.03259,0.238097 -0.03255,0.107144 0.130428,0.139727 0.289584,0.158499 z m 1.64768,-0.488861 c 0.08327,0.03638 0.202953,-0.01432 0.23937,-0.05077 0.03627,-0.03629 0.06194,-0.0902 0.06194,-0.0902 0,0 0.03643,0.01808 0.03272,0.07572 -0.0037,0.05837 0.02502,0.141665 0.07957,0.170539 0.05455,0.02878 0.137818,0.06884 0.09467,0.108925 -0.04396,0.04008 -0.287182,0.137962 -0.359853,0.214337 -0.07203,0.07592 -0.166692,0.137962 -0.224288,0.119682 -0.05824,-0.01808 -0.109098,-0.09772 -0.08405,-0.214171 0.02582,-0.115995 0.04765,-0.243219 0.04396,-0.31589 -0.0037,-0.07267 -0.01808,-0.170564 0,-0.184973 0.01808,-0.01432 0.04702,-0.0075 0.04702,-0.0075 0,0 -0.01455,0.137847 0.06898,0.174082 z m -0.540345,-1.963403 c 0.08022,0 0.144863,0.07952 0.144863,0.177441 0,0.06947 -0.03258,0.129632 -0.08022,0.158521 -0.012,-0.0053 -0.02455,-0.01056 -0.03835,-0.01643 0.02889,-0.01431 0.04894,-0.05077 0.04894,-0.09274 0,-0.05499 -0.03384,-0.100247 -0.07637,-0.100247 -0.04137,0 -0.07587,0.04525 -0.07587,0.100247 0,0.02019 0.0049,0.04008 0.01316,0.05584 -0.02501,-0.01056 -0.04765,-0.01877 -0.06577,-0.02569 -0.0094,-0.02389 -0.01502,-0.05086 -0.01502,-0.07952 9e-6,-0.09783 0.0645,-0.177441 0.144721,-0.177441 z m -0.198634,0.305781 c 0.03948,0.0075 0.147913,0.05394 0.188025,0.06833 0.04012,0.01388 0.08455,0.03945 0.08022,0.06516 -0.0049,0.02643 -0.02565,0.02643 -0.08022,0.05964 -0.05392,0.03258 -0.171666,0.105222 -0.209359,0.110226 -0.03756,0.0053 -0.05889,-0.0162 -0.099,-0.04208 -0.04012,-0.02633 -0.115329,-0.08778 -0.09641,-0.120335 0,0 0.05889,-0.04504 0.08458,-0.0682 0.02568,-0.02389 0.0921,-0.08028 0.132206,-0.07286 z m -0.172957,-0.277544 c 0.06321,0 0.114708,0.0752 0.114708,0.16798 0,0.0169 -0.0018,0.03258 -0.0049,0.04833 -0.01572,0.0053 -0.03142,0.01316 -0.04654,0.02633 -0.0072,0.0064 -0.01432,0.01172 -0.02043,0.01808 0.0098,-0.01877 0.01388,-0.04569 0.0094,-0.07391 -0.0087,-0.05002 -0.04251,-0.08715 -0.07572,-0.08217 -0.03338,0.0053 -0.05328,0.0515 -0.04525,0.102141 0.009,0.05139 0.04204,0.08842 0.07588,0.0828 0.0018,-5.37e-4 0.0037,-0.0011 0.0057,-0.0022 -0.0162,0.01572 -0.03129,0.0295 -0.04702,0.04073 -0.04573,-0.02137 -0.07957,-0.08525 -0.07957,-0.160446 9e-6,-0.09336 0.0507,-0.167958 0.114072,-0.167958 z m -0.352154,1.213855 c 0.06513,-0.102691 0.107173,-0.327124 0.1723,-0.401733 0.06579,-0.07444 0.116487,-0.233113 0.09336,-0.30321 0,0 0.140377,0.167956 0.238088,0.140377 0.09787,-0.02823 0.317826,-0.19171 0.35039,-0.163638 0.03258,0.02823 0.312693,0.644306 0.340926,0.840517 0.02825,0.196052 -0.01877,0.345905 -0.01877,0.345905 0,0 -0.107174,-0.02823 -0.12097,0.03692 -0.01388,0.06577 -0.01388,0.304036 -0.01388,0.304036 0,0 -0.144862,0.200536 -0.369166,0.233747 -0.224287,0.03258 -0.336603,0.0084 -0.336603,0.0084 l -0.125944,-0.144223 c 0,0 0.09787,-0.01455 0.08408,-0.112771 -0.01388,-0.09772 -0.299061,-0.233113 -0.3504,-0.354725 -0.05133,-0.121622 -0.0094,-0.327136 0.0565,-0.42997 z m -0.554626,0.73576 c 0.01128,-0.04811 0.156574,-0.04811 0.212411,-0.08196 0.05584,-0.03384 0.06706,-0.131079 0.112149,-0.156739 0.04443,-0.02633 0.126581,0.06706 0.160446,0.119683 0.0332,0.05139 0.160447,0.275789 0.212435,0.331615 0.05263,0.05626 0.100927,0.13092 0.08583,0.197977 -0.01432,0.06706 -0.09336,0.115996 -0.09336,0.115996 -0.07075,0.02182 -0.268088,-0.06334 -0.357764,-0.100884 -0.08969,-0.03764 -0.317826,-0.04896 -0.347185,-0.08216 -0.03016,-0.03384 0.01431,-0.108461 0.0263,-0.179224 0.01056,-0.07159 -0.02253,-0.115996 -0.01128,-0.164272 z"
       id="path2-3"
       style="fill:url(#radialGradient11549);fill-opacity:1;stroke-width:0.00954116" />
    <path
       style="opacity:0.373;fill:#afe1fe;fill-opacity:1;stroke:none;stroke-width:1.5;stroke-linecap:round;stroke-linejoin:round;stroke-miterlimit:4;stroke-dasharray:none;stroke-opacity:1"
       d="M 7.5805333,2.5736028 C 4.7049382,3.1241545 2.519134,5.5713299 2.3679317,8.5732365 c -0.00427,0.118358 -0.00827,0.234968 -0.00827,0.332796 V 24.492162 h 5.2208699 z"
       id="rect1413" />
    <path
       style="opacity:0.373;fill:#afe1fe;fill-opacity:1;stroke:none;stroke-width:1.92997;stroke-linecap:round;stroke-linejoin:round;stroke-miterlimit:4;stroke-dasharray:none;stroke-opacity:1"
       d="m 8.8093991,2.4568141 c -3.4613411,0 -6.2693527,2.6993309 -6.4414674,6.1164224 -0.00427,0.118358 -0.00827,0.234968 -0.00827,0.332796 V 24.492162 H 12.792619 V 2.4568141 Z"
       id="rect1415" />
    <path
       style="opacity:0.373;fill:#afe1fe;fill-opacity:1;stroke:none;stroke-width:2.25943;stroke-linecap:round;stroke-linejoin:round;stroke-miterlimit:4;stroke-dasharray:none;stroke-opacity:1"
       d="m 8.8093991,2.4568141 c -3.4613411,0 -6.2693527,2.6993309 -6.4414674,6.1164224 -0.00427,0.118358 -0.00827,0.234968 -0.00827,0.332796 V 24.492162 H 17.66984 V 2.4568141 Z"
       id="rect1417" />
    <path
       style="fill:#ffffff;fill-opacity:1;stroke:none;stroke-width:0.161025;stroke-linecap:round;stroke-linejoin:bevel;stroke-miterlimit:4;stroke-dasharray:none;stroke-dashoffset:0;stroke-opacity:1"
       d="m 16.81062,6.0778196 a 0.26840221,0.26840221 0 0 0 -0.264392,0.2721492 v 1.6236707 c 0.08895,-0.0042 0.178412,-0.00691 0.268376,-0.00691 0.08997,-8e-7 0.179421,0.00272 0.268375,0.00691 V 6.3499688 A 0.26840221,0.26840221 0 0 0 16.81062,6.0778196 Z m -5.107937,2.1174398 a 0.26840221,0.26840221 0 0 0 -0.187025,0.4608508 l 1.151289,1.1512882 c 0.120456,-0.1324358 0.247065,-0.2592487 0.379498,-0.3797087 l -1.151288,-1.151289 a 0.26840221,0.26840221 0 0 0 -0.192474,-0.081144 z m 10.215874,0 a 0.26840221,0.26840221 0 0 0 -0.184508,0.081144 l -1.151287,1.151289 c 0.132433,0.1204601 0.259042,0.247273 0.379501,0.3797088 L 22.11355,8.6561102 A 0.26840221,0.26840221 0 0 0 21.918557,8.1952594 Z M 16.814604,8.771847 a 4.803464,4.803464 0 0 0 -4.8035,4.803499 4.803464,4.803464 0 0 0 4.8035,4.803501 4.803464,4.803464 0 0 0 4.803498,-4.803501 4.803464,4.803464 0 0 0 -4.803498,-4.803499 z m -1.028213,1.0114395 a 3.9301068,3.9301068 0 0 0 -0.864043,2.4529085 3.9301068,3.9301068 0 0 0 3.930021,3.930023 3.9301068,3.9301068 0 0 0 1.028003,-0.137962 3.9301068,3.9301068 0 0 1 -3.065768,1.477113 3.9301068,3.9301068 0 0 1 -3.930232,-3.930023 3.9301068,3.9301068 0 0 1 2.902019,-3.7920595 z M 9.5892254,13.306971 a 0.26840221,0.26840221 0 1 0 0,0.536751 h 1.6236706 c -0.0042,-0.08895 -0.0069,-0.17841 -0.0069,-0.268376 0,-0.08996 0.0027,-0.179421 0.0069,-0.268375 z m 12.8270846,0 c 0.0042,0.08895 0.0069,0.178411 0.0069,0.268375 2e-6,0.08997 -0.0027,0.179423 -0.0069,0.268376 h 1.623671 a 0.26840221,0.26840221 0 1 0 0,-0.536751 z m -9.749363,4.036533 -1.151289,1.151289 a 0.26840221,0.26840221 0 1 0 0.379499,0.3795 l 1.151288,-1.151289 c -0.132395,-0.120425 -0.259072,-0.247103 -0.379498,-0.3795 z m 8.295316,0 c -0.120429,0.132397 -0.247107,0.259075 -0.379501,0.3795 l 1.151287,1.151289 a 0.26840221,0.26840221 0 1 0 0.379501,-0.3795 z m -4.416035,1.83355 v 1.623671 a 0.26840221,0.26840221 0 1 0 0.536751,0 v -1.623671 c -0.08895,0.0042 -0.178409,0.0069 -0.268375,0.0069 -0.08996,1e-6 -0.179422,-0.0027 -0.268376,-0.0069 z"
       id="path4643"
       inkscape:connector-curvature="0" />
  </g>
</svg>
