<?xml version="1.0" encoding="UTF-8" standalone="no"?>
<svg
   width="64"
   height="64"
   version="1.1"
   viewBox="0 0 16.933 16.933"
   id="svg78"
   sodipodi:docname="cryptomator.svg"
   inkscape:version="1.2.1 (9c6d41e410, 2022-07-14)"
   xmlns:inkscape="http://www.inkscape.org/namespaces/inkscape"
   xmlns:sodipodi="http://sodipodi.sourceforge.net/DTD/sodipodi-0.dtd"
   xmlns="http://www.w3.org/2000/svg"
   xmlns:svg="http://www.w3.org/2000/svg">
  <sodipodi:namedview
     id="namedview80"
     pagecolor="#505050"
     bordercolor="#ffffff"
     borderopacity="1"
     inkscape:showpageshadow="0"
     inkscape:pageopacity="0"
     inkscape:pagecheckerboard="1"
     inkscape:deskcolor="#505050"
     showgrid="false"
     inkscape:zoom="12.058319"
     inkscape:cx="12.149289"
     inkscape:cy="27.78165"
     inkscape:window-width="1920"
     inkscape:window-height="1015"
     inkscape:window-x="0"
     inkscape:window-y="37"
     inkscape:window-maximized="1"
     inkscape:current-layer="g18" />
  <defs
     id="defs10">
    <filter
       id="filter1178"
       x="-0.047999482"
       y="-0.047999482"
       width="1.095999"
       height="1.095999"
       color-interpolation-filters="sRGB">
      <feGaussianBlur
         stdDeviation="0.30691668"
         id="feGaussianBlur2" />
    </filter>
    <linearGradient
       id="linearGradient862"
       x1="8.355"
       x2="8.355"
       y1="16.007"
       y2=".79375"
       gradientUnits="userSpaceOnUse">
      <stop
         stop-color="#a3be8c"
         offset="0"
         id="stop5"
         style="stop-color:#79d926;stop-opacity:1;" />
      <stop
         stop-color="#8fbcbb"
         offset="1"
         id="stop7"
         style="stop-color:#26d9d4;stop-opacity:1;" />
    </linearGradient>
    <filter
       inkscape:collect="always"
       style="color-interpolation-filters:sRGB"
       id="filter1044"
       x="-0.099821878"
       y="-0.11763773"
       width="1.1996438"
       height="1.2352755">
      <feGaussianBlur
         inkscape:collect="always"
         stdDeviation="0.51048892"
         id="feGaussianBlur1046" />
    </filter>
  </defs>
  <g
     stroke-linecap="round"
     stroke-linejoin="round"
     id="g18">
    <rect
       transform="matrix(.99138 0 0 1 .072989 .0019055)"
       x=".79375"
       y=".90545"
       width="15.346"
       height="15.346"
       rx="3.0526"
       ry="3.0526"
       fill="#000000"
       filter="url(#filter1178)"
       opacity=".15"
       stroke-width="1.2489"
       style="mix-blend-mode:normal;opacity:0.3"
       id="rect12" />
    <rect
       x=".92604"
       y=".92604"
       width="15.081"
       height="15.081"
       rx="3"
       ry="3"
       fill="url(#linearGradient862)"
       stroke-width="1.2274"
       id="rect14" />
    <rect
       x=".01215"
       y=".0060174"
       width="16.924"
       height="16.927"
       fill="none"
       opacity=".15"
       stroke-width="1.052"
       id="rect16" />
  </g>
  <g
     stroke-width=".011077"
     id="g62">
    <g
       id="g1042"
       transform="translate(-6.7813199,-5.7255471)"
       style="opacity:0.5;fill:#000000;fill-opacity:1;filter:url(#filter1044)">
      <path
         d="m 15.232683,8.9846468 c -1.8731,0 -2.9071,1.5891002 -2.9071,3.1405002 h 5.8143 c 0,-1.5514 -1.1667,-3.1405002 -2.9071,-3.1405002 z"
         fill="#d8dee9"
         id="path20-3"
         style="fill:#000000;fill-opacity:1" />
      <path
         d="m 10.105283,17.176447 a 0.22154,0.22154 0 0 1 -0.02471,-0.44175 0.47409,0.47409 0 1 0 -0.4676701,-0.2417 0.22154,0.22154 0 0 1 -0.38769,0.2139 0.91706,0.91706 0 1 1 0.9056501,0.46811 0.24126,0.24126 0 0 1 -0.02559,0.0014 z"
         fill="#434c5e"
         id="path24-6"
         style="fill:#000000;fill-opacity:1" />
      <rect
         transform="rotate(27.09)"
         x="15.753378"
         y="7.6583948"
         width="1.1595"
         height="1.5972"
         rx="0.54742002"
         fill="#d8dee9"
         id="rect26-7"
         style="fill:#000000;fill-opacity:1" />
      <path
         d="m 11.121783,13.347647 0.61932,0.31678 -0.47694,0.93243 a 0.34782,0.34782 0 0 1 -0.46805,0.15127 0.34782,0.34782 0 0 1 -0.15127,-0.46805 z"
         fill="#434c5e"
         id="path28-5"
         style="fill:#000000;fill-opacity:1" />
      <circle
         cx="11.576183"
         cy="13.277347"
         r="0.83131999"
         fill="#d8dee9"
         id="circle30-3"
         style="fill:#000000;fill-opacity:1" />
      <path
         d="m 20.389883,17.176447 a 0.24469,0.24469 0 0 1 -0.02526,-0.0014 0.91717,0.91717 0 1 1 0.90576,-0.46811 0.22154,0.22154 0 1 1 -0.38769,-0.2139 0.47409,0.47409 0 1 0 -0.46778,0.2417 0.22154,0.22154 0 0 1 -0.0247,0.44175 z"
         fill="#434c5e"
         id="path34-5"
         style="fill:#000000;fill-opacity:1" />
      <rect
         transform="rotate(152.91)"
         x="-11.396294"
         y="-23.143406"
         width="1.1595"
         height="1.5972"
         rx="0.54742002"
         fill="#d8dee9"
         id="rect36-6"
         style="fill:#000000;fill-opacity:1" />
      <path
         d="m 19.698883,14.748747 a 0.34782,0.34782 0 0 1 -0.46805,-0.15127 l -0.47694,-0.93242 0.61932,-0.31678 0.47694,0.93243 a 0.34782,0.34782 0 0 1 -0.15127,0.46805 z"
         fill="#434c5e"
         id="path38-2"
         style="fill:#000000;fill-opacity:1" />
      <circle
         cx="18.919884"
         cy="13.277347"
         r="0.83131999"
         fill="#d8dee9"
         id="circle40-9"
         style="fill:#000000;fill-opacity:1" />
      <path
         d="m 11.866283,19.399447 c -0.40619,0 -0.74215,-0.44142 -0.83642,-1.0983 -0.05051,-0.35258 -0.02504,-0.72211 0.07177,-1.0412 0.10423,-0.34339 0.28257,-0.59361 0.50201,-0.70582 a 0.5729,0.5729 0 0 1 0.26241,-0.06469 h 1.1467 v 2.91 z"
         fill="#434c5e"
         id="path44-1"
         style="fill:#000000;fill-opacity:1" />
      <path
         d="m 13.003283,19.399447 c -0.2355,0 -0.43034,-0.44142 -0.48495,-1.0983 -0.02924,-0.35258 -0.01451,-0.72211 0.04165,-1.0412 0.06037,-0.34339 0.16372,-0.59361 0.29099,-0.70582 0.04862,-0.04287 0.09969,-0.06469 0.15209,-0.06469 0.05239,0 0.10346,0.02215 0.15231,0.06425 l 0.55052,0.4855 c 0.19241,0.1697 0.25909,0.70892 0.22409,1.1298 -0.02691,0.32433 -0.11077,0.578 -0.22364,0.6788 l -0.55041,0.48539 c -0.04918,0.0442 -0.10058,0.06624 -0.15264,0.06624 z"
         fill="#434c5e"
         id="path46-2"
         style="fill:#000000;fill-opacity:1" />
      <path
         d="m 18.533883,19.399447 c 0.40608,0 0.74216,-0.44142 0.83642,-1.0983 0.05051,-0.35258 0.02504,-0.72211 -0.07178,-1.0412 -0.10423,-0.34339 -0.28257,-0.59361 -0.50201,-0.70582 a 0.5729,0.5729 0 0 0 -0.26241,-0.06469 h -1.1468 v 2.91 z"
         fill="#434c5e"
         id="path50-7"
         style="fill:#000000;fill-opacity:1" />
      <path
         d="m 17.396883,19.399447 c 0.2355,0 0.43034,-0.44142 0.48495,-1.0983 0.02924,-0.35258 0.01451,-0.72211 -0.04165,-1.0412 -0.06037,-0.34339 -0.16383,-0.59361 -0.29099,-0.70582 -0.04873,-0.04287 -0.09969,-0.06469 -0.15209,-0.06469 -0.05239,0 -0.10346,0.02215 -0.15242,0.06425 l -0.55041,0.4855 c -0.19252,0.1697 -0.25909,0.70892 -0.22409,1.1298 0.02692,0.32433 0.11077,0.578 0.22364,0.6788 l 0.5503,0.48539 c 0.04929,0.0442 0.10069,0.06624 0.15275,0.06624 z"
         fill="#434c5e"
         id="path52-0"
         style="fill:#000000;fill-opacity:1" />
      <path
         d="m 18.510883,13.984647 a 0.92625,0.92625 0 0 1 -0.0062,-0.50511 c 0.16327,-0.58852 0.05605,-1.2382 0.05605,-1.2382 -2.05,-0.63992 -3.3245,-0.0053 -3.3245,-0.0053 0,0 -1.2715,-0.63848 -3.3231,-0.005 0,0 -0.10922,0.64955 0.05228,1.2387 a 0.92703,0.92703 0 0 1 -0.0076,0.505 c -0.05694,0.19462 -0.11874,0.49292 -0.1193,0.87286 -0.0041,2.7582 3.3895,3.612 3.3895,3.612 0,0 3.396,-0.84351 3.4001,-3.6018 0,-0.37994 -0.06081,-0.67802 -0.11719,-0.8732 z"
         fill="#d8dee9"
         id="path56-9"
         style="fill:#000000;fill-opacity:1" />
    </g>
    <path
       d="m8.4588 3.2622c-1.8731 0-2.9071 1.5891-2.9071 3.1405h5.8143c0-1.5514-1.1667-3.1405-2.9071-3.1405z"
       fill="#d8dee9"
       id="path20"
       style="fill:#c5d8fc;fill-opacity:1" />
    <path
       d="m8.4588 3.8515c-1.5216 0-2.3617 1.2909-2.3617 2.5512l2.3617 0.26784 2.3617-0.26784c0-1.2603-0.94785-2.5512-2.3617-2.5512z"
       fill="#434c5e"
       id="path22" />
    <path
       d="m3.3314 11.454a0.22154 0.22154 0 0 1-0.024706-0.44175 0.47409 0.47409 0 1 0-0.46767-0.2417 0.22154 0.22154 0 0 1-0.38769 0.2139 0.91706 0.91706 0 1 1 0.90565 0.46811 0.24126 0.24126 0 0 1-0.025586 0.0014z"
       fill="#434c5e"
       id="path24" />
    <rect
       transform="rotate(27.09)"
       x="7.1167"
       y="5.6485"
       width="1.1595"
       height="1.5972"
       rx=".54742"
       fill="#d8dee9"
       id="rect26"
       style="fill:#c5d8fc;fill-opacity:1" />
    <path
       d="m4.3479 7.6252 0.61932 0.31678-0.47694 0.93243a0.34782 0.34782 0 0 1-0.46805 0.15127 0.34782 0.34782 0 0 1-0.15127-0.46805z"
       fill="#434c5e"
       id="path28" />
    <circle
       cx="4.8023"
       cy="7.5549"
       r=".83132"
       fill="#d8dee9"
       id="circle30"
       style="fill:#c5d8fc;fill-opacity:1" />
    <path
       d="m5.1955 6.8268a0.83177 0.83177 0 0 0-1.0106 0.16217 0.83144 0.83144 0 0 1 0.57135 1.3964 0.83144 0.83144 0 0 0 0.4392-1.5585z"
       fill="#2e3440"
       opacity=".15"
       id="path32" />
    <path
       d="m13.616 11.454a0.24469 0.24469 0 0 1-0.02526-0.0014 0.91717 0.91717 0 1 1 0.90576-0.46811 0.22154 0.22154 0 1 1-0.38769-0.2139 0.47409 0.47409 0 1 0-0.46778 0.2417 0.22154 0.22154 0 0 1-0.0247 0.44175z"
       fill="#434c5e"
       id="path34" />
    <rect
       transform="rotate(152.91)"
       x="-7.9715"
       y="-14.964"
       width="1.1595"
       height="1.5972"
       rx=".54742"
       fill="#d8dee9"
       id="rect36"
       style="fill:#c5d8fc;fill-opacity:1" />
    <path
       d="m12.925 9.0263a0.34782 0.34782 0 0 1-0.46805-0.15127l-0.47694-0.93242 0.61932-0.31678 0.47694 0.93243a0.34782 0.34782 0 0 1-0.15127 0.46805z"
       fill="#434c5e"
       id="path38" />
    <circle
       cx="12.146"
       cy="7.5549"
       r=".83132"
       fill="#d8dee9"
       id="circle40"
       style="fill:#c5d8fc;fill-opacity:1" />
    <path
       d="m11.752 6.8268a0.83166 0.83166 0 0 1 1.0104 0.16217 0.83144 0.83144 0 0 0-0.57091 1.3964 0.83132 0.83132 0 0 1-0.43953-1.5585z"
       fill="#2e3440"
       opacity=".15"
       id="path42" />
    <path
       d="m5.0924 13.677c-0.40619 0-0.74215-0.44142-0.83642-1.0983-0.050512-0.35258-0.025036-0.72211 0.071774-1.0412 0.10423-0.34339 0.28257-0.59361 0.50201-0.70582a0.5729 0.5729 0 0 1 0.26241-0.06469h1.1467v2.91z"
       fill="#434c5e"
       id="path44" />
    <path
       d="m6.2294 13.677c-0.2355 0-0.43034-0.44142-0.48495-1.0983-0.029243-0.35258-0.014507-0.72211 0.041651-1.0412 0.060373-0.34339 0.16372-0.59361 0.29099-0.70582 0.048625-0.04287 0.099693-0.06469 0.15209-0.06469 0.052391 0 0.10346 0.02215 0.15231 0.06425l0.55052 0.4855c0.19241 0.1697 0.25909 0.70892 0.22409 1.1298-0.026915 0.32433-0.11077 0.578-0.22364 0.6788l-0.55041 0.48539c-0.049184 0.0442-0.10058 0.06624-0.15264 0.06624z"
       fill="#434c5e"
       id="path46" />
    <path
       d="m6.3307 11.005 0.54997 0.48506c0.12384 0.10966 0.19695 0.5256 0.16372 0.92947-0.02215 0.26884-0.086732 0.46468-0.16361 0.53313l-0.54997 0.48506c-0.20581 0.18144-0.4186-0.21522-0.47443-0.88693-0.055828-0.67171 0.066458-1.3636 0.27227-1.5453 0.068126-0.06003 0.13846-0.05583 0.20204-4.43e-4z"
       fill="#2e3440"
       id="path48" />
    <path
       d="m11.76 13.677c0.40608 0 0.74216-0.44142 0.83642-1.0983 0.05051-0.35258 0.02504-0.72211-0.07178-1.0412-0.10423-0.34339-0.28257-0.59361-0.50201-0.70582a0.5729 0.5729 0 0 0-0.26241-0.06469h-1.1468v2.91z"
       fill="#434c5e"
       id="path50" />
    <path
       d="m10.623 13.677c0.2355 0 0.43034-0.44142 0.48495-1.0983 0.02924-0.35258 0.01451-0.72211-0.04165-1.0412-0.06037-0.34339-0.16383-0.59361-0.29099-0.70582-0.04873-0.04287-0.09969-0.06469-0.15209-0.06469-0.05239 0-0.10346 0.02215-0.15242 0.06425l-0.55041 0.4855c-0.19252 0.1697-0.25909 0.70892-0.22409 1.1298 0.026915 0.32433 0.11077 0.578 0.22364 0.6788l0.5503 0.48539c0.04929 0.0442 0.10069 0.06624 0.15275 0.06624z"
       fill="#434c5e"
       id="path52" />
    <path
       d="m10.522 11.005-0.54997 0.48506c-0.12395 0.10922-0.19717 0.52516-0.16361 0.92902 0.02215 0.26884 0.086732 0.46468 0.16361 0.53313l0.54997 0.48506c0.20614 0.18177 0.41849-0.21522 0.47432-0.88693 0.05583-0.6717-0.06646-1.3636-0.27227-1.5453-0.06846-0.05959-0.13846-0.05539-0.20204 0z"
       fill="#2e3440"
       id="path54" />
    <path
       d="m11.737 8.2622a0.92625 0.92625 0 0 1-0.0062-0.50511c0.16327-0.58852 0.05605-1.2382 0.05605-1.2382-2.05-0.63992-3.3245-0.00532-3.3245-0.00532s-1.2715-0.63848-3.3231-0.00499c0 0-0.10922 0.64955 0.052282 1.2387a0.92703 0.92703 0 0 1-0.00762 0.505c-0.056937 0.19462-0.11874 0.49292-0.1193 0.87286-0.00406 2.7582 3.3895 3.612 3.3895 3.612s3.396-0.84351 3.4001-3.6018c0-0.37994-0.06081-0.67802-0.11719-0.8732z"
       fill="#d8dee9"
       id="path56"
       style="fill:#c5d8fc;fill-opacity:1" />
    <path
       d="m8.4549 12.222c-0.56182-0.17579-2.8988-1.0329-2.8957-3.0961 0-0.32843 0.054169-0.58065 0.099693-0.73451a1.4212 1.4212 0 0 0 0.01008-0.77539c-0.068676-0.25012-0.076429-0.52206-0.068346-0.72321 0.44839-0.11332 0.88837-0.17025 1.3116-0.1697 0.83808 0.00133 1.3277 0.23262 1.3326 0.2345l0.22586 0.11332 0.21312-0.11431c0.00118 0 0.49137-0.22985 1.3292-0.22863 0.42325 6.646e-4 0.863 0.058929 1.3112 0.17369 0.0074 0.20094-0.0011 0.4731-0.07056 0.72299a1.4215 1.4215 0 0 0 0.0076 0.77539c0.04431 0.15408 0.0977 0.40641 0.09715 0.73496-0.0031 2.0721-2.3401 2.9142-2.9035 3.087z"
       fill="#434c5e"
       id="path58" />
    <path
       d="m9.0953 8.5654a0.63648 0.63648 0 1 0-0.77705 0.61942l-0.35767 1.5006 0.49481 0.14234 0.49525-0.14079-0.35269-1.5017a0.63648 0.63648 0 0 0 0.49735-0.61987z"
       fill="#d8dee9"
       id="path60"
       style="fill:#c5d8fc;fill-opacity:1" />
  </g>
  <g
     transform="matrix(.011077 0 0 .011077 2.3367 3.2622)"
     fill="#d8dee9"
     id="g76"
     style="fill:#c5d8fc;fill-opacity:1">
    <path
       d="m454.94 131.08a60.64 60.64 0 0 0-60.64 60.64h121.28a60.64 60.64 0 0 0-60.64-60.64z"
       id="path64"
       style="fill:#c5d8fc;fill-opacity:1" />
    <path
       d="m642.38 131.08a60.64 60.64 0 0 0-60.64 60.64h121.26a60.64 60.64 0 0 0-60.62-60.64z"
       id="path66"
       style="fill:#c5d8fc;fill-opacity:1" />
    <circle
       cx="483.23"
       cy="229.43"
       r="11.52"
       id="circle68"
       style="fill:#c5d8fc;fill-opacity:1" />
    <circle
       cx="528.52"
       cy="229.43"
       r="11.52"
       id="circle70"
       style="fill:#c5d8fc;fill-opacity:1" />
    <circle
       cx="573.8"
       cy="229.43"
       r="11.52"
       id="circle72"
       style="fill:#c5d8fc;fill-opacity:1" />
    <circle
       cx="619.09"
       cy="229.43"
       r="11.52"
       id="circle74"
       style="fill:#c5d8fc;fill-opacity:1" />
  </g>
</svg>
