<?xml version="1.0" encoding="UTF-8" standalone="no"?>
<svg
   width="64"
   height="64"
   version="1.1"
   viewBox="0 0 64 64"
   id="svg34"
   sodipodi:docname="desktop-environment-mate.svg"
   inkscape:version="1.1.2 (0a00cf5339, 2022-02-04, custom)"
   xmlns:inkscape="http://www.inkscape.org/namespaces/inkscape"
   xmlns:sodipodi="http://sodipodi.sourceforge.net/DTD/sodipodi-0.dtd"
   xmlns="http://www.w3.org/2000/svg"
   xmlns:svg="http://www.w3.org/2000/svg">
  <sodipodi:namedview
     id="namedview36"
     pagecolor="#ffffff"
     bordercolor="#666666"
     borderopacity="1.0"
     inkscape:pageshadow="2"
     inkscape:pageopacity="0.0"
     inkscape:pagecheckerboard="0"
     showgrid="false"
     inkscape:zoom="5.7499018"
     inkscape:cx="24.00041"
     inkscape:cy="27.304814"
     inkscape:window-width="1366"
     inkscape:window-height="703"
     inkscape:window-x="0"
     inkscape:window-y="37"
     inkscape:window-maximized="1"
     inkscape:current-layer="svg34" />
  <defs
     id="defs20">
    <filter
       id="filter936"
       x="-0.1079985"
       y="-0.1080015"
       width="1.215997"
       height="1.216003"
       color-interpolation-filters="sRGB">
      <feGaussianBlur
         stdDeviation="1.6200225"
         id="feGaussianBlur2" />
    </filter>
    <linearGradient
       id="linearGradient946"
       x1="31.833"
       x2="32.167"
       y1="51.559"
       y2="11.098"
       gradientUnits="userSpaceOnUse">
      <stop
         stop-color="#f9f9f9"
         offset="0"
         id="stop5" />
      <stop
         stop-color="#f0fee6"
         offset="1"
         id="stop7" />
    </linearGradient>
    <linearGradient
       id="linearGradient862"
       x1="7.9373"
       x2="7.9373"
       y1="15.081"
       y2="1.852"
       gradientTransform="scale(3.7796)"
       gradientUnits="userSpaceOnUse">
      <stop
         stop-color="#30e461"
         offset="0"
         id="stop10" />
      <stop
         stop-color="#acf246"
         offset="1"
         id="stop12" />
    </linearGradient>
    <linearGradient
       id="b-3"
       x1="399.57"
       x2="399.57"
       y1="545.8"
       y2="517.8"
       gradientTransform="matrix(2.1429,0,0,2.1429,-826.36,-1107.5)"
       gradientUnits="userSpaceOnUse">
      <stop
         stop-color="#3889e9"
         offset="0"
         id="stop15" />
      <stop
         stop-color="#5ea5fb"
         offset="1"
         id="stop17" />
    </linearGradient>
    <filter
       inkscape:collect="always"
       style="color-interpolation-filters:sRGB"
       id="filter1320"
       x="-0.048000003"
       y="-0.048000003"
       width="1.096"
       height="1.096">
      <feGaussianBlur
         inkscape:collect="always"
         stdDeviation="1.12004"
         id="feGaussianBlur1322" />
    </filter>
  </defs>
  <rect
     x="3.9999981"
     y="3.9686"
     width="56.001999"
     height="56.001999"
     rx="13.002"
     ry="13.002"
     fill="url(#linearGradient862)"
     stroke-width="3.7796"
     id="rect24-7"
     style="fill:#000000;fill-opacity:1;filter:url(#filter1320);opacity:0.3" />
  <rect
     x="4"
     y="3.9686"
     width="56.001999"
     height="56.001999"
     rx="13.002"
     ry="13.002"
     fill="url(#linearGradient862)"
     stroke-width="3.7796"
     id="rect24" />
  <circle
     cx="32.02"
     cy="32.044"
     r="30.001"
     fill-opacity="0"
     stroke-width="1.5715"
     id="circle26" />
  <circle
     cx="32.02"
     cy="32.044"
     r="0"
     fill="url(#b-3)"
     stroke-width="1.5715"
     id="circle28" />
  <path
     d="m32 14a18 18 0 0 0-14.566 7.4625l2.5815 1.5525a15 15 0 0 1 11.985-6.015 15 15 0 0 1 15 15 15 15 0 0 1-15 15 15 15 0 0 1-11.985-6.006l-2.5845 1.551a18 18 0 0 0 14.57 7.455 18 18 0 0 0 18-18 18 18 0 0 0-18-18zm-18 7.5v21l18-10.5zm18 0a10.5 10.5 0 0 0-8.103 3.8385l2.613 1.5675a7.5 7.5 0 0 1 5.49-2.406 7.5 7.5 0 0 1 7.5 7.5 7.5 7.5 0 0 1-7.5 7.5 7.5 7.5 0 0 1-5.493-2.406l-2.613 1.5705a10.5 10.5 0 0 0 8.106 3.8355 10.5 10.5 0 0 0 10.5-10.5 10.5 10.5 0 0 0-10.5-10.5z"
     filter="url(#filter936)"
     opacity=".15"
     id="path30"
     style="filter:url(#filter936);opacity:0.4" />
  <path
     d="m32 14a18 18 0 0 0-14.566 7.4625l2.5815 1.5525a15 15 0 0 1 11.985-6.015 15 15 0 0 1 15 15 15 15 0 0 1-15 15 15 15 0 0 1-11.985-6.006l-2.5845 1.551a18 18 0 0 0 14.57 7.455 18 18 0 0 0 18-18 18 18 0 0 0-18-18zm-18 7.5v21l18-10.5zm18 0a10.5 10.5 0 0 0-8.103 3.8385l2.613 1.5675a7.5 7.5 0 0 1 5.49-2.406 7.5 7.5 0 0 1 7.5 7.5 7.5 7.5 0 0 1-7.5 7.5 7.5 7.5 0 0 1-5.493-2.406l-2.613 1.5705a10.5 10.5 0 0 0 8.106 3.8355 10.5 10.5 0 0 0 10.5-10.5 10.5 10.5 0 0 0-10.5-10.5z"
     fill="url(#linearGradient946)"
     id="path32" />
</svg>
