<?xml version="1.0" encoding="UTF-8" standalone="no"?>
<svg
   id="App-Store"
   width="64"
   height="64"
   enable-background="new 0 0 1024 1024"
   image-rendering="optimizeSpeed"
   version="1.1"
   viewBox="0 0 64 64"
   sodipodi:docname="desktop-environment-tde.svg"
   inkscape:version="1.1.2 (0a00cf5339, 2022-02-04, custom)"
   xmlns:inkscape="http://www.inkscape.org/namespaces/inkscape"
   xmlns:sodipodi="http://sodipodi.sourceforge.net/DTD/sodipodi-0.dtd"
   xmlns:xlink="http://www.w3.org/1999/xlink"
   xmlns="http://www.w3.org/2000/svg"
   xmlns:svg="http://www.w3.org/2000/svg">
  <sodipodi:namedview
     id="namedview21"
     pagecolor="#ffffff"
     bordercolor="#666666"
     borderopacity="1.0"
     inkscape:pageshadow="2"
     inkscape:pageopacity="0.0"
     inkscape:pagecheckerboard="0"
     showgrid="false"
     inkscape:zoom="6.6812845"
     inkscape:cx="26.491912"
     inkscape:cy="32.778128"
     inkscape:window-width="1366"
     inkscape:window-height="703"
     inkscape:window-x="0"
     inkscape:window-y="37"
     inkscape:window-maximized="1"
     inkscape:current-layer="App-Store" />
  <defs
     id="defs10">
    <linearGradient
       inkscape:collect="always"
       id="linearGradient2867">
      <stop
         style="stop-color:#000000;stop-opacity:1"
         offset="0"
         id="stop2863" />
      <stop
         style="stop-color:#000000;stop-opacity:1"
         offset="1"
         id="stop2865" />
    </linearGradient>
    <filter
       id="filter873"
       x="-0.085157753"
       y="-0.14758821"
       width="1.1703155"
       height="1.2951764"
       color-interpolation-filters="sRGB">
      <feGaussianBlur
         stdDeviation="1.6366986"
         id="feGaussianBlur2" />
    </filter>
    <linearGradient
       id="linearGradient874"
       x1="357.8"
       x2="357.8"
       y1="546.73"
       y2="523.48"
       gradientTransform="matrix(2.1429,0,0,2.1429,-736.33,-1114)"
       gradientUnits="userSpaceOnUse">
      <stop
         stop-color="#197ff1"
         offset="0"
         id="stop5" />
      <stop
         stop-color="#21c6fb"
         offset="1"
         id="stop7" />
    </linearGradient>
    <linearGradient
       id="outerBackgroundGradient-46">
      <stop
         style="stop-color:#002b82;stop-opacity:1"
         offset="0"
         id="stop3864-8-6-1" />
      <stop
         style="stop-color:#3d83d0;stop-opacity:1"
         offset="1"
         id="stop3866-9-1-8" />
    </linearGradient>
    <linearGradient
       id="a"
       x2="1"
       gradientTransform="matrix(0,-56.000775,56.000775,0,31.999998,60.000126)"
       gradientUnits="userSpaceOnUse">
      <stop
         stop-color="#0a3a7f"
         offset="0"
         id="stop2"
         style="stop-color:#071994;stop-opacity:1" />
      <stop
         stop-color="#3363c1"
         offset="1"
         id="stop4"
         style="stop-color:#31a8ea;stop-opacity:1" />
    </linearGradient>
    <radialGradient
       inkscape:collect="always"
       xlink:href="#linearGradient2867"
       id="radialGradient2869"
       cx="32"
       cy="32"
       fx="32"
       fy="32"
       r="20.999679"
       gradientTransform="matrix(1,0,0,1.0667077,0,-2.1346477)"
       gradientUnits="userSpaceOnUse" />
    <filter
       inkscape:collect="always"
       style="color-interpolation-filters:sRGB"
       id="filter3029"
       x="-0.083606874"
       y="-0.078378426"
       width="1.1672137"
       height="1.1567569">
      <feGaussianBlur
         inkscape:collect="always"
         stdDeviation="1.4630979"
         id="feGaussianBlur3031" />
    </filter>
    <linearGradient
       id="a-3"
       x2="1"
       gradientTransform="matrix(0,-56.000775,56.000775,0,31.999998,60.000126)"
       gradientUnits="userSpaceOnUse">
      <stop
         stop-color="#0a3a7f"
         offset="0"
         id="stop2-6"
         style="stop-color:#07296b;stop-opacity:1" />
      <stop
         stop-color="#3363c1"
         offset="1"
         id="stop4-7"
         style="stop-color:#568fda;stop-opacity:1" />
    </linearGradient>
    <filter
       inkscape:collect="always"
       style="color-interpolation-filters:sRGB"
       id="filter1309"
       x="-0.048000555"
       y="-0.047999442"
       width="1.0960011"
       height="1.0959989">
      <feGaussianBlur
         inkscape:collect="always"
         stdDeviation="1.1200129"
         id="feGaussianBlur1311" />
    </filter>
  </defs>
  <path
     d="M 4.000002,11.136913 C 4.459613,7.1208215 7.872384,3.9993525 12.010174,3.9993525 H 51.98983 c 4.137788,0 7.550558,3.121469 8.010168,7.1375605 v 41.831043 c -0.41041,3.584964 -3.17325,6.456559 -6.705133,7.032691 H 10.705139 C 7.173258,59.424516 4.410415,56.55292 4.000002,52.967957 Z"
     fill="url(#a)"
     id="path7-5"
     style="fill:#000000;stroke-width:1.29468;fill-opacity:1;filter:url(#filter1309);opacity:0.3" />
  <path
     d="M 4.000002,11.136913 C 4.459613,7.1208215 7.872384,3.9993525 12.010174,3.9993525 H 51.98983 c 4.137788,0 7.550558,3.121469 8.010168,7.1375605 v 41.831043 c -0.41041,3.584964 -3.17325,6.456559 -6.705133,7.032691 H 10.705139 C 7.173258,59.424516 4.410415,56.55292 4.000002,52.967957 Z"
     fill="url(#a)"
     id="path7"
     style="fill:url(#a);stroke-width:1.29468" />
  <path
     d="m 18.953528,16.599804 c -0.08545,0.01036 -0.174781,0.03107 -0.239515,0.09581 l -2.977759,2.967402 c -0.125584,0.124289 -0.138531,0.313312 -0.04661,0.464789 l 3.162898,5.20849 c -0.744439,1.213113 -1.315392,2.538863 -1.703796,3.943589 l -5.840292,1.207934 c -0.177371,0.03625 -0.308133,0.207149 -0.308133,0.388404 v 4.189577 c 0,0.177371 0.135941,0.327554 0.308133,0.368984 l 5.662921,1.372358 c 0.356037,1.580802 0.959357,3.064503 1.758173,4.418736 l -1.246775,1.892819 -0.08415,-0.02719 -1.20405,1.979563 -0.765155,1.161326 c -0.03107,0.0492 -0.02978,0.104869 -0.03884,0.159245 l -0.01036,0.01942 c -0.09192,0.150183 -0.06214,0.341795 0.06344,0.467379 l 2.95834,2.963518 c 0.129467,0.128173 0.328848,0.146298 0.48162,0.04661 l 2.813335,-1.837148 2.378323,-1.438387 c 1.272669,0.762565 2.661858,1.34517 4.137791,1.714154 l 1.202756,5.76779 c 0.03754,0.177371 0.186433,0.305544 0.368983,0.305544 h 4.430388 c 0.18255,0 0.331438,-0.128173 0.368983,-0.305544 l 1.202756,-5.76779 c 1.475933,-0.368984 2.865122,-0.951589 4.137791,-1.714154 l 2.378323,1.438387 2.813335,1.837148 c 0.152772,0.09969 0.352153,0.08156 0.48162,-0.04661 l 2.95834,-2.963518 c 0.125583,-0.125584 0.155361,-0.317196 0.06344,-0.467379 l -0.01036,-0.01942 c -0.0091,-0.05438 -0.0078,-0.110048 -0.03884,-0.159245 l -0.765155,-1.161326 -1.20405,-1.979563 -0.08415,0.02719 -1.246775,-1.892819 c 0.798816,-1.354233 1.402136,-2.837934 1.758173,-4.418736 l 5.662921,-1.369769 c 0.172192,-0.04013 0.308133,-0.194202 0.308133,-0.371573 v -4.189577 c 0,-0.181255 -0.130762,-0.352153 -0.308133,-0.388404 L 46.851254,29.279884 C 46.46285,27.875158 45.891897,26.549408 45.147458,25.336295 l 3.162898,-5.20849 c 0.09192,-0.151477 0.07897,-0.3405 -0.04661,-0.464789 l -2.977759,-2.967402 c -0.06473,-0.06473 -0.154067,-0.08545 -0.239515,-0.09581 v 0.0026 c -0.08545,-0.0078 -0.164424,0.0026 -0.24081,0.05308 l -5.151524,3.359689 C 38.94077,19.60735 38.430667,19.250019 37.652566,18.960011 v 4.78254 c 3.428307,2.004162 5.543811,5.686226 5.547695,9.658298 0,6.143246 -5.055717,11.200258 -11.200259,11.200258 -6.144542,0 -11.200259,-5.057012 -11.200259,-11.200258 0.0065,-3.969483 2.121977,-7.650252 5.547695,-9.653119 v -4.787719 c -0.778101,0.290008 -1.288204,0.647339 -2.001572,1.055162 l -5.151528,-3.359698 c -0.07639,-0.05049 -0.155361,-0.06085 -0.24081,-0.05308 z M 29.19961,15.200257 H 19.400192 V 9.5994797 H 44.599804 V 15.200257 H 34.800386 V 39.000322 H 29.19961 Z"
     fill="#ffffff"
     fill-rule="nonzero"
     id="path9-3"
     style="stroke-width:1.29468;fill-opacity:1;fill:url(#radialGradient2869);filter:url(#filter3029);opacity:0.38330813" />
  <path
     d="m 18.953528,16.599804 c -0.08545,0.01036 -0.174781,0.03107 -0.239515,0.09581 l -2.977759,2.967402 c -0.125584,0.124289 -0.138531,0.313312 -0.04661,0.464789 l 3.162898,5.20849 c -0.744439,1.213113 -1.315392,2.538863 -1.703796,3.943589 l -5.840292,1.207934 c -0.177371,0.03625 -0.308133,0.207149 -0.308133,0.388404 v 4.189577 c 0,0.177371 0.135941,0.327554 0.308133,0.368984 l 5.662921,1.372358 c 0.356037,1.580802 0.959357,3.064503 1.758173,4.418736 l -1.246775,1.892819 -0.08415,-0.02719 -1.20405,1.979563 -0.765155,1.161326 c -0.03107,0.0492 -0.02978,0.104869 -0.03884,0.159245 l -0.01036,0.01942 c -0.09192,0.150183 -0.06214,0.341795 0.06344,0.467379 l 2.95834,2.963518 c 0.129467,0.128173 0.328848,0.146298 0.48162,0.04661 l 2.813335,-1.837148 2.378323,-1.438387 c 1.272669,0.762565 2.661858,1.34517 4.137791,1.714154 l 1.202756,5.76779 c 0.03754,0.177371 0.186433,0.305544 0.368983,0.305544 h 4.430388 c 0.18255,0 0.331438,-0.128173 0.368983,-0.305544 l 1.202756,-5.76779 c 1.475933,-0.368984 2.865122,-0.951589 4.137791,-1.714154 l 2.378323,1.438387 2.813335,1.837148 c 0.152772,0.09969 0.352153,0.08156 0.48162,-0.04661 l 2.95834,-2.963518 c 0.125583,-0.125584 0.155361,-0.317196 0.06344,-0.467379 l -0.01036,-0.01942 c -0.0091,-0.05438 -0.0078,-0.110048 -0.03884,-0.159245 l -0.765155,-1.161326 -1.20405,-1.979563 -0.08415,0.02719 -1.246775,-1.892819 c 0.798816,-1.354233 1.402136,-2.837934 1.758173,-4.418736 l 5.662921,-1.369769 c 0.172192,-0.04013 0.308133,-0.194202 0.308133,-0.371573 v -4.189577 c 0,-0.181255 -0.130762,-0.352153 -0.308133,-0.388404 L 46.851254,29.279884 C 46.46285,27.875158 45.891897,26.549408 45.147458,25.336295 l 3.162898,-5.20849 c 0.09192,-0.151477 0.07897,-0.3405 -0.04661,-0.464789 l -2.977759,-2.967402 c -0.06473,-0.06473 -0.154067,-0.08545 -0.239515,-0.09581 v 0.0026 c -0.08545,-0.0078 -0.164424,0.0026 -0.24081,0.05308 l -5.151524,3.359689 C 38.94077,19.60735 38.430667,19.250019 37.652566,18.960011 v 4.78254 c 3.428307,2.004162 5.543811,5.686226 5.547695,9.658298 0,6.143246 -5.055717,11.200258 -11.200259,11.200258 -6.144542,0 -11.200259,-5.057012 -11.200259,-11.200258 0.0065,-3.969483 2.121977,-7.650252 5.547695,-9.653119 v -4.787719 c -0.778101,0.290008 -1.288204,0.647339 -2.001572,1.055162 l -5.151528,-3.359698 c -0.07639,-0.05049 -0.155361,-0.06085 -0.24081,-0.05308 z M 29.19961,15.200257 H 19.400192 V 9.59948 h 25.199612 v 5.600777 H 34.800386 V 39.000322 H 29.19961 Z"
     fill="#ffffff"
     fill-rule="nonzero"
     id="path9"
     style="stroke-width:1.29468" />
</svg>
