<?xml version="1.0" encoding="UTF-8" standalone="no"?>
<!-- Created with Inkscape (http://www.inkscape.org/) -->

<svg
   width="64"
   height="64"
   viewBox="0 0 16.933333 16.933333"
   version="1.1"
   id="svg5"
   inkscape:version="1.1.1 (3bf5ae0d25, 2021-09-20, custom)"
   sodipodi:docname="discord-canary.svg"
   xmlns:inkscape="http://www.inkscape.org/namespaces/inkscape"
   xmlns:sodipodi="http://sodipodi.sourceforge.net/DTD/sodipodi-0.dtd"
   xmlns:xlink="http://www.w3.org/1999/xlink"
   xmlns="http://www.w3.org/2000/svg"
   xmlns:svg="http://www.w3.org/2000/svg">
  <sodipodi:namedview
     id="namedview7"
     pagecolor="#ffffff"
     bordercolor="#666666"
     borderopacity="1.0"
     inkscape:pageshadow="2"
     inkscape:pageopacity="0.0"
     inkscape:pagecheckerboard="0"
     inkscape:document-units="px"
     showgrid="false"
     units="px"
     height="48px"
     inkscape:zoom="5.656854"
     inkscape:cx="40.2167"
     inkscape:cy="34.206292"
     inkscape:window-width="1853"
     inkscape:window-height="1019"
     inkscape:window-x="0"
     inkscape:window-y="0"
     inkscape:window-maximized="1"
     inkscape:current-layer="svg5"
     inkscape:lockguides="true" />
  <defs
     id="defs2">
    <linearGradient
       inkscape:collect="always"
       xlink:href="#linearGradient37218"
       id="linearGradient1781"
       x1="2.8346456e-08"
       y1="2.2677165e-07"
       x2="64"
       y2="64"
       gradientUnits="userSpaceOnUse"
       gradientTransform="scale(0.26458333)" />
    <linearGradient
       inkscape:collect="always"
       id="linearGradient37218">
      <stop
         style="stop-color:#ffffff;stop-opacity:1"
         offset="0"
         id="stop37214" />
      <stop
         style="stop-color:#717171;stop-opacity:0.00392157"
         offset="0.49741825"
         id="stop37220" />
      <stop
         style="stop-color:#808080;stop-opacity:1"
         offset="1"
         id="stop37216" />
    </linearGradient>
  </defs>
  <path
     id="rect863"
     style="fill:#fee75c;fill-opacity:1;stroke-width:0.264583"
     d="M 3.1750003,1.0583333 H 13.758333 c 1.172634,0 2.116667,0.9440333 2.116667,2.1166665 V 13.758333 c 0,1.172634 -0.944033,2.116667 -2.116667,2.116667 H 3.1750003 c -1.172633,0 -2.116667,-0.944033 -2.116667,-2.116667 V 3.1749998 c 0,-1.1726332 0.944034,-2.1166665 2.116667,-2.1166665 z" />
  <path
     id="rect1345"
     style="opacity:0.3;fill:url(#linearGradient1781);fill-opacity:1;stroke-width:0.264583"
     d="m 3.1750003,1.0583333 c -1.172633,0 -2.116667,0.9440334 -2.116667,2.1166667 v 10.583333 c 0,1.172634 0.944034,2.116667 2.116667,2.116667 H 13.758334 c 1.172633,0 2.116666,-0.944033 2.116666,-2.116667 V 3.175 c 0,-1.1726333 -0.944033,-2.1166667 -2.116666,-2.1166667 z m 0,0.2645834 H 13.758334 c 1.026054,0 1.852083,0.8260291 1.852083,1.8520833 v 10.583333 c 0,1.026054 -0.826029,1.852084 -1.852083,1.852084 H 3.1750003 c -1.026054,0 -1.852083,-0.82603 -1.852083,-1.852084 V 3.175 c 0,-1.0260542 0.826029,-1.8520833 1.852083,-1.8520833 z" />
  <path
     id="rect889"
     style="fill:#ffffff;fill-opacity:1;stroke-width:0.590617"
     d="m 7.019721,4.7625752 c 0,0 -1.233014,-0.027037 -2.5388956,0.943305 0,0 -1.3058254,2.3492269 -1.3058255,5.2421168 0,0 0.7617762,1.30506 2.7659416,1.368546 0,0 0.3350684,-0.397995 0.6071269,-0.742602 -1.1517147,-0.344606 -1.5868099,-1.061219 -1.5868099,-1.061219 0,0 0.090153,0.0636 0.2533878,0.154291 0.00908,0 0.01823,0.0084 0.036377,0.01756 0.027207,0.01813 0.054328,0.02702 0.081537,0.04515 0.2267146,0.12696 0.4537427,0.226962 0.6623207,0.308581 0.3718135,0.154167 0.8165108,0.290364 1.3334221,0.390117 0.6801463,0.126944 1.4776406,0.172015 2.3482282,0.0088 0.4262257,-0.08161 0.8624297,-0.199676 1.3158607,-0.390117 0.317401,-0.117892 0.670589,-0.28952 1.042402,-0.534373 0,0 -0.454013,0.73446 -1.642005,1.069999 0.27206,0.335538 0.599603,0.725041 0.599603,0.725041 2.004165,-0.06348 2.765942,-1.368831 2.765942,-1.359765 0,-2.8928902 -1.305826,-5.2421172 -1.305826,-5.2421172 C 11.155694,4.7355398 9.9123563,4.7625752 9.9123563,4.7625752 L 9.7856633,4.9080859 C 11.327327,5.3705848 12.043574,6.0508394 12.043574,6.0508394 11.100437,5.5429963 10.175527,5.2888244 9.3140097,5.1890697 8.6610693,5.1165182 8.0357796,5.1340821 7.4825927,5.2066314 c -0.054412,0 -0.099878,0.00976 -0.1542906,0.018812 C 7.0109,5.2617194 6.2401822,5.3699686 5.2698397,5.7961925 4.9343005,5.9412905 4.7342132,6.0508354 4.7342132,6.0508354 c 0,0 0.7434728,-0.7166322 2.3758239,-1.1791315 z M 6.775114,8.1093016 c 0.5169113,0 0.9335558,0.4440585 0.9244892,0.997244 0,0.5531867 -0.4075779,0.9972444 -0.9244892,0.9972444 -0.5078427,0 -0.9257434,-0.4440577 -0.9257434,-0.9972444 0,-0.5531855 0.4088321,-0.997244 0.9257434,-0.997244 z m 3.310349,0 c 0.507842,0 0.924489,0.4440585 0.924489,0.997244 0,0.5531867 -0.407578,0.9972444 -0.924489,0.9972444 -0.5078427,0 -0.9257436,-0.4440577 -0.9257436,-0.9972444 0,-0.5531855 0.4088319,-0.997244 0.9257436,-0.997244 z" />
</svg>
