<?xml version="1.0" encoding="UTF-8" standalone="no"?>
<!-- Created with Inkscape (http://www.inkscape.org/) -->

<svg
   width="64"
   height="64"
   version="1.1"
   viewBox="0 0 16.933 16.933"
   id="svg20"
   sodipodi:docname="distributor-logo-deepin.svg"
   inkscape:version="1.1.2 (0a00cf5339, 2022-02-04, custom)"
   xmlns:inkscape="http://www.inkscape.org/namespaces/inkscape"
   xmlns:sodipodi="http://sodipodi.sourceforge.net/DTD/sodipodi-0.dtd"
   xmlns="http://www.w3.org/2000/svg"
   xmlns:svg="http://www.w3.org/2000/svg">
  <sodipodi:namedview
     id="namedview22"
     pagecolor="#ffffff"
     bordercolor="#666666"
     borderopacity="1.0"
     inkscape:pageshadow="2"
     inkscape:pageopacity="0.0"
     inkscape:pagecheckerboard="0"
     showgrid="false"
     inkscape:zoom="8.0625"
     inkscape:cx="33.488372"
     inkscape:cy="33.984496"
     inkscape:window-width="1366"
     inkscape:window-height="703"
     inkscape:window-x="0"
     inkscape:window-y="37"
     inkscape:window-maximized="1"
     inkscape:current-layer="g18" />
  <defs
     id="defs10">
    <filter
       id="filter1057-36"
       x="-0.048000001"
       y="-0.048000001"
       width="1.096"
       height="1.096"
       color-interpolation-filters="sRGB">
      <feGaussianBlur
         stdDeviation="1.1"
         id="feGaussianBlur2" />
    </filter>
    <linearGradient
       id="linearGradient1053-5"
       x1="-96.756996"
       x2="-96.902084"
       y1="59.586441"
       y2="4.9002476"
       gradientTransform="matrix(.26458 0 0 .26458 51.411 8.5406)"
       gradientUnits="userSpaceOnUse">
      <stop
         stop-color="#2e55e7"
         offset="0"
         id="stop5"
         style="stop-color:#071ed1;stop-opacity:1" />
      <stop
         stop-color="#0d7eef"
         offset="1"
         id="stop7"
         style="stop-color:#0accef;stop-opacity:1" />
    </linearGradient>
    <filter
       inkscape:collect="always"
       style="color-interpolation-filters:sRGB"
       id="filter1832"
       x="-0.10799999"
       y="-0.10800001"
       width="1.216"
       height="1.216">
      <feGaussianBlur
         inkscape:collect="always"
         stdDeviation="0.47624058"
         id="feGaussianBlur1834" />
    </filter>
  </defs>
  <g
     transform="translate(-16.619 -8.6755)"
     id="g18">
    <rect
       transform="matrix(.26458 0 0 .26458 16.619 8.6755)"
       x="4.5"
       y="4.5"
       width="55"
       height="55"
       ry="15"
       fill="#141414"
       filter="url(#filter1057-36)"
       opacity=".3"
       stroke-linecap="round"
       stroke-width="2.7444"
       id="rect12"
       style="filter:url(#filter1057-36);opacity:0.4" />
    <rect
       x="17.81"
       y="9.8662"
       width="14.552"
       height="14.552"
       ry="3.9687"
       fill="url(#linearGradient1053-5)"
       stroke-linecap="round"
       stroke-width=".7261"
       id="rect14"
       style="fill:url(#linearGradient1053-5)" />
    <path
       inkscape:connector-curvature="0"
       id="path3938-3"
       d="m 25.085499,11.850439 c -2.92245,0 -5.291562,2.369111 -5.291562,5.291561 0,2.922451 2.369112,5.291562 5.291562,5.291562 2.922451,0 5.291563,-2.369112 5.291563,-5.291562 0,-2.922451 -2.369112,-5.291563 -5.291563,-5.291561 z m -0.471279,0.686249 c 0.04728,-0.0046 0.09287,0.0033 0.140557,0 -0.792809,1.114186 -1.398494,2.229936 -1.364231,3.737166 0,0 -0.04597,1.435667 0.950827,1.942995 0,0 0.906511,0.385955 1.513057,-0.868147 0,0 0.42134,-0.717668 0.248042,-2.315058 0,0 0.147502,0.04167 0.165361,0.06614 0.01786,0.0258 0.362141,1.232934 0.124021,2.248914 0,0 -0.2196,1.172413 -1.306355,1.446912 -1.087416,0.2745 -1.920175,-0.371071 -2.496956,-0.992168 -0.43246,-0.465953 -1.054383,-1.695437 -1.364231,-3.199742 0.746508,-1.129545 1.972608,-1.923079 3.389908,-2.067015 z m 2.124893,0.281114 c 0.796282,0.304662 1.494165,0.826576 2.00914,1.488252 -0.273185,0.0275 -0.644825,0.05568 -1.074849,0.04134 0,0 -1.190932,0.06945 -1.860315,0.413404 0,0 -0.493438,0.232497 -0.992168,0.620104 0,0 -0.112115,0.04895 -0.107485,0.248043 0.006,0.199756 -0.101531,0.721967 -0.454743,1.033508 0,0 -0.251019,0.140226 -0.124021,0.330722 0,0 0.172637,0.250027 0.413403,-0.01654 0,0 0.625066,-0.641932 0.661445,-1.694953 0,0 0.185867,-0.172307 0.496084,-0.223238 0,0 0.06052,1.579201 -0.702785,2.372935 0,0 -0.713369,0.815893 -0.950828,-0.388599 0,0 -0.281445,-1.156537 1.182334,-2.52176 0,0 0.89739,-1.107815 1.504788,-1.694954 v -0.0083 z m -0.330723,2.339863 c 2.413614,2.102073 0.909487,4.258053 0.909487,4.258053 -0.707474,0.992935 -1.762262,1.771999 -2.662317,2.339863 -1.434418,-0.132975 -2.677623,-0.926711 -3.431248,-2.067017 0.377381,0.10037 0.83933,0.197179 1.380768,0.206702 1.315614,0.02381 2.330933,0.114762 3.472587,-0.68625 1.142316,-0.799687 0.992168,-2.083552 0.992168,-2.083552 -0.02183,-0.982908 -0.661445,-1.9678 -0.661445,-1.967799 z"
       style="color:#000000;display:inline;overflow:visible;visibility:visible;fill:#000000;fill-opacity:1;fill-rule:nonzero;stroke:none;stroke-width:1.05831;marker:none;enable-background:accumulate;filter:url(#filter1832);opacity:0.4" />
    <path
       inkscape:connector-curvature="0"
       id="path3938"
       d="m 25.085499,11.850438 c -2.92245,0 -5.291562,2.369111 -5.291562,5.291562 0,2.92245 2.369112,5.291562 5.291562,5.291562 2.922451,0 5.291563,-2.369112 5.291563,-5.291562 0,-2.922451 -2.369112,-5.291563 -5.291563,-5.291562 z m -0.471279,0.686249 c 0.04728,-0.0046 0.09287,0.0033 0.140557,0 -0.792809,1.114186 -1.398494,2.229936 -1.364231,3.737166 0,0 -0.04597,1.435667 0.950827,1.942995 0,0 0.906511,0.385955 1.513057,-0.868147 0,0 0.42134,-0.717668 0.248042,-2.315058 0,0 0.147502,0.04167 0.165361,0.06614 0.01786,0.0258 0.362141,1.232934 0.124021,2.248914 0,0 -0.2196,1.172413 -1.306355,1.446912 -1.087416,0.2745 -1.920175,-0.371071 -2.496956,-0.992168 -0.43246,-0.465953 -1.054383,-1.695437 -1.364231,-3.199742 0.746508,-1.129545 1.972608,-1.923079 3.389908,-2.067015 z m 2.124893,0.281114 c 0.796282,0.304662 1.494165,0.826576 2.00914,1.488252 -0.273185,0.0275 -0.644825,0.05568 -1.074849,0.04134 0,0 -1.190932,0.06945 -1.860315,0.413404 0,0 -0.493438,0.232498 -0.992168,0.620105 0,0 -0.112115,0.04895 -0.107485,0.248042 0.006,0.199756 -0.101531,0.721967 -0.454743,1.033508 0,0 -0.251019,0.140226 -0.124021,0.330722 0,0 0.172637,0.250027 0.413403,-0.01654 0,0 0.625066,-0.641932 0.661445,-1.694953 0,0 0.185867,-0.172307 0.496084,-0.223238 0,0 0.06052,1.579201 -0.702785,2.372935 0,0 -0.713369,0.815893 -0.950828,-0.388599 0,0 -0.281445,-1.156537 1.182334,-2.52176 0,0 0.89739,-1.107815 1.504788,-1.694954 v -0.0083 z m -0.330723,2.339863 c 2.413614,2.102073 0.909487,4.258054 0.909487,4.258054 -0.707474,0.992935 -1.762262,1.771999 -2.662317,2.339863 -1.434418,-0.132976 -2.677623,-0.926711 -3.431248,-2.067017 0.377381,0.100369 0.83933,0.197178 1.380768,0.206702 1.315614,0.02381 2.330933,0.114761 3.472587,-0.68625 1.142316,-0.799687 0.992168,-2.083552 0.992168,-2.083552 -0.02183,-0.982908 -0.661445,-1.9678 -0.661445,-1.9678 z"
       style="color:#000000;display:inline;overflow:visible;visibility:visible;fill:#ffffff;fill-opacity:1;fill-rule:nonzero;stroke:none;stroke-width:1.05831;marker:none;enable-background:accumulate" />
  </g>
</svg>
