<?xml version="1.0" encoding="UTF-8" standalone="no"?>
<!-- Created with Inkscape (http://www.inkscape.org/) -->

<svg
   width="64"
   height="64"
   version="1.1"
   viewBox="0 0 16.933 16.933"
   id="svg20"
   sodipodi:docname="distributor-logo-fedora.svg"
   inkscape:version="1.1.2 (0a00cf5339, 2022-02-04, custom)"
   xmlns:inkscape="http://www.inkscape.org/namespaces/inkscape"
   xmlns:sodipodi="http://sodipodi.sourceforge.net/DTD/sodipodi-0.dtd"
   xmlns="http://www.w3.org/2000/svg"
   xmlns:svg="http://www.w3.org/2000/svg">
  <sodipodi:namedview
     id="namedview22"
     pagecolor="#ffffff"
     bordercolor="#666666"
     borderopacity="1.0"
     inkscape:pageshadow="2"
     inkscape:pageopacity="0.0"
     inkscape:pagecheckerboard="0"
     showgrid="false"
     inkscape:zoom="8.0625"
     inkscape:cx="32"
     inkscape:cy="20.589147"
     inkscape:window-width="1366"
     inkscape:window-height="703"
     inkscape:window-x="0"
     inkscape:window-y="37"
     inkscape:window-maximized="1"
     inkscape:current-layer="g18" />
  <defs
     id="defs10">
    <filter
       id="filter1057-36"
       x="-0.048000001"
       y="-0.048000001"
       width="1.096"
       height="1.096"
       color-interpolation-filters="sRGB">
      <feGaussianBlur
         stdDeviation="1.1"
         id="feGaussianBlur2" />
    </filter>
    <linearGradient
       id="linearGradient1053-5"
       x1="-127"
       x2="-72"
       y1="60"
       y2="5"
       gradientTransform="matrix(.26458 0 0 .26458 51.411 8.5406)"
       gradientUnits="userSpaceOnUse">
      <stop
         stop-color="#2e55e7"
         offset="0"
         id="stop5"
         style="stop-color:#1437da;stop-opacity:1" />
      <stop
         stop-color="#0d7eef"
         offset="1"
         id="stop7"
         style="stop-color:#0a9cef;stop-opacity:1" />
    </linearGradient>
    <filter
       inkscape:collect="always"
       style="color-interpolation-filters:sRGB"
       id="filter1023"
       x="-0.10799709"
       y="-0.10800292"
       width="1.2159942"
       height="1.2160058">
      <feGaussianBlur
         inkscape:collect="always"
         stdDeviation="0.41672476"
         id="feGaussianBlur1025" />
    </filter>
  </defs>
  <g
     transform="translate(-16.619 -8.6755)"
     id="g18">
    <rect
       transform="matrix(.26458 0 0 .26458 16.619 8.6755)"
       x="4.5"
       y="4.5"
       width="55"
       height="55"
       ry="15"
       fill="#141414"
       filter="url(#filter1057-36)"
       opacity=".3"
       stroke-linecap="round"
       stroke-width="2.7444"
       id="rect12"
       style="filter:url(#filter1057-36);opacity:0.4;fill:#000000" />
    <rect
       x="17.81"
       y="9.8662"
       width="14.552"
       height="14.552"
       ry="3.9687"
       fill="url(#linearGradient1053-5)"
       stroke-linecap="round"
       stroke-width=".7261"
       id="rect14" />
    <path
       d="m 25.482,12.512 a 4.6307,4.6307 0 0 0 -4.6296,4.6274 v 3.9143 c 0,0.3981 0.32045,0.71855 0.71855,0.71855 h 3.9132 a 4.6301501,4.6301501 0 0 0 -0.0022,-9.2603 z m 1.3955,1.0149 c 0.18593,0 0.31826,0.02187 0.48997,0.06562 0.25155,0.06562 0.45607,0.27233 0.45607,0.51185 0,0.28873 -0.20889,0.49982 -0.52388,0.49982 -0.14874,0 -0.20343,-0.02953 -0.42216,-0.02953 -0.64637,0 -1.1702,0.52497 -1.1713,1.1702 v 1.0128 c 0,0.09187 0.07328,0.16624 0.16405,0.16624 h 0.77105 a 0.51677,0.51677 0 1 1 0,1.0335 h -0.9351 v 1.1823 a 2.2202,2.2202 0 0 1 -2.2202,2.2202 c -0.18593,0 -0.31826,-0.02187 -0.48997,-0.06672 -0.25155,-0.06562 -0.45716,-0.27123 -0.45716,-0.51075 0,-0.28983 0.20999,-0.49982 0.52497,-0.49982 0.14874,0 0.20343,0.02844 0.42216,0.02844 0.64637,0 1.1702,-0.52388 1.1713,-1.1702 v -1.0171 a 0.16515,0.16515 0 0 0 -0.16515,-0.16624 h -0.76996 a 0.51677,0.51677 0 1 1 0.0055,-1.0335 h 0.92963 v -1.1768 a 2.2202,2.2202 0 0 1 2.2202,-2.2202 z"
       fill="#ffffff"
       stroke-width="1.0937"
       id="path16-3"
       style="fill:#000000;fill-opacity:1;filter:url(#filter1023);opacity:0.4" />
    <path
       d="m25.482 12.512a4.6307 4.6307 0 0 0-4.6296 4.6274v3.9143c0 0.3981 0.32045 0.71855 0.71855 0.71855h3.9132a4.6301 4.6301 0 0 0-0.0022-9.2603zm1.3955 1.0149c0.18593 0 0.31826 0.02187 0.48997 0.06562 0.25155 0.06562 0.45607 0.27233 0.45607 0.51185 0 0.28873-0.20889 0.49982-0.52388 0.49982-0.14874 0-0.20343-0.02953-0.42216-0.02953-0.64637 0-1.1702 0.52497-1.1713 1.1702v1.0128c0 0.09187 0.07328 0.16624 0.16405 0.16624h0.77105a0.51677 0.51677 0 1 1 0 1.0335h-0.9351v1.1823a2.2202 2.2202 0 0 1-2.2202 2.2202c-0.18593 0-0.31826-0.02187-0.48997-0.06672-0.25155-0.06562-0.45716-0.27123-0.45716-0.51075 0-0.28983 0.20999-0.49982 0.52497-0.49982 0.14874 0 0.20343 0.02844 0.42216 0.02844 0.64637 0 1.1702-0.52388 1.1713-1.1702v-1.0171a0.16515 0.16515 0 0 0-0.16515-0.16624h-0.76996a0.51677 0.51677 0 1 1 0.0055-1.0335h0.92963v-1.1768a2.2202 2.2202 0 0 1 2.2202-2.2202z"
       fill="#fff"
       stroke-width="1.0937"
       id="path16" />
  </g>
</svg>
