<?xml version="1.0" encoding="UTF-8" standalone="no"?>
<!-- Created with Inkscape (http://www.inkscape.org/) -->

<svg
   width="64"
   height="64"
   version="1.1"
   viewBox="0 0 16.933 16.933"
   id="svg20"
   sodipodi:docname="distributor-logo-kali.svg"
   inkscape:version="1.1.2 (0a00cf5339, 2022-02-04, custom)"
   xmlns:inkscape="http://www.inkscape.org/namespaces/inkscape"
   xmlns:sodipodi="http://sodipodi.sourceforge.net/DTD/sodipodi-0.dtd"
   xmlns="http://www.w3.org/2000/svg"
   xmlns:svg="http://www.w3.org/2000/svg">
  <sodipodi:namedview
     id="namedview22"
     pagecolor="#ffffff"
     bordercolor="#666666"
     borderopacity="1.0"
     inkscape:pageshadow="2"
     inkscape:pageopacity="0.0"
     inkscape:pagecheckerboard="0"
     showgrid="false"
     inkscape:zoom="8.0625"
     inkscape:cx="32"
     inkscape:cy="32.744186"
     inkscape:window-width="1366"
     inkscape:window-height="703"
     inkscape:window-x="0"
     inkscape:window-y="37"
     inkscape:window-maximized="1"
     inkscape:current-layer="g18" />
  <defs
     id="defs10">
    <filter
       id="filter1057-36"
       x="-0.048000001"
       y="-0.048000001"
       width="1.096"
       height="1.096"
       color-interpolation-filters="sRGB">
      <feGaussianBlur
         stdDeviation="1.1"
         id="feGaussianBlur2" />
    </filter>
    <linearGradient
       id="linearGradient1053-5"
       x1="-127"
       x2="-72"
       y1="60"
       y2="5"
       gradientTransform="matrix(.26458 0 0 .26458 51.411 8.5406)"
       gradientUnits="userSpaceOnUse">
      <stop
         stop-color="#2e55e7"
         offset="0"
         id="stop5"
         style="stop-color:#1437da;stop-opacity:1" />
      <stop
         stop-color="#0d7eef"
         offset="1"
         id="stop7"
         style="stop-color:#0a9cef;stop-opacity:1" />
    </linearGradient>
    <filter
       inkscape:collect="always"
       style="color-interpolation-filters:sRGB"
       id="filter1184"
       x="-0.11394402"
       y="-0.10264539"
       width="1.227888"
       height="1.2052908">
      <feGaussianBlur
         inkscape:collect="always"
         stdDeviation="0.401985"
         id="feGaussianBlur1186" />
    </filter>
  </defs>
  <g
     transform="translate(-16.619 -8.6755)"
     id="g18">
    <rect
       transform="matrix(.26458 0 0 .26458 16.619 8.6755)"
       x="4.5"
       y="4.5"
       width="55"
       height="55"
       ry="15"
       fill="#141414"
       filter="url(#filter1057-36)"
       opacity=".3"
       stroke-linecap="round"
       stroke-width="2.7444"
       id="rect12"
       style="filter:url(#filter1057-36);opacity:0.4" />
    <rect
       x="17.81"
       y="9.8662"
       width="14.552"
       height="14.552"
       ry="3.9687"
       fill="url(#linearGradient1053-5)"
       stroke-linecap="round"
       stroke-width=".7261"
       id="rect14" />
    <path
       id="path900-3"
       fill="#ffffff"
       d="m 24.437,12.4425 c 0.224,0.599 0.49,1.281 0.887,1.8 -0.437,-0.216 -0.923,-0.36 -1.303,-0.668 0.047,0.12 0.03,0.249 0.026,0.35 a 5.317,5.317 0 0 1 -0.952,-0.377 c 0.08,0.15 0.093,0.31 0.073,0.45 -0.326,0.03 -0.679,-0.072 -0.98,-0.126 0.138,0.125 0.203,0.29 0.259,0.456 -0.322,0.056 -0.654,0.115 -0.98,0.146 0.138,0.093 0.24,0.228 0.319,0.357 -0.253,0.212 -0.573,0.403 -0.834,0.563 a 0.638,0.638 0 0 1 0.463,0.125 9.444,9.444 0 0 1 -0.563,0.88 c 0.164,-0.039 0.312,-0.073 0.49,-0.073 -0.062,0.352 -0.106,0.72 -0.238,1.052 0.147,-0.107 0.306,-0.161 0.47,-0.218 0.157,0.267 0.173,0.703 0.231,0.938 a 0.498,0.498 0 0 1 0.258,-0.29 c 1.78,1.748 4.71,1.442 4.967,4.034 0.08,-1.01 -0.398,-1.724 -0.952,-2.215 -0.46,-0.408 -2.555,-1.378 -2.653,-1.442 -1.801,-1.194 -1.558,-2.807 -0.29,-3.215 a 2.727,2.727 0 0 1 3.015,0.946 c 0.176,0.223 0.427,0.631 0.662,0.807 0.445,0.334 2.036,1.109 1.409,2.03 0.545,-0.14 0.961,-0.53 1.098,-1.077 -0.427,-0.183 -1.07,-0.57 -1.019,-1.112 0.062,-0.026 0.13,-0.02 0.199,-0.02 -1.436,-2.5 -1.819,-1.63 -3.261,-3.955 0.18,0.644 0.572,1.438 1.044,1.879 -0.783,-0.47 -1.291,-1.313 -1.845,-2.025 z m 2.95,3.155 c 0.163,0.227 0.3,0.48 0.496,0.675 -0.19,-0.066 -0.945,-0.563 -0.496,-0.675 z"
       style="fill:#000000;fill-opacity:1;filter:url(#filter1184);opacity:0.4" />
    <path
       id="path900"
       fill="#ffffff"
       d="m 24.437,12.4425 c 0.224,0.599 0.49,1.281 0.887,1.8 -0.437,-0.216 -0.923,-0.36 -1.303,-0.668 0.047,0.12 0.03,0.249 0.026,0.35 a 5.317,5.317 0 0 1 -0.952,-0.377 c 0.08,0.15 0.093,0.31 0.073,0.45 -0.326,0.03 -0.679,-0.072 -0.98,-0.126 0.138,0.125 0.203,0.29 0.259,0.456 -0.322,0.056 -0.654,0.115 -0.98,0.146 0.138,0.093 0.24,0.228 0.319,0.357 -0.253,0.212 -0.573,0.403 -0.834,0.563 a 0.638,0.638 0 0 1 0.463,0.125 9.444,9.444 0 0 1 -0.563,0.88 c 0.164,-0.039 0.312,-0.073 0.49,-0.073 -0.062,0.352 -0.106,0.72 -0.238,1.052 0.147,-0.107 0.306,-0.161 0.47,-0.218 0.157,0.267 0.173,0.703 0.231,0.938 a 0.498,0.498 0 0 1 0.258,-0.29 c 1.78,1.748 4.71,1.442 4.967,4.034 0.08,-1.01 -0.398,-1.724 -0.952,-2.215 -0.46,-0.408 -2.555,-1.378 -2.653,-1.442 -1.801,-1.194 -1.558,-2.807 -0.29,-3.215 a 2.727,2.727 0 0 1 3.015,0.946 c 0.176,0.223 0.427,0.631 0.662,0.807 0.445,0.334 2.036,1.109 1.409,2.03 0.545,-0.14 0.961,-0.53 1.098,-1.077 -0.427,-0.183 -1.07,-0.57 -1.019,-1.112 0.062,-0.026 0.13,-0.02 0.199,-0.02 -1.436,-2.5 -1.819,-1.63 -3.261,-3.955 0.18,0.644 0.572,1.438 1.044,1.879 -0.783,-0.47 -1.291,-1.313 -1.845,-2.025 z m 2.95,3.155 c 0.163,0.227 0.3,0.48 0.496,0.675 -0.19,-0.066 -0.945,-0.563 -0.496,-0.675 z" />
  </g>
</svg>
