<?xml version="1.0" encoding="UTF-8" standalone="no"?>
<svg
   width="64"
   height="64"
   version="1.1"
   id="svg26"
   sodipodi:docname="distributor-logo-lxle.svg"
   inkscape:version="1.1.2 (0a00cf5339, 2022-02-04, custom)"
   xmlns:inkscape="http://www.inkscape.org/namespaces/inkscape"
   xmlns:sodipodi="http://sodipodi.sourceforge.net/DTD/sodipodi-0.dtd"
   xmlns="http://www.w3.org/2000/svg"
   xmlns:svg="http://www.w3.org/2000/svg"
   xmlns:rdf="http://www.w3.org/1999/02/22-rdf-syntax-ns#"
   xmlns:cc="http://creativecommons.org/ns#"
   xmlns:dc="http://purl.org/dc/elements/1.1/">
  <sodipodi:namedview
     id="namedview28"
     pagecolor="#ffffff"
     bordercolor="#666666"
     borderopacity="1.0"
     inkscape:pageshadow="2"
     inkscape:pageopacity="0.0"
     inkscape:pagecheckerboard="0"
     showgrid="false"
     inkscape:zoom="5.1948947"
     inkscape:cx="33.301926"
     inkscape:cy="40.424303"
     inkscape:window-width="1366"
     inkscape:window-height="703"
     inkscape:window-x="0"
     inkscape:window-y="37"
     inkscape:window-maximized="1"
     inkscape:current-layer="svg26" />
  <metadata
     id="metadata2">
    <rdf:RDF>
      <cc:Work
         rdf:about="">
        <dc:format>image/svg+xml</dc:format>
        <dc:type
           rdf:resource="http://purl.org/dc/dcmitype/StillImage" />
      </cc:Work>
    </rdf:RDF>
  </metadata>
  <defs
     id="defs12">
    <filter
       id="filter1057"
       x="-0.048000001"
       y="-0.048000001"
       width="1.096"
       height="1.096"
       color-interpolation-filters="sRGB">
      <feGaussianBlur
         stdDeviation="1.1"
         id="feGaussianBlur4" />
    </filter>
    <linearGradient
       id="linearGradient1053"
       x1="-99.345901"
       x2="-99.371239"
       y1="5.2119417"
       y2="59.592598"
       gradientTransform="translate(131.5 -.51)"
       gradientUnits="userSpaceOnUse">
      <stop
         stop-color="#ff7832"
         offset="0"
         id="stop7"
         style="stop-color:#464646;stop-opacity:1" />
      <stop
         stop-color="#ffdc32"
         offset="1"
         id="stop9"
         style="stop-color:#0f0f0f;stop-opacity:1" />
    </linearGradient>
  </defs>
  <rect
     x="4.5"
     y="4.5"
     width="55"
     height="55"
     ry="15"
     fill="#141414"
     filter="url(#filter1057)"
     opacity=".3"
     stroke-linecap="round"
     stroke-width="2.7444"
     id="rect14"
     style="filter:url(#filter1057)" />
  <rect
     x="4.5"
     y="4.5"
     width="55"
     height="55"
     ry="15"
     fill="url(#linearGradient1053)"
     stroke-linecap="round"
     stroke-width="2.7444"
     id="rect16"
     style="fill:url(#linearGradient1053)" />
  <path
     d="m 15.099512,15.099512 v 33.800976 h 4.225122 V 15.099512 Z m 10.562805,0 v 4.225122 l 17.956768,8.450244 v 3.168842 h 5.281403 V 26.718598 L 30.94372,18.268353 v -3.168841 z m 17.956768,0 v 3.168841 l -4.093086,1.926657 3.763527,1.770326 5.610962,-2.640702 v -4.225122 z m -12.345806,8.978384 -5.610962,2.640702 v 4.225122 h 5.281403 v -3.168842 l 4.093086,-1.926656 -3.762471,-1.770326 z m -1.386896,8.978384 c -2.340717,0 -4.225122,1.884405 -4.225122,4.225122 v 7.393964 c 0,2.340717 1.884405,4.225122 4.225122,4.225122 H 48.899432 V 44.675366 H 31.998943 c -1.170358,0 -2.11256,-0.942202 -2.11256,-2.112561 v -3.168841 c 0,-1.17036 0.942202,-2.112562 2.11256,-2.112562 h 10.562806 l -7.393963,5.281403 h 6.337682 l 7.393964,-5.281403 c 0,-2.340717 -1.884405,-4.225122 -4.225122,-4.225122 z"
     fill="#ffffff"
     fill-rule="nonzero"
     id="path9"
     style="stroke-width:1.05628" />
</svg>
