<?xml version="1.0" encoding="UTF-8" standalone="no"?>
<!-- Created with Inkscape (http://www.inkscape.org/) -->

<svg
   width="64"
   height="64"
   version="1.1"
   viewBox="0 0 16.933 16.933"
   id="svg20"
   sodipodi:docname="distributor-logo-edubuntu.svg"
   inkscape:version="1.1.2 (0a00cf5339, 2022-02-04, custom)"
   xmlns:inkscape="http://www.inkscape.org/namespaces/inkscape"
   xmlns:sodipodi="http://sodipodi.sourceforge.net/DTD/sodipodi-0.dtd"
   xmlns="http://www.w3.org/2000/svg"
   xmlns:svg="http://www.w3.org/2000/svg">
  <sodipodi:namedview
     id="namedview22"
     pagecolor="#ffffff"
     bordercolor="#666666"
     borderopacity="1.0"
     inkscape:pageshadow="2"
     inkscape:pageopacity="0.0"
     inkscape:pagecheckerboard="0"
     showgrid="false"
     inkscape:zoom="5.2812392"
     inkscape:cx="35.029657"
     inkscape:cy="31.242667"
     inkscape:window-width="1366"
     inkscape:window-height="703"
     inkscape:window-x="0"
     inkscape:window-y="37"
     inkscape:window-maximized="1"
     inkscape:current-layer="g18" />
  <defs
     id="defs10">
    <filter
       id="filter1057-36"
       x="-0.048000001"
       y="-0.048000001"
       width="1.096"
       height="1.096"
       color-interpolation-filters="sRGB">
      <feGaussianBlur
         stdDeviation="1.1"
         id="feGaussianBlur2" />
    </filter>
    <linearGradient
       id="linearGradient1053-5"
       x1="-96.756996"
       x2="-96.902084"
       y1="59.586441"
       y2="4.9002476"
       gradientTransform="matrix(.26458 0 0 .26458 51.411 8.5406)"
       gradientUnits="userSpaceOnUse">
      <stop
         stop-color="#2e55e7"
         offset="0"
         id="stop5"
         style="stop-color:#bb0000;stop-opacity:1" />
      <stop
         stop-color="#0d7eef"
         offset="1"
         id="stop7"
         style="stop-color:#ff3616;stop-opacity:1" />
    </linearGradient>
    <filter
       inkscape:collect="always"
       style="color-interpolation-filters:sRGB"
       id="filter1202"
       x="-0.10793841"
       y="-0.10806166"
       width="1.2158768"
       height="1.2161233">
      <feGaussianBlur
         inkscape:collect="always"
         stdDeviation="0.47596903"
         id="feGaussianBlur1204" />
    </filter>
  </defs>
  <g
     transform="translate(-16.619 -8.6755)"
     id="g18">
    <rect
       transform="matrix(.26458 0 0 .26458 16.619 8.6755)"
       x="4.5"
       y="4.5"
       width="55"
       height="55"
       ry="15"
       fill="#141414"
       filter="url(#filter1057-36)"
       opacity=".3"
       stroke-linecap="round"
       stroke-width="2.7444"
       id="rect12"
       style="filter:url(#filter1057-36);opacity:0.4" />
    <rect
       x="17.81"
       y="9.8662"
       width="14.552"
       height="14.552"
       ry="3.9687"
       fill="url(#linearGradient1053-5)"
       stroke-linecap="round"
       stroke-width=".7261"
       id="rect14"
       style="fill:url(#linearGradient1053-5)" />
    <path
       id="path4471-3"
       d="m 25.091534,11.856473 c -2.920331,0 -5.297597,2.365093 -5.297597,5.285527 0,2.920231 2.377266,5.285527 5.297597,5.285527 2.920403,0 5.285528,-2.365296 5.285528,-5.285527 0,-2.920434 -2.365125,-5.285527 -5.285528,-5.285527 z m 0.301683,0.506831 c -0.0055,0.666985 -0.08617,1.420348 0.03618,2.075594 0.198707,0.514589 0.712059,0.995943 1.291216,1.001598 0.228266,-0.01154 0.439558,-0.07699 0.615438,-0.217216 0.415019,0.491763 0.659368,1.039516 0.711977,1.677372 h -1.194674 c -0.06998,-0.550243 -0.450457,-1.064689 -0.953306,-1.339482 -0.368491,-0.187835 -0.821724,-0.268298 -1.255013,-0.168944 -0.163483,-0.315885 -0.120113,-0.748018 -0.108604,-1.134339 0.07,-0.719814 0.3772,-1.338472 0.856783,-1.894583 z m 1.110204,1.339482 c 0.298272,-0.04652 0.571433,0.08048 0.724045,0.337888 0.123031,0.198923 0.135768,0.476965 0.03618,0.687842 -0.10522,0.210228 -0.320197,0.369311 -0.543033,0.398224 -0.198703,0.02413 -0.402484,-0.01577 -0.555101,-0.132741 -0.216308,-0.187398 -0.317766,-0.461644 -0.253418,-0.74818 0.07022,-0.263054 0.316295,-0.513466 0.591306,-0.543033 z m -3.125461,1.013662 c 0.216314,0.316753 0.398801,0.674302 0.60337,1.013665 -0.520893,0.444367 -0.732834,1.058982 -0.639572,1.737707 0.08174,0.415237 0.29434,0.786924 0.639572,1.086067 l -0.591303,1.013665 c -0.532199,-0.35132 -0.905084,-0.885673 -1.098134,-1.448092 0.280445,-0.127831 0.551094,-0.414464 0.615439,-0.724044 0.08196,-0.368711 -0.01452,-0.738105 -0.277551,-1.001595 -0.0937,-0.105223 -0.214289,-0.164713 -0.32582,-0.229281 0.181316,-0.544155 0.547017,-1.079161 1.073999,-1.448092 z m -1.508426,1.713575 c 0.07369,0.0019 0.145528,0.01423 0.217213,0.0362 0.175659,0.06435 0.346486,0.223217 0.422359,0.398225 0.105221,0.246317 0.04857,0.561109 -0.132741,0.760246 -0.146312,0.164139 -0.339001,0.229826 -0.555101,0.241349 -0.280881,0 -0.552285,-0.201159 -0.65164,-0.458562 -0.08174,-0.233921 -0.03182,-0.518274 0.108604,-0.711977 0.153596,-0.183922 0.37024,-0.271171 0.591306,-0.265483 z m 4.983842,0.989527 h 1.182606 c -0.05326,0.632422 -0.285221,1.209853 -0.711977,1.68944 -0.27523,-0.204574 -0.685599,-0.29112 -1.013662,-0.144809 -0.292182,0.111091 -0.563049,0.395764 -0.639573,0.69991 -0.02892,0.122613 -0.04207,0.258001 -0.03618,0.398224 -0.614588,0.123484 -1.265736,0.04074 -1.785976,-0.205145 0.163917,-0.344799 0.374658,-0.70485 0.579236,-1.049865 0.591329,0.233705 1.329978,0.108009 1.798043,-0.28962 0.362411,-0.298492 0.534242,-0.682681 0.627506,-1.098135 z m -0.144809,1.798047 c 0.0641,-9.8e-5 0.127315,0.0066 0.193079,0.02413 0.169573,0.04674 0.340297,0.179837 0.434426,0.337888 0.140227,0.245444 0.114893,0.591985 -0.06034,0.808516 -0.193266,0.228053 -0.473714,0.305265 -0.760246,0.241348 -0.233925,-0.07065 -0.471611,-0.285522 -0.506832,-0.530966 -0.05261,-0.24588 0.0056,-0.487831 0.181012,-0.663707 0.139895,-0.135821 0.326603,-0.21692 0.518898,-0.217213 z"
       style="display:inline;fill:#000000;fill-opacity:1;fill-rule:nonzero;stroke:none;stroke-width:0.264578;enable-background:new;filter:url(#filter1202);opacity:0.4"
       inkscape:connector-curvature="0" />
    <path
       id="path4471"
       d="m 25.091534,11.856473 c -2.920331,0 -5.297597,2.365093 -5.297597,5.285527 0,2.920231 2.377266,5.285527 5.297597,5.285527 2.920403,0 5.285528,-2.365296 5.285528,-5.285527 0,-2.920434 -2.365125,-5.285527 -5.285528,-5.285527 z m 0.301683,0.506831 c -0.0055,0.666985 -0.08617,1.420348 0.03618,2.075594 0.198706,0.514589 0.712059,0.995943 1.291215,1.001598 0.228267,-0.01154 0.439559,-0.07699 0.615438,-0.217216 0.41502,0.491763 0.659368,1.039516 0.711977,1.677372 h -1.194674 c -0.06998,-0.550243 -0.450457,-1.064689 -0.953306,-1.339482 -0.368491,-0.187835 -0.821724,-0.268298 -1.255013,-0.168944 -0.163483,-0.315885 -0.120113,-0.748018 -0.108604,-1.134339 0.07,-0.719814 0.377201,-1.338472 0.856783,-1.894583 z m 1.110204,1.339482 c 0.298272,-0.04652 0.571433,0.08048 0.724045,0.337888 0.123031,0.198923 0.135768,0.476965 0.03618,0.687842 -0.10522,0.210228 -0.320197,0.369311 -0.543033,0.398224 -0.198703,0.02413 -0.402484,-0.01577 -0.555101,-0.132741 -0.216308,-0.187398 -0.317766,-0.461644 -0.253418,-0.74818 0.07022,-0.263054 0.316295,-0.513466 0.591306,-0.543033 z m -3.125461,1.013662 c 0.216314,0.316753 0.398801,0.674302 0.60337,1.013665 -0.520893,0.444367 -0.732834,1.058982 -0.639572,1.737707 0.08174,0.415237 0.29434,0.786924 0.639572,1.086067 l -0.591303,1.013665 c -0.532199,-0.35132 -0.905084,-0.885673 -1.098134,-1.448092 0.280445,-0.127831 0.551093,-0.414464 0.615438,-0.724044 0.08196,-0.368711 -0.01452,-0.738105 -0.27755,-1.001595 -0.0937,-0.105223 -0.21429,-0.164713 -0.32582,-0.229281 0.181315,-0.544155 0.547017,-1.079161 1.073999,-1.448092 z m -1.508426,1.713575 c 0.07369,0.0019 0.145528,0.01423 0.217213,0.0362 0.175659,0.06435 0.346486,0.223217 0.422359,0.398225 0.105221,0.246317 0.04857,0.561109 -0.132741,0.760246 -0.146312,0.164139 -0.339001,0.229826 -0.555101,0.241349 -0.280881,0 -0.552285,-0.201159 -0.65164,-0.458562 -0.08174,-0.233921 -0.03182,-0.518274 0.108604,-0.711977 0.153596,-0.183922 0.37024,-0.271171 0.591306,-0.265483 z m 4.983842,0.989527 h 1.182606 c -0.05326,0.632422 -0.285221,1.209853 -0.711977,1.68944 -0.27523,-0.204574 -0.685599,-0.29112 -1.013662,-0.144809 -0.292182,0.111091 -0.563049,0.395764 -0.639573,0.69991 -0.02892,0.122613 -0.04207,0.258001 -0.03618,0.398224 -0.614588,0.123484 -1.265736,0.04074 -1.785976,-0.205145 0.163917,-0.344799 0.374658,-0.70485 0.579236,-1.049865 0.591329,0.233705 1.329978,0.108009 1.798043,-0.28962 0.362411,-0.298492 0.534242,-0.682681 0.627506,-1.098135 z m -0.144809,1.798047 c 0.0641,-9.8e-5 0.127315,0.0066 0.193079,0.02413 0.169573,0.04674 0.340297,0.179837 0.434426,0.337888 0.140227,0.245444 0.114893,0.591985 -0.06034,0.808516 -0.193266,0.228053 -0.473714,0.305265 -0.760246,0.241348 -0.233925,-0.07065 -0.471611,-0.285522 -0.506832,-0.530966 -0.05261,-0.24588 0.0056,-0.487831 0.181012,-0.663707 0.139895,-0.135821 0.326603,-0.21692 0.518898,-0.217213 z"
       style="display:inline;fill:#ffffff;fill-opacity:1;fill-rule:nonzero;stroke:none;stroke-width:0.264578;enable-background:new"
       inkscape:connector-curvature="0" />
  </g>
</svg>
