<?xml version="1.0" encoding="UTF-8" standalone="no"?>
<svg
   id="App-Store"
   width="64"
   height="64"
   enable-background="new 0 0 1024 1024"
   image-rendering="optimizeSpeed"
   version="1.1"
   viewBox="0 0 64 64"
   sodipodi:docname="distributor-logo-antergos.svg"
   inkscape:version="1.1.2 (0a00cf5339, 2022-02-04, custom)"
   xmlns:inkscape="http://www.inkscape.org/namespaces/inkscape"
   xmlns:sodipodi="http://sodipodi.sourceforge.net/DTD/sodipodi-0.dtd"
   xmlns:xlink="http://www.w3.org/1999/xlink"
   xmlns="http://www.w3.org/2000/svg"
   xmlns:svg="http://www.w3.org/2000/svg">
  <sodipodi:namedview
     id="namedview21"
     pagecolor="#ffffff"
     bordercolor="#666666"
     borderopacity="1.0"
     inkscape:pageshadow="2"
     inkscape:pageopacity="0.0"
     inkscape:pagecheckerboard="0"
     showgrid="false"
     inkscape:zoom="4.9485594"
     inkscape:cx="29.099378"
     inkscape:cy="18.187111"
     inkscape:window-width="1366"
     inkscape:window-height="703"
     inkscape:window-x="0"
     inkscape:window-y="37"
     inkscape:window-maximized="1"
     inkscape:current-layer="g1134" />
  <defs
     id="defs10">
    <filter
       id="filter873"
       x="-0.085157753"
       y="-0.14758821"
       width="1.1703155"
       height="1.2951764"
       color-interpolation-filters="sRGB">
      <feGaussianBlur
         stdDeviation="1.6366986"
         id="feGaussianBlur2" />
    </filter>
    <linearGradient
       id="linearGradient874"
       x1="357.8"
       x2="357.8"
       y1="546.73"
       y2="523.48"
       gradientTransform="matrix(2.1429,0,0,2.1429,-736.33,-1114)"
       gradientUnits="userSpaceOnUse">
      <stop
         stop-color="#197ff1"
         offset="0"
         id="stop5" />
      <stop
         stop-color="#21c6fb"
         offset="1"
         id="stop7" />
    </linearGradient>
    <linearGradient
       id="outerBackgroundGradient-46">
      <stop
         style="stop-color:#002b82;stop-opacity:1"
         offset="0"
         id="stop3864-8-6-1" />
      <stop
         style="stop-color:#3d83d0;stop-opacity:1"
         offset="1"
         id="stop3866-9-1-8" />
    </linearGradient>
    <linearGradient
       id="a"
       x2="1"
       gradientTransform="matrix(0,-56.000775,56.000775,0,31.999998,60.000126)"
       gradientUnits="userSpaceOnUse">
      <stop
         stop-color="#0a3a7f"
         offset="0"
         id="stop2"
         style="stop-color:#07296b;stop-opacity:1" />
      <stop
         stop-color="#3363c1"
         offset="1"
         id="stop4"
         style="stop-color:#568fda;stop-opacity:1" />
    </linearGradient>
    <linearGradient
       id="outerBackgroundGradient-5">
      <stop
         style="stop-color:#701a5f;stop-opacity:1"
         offset="0"
         id="stop3864-8-6-47" />
      <stop
         style="stop-color:#de7980;stop-opacity:1"
         offset="1"
         id="stop3866-9-1-22" />
    </linearGradient>
    <linearGradient
       id="outerBackgroundGradient-14">
      <stop
         style="stop-color:#0d65c5;stop-opacity:1"
         offset="0"
         id="stop3864-8-6-1-6" />
      <stop
         style="stop-color:#71d7ff;stop-opacity:1"
         offset="1"
         id="stop3866-9-1-758" />
    </linearGradient>
    <linearGradient
       id="outerBackgroundGradient">
      <stop
         style="stop-color:#00adef;stop-opacity:1;"
         offset="0"
         id="stop3864-8-6" />
      <stop
         style="stop-color:#1cc0ff;stop-opacity:1;"
         offset="1"
         id="stop3866-9-1" />
    </linearGradient>
    <linearGradient
       id="outerBackgroundGradient-7">
      <stop
         style="stop-color:#dd4814;stop-opacity:1;"
         offset="0"
         id="stop3864-8-6-4" />
      <stop
         style="stop-color:#ff6a37;stop-opacity:1;"
         offset="1"
         id="stop3866-9-1-5" />
    </linearGradient>
    <linearGradient
       id="linearGradient5062">
      <stop
         id="stop5064"
         style="stop-color:#202a34;stop-opacity:1"
         offset="0" />
      <stop
         id="stop5066"
         style="stop-color:#787e87;stop-opacity:1"
         offset="1" />
    </linearGradient>
    <linearGradient
       id="outerBackgroundGradient-1">
      <stop
         style="stop-color:#9b0739;stop-opacity:1"
         offset="0"
         id="stop3864-8-6-0" />
      <stop
         style="stop-color:#f385b0;stop-opacity:1"
         offset="1"
         id="stop3866-9-1-5-3" />
    </linearGradient>
    <linearGradient
       id="outerBackgroundGradient-5-6">
      <stop
         style="stop-color:#0e64e2;stop-opacity:1"
         offset="0"
         id="stop3864-8-6-7" />
      <stop
         style="stop-color:#47ddf8;stop-opacity:1"
         offset="1"
         id="stop3866-9-1-6" />
    </linearGradient>
    <linearGradient
       inkscape:collect="always"
       xlink:href="#outerBackgroundGradient-1-3"
       id="linearGradient4264"
       x1="293"
       y1="76"
       x2="379"
       y2="76"
       gradientUnits="userSpaceOnUse"
       gradientTransform="matrix(0,-914.70379,914.70379,0,-63135.495,309283.42)" />
    <linearGradient
       id="outerBackgroundGradient-1-3">
      <stop
         style="stop-color:#3a139a;stop-opacity:1"
         offset="0"
         id="stop3864-8-6-5" />
      <stop
         style="stop-color:#6b75ff;stop-opacity:1"
         offset="1"
         id="stop3866-9-1-4" />
    </linearGradient>
    <clipPath
       clipPathUnits="userSpaceOnUse"
       id="clipPath3911">
      <rect
         style="color:#bebebe;display:inline;overflow:visible;visibility:visible;fill:url(#linearGradient3915);fill-opacity:1;fill-rule:nonzero;stroke:none;stroke-width:0;marker:none;enable-background:accumulate"
         id="rect3913"
         width="88"
         height="88"
         x="292"
         y="32"
         ry="18" />
    </clipPath>
    <clipPath
       clipPathUnits="userSpaceOnUse"
       id="clipPath3911-6">
      <rect
         style="color:#bebebe;display:inline;overflow:visible;visibility:visible;fill:url(#linearGradient3915);fill-opacity:1;fill-rule:nonzero;stroke:none;stroke-width:0;marker:none;enable-background:accumulate"
         id="rect3913-7"
         width="88"
         height="88"
         x="292"
         y="32"
         ry="18" />
    </clipPath>
    <filter
       inkscape:collect="always"
       style="color-interpolation-filters:sRGB"
       id="filter2046"
       x="-0.048"
       y="-0.048"
       width="1.096"
       height="1.096">
      <feGaussianBlur
         inkscape:collect="always"
         stdDeviation="1591.5846"
         id="feGaussianBlur2048" />
    </filter>
    <filter
       inkscape:collect="always"
       style="color-interpolation-filters:sRGB"
       id="filter1055"
       x="-0.10791673"
       y="-0.1080834"
       width="1.2158335"
       height="1.2161668">
      <feGaussianBlur
         inkscape:collect="always"
         stdDeviation="2249.5374"
         id="feGaussianBlur1057" />
    </filter>
  </defs>
  <g
     id="g6586"
     transform="matrix(0.25570776,0,0,0.25570776,25.878873,25.434852)">
    <g
       style="display:inline;enable-background:new"
       id="g5644"
       transform="matrix(2.1652989,0,0,2.1652989,-738.28121,-153.0942)" />
    <g
       id="g1708"
       transform="matrix(0.25570776,0,0,0.25570776,10.995147,18.737177)">
      <g
         id="g2249"
         transform="matrix(0.25570775,0,0,0.25570775,-0.16100029,29.40827)">
        <g
           id="g3600"
           transform="matrix(0.25570776,0,0,0.25570776,426.63956,190.64411)">
          <g
             id="g1134"
             transform="matrix(0.16365297,0,0,0.16365297,-1898.9108,-1098.3733)">
            <path
               style="color:#bebebe;display:inline;overflow:visible;visibility:visible;fill:#000000;fill-opacity:1;fill-rule:nonzero;stroke:none;stroke-width:1829.41;marker:none;enable-background:accumulate;filter:url(#filter2046);opacity:0.3"
               d="m -17400.305,-37846.669 c -8874.959,0 -16007.316,7132.359 -16007.316,16007.317 v 47564.597 c 0,8874.959 7132.357,16007.316 16007.316,16007.316 h 47564.597 c 8874.959,0 16007.316,-7132.357 16007.316,-16007.316 v -47564.597 c 0,-8874.958 -7132.357,-16007.317 -16007.316,-16007.317 z"
               id="path4210-4" />
            <path
               style="color:#bebebe;display:inline;overflow:visible;visibility:visible;fill:url(#linearGradient4264);fill-opacity:1;fill-rule:nonzero;stroke:none;stroke-width:1829.41;marker:none;enable-background:accumulate"
               d="m -17400.305,-37846.669 c -8874.959,0 -16007.316,7132.359 -16007.316,16007.317 v 47564.597 c 0,8874.959 7132.357,16007.316 16007.316,16007.316 h 47564.597 c 8874.959,0 16007.316,-7132.357 16007.316,-16007.316 v -47564.597 c 0,-8874.958 -7132.357,-16007.317 -16007.316,-16007.317 z"
               id="path4210" />
            <path
               d="m 7785.434,-23032.627 c -5917.2197,4432.912 -20426.352,11195.631 -23677.22,13146.97 -3250.869,1951.339 -2960.368,7676.8154 -2963.614,11791.078 9.005,1987.286 254.794,3966.417 732.148,5895.54 C -9481.4912,1514.942 8426.443,-11863.28 7785.434,-23032.627 Z m 5036.642,850.559 C 10540.577,-9175.191 3914.5578,8793.281 -7969.9147,22550.651 c 4160.5271,2845.673 9083.6585,4368.129 14124.2777,4367.869 1337.05,-3.859 2671.644,-114.781 3990.956,-331.885 7144.692,-14848.087 9326.125,-32291.2128 2686.764,-48765.367 l -10.005,-3.288 z m 6305.811,2730.126 c 6721.081,15740.3407 7024.614,23040.137 7036.288,36318.86 3238.459,-4317.921 4993.559,-9567.428 5003.287,-14964.831 -11.863,-8732.577 -4576.397,-16826.984 -12042.911,-21355.695"
               style="fill:#000000;fill-opacity:1;stroke-width:1667.76;filter:url(#filter1055);opacity:0.4"
               id="path877-3"
               sodipodi:nodetypes="czcccccccccccccc" />
            <path
               d="m 7785.4343,-23032.627 c -5917.2195,4432.912 -20426.3513,11195.631 -23677.2203,13146.9696 -3250.869,1951.339 -2960.368,7676.8154 -2963.613,11791.0785 9.004,1987.2854 254.793,3966.417 732.147,5895.54 C -9481.4907,1514.9412 8426.4433,-11863.28 7785.4343,-23032.627 Z m 5036.6417,850.559 C 10540.578,-9175.1914 3914.5583,8793.2803 -7969.9142,22550.651 c 4160.5271,2845.673 9083.6585,4368.129 14124.2775,4367.869 1337.05,-3.859 2671.644,-114.781 3990.9557,-331.885 7144.693,-14848.087 9326.126,-32291.2132 2686.765,-48765.367 l -10.005,-3.288 z m 6305.811,2730.126 c 6721.081,15740.3403 7024.614,23040.1364 7036.288,36318.86 3238.459,-4317.921 4993.559,-9567.4289 5003.287,-14964.8313 -11.863,-8732.5771 -4576.397,-16826.9837 -12042.911,-21355.6947"
               style="fill:#ffffff;fill-opacity:1;stroke-width:1667.76"
               id="path877"
               sodipodi:nodetypes="czcccccccccccccc" />
          </g>
        </g>
      </g>
    </g>
  </g>
</svg>
