<?xml version="1.0" encoding="UTF-8" standalone="no"?>
<!-- Created with Inkscape (http://www.inkscape.org/) -->

<svg
   width="64"
   height="64"
   viewBox="0 0 16.933333 16.933333"
   version="1.1"
   id="svg5"
   inkscape:version="1.1.1 (3bf5ae0d25, 2021-09-20, custom)"
   sodipodi:docname="git.svg"
   xmlns:inkscape="http://www.inkscape.org/namespaces/inkscape"
   xmlns:sodipodi="http://sodipodi.sourceforge.net/DTD/sodipodi-0.dtd"
   xmlns:xlink="http://www.w3.org/1999/xlink"
   xmlns="http://www.w3.org/2000/svg"
   xmlns:svg="http://www.w3.org/2000/svg">
  <sodipodi:namedview
     id="namedview7"
     pagecolor="#ffffff"
     bordercolor="#666666"
     borderopacity="1.0"
     inkscape:pageshadow="2"
     inkscape:pageopacity="0.0"
     inkscape:pagecheckerboard="0"
     inkscape:document-units="px"
     showgrid="false"
     units="px"
     height="48px"
     inkscape:zoom="8.7173008"
     inkscape:cx="26.843171"
     inkscape:cy="34.701108"
     inkscape:window-width="1920"
     inkscape:window-height="1011"
     inkscape:window-x="0"
     inkscape:window-y="0"
     inkscape:window-maximized="1"
     inkscape:current-layer="svg5"
     inkscape:lockguides="true" />
  <defs
     id="defs2">
    <linearGradient
       inkscape:collect="always"
       id="linearGradient2948">
      <stop
         style="stop-color:#ffffff;stop-opacity:1;"
         offset="0"
         id="stop2944" />
      <stop
         style="stop-color:#ffffff;stop-opacity:0;"
         offset="1"
         id="stop2946" />
    </linearGradient>
    <linearGradient
       inkscape:collect="always"
       id="linearGradient2684">
      <stop
         style="stop-color:#000000;stop-opacity:1;"
         offset="0"
         id="stop2680" />
      <stop
         style="stop-color:#000000;stop-opacity:0;"
         offset="1"
         id="stop2682" />
    </linearGradient>
    <linearGradient
       inkscape:collect="always"
       id="linearGradient1802">
      <stop
         style="stop-color:#f1502f;stop-opacity:1;"
         offset="0"
         id="stop1798" />
      <stop
         style="stop-color:#ff8080;stop-opacity:1"
         offset="1"
         id="stop1800" />
    </linearGradient>
    <linearGradient
       inkscape:collect="always"
       xlink:href="#linearGradient37218"
       id="linearGradient1781"
       x1="2.8346456e-08"
       y1="2.2677165e-07"
       x2="64"
       y2="64"
       gradientUnits="userSpaceOnUse"
       gradientTransform="scale(0.26458333)" />
    <linearGradient
       inkscape:collect="always"
       id="linearGradient37218">
      <stop
         style="stop-color:#ffffff;stop-opacity:1"
         offset="0"
         id="stop37214" />
      <stop
         style="stop-color:#ffffff;stop-opacity:0.00392157"
         offset="0.49741825"
         id="stop37220" />
      <stop
         style="stop-color:#000000;stop-opacity:1"
         offset="1"
         id="stop37216" />
    </linearGradient>
    <linearGradient
       inkscape:collect="always"
       xlink:href="#linearGradient1802"
       id="linearGradient1804"
       x1="10.054167"
       y1="16.933334"
       x2="10.054167"
       y2="6.7529299e-07"
       gradientUnits="userSpaceOnUse" />
    <linearGradient
       inkscape:collect="always"
       xlink:href="#linearGradient2684"
       id="linearGradient2686"
       x1="9.5859385"
       y1="47.5"
       x2="50"
       y2="19.5"
       gradientUnits="userSpaceOnUse" />
    <linearGradient
       inkscape:collect="always"
       xlink:href="#linearGradient2948"
       id="linearGradient2950"
       x1="28"
       y1="-2.1035159"
       x2="28"
       y2="65"
       gradientUnits="userSpaceOnUse" />
  </defs>
  <path
     id="rect863"
     style="fill:url(#linearGradient1804);stroke-width:0.264583;fill-opacity:1"
     d="M 3.1750003,1.0583333 H 13.758333 c 1.172634,0 2.116667,0.944034 2.116667,2.116667 V 13.758333 c 0,1.172634 -0.944033,2.116667 -2.116667,2.116667 H 3.1750003 c -1.172633,0 -2.116667,-0.944033 -2.116667,-2.116667 V 3.1750003 c 0,-1.172633 0.944034,-2.116667 2.116667,-2.116667 z" />
  <path
     id="rect1161"
     style="fill:url(#linearGradient2950);stroke-width:4.62864;stroke-linecap:round;stroke-linejoin:round;fill-opacity:1"
     d="M 14.585938 4 L 28 17.414062 L 28 45 L 30 45 L 30 19.414062 L 42.648438 32.0625 L 44.0625 30.648438 L 17.414062 4 L 14.585938 4 z "
     transform="scale(0.26458333)" />
  <circle
     style="fill:#ffffff;stroke-width:2.38125;stroke-linecap:round;stroke-linejoin:round"
     id="path849"
     cx="7.6729169"
     cy="4.4979167"
     r="1.3229166" />
  <circle
     style="fill:#ffffff;stroke-width:2.38125;stroke-linecap:round;stroke-linejoin:round"
     id="path953"
     cx="7.6729169"
     cy="11.906249"
     r="1.3229166" />
  <circle
     style="fill:#ffffff;stroke-width:2.38125;stroke-linecap:round;stroke-linejoin:round"
     id="path1057"
     cx="11.377081"
     cy="8.2020836"
     r="1.3229166" />
  <path
     id="rect1161-7"
     style="opacity:0.3;fill:url(#linearGradient2686);stroke-width:4.62864;stroke-linecap:round;stroke-linejoin:round;fill-opacity:1"
     d="M 13.585938 4 L 24.470703 14.884766 C 24.574246 14.663262 24.694066 14.449713 24.830078 14.244141 L 14.585938 4 L 13.585938 4 z M 33.972656 17.480469 C 33.964601 17.563356 33.945676 17.644352 33.933594 17.726562 A 4.9999999 4.9999999 0 0 1 33.871094 18.101562 C 33.849555 18.197419 33.818106 18.290408 33.791016 18.384766 A 4.9999999 4.9999999 0 0 1 33.685547 18.726562 C 33.656875 18.804822 33.62049 18.880235 33.587891 18.957031 A 4.9999999 4.9999999 0 0 1 33.417969 19.326172 C 33.381651 19.395318 33.340455 19.461767 33.300781 19.529297 A 4.9999999 4.9999999 0 0 1 31.626953 21.246094 C 31.573597 21.27907 31.519328 21.310892 31.464844 21.341797 A 4.9999999 4.9999999 0 0 1 31.054688 21.548828 C 31.010605 21.568725 30.968464 21.592721 30.923828 21.611328 A 4.9999999 4.9999999 0 0 1 30.380859 21.800781 C 30.323436 21.817286 30.265077 21.829298 30.207031 21.84375 A 4.9999999 4.9999999 0 0 1 29 22 A 4.9999999 4.9999999 0 0 1 27.78125 21.84375 C 27.733258 21.831698 27.684093 21.821987 27.636719 21.808594 A 4.9999999 4.9999999 0 0 1 27.123047 21.628906 C 27.073613 21.608893 27.02514 21.587911 26.976562 21.566406 A 4.9999999 4.9999999 0 0 1 26.472656 21.310547 C 26.449347 21.296882 26.427351 21.281602 26.404297 21.267578 A 4.9999999 4.9999999 0 0 1 25.978516 20.976562 C 25.944137 20.950424 25.908649 20.925425 25.875 20.898438 A 4.9999999 4.9999999 0 0 1 25.455078 20.517578 C 25.42823 20.490517 25.401214 20.463202 25.375 20.435547 A 4.9999999 4.9999999 0 0 1 25 19.994141 C 24.98092 19.968669 24.963908 19.941851 24.945312 19.916016 A 4.9999999 4.9999999 0 0 1 24.626953 19.417969 A 4.9999999 4.9999999 0 0 1 24.615234 19.396484 C 24.614806 19.395701 24.61371 19.395315 24.613281 19.394531 A 4.9999999 4.9999999 0 0 1 24.351562 18.830078 C 24.344065 18.811069 24.335394 18.792554 24.328125 18.773438 A 4.9999999 4.9999999 0 0 1 24.146484 18.185547 C 24.141425 18.164866 24.137613 18.143821 24.132812 18.123047 A 4.9999999 4.9999999 0 0 1 24.027344 17.5 A 4.9999999 4.9999999 0 0 0 24.027344 17.513672 A 4.9999999 4.9999999 0 0 0 24 18 C 24.000099 18.198828 24.016143 18.394397 24.039062 18.587891 A 4.9999999 4.9999999 0 0 0 24.054688 18.716797 C 24.082223 18.90681 24.117573 19.094286 24.166016 19.277344 C 24.167384 19.282514 24.168537 19.287804 24.169922 19.292969 A 4.9999999 4.9999999 0 0 0 24.177734 19.320312 C 24.226228 19.497154 24.288485 19.668993 24.355469 19.837891 A 4.9999999 4.9999999 0 0 0 24.412109 19.976562 C 24.484608 20.144406 24.562417 20.3087 24.652344 20.466797 C 24.654222 20.470099 24.656318 20.473265 24.658203 20.476562 A 4.9999999 4.9999999 0 0 0 24.714844 20.566406 C 24.798376 20.70555 24.887942 20.840553 24.984375 20.970703 A 4.9999999 4.9999999 0 0 0 25.074219 21.089844 C 25.188428 21.234762 25.309868 21.37429 25.439453 21.505859 A 4.9999999 4.9999999 0 0 0 25.533203 21.595703 C 25.646279 21.70474 25.765431 21.808022 25.888672 21.90625 A 4.9999999 4.9999999 0 0 0 25.994141 21.992188 C 26.141533 22.103218 26.295094 22.206131 26.455078 22.300781 A 4.9999999 4.9999999 0 0 0 26.587891 22.373047 C 26.71392 22.442554 26.84379 22.505655 26.976562 22.564453 A 4.9999999 4.9999999 0 0 0 27.140625 22.636719 C 27.295996 22.698902 27.455895 22.753927 27.619141 22.800781 A 4.9999999 4.9999999 0 0 0 27.847656 22.857422 C 27.898859 22.869556 27.948135 22.885897 28 22.896484 L 28 22.888672 A 4.9999999 4.9999999 0 0 0 29 23 A 4.9999999 4.9999999 0 0 0 30.462891 22.779297 A 4.9999999 4.9999999 0 0 0 31.34375 22.414062 A 4.9999999 4.9999999 0 0 0 31.757812 22.171875 L 38.470703 28.884766 C 38.574246 28.663262 38.694066 28.449713 38.830078 28.244141 L 32.322266 21.736328 A 4.9999999 4.9999999 0 0 0 33.529297 20.115234 A 4.9999999 4.9999999 0 0 0 33.53125 20.107422 A 4.9999999 4.9999999 0 0 0 33.732422 19.609375 A 4.9999999 4.9999999 0 0 0 33.878906 19.089844 A 4.9999999 4.9999999 0 0 0 33.880859 19.085938 C 33.88144 19.083332 33.882236 19.080732 33.882812 19.078125 A 4.9999999 4.9999999 0 0 0 33.96875 18.546875 A 4.9999999 4.9999999 0 0 0 34 18 A 4.9999999 4.9999999 0 0 0 33.972656 17.490234 C 33.972332 17.487033 33.972986 17.483668 33.972656 17.480469 z M 47.974609 31.5 C 47.72391 34.026828 45.592795 36 43 36 C 40.413906 35.999996 38.28708 34.036968 38.027344 31.519531 C 38.011867 31.678784 38.000099 31.839044 38 32 C 38 34.761425 40.238579 37 43 37 C 45.761425 37 48 34.761425 48 32 C 48 31.83137 47.990914 31.664339 47.974609 31.5 z M 24.025391 45.511719 C 24.009614 45.672668 24.000082 45.835485 24 46 C 23.999999 48.761425 26.238575 51 29 51 C 31.761424 51 34.000001 48.761425 34 46 C 33.999982 45.835434 33.990332 45.672722 33.974609 45.511719 C 33.718559 48.033 31.588832 50 29 50 C 26.411164 50 24.281441 48.033 24.025391 45.511719 z "
     transform="scale(0.26458333)" />
  <path
     id="rect1345"
     style="opacity:0.3;fill:url(#linearGradient1781);fill-opacity:1;stroke-width:0.264583"
     d="m 3.1750003,1.0583333 c -1.172633,0 -2.116667,0.944034 -2.116667,2.116667 V 13.758333 c 0,1.172634 0.944034,2.116667 2.116667,2.116667 H 13.758334 c 1.172633,0 2.116666,-0.944033 2.116666,-2.116667 V 3.1750003 c 0,-1.172633 -0.944033,-2.116667 -2.116666,-2.116667 z m 0,0.264584 H 13.758334 c 1.026054,0 1.852083,0.826029 1.852083,1.852083 V 13.758333 c 0,1.026054 -0.826029,1.852084 -1.852083,1.852084 H 3.1750003 c -1.026054,0 -1.852083,-0.82603 -1.852083,-1.852084 V 3.1750003 c 0,-1.026054 0.826029,-1.852083 1.852083,-1.852083 z" />
</svg>
