<?xml version="1.0" encoding="UTF-8" standalone="no"?>
<!-- Created with Inkscape (http://www.inkscape.org/) -->

<svg
   width="64"
   height="64"
   viewBox="0 0 16.933333 16.933333"
   version="1.1"
   id="svg5"
   inkscape:version="1.1.1 (3bf5ae0d25, 2021-09-20, custom)"
   sodipodi:docname="gnome-drawing.svg"
   xmlns:inkscape="http://www.inkscape.org/namespaces/inkscape"
   xmlns:sodipodi="http://sodipodi.sourceforge.net/DTD/sodipodi-0.dtd"
   xmlns:xlink="http://www.w3.org/1999/xlink"
   xmlns="http://www.w3.org/2000/svg"
   xmlns:svg="http://www.w3.org/2000/svg">
  <sodipodi:namedview
     id="namedview7"
     pagecolor="#ffffff"
     bordercolor="#666666"
     borderopacity="1.0"
     inkscape:pageshadow="2"
     inkscape:pageopacity="0.0"
     inkscape:pagecheckerboard="0"
     inkscape:document-units="px"
     showgrid="false"
     units="px"
     height="48px"
     inkscape:zoom="1"
     inkscape:cx="32"
     inkscape:cy="54.5"
     inkscape:window-width="1920"
     inkscape:window-height="1011"
     inkscape:window-x="0"
     inkscape:window-y="0"
     inkscape:window-maximized="1"
     inkscape:current-layer="svg5"
     inkscape:lockguides="true" />
  <defs
     id="defs2">
    <linearGradient
       inkscape:collect="always"
       id="linearGradient7364">
      <stop
         style="stop-color:#d5d3cf;stop-opacity:1;"
         offset="0"
         id="stop7360" />
      <stop
         style="stop-color:#ffffff;stop-opacity:1"
         offset="1"
         id="stop7362" />
    </linearGradient>
    <linearGradient
       inkscape:collect="always"
       id="linearGradient4191">
      <stop
         style="stop-color:#3d3846;stop-opacity:1;"
         offset="0"
         id="stop4187" />
      <stop
         style="stop-color:#77767b;stop-opacity:1"
         offset="1"
         id="stop4189" />
    </linearGradient>
    <linearGradient
       inkscape:collect="always"
       id="linearGradient1569">
      <stop
         style="stop-color:#f66451;stop-opacity:1"
         offset="0"
         id="stop1565" />
      <stop
         style="stop-color:#e01b24;stop-opacity:1"
         offset="0.5"
         id="stop2277" />
      <stop
         style="stop-color:#f66451;stop-opacity:1"
         offset="1"
         id="stop1567" />
    </linearGradient>
    <linearGradient
       inkscape:collect="always"
       xlink:href="#linearGradient37218"
       id="linearGradient1781"
       x1="2.8346456e-08"
       y1="2.2677165e-07"
       x2="64"
       y2="64"
       gradientUnits="userSpaceOnUse"
       gradientTransform="scale(0.26458333)" />
    <linearGradient
       inkscape:collect="always"
       id="linearGradient37218">
      <stop
         style="stop-color:#ffffff;stop-opacity:1"
         offset="0"
         id="stop37214" />
      <stop
         style="stop-color:#717171;stop-opacity:0.00392157"
         offset="0.49741825"
         id="stop37220" />
      <stop
         style="stop-color:#000000;stop-opacity:1"
         offset="1"
         id="stop37216" />
    </linearGradient>
    <linearGradient
       inkscape:collect="always"
       xlink:href="#linearGradient1569"
       id="linearGradient1571"
       x1="13.758333"
       y1="6.6145835"
       x2="9.7895832"
       y2="6.6145835"
       gradientUnits="userSpaceOnUse"
       gradientTransform="matrix(0.84615384,0,0,1,3.6801091,-10.29779)" />
    <linearGradient
       inkscape:collect="always"
       xlink:href="#linearGradient1569"
       id="linearGradient2601"
       x1="9.8077402"
       y1="7.8052082"
       x2="13.776494"
       y2="7.8052082"
       gradientUnits="userSpaceOnUse"
       gradientTransform="rotate(45,11.496167,7.4046533)" />
    <linearGradient
       inkscape:collect="always"
       xlink:href="#linearGradient4191"
       id="linearGradient4193"
       x1="10.054167"
       y1="3.96875"
       x2="10.054167"
       y2="0.79374999"
       gradientUnits="userSpaceOnUse" />
    <linearGradient
       inkscape:collect="always"
       xlink:href="#linearGradient4191"
       id="linearGradient5654"
       x1="3.7041667"
       y1="3.7041674"
       x2="3.7041669"
       y2="6.7529299e-07"
       gradientUnits="userSpaceOnUse" />
    <linearGradient
       inkscape:collect="always"
       xlink:href="#linearGradient7364"
       id="linearGradient7366"
       x1="13.690684"
       y1="13.955065"
       x2="13.49375"
       y2="13.758333"
       gradientUnits="userSpaceOnUse"
       gradientTransform="translate(-0.26458356,-0.26458356)" />
  </defs>
  <path
     id="rect863"
     style="fill:url(#linearGradient5654);stroke-width:0.264583;fill-opacity:1"
     d="M 3.1750003,1.0583333 H 13.758333 c 1.172634,0 2.116667,0.944034 2.116667,2.116667 V 13.758333 c 0,1.172634 -0.944033,2.116667 -2.116667,2.116667 H 3.1750003 c -1.172633,0 -2.116667,-0.944033 -2.116667,-2.116667 V 3.1750003 c 0,-1.172633 0.944034,-2.116667 2.116667,-2.116667 z" />
  <path
     id="rect986"
     style="fill:url(#linearGradient4193);stroke-width:1.99231;stroke-linecap:round;stroke-linejoin:round;fill-opacity:1"
     d="M 3.1749998,1.0583333 H 13.758334 c 1.172633,0 2.116666,0.9440333 2.116666,2.1166666 v 1.5875 H 1.0583333 v -1.5875 c 0,-1.1726333 0.9440333,-2.1166666 2.1166665,-2.1166666 z"
     sodipodi:nodetypes="sssccss" />
  <rect
     style="opacity:1;fill:#5d5c64;fill-opacity:1;stroke-width:1.99231;stroke-linecap:round;stroke-linejoin:round"
     id="rect4508"
     width="14.816667"
     height="0.52916664"
     x="1.0583333"
     y="3.7041664" />
  <rect
     style="opacity:1;fill:#3d3846;fill-opacity:1;stroke-width:1.99231;stroke-linecap:round;stroke-linejoin:round"
     id="rect4744"
     width="14.816667"
     height="0.26458332"
     x="1.0583333"
     y="3.4395833" />
  <path
     id="rect1345"
     style="opacity:0.3;fill:url(#linearGradient1781);fill-opacity:1;stroke-width:0.264583"
     d="m 3.1750003,1.0583333 c -1.172633,0 -2.116667,0.944034 -2.116667,2.116667 V 13.758333 c 0,1.172634 0.944034,2.116667 2.116667,2.116667 H 13.758334 c 1.172633,0 2.116666,-0.944033 2.116666,-2.116667 V 3.1750003 c 0,-1.172633 -0.944033,-2.116667 -2.116666,-2.116667 z m 0,0.264584 H 13.758334 c 1.026054,0 1.852083,0.826029 1.852083,1.852083 V 13.758333 c 0,1.026054 -0.826029,1.852084 -1.852083,1.852084 H 3.1750003 c -1.026054,0 -1.852083,-0.82603 -1.852083,-1.852084 V 3.1750003 c 0,-1.026054 0.826029,-1.852083 1.852083,-1.852083 z" />
  <path
     id="rect6556"
     style="opacity:1;fill:#f6f5f4;fill-opacity:1;stroke-width:2.01706;stroke-linecap:round;stroke-linejoin:round"
     d="m 15.345833,4.7624999 v 8.7312491 c 0,1.026054 -0.826029,1.852083 -1.852083,1.852083 H 3.4395834 c -1.0260542,0 -1.8520835,-0.826029 -1.8520834,-1.852083 l 2e-7,-8.7312491 z"
     sodipodi:nodetypes="csssscc" />
  <path
     id="rect7029"
     style="opacity:1;fill:url(#linearGradient7366);fill-opacity:1;stroke-width:1.99231;stroke-linecap:round;stroke-linejoin:round"
     d="m 12.699999,11.641666 h 2.645833 l -3.704166,3.704166 v -2.645833 c 0,-0.586316 0.472017,-1.058333 1.058333,-1.058333 z"
     sodipodi:nodetypes="sccss" />
  <path
     id="rect2620-5"
     style="opacity:0.3;fill:#000000;fill-opacity:1;stroke-width:3.12612"
     d="M 60 20.701172 L 37.464844 43.234375 L 36.757812 42.527344 L 28.273438 46.769531 C 27.744231 47.038293 27.040663 46.965404 26.505859 46.416016 C 26.31487 46.228429 26.175079 46.012113 26.091797 45.785156 C 25.882683 46.334388 26.040065 46.958533 26.505859 47.416016 C 27.040664 47.965404 27.744229 48.038293 28.273438 47.769531 L 36.757812 43.527344 L 37.464844 44.234375 L 60 21.701172 L 60 20.701172 z M 30.1875 35.957031 L 29.6875 36.457031 L 30.060547 36.830078 L 30.394531 36.164062 L 30.1875 35.957031 z "
     transform="scale(0.26458333)" />
  <path
     style="color:#000000;fill:#e01b24;fill-rule:evenodd;stroke:none;stroke-linecap:round;-inkscape-stroke:none;fill-opacity:1"
     d="M 2.682642,7.8886907 A 0.13229166,0.13229166 0 0 0 2.5381108,8.0078314 0.13229166,0.13229166 0 0 0 2.6572514,8.1523626 c 0,0 0.6896497,0.077242 0.8496094,0.6035156 0.065269,0.2717157 -0.017626,0.3754709 -0.1269531,0.546875 C 3.2698394,9.4753195 3.1404136,9.7187321 3.245142,10.080097 v 0.0039 l 0.00195,0.0039 c 0.1245593,0.332771 0.34202,0.509958 0.5859375,0.554688 0.2439174,0.04473 0.4964294,-0.01807 0.7480468,-0.08398 0.2516174,-0.06591 0.5033366,-0.137221 0.7304688,-0.140625 0.2271321,-0.0034 0.423222,0.04904 0.609375,0.24414 0.3232944,0.360702 0.2830482,0.556054 0.3066406,0.81836 0.01183,0.13153 0.042821,0.281808 0.1484375,0.429687 0.1056169,0.147879 0.2785411,0.290543 0.5625,0.449219 a 0.13229166,0.13229166 0 0 0 0.1796907,-0.05077 0.13229166,0.13229166 0 0 0 -0.050781,-0.179688 C 6.8031587,11.981263 6.6637191,11.857912 6.5908451,11.755878 6.5179712,11.653844 6.5014098,11.570167 6.4912358,11.45705 c -0.020348,-0.226234 -0.00388,-0.562126 -0.375,-0.974609 h -0.00195 l -0.00195,-0.002 C 5.8750799,10.231831 5.5848782,10.148207 5.307642,10.152363 5.0304059,10.156563 4.7617725,10.238023 4.5146733,10.302753 4.267574,10.367483 4.044391,10.412636 3.8818608,10.382833 3.7209723,10.353327 3.6013677,10.268571 3.4990483,10.000019 3.4200761,9.7199674 3.4957412,9.6128092 3.6025639,9.4453314 3.7104774,9.2761433 3.8518845,9.0425295 3.7646733,8.6875189 l -0.00195,-0.00195 v -0.00391 C 3.5482376,7.9641322 2.682642,7.8886907 2.682642,7.8886907 Z"
     id="path7892" />
  <path
     id="rect2620"
     style="fill:url(#linearGradient2601);fill-opacity:1;stroke-width:0.827119"
     d="M 14.776956,2.8329226 8.0417638,9.5681147 6.9192318,11.813179 c -0.077777,0.153438 -0.04006,0.336501 0.093544,0.467721 0.1415004,0.145359 0.3277021,0.164646 0.4677217,0.09354 l 2.245064,-1.122532 6.7351925,-6.7351924 z"
     sodipodi:nodetypes="cccccccc" />
  <rect
     style="fill:url(#linearGradient1571);fill-opacity:1;stroke-width:1.99231;stroke-linecap:round;stroke-linejoin:round"
     id="rect1339"
     width="2.9104166"
     height="9.5250006"
     x="12.187481"
     y="-8.4457073"
     ry="0"
     transform="rotate(45)" />
  <rect
     style="opacity:0.3;fill:#000000;fill-opacity:1;stroke-width:1.29589;stroke-linecap:round;stroke-linejoin:round"
     id="rect3137"
     height="0.26458332"
     x="12.187481"
     y="0.81470984"
     width="2.9104166"
     transform="rotate(45)" />
  <path
     id="path3708"
     style="fill:#000000;fill-opacity:1;stroke-width:1.99231;stroke-linecap:round;stroke-linejoin:round"
     d="M 12.344803,4.890898 10.099739,7.135962 A 0.79375,1.5875 45 0 0 11.783537,6.574696 0.79375,1.5875 45 0 0 12.344803,4.890898 Z" />
  <rect
     style="fill:#000000;fill-opacity:1;stroke-width:1.99231;stroke-linecap:round;stroke-linejoin:round"
     id="rect3903"
     width="2.9104166"
     height="0.52916664"
     x="12.187481"
     y="-7.1227903"
     transform="rotate(45)" />
  <rect
     style="fill:#000000;fill-opacity:1;stroke-width:1.99231;stroke-linecap:round;stroke-linejoin:round"
     id="rect4007"
     width="2.9104166"
     height="0.5291667"
     x="12.187481"
     y="-0.77279073"
     transform="rotate(45)" />
</svg>
