<?xml version="1.0" encoding="UTF-8" standalone="no"?>
<!-- Created with Inkscape (http://www.inkscape.org/) -->

<svg
   xmlns:dc="http://purl.org/dc/elements/1.1/"
   xmlns:cc="http://creativecommons.org/ns#"
   xmlns:rdf="http://www.w3.org/1999/02/22-rdf-syntax-ns#"
   xmlns:svg="http://www.w3.org/2000/svg"
   xmlns="http://www.w3.org/2000/svg"
   xmlns:xlink="http://www.w3.org/1999/xlink"
   xmlns:sodipodi="http://sodipodi.sourceforge.net/DTD/sodipodi-0.dtd"
   xmlns:inkscape="http://www.inkscape.org/namespaces/inkscape"
   width="96"
   height="96"
   id="svg2"
   version="1.1"
   inkscape:version="0.48.4 r9939"
   sodipodi:docname="gnome-phone-manager.svg">
  <defs
     id="defs4">
    <linearGradient
       inkscape:collect="always"
       id="linearGradient3890">
      <stop
         style="stop-color:#ffffff;stop-opacity:0"
         offset="0"
         id="stop3892" />
      <stop
         id="stop3919"
         offset="0.85851693"
         style="stop-color:#ffffff;stop-opacity:0.48627451;" />
      <stop
         style="stop-color:#ffffff;stop-opacity:1"
         offset="1"
         id="stop3894" />
    </linearGradient>
    <linearGradient
       id="linearGradient3880">
      <stop
         style="stop-color:#cbcdcc;stop-opacity:1"
         offset="0"
         id="stop3882" />
      <stop
         id="stop3886"
         offset="0.41865987"
         style="stop-color:#d4d2d4;stop-opacity:1" />
      <stop
         style="stop-color:#f2f5ec;stop-opacity:1"
         offset="1"
         id="stop3884" />
    </linearGradient>
    <linearGradient
       inkscape:collect="always"
       id="linearGradient4049">
      <stop
         style="stop-color:#1a1a1a;stop-opacity:1;"
         offset="0"
         id="stop4051" />
      <stop
         style="stop-color:#1a1a1a;stop-opacity:0;"
         offset="1"
         id="stop4053" />
    </linearGradient>
    <linearGradient
       inkscape:collect="always"
       id="linearGradient4039">
      <stop
         style="stop-color:#948a94;stop-opacity:1"
         offset="0"
         id="stop4041" />
      <stop
         style="stop-color:#cdc2cd;stop-opacity:1"
         offset="1"
         id="stop4043" />
    </linearGradient>
    <linearGradient
       inkscape:collect="always"
       id="linearGradient3955">
      <stop
         style="stop-color:#736973;stop-opacity:1"
         offset="0"
         id="stop3957" />
      <stop
         style="stop-color:#f0e8f0;stop-opacity:1"
         offset="1"
         id="stop3959" />
    </linearGradient>
    <linearGradient
       inkscape:collect="always"
       id="linearGradient3947">
      <stop
         style="stop-color:#392c39;stop-opacity:1"
         offset="0"
         id="stop3949" />
      <stop
         style="stop-color:#736973;stop-opacity:1"
         offset="1"
         id="stop3951" />
    </linearGradient>
    <linearGradient
       id="linearGradient3136"
       inkscape:collect="always">
      <stop
         id="stop3138"
         offset="0"
         style="stop-color:#686868;stop-opacity:1" />
      <stop
         id="stop3140"
         offset="1"
         style="stop-color:#000000;stop-opacity:0" />
    </linearGradient>
    <linearGradient
       inkscape:collect="always"
       id="linearGradient3124">
      <stop
         style="stop-color:#686868;stop-opacity:1"
         offset="0"
         id="stop3126" />
      <stop
         style="stop-color:#000000;stop-opacity:1"
         offset="1"
         id="stop3128" />
    </linearGradient>
    <linearGradient
       inkscape:collect="always"
       id="linearGradient3088">
      <stop
         style="stop-color:#929092;stop-opacity:1"
         offset="0"
         id="stop3090" />
      <stop
         id="stop3096"
         offset="0.64673662"
         style="stop-color:#fafafa;stop-opacity:1" />
      <stop
         style="stop-color:#c3c3c3;stop-opacity:1"
         offset="1"
         id="stop3092" />
    </linearGradient>
    <linearGradient
       inkscape:collect="always"
       id="linearGradient3074">
      <stop
         style="stop-color:#635d63;stop-opacity:1"
         offset="0"
         id="stop3076" />
      <stop
         id="stop3930"
         offset="0.29504898"
         style="stop-color:#635d5f;stop-opacity:1" />
      <stop
         id="stop3082"
         offset="0.67170364"
         style="stop-color:#9c9694;stop-opacity:1" />
      <stop
         style="stop-color:#838183;stop-opacity:1"
         offset="1"
         id="stop3078" />
    </linearGradient>
    <linearGradient
       id="linearGradient4293">
      <stop
         style="stop-color:#3b69a4;stop-opacity:1;"
         offset="0"
         id="stop4295" />
      <stop
         id="stop4301"
         offset="0.12751994"
         style="stop-color:#3b69a4;stop-opacity:0" />
      <stop
         style="stop-color:#3b69a4;stop-opacity:0"
         offset="0.88838893"
         id="stop4303" />
      <stop
         style="stop-color:#3b69a4;stop-opacity:1;"
         offset="1"
         id="stop4297" />
    </linearGradient>
    <linearGradient
       id="linearGradient3070">
      <stop
         id="stop3072"
         offset="0"
         style="stop-color:#989898;stop-opacity:1;" />
      <stop
         id="stop3074"
         offset="1"
         style="stop-color:#f7f3f7;stop-opacity:1" />
    </linearGradient>
    <linearGradient
       inkscape:collect="always"
       id="linearGradient3048">
      <stop
         style="stop-color:#c16d16;stop-opacity:1"
         offset="0"
         id="stop3050" />
      <stop
         style="stop-color:#ff8e31;stop-opacity:1"
         offset="1"
         id="stop3052" />
    </linearGradient>
    <linearGradient
       inkscape:collect="always"
       id="linearGradient3119">
      <stop
         style="stop-color:#92948f;stop-opacity:0"
         offset="0"
         id="stop3121" />
      <stop
         id="stop3123"
         offset="0.4283945"
         style="stop-color:#9b9e98;stop-opacity:1" />
      <stop
         style="stop-color:#939690;stop-opacity:0"
         offset="1"
         id="stop3125" />
    </linearGradient>
    <linearGradient
       id="linearGradient3073"
       inkscape:collect="always">
      <stop
         id="stop3075"
         offset="0"
         style="stop-color:#ffffff;stop-opacity:0" />
      <stop
         style="stop-color:#ffffff;stop-opacity:1"
         offset="0.45872402"
         id="stop3085" />
      <stop
         id="stop3083"
         offset="1"
         style="stop-color:#ffffff;stop-opacity:0" />
    </linearGradient>
    <linearGradient
       inkscape:collect="always"
       id="linearGradient3047">
      <stop
         style="stop-color:#000000;stop-opacity:1"
         offset="0"
         id="stop3049" />
      <stop
         id="stop3055"
         offset="0.06123874"
         style="stop-color:#1a1a1a;stop-opacity:1" />
      <stop
         style="stop-color:#333333;stop-opacity:1"
         offset="0.16480456"
         id="stop3057" />
      <stop
         id="stop3059"
         offset="0.55385184"
         style="stop-color:#4d4d4d;stop-opacity:1" />
      <stop
         style="stop-color:#999999;stop-opacity:1"
         offset="1"
         id="stop3051" />
    </linearGradient>
    <linearGradient
       id="linearGradient3041"
       inkscape:collect="always">
      <stop
         id="stop3043"
         offset="0"
         style="stop-color:#1a1a1a;stop-opacity:1" />
      <stop
         id="stop3045"
         offset="1"
         style="stop-color:#808080;stop-opacity:1" />
    </linearGradient>
    <linearGradient
       inkscape:collect="always"
       id="linearGradient3029">
      <stop
         style="stop-color:#333333;stop-opacity:1"
         offset="0"
         id="stop3031" />
      <stop
         style="stop-color:#e0e0dd;stop-opacity:0;"
         offset="1"
         id="stop3033" />
    </linearGradient>
    <linearGradient
       inkscape:collect="always"
       xlink:href="#linearGradient3029"
       id="linearGradient3035"
       x1="35.355339"
       y1="1030.3622"
       x2="35.355339"
       y2="975.33282"
       gradientUnits="userSpaceOnUse"
       gradientTransform="matrix(1.1638085,0,0,1.1638085,-7.862809,-164.23642)" />
    <linearGradient
       inkscape:collect="always"
       xlink:href="#linearGradient3041"
       id="linearGradient3039"
       gradientUnits="userSpaceOnUse"
       x1="35.355339"
       y1="1030.3622"
       x2="35.355339"
       y2="975.33282"
       gradientTransform="matrix(1.1218695,0,0,1.1218695,-5.8497348,-122.18782)" />
    <linearGradient
       inkscape:collect="always"
       xlink:href="#linearGradient3047"
       id="linearGradient3053"
       x1="40"
       y1="1043.4336"
       x2="39.285713"
       y2="972.33325"
       gradientUnits="userSpaceOnUse" />
    <linearGradient
       inkscape:collect="always"
       xlink:href="#linearGradient3073"
       id="linearGradient3113"
       gradientUnits="userSpaceOnUse"
       gradientTransform="translate(0,-956.36218)"
       x1="14.869445"
       y1="978.90387"
       x2="24.52651"
       y2="969.24683" />
    <linearGradient
       inkscape:collect="always"
       xlink:href="#linearGradient3073"
       id="linearGradient3115"
       gradientUnits="userSpaceOnUse"
       gradientTransform="matrix(-1,0,0,1,96,-956.36218)"
       x1="15.152279"
       y1="978.62103"
       x2="26.263966"
       y2="967.50934" />
    <linearGradient
       inkscape:collect="always"
       xlink:href="#linearGradient3119"
       id="linearGradient3117"
       gradientUnits="userSpaceOnUse"
       gradientTransform="translate(0,-956.36218)"
       x1="13.131983"
       y1="980.64136"
       x2="25.549681"
       y2="967.86646" />
    <linearGradient
       inkscape:collect="always"
       xlink:href="#linearGradient3119"
       id="linearGradient3129"
       gradientUnits="userSpaceOnUse"
       gradientTransform="matrix(-1,0,0,1,96,0)"
       x1="13.131983"
       y1="980.64136"
       x2="25.549681"
       y2="967.86646" />
    <linearGradient
       inkscape:collect="always"
       xlink:href="#linearGradient3048"
       id="linearGradient3054"
       x1="49.267925"
       y1="996.57349"
       x2="49.267925"
       y2="1045.8627"
       gradientUnits="userSpaceOnUse" />
    <linearGradient
       inkscape:collect="always"
       xlink:href="#linearGradient3048"
       id="linearGradient3058"
       x1="115.80308"
       y1="985.47241"
       x2="115.80308"
       y2="1033.5543"
       gradientUnits="userSpaceOnUse" />
    <linearGradient
       inkscape:collect="always"
       xlink:href="#linearGradient3088"
       id="linearGradient3094"
       x1="166.50365"
       y1="44.896191"
       x2="172.01106"
       y2="38.107964"
       gradientUnits="userSpaceOnUse"
       gradientTransform="matrix(0.12881963,-1.1484287,1.1484287,0.12881963,4.7106185,1167.9641)" />
    <linearGradient
       inkscape:collect="always"
       xlink:href="#linearGradient3074"
       id="linearGradient3098"
       gradientUnits="userSpaceOnUse"
       x1="141.78426"
       y1="24.851713"
       x2="146.4171"
       y2="18.62431"
       gradientTransform="matrix(0.1272005,-1.1339941,1.1339941,0.1272005,5.5335507,1165.6429)" />
    <radialGradient
       inkscape:collect="always"
       xlink:href="#linearGradient3124"
       id="radialGradient3130"
       cx="43.697731"
       cy="1007.3033"
       fx="43.697731"
       fy="1007.3033"
       r="12.727128"
       gradientTransform="matrix(-1.2903966,1.3174377,-0.3641595,-0.35668482,465.22913,1308.6188)"
       gradientUnits="userSpaceOnUse" />
    <radialGradient
       inkscape:collect="always"
       xlink:href="#linearGradient3136"
       id="radialGradient3134"
       gradientUnits="userSpaceOnUse"
       gradientTransform="matrix(0.53412591,-0.53412591,0.3379806,0.33798055,-325.12902,708.49116)"
       cx="44.683674"
       cy="1002.8321"
       fx="44.683674"
       fy="1002.8321"
       r="12.727128" />
    <radialGradient
       inkscape:collect="always"
       xlink:href="#linearGradient3124"
       id="radialGradient3177"
       gradientUnits="userSpaceOnUse"
       gradientTransform="matrix(-1.2903966,1.3174377,-0.3641595,-0.35668482,465.22913,1308.6188)"
       cx="43.697731"
       cy="1007.3033"
       fx="43.697731"
       fy="1007.3033"
       r="12.727128" />
    <radialGradient
       inkscape:collect="always"
       xlink:href="#linearGradient3136"
       id="radialGradient3179"
       gradientUnits="userSpaceOnUse"
       gradientTransform="matrix(0.53412591,-0.53412591,0.3379806,0.33798055,-325.12902,708.49116)"
       cx="44.683674"
       cy="1002.8321"
       fx="44.683674"
       fy="1002.8321"
       r="12.727128" />
    <linearGradient
       inkscape:collect="always"
       xlink:href="#linearGradient3074"
       id="linearGradient3945"
       x1="-37.575424"
       y1="1004.2548"
       x2="-45.940697"
       y2="996.46716"
       gradientUnits="userSpaceOnUse" />
    <linearGradient
       inkscape:collect="always"
       xlink:href="#linearGradient3947"
       id="linearGradient3953"
       x1="-50.360065"
       y1="1016.7986"
       x2="-57.628529"
       y2="1010.8281"
       gradientUnits="userSpaceOnUse" />
    <linearGradient
       inkscape:collect="always"
       xlink:href="#linearGradient3955"
       id="linearGradient3961"
       x1="-56.535374"
       y1="1020.4233"
       x2="-60.944504"
       y2="1016.0142"
       gradientUnits="userSpaceOnUse" />
    <linearGradient
       inkscape:collect="always"
       xlink:href="#linearGradient3074"
       id="linearGradient3969"
       gradientUnits="userSpaceOnUse"
       x1="-37.575424"
       y1="1004.2548"
       x2="-45.940697"
       y2="996.46716" />
    <linearGradient
       inkscape:collect="always"
       xlink:href="#linearGradient3947"
       id="linearGradient3971"
       gradientUnits="userSpaceOnUse"
       x1="-50.360065"
       y1="1016.7986"
       x2="-57.628529"
       y2="1010.8281" />
    <linearGradient
       inkscape:collect="always"
       xlink:href="#linearGradient3955"
       id="linearGradient3973"
       gradientUnits="userSpaceOnUse"
       x1="-56.535374"
       y1="1020.4233"
       x2="-60.944504"
       y2="1016.0142" />
    <linearGradient
       inkscape:collect="always"
       xlink:href="#linearGradient3088"
       id="linearGradient4007"
       gradientUnits="userSpaceOnUse"
       gradientTransform="matrix(0.12881963,-1.1484287,1.1484287,0.12881963,4.7106185,1167.9641)"
       x1="166.50365"
       y1="44.896191"
       x2="172.01106"
       y2="38.107964" />
    <linearGradient
       inkscape:collect="always"
       xlink:href="#linearGradient3074"
       id="linearGradient4009"
       gradientUnits="userSpaceOnUse"
       x1="-37.575424"
       y1="1004.2548"
       x2="-45.940697"
       y2="996.46716" />
    <linearGradient
       inkscape:collect="always"
       xlink:href="#linearGradient3947"
       id="linearGradient4011"
       gradientUnits="userSpaceOnUse"
       x1="-50.360065"
       y1="1016.7986"
       x2="-57.628529"
       y2="1010.8281" />
    <linearGradient
       inkscape:collect="always"
       xlink:href="#linearGradient3955"
       id="linearGradient4013"
       gradientUnits="userSpaceOnUse"
       x1="-56.535374"
       y1="1020.4233"
       x2="-60.944504"
       y2="1016.0142" />
    <linearGradient
       inkscape:collect="always"
       xlink:href="#linearGradient3088"
       id="linearGradient4021"
       gradientUnits="userSpaceOnUse"
       gradientTransform="matrix(0.12881963,-1.1484287,1.1484287,0.12881963,2.8935028,1167.9641)"
       x1="166.50365"
       y1="44.896191"
       x2="172.01106"
       y2="38.107964" />
    <linearGradient
       inkscape:collect="always"
       xlink:href="#linearGradient3074"
       id="linearGradient4023"
       gradientUnits="userSpaceOnUse"
       x1="-37.575424"
       y1="1004.2548"
       x2="-45.940697"
       y2="996.46716" />
    <linearGradient
       inkscape:collect="always"
       xlink:href="#linearGradient3947"
       id="linearGradient4025"
       gradientUnits="userSpaceOnUse"
       x1="-50.360065"
       y1="1016.7986"
       x2="-57.628529"
       y2="1010.8281" />
    <linearGradient
       inkscape:collect="always"
       xlink:href="#linearGradient3955"
       id="linearGradient4027"
       gradientUnits="userSpaceOnUse"
       x1="-56.535374"
       y1="1020.4233"
       x2="-60.944504"
       y2="1016.0142" />
    <linearGradient
       inkscape:collect="always"
       xlink:href="#linearGradient3955"
       id="linearGradient4031"
       gradientUnits="userSpaceOnUse"
       x1="-56.535374"
       y1="1020.4233"
       x2="-60.944504"
       y2="1016.0142"
       gradientTransform="translate(92.802695,0)" />
    <linearGradient
       inkscape:collect="always"
       xlink:href="#linearGradient3947"
       id="linearGradient4034"
       gradientUnits="userSpaceOnUse"
       x1="-50.360065"
       y1="1016.7986"
       x2="-57.628529"
       y2="1010.8281"
       gradientTransform="translate(92.802695,0)" />
    <linearGradient
       inkscape:collect="always"
       xlink:href="#linearGradient3074"
       id="linearGradient4037"
       gradientUnits="userSpaceOnUse"
       x1="-37.575424"
       y1="1004.2548"
       x2="-45.940697"
       y2="996.46716"
       gradientTransform="translate(92.802695,0)" />
    <linearGradient
       inkscape:collect="always"
       xlink:href="#linearGradient4039"
       id="linearGradient4045"
       x1="31.669731"
       y1="1022.5096"
       x2="30.106794"
       y2="1020.9467"
       gradientUnits="userSpaceOnUse" />
    <linearGradient
       inkscape:collect="always"
       xlink:href="#linearGradient4049"
       id="linearGradient4055"
       x1="35.355255"
       y1="1019.8893"
       x2="30.735804"
       y2="1021.5181"
       gradientUnits="userSpaceOnUse" />
    <linearGradient
       inkscape:collect="always"
       xlink:href="#linearGradient3088"
       id="linearGradient4084"
       gradientUnits="userSpaceOnUse"
       gradientTransform="matrix(0.12881963,-1.1484287,1.1484287,0.12881963,2.8935028,211.60192)"
       x1="166.50365"
       y1="44.896191"
       x2="172.01106"
       y2="38.107964" />
    <linearGradient
       inkscape:collect="always"
       xlink:href="#linearGradient3088"
       id="linearGradient4113"
       gradientUnits="userSpaceOnUse"
       gradientTransform="matrix(0.12881963,-1.1484287,1.1484287,0.12881963,2.8935028,1167.9641)"
       x1="166.50365"
       y1="44.896191"
       x2="172.01106"
       y2="38.107964" />
    <linearGradient
       inkscape:collect="always"
       xlink:href="#linearGradient3074"
       id="linearGradient4115"
       gradientUnits="userSpaceOnUse"
       gradientTransform="translate(92.802695,0)"
       x1="-37.575424"
       y1="1004.2548"
       x2="-45.940697"
       y2="996.46716" />
    <linearGradient
       inkscape:collect="always"
       xlink:href="#linearGradient3955"
       id="linearGradient4117"
       gradientUnits="userSpaceOnUse"
       gradientTransform="translate(92.802695,0)"
       x1="-56.535374"
       y1="1020.4233"
       x2="-60.944504"
       y2="1016.0142" />
    <linearGradient
       inkscape:collect="always"
       xlink:href="#linearGradient4039"
       id="linearGradient4119"
       gradientUnits="userSpaceOnUse"
       x1="31.669731"
       y1="1022.5096"
       x2="30.106794"
       y2="1020.9467" />
    <linearGradient
       inkscape:collect="always"
       xlink:href="#linearGradient4049"
       id="linearGradient4121"
       gradientUnits="userSpaceOnUse"
       x1="35.355255"
       y1="1019.8893"
       x2="30.735804"
       y2="1021.5181" />
    <linearGradient
       inkscape:collect="always"
       xlink:href="#linearGradient4049"
       id="linearGradient4124"
       gradientUnits="userSpaceOnUse"
       x1="35.355255"
       y1="1019.8893"
       x2="30.735804"
       y2="1021.5181" />
    <linearGradient
       inkscape:collect="always"
       xlink:href="#linearGradient4039"
       id="linearGradient4127"
       gradientUnits="userSpaceOnUse"
       x1="31.669731"
       y1="1022.5096"
       x2="30.106794"
       y2="1020.9467" />
    <linearGradient
       inkscape:collect="always"
       xlink:href="#linearGradient3955"
       id="linearGradient4130"
       gradientUnits="userSpaceOnUse"
       gradientTransform="translate(92.802695,0)"
       x1="-56.535374"
       y1="1020.4233"
       x2="-60.944504"
       y2="1016.0142" />
    <linearGradient
       inkscape:collect="always"
       xlink:href="#linearGradient3074"
       id="linearGradient4133"
       gradientUnits="userSpaceOnUse"
       gradientTransform="translate(92.802695,0)"
       x1="-37.575424"
       y1="1004.2548"
       x2="-45.940697"
       y2="996.46716" />
    <linearGradient
       inkscape:collect="always"
       xlink:href="#linearGradient3088"
       id="linearGradient4136"
       gradientUnits="userSpaceOnUse"
       gradientTransform="matrix(0.12881963,-1.1484287,1.1484287,0.12881963,2.8935028,1167.9641)"
       x1="166.50365"
       y1="44.896191"
       x2="172.01106"
       y2="38.107964" />
    <linearGradient
       inkscape:collect="always"
       xlink:href="#linearGradient3059-4"
       id="linearGradient3068-2"
       x1="53.796227"
       y1="1046.0226"
       x2="53.796227"
       y2="962.97437"
       gradientUnits="userSpaceOnUse" />
    <linearGradient
       inkscape:collect="always"
       id="linearGradient3059-4">
      <stop
         style="stop-color:#3c8404;stop-opacity:1"
         offset="0"
         id="stop3061-5" />
      <stop
         style="stop-color:#64af0c;stop-opacity:1"
         offset="1"
         id="stop3064-2" />
    </linearGradient>
    <linearGradient
       inkscape:collect="always"
       xlink:href="#linearGradient3880"
       id="linearGradient3878"
       x1="59.95097"
       y1="1024.2937"
       x2="27.870043"
       y2="987.48901"
       gradientUnits="userSpaceOnUse" />
    <radialGradient
       inkscape:collect="always"
       xlink:href="#linearGradient3890"
       id="radialGradient3896"
       cx="63.795895"
       cy="1026.0219"
       fx="63.795895"
       fy="1026.0219"
       r="23.999999"
       gradientTransform="matrix(-3.8706691,-0.59406219,0.29487919,-1.9214863,12.906186,2993.2448)"
       gradientUnits="userSpaceOnUse" />
    <filter
       inkscape:collect="always"
       id="filter4696"
       x="-0.14400002"
       width="1.288"
       y="-0.14399998"
       height="1.288">
      <feGaussianBlur
         inkscape:collect="always"
         stdDeviation="2.8800002"
         id="feGaussianBlur4698" />
    </filter>
    <linearGradient
       inkscape:collect="always"
       xlink:href="#linearGradient3325-9"
       id="linearGradient4562"
       gradientUnits="userSpaceOnUse"
       gradientTransform="matrix(1.0744921,0,0,1.0738954,144.07535,7.85416)"
       x1="-109.75"
       y1="81"
       x2="-109.75"
       y2="30.747408" />
    <linearGradient
       inkscape:collect="always"
       id="linearGradient3325-9">
      <stop
         style="stop-color:#c6bede;stop-opacity:1"
         offset="0"
         id="stop3327-8" />
      <stop
         style="stop-color:#f7e7ff;stop-opacity:1"
         offset="1"
         id="stop3329-8" />
    </linearGradient>
    <linearGradient
       inkscape:collect="always"
       xlink:href="#linearGradient3315-1"
       id="linearGradient4546"
       gradientUnits="userSpaceOnUse"
       gradientTransform="matrix(0.70376092,0,0,0.7033701,102.36573,985.75721)"
       x1="-103.53697"
       y1="34.18985"
       x2="-103.53697"
       y2="76.055702" />
    <linearGradient
       inkscape:collect="always"
       id="linearGradient3315-1">
      <stop
         style="stop-color:#a69fc6;stop-opacity:1"
         offset="0"
         id="stop3317-3" />
      <stop
         style="stop-color:#fffbff;stop-opacity:1"
         offset="1"
         id="stop3319-6" />
    </linearGradient>
    <linearGradient
       inkscape:collect="always"
       xlink:href="#linearGradient3325-9"
       id="linearGradient4556"
       gradientUnits="userSpaceOnUse"
       gradientTransform="matrix(1.0744921,0,0,1.0738954,174.57535,920.71634)"
       x1="-109.75"
       y1="81"
       x2="-109.75"
       y2="30.747408" />
    <linearGradient
       inkscape:collect="always"
       xlink:href="#linearGradient3315-1"
       id="linearGradient4540"
       gradientUnits="userSpaceOnUse"
       gradientTransform="matrix(0.70376092,0,0,0.7033701,132.86573,942.25721)"
       x1="-103.53697"
       y1="34.18985"
       x2="-103.53697"
       y2="76.055702" />
    <linearGradient
       y2="30.747408"
       x2="-109.75"
       y1="81"
       x1="-109.75"
       gradientTransform="matrix(1.0744921,0,0,1.0738954,144.07535,964.21634)"
       gradientUnits="userSpaceOnUse"
       id="linearGradient3812"
       xlink:href="#linearGradient3325-9"
       inkscape:collect="always" />
    <linearGradient
       inkscape:collect="always"
       xlink:href="#linearGradient3315-1"
       id="linearGradient3132"
       gradientUnits="userSpaceOnUse"
       gradientTransform="matrix(0.70376092,0,0,0.7033701,132.86573,942.25721)"
       x1="-103.53697"
       y1="34.18985"
       x2="-103.53697"
       y2="76.055702" />
    <linearGradient
       inkscape:collect="always"
       xlink:href="#linearGradient3325-9"
       id="linearGradient3135"
       gradientUnits="userSpaceOnUse"
       gradientTransform="matrix(1.0744921,0,0,1.0738954,174.57535,920.71634)"
       x1="-109.75"
       y1="81"
       x2="-109.75"
       y2="30.747408" />
    <linearGradient
       inkscape:collect="always"
       xlink:href="#linearGradient3315-1"
       id="linearGradient3138"
       gradientUnits="userSpaceOnUse"
       gradientTransform="matrix(0.70376092,0,0,0.7033701,102.36573,985.75721)"
       x1="-103.53697"
       y1="34.18985"
       x2="-103.53697"
       y2="76.055702" />
    <linearGradient
       inkscape:collect="always"
       xlink:href="#linearGradient3325-9"
       id="linearGradient3141"
       gradientUnits="userSpaceOnUse"
       gradientTransform="matrix(1.0744921,0,0,1.0738954,144.07535,964.21634)"
       x1="-109.75"
       y1="81"
       x2="-109.75"
       y2="30.747408" />
    <linearGradient
       inkscape:collect="always"
       xlink:href="#linearGradient3325-9"
       id="linearGradient3149"
       gradientUnits="userSpaceOnUse"
       gradientTransform="matrix(1.0744921,0,0,1.0738954,144.07535,964.21634)"
       x1="-109.75"
       y1="81"
       x2="-109.75"
       y2="30.747408" />
    <linearGradient
       inkscape:collect="always"
       xlink:href="#linearGradient3315-1"
       id="linearGradient3151"
       gradientUnits="userSpaceOnUse"
       gradientTransform="matrix(0.70376092,0,0,0.7033701,102.36573,985.75721)"
       x1="-103.53697"
       y1="34.18985"
       x2="-103.53697"
       y2="76.055702" />
    <linearGradient
       inkscape:collect="always"
       xlink:href="#linearGradient3325-9"
       id="linearGradient3153"
       gradientUnits="userSpaceOnUse"
       gradientTransform="matrix(1.0744921,0,0,1.0738954,174.57535,920.71634)"
       x1="-109.75"
       y1="81"
       x2="-109.75"
       y2="30.747408" />
    <linearGradient
       inkscape:collect="always"
       xlink:href="#linearGradient3315-1"
       id="linearGradient3155"
       gradientUnits="userSpaceOnUse"
       gradientTransform="matrix(0.70376092,0,0,0.7033701,132.86573,942.25721)"
       x1="-103.53697"
       y1="34.18985"
       x2="-103.53697"
       y2="76.055702" />
  </defs>
  <sodipodi:namedview
     id="base"
     pagecolor="#ffffff"
     bordercolor="#666666"
     borderopacity="1.0"
     inkscape:pageopacity="0.0"
     inkscape:pageshadow="2"
     inkscape:zoom="1.9261293"
     inkscape:cx="106.23589"
     inkscape:cy="85.701021"
     inkscape:document-units="px"
     inkscape:current-layer="layer1"
     showgrid="false"
     inkscape:window-width="1366"
     inkscape:window-height="719"
     inkscape:window-x="0"
     inkscape:window-y="25"
     inkscape:window-maximized="1"
     showguides="true"
     inkscape:guide-bbox="true" />
  <metadata
     id="metadata7">
    <rdf:RDF>
      <cc:Work
         rdf:about="">
        <dc:format>image/svg+xml</dc:format>
        <dc:type
           rdf:resource="http://purl.org/dc/dcmitype/StillImage" />
        <dc:title />
      </cc:Work>
    </rdf:RDF>
  </metadata>
  <g
     inkscape:label="Layer 1"
     inkscape:groupmode="layer"
     id="layer1"
     transform="translate(0,-956.36218)">
    <rect
       style="opacity:0.05;fill:#000000;fill-opacity:1;stroke:none"
       id="rect3826"
       width="89"
       height="89"
       x="3.5"
       y="960.86218"
       rx="10.595235"
       ry="10.595235" />
    <g
       id="g3041">
      <rect
         style="opacity:0.05;fill:#000000;fill-opacity:1;stroke:none"
         id="rect3824"
         width="88"
         height="88"
         x="4"
         y="961.36218"
         rx="10.476188"
         ry="10.476188" />
      <rect
         ry="10.357141"
         rx="10.357141"
         y="961.86218"
         x="4.5"
         height="87"
         width="87"
         id="rect3822"
         style="opacity:0.05;fill:#000000;fill-opacity:1;stroke:none" />
      <rect
         style="opacity:0.1;fill:#000000;fill-opacity:1;stroke:none"
         id="rect3820"
         width="86"
         height="86"
         x="5"
         y="962.36218"
         rx="10.238094"
         ry="10.238094" />
      <rect
         ry="10.119047"
         rx="10.119047"
         y="962.86218"
         x="5.5"
         height="85"
         width="85"
         id="rect3818"
         style="opacity:0.1;fill:#000000;fill-opacity:1;stroke:none" />
      <rect
         style="opacity:0.3;fill:#000000;fill-opacity:1;stroke:none"
         id="rect3131"
         width="84"
         height="84"
         x="6"
         y="963.36218"
         rx="10"
         ry="10" />
    </g>
    <rect
       ry="10"
       rx="10"
       y="962.36218"
       x="6"
       height="84"
       width="84"
       id="rect3036"
       style="fill:url(#linearGradient3068-2);fill-opacity:1;stroke:none" />
    <g
       id="g3143"
       transform="translate(117.85294,0)">
      <path
         id="path3292"
         d="m 25.8125,996.36218 -7.9375,3.34375 0,8.90627 c -0.524888,0.4964 -0.995591,1.0475 -1.46875,1.5937 l -8.3125,-0.7187 -2.09375,5 0,4.125 5.15625,5.1562 c -0.005,0.1911 -0.03125,0.4016 -0.03125,0.5938 0,0.5231 0.02599,1.0174 0.0625,1.5312 L 6,1030.2059 l 0,3.9688 2.0625,5 8.96875,0.062 c 0.506833,0.5353 1.066236,1.0186 1.625,1.5 l -0.5625,5.625 13.71875,0 0.40625,-0.4063 c 0.191176,0 0.370119,0.031 0.5625,0.031 0.523418,0 1.017127,-0.026 1.53125,-0.062 l 0.375,0.4375 12.9375,0 0.03125,-6.2813 c 0.524888,-0.4963 1.026841,-1.0474 1.5,-1.5937 l 8.34375,0.7812 3.28125,-7.9687 -6.40625,-6.375 c 0.0051,-0.191 0.03125,-0.4015 0.03125,-0.5938 0,-0.5231 -0.02599,-1.0174 -0.0625,-1.5312 l 6.15625,-5.125 -3.40625,-8.2188 -0.03125,0 -8.5625,0 c -0.496621,-0.5244 -1.015975,-0.9958 -1.5625,-1.4687 l 0.71875,-8.31252 -7.90625,-3.28125 -6.40625,6.34377 c -0.191176,0 -0.37012,-0.031 -0.5625,-0.031 -0.534064,0 -1.069378,0.025 -1.59375,0.062 l -5.375,-6.40627 z m 6.96875,12.93752 c 8.307958,0 15.03125,6.7592 15.03125,15.0625 0,8.3034 -6.723292,15.0312 -15.03125,15.0312 -8.307959,0 -15.0625,-6.7278 -15.0625,-15.0312 0,-8.3033 6.754541,-15.0625 15.0625,-15.0625 z"
         style="opacity:0.3;fill:url(#linearGradient3149);fill-opacity:1;stroke:none"
         inkscape:connector-curvature="0" />
      <path
         inkscape:connector-curvature="0"
         id="path3298"
         d="m 32.772972,1009.3121 c -8.307959,0 -15.04289,6.7312 -15.04289,15.0345 0,8.3034 6.734931,15.0345 15.04289,15.0345 8.307958,0 15.042889,-6.7311 15.042889,-15.0345 0,-8.3033 -6.734931,-15.0345 -15.042889,-15.0345 z m 0,6.4433 c 4.747404,0 8.595937,3.8465 8.595937,8.5912 0,4.7447 -3.848533,8.5912 -8.595937,8.5912 -4.747405,0 -8.595937,-3.8465 -8.595937,-8.5912 0,-4.7447 3.848532,-8.5912 8.595937,-8.5912 z"
         style="opacity:0.3;fill:url(#linearGradient3151);fill-opacity:1;stroke:none" />
      <path
         id="path4520"
         d="m 48.375,962.36218 0,2.75 c -0.524888,0.49637 -0.995591,1.04755 -1.46875,1.59375 l -8.3125,-0.71875 -3.3125,7.90625 6.375,6.375 c -0.005,0.19112 -0.03125,0.40151 -0.03125,0.59375 0,0.52315 0.02598,1.0174 0.0625,1.53125 l -6.40625,5.34375 3.28125,7.9375 8.96875,0.0625 c 0.506832,0.53538 1.066235,1.01859 1.625,1.5 l -0.8125,8.21872 8.125,3.4063 6.25,-6.4063 c 0.191177,0 0.37012,0.031 0.5625,0.031 0.523419,0 1.017127,-0.027 1.53125,-0.062 l 5.34375,6.375 7.96875,-3.3125 0.03125,-8.90622 c 0.524888,-0.49627 1.026841,-1.04745 1.5,-1.59375 l 8.34375,0.7813 2,-4.84375 0,-4.40625 -5.125,-5.09375 c 0.0051,-0.19103 0.03125,-0.40141 0.03125,-0.59375 0,-0.52305 -0.02599,-1.01738 -0.0625,-1.53125 L 90,975.01843 l 0,-2.65625 c 0,-0.24108 -0.01464,-0.48204 -0.03125,-0.71875 l -2.375,-5.6875 -0.03125,0 -8.5625,0 c -0.496621,-0.52447 -1.015976,-0.99584 -1.5625,-1.46875 l 0.1875,-2.125 -29.25,0 z m 14.90625,3.4375 c 8.307959,0 15.03125,6.75922 15.03125,15.0625 0,8.30341 -6.723291,15.03125 -15.03125,15.03125 -8.307959,0 -15.0625,-6.72784 -15.0625,-15.03125 0,-8.30328 6.754541,-15.0625 15.0625,-15.0625 z"
         style="opacity:0.3;fill:url(#linearGradient3153);fill-opacity:1;stroke:none"
         inkscape:connector-curvature="0" />
      <path
         style="opacity:0.3;fill:url(#linearGradient3155);fill-opacity:1;stroke:none"
         d="m 63.272972,965.81206 c -8.307959,0 -15.04289,6.73123 -15.04289,15.03454 0,8.30341 6.734931,15.03453 15.04289,15.03453 8.307959,0 15.042889,-6.73112 15.042889,-15.03453 0,-8.30331 -6.73493,-15.03454 -15.042889,-15.03454 z m 0,6.44337 c 4.747404,0 8.595937,3.84642 8.595937,8.59117 0,4.74475 -3.848533,8.59116 -8.595937,8.59116 -4.747405,0 -8.595937,-3.84641 -8.595937,-8.59116 0,-4.74475 3.848532,-8.59117 8.595937,-8.59117 z"
         id="path4522"
         inkscape:connector-curvature="0" />
    </g>
    <path
       inkscape:connector-curvature="0"
       style="fill:#000000;fill-opacity:1;stroke:none;filter:url(#filter4696);opacity:0.2"
       d="m 31.356657,986.36446 c 0.3118,-0.0125 0.61395,0.0255 0.93176,0.13039 0.31735,0.10562 0.71325,0.32264 1.10922,0.60883 2.77007,2.00538 10.01714,10.57374 10.09524,13.14192 0.0893,2.935 -1.57462,3.8068 -3.44332,5.2887 -2.71458,2.1526 -1.67132,4.7601 -0.83278,6.1656 0.83855,1.4056 2.37539,3.3704 4.69633,5.4104 2.18314,1.7551 3.13538,2.2243 4.18731,2.7694 1.05194,0.5452 2.94751,0.4027 4.40361,-0.5874 1.9527,-1.3468 2.70356,-3.4787 5.19118,-3.6095 2.48763,-0.1309 9.0897,4.5688 11.99272,6.8245 0.96783,0.7515 1.74498,1.4466 2.04098,2.044 1.18368,2.3899 -1.81778,5.2313 -3.06146,6.7842 -2.82675,3.5291 -11.90857,4.0923 -20.1641,1.0524 -4.0022,-1.4738 -9.32896,-5.5347 -12.67909,-8.4698 -3.86252,-3.1108 -5.96933,-6.1227 -8.22362,-10.3118 -4.15316,-7.718 -4.74449,-19.93282 -1.61262,-23.19796 1.20568,-1.25694 3.18616,-3.95366 5.36864,-4.04433 z"
       id="path4694"
       sodipodi:nodetypes="cccsszczczccccccscc" />
    <path
       inkscape:connector-curvature="0"
       style="opacity:1;fill:url(#linearGradient3878);fill-opacity:1;stroke:none"
       d="m 31.356657,980.36446 c 0.3118,-0.0125 0.61395,0.0255 0.93176,0.13039 0.31735,0.10562 0.71325,0.32264 1.10922,0.60883 2.77007,2.00538 10.01714,10.57374 10.09524,13.14195 0.0893,2.93492 -1.57462,3.80678 -3.44332,5.28864 -2.71458,2.15263 -1.67132,4.76013 -0.83278,6.16563 0.83855,1.4056 2.37539,3.3704 4.69633,5.4104 2.18314,1.7551 3.13538,2.2243 4.18731,2.7694 1.05194,0.5452 2.94751,0.4027 4.40361,-0.5874 1.9527,-1.3468 2.70356,-3.4787 5.19118,-3.6095 2.48763,-0.1309 9.0897,4.5688 11.99272,6.8245 0.96783,0.7515 1.74498,1.4466 2.04098,2.044 1.18368,2.3899 -1.81778,5.2313 -3.06146,6.7842 -2.82675,3.5291 -11.90857,4.0923 -20.1641,1.0524 -4.0022,-1.4738 -9.32896,-5.5347 -12.67909,-8.4698 -3.86252,-3.1108 -5.96933,-6.1227 -8.22362,-10.3118 -4.15316,-7.71797 -4.74449,-19.93282 -1.61262,-23.19796 1.20568,-1.25694 3.18616,-3.95366 5.36864,-4.04433 z"
       id="path4393"
       sodipodi:nodetypes="cccsszczczccccccscc" />
    <path
       sodipodi:nodetypes="cccsszczczccccccscc"
       id="path3888"
       d="m 31.356657,980.36446 c 0.3118,-0.0125 0.61395,0.0255 0.93176,0.13039 0.31735,0.10562 0.71325,0.32264 1.10922,0.60883 2.77007,2.00538 10.01714,10.57374 10.09524,13.14195 0.0893,2.93492 -1.57462,3.80678 -3.44332,5.28864 -2.71458,2.15263 -1.67132,4.76013 -0.83278,6.16563 0.83855,1.4056 2.37539,3.3704 4.69633,5.4104 2.18314,1.7551 3.13538,2.2243 4.18731,2.7694 1.05194,0.5452 2.94751,0.4027 4.40361,-0.5874 1.9527,-1.3468 2.70356,-3.4787 5.19118,-3.6095 2.48763,-0.1309 9.0897,4.5688 11.99272,6.8245 0.96783,0.7515 1.74498,1.4466 2.04098,2.044 1.18368,2.3899 -1.81778,5.2313 -3.06146,6.7842 -2.82675,3.5291 -11.90857,4.0923 -20.1641,1.0524 -4.0022,-1.4738 -9.32896,-5.5347 -12.67909,-8.4698 -3.86252,-3.1108 -5.96933,-6.1227 -8.22362,-10.3118 -4.15316,-7.71797 -4.74449,-19.93282 -1.61262,-23.19796 1.20568,-1.25694 3.18616,-3.95366 5.36864,-4.04433 z"
       style="opacity:1;fill:url(#radialGradient3896);fill-opacity:1;stroke:none"
       inkscape:connector-curvature="0" />
    <path
       style="opacity:1;fill:#ffffff;fill-opacity:1;stroke:none"
       d="M 31.34375 24 C 29.16127 24.09067 27.20568 26.77431 26 28.03125 C 24.588461 29.502854 23.913711 32.811013 24 36.6875 C 24.039791 33.252585 24.711986 30.374073 26 29.03125 C 27.20568 27.77431 29.16127 25.09067 31.34375 25 C 31.65555 24.9875 31.96344 25.02011 32.28125 25.125 C 32.5986 25.23062 33.01028 25.46381 33.40625 25.75 C 36.095565 27.696918 42.996732 35.802384 43.46875 38.625 C 43.488394 38.390515 43.508109 38.141506 43.5 37.875 C 43.4219 35.30679 36.17632 26.75538 33.40625 24.75 C 33.01028 24.46381 32.5986 24.23062 32.28125 24.125 C 31.96344 24.02011 31.65555 23.9875 31.34375 24 z M 38.34375 46.9375 C 38.173285 48.257817 38.725836 49.517563 39.21875 50.34375 C 40.0573 51.74935 41.58531 53.71 43.90625 55.75 C 46.08939 57.5051 47.04182 57.98615 48.09375 58.53125 C 49.14569 59.07645 51.0439 58.9276 52.5 57.9375 C 54.4527 56.5907 55.19988 54.4433 57.6875 54.3125 C 60.17513 54.1816 66.78448 58.90055 69.6875 61.15625 C 70.65533 61.90775 71.42275 62.5901 71.71875 63.1875 C 71.830261 63.412646 71.926556 63.643295 71.96875 63.875 C 72.065238 63.301293 71.989795 62.734751 71.71875 62.1875 C 71.42275 61.5901 70.65533 60.90775 69.6875 60.15625 C 66.78448 57.90055 60.17513 53.1816 57.6875 53.3125 C 55.19988 53.4433 54.4527 55.5907 52.5 56.9375 C 51.0439 57.9276 49.14569 58.07645 48.09375 57.53125 C 47.04182 56.98615 46.08939 56.5051 43.90625 54.75 C 41.58531 52.71 40.0573 50.74935 39.21875 49.34375 C 38.851659 48.728459 38.456859 47.8745 38.34375 46.9375 z "
       transform="translate(0,956.36218)"
       id="path3921" />
  </g>
</svg>
