<?xml version="1.0" encoding="UTF-8" standalone="no"?>
<!-- Created with Inkscape (http://www.inkscape.org/) -->

<svg
   xmlns:dc="http://purl.org/dc/elements/1.1/"
   xmlns:cc="http://creativecommons.org/ns#"
   xmlns:rdf="http://www.w3.org/1999/02/22-rdf-syntax-ns#"
   xmlns:svg="http://www.w3.org/2000/svg"
   xmlns="http://www.w3.org/2000/svg"
   xmlns:xlink="http://www.w3.org/1999/xlink"
   xmlns:sodipodi="http://sodipodi.sourceforge.net/DTD/sodipodi-0.dtd"
   xmlns:inkscape="http://www.inkscape.org/namespaces/inkscape"
   width="96"
   height="96"
   id="svg2"
   version="1.1"
   inkscape:version="0.91 r13725"
   sodipodi:docname="gnumeric.svg">
  <defs
     id="defs4">
    <linearGradient
       inkscape:collect="always"
       id="linearGradient7717">
      <stop
         style="stop-color:#739ecd;stop-opacity:1;"
         offset="0"
         id="stop7719" />
      <stop
         id="stop7725"
         offset="0.28507313"
         style="stop-color:#5a88be;stop-opacity:1" />
      <stop
         style="stop-color:#4071ad;stop-opacity:1"
         offset="0.75454807"
         id="stop7727" />
      <stop
         style="stop-color:#b1c3dc;stop-opacity:1"
         offset="1"
         id="stop7721" />
    </linearGradient>
    <linearGradient
       id="linearGradient7703">
      <stop
         style="stop-color:#f64826;stop-opacity:1;"
         offset="0"
         id="stop7705" />
      <stop
         id="stop7711"
         offset="0.28458112"
         style="stop-color:#f52c04;stop-opacity:1;" />
      <stop
         style="stop-color:#fb6143;stop-opacity:1;"
         offset="1"
         id="stop7707" />
    </linearGradient>
    <linearGradient
       id="linearGradient7659">
      <stop
         style="stop-color:#e62b06;stop-opacity:1;"
         offset="0"
         id="stop7661" />
      <stop
         id="stop7669"
         offset="0.11197954"
         style="stop-color:#ee664b;stop-opacity:1;" />
      <stop
         id="stop7667"
         offset="0.2067236"
         style="stop-color:#f4b1a4;stop-opacity:1;" />
      <stop
         style="stop-color:#ea7b65;stop-opacity:1;"
         offset="0.29823774"
         id="stop7671" />
      <stop
         id="stop7681"
         offset="0.5846231"
         style="stop-color:#d12b0a;stop-opacity:1;" />
      <stop
         style="stop-color:#ce2301;stop-opacity:1;"
         offset="0.68152046"
         id="stop7699" />
      <stop
         id="stop7701"
         offset="0.79026079"
         style="stop-color:#e34020;stop-opacity:1;" />
      <stop
         style="stop-color:#cf2706;stop-opacity:1;"
         offset="1"
         id="stop7663" />
    </linearGradient>
    <linearGradient
       inkscape:collect="always"
       id="linearGradient3090">
      <stop
         style="stop-color:#000000;stop-opacity:0.1"
         offset="0"
         id="stop3092" />
      <stop
         style="stop-color:#000000;stop-opacity:0"
         offset="1"
         id="stop3094" />
    </linearGradient>
    <linearGradient
       inkscape:collect="always"
       id="linearGradient3075">
      <stop
         style="stop-color:#cfcfcf;stop-opacity:1"
         offset="0"
         id="stop3077" />
      <stop
         style="stop-color:#fafaf9;stop-opacity:0;"
         offset="1"
         id="stop3079" />
    </linearGradient>
    <linearGradient
       inkscape:collect="always"
       id="linearGradient3052">
      <stop
         style="stop-color:#f3f4f2;stop-opacity:1"
         offset="0"
         id="stop3054" />
      <stop
         style="stop-color:#fafafa;stop-opacity:1"
         offset="1"
         id="stop3056" />
    </linearGradient>
    <linearGradient
       id="linearGradient3994"
       inkscape:collect="always">
      <stop
         id="stop3996"
         offset="0"
         style="stop-color:#ff8e31;stop-opacity:1" />
      <stop
         id="stop4004"
         offset="1"
         style="stop-color:#ffb642;stop-opacity:1" />
    </linearGradient>
    <linearGradient
       inkscape:collect="always"
       id="linearGradient3119">
      <stop
         style="stop-color:#92948f;stop-opacity:0"
         offset="0"
         id="stop3121" />
      <stop
         id="stop3123"
         offset="0.4283945"
         style="stop-color:#9b9e98;stop-opacity:1" />
      <stop
         style="stop-color:#939690;stop-opacity:0"
         offset="1"
         id="stop3125" />
    </linearGradient>
    <linearGradient
       id="linearGradient3073"
       inkscape:collect="always">
      <stop
         id="stop3075"
         offset="0"
         style="stop-color:#ffffff;stop-opacity:0" />
      <stop
         style="stop-color:#ffffff;stop-opacity:1"
         offset="0.45872402"
         id="stop3085" />
      <stop
         id="stop3083"
         offset="1"
         style="stop-color:#ffffff;stop-opacity:0" />
    </linearGradient>
    <linearGradient
       inkscape:collect="always"
       id="linearGradient3061">
      <stop
         style="stop-color:#ef9a42;stop-opacity:1"
         offset="0"
         id="stop3063" />
      <stop
         style="stop-color:#f5c262;stop-opacity:1"
         offset="1"
         id="stop3065" />
    </linearGradient>
    <linearGradient
       inkscape:collect="always"
       id="linearGradient3047">
      <stop
         style="stop-color:#000000;stop-opacity:1"
         offset="0"
         id="stop3049" />
      <stop
         id="stop3055"
         offset="0.06123874"
         style="stop-color:#1a1a1a;stop-opacity:1" />
      <stop
         style="stop-color:#333333;stop-opacity:1"
         offset="0.16480456"
         id="stop3057" />
      <stop
         id="stop3059"
         offset="0.55385184"
         style="stop-color:#4d4d4d;stop-opacity:1" />
      <stop
         style="stop-color:#999999;stop-opacity:1"
         offset="1"
         id="stop3051" />
    </linearGradient>
    <linearGradient
       id="linearGradient3041"
       inkscape:collect="always">
      <stop
         id="stop3043"
         offset="0"
         style="stop-color:#1a1a1a;stop-opacity:1" />
      <stop
         id="stop3045"
         offset="1"
         style="stop-color:#808080;stop-opacity:1" />
    </linearGradient>
    <linearGradient
       inkscape:collect="always"
       id="linearGradient3029">
      <stop
         style="stop-color:#333333;stop-opacity:1"
         offset="0"
         id="stop3031" />
      <stop
         style="stop-color:#e0e0dd;stop-opacity:0;"
         offset="1"
         id="stop3033" />
    </linearGradient>
    <linearGradient
       inkscape:collect="always"
       xlink:href="#linearGradient3029"
       id="linearGradient3035"
       x1="35.355339"
       y1="1030.3622"
       x2="35.355339"
       y2="975.33282"
       gradientUnits="userSpaceOnUse"
       gradientTransform="matrix(1.1638085,0,0,1.1638085,-7.862809,-164.23642)" />
    <linearGradient
       inkscape:collect="always"
       xlink:href="#linearGradient3041"
       id="linearGradient3039"
       gradientUnits="userSpaceOnUse"
       x1="35.355339"
       y1="1030.3622"
       x2="35.355339"
       y2="975.33282"
       gradientTransform="matrix(1.1218695,0,0,1.1218695,-5.8497348,-122.18782)" />
    <linearGradient
       inkscape:collect="always"
       xlink:href="#linearGradient3047"
       id="linearGradient3053"
       x1="40"
       y1="1043.4336"
       x2="39.285713"
       y2="972.33325"
       gradientUnits="userSpaceOnUse" />
    <linearGradient
       inkscape:collect="always"
       xlink:href="#linearGradient3061"
       id="linearGradient3067"
       x1="17.67767"
       y1="1046.1118"
       x2="17.67767"
       y2="962.21893"
       gradientUnits="userSpaceOnUse"
       gradientTransform="translate(0,-956.36218)" />
    <linearGradient
       inkscape:collect="always"
       xlink:href="#linearGradient3073"
       id="linearGradient3113"
       gradientUnits="userSpaceOnUse"
       gradientTransform="translate(0,-956.36218)"
       x1="14.869445"
       y1="978.90387"
       x2="24.52651"
       y2="969.24683" />
    <linearGradient
       inkscape:collect="always"
       xlink:href="#linearGradient3073"
       id="linearGradient3115"
       gradientUnits="userSpaceOnUse"
       gradientTransform="matrix(-1,0,0,1,96,-956.36218)"
       x1="15.152279"
       y1="978.62103"
       x2="26.263966"
       y2="967.50934" />
    <linearGradient
       inkscape:collect="always"
       xlink:href="#linearGradient3119"
       id="linearGradient3117"
       gradientUnits="userSpaceOnUse"
       gradientTransform="translate(0,-956.36218)"
       x1="13.131983"
       y1="980.64136"
       x2="25.549681"
       y2="967.86646" />
    <linearGradient
       inkscape:collect="always"
       xlink:href="#linearGradient3119"
       id="linearGradient3129"
       gradientUnits="userSpaceOnUse"
       gradientTransform="matrix(-1,0,0,1,96,0)"
       x1="13.131983"
       y1="980.64136"
       x2="25.549681"
       y2="967.86646" />
    <linearGradient
       inkscape:collect="always"
       xlink:href="#linearGradient3994"
       id="linearGradient3992"
       gradientUnits="userSpaceOnUse"
       x1="29.673231"
       y1="1042.892"
       x2="29.673231"
       y2="965.32623"
       gradientTransform="translate(0,-956.36218)" />
    <linearGradient
       inkscape:collect="always"
       xlink:href="#linearGradient3075"
       id="linearGradient3081"
       x1="82.995659"
       y1="979.61285"
       x2="72.749283"
       y2="976.28278"
       gradientUnits="userSpaceOnUse" />
    <linearGradient
       inkscape:collect="always"
       xlink:href="#linearGradient3052"
       id="linearGradient3087"
       gradientUnits="userSpaceOnUse"
       x1="47.645657"
       y1="965.78027"
       x2="47.645657"
       y2="1041.1539"
       gradientTransform="translate(0,-956.36218)" />
    <linearGradient
       inkscape:collect="always"
       xlink:href="#linearGradient3090"
       id="linearGradient3096"
       x1="67.381134"
       y1="10.505658"
       x2="61.584908"
       y2="16.664148"
       gradientUnits="userSpaceOnUse" />
    <linearGradient
       inkscape:collect="always"
       xlink:href="#linearGradient3090"
       id="linearGradient3101"
       gradientUnits="userSpaceOnUse"
       x1="67.381134"
       y1="10.505658"
       x2="61.584908"
       y2="15.383351" />
    <linearGradient
       inkscape:collect="always"
       xlink:href="#linearGradient7717"
       id="linearGradient7857"
       gradientUnits="userSpaceOnUse"
       gradientTransform="translate(111.89504,0)"
       x1="-70.975845"
       y1="999.32916"
       x2="-76.455917"
       y2="991.55096" />
    <linearGradient
       inkscape:collect="always"
       xlink:href="#linearGradient7659"
       id="linearGradient7864"
       gradientUnits="userSpaceOnUse"
       gradientTransform="matrix(0.76582827,0,0,0.69236263,-1.8721506,976.64382)"
       x1="18.139732"
       y1="50.686386"
       x2="56.040619"
       y2="50.686386" />
    <linearGradient
       gradientTransform="matrix(1.1638085,0,0,1.1638085,-7.862809,-164.23642)"
       gradientUnits="userSpaceOnUse"
       y2="975.33282"
       x2="35.355339"
       y1="1030.3622"
       x1="35.355339"
       id="linearGradient4401"
       xlink:href="#linearGradient3029"
       inkscape:collect="always" />
    <linearGradient
       gradientTransform="matrix(1.1218695,0,0,1.1218695,-5.8497348,-122.18782)"
       y2="975.33282"
       x2="35.355339"
       y1="1030.3622"
       x1="35.355339"
       gradientUnits="userSpaceOnUse"
       id="linearGradient4403"
       xlink:href="#linearGradient3041"
       inkscape:collect="always" />
    <linearGradient
       gradientUnits="userSpaceOnUse"
       y2="972.33325"
       x2="39.285713"
       y1="1043.4336"
       x1="40"
       id="linearGradient4405"
       xlink:href="#linearGradient3047"
       inkscape:collect="always" />
    <linearGradient
       gradientTransform="translate(0,-956.36218)"
       gradientUnits="userSpaceOnUse"
       y2="962.21893"
       x2="17.67767"
       y1="1046.1118"
       x1="17.67767"
       id="linearGradient4407"
       xlink:href="#linearGradient3061"
       inkscape:collect="always" />
    <linearGradient
       y2="969.24683"
       x2="24.52651"
       y1="978.90387"
       x1="14.869445"
       gradientTransform="translate(0,-956.36218)"
       gradientUnits="userSpaceOnUse"
       id="linearGradient4409"
       xlink:href="#linearGradient3073"
       inkscape:collect="always" />
    <linearGradient
       y2="967.50934"
       x2="26.263966"
       y1="978.62103"
       x1="15.152279"
       gradientTransform="matrix(-1,0,0,1,96,-956.36218)"
       gradientUnits="userSpaceOnUse"
       id="linearGradient4411"
       xlink:href="#linearGradient3073"
       inkscape:collect="always" />
    <linearGradient
       y2="967.86646"
       x2="25.549681"
       y1="980.64136"
       x1="13.131983"
       gradientTransform="translate(0,-956.36218)"
       gradientUnits="userSpaceOnUse"
       id="linearGradient4413"
       xlink:href="#linearGradient3119"
       inkscape:collect="always" />
    <linearGradient
       y2="967.86646"
       x2="25.549681"
       y1="980.64136"
       x1="13.131983"
       gradientTransform="matrix(-1,0,0,1,96,0)"
       gradientUnits="userSpaceOnUse"
       id="linearGradient4415"
       xlink:href="#linearGradient3119"
       inkscape:collect="always" />
    <linearGradient
       gradientTransform="translate(0,-956.36218)"
       y2="965.32623"
       x2="29.673231"
       y1="1042.892"
       x1="29.673231"
       gradientUnits="userSpaceOnUse"
       id="linearGradient4417"
       xlink:href="#linearGradient3994"
       inkscape:collect="always" />
    <linearGradient
       gradientUnits="userSpaceOnUse"
       y2="976.28278"
       x2="72.749283"
       y1="979.61285"
       x1="82.995659"
       id="linearGradient4419"
       xlink:href="#linearGradient3075"
       inkscape:collect="always" />
    <linearGradient
       gradientTransform="translate(0,-956.36218)"
       y2="1041.1539"
       x2="47.645657"
       y1="965.78027"
       x1="47.645657"
       gradientUnits="userSpaceOnUse"
       id="linearGradient4421"
       xlink:href="#linearGradient3052"
       inkscape:collect="always" />
    <linearGradient
       gradientUnits="userSpaceOnUse"
       y2="16.664148"
       x2="61.584908"
       y1="10.505658"
       x1="67.381134"
       id="linearGradient4423"
       xlink:href="#linearGradient3090"
       inkscape:collect="always" />
    <linearGradient
       y2="15.383351"
       x2="61.584908"
       y1="10.505658"
       x1="67.381134"
       gradientUnits="userSpaceOnUse"
       id="linearGradient4425"
       xlink:href="#linearGradient3090"
       inkscape:collect="always" />
    <linearGradient
       y2="1041.1539"
       x2="47.645657"
       y1="965.78027"
       x1="47.645657"
       gradientTransform="translate(-1.7803955e-6,1.5390625e-5)"
       gradientUnits="userSpaceOnUse"
       id="linearGradient3056"
       xlink:href="#linearGradient3052"
       inkscape:collect="always" />
    <linearGradient
       y2="991.55096"
       x2="-76.455917"
       y1="999.32916"
       x1="-70.975845"
       gradientTransform="translate(111.89504,0)"
       gradientUnits="userSpaceOnUse"
       id="linearGradient4428"
       xlink:href="#linearGradient7717"
       inkscape:collect="always" />
    <linearGradient
       y2="50.686386"
       x2="56.040619"
       y1="50.686386"
       x1="18.139732"
       gradientTransform="matrix(0.76582827,0,0,0.69236263,-1.8721506,976.64382)"
       gradientUnits="userSpaceOnUse"
       id="linearGradient4430"
       xlink:href="#linearGradient7659"
       inkscape:collect="always" />
  </defs>
  <sodipodi:namedview
     id="base"
     pagecolor="#ffffff"
     bordercolor="#666666"
     borderopacity="1.0"
     inkscape:pageopacity="0.0"
     inkscape:pageshadow="2"
     inkscape:zoom="5.4375"
     inkscape:cx="25.188741"
     inkscape:cy="50.524639"
     inkscape:document-units="px"
     inkscape:current-layer="layer1"
     showgrid="false"
     inkscape:window-width="1366"
     inkscape:window-height="714"
     inkscape:window-x="0"
     inkscape:window-y="28"
     inkscape:window-maximized="1"
     showguides="true"
     inkscape:guide-bbox="true" />
  <metadata
     id="metadata7">
    <rdf:RDF>
      <cc:Work
         rdf:about="">
        <dc:format>image/svg+xml</dc:format>
        <dc:type
           rdf:resource="http://purl.org/dc/dcmitype/StillImage" />
        <dc:title />
      </cc:Work>
    </rdf:RDF>
  </metadata>
  <g
     inkscape:label="Layer 1"
     inkscape:groupmode="layer"
     id="layer1"
     transform="translate(0,-956.36218)">
    <flowRoot
       xml:space="preserve"
       id="flowRoot3114"
       style="fill:black;stroke:none;stroke-opacity:1;stroke-width:1px;stroke-linejoin:miter;stroke-linecap:butt;fill-opacity:1;font-family:Sans;font-style:normal;font-weight:normal;font-size:40px;line-height:125%;letter-spacing:0px;word-spacing:0px"><flowRegion
         id="flowRegion3116"><rect
           id="rect3118"
           width="70.710678"
           height="67.882248"
           x="13.788582"
           y="12.207847" /></flowRegion><flowPara
         id="flowPara3120" /></flowRoot>    <g
       id="g3033"
       transform="translate(0,-1.0000026)">
      <rect
         ry="10.595235"
         rx="10.595235"
         y="961.86218"
         x="3.5"
         height="89"
         width="89"
         id="rect3826"
         style="opacity:0.05;fill:#000000;fill-opacity:1;stroke:none" />
      <rect
         style="opacity:0.05;fill:#000000;fill-opacity:1;stroke:none"
         id="rect3824"
         width="88"
         height="88"
         x="4"
         y="962.36218"
         rx="10.476188"
         ry="10.476188" />
      <rect
         ry="10.357141"
         rx="10.357141"
         y="962.86218"
         x="4.5"
         height="87"
         width="87"
         id="rect3822"
         style="opacity:0.05;fill:#000000;fill-opacity:1;stroke:none" />
      <rect
         style="opacity:0.1;fill:#000000;fill-opacity:1;stroke:none"
         id="rect3820"
         width="86"
         height="86"
         x="5"
         y="963.36218"
         rx="10.238094"
         ry="10.238094" />
      <rect
         ry="10.119047"
         rx="10.119047"
         y="963.86218"
         x="5.5"
         height="85"
         width="85"
         id="rect3818"
         style="opacity:0.1;fill:#000000;fill-opacity:1;stroke:none" />
      <rect
         style="opacity:0.3;fill:#000000;fill-opacity:1;stroke:none"
         id="rect3131"
         width="84"
         height="84"
         x="6"
         y="964.36218"
         rx="10"
         ry="10" />
    </g>
    <path
       style="fill:#fafaf9;fill-opacity:1;stroke:none"
       d="M 16 6 C 10.46 6 6 10.46 6 16 L 6 72 L 6 80 C 6 85.54 10.46 90 16 90 L 80 90 C 85.54 90 90 85.54 90 80 L 90 72 L 90 16 C 90 10.46 85.54 6 80 6 L 16 6 z "
       id="rect3036"
       transform="translate(0,956.36218)" />
    <rect
       style="fill:url(#linearGradient3056);fill-opacity:1;stroke:none"
       id="rect3034"
       width="82"
       height="82"
       x="7"
       y="963.36218"
       rx="9.7619047"
       ry="9.7619047" />
    <flowRoot
       xml:space="preserve"
       id="flowRoot3114-8"
       style="font-style:normal;font-weight:normal;font-size:40px;line-height:125%;font-family:Sans;letter-spacing:0px;word-spacing:0px;fill:#000000;fill-opacity:1;stroke:none;stroke-width:1px;stroke-linecap:butt;stroke-linejoin:miter;stroke-opacity:1"
       transform="translate(-140.59035,146.87274)"><flowRegion
         id="flowRegion3116-0"><rect
           id="rect3118-6"
           width="70.710678"
           height="67.882248"
           x="13.788582"
           y="12.207847" /></flowRegion><flowPara
         id="flowPara3120-0" /></flowRoot>    <path
       inkscape:connector-curvature="0"
       id="path7782"
       d="m 31.667077,1021.1769 0.3125,0 0.1875,0 16.125,0 0,0.5 -16.125,0 0,3.5 -0.5,0 z"
       style="fill:#d3d7cf;fill-opacity:1;stroke:none"
       sodipodi:nodetypes="ccccccccc" />
    <g
       id="g4540"
       transform="matrix(0.89399036,0,0,0.89399036,6.8936436,111.94021)">
      <g
         transform="translate(-34.995738,29.834377)"
         id="text7790"
         style="font-style:normal;font-variant:normal;font-weight:normal;font-stretch:normal;font-size:4px;line-height:125%;font-family:Cantarell;-inkscape-font-specification:Cantarell;letter-spacing:0px;word-spacing:0px;fill:#4d4d4d;fill-opacity:1;stroke:none">
        <path
           id="path3193"
           style="font-weight:bold;-inkscape-font-specification:'Cantarell Bold'"
           d="m 49.764711,993.02002 0,0.448 1.428,0 -1.012,2.328 0.524,0 1.088,-2.484 0,-0.292 -2.028,0"
           inkscape:connector-curvature="0" />
        <path
           id="path3195"
           style="font-weight:bold;-inkscape-font-specification:'Cantarell Bold'"
           d="m 52.529336,993.02002 0,1.492 c 0.387999,-0.048 0.596,-0.06 0.728,-0.06 0.551999,0 0.676,0.268 0.676,0.448 0,0.188 -0.084,0.476 -0.684,0.476 -0.248,0 -0.468,-0.056 -0.724,-0.136 l -0.128,0.44 c 0.308,0.104 0.54,0.156 0.836,0.156 0.995999,0 1.204,-0.58 1.204,-0.9 0,-0.424 -0.228001,-0.932 -1.068,-0.932 -0.132,0 -0.26,0.008 -0.36,0.016 l 0,-0.548 1.236,0 0,-0.452 -1.716,0"
           inkscape:connector-curvature="0" />
        <path
           id="path3197"
           style="font-weight:bold;-inkscape-font-specification:'Cantarell Bold'"
           d="m 55.493961,993.40002 c 0.08,0 0.192,0.024 0.192,0.268 0,0.148 -0.04,0.292 -0.192,0.292 -0.156,0 -0.188,-0.152 -0.188,-0.3 0,-0.132 0.036,-0.26 0.188,-0.26 m 0,-0.348 c -0.28,0 -0.54,0.2 -0.54,0.608 0,0.484 0.268,0.64 0.54,0.64 0.327999,0 0.58,-0.24 0.58,-0.636 0,-0.496 -0.34,-0.612 -0.58,-0.612 m 1.416,1.796 c 0.08,0 0.192,0.024 0.192,0.268 0,0.148 -0.04,0.288 -0.192,0.288 -0.156,0 -0.192,-0.148 -0.192,-0.296 0,-0.132 0.04,-0.26 0.192,-0.26 m 0,-0.348 c -0.292,0 -0.576,0.2 -0.576,0.608 0,0.484 0.292,0.64 0.576,0.64 0.312,0 0.54,-0.24 0.54,-0.636 0,-0.488 -0.3,-0.612 -0.54,-0.612 m 0.104,-1.48 -2.156,2.776 0.528,0 2.156,-2.776 -0.528,0"
           inkscape:connector-curvature="0" />
      </g>
      <path
         id="path3108"
         d="m 14.660512,1027.4153 0,0.2187 0.6875,0 0,1.875 0.25,0 0,-1.875 0.6875,0 0,-0.2187 -1.625,0 z m 1.875,0.094 0,0.25 0.25,0 0,-0.25 -0.25,0 z m 18.8125,0 0,2 0.1875,0 0.0625,-0.094 c 0.129,0.084 0.26225,0.125 0.40625,0.125 0.444,0 0.65625,-0.318 0.65625,-0.75 0,-0.249 -0.08075,-0.4246 -0.21875,-0.5625 -0.132,-0.129 -0.27075,-0.1875 -0.46875,-0.1875 -0.117,0 -0.261,0.014 -0.375,0.062 l 0,-0.5938 -0.25,0 z m 4.84375,0 0,0.25 0.21875,0 0,-0.25 -0.21875,0 z m 5.5625,0 0,0.5938 c -0.114,-0.048 -0.22675,-0.062 -0.34375,-0.062 -0.198,0 -0.368,0.058 -0.5,0.1875 -0.138,0.1379 -0.1875,0.3135 -0.1875,0.5625 0,0.432 0.21225,0.75 0.65625,0.75 0.144,0 0.27725,-0.041 0.40625,-0.125 l 0.0625,0.094 0.15625,0 0,-2 -0.25,0 z m 3.28125,0 0,0.25 0.25,0 0,-0.25 -0.25,0 z m -15.53125,0.1875 0,0.375 -0.25,0 0,0.1875 0.25,0 0,0.8125 c 0,0.306 0.10625,0.4688 0.40625,0.4688 0.102,0 0.2015,-0.026 0.3125,-0.062 l 0,-0.1875 c -0.078,0.021 -0.163,0.031 -0.25,0.031 -0.186,0 -0.21875,-0.089 -0.21875,-0.2812 l 0,-0.7813 0.46875,0 0,-0.1875 -0.46875,0 0,-0.375 -0.25,0 z m -15.6875,0.3438 c -0.084,0 -0.172,0 -0.25,0.031 -0.264,0.111 -0.4375,0.381 -0.4375,0.75 0,0.189 0.041,0.3145 0.125,0.4375 0.111,0.162 0.28225,0.2813 0.53125,0.2813 0.143999,0 0.28325,-0.028 0.40625,-0.094 l 0,0.031 c 0,0.093 0.006,0.1767 0,0.2187 -0.03,0.2611 -0.228251,0.4063 -0.53125,0.4063 -0.105,0 -0.21775,-0.017 -0.34375,-0.062 l -0.0625,0.1562 c 0.12,0.054 0.2965,0.094 0.4375,0.094 0.221999,0 0.41425,-0.045 0.53125,-0.1563 0.143999,-0.138 0.21875,-0.2924 0.21875,-0.5625 l 0,-1.5 -0.1875,0 -0.03125,0.062 -0.0625,-0.031 c -0.12,-0.054 -0.23575,-0.062 -0.34375,-0.062 z m 1.5625,0 c -0.168,0 -0.31275,0.034 -0.46875,0.094 l 0,0.1875 c 0.123,-0.042 0.3145,-0.062 0.4375,-0.062 0.18,0 0.30175,0.042 0.34375,0.1563 0.018,0.048 0.03125,0.1137 0.03125,0.2187 l 0,0.031 c -0.222,0.01 -0.4185,0.026 -0.5625,0.062 -0.189,0.051 -0.34375,0.1662 -0.34375,0.4062 0,0.234 0.21675,0.4063 0.46875,0.4063 0.162,0 0.3025,-0.045 0.4375,-0.1563 l 0.0625,0.125 0.1875,0 0,-0.9375 c 0,-0.237 -0.06575,-0.3355 -0.21875,-0.4375 -0.081,-0.054 -0.207,-0.094 -0.375,-0.094 z m 2.4375,0 c -0.144,0 -0.27725,0.041 -0.40625,0.125 l -0.0625,-0.094 -0.15625,0 0,2.2188 0.25,0 0,-0.8125 c 0.114,0.048 0.22675,0.062 0.34375,0.062 0.197999,0 0.368,-0.059 0.5,-0.1875 0.137999,-0.135 0.1875,-0.3448 0.1875,-0.5938 0,-0.3 -0.08025,-0.496 -0.28125,-0.625 -0.102,-0.063 -0.231001,-0.094 -0.375,-0.094 z m 1.625,0 c -0.21,0 -0.383,0.069 -0.5,0.2187 -0.111,0.15 -0.15625,0.3465 -0.15625,0.5625 0,0.468 0.24775,0.7188 0.71875,0.7188 0.162,0 0.32175,-0.043 0.46875,-0.094 l 0,-0.1875 c -0.141,0.045 -0.28025,0.062 -0.40625,0.062 -0.183,0 -0.32225,-0.035 -0.40625,-0.125 -0.084,-0.09 -0.15325,-0.2058 -0.15625,-0.3437 l 1,0 0.03125,-0.031 0,-0.125 c 0,-0.417 -0.212751,-0.6562 -0.59375,-0.6562 z m 1.5625,0 c -0.141,0 -0.27725,0.057 -0.40625,0.1562 l -0.03125,-0.125 -0.1875,0 0,1.4375 0.25,0 0,-1.1562 c 0.105,-0.069 0.2165,-0.094 0.3125,-0.094 0.093,0 0.175,0 0.25,0.031 l 0.03125,0 0,-0.2188 c -0.063,-0.018 -0.14975,-0.031 -0.21875,-0.031 z m 1.90625,0 c -0.21,0 -0.383,0.069 -0.5,0.2187 -0.111,0.15 -0.15625,0.3465 -0.15625,0.5625 0,0.468 0.24775,0.7188 0.71875,0.7188 0.162,0 0.32175,-0.043 0.46875,-0.094 l 0,-0.1875 c -0.141,0.045 -0.28025,0.062 -0.40625,0.062 -0.183,0 -0.32225,-0.035 -0.40625,-0.125 -0.084,-0.09 -0.15325,-0.2058 -0.15625,-0.3437 l 1,0 0.03125,-0.031 0,-0.125 c 0,-0.417 -0.212751,-0.6562 -0.59375,-0.6562 z m 1.59375,0 c -0.063,0 -0.1155,0.01 -0.1875,0.031 -0.06,0.018 -0.151,0.031 -0.25,0.094 l -0.03125,-0.094 -0.1875,0 0,1.4375 0.25,0 0,-1.1562 c 0.129,-0.072 0.25075,-0.125 0.34375,-0.125 0.204,0 0.28125,0.1217 0.28125,0.3437 l 0,0.9375 0.25,0 0,-0.9687 c 0,-0.069 -0.01925,-0.1456 -0.03125,-0.1875 0.141,-0.084 0.24175,-0.125 0.34375,-0.125 0.201,0 0.3125,0.1217 0.3125,0.3437 l 0,0.9375 0.25,0 0,-0.9687 c 0,-0.291 -0.16575,-0.5 -0.46875,-0.5 -0.195,0 -0.353,0.085 -0.5,0.1875 -0.075,-0.108 -0.204,-0.1875 -0.375,-0.1875 z m 2.375,0 c -0.144,0 -0.27725,0.041 -0.40625,0.125 l -0.0625,-0.094 -0.15625,0 0,2.2188 0.21875,0 0,-0.8125 c 0.114,0.048 0.258,0.062 0.375,0.062 0.198,0 0.33675,-0.059 0.46875,-0.1875 0.138,-0.135 0.21875,-0.3448 0.21875,-0.5938 0,-0.3 -0.1115,-0.496 -0.3125,-0.625 -0.102,-0.063 -0.19975,-0.094 -0.34375,-0.094 z m 1.53125,0 c -0.168,0 -0.31275,0.034 -0.46875,0.094 l 0,0.1875 c 0.123,-0.042 0.3145,-0.062 0.4375,-0.062 0.18,0 0.30175,0.042 0.34375,0.1563 0.018,0.048 0.03125,0.1137 0.03125,0.2187 l 0,0.031 c -0.222,0.01 -0.4185,0.026 -0.5625,0.062 -0.189,0.051 -0.34375,0.1662 -0.34375,0.4062 0,0.234 0.21675,0.4063 0.46875,0.4063 0.162,0 0.3025,-0.045 0.4375,-0.1563 l 0.0625,0.125 0.1875,0 0,-0.9375 c 0,-0.237 -0.06575,-0.3355 -0.21875,-0.4375 -0.081,-0.054 -0.207,-0.094 -0.375,-0.094 z m 5.125,0 c -0.168,0 -0.344001,0.034 -0.5,0.094 l 0,0.1875 c 0.122999,-0.042 0.34575,-0.062 0.46875,-0.062 0.179999,0 0.2705,0.042 0.3125,0.1563 0.018,0.048 0.03125,0.1137 0.03125,0.2187 l 0,0.031 c -0.222,0.01 -0.387251,0.026 -0.53125,0.062 -0.189,0.051 -0.34375,0.1662 -0.34375,0.4062 0,0.234 0.1855,0.4063 0.4375,0.4063 0.161999,0 0.33375,-0.045 0.46875,-0.1563 l 0.03125,0.125 0.1875,0 0,-0.9375 c 0,-0.237 -0.0345,-0.3355 -0.1875,-0.4375 -0.081,-0.054 -0.207001,-0.094 -0.375,-0.094 z m 1.59375,0 c -0.084,0 -0.172001,0 -0.25,0.031 -0.264,0.111 -0.4375,0.381 -0.4375,0.75 0,0.189 0.041,0.3145 0.125,0.4375 0.110999,0.162 0.28225,0.2813 0.53125,0.2813 0.143999,0 0.28325,-0.028 0.40625,-0.094 l 0,0.031 c 0,0.093 -0.02525,0.1767 -0.03125,0.2187 -0.03,0.2611 -0.197001,0.4063 -0.5,0.4063 -0.105,0 -0.217751,-0.017 -0.34375,-0.062 l -0.0625,0.1562 c 0.119999,0.054 0.2965,0.094 0.4375,0.094 0.221999,0 0.41425,-0.045 0.53125,-0.1563 0.143999,-0.138 0.21875,-0.2924 0.21875,-0.5625 l 0,-1.5 -0.1875,0 -0.03125,0.062 -0.0625,-0.031 c -0.12,-0.054 -0.235751,-0.062 -0.34375,-0.062 z m 2.25,0 c -0.168,0 -0.344,0.034 -0.5,0.094 l 0,0.1875 c 0.123,-0.042 0.34575,-0.062 0.46875,-0.062 0.18,0 0.2705,0.042 0.3125,0.1563 0.018,0.048 0.03125,0.1137 0.03125,0.2187 l 0,0.031 c -0.222,0.01 -0.38725,0.026 -0.53125,0.062 -0.189,0.051 -0.375,0.1662 -0.375,0.4062 0,0.234 0.21675,0.4063 0.46875,0.4063 0.162,0 0.3025,-0.045 0.4375,-0.1563 l 0.0625,0.125 0.1875,0 0,-0.9375 c 0,-0.237 -0.0345,-0.3355 -0.1875,-0.4375 -0.081,-0.054 -0.207,-0.094 -0.375,-0.094 z m 1.71875,0 c -0.153,0 -0.34825,0.029 -0.53125,0.125 l -0.03125,-0.094 -0.1875,0 0,1.4375 0.25,0 0,-1.1562 c 0.147,-0.069 0.29225,-0.125 0.40625,-0.125 0.234,0 0.3125,0.1037 0.3125,0.3437 l 0,0.9375 0.25,0 0,-0.9687 c 0,-0.3061 -0.15675,-0.5 -0.46875,-0.5 z m 3.84375,0 c -0.168,0 -0.312751,0.034 -0.46875,0.094 l 0,0.1875 c 0.122999,-0.042 0.3145,-0.062 0.4375,-0.062 0.179999,0 0.30175,0.042 0.34375,0.1563 0.018,0.048 0.03125,0.1137 0.03125,0.2187 l 0,0.031 c -0.222,0.01 -0.418501,0.026 -0.5625,0.062 -0.189,0.051 -0.34375,0.1662 -0.34375,0.4062 0,0.234 0.21675,0.4063 0.46875,0.4063 0.161999,0 0.3025,-0.045 0.4375,-0.1563 l 0.0625,0.125 0.1875,0 0,-0.9375 c 0,-0.237 -0.06575,-0.3355 -0.21875,-0.4375 -0.081,-0.054 -0.207001,-0.094 -0.375,-0.094 z m 1.625,0 c -0.141,0 -0.277251,0.057 -0.40625,0.1562 l -0.03125,-0.125 -0.1875,0 0,1.4375 0.25,0 0,-1.1562 c 0.104999,-0.069 0.2165,-0.094 0.3125,-0.094 0.093,0 0.14375,0 0.21875,0.031 l 0.03125,0 0,-0.2188 c -0.063,-0.018 -0.118501,-0.031 -0.1875,-0.031 z m -32.03125,0.031 0,1.4375 0.25,0 0,-1.4375 -0.25,0 z m 23.65625,0 0,1.4375 0.21875,0 0,-1.4375 -0.21875,0 z m 8.84375,0 0,1.4375 0.25,0 0,-1.4375 -0.25,0 z m -31.1875,0.1563 c 0.099,0 0.21775,0.043 0.34375,0.094 l 0,0.9375 c -0.093,0.051 -0.21775,0.094 -0.34375,0.094 -0.315,0 -0.46875,-0.2506 -0.46875,-0.5625 0,-0.3151 0.15675,-0.5625 0.46875,-0.5625 z m 3.90625,0 c 0.314999,0 0.46875,0.2384 0.46875,0.5625 0,0.3209 -0.159751,0.5625 -0.46875,0.5625 -0.111,0 -0.2075,-0.017 -0.3125,-0.062 l 0,-0.9688 c 0.102,-0.057 0.1655,-0.094 0.3125,-0.094 z m 1.6875,0 c 0.225,0 0.34375,0.2004 0.34375,0.4375 l -0.75,0 c 0.027,-0.231 0.12725,-0.4375 0.40625,-0.4375 z m 3.46875,0 c 0.225,0 0.34375,0.2004 0.34375,0.4375 l -0.75,0 c 0.027,-0.231 0.12725,-0.4375 0.40625,-0.4375 z m 3.90625,0 c 0.315,0 0.46875,0.2384 0.46875,0.5625 0,0.3209 -0.15975,0.5625 -0.46875,0.5625 -0.111,0 -0.23875,-0.017 -0.34375,-0.062 l 0,-0.9688 c 0.102,-0.057 0.19675,-0.094 0.34375,-0.094 z m 5.125,0 c 0.315,0 0.46875,0.2384 0.46875,0.5625 0,0.324 -0.15075,0.5312 -0.46875,0.5312 -0.147,0 -0.24175,-0.037 -0.34375,-0.094 l 0,-0.9375 c 0.105,-0.045 0.22975,-0.062 0.34375,-0.062 z m 3.21875,0 c 0.099,0 0.21775,0.043 0.34375,0.094 l 0,0.9375 c -0.093,0.051 -0.217751,0.094 -0.34375,0.094 -0.315,0 -0.46875,-0.2506 -0.46875,-0.5625 0,-0.3151 0.15675,-0.5625 0.46875,-0.5625 z m 6.28125,0 c 0.114,0 0.2075,0.017 0.3125,0.062 l 0,0.9375 c -0.102,0.057 -0.1655,0.094 -0.3125,0.094 -0.318,0 -0.46875,-0.2072 -0.46875,-0.5312 0,-0.321 0.14775,-0.5625 0.46875,-0.5625 z m -25.71875,0.5937 0,0.3438 c -0.105,0.102 -0.23225,0.1875 -0.40625,0.1875 -0.036,0 -0.06675,-0.019 -0.09375,-0.031 -0.084,-0.039 -0.15625,-0.1167 -0.15625,-0.2187 0,-0.036 0.01025,-0.058 0.03125,-0.094 0.048,-0.078 0.10775,-0.1323 0.21875,-0.1562 0.06,-0.012 0.20825,-0.025 0.40625,-0.031 z m 13.03125,0 0,0.3438 c -0.105,0.102 -0.23225,0.1875 -0.40625,0.1875 -0.036,0 -0.06675,-0.019 -0.09375,-0.031 -0.084,-0.039 -0.15625,-0.1167 -0.15625,-0.2187 0,-0.036 0.01025,-0.058 0.03125,-0.094 0.048,-0.078 0.10775,-0.1323 0.21875,-0.1562 0.06,-0.012 0.20825,-0.025 0.40625,-0.031 z m 5.09375,0 0,0.3438 c -0.105,0.102 -0.201001,0.1875 -0.375,0.1875 -0.036,0 -0.098,-0.019 -0.125,-0.031 -0.084,-0.039 -0.15625,-0.1167 -0.15625,-0.2187 0,-0.036 0.01025,-0.058 0.03125,-0.094 0.048,-0.078 0.139,-0.1323 0.25,-0.1562 0.06,-0.012 0.177,-0.025 0.375,-0.031 z m 3.84375,0 0,0.3438 c -0.105,0.102 -0.23225,0.1875 -0.40625,0.1875 -0.036,0 -0.06675,-0.019 -0.09375,-0.031 -0.084,-0.039 -0.15625,-0.1167 -0.15625,-0.2187 0,-0.036 0.01025,-0.058 0.03125,-0.094 0.048,-0.078 0.139,-0.1323 0.25,-0.1562 0.06,-0.012 0.177,-0.025 0.375,-0.031 z m 5.59375,0 0,0.3438 c -0.105,0.102 -0.232251,0.1875 -0.40625,0.1875 -0.036,0 -0.06675,-0.019 -0.09375,-0.031 -0.084,-0.039 -0.15625,-0.1167 -0.15625,-0.2187 0,-0.036 0.01025,-0.058 0.03125,-0.094 0.048,-0.078 0.139,-0.1323 0.25,-0.1562 0.06,-0.012 0.177,-0.025 0.375,-0.031 z m -32.4375,2.4375 0,2 0.25,0 0,-2 -0.25,0 z m 5.9375,0 0,1.6875 c 0.003,0.204 0.1235,0.3438 0.3125,0.3438 0.141,0 0.2615,-0.044 0.3125,-0.062 l 0,-0.1875 c -0.066,0.021 -0.1305,0.031 -0.1875,0.031 -0.186,0 -0.1875,-0.1077 -0.1875,-0.2187 l 0,-1.5938 -0.25,0 z m 5.25,0 0,2 0.25,0 0,-1.1875 c 0.146999,-0.072 0.261,-0.094 0.375,-0.094 0.236999,0 0.3125,0.1037 0.3125,0.3437 l 0,0.9375 0.25,0 0,-1 c 0,-0.306 -0.165751,-0.5 -0.46875,-0.5 -0.15,0 -0.294751,0.069 -0.46875,0.1563 l 0,-0.6563 -0.25,0 z m 15.53125,0 0,0.5938 c -0.114,-0.048 -0.226751,-0.062 -0.34375,-0.062 -0.198,0 -0.368001,0.058 -0.5,0.1875 -0.138,0.1379 -0.21875,0.3135 -0.21875,0.5625 0,0.432 0.2435,0.75 0.6875,0.75 0.143999,0 0.27725,-0.041 0.40625,-0.125 l 0.03125,0.094 0.1875,0 0,-2 -0.25,0 z m -24.65625,0.5313 c -0.21,0 -0.35175,0.069 -0.46875,0.2187 -0.111,0.15 -0.1875,0.3465 -0.1875,0.5625 0,0.468 0.279001,0.7188 0.75,0.7188 0.162,0 0.2905,-0.043 0.4375,-0.094 l 0,-0.1875 c -0.141,0.045 -0.249,0.062 -0.375,0.062 -0.183,0 -0.32225,-0.035 -0.40625,-0.125 -0.084,-0.09 -0.15325,-0.2058 -0.15625,-0.3437 l 1,0 0,-0.031 0,-0.125 c 0,-0.417 -0.21275,-0.6562 -0.59375,-0.6562 z m 1.5,0 c -0.108,0 -0.2195,0.026 -0.3125,0.062 -0.143999,0.057 -0.28125,0.1457 -0.28125,0.3437 0,0.228 0.195501,0.321 0.3125,0.375 l 0.25,0.062 c 0.072,0.027 0.1395,0.092 0.1875,0.125 0.057,0.039 0.09375,0.068 0.09375,0.125 0,0.144 -0.18475,0.1875 -0.34375,0.1875 -0.176999,0 -0.338,-0.031 -0.5,-0.094 l 0,0.2187 c 0.132,0.057 0.309251,0.094 0.53125,0.094 0.222,0 0.36975,-0.062 0.46875,-0.1875 0.051,-0.063 0.09375,-0.1408 0.09375,-0.2188 0,-0.093 -0.03075,-0.181 -0.09375,-0.25 -0.054,-0.06 -0.08325,-0.084 -0.28125,-0.1562 l -0.25,-0.094 c -0.066,-0.024 -0.104,-0.047 -0.125,-0.062 -0.051,-0.033 -0.09375,-0.069 -0.09375,-0.1562 0,-0.03 0.0295,-0.064 0.0625,-0.094 0.078,-0.072 0.180501,-0.094 0.3125,-0.094 0.186,0 0.309,0.095 0.375,0.125 l 0,-0.1875 c -0.131999,-0.063 -0.22325,-0.1221 -0.40625,-0.125 z m 1.4375,0 c -0.21,0 -0.383,0.069 -0.5,0.2187 -0.111,0.15 -0.15625,0.3465 -0.15625,0.5625 0,0.468 0.24775,0.7188 0.71875,0.7188 0.161999,0 0.32175,-0.043 0.46875,-0.094 l 0,-0.1875 c -0.141,0.045 -0.28025,0.062 -0.40625,0.062 -0.183,0 -0.32225,-0.035 -0.40625,-0.125 -0.084,-0.09 -0.122,-0.2058 -0.125,-0.3437 l 1,0 0,-0.031 0,-0.125 c 0,-0.417 -0.212751,-0.6562 -0.59375,-0.6562 z m 4.0625,0 c -0.141,0 -0.27725,0.057 -0.40625,0.1562 l -0.0625,-0.125 -0.15625,0 0,1.4375 0.25,0 0,-1.1562 c 0.105,-0.069 0.18525,-0.094 0.28125,-0.094 0.093,0 0.175,0 0.25,0.031 l 0.03125,0 0,-0.2188 c -0.063,-0.018 -0.1185,-0.031 -0.1875,-0.031 z m 4.25,0 c -0.168,0 -0.344001,0.034 -0.5,0.094 l 0,0.1875 c 0.122999,-0.042 0.34575,-0.062 0.46875,-0.062 0.179999,0 0.2705,0.042 0.3125,0.1563 0.018,0.048 0.03125,0.1137 0.03125,0.2187 l 0,0.031 c -0.222,0.01 -0.387251,0.026 -0.53125,0.062 -0.189,0.051 -0.34375,0.1662 -0.34375,0.4062 0,0.234 0.1855,0.4063 0.4375,0.4063 0.161999,0 0.33375,-0.045 0.46875,-0.1563 l 0.03125,0.125 0.1875,0 0,-0.9375 c 0,-0.237 -0.0345,-0.3355 -0.1875,-0.4375 -0.081,-0.054 -0.207001,-0.094 -0.375,-0.094 z m 1.71875,0 c -0.153,0 -0.348251,0.029 -0.53125,0.125 l -0.03125,-0.094 -0.1875,0 0,1.4375 0.25,0 0,-1.1562 c 0.146999,-0.069 0.29225,-0.125 0.40625,-0.125 0.233999,0 0.3125,0.1037 0.3125,0.3437 l 0,0.9375 0.25,0 0,-0.9687 c 0,-0.3061 -0.156751,-0.5 -0.46875,-0.5 z m 2.3125,0 c -0.141,0 -0.27725,0.057 -0.40625,0.1562 l -0.03125,-0.125 -0.1875,0 0,1.4375 0.25,0 0,-1.1562 c 0.105,-0.069 0.2165,-0.094 0.3125,-0.094 0.093,0 0.175,0 0.25,0.031 l 0.03125,0 0,-0.2188 c -0.063,-0.018 -0.14975,-0.031 -0.21875,-0.031 z m 1.0625,0 c -0.209999,0 -0.35175,0.069 -0.46875,0.2187 -0.111,0.15 -0.15625,0.3465 -0.15625,0.5625 0,0.468 0.247751,0.7188 0.71875,0.7188 0.162,0 0.321751,-0.043 0.46875,-0.094 l 0,-0.1875 c -0.140999,0.045 -0.28025,0.062 -0.40625,0.062 -0.182999,0 -0.32225,-0.035 -0.40625,-0.125 -0.084,-0.09 -0.15325,-0.2058 -0.15625,-0.3437 l 1,0 0,-0.031 0,-0.125 c 0,-0.417 -0.21275,-0.6562 -0.59375,-0.6562 z m 1.5,0 c -0.108,0 -0.2195,0.026 -0.3125,0.062 -0.144,0.057 -0.25,0.1457 -0.25,0.3437 0,0.228 0.1955,0.321 0.3125,0.375 l 0.21875,0.062 c 0.072,0.027 0.1395,0.092 0.1875,0.125 0.057,0.039 0.09375,0.068 0.09375,0.125 0,0.144 -0.153501,0.1875 -0.3125,0.1875 -0.177,0 -0.369251,-0.031 -0.53125,-0.094 l 0,0.2187 c 0.132,0.057 0.30925,0.094 0.53125,0.094 0.221999,0 0.401,-0.062 0.5,-0.1875 0.051,-0.063 0.0625,-0.1408 0.0625,-0.2188 0,-0.093 -0.03075,-0.181 -0.09375,-0.25 -0.054,-0.06 -0.08325,-0.084 -0.28125,-0.1562 l -0.21875,-0.094 c -0.066,-0.024 -0.13525,-0.047 -0.15625,-0.062 -0.051,-0.033 -0.0625,-0.069 -0.0625,-0.1562 0,-0.03 -0.0018,-0.064 0.03125,-0.094 0.078,-0.072 0.1805,-0.094 0.3125,-0.094 0.185999,0 0.309,0.095 0.375,0.125 l 0,-0.1875 c -0.132,-0.063 -0.223251,-0.1221 -0.40625,-0.125 z m 1.5,0 c -0.144,0 -0.27725,0.041 -0.40625,0.125 l -0.0625,-0.094 -0.1875,0 0,2.2188 0.25,0 0,-0.8125 c 0.114,0.048 0.258,0.062 0.375,0.062 0.198,0 0.33675,-0.059 0.46875,-0.1875 0.138,-0.135 0.21875,-0.3448 0.21875,-0.5938 0,-0.3 -0.1115,-0.496 -0.3125,-0.625 -0.102,-0.063 -0.19975,-0.094 -0.34375,-0.094 z m 1.65625,0 c -0.444,0 -0.71875,0.297 -0.71875,0.75 0,0.45 0.27475,0.75 0.71875,0.75 0.444,0 0.6875,-0.3 0.6875,-0.75 0,-0.453 -0.2405,-0.75 -0.6875,-0.75 z m 1.78125,0 c -0.152999,0 -0.317,0.029 -0.5,0.125 l -0.0625,-0.094 -0.15625,0 0,1.4375 0.25,0 0,-1.1562 c 0.147,-0.069 0.261001,-0.125 0.375,-0.125 0.234,0 0.3125,0.1037 0.3125,0.3437 l 0,0.9375 0.25,0 0,-0.9687 c 0,-0.3061 -0.15675,-0.5 -0.46875,-0.5 z m 3.125,0 c -0.21,0 -0.383,0.069 -0.5,0.2187 -0.111,0.15 -0.15625,0.3465 -0.15625,0.5625 0,0.468 0.247751,0.7188 0.71875,0.7188 0.162,0 0.32175,-0.043 0.46875,-0.094 l 0,-0.1875 c -0.141,0.045 -0.28025,0.062 -0.40625,0.062 -0.183,0 -0.32225,-0.035 -0.40625,-0.125 -0.084,-0.09 -0.122,-0.2058 -0.125,-0.3437 l 0.96875,0 0.03125,-0.031 0,-0.125 c 0,-0.417 -0.21275,-0.6562 -0.59375,-0.6562 z m 1.6875,0 c -0.153,0 -0.348251,0.029 -0.53125,0.125 l -0.03125,-0.094 -0.1875,0 0,1.4375 0.25,0 0,-1.1562 c 0.146999,-0.069 0.29225,-0.125 0.40625,-0.125 0.233999,0 0.3125,0.1037 0.3125,0.3437 l 0,0.9375 0.25,0 0,-0.9687 c 0,-0.3061 -0.156751,-0.5 -0.46875,-0.5 z m -28.75,0.031 -0.625,0.625 0.65625,0.8125 0.28125,0 -0.65625,-0.8125 0.625,-0.625 -0.28125,0 z m 5.875,0 0,0.9688 c 0,0.306 0.188,0.5 0.5,0.5 0.153,0 0.317,-0.06 0.5,-0.1563 l 0.0625,0.125 0.15625,0 0,-1.4375 -0.25,0 0,1.1563 c -0.147,0.069 -0.261,0.094 -0.375,0.094 -0.234,0 -0.34375,-0.1037 -0.34375,-0.3437 l 0,-0.9063 -0.25,0 z m 2.75,0 0,0.9688 c 0,0.306 0.156751,0.5 0.46875,0.5 0.153,0 0.348251,-0.06 0.53125,-0.1563 l 0.03125,0.125 0.1875,0 0,-1.4375 -0.25,0 0,1.1563 c -0.146999,0.069 -0.29225,0.094 -0.40625,0.094 -0.233999,0 -0.3125,-0.1037 -0.3125,-0.3437 l 0,-0.9063 -0.25,0 z m -7.4375,0.1563 c 0.225,0 0.3125,0.2004 0.3125,0.4375 l -0.75,0 c 0.027,-0.231 0.1585,-0.4375 0.4375,-0.4375 z m 2.9375,0 c 0.224999,0 0.3125,0.2004 0.3125,0.4375 l -0.75,0 c 0.027,-0.231 0.1585,-0.4375 0.4375,-0.4375 z m 13.40625,0 c 0.225,0 0.34375,0.2004 0.34375,0.4375 l -0.78125,0 c 0.027,-0.231 0.158501,-0.4375 0.4375,-0.4375 z m 2.90625,0 c 0.315,0 0.46875,0.2384 0.46875,0.5625 0,0.3209 -0.15975,0.5625 -0.46875,0.5625 -0.111,0 -0.23875,-0.017 -0.34375,-0.062 l 0,-0.9688 c 0.102,-0.057 0.19675,-0.094 0.34375,-0.094 z m 1.71875,0 c 0.294,0 0.4375,0.2535 0.4375,0.5625 0,0.3089 -0.1405,0.5625 -0.4375,0.5625 -0.294,0 -0.4375,-0.2565 -0.4375,-0.5625 0,-0.3061 0.1465,-0.5625 0.4375,-0.5625 z m 3.3125,0 c 0.113999,0 0.23875,0.017 0.34375,0.062 l 0,0.9375 c -0.102,0.057 -0.196751,0.094 -0.34375,0.094 -0.318,0 -0.46875,-0.2072 -0.46875,-0.5312 0,-0.321 0.14775,-0.5625 0.46875,-0.5625 z m 1.625,0 c 0.225,0 0.3125,0.2004 0.3125,0.4375 l -0.75,0 c 0.027,-0.231 0.158501,-0.4375 0.4375,-0.4375 z m -14.375,0.5937 0,0.3438 c -0.105,0.102 -0.201001,0.1875 -0.375,0.1875 -0.036,0 -0.098,-0.023 -0.125,-0.031 -0.084,-0.039 -0.15625,-0.1167 -0.15625,-0.2187 0,-0.036 0.01025,-0.058 0.03125,-0.094 0.048,-0.078 0.139,-0.1323 0.25,-0.1562 0.06,-0.012 0.177,-0.025 0.375,-0.031 z"
         style="font-style:normal;font-variant:normal;font-weight:normal;font-stretch:normal;font-size:3px;line-height:125%;font-family:Cantarell;-inkscape-font-specification:Cantarell;letter-spacing:0px;word-spacing:0px;fill:#4d4d4d;fill-opacity:0.83921569;stroke:none"
         inkscape:connector-curvature="0" />
    </g>
    <g
       id="g4547"
       transform="translate(0,0.78025576)">
      <g
         transform="translate(0,-1.0000026)"
         id="g4511">
        <rect
           ry="0"
           rx="0"
           y="980.86218"
           x="20"
           height="36"
           width="12.860938"
           id="rect17379"
           style="fill:#cccec9;fill-opacity:1;stroke:none" />
        <rect
           style="opacity:0.3;fill:#cccfc9;fill-opacity:1;stroke:none"
           id="rect18868"
           width="56"
           height="6"
           x="20"
           y="1010.8622"
           rx="0"
           ry="0" />
        <rect
           style="fill:#98b8d8;fill-opacity:1;stroke:none"
           id="rect16609"
           width="56"
           height="6.5"
           x="20"
           y="980.86218"
           rx="0"
           ry="0" />
        <path
           inkscape:connector-curvature="0"
           style="font-style:normal;font-variant:normal;font-weight:normal;font-stretch:normal;font-size:4px;line-height:125%;font-family:Cantarell;-inkscape-font-specification:Cantarell;letter-spacing:0px;word-spacing:0px;fill:#ffffff;fill-opacity:1;stroke:none"
           d="m 22.84375,982.45019 0,1.96875 c 0,0.088 0.012,0.1395 0,0.1875 -0.056,0.224 -0.2745,0.375 -0.5625,0.375 -0.088,0 -0.18125,-0.0385 -0.28125,-0.0625 l -0.0625,0.28125 c 0.132,0.032 0.28225,0.0625 0.40625,0.0625 0.292,0 0.50425,-0.086 0.65625,-0.25 0.148,-0.156 0.1875,-0.325 0.1875,-0.625 l 0,-1.9375 -0.34375,0 z m 12.3125,0 0,2.78125 0.34375,0 0,-1.28125 1.15625,0 0,-0.3125 -1.15625,0 0,-0.90625 1.25,0 0,-0.28125 -1.59375,0 z m 20.0625,0 0,2.78125 0.34375,0 0,-1.15625 c 0.116,0.008 0.23975,0 0.34375,0 0.232,0 0.51225,-0.0145 0.65625,-0.0625 0.296,-0.1 0.488,-0.382 0.5,-0.75 0,-0.392 -0.176,-0.642 -0.5,-0.75 -0.068,-0.02 -0.16475,-0.0625 -0.46875,-0.0625 l -0.875,0 z m -27.25,0.0937 0,0.34375 0.3125,0 0,-0.34375 -0.3125,0 z m 12.8125,0 0,2.6875 0.34375,0 0,-2.6875 -0.34375,0 z m 10.21875,0 0,0.34375 0.3125,0 0,-0.34375 -0.3125,0 z m 4.5625,0.1875 0.375,0 c 0.18,0 0.29175,0.0232 0.34375,0.0312 0.276,0.028 0.46875,0.2 0.46875,0.5 0,0.488 -0.391751,0.53125 -0.84375,0.53125 -0.104,0 -0.21175,-0.0193 -0.34375,-0.0312 l 0,-1.03125 z m 12,0.0625 -0.34375,0.0312 0,0.46875 -0.3125,0 0,0.28125 0.3125,0 0,1.0625 c 0,0.408 0.1625,0.625 0.5625,0.625 0.136,0 0.25825,-0.0145 0.40625,-0.0625 l 0,-0.25 c -0.104,0.028 -0.1965,0.0312 -0.3125,0.0312 -0.248,0 -0.3125,-0.119 -0.3125,-0.375 l 0,-1.03125 0.625,0 0,-0.28125 -0.625,0 0,-0.5 z m -43.03125,0.46875 c -0.28,0 -0.469,0.1125 -0.625,0.3125 -0.148,0.2 -0.21875,0.43075 -0.21875,0.71875 0,0.624 0.340751,0.96875 0.96875,0.96875 0.216,0 0.39775,-0.0258 0.59375,-0.0937 l 0,-0.28125 c -0.188,0.06 -0.36325,0.0937 -0.53125,0.0937 -0.244,0 -0.41925,-0.0362 -0.53125,-0.15625 -0.112,-0.12 -0.1835,-0.28475 -0.1875,-0.46875 l 1.3125,0 0.03125,-0.0312 0,-0.1875 c 0,-0.556 -0.304501,-0.875 -0.8125,-0.875 z m 2.25,0 c -0.204,0 -0.4435,0.0595 -0.6875,0.1875 l -0.0625,-0.15625 -0.21875,0 0,1.9375 0.34375,0 0,-1.5625 c 0.196,-0.092 0.37925,-0.125 0.53125,-0.125 0.312,0 0.40625,0.14875 0.40625,0.46875 l 0,1.21875 0.34375,0 0,-1.3125 c 0,-0.408 -0.240251,-0.65625 -0.65625,-0.65625 z m 2.78125,0 c -0.144,0 -0.28225,0.0457 -0.40625,0.0937 -0.192,0.076 -0.34375,0.20475 -0.34375,0.46875 0,0.304 0.25025,0.39675 0.40625,0.46875 l 0.3125,0.125 c 0.096,0.036 0.186,0.081 0.25,0.125 0.076,0.052 0.125,0.1115 0.125,0.1875 0,0.192 -0.2255,0.25 -0.4375,0.25 -0.236,0 -0.4715,-0.041 -0.6875,-0.125 l 0,0.3125 c 0.176,0.076 0.42275,0.0937 0.71875,0.0937 0.296,0 0.493,-0.082 0.625,-0.25 0.068,-0.084 0.125,-0.2085 0.125,-0.3125 0,-0.124 -0.041,-0.18925 -0.125,-0.28125 -0.072,-0.08 -0.14225,-0.154 -0.40625,-0.25 l -0.28125,-0.125 c -0.088,-0.032 -0.1595,-0.0425 -0.1875,-0.0625 -0.068,-0.044 -0.125,-0.0715 -0.125,-0.1875 0,-0.04 0.04975,-0.085 0.09375,-0.125 0.104,-0.096 0.23025,-0.125 0.40625,-0.125 0.248,0 0.412,0.11625 0.5,0.15625 l 0,-0.28125 c -0.176,-0.084 -0.28725,-0.15225 -0.53125,-0.15625 l -0.03125,0 z m 8.5,0 c -0.187999,0 -0.35925,0.0555 -0.53125,0.1875 l -0.0625,-0.15625 -0.25,0 0,1.9375 0.34375,0 0,-1.53125 c 0.14,-0.092 0.278251,-0.15625 0.40625,-0.15625 0.124,0 0.2125,0.0225 0.3125,0.0625 l 0.0625,0 0,-0.3125 c -0.084,-0.024 -0.18925,-0.0312 -0.28125,-0.0312 z m 1.4375,0 c -0.279999,0 -0.50025,0.1125 -0.65625,0.3125 -0.147999,0.2 -0.21875,0.43075 -0.21875,0.71875 0,0.624 0.340751,0.96875 0.96875,0.96875 0.216,0 0.429001,-0.0258 0.625,-0.0937 l 0,-0.28125 c -0.187999,0.06 -0.36325,0.0937 -0.53125,0.0937 -0.243999,0 -0.4505,-0.0362 -0.5625,-0.15625 -0.112,-0.12 -0.1835,-0.28475 -0.1875,-0.46875 l 1.3125,0 0.03125,-0.0312 0,-0.1875 c 0,-0.556 -0.27325,-0.875 -0.78125,-0.875 z m 6.21875,0 c -0.28,0 -0.50025,0.1125 -0.65625,0.3125 -0.148,0.2 -0.21875,0.43075 -0.21875,0.71875 0,0.624 0.340751,0.96875 0.96875,0.96875 0.216,0 0.429,-0.0258 0.625,-0.0937 l 0,-0.28125 c -0.188,0.06 -0.36325,0.0937 -0.53125,0.0937 -0.244,0 -0.4505,-0.0362 -0.5625,-0.15625 -0.112,-0.12 -0.1835,-0.28475 -0.1875,-0.46875 l 1.34375,0 0,-0.0312 0,-0.1875 c 0,-0.556 -0.273251,-0.875 -0.78125,-0.875 z m 2.25,0 c -0.204,0 -0.4435,0.0595 -0.6875,0.1875 l -0.0625,-0.15625 -0.25,0 0,1.9375 0.34375,0 0,-1.5625 c 0.196,-0.092 0.37925,-0.125 0.53125,-0.125 0.312,0 0.40625,0.14875 0.40625,0.46875 l 0,1.21875 0.34375,0 0,-1.3125 c 0,-0.408 -0.209001,-0.65625 -0.625,-0.65625 z m 1.875,0 c -0.143999,0 -0.28225,0.0457 -0.40625,0.0937 -0.191999,0.076 -0.34375,0.20475 -0.34375,0.46875 0,0.304 0.250251,0.39675 0.40625,0.46875 l 0.28125,0.125 c 0.096,0.036 0.21725,0.081 0.28125,0.125 0.076,0.052 0.09375,0.1115 0.09375,0.1875 0,0.192 -0.19425,0.25 -0.40625,0.25 -0.235999,0 -0.4715,-0.041 -0.6875,-0.125 l 0,0.3125 c 0.176,0.076 0.422751,0.0937 0.71875,0.0937 0.296,0 0.493001,-0.082 0.625,-0.25 0.068,-0.084 0.09375,-0.2085 0.09375,-0.3125 0,-0.124 -0.0097,-0.18925 -0.09375,-0.28125 -0.072,-0.08 -0.14225,-0.154 -0.40625,-0.25 l -0.28125,-0.125 c -0.088,-0.032 -0.1595,-0.0425 -0.1875,-0.0625 -0.068,-0.044 -0.125,-0.0715 -0.125,-0.1875 0,-0.04 0.0185,-0.085 0.0625,-0.125 0.104,-0.096 0.261501,-0.125 0.4375,-0.125 0.248,0 0.412,0.11625 0.5,0.15625 l 0,-0.28125 c -0.175999,-0.084 -0.28725,-0.15225 -0.53125,-0.15625 l -0.03125,0 z m 8.46875,0 c -0.279999,0 -0.50025,0.1125 -0.65625,0.3125 -0.147999,0.2 -0.21875,0.43075 -0.21875,0.71875 0,0.624 0.340751,0.96875 0.96875,0.96875 0.216,0 0.429001,-0.0258 0.625,-0.0937 l 0,-0.28125 c -0.187999,0.06 -0.36325,0.0937 -0.53125,0.0937 -0.243999,0 -0.4505,-0.0362 -0.5625,-0.15625 -0.112,-0.12 -0.1835,-0.28475 -0.1875,-0.46875 l 1.3125,0 0.03125,-0.0312 0,-0.1875 c 0,-0.556 -0.27325,-0.875 -0.78125,-0.875 z m 2.09375,0 c -0.187999,0 -0.35925,0.0555 -0.53125,0.1875 l -0.0625,-0.15625 -0.25,0 0,1.9375 0.34375,0 0,-1.53125 c 0.14,-0.092 0.278251,-0.15625 0.40625,-0.15625 0.124,0 0.2125,0.0225 0.3125,0.0625 l 0.0625,0 0,-0.3125 c -0.084,-0.024 -0.18925,-0.0312 -0.28125,-0.0312 z m 1.375,0 c -0.143999,0 -0.28225,0.0457 -0.40625,0.0937 -0.191999,0.076 -0.375,0.20475 -0.375,0.46875 0,0.304 0.250251,0.39675 0.40625,0.46875 l 0.3125,0.125 c 0.096,0.036 0.186,0.081 0.25,0.125 0.076,0.052 0.125,0.1115 0.125,0.1875 0,0.192 -0.2255,0.25 -0.4375,0.25 -0.235999,0 -0.44025,-0.041 -0.65625,-0.125 l 0,0.3125 c 0.176,0.076 0.391501,0.0937 0.6875,0.0937 0.296,0 0.524251,-0.082 0.65625,-0.25 0.068,-0.084 0.09375,-0.2085 0.09375,-0.3125 0,-0.124 -0.041,-0.18925 -0.125,-0.28125 -0.072,-0.08 -0.111,-0.154 -0.375,-0.25 l -0.3125,-0.125 c -0.088,-0.032 -0.1595,-0.0425 -0.1875,-0.0625 -0.068,-0.044 -0.09375,-0.0715 -0.09375,-0.1875 0,-0.04 0.0185,-0.085 0.0625,-0.125 0.104,-0.096 0.230251,-0.125 0.40625,-0.125 0.248,0 0.412,0.11625 0.5,0.15625 l 0,-0.28125 c -0.175999,-0.084 -0.28725,-0.15225 -0.53125,-0.15625 z m 1.90625,0 c -0.279999,0 -0.50025,0.1125 -0.65625,0.3125 -0.147999,0.2 -0.21875,0.43075 -0.21875,0.71875 0,0.624 0.340751,0.96875 0.96875,0.96875 0.216,0 0.429001,-0.0258 0.625,-0.0937 l 0,-0.28125 c -0.187999,0.06 -0.36325,0.0937 -0.53125,0.0937 -0.243999,0 -0.41925,-0.0362 -0.53125,-0.15625 -0.112,-0.12 -0.1835,-0.28475 -0.1875,-0.46875 l 1.3125,0 0.03125,-0.0312 0,-0.1875 c 0,-0.556 -0.3045,-0.875 -0.8125,-0.875 z m 2.25,0 c -0.203999,0 -0.4435,0.0595 -0.6875,0.1875 l -0.0625,-0.15625 -0.21875,0 0,1.9375 0.3125,0 0,-1.5625 c 0.196,-0.092 0.379251,-0.125 0.53125,-0.125 0.312,0 0.4375,0.14875 0.4375,0.46875 l 0,1.21875 0.3125,0 0,-1.3125 c 0,-0.408 -0.209,-0.65625 -0.625,-0.65625 z m 3.375,0 c -0.223999,0 -0.44825,0.045 -0.65625,0.125 l 0,0.25 c 0.164,-0.056 0.461001,-0.0937 0.625,-0.0937 0.24,0 0.3815,0.0667 0.4375,0.21875 0.024,0.064 0.03125,0.1725 0.03125,0.3125 -0.295999,0.008 -0.52675,0.0457 -0.71875,0.0937 -0.251999,0.068 -0.5,0.2425 -0.5,0.5625 0,0.312 0.289001,0.53125 0.625,0.53125 0.216,0 0.413751,-0.0707 0.59375,-0.21875 l 0.09375,0.1875 0.21875,0 0,-1.25 c 0,-0.316 -0.046,-0.45775 -0.25,-0.59375 -0.108,-0.072 -0.276,-0.125 -0.5,-0.125 z m 2.03125,0 c -0.143999,0 -0.28225,0.0457 -0.40625,0.0937 -0.191999,0.076 -0.375,0.20475 -0.375,0.46875 0,0.304 0.250251,0.39675 0.40625,0.46875 l 0.3125,0.125 c 0.096,0.036 0.186,0.081 0.25,0.125 0.076,0.052 0.125,0.1115 0.125,0.1875 0,0.192 -0.2255,0.25 -0.4375,0.25 -0.235999,0 -0.44025,-0.041 -0.65625,-0.125 l 0,0.3125 c 0.176,0.076 0.391501,0.0937 0.6875,0.0937 0.296,0 0.524251,-0.082 0.65625,-0.25 0.068,-0.084 0.09375,-0.2085 0.09375,-0.3125 0,-0.124 -0.041,-0.18925 -0.125,-0.28125 -0.072,-0.08 -0.111,-0.154 -0.375,-0.25 l -0.3125,-0.125 c -0.088,-0.032 -0.1595,-0.0425 -0.1875,-0.0625 -0.068,-0.044 -0.09375,-0.0715 -0.09375,-0.1875 0,-0.04 0.0185,-0.085 0.0625,-0.125 0.104,-0.096 0.230251,-0.125 0.40625,-0.125 0.248,0 0.412,0.11625 0.5,0.15625 l 0,-0.28125 c -0.175999,-0.084 -0.28725,-0.15225 -0.53125,-0.15625 z m 1.90625,0 c -0.279999,0 -0.50025,0.1125 -0.65625,0.3125 -0.147999,0.2 -0.21875,0.43075 -0.21875,0.71875 0,0.624 0.340751,0.96875 0.96875,0.96875 0.216,0 0.429001,-0.0258 0.625,-0.0937 l 0,-0.28125 c -0.187999,0.06 -0.36325,0.0937 -0.53125,0.0937 -0.243999,0 -0.41925,-0.0362 -0.53125,-0.15625 -0.112,-0.12 -0.1835,-0.28475 -0.1875,-0.46875 l 1.3125,0 0.03125,-0.0312 0,-0.1875 c 0,-0.556 -0.3045,-0.875 -0.8125,-0.875 z m -45.28125,0.0312 0,1.9375 0.3125,0 0,-1.9375 -0.3125,0 z m 14.03125,0 -0.84375,0.875 0.84375,1.0625 0.40625,0 -0.875,-1.0625 0.84375,-0.875 -0.375,0 z m 0.75,0 0,1.3125 c 0,0.408 0.24025,0.65625 0.65625,0.65625 0.204,0 0.4435,-0.0595 0.6875,-0.1875 l 0.0625,0.15625 0.21875,0 0,-1.9375 -0.34375,0 0,1.5625 c -0.196,0.092 -0.348,0.15625 -0.5,0.15625 -0.312,0 -0.4375,-0.14875 -0.4375,-0.46875 l 0,-1.25 -0.34375,0 z m 8.25,0 0,1.9375 0.3125,0 0,-1.9375 -0.3125,0 z m -26.4375,0.21875 c 0.3,0 0.4375,0.27775 0.4375,0.59375 l -1,0 c 0.036,-0.308 0.1905,-0.59375 0.5625,-0.59375 z m 14.96875,0 c 0.3,0 0.4375,0.27775 0.4375,0.59375 l -1.03125,0 c 0.036,-0.308 0.221751,-0.59375 0.59375,-0.59375 z m 6.21875,0 c 0.3,0 0.4375,0.27775 0.4375,0.59375 l -1,0 c 0.036,-0.308 0.1905,-0.59375 0.5625,-0.59375 z m 12.59375,0 c 0.3,0 0.4375,0.27775 0.4375,0.59375 l -1.03125,0 c 0.036,-0.308 0.221751,-0.59375 0.59375,-0.59375 z m 5.375,0 c 0.3,0 0.4375,0.27775 0.4375,0.59375 l -1,0 c 0.036,-0.308 0.190501,-0.59375 0.5625,-0.59375 z m 9.5625,0 c 0.3,0 0.4375,0.27775 0.4375,0.59375 l -1,0 c 0.036,-0.308 0.190501,-0.59375 0.5625,-0.59375 z m -3.53125,0.8125 0,0.46875 c -0.139999,0.136 -0.29925,0.21875 -0.53125,0.21875 -0.048,0 -0.089,-0.0153 -0.125,-0.0312 -0.112,-0.052 -0.21875,-0.14525 -0.21875,-0.28125 0,-0.048 0.0032,-0.077 0.03125,-0.125 0.064,-0.104 0.164501,-0.18675 0.3125,-0.21875 0.08,-0.016 0.267251,-0.0233 0.53125,-0.0312 z"
           id="path19067" />
        <rect
           ry="0"
           rx="0"
           y="986.86218"
           x="20"
           height="0.5"
           width="56"
           id="rect18834"
           style="opacity:0.2;fill:#000000;fill-opacity:1;stroke:none" />
        <rect
           style="opacity:0.2;fill:#000000;fill-opacity:1;stroke:none"
           id="rect18836"
           width="56"
           height="0.5"
           x="20"
           y="992.86218"
           rx="0"
           ry="0" />
        <rect
           ry="0"
           rx="0"
           y="998.86218"
           x="20"
           height="0.5"
           width="56"
           id="rect18838"
           style="opacity:0.2;fill:#000000;fill-opacity:1;stroke:none" />
        <rect
           style="opacity:0.2;fill:#000000;fill-opacity:1;stroke:none"
           id="rect18840"
           width="56"
           height="0.5"
           x="20"
           y="1004.8622"
           rx="0"
           ry="0" />
        <rect
           ry="0"
           rx="0"
           y="1010.8622"
           x="20"
           height="0.5"
           width="56"
           id="rect18842"
           style="opacity:0.2;fill:#000000;fill-opacity:1;stroke:none" />
        <rect
           style="opacity:0.2;fill:#000000;fill-opacity:1;stroke:none"
           id="rect18844"
           width="56"
           height="0.5"
           x="20"
           y="1016.8622"
           rx="0"
           ry="0" />
        <path
           inkscape:connector-curvature="0"
           style="font-style:normal;font-variant:normal;font-weight:normal;font-stretch:normal;font-size:4px;line-height:125%;font-family:Cantarell;-inkscape-font-specification:Cantarell;letter-spacing:0px;word-spacing:0px;fill:#4d4d4d;fill-opacity:1;stroke:none"
           d="m 44.3125,988.70019 c -0.210937,0.0478 -0.37825,0.186 -0.53125,0.375 -0.191999,0.24 -0.28125,0.564 -0.28125,1 0,0.656 0.209001,1.12775 0.625,1.34375 0.132,0.068 0.262251,0.125 0.40625,0.125 0.144,0 0.278251,-0.0298 0.40625,-0.0937 0.44,-0.22 0.65625,-0.707 0.65625,-1.375 0,-0.624 -0.19775,-1.06125 -0.59375,-1.28125 -0.143999,-0.08 -0.29675,-0.0937 -0.46875,-0.0937 -0.076,0 -0.148438,-0.0159 -0.21875,0 z m 20.40625,0 c -0.210937,0.0478 -0.4095,0.186 -0.5625,0.375 -0.191999,0.24 -0.28125,0.564 -0.28125,1 0,0.656 0.240251,1.12775 0.65625,1.34375 0.132,0.068 0.262251,0.125 0.40625,0.125 0.144,0 0.278251,-0.0298 0.40625,-0.0937 0.44,-0.22 0.65625,-0.707 0.65625,-1.375 0,-0.624 -0.19775,-1.06125 -0.59375,-1.28125 -0.143999,-0.08 -0.29675,-0.0937 -0.46875,-0.0937 -0.076,0 -0.148438,-0.0159 -0.21875,0 z m -38.53125,0.0312 -0.9375,2.78125 0.34375,0 0.25,-0.8125 1.0625,0 0.25,0.8125 0.375,0 -0.9375,-2.78125 -0.40625,0 z m 15.65625,0 -0.59375,0.25 0.125,0.28125 0.53125,-0.21875 0,2.15625 -0.6875,0 0,0.3125 1.65625,0 0,-0.3125 -0.65625,0 0,-2.46875 -0.375,0 z m 20.40625,0 -0.59375,0.25 0.09375,0.28125 0.5625,-0.21875 0,2.15625 -0.6875,0 0,0.3125 1.625,0 0,-0.3125 -0.625,0 0,-2.46875 -0.375,0 z m 6,0 -1.875,2.78125 0.34375,0 1.875,-2.78125 -0.34375,0 z m -1.40625,0.0937 c -0.284,0 -0.4375,0.2465 -0.4375,0.5625 0,0.32 0.1455,0.53125 0.4375,0.53125 0.288,0 0.4375,-0.2585 0.4375,-0.5625 0,-0.328 -0.1495,-0.53125 -0.4375,-0.53125 z m -22.28125,0.15625 c 0.116,0 0.2125,0.049 0.3125,0.125 0.248,0.192 0.40625,0.50475 0.40625,0.96875 0,0.508 -0.14225,0.8705 -0.40625,1.0625 -0.096,0.072 -0.1965,0.0937 -0.3125,0.0937 -0.116,0 -0.24775,-0.0298 -0.34375,-0.0937 -0.271999,-0.18 -0.40625,-0.55375 -0.40625,-1.09375 0,-0.556 0.238001,-1.0625 0.75,-1.0625 z m 20.40625,0 c 0.116,0 0.2125,0.049 0.3125,0.125 0.248,0.192 0.375,0.50475 0.375,0.96875 0,0.508 -0.14225,0.8705 -0.40625,1.0625 -0.096,0.072 -0.1965,0.0937 -0.3125,0.0937 -0.116,0 -0.2165,-0.0298 -0.3125,-0.0937 -0.271999,-0.18 -0.40625,-0.55375 -0.40625,-1.09375 0,-0.556 0.238001,-1.0625 0.75,-1.0625 z m 1.84375,0.0312 c 0.24,0 0.28125,0.15025 0.28125,0.40625 0,0.172 -0.098,0.3125 -0.25,0.3125 -0.208,0 -0.25,-0.17025 -0.25,-0.40625 0,-0.156 0.08275,-0.3125 0.21875,-0.3125 z m -40.4375,0.0625 0.4375,1.3125 -0.875,0 0.4375,-1.3125 z m 41.75,1.1875 c -0.112,0 -0.2165,0.0562 -0.3125,0.15625 -0.096,0.1 -0.15625,0.22225 -0.15625,0.40625 0,0.184 0.06425,0.3455 0.15625,0.4375 0.092,0.092 0.1845,0.125 0.3125,0.125 0.3,0 0.46875,-0.293 0.46875,-0.625 0,-0.196 -0.05225,-0.299 -0.15625,-0.375 -0.104,-0.076 -0.2005,-0.125 -0.3125,-0.125 z m 0,0.1875 c 0.032,0 0.06575,0.0192 0.09375,0.0312 0.124,0.048 0.1875,0.15575 0.1875,0.34375 0,0.136 -0.03775,0.22125 -0.09375,0.28125 -0.056,0.06 -0.1235,0.0937 -0.1875,0.0937 -0.064,0 -0.10025,-0.0105 -0.15625,-0.0625 -0.076,-0.076 -0.125,-0.203 -0.125,-0.375 0,-0.172 0.12125,-0.3125 0.28125,-0.3125 z m -26.0625,4.25 c -0.376,0 -0.55575,0.0755 -0.84375,0.1875 l 0.125,0.28125 c 0.264,-0.1 0.4075,-0.1875 0.6875,-0.1875 0.415999,0 0.53125,0.29925 0.53125,0.53125 0,0.284 -0.264251,0.58 -0.65625,1 l -0.6875,0.75 0,0.25 1.71875,0 0,-0.3125 -1.25,0 0.5,-0.5 c 0.348,-0.372 0.71875,-0.814 0.71875,-1.25 0,-0.468 -0.379751,-0.75 -0.84375,-0.75 z m 2.34375,0 c -0.210937,0.0478 -0.4095,0.186 -0.5625,0.375 -0.191999,0.24 -0.28125,0.564 -0.28125,1 0,0.656 0.240251,1.12775 0.65625,1.34375 0.132,0.068 0.262251,0.125 0.40625,0.125 0.144,0 0.278251,-0.0298 0.40625,-0.0937 0.44,-0.22 0.65625,-0.707 0.65625,-1.375 0,-0.624 -0.19775,-1.06125 -0.59375,-1.28125 -0.143999,-0.08 -0.29675,-0.0937 -0.46875,-0.0937 -0.076,0 -0.148438,-0.0159 -0.21875,0 z m 18.0625,0 c -0.376,0 -0.55575,0.0755 -0.84375,0.1875 l 0.09375,0.28125 c 0.264,-0.1 0.4075,-0.1875 0.6875,-0.1875 0.415999,0 0.53125,0.29925 0.53125,0.53125 0,0.284 -0.233001,0.58 -0.625,1 l -0.71875,0.75 0,0.25 1.71875,0 0,-0.3125 -1.21875,0 0.46875,-0.5 c 0.348,-0.372 0.71875,-0.814 0.71875,-1.25 0,-0.468 -0.348501,-0.75 -0.8125,-0.75 z m 2.3125,0 c -0.210937,0.0478 -0.37825,0.186 -0.53125,0.375 -0.191999,0.24 -0.28125,0.564 -0.28125,1 0,0.656 0.209001,1.12775 0.625,1.34375 0.132,0.068 0.262251,0.125 0.40625,0.125 0.144,0 0.278251,-0.0298 0.40625,-0.0937 0.44,-0.22 0.65625,-0.707 0.65625,-1.375 0,-0.624 -0.19775,-1.06125 -0.59375,-1.28125 -0.143999,-0.08 -0.29675,-0.0937 -0.46875,-0.0937 -0.076,0 -0.148438,-0.0159 -0.21875,0 z m -39.28125,0.0312 0,2.78125 0.90625,0 c 0.348,0 0.65575,-0.11325 0.84375,-0.28125 0.176,-0.16 0.21875,-0.3625 0.21875,-0.5625 0,-0.364 -0.2465,-0.6275 -0.5625,-0.6875 0.224,-0.108 0.34375,-0.36575 0.34375,-0.59375 0,-0.204 -0.0595,-0.384 -0.1875,-0.5 -0.136,-0.12 -0.3385,-0.15625 -0.5625,-0.15625 l -1,0 z m 42.84375,0 -1.90625,2.78125 0.34375,0 1.90625,-2.78125 -0.34375,0 z m -1.40625,0.0937 c -0.284,0 -0.46875,0.2465 -0.46875,0.5625 0,0.32 0.1455,0.53125 0.4375,0.53125 0.288,0 0.46875,-0.2585 0.46875,-0.5625 0,-0.328 -0.1495,-0.53125 -0.4375,-0.53125 z m -22.28125,0.15625 c 0.116,0 0.2125,0.049 0.3125,0.125 0.248,0.192 0.375,0.50475 0.375,0.96875 0,0.508 -0.14225,0.8705 -0.40625,1.0625 -0.096,0.072 -0.1965,0.0937 -0.3125,0.0937 -0.116,0 -0.2165,-0.0298 -0.3125,-0.0937 -0.271999,-0.18 -0.40625,-0.55375 -0.40625,-1.09375 0,-0.556 0.238001,-1.0625 0.75,-1.0625 z m 20.375,0 c 0.116,0 0.2125,0.049 0.3125,0.125 0.248,0.192 0.40625,0.50475 0.40625,0.96875 0,0.508 -0.14225,0.8705 -0.40625,1.0625 -0.096,0.072 -0.1965,0.0937 -0.3125,0.0937 -0.116,0 -0.24775,-0.0298 -0.34375,-0.0937 -0.271999,-0.18 -0.40625,-0.55375 -0.40625,-1.09375 0,-0.556 0.238001,-1.0625 0.75,-1.0625 z m -39.1875,0.0312 0.53125,0 c 0.336,0 0.5625,0.11825 0.5625,0.40625 0,0.316 -0.226751,0.46875 -0.71875,0.46875 l -0.375,0 0,-0.875 z m 41.03125,0 c 0.24,0 0.3125,0.15025 0.3125,0.40625 0,0.172 -0.098,0.3125 -0.25,0.3125 -0.208,0 -0.28125,-0.17025 -0.28125,-0.40625 0,-0.156 0.08275,-0.3125 0.21875,-0.3125 z m -41.03125,1.15625 0.5,0 c 0.375999,0 0.8125,0.0752 0.8125,0.53125 0,0.372 -0.311501,0.5 -0.6875,0.5 l -0.625,0 0,-1.03125 z m 42.34375,0.0937 c -0.112,0 -0.2165,0.0562 -0.3125,0.15625 -0.096,0.1 -0.125,0.22225 -0.125,0.40625 0,0.184 0.033,0.3455 0.125,0.4375 0.092,0.092 0.21575,0.125 0.34375,0.125 0.3,0 0.4375,-0.293 0.4375,-0.625 0,-0.196 -0.05225,-0.299 -0.15625,-0.375 -0.104,-0.076 -0.2005,-0.125 -0.3125,-0.125 z m 0,0.1875 c 0.032,0 0.06575,0.0192 0.09375,0.0312 0.124,0.048 0.1875,0.15575 0.1875,0.34375 0,0.136 -0.0065,0.22125 -0.0625,0.28125 -0.056,0.06 -0.1235,0.0937 -0.1875,0.0937 -0.064,0 -0.1315,-0.0105 -0.1875,-0.0625 -0.076,-0.076 -0.09375,-0.203 -0.09375,-0.375 0,-0.172 0.09,-0.3125 0.25,-0.3125 z M 26.75,1000.7002 c -0.404,0 -0.788,0.159 -1,0.375 -0.22,0.228 -0.34375,0.5992 -0.34375,1.0312 0,0.424 0.123,0.7673 0.375,1.0313 0.224,0.232 0.58725,0.4062 1.03125,0.4062 0.312,0 0.5645,-0.076 0.8125,-0.1875 l -0.0625,-0.25 c -0.22,0.088 -0.43625,0.125 -0.65625,0.125 -0.22,0 -0.457,-0.029 -0.625,-0.125 -0.312,-0.18 -0.53125,-0.528 -0.53125,-1 0,-0.472 0.188,-0.82 0.5,-1 0.168,-0.096 0.37375,-0.125 0.59375,-0.125 0.276,0 0.43625,0.045 0.65625,0.125 l 0.09375,-0.2812 c -0.264,-0.1 -0.47975,-0.125 -0.84375,-0.125 z m 15.40625,0 c -0.376,0 -0.55575,0.076 -0.84375,0.1875 l 0.125,0.2812 c 0.264,-0.1 0.4075,-0.1875 0.6875,-0.1875 0.415999,0 0.53125,0.2993 0.53125,0.5313 0,0.284 -0.264251,0.58 -0.65625,1 l -0.6875,0.75 0,0.25 1.71875,0 0,-0.3125 -1.25,0 0.5,-0.5 c 0.348,-0.372 0.71875,-0.814 0.71875,-1.25 0,-0.468 -0.379751,-0.75 -0.84375,-0.75 z m 2.34375,0 c -0.210937,0.048 -0.4095,0.186 -0.5625,0.375 -0.191999,0.24 -0.28125,0.564 -0.28125,1 0,0.656 0.240251,1.1277 0.65625,1.3437 0.132,0.068 0.262251,0.125 0.40625,0.125 0.144,0 0.278251,-0.03 0.40625,-0.094 0.44,-0.22 0.65625,-0.707 0.65625,-1.375 0,-0.624 -0.19775,-1.0613 -0.59375,-1.2813 -0.143999,-0.08 -0.29675,-0.094 -0.46875,-0.094 -0.076,0 -0.148438,-0.016 -0.21875,0 z m 18.0625,0 c -0.376,0 -0.55575,0.076 -0.84375,0.1875 l 0.09375,0.2812 c 0.264,-0.1 0.4075,-0.1875 0.6875,-0.1875 0.415999,0 0.53125,0.2993 0.53125,0.5313 0,0.284 -0.233001,0.58 -0.625,1 l -0.71875,0.75 0,0.25 1.71875,0 0,-0.3125 -1.21875,0 0.46875,-0.5 c 0.348,-0.372 0.71875,-0.814 0.71875,-1.25 0,-0.468 -0.348501,-0.75 -0.8125,-0.75 z m 2.3125,0 c -0.210937,0.048 -0.37825,0.186 -0.53125,0.375 -0.191999,0.24 -0.28125,0.564 -0.28125,1 0,0.656 0.209001,1.1277 0.625,1.3437 0.132,0.068 0.262251,0.125 0.40625,0.125 0.144,0 0.278251,-0.03 0.40625,-0.094 0.44,-0.22 0.65625,-0.707 0.65625,-1.375 0,-0.624 -0.19775,-1.0613 -0.59375,-1.2813 -0.143999,-0.08 -0.29675,-0.094 -0.46875,-0.094 -0.076,0 -0.148438,-0.016 -0.21875,0 z m 3.5625,0.031 -1.90625,2.7813 0.34375,0 1.90625,-2.7813 -0.34375,0 z m -1.40625,0.094 c -0.284,0 -0.46875,0.2465 -0.46875,0.5625 0,0.32 0.1455,0.5312 0.4375,0.5312 0.288,0 0.46875,-0.2585 0.46875,-0.5625 0,-0.328 -0.1495,-0.5312 -0.4375,-0.5312 z M 44.75,1000.9814 c 0.116,0 0.2125,0.049 0.3125,0.125 0.248,0.192 0.375,0.5048 0.375,0.9688 0,0.508 -0.14225,0.8705 -0.40625,1.0625 -0.096,0.072 -0.1965,0.094 -0.3125,0.094 -0.116,0 -0.2165,-0.03 -0.3125,-0.094 -0.271999,-0.18 -0.40625,-0.5538 -0.40625,-1.0938 0,-0.556 0.238001,-1.0625 0.75,-1.0625 z m 20.375,0 c 0.116,0 0.2125,0.049 0.3125,0.125 0.248,0.192 0.40625,0.5048 0.40625,0.9688 0,0.508 -0.14225,0.8705 -0.40625,1.0625 -0.096,0.072 -0.1965,0.094 -0.3125,0.094 -0.116,0 -0.24775,-0.03 -0.34375,-0.094 -0.271999,-0.18 -0.40625,-0.5538 -0.40625,-1.0938 0,-0.556 0.238001,-1.0625 0.75,-1.0625 z m 1.84375,0.031 c 0.24,0 0.3125,0.1502 0.3125,0.4062 0,0.172 -0.098,0.3125 -0.25,0.3125 -0.208,0 -0.28125,-0.1702 -0.28125,-0.4062 0,-0.156 0.08275,-0.3125 0.21875,-0.3125 z m 1.3125,1.25 c -0.112,0 -0.2165,0.056 -0.3125,0.1562 -0.096,0.1 -0.125,0.2223 -0.125,0.4063 0,0.184 0.033,0.3455 0.125,0.4375 0.092,0.092 0.21575,0.125 0.34375,0.125 0.3,0 0.4375,-0.293 0.4375,-0.625 0,-0.196 -0.05225,-0.299 -0.15625,-0.375 -0.104,-0.076 -0.2005,-0.125 -0.3125,-0.125 z m 0,0.1875 c 0.032,0 0.06575,0.015 0.09375,0.031 0.124,0.048 0.1875,0.1558 0.1875,0.3438 0,0.136 -0.0065,0.2212 -0.0625,0.2812 -0.056,0.06 -0.1235,0.094 -0.1875,0.094 -0.064,0 -0.1315,-0.01 -0.1875,-0.062 -0.076,-0.076 -0.09375,-0.203 -0.09375,-0.375 0,-0.172 0.09,-0.3125 0.25,-0.3125 z m -23.5625,4.25 c -0.210937,0.048 -0.37825,0.186 -0.53125,0.375 -0.191999,0.24 -0.28125,0.564 -0.28125,1 0,0.656 0.209001,1.1277 0.625,1.3437 0.132,0.068 0.262251,0.125 0.40625,0.125 0.144,0 0.278251,-0.03 0.40625,-0.094 0.44,-0.22 0.65625,-0.707 0.65625,-1.375 0,-0.624 -0.19775,-1.0613 -0.59375,-1.2813 -0.143999,-0.08 -0.29675,-0.094 -0.46875,-0.094 -0.076,0 -0.148438,-0.016 -0.21875,0 z m 20.40625,0 c -0.210937,0.048 -0.4095,0.186 -0.5625,0.375 -0.191999,0.24 -0.28125,0.564 -0.28125,1 0,0.656 0.240251,1.1277 0.65625,1.3437 0.132,0.068 0.262251,0.125 0.40625,0.125 0.144,0 0.278251,-0.03 0.40625,-0.094 0.44,-0.22 0.65625,-0.707 0.65625,-1.375 0,-0.624 -0.19775,-1.0613 -0.59375,-1.2813 -0.143999,-0.08 -0.29675,-0.094 -0.46875,-0.094 -0.076,0 -0.148438,-0.016 -0.21875,0 z m -39.625,0.031 0,2.7813 1,0 c 0.567999,0 0.925,-0.2643 1.125,-0.6563 0.108,-0.212 0.15625,-0.47 0.15625,-0.75 0,-0.28 -0.04825,-0.538 -0.15625,-0.75 -0.2,-0.392 -0.557001,-0.625 -1.125,-0.625 l -1,0 z m 16.15625,0 0,1.3438 c 0.028,0 0.06575,0.01 0.09375,0 0.172,-0.02 0.328,-0.031 0.5,-0.031 0.296,0 0.49225,0.01 0.65625,0.1563 0.116,0.108 0.1875,0.2575 0.1875,0.4375 0,0.216 -0.118,0.3415 -0.25,0.4375 -0.16,0.116 -0.40175,0.1562 -0.59375,0.1562 -0.244,0 -0.429,-0.065 -0.625,-0.125 l -0.09375,0.3125 c 0.244,0.088 0.542,0.125 0.75,0.125 0.132,0 0.26225,-0.03 0.40625,-0.062 0.16,-0.032 0.28225,-0.087 0.40625,-0.1875 0.204,-0.172 0.3125,-0.3955 0.3125,-0.6875 0,-0.124 -0.0105,-0.259 -0.0625,-0.375 -0.152,-0.316 -0.460751,-0.5 -0.96875,-0.5 -0.12,0 -0.25425,0.015 -0.40625,0.031 l 0,-0.75 1.28125,0 0,-0.2813 -1.59375,0 z m 20.375,0 0,1.3438 c 0.028,0 0.06575,0.01 0.09375,0 0.172,-0.02 0.328,-0.031 0.5,-0.031 0.296,0 0.5235,0.01 0.6875,0.1563 0.116,0.108 0.15625,0.2575 0.15625,0.4375 0,0.216 -0.118,0.3415 -0.25,0.4375 -0.16,0.116 -0.40175,0.1562 -0.59375,0.1562 -0.244,0 -0.429,-0.065 -0.625,-0.125 l -0.09375,0.3125 c 0.244,0.088 0.542,0.125 0.75,0.125 0.132,0 0.26225,-0.03 0.40625,-0.062 0.16,-0.032 0.3135,-0.087 0.4375,-0.1875 0.204,-0.172 0.3125,-0.3955 0.3125,-0.6875 0,-0.124 -0.04175,-0.259 -0.09375,-0.375 -0.152,-0.316 -0.429501,-0.5 -0.9375,-0.5 -0.12,0 -0.25425,0.015 -0.40625,0.031 l 0,-0.75 1.28125,0 0,-0.2813 -1.625,0 z m 6.625,0 -1.875,2.7813 0.34375,0 1.875,-2.7813 -0.34375,0 z m -1.40625,0.094 c -0.284,0 -0.4375,0.2465 -0.4375,0.5625 0,0.32 0.1455,0.5312 0.4375,0.5312 0.288,0 0.4375,-0.2585 0.4375,-0.5625 0,-0.328 -0.1495,-0.5312 -0.4375,-0.5312 z m -22.28125,0.1562 c 0.116,0 0.2125,0.049 0.3125,0.125 0.248,0.192 0.40625,0.5048 0.40625,0.9688 0,0.508 -0.14225,0.8705 -0.40625,1.0625 -0.096,0.072 -0.1965,0.094 -0.3125,0.094 -0.116,0 -0.24775,-0.03 -0.34375,-0.094 -0.271999,-0.18 -0.40625,-0.5538 -0.40625,-1.0938 0,-0.556 0.238001,-1.0625 0.75,-1.0625 z m 20.40625,0 c 0.116,0 0.2125,0.049 0.3125,0.125 0.248,0.192 0.375,0.5048 0.375,0.9688 0,0.508 -0.14225,0.8705 -0.40625,1.0625 -0.096,0.072 -0.1965,0.094 -0.3125,0.094 -0.116,0 -0.2165,-0.03 -0.3125,-0.094 -0.271999,-0.18 -0.40625,-0.5538 -0.40625,-1.0938 0,-0.556 0.238001,-1.0625 0.75,-1.0625 z m -39.53125,0.031 0.625,0 c 0.479999,0 0.70375,0.2352 0.84375,0.5312 0.08,0.168 0.125,0.3465 0.125,0.5625 0,0.216 -0.045,0.4258 -0.125,0.5938 -0.14,0.296 -0.367751,0.5 -0.84375,0.5 l -0.625,0 0,-2.1875 z m 41.375,0 c 0.24,0 0.28125,0.1502 0.28125,0.4062 0,0.172 -0.098,0.3125 -0.25,0.3125 -0.208,0 -0.25,-0.1702 -0.25,-0.4062 0,-0.156 0.08275,-0.3125 0.21875,-0.3125 z m 1.3125,1.25 c -0.112,0 -0.2165,0.056 -0.3125,0.1562 -0.096,0.1 -0.15625,0.2223 -0.15625,0.4063 0,0.184 0.06425,0.3455 0.15625,0.4375 0.092,0.092 0.1845,0.125 0.3125,0.125 0.3,0 0.46875,-0.293 0.46875,-0.625 0,-0.196 -0.05225,-0.299 -0.15625,-0.375 -0.104,-0.076 -0.2005,-0.125 -0.3125,-0.125 z m 0,0.1875 c 0.032,0 0.06575,0.015 0.09375,0.031 0.124,0.048 0.1875,0.1558 0.1875,0.3438 0,0.136 -0.03775,0.2212 -0.09375,0.2812 -0.056,0.06 -0.1235,0.094 -0.1875,0.094 -0.064,0 -0.10025,-0.01 -0.15625,-0.062 -0.076,-0.076 -0.125,-0.203 -0.125,-0.375 0,-0.172 0.12125,-0.3125 0.28125,-0.3125 z m -24.375,4.25 c -0.210937,0.048 -0.4095,0.186 -0.5625,0.375 -0.191999,0.24 -0.28125,0.564 -0.28125,1 0,0.656 0.240251,1.1277 0.65625,1.3437 0.132,0.068 0.262251,0.125 0.40625,0.125 0.144,0 0.278251,-0.03 0.40625,-0.094 0.44,-0.22 0.65625,-0.707 0.65625,-1.375 0,-0.624 -0.19775,-1.0613 -0.59375,-1.2813 -0.143999,-0.08 -0.29675,-0.094 -0.46875,-0.094 -0.076,0 -0.148438,-0.016 -0.21875,0 z m 2.53125,0 c -0.210938,0.048 -0.37825,0.186 -0.53125,0.375 -0.192,0.24 -0.3125,0.564 -0.3125,1 0,0.656 0.24025,1.1277 0.65625,1.3437 0.132,0.068 0.26225,0.125 0.40625,0.125 0.144,0 0.27825,-0.03 0.40625,-0.094 0.439999,-0.22 0.65625,-0.707 0.65625,-1.375 0,-0.624 -0.197751,-1.0613 -0.59375,-1.2813 -0.144,-0.08 -0.29675,-0.094 -0.46875,-0.094 -0.076,0 -0.148438,-0.016 -0.21875,0 z m 17.125,0 c -0.210938,0.048 -0.4095,0.186 -0.5625,0.375 -0.192,0.24 -0.28125,0.564 -0.28125,1 0,0.656 0.209,1.1277 0.625,1.3437 0.132,0.068 0.26225,0.125 0.40625,0.125 0.144,0 0.3095,-0.03 0.4375,-0.094 0.439999,-0.22 0.625,-0.707 0.625,-1.375 0,-0.624 -0.197751,-1.0613 -0.59375,-1.2813 -0.144,-0.08 -0.2655,-0.094 -0.4375,-0.094 -0.076,0 -0.148438,-0.016 -0.21875,0 z m 2.53125,0 c -0.210937,0.048 -0.4095,0.186 -0.5625,0.375 -0.191999,0.24 -0.28125,0.564 -0.28125,1 0,0.656 0.240251,1.1277 0.65625,1.3437 0.132,0.068 0.262251,0.125 0.40625,0.125 0.144,0 0.278251,-0.03 0.40625,-0.094 0.44,-0.22 0.65625,-0.707 0.65625,-1.375 0,-0.624 -0.19775,-1.0613 -0.59375,-1.2813 -0.143999,-0.08 -0.29675,-0.094 -0.46875,-0.094 -0.076,0 -0.148438,-0.016 -0.21875,0 z m -41.125,0.031 0,0.2813 0.90625,0 0,2.5 0.34375,0 0,-2.5 0.9375,0 0,-0.2813 -2.1875,0 z m 16.46875,0 -0.59375,0.25 0.09375,0.2813 0.5625,-0.2188 0,2.1563 -0.6875,0 0,0.3125 1.625,0 0,-0.3125 -0.625,0 0,-2.4688 -0.375,0 z m 19.625,0 -0.59375,0.25 0.125,0.2813 0.53125,-0.2188 0,2.1563 -0.6875,0 0,0.3125 1.65625,0 0,-0.3125 -0.625,0 0,-2.4688 -0.40625,0 z m 8.5625,0 -1.875,2.7813 0.34375,0 1.875,-2.7813 -0.34375,0 z m -1.40625,0.094 c -0.284,0 -0.4375,0.2465 -0.4375,0.5625 0,0.32 0.1455,0.5312 0.4375,0.5312 0.288,0 0.4375,-0.2585 0.4375,-0.5625 0,-0.328 -0.1495,-0.5312 -0.4375,-0.5312 z m -24.0625,0.1562 c 0.116,0 0.2125,0.049 0.3125,0.125 0.248,0.192 0.375,0.5048 0.375,0.9688 0,0.508 -0.14225,0.8705 -0.40625,1.0625 -0.096,0.072 -0.1965,0.094 -0.3125,0.094 -0.116,0 -0.2165,-0.03 -0.3125,-0.094 -0.271999,-0.18 -0.40625,-0.5538 -0.40625,-1.0938 0,-0.556 0.238001,-1.0625 0.75,-1.0625 z m 2.53125,0 c 0.116,0 0.2125,0.049 0.3125,0.125 0.248,0.192 0.375,0.5048 0.375,0.9688 0,0.508 -0.111,0.8705 -0.375,1.0625 -0.096,0.072 -0.22775,0.094 -0.34375,0.094 -0.116,0 -0.2165,-0.03 -0.3125,-0.094 -0.272,-0.18 -0.40625,-0.5538 -0.40625,-1.0938 0,-0.556 0.238,-1.0625 0.75,-1.0625 z m 17.09375,0 c 0.116,0 0.24375,0.049 0.34375,0.125 0.248,0.192 0.375,0.5048 0.375,0.9688 0,0.508 -0.14225,0.8705 -0.40625,1.0625 -0.096,0.072 -0.1965,0.094 -0.3125,0.094 -0.116,0 -0.2165,-0.03 -0.3125,-0.094 -0.272,-0.18 -0.4375,-0.5538 -0.4375,-1.0938 0,-0.556 0.238,-1.0625 0.75,-1.0625 z m 2.5625,0 c 0.116,0 0.2125,0.049 0.3125,0.125 0.248,0.192 0.375,0.5048 0.375,0.9688 0,0.508 -0.14225,0.8705 -0.40625,1.0625 -0.096,0.072 -0.1965,0.094 -0.3125,0.094 -0.116,0 -0.2165,-0.03 -0.3125,-0.094 -0.271999,-0.18 -0.40625,-0.5538 -0.40625,-1.0938 0,-0.556 0.238001,-1.0625 0.75,-1.0625 z m 1.84375,0.031 c 0.24,0 0.28125,0.1502 0.28125,0.4062 0,0.172 -0.098,0.3125 -0.25,0.3125 -0.208,0 -0.25,-0.1702 -0.25,-0.4062 0,-0.156 0.08275,-0.3125 0.21875,-0.3125 z m 1.3125,1.25 c -0.112,0 -0.2165,0.056 -0.3125,0.1562 -0.096,0.1 -0.15625,0.2223 -0.15625,0.4063 0,0.184 0.06425,0.3455 0.15625,0.4375 0.092,0.092 0.1845,0.125 0.3125,0.125 0.3,0 0.46875,-0.293 0.46875,-0.625 0,-0.196 -0.05225,-0.299 -0.15625,-0.375 -0.104,-0.076 -0.2005,-0.125 -0.3125,-0.125 z m 0,0.1875 c 0.032,0 0.06575,0.015 0.09375,0.031 0.124,0.048 0.1875,0.1558 0.1875,0.3438 0,0.136 -0.03775,0.2212 -0.09375,0.2812 -0.056,0.06 -0.1235,0.094 -0.1875,0.094 -0.064,0 -0.10025,-0.01 -0.15625,-0.062 -0.076,-0.076 -0.125,-0.203 -0.125,-0.375 0,-0.172 0.12125,-0.3125 0.28125,-0.3125 z"
           id="path18965" />
      </g>
      <g
         transform="translate(0,-2.6273882)"
         id="g19226">
        <path
           style="font-style:normal;font-variant:normal;font-weight:bold;font-stretch:normal;font-size:3.91965151px;line-height:125%;font-family:Cantarell;-inkscape-font-specification:'Cantarell Bold';text-align:center;letter-spacing:0px;word-spacing:0px;text-anchor:middle;fill:#4d4d4d;fill-opacity:1;stroke:none"
           d="m 20,18.125 0,0.4375 0.90625,0 0,2.28125 0.46875,0 0,-2.28125 0.90625,0 0,-0.4375 -2.28125,0 z m 4.53125,0 0,2.71875 0.34375,0 0.03125,-0.09375 c 0.129349,0.0666 0.296179,0.125 0.5,0.125 0.615385,0 0.96875,-0.3612 0.96875,-0.96875 0,-0.72513 -0.482928,-1 -0.90625,-1 C 25.300206,18.90625 25.129348,18.9491 25,19 l 0,-0.875 -0.46875,0 z m 4.4375,0 0,2.21875 c 0,0.26654 0.06894,0.53125 0.46875,0.53125 0.21558,0 0.370866,-0.07025 0.4375,-0.09375 l 0,-0.3125 C 29.80837,20.48445 29.699473,20.5 29.625,20.5 c -0.184224,0 -0.21875,-0.09702 -0.21875,-0.28125 l 0,-2.09375 -0.4375,0 z m 3.15625,0 -0.71875,0.3125 0.125,0.40625 0.59375,-0.25 0,1.84375 -0.6875,0 0,0.40625 1.8125,0 0,-0.40625 -0.625,0 0,-2.3125 -0.5,0 z m -8.90625,0.78125 c -0.32533,0 -0.487812,0.07797 -0.625,0.125 l 0,0.375 c 0.172464,-0.0706 0.339187,-0.125 0.53125,-0.125 0.388045,0 0.46875,0.08484 0.46875,0.40625 l -0.375,0.03125 c -0.505634,0.0314 -0.78125,0.22138 -0.78125,0.59375 0,0.32925 0.244687,0.5625 0.65625,0.5625 0.227339,0 0.413553,-0.06222 0.5625,-0.15625 l 0.0625,0.125 0.375,0 0,-1.15625 c 0,-0.44292 -0.181222,-0.78125 -0.875,-0.78125 z m 4.3125,0 c -0.462519,0 -0.875,0.40814 -0.875,1 0,0.57227 0.317982,0.96875 1,0.96875 0.250858,0 0.483785,-0.02709 0.65625,-0.09375 l 0,-0.34375 c -0.160706,0.0314 -0.335053,0.09375 -0.59375,0.09375 -0.33709,0 -0.570232,-0.0926 -0.59375,-0.4375 l 1.28125,0 0,-0.1875 c 0,-0.58402 -0.283134,-1 -0.875,-1 z m -2.1875,0.375 c 0.313572,0 0.5625,0.16629 0.5625,0.65625 0,0.44292 -0.248929,0.59375 -0.5625,0.59375 -0.133268,0 -0.257518,-0.04275 -0.34375,-0.09375 l 0,-1.09375 c 0.125428,-0.047 0.241839,-0.0625 0.34375,-0.0625 z m 2.1875,0 c 0.227339,0 0.40625,0.16301 0.40625,0.46875 l -0.78125,0 c 0.01568,-0.30574 0.182937,-0.46875 0.375,-0.46875 z m -4.25,0.75 0.34375,0 0,0.375 c -0.101911,0.0627 -0.206348,0.125 -0.40625,0.125 -0.195983,0 -0.3125,-0.10108 -0.3125,-0.25 0,-0.14895 0.120223,-0.23432 0.375,-0.25 z m 10.46875,0.3125 0,0.5625 0.5625,0 0,-0.5625 -0.5625,0 z"
           transform="translate(0,956.36218)"
           id="path19143"
           inkscape:connector-curvature="0" />
        <path
           style="font-style:normal;font-variant:normal;font-weight:normal;font-stretch:normal;font-size:3.91965151px;line-height:125%;font-family:Cantarell;-inkscape-font-specification:Cantarell;text-align:center;letter-spacing:0px;word-spacing:0px;text-anchor:middle;fill:#4d4d4d;fill-opacity:1;stroke:none"
           d="m 54.4375,18.09375 c -0.148947,0 -0.296393,0.01536 -0.4375,0.09375 -0.141108,0.0784 -0.238134,0.19481 -0.28125,0.34375 -0.01568,0.051 -0.03125,0.10529 -0.03125,0.15625 0,0.16854 0.08929,0.35879 0.25,0.53125 L 54.09375,19.375 54,19.40625 c -0.08231,0.0666 -0.156036,0.1287 -0.21875,0.1875 -0.215581,0.1999 -0.3125,0.44045 -0.3125,0.71875 0,0.36452 0.272125,0.625 0.65625,0.625 0.482117,0 0.717785,-0.19437 1,-0.46875 l 0.375,0.375 0.40625,0 -0.5625,-0.59375 0.625,-0.6875 -0.1875,-0.15625 L 55.1875,20.0625 54.5,19.375 54.75,19.15625 c 0.02744,-0.0235 0.07023,-0.0429 0.09375,-0.0625 l 0.03125,-0.0625 c 0.121509,-0.12543 0.203071,-0.23008 0.21875,-0.34375 0.0039,-0.0353 0,-0.06244 0,-0.09375 0,-0.0706 1.1e-4,-0.15996 -0.03125,-0.21875 -0.101911,-0.1999 -0.315347,-0.28125 -0.625,-0.28125 z m -18.53125,0.03125 0,2.71875 0.34375,0 0,-1.25 1.125,0 0,-0.3125 -1.125,0 0,-0.875 1.25,0 0,-0.28125 -1.59375,0 z m 21.65625,0 0,2.71875 0.3125,0 0,-1.15625 c 0.11367,0.008 0.241839,0.03125 0.34375,0.03125 0.22734,0 0.483892,-0.04665 0.625,-0.09375 0.290054,-0.098 0.519491,-0.32689 0.53125,-0.6875 0,-0.38413 -0.213759,-0.67542 -0.53125,-0.78125 -0.06663,-0.0196 -0.139607,-0.03125 -0.4375,-0.03125 l -0.84375,0 z m -16.125,0.09375 0,2.625 0.3125,0 0,-2.625 -0.3125,0 z m 10,0 0,0.3125 0.3125,0 0,-0.3125 -0.3125,0 z m 3,0.125 c 0.199902,0 0.34375,0.14777 0.34375,0.34375 0,0.0627 -0.03104,0.11695 -0.09375,0.1875 -0.03136,0.0353 -0.08951,0.0818 -0.1875,0.15625 l -0.15625,0.15625 -0.125,-0.125 C 54.12076,18.9645 54,18.85986 54,18.71875 c 0,-0.0706 0.0428,-0.15212 0.09375,-0.21875 0.06271,-0.0823 0.186965,-0.15625 0.34375,-0.15625 z m 3.4375,0.0625 0.375,0 c 0.176384,0 0.292795,-0.0078 0.34375,0 0.270456,0.0274 0.4375,0.20603 0.4375,0.5 0,0.4782 -0.33833,0.53125 -0.78125,0.53125 -0.101911,0 -0.245652,-0.01955 -0.375,-0.03125 l 0,-1 z m 11.4375,0.0625 0,0.46875 -0.3125,0 0,0.28125 0.3125,0 0,1.03125 c 0,0.39981 0.139286,0.625 0.53125,0.625 0.133268,0 0.292473,-0.0154 0.4375,-0.0625 l 0,-0.25 c -0.10191,0.0274 -0.23008,0.03125 -0.34375,0.03125 -0.243018,0 -0.28125,-0.12414 -0.28125,-0.375 l 0,-1 0.625,0 0,-0.28125 -0.625,0 0,-0.46875 -0.34375,0 z m -30.53125,0.4375 c -0.184224,0 -0.362705,0.08939 -0.53125,0.21875 l -0.0625,-0.15625 -0.25,0 0,1.875 0.34375,0 0,-1.5 c 0.137188,-0.0901 0.280821,-0.15625 0.40625,-0.15625 0.121509,0 0.214509,0.0233 0.3125,0.0625 l 0.03125,0 0,-0.28125 c -0.08231,-0.0235 -0.159848,-0.0625 -0.25,-0.0625 z m 1.375,0 c -0.274375,0 -0.472134,0.11653 -0.625,0.3125 -0.145027,0.19599 -0.21875,0.43654 -0.21875,0.71875 0,0.61147 0.322115,0.9375 0.9375,0.9375 0.211661,0 0.432937,-0.02714 0.625,-0.09375 l 0,-0.25 c -0.184224,0.0588 -0.366625,0.09375 -0.53125,0.09375 -0.239098,0 -0.4215,-0.06992 -0.53125,-0.1875 C 39.70275,20.31991 39.62892,20.1803 39.625,20 l 1.3125,0 0,-0.03125 0,-0.1875 c 0,-0.54483 -0.283454,-0.875 -0.78125,-0.875 z m 6.125,0 c -0.274375,0 -0.503384,0.11653 -0.65625,0.3125 -0.145027,0.19599 -0.21875,0.43654 -0.21875,0.71875 0,0.61147 0.353365,0.9375 0.96875,0.9375 0.211661,0 0.401687,-0.02714 0.59375,-0.09375 l 0,-0.25 c -0.184223,0.0588 -0.366624,0.09375 -0.53125,0.09375 -0.239098,0 -0.4215,-0.06992 -0.53125,-0.1875 C 45.7965,20.31991 45.72267,20.1803 45.71875,20 l 1.3125,0 0,-0.03125 0,-0.1875 c 0,-0.54483 -0.252204,-0.875 -0.75,-0.875 z m 2.1875,0 c -0.199902,0 -0.417152,0.06206 -0.65625,0.1875 L 47.75,18.9375 l -0.25,0 0,1.90625 0.34375,0 0,-1.53125 c 0.192062,-0.0902 0.351054,-0.125 0.5,-0.125 0.305733,0 0.4375,0.12392 0.4375,0.4375 l 0,1.21875 0.3125,0 0,-1.28125 c 0,-0.3998 -0.217356,-0.65625 -0.625,-0.65625 z m 12.09375,0 c -0.274375,0 -0.472134,0.11653 -0.625,0.3125 -0.145027,0.19599 -0.21875,0.43654 -0.21875,0.71875 0,0.61147 0.322115,0.9375 0.9375,0.9375 0.211661,0 0.432937,-0.02714 0.625,-0.09375 l 0,-0.25 C 61.097027,20.59005 60.914626,20.625 60.75,20.625 c -0.239098,0 -0.4215,-0.06992 -0.53125,-0.1875 C 60.109,20.31991 60.03517,20.1803 60.03125,20 l 1.28125,0 0.03125,-0.03125 0,-0.1875 c 0,-0.54483 -0.283454,-0.875 -0.78125,-0.875 z m 2.0625,0 c -0.184223,0 -0.331455,0.08939 -0.5,0.21875 l -0.0625,-0.15625 -0.25,0 0,1.875 0.3125,0 0,-1.5 c 0.137187,-0.0901 0.280821,-0.15625 0.40625,-0.15625 0.121509,0 0.214509,0.0233 0.3125,0.0625 l 0.0625,0 0,-0.28125 c -0.08231,-0.0235 -0.191098,-0.0625 -0.28125,-0.0625 z m 3.21875,0 c -0.274375,0 -0.472134,0.11653 -0.625,0.3125 C 65.073723,19.41474 65,19.65529 65,19.9375 c 0,0.61147 0.322115,0.9375 0.9375,0.9375 0.211661,0 0.432937,-0.02714 0.625,-0.09375 l 0,-0.25 C 66.378276,20.59005 66.195875,20.625 66.03125,20.625 65.792152,20.625 65.60975,20.55508 65.5,20.4375 65.39025,20.31991 65.31642,20.1803 65.3125,20 l 1.3125,0 0,-0.03125 0,-0.1875 c 0,-0.54483 -0.283455,-0.875 -0.78125,-0.875 z m 2.21875,0 c -0.199902,0 -0.448402,0.06206 -0.6875,0.1875 l -0.0625,-0.15625 -0.21875,0 0,1.90625 0.3125,0 0,-1.53125 c 0.192063,-0.0902 0.382303,-0.125 0.53125,-0.125 0.305733,0 0.40625,0.12392 0.40625,0.4375 l 0,1.21875 0.34375,0 0,-1.28125 c 0,-0.3998 -0.217357,-0.65625 -0.625,-0.65625 z m 7.15625,0 c -0.274376,0 -0.472134,0.11653 -0.625,0.3125 -0.145027,0.19599 -0.21875,0.43654 -0.21875,0.71875 0,0.61147 0.322116,0.9375 0.9375,0.9375 0.211661,0 0.432938,-0.02714 0.625,-0.09375 l 0,-0.25 c -0.184223,0.0588 -0.366625,0.09375 -0.53125,0.09375 -0.239099,0 -0.421499,-0.06992 -0.53125,-0.1875 C 74.76525,20.31991 74.691419,20.1803 74.6875,20 L 75.96875,20 76,19.96875 l 0,-0.1875 c 0,-0.54483 -0.283455,-0.875 -0.78125,-0.875 z M 42.625,18.9375 l -0.84375,0.84375 0.875,1.0625 0.375,0 -0.875,-1.0625 L 43,18.9375 l -0.375,0 z m 7.6875,0 c -0.141107,0 -0.253491,0.0154 -0.375,0.0625 -0.188143,0.0745 -0.375,0.21005 -0.375,0.46875 0,0.29789 0.253384,0.3982 0.40625,0.46875 l 0.3125,0.09375 c 0.09407,0.0353 0.187286,0.08187 0.25,0.125 0.07447,0.0509 0.09375,0.11303 0.09375,0.1875 0,0.18815 -0.198509,0.28125 -0.40625,0.28125 -0.231259,0 -0.444589,-0.0739 -0.65625,-0.15625 l 0,0.3125 c 0.172465,0.0745 0.397446,0.09375 0.6875,0.09375 0.290054,0 0.495652,-0.08534 0.625,-0.25 0.06663,-0.0823 0.09375,-0.17934 0.09375,-0.28125 0,-0.12151 -0.01144,-0.22235 -0.09375,-0.3125 -0.07055,-0.0784 -0.147553,-0.12468 -0.40625,-0.21875 L 50.1875,19.6875 C 50.10127,19.6561 50.027438,19.6446 50,19.625 c -0.06663,-0.0431 -0.09375,-0.07385 -0.09375,-0.1875 0,-0.0392 0.01939,-0.0858 0.0625,-0.125 0.10191,-0.0941 0.233786,-0.125 0.40625,-0.125 0.243018,0 0.413767,0.11706 0.5,0.15625 l 0,-0.28125 c -0.172465,-0.0823 -0.292152,-0.12108 -0.53125,-0.125 l -0.03125,0 z m 1.125,0 0,1.90625 0.3125,0 0,-1.90625 -0.3125,0 z m 12.53125,0 c -0.141107,0 -0.284741,0.0154 -0.40625,0.0625 -0.188143,0.0745 -0.34375,0.21005 -0.34375,0.46875 0,0.29789 0.253384,0.3982 0.40625,0.46875 l 0.28125,0.09375 c 0.09407,0.0353 0.218536,0.08187 0.28125,0.125 0.07447,0.0509 0.09375,0.11303 0.09375,0.1875 0,0.18815 -0.198509,0.28125 -0.40625,0.28125 -0.23126,0 -0.475839,-0.0739 -0.6875,-0.15625 l 0,0.3125 c 0.172464,0.0745 0.428696,0.09375 0.71875,0.09375 0.290054,0 0.495652,-0.08534 0.625,-0.25 0.06663,-0.0823 0.09375,-0.17934 0.09375,-0.28125 0,-0.12151 -0.04269,-0.22235 -0.125,-0.3125 -0.07055,-0.0784 -0.116303,-0.12468 -0.375,-0.21875 l -0.3125,-0.125 c -0.08623,-0.0314 -0.128812,-0.0429 -0.15625,-0.0625 -0.06663,-0.0431 -0.125,-0.07385 -0.125,-0.1875 0,-0.0392 0.01939,-0.0858 0.0625,-0.125 0.101911,-0.0941 0.233785,-0.125 0.40625,-0.125 0.243018,0 0.413768,0.11706 0.5,0.15625 l 0,-0.28125 C 64.327536,18.9802 64.239099,18.94142 64,18.9375 l -0.03125,0 z m 7.0625,0 c -0.105831,0.0196 -0.210589,0.05456 -0.3125,0.09375 l 0,0.25 c 0.160706,-0.0549 0.433045,-0.09375 0.59375,-0.09375 0.235179,0 0.382625,0.06983 0.4375,0.21875 0.02352,0.0627 0.03125,0.17531 0.03125,0.3125 -0.290054,0.008 -0.530607,0.04675 -0.71875,0.09375 -0.246938,0.0666 -0.46875,0.24893 -0.46875,0.5625 0,0.30573 0.29575,0.5 0.625,0.5 0.211661,0 0.386116,-0.07373 0.5625,-0.21875 l 0.09375,0.1875 0.21875,0 0,-1.21875 c 0,-0.30965 -0.0501,-0.46048 -0.25,-0.59375 -0.10583,-0.0706 -0.2805,-0.09375 -0.5,-0.09375 -0.10975,0 -0.206669,-0.0196 -0.3125,0 z m 2.3125,0 c -0.141107,0 -0.284741,0.0154 -0.40625,0.0625 -0.188143,0.0745 -0.34375,0.21005 -0.34375,0.46875 0,0.29789 0.253384,0.3982 0.40625,0.46875 l 0.28125,0.09375 c 0.09407,0.0353 0.187286,0.08187 0.25,0.125 0.07447,0.0509 0.125,0.11303 0.125,0.1875 0,0.18815 -0.198508,0.28125 -0.40625,0.28125 -0.231259,0 -0.475839,-0.0739 -0.6875,-0.15625 l 0,0.3125 c 0.172465,0.0745 0.397446,0.09375 0.6875,0.09375 0.290054,0 0.526902,-0.08534 0.65625,-0.25 C 73.97288,20.5427 74,20.44566 74,20.34375 74,20.22224 73.95731,20.1214 73.875,20.03125 73.80445,19.95285 73.758697,19.90657 73.5,19.8125 l -0.3125,-0.125 c -0.08623,-0.0314 -0.128812,-0.0429 -0.15625,-0.0625 -0.06663,-0.0431 -0.125,-0.07385 -0.125,-0.1875 0,-0.0392 0.01939,-0.0858 0.0625,-0.125 0.10191,-0.0941 0.233786,-0.125 0.40625,-0.125 0.243019,0 0.413768,0.11706 0.5,0.15625 l 0,-0.28125 c -0.172465,-0.0823 -0.292152,-0.12108 -0.53125,-0.125 z m -29.96875,0.03125 0,1.28125 c 0,0.39981 0.217356,0.625 0.625,0.625 0.199902,0 0.417152,-0.06206 0.65625,-0.1875 l 0.0625,0.15625 0.25,0 0,-1.875 -0.34375,0 0,1.5 c -0.192063,0.0901 -0.351054,0.15625 -0.5,0.15625 -0.305733,0 -0.40625,-0.15518 -0.40625,-0.46875 l 0,-1.1875 -0.34375,0 z m -3.1875,0.1875 c 0.293973,0 0.4375,0.28409 0.4375,0.59375 l -1,0 c 0.03528,-0.30182 0.197973,-0.59375 0.5625,-0.59375 z m 6.125,0 c 0.293974,0 0.40625,0.28409 0.40625,0.59375 l -0.96875,0 c 0.03528,-0.30182 0.197973,-0.59375 0.5625,-0.59375 z m 14.28125,0 c 0.293973,0 0.4375,0.28409 0.4375,0.59375 l -1,0 c 0.03528,-0.30182 0.197973,-0.59375 0.5625,-0.59375 z m 5.28125,0 c 0.293973,0 0.4375,0.28409 0.4375,0.59375 l -1,0 c 0.03528,-0.30182 0.197973,-0.59375 0.5625,-0.59375 z m 9.375,0 c 0.293974,0 0.4375,0.28409 0.4375,0.59375 l -1,0 c 0.03528,-0.30182 0.197973,-0.59375 0.5625,-0.59375 z m -21,0.40625 0.71875,0.71875 -0.0625,0.0625 c -0.22342,0.21559 -0.452428,0.3125 -0.65625,0.3125 -0.258697,0 -0.46875,-0.17488 -0.46875,-0.4375 0,-0.17246 0.08919,-0.3393 0.28125,-0.5 L 54.25,19.5625 Z m 17.53125,0.40625 0,0.4375 C 71.644062,20.53952 71.47734,20.625 71.25,20.625 c -0.04704,0 -0.08972,-0.01575 -0.125,-0.03125 -0.109751,-0.051 -0.1875,-0.11673 -0.1875,-0.25 0,-0.047 0.0038,-0.10917 0.03125,-0.15625 0.06271,-0.10191 0.167473,-0.15614 0.3125,-0.1875 0.07839,-0.0157 0.241303,-0.02335 0.5,-0.03125 z"
           transform="translate(0,956.36218)"
           id="path19157"
           inkscape:connector-curvature="0" />
      </g>
      <rect
         transform="scale(1,-1)"
         ry="0"
         rx="0"
         y="-976.36218"
         x="18"
         height="0.5"
         width="60"
         id="rect4524"
         style="opacity:1;fill:#cccccc;fill-opacity:1;stroke:none" />
    </g>
    <g
       id="g4567"
       transform="translate(0,-7.52882)">
      <path
         inkscape:connector-curvature="0"
         id="path7629"
         d="m 91.773426,1029.0042 c 0,12.0878 -9.799017,21.8868 -21.886713,21.8868 -12.087695,0 -21.886712,-9.799 -21.886712,-21.8868 0,-12.0877 9.799017,-21.8867 21.886712,-21.8867 0,0 0,0 0,0 l 0,21.8867 z"
         style="opacity:0.75;fill:#f35f5f;fill-opacity:1;stroke:none" />
      <path
         sodipodi:end="6.2831853"
         sodipodi:start="4.712389"
         d="m 76.138817,1002.1306 a 19.861179,19.861179 0 0 1 19.861179,19.8612 l -19.861179,0 z"
         sodipodi:ry="19.861179"
         sodipodi:rx="19.861179"
         sodipodi:cy="1021.9918"
         sodipodi:cx="76.138817"
         id="path7655"
         style="opacity:0.75;fill:#73a0cf;fill-opacity:1;stroke:none"
         sodipodi:type="arc" />
    </g>
  </g>
</svg>
