<?xml version="1.0" encoding="UTF-8" standalone="no"?>
<!-- Created with Inkscape (http://www.inkscape.org/) -->

<svg
   width="64"
   height="64"
   viewBox="0 0 16.933333 16.933333"
   version="1.1"
   id="svg5"
   inkscape:version="1.1.1 (3bf5ae0d25, 2021-09-20, custom)"
   sodipodi:docname="google-news.svg"
   xmlns:inkscape="http://www.inkscape.org/namespaces/inkscape"
   xmlns:sodipodi="http://sodipodi.sourceforge.net/DTD/sodipodi-0.dtd"
   xmlns:xlink="http://www.w3.org/1999/xlink"
   xmlns="http://www.w3.org/2000/svg"
   xmlns:svg="http://www.w3.org/2000/svg">
  <sodipodi:namedview
     id="namedview7"
     pagecolor="#ffffff"
     bordercolor="#666666"
     borderopacity="1.0"
     inkscape:pageshadow="2"
     inkscape:pageopacity="0.0"
     inkscape:pagecheckerboard="0"
     inkscape:document-units="px"
     showgrid="true"
     units="px"
     height="48px"
     inkscape:zoom="12.328125"
     inkscape:cx="31.959442"
     inkscape:cy="31.959442"
     inkscape:window-width="1920"
     inkscape:window-height="1002"
     inkscape:window-x="0"
     inkscape:window-y="0"
     inkscape:window-maximized="1"
     inkscape:current-layer="svg5"
     inkscape:lockguides="true" />
  <defs
     id="defs2">
    <linearGradient
       id="path29_1_"
       gradientUnits="userSpaceOnUse"
       x1="239.3423"
       y1="1021.4185"
       x2="258.2334"
       y2="1054.1401"
       gradientTransform="matrix(0.04277371,0,0,0.04277371,-1.4422934,-34.435687)">
      <stop
         offset="0"
         style="stop-color:#991700;stop-opacity:0"
         id="stop16" />
      <stop
         offset="1"
         style="stop-color:#991700;stop-opacity:0.1"
         id="stop18" />
    </linearGradient>
    <linearGradient
       inkscape:collect="always"
       xlink:href="#linearGradient37218"
       id="linearGradient1781"
       x1="2.8346456e-08"
       y1="2.2677165e-07"
       x2="64"
       y2="64"
       gradientUnits="userSpaceOnUse"
       gradientTransform="scale(0.26458333)" />
    <linearGradient
       inkscape:collect="always"
       id="linearGradient37218">
      <stop
         style="stop-color:#1a1a1a;stop-opacity:1"
         offset="0"
         id="stop37214" />
      <stop
         style="stop-color:#afafaf;stop-opacity:0.40000001"
         offset="0.49741825"
         id="stop37220" />
      <stop
         style="stop-color:#4d4d4d;stop-opacity:1"
         offset="1"
         id="stop37216" />
    </linearGradient>
  </defs>
  <path
     id="rect863"
     style="fill:#ffffff;stroke-width:0.264583"
     d="M 3.1749998,1.0583333 H 13.758333 c 1.172634,0 2.116667,0.944034 2.116667,2.116667 V 13.758333 c 0,1.172634 -0.944033,2.116667 -2.116667,2.116667 H 3.1749998 c -1.1726332,0 -2.1166665,-0.944033 -2.1166665,-2.116667 V 3.1750003 c 0,-1.172633 0.9440333,-2.116667 2.1166665,-2.116667 z" />
  <path
     id="rect1345"
     style="opacity:0.3;fill:url(#linearGradient1781);fill-opacity:1;stroke-width:0.264583"
     d="m 3.1749998,1.0583333 c -1.1726331,0 -2.1166665,0.944034 -2.1166665,2.116667 V 13.758333 c 0,1.172634 0.9440334,2.116667 2.1166665,2.116667 H 13.758335 c 1.172632,0 2.116666,-0.944033 2.116666,-2.116667 V 3.1750003 c 0,-1.172633 -0.944034,-2.116667 -2.116666,-2.116667 z m 0,0.264584 H 13.758335 c 1.026054,0 1.852083,0.826029 1.852083,1.852083 V 13.758333 c 0,1.026054 -0.826029,1.852084 -1.852083,1.852084 H 3.1749998 c -1.026054,0 -1.8520832,-0.82603 -1.8520832,-1.852084 V 3.1750003 c 0,-1.026054 0.8260292,-1.852083 1.8520832,-1.852083 z" />
  <path
     fill="#0c9d58"
     d="m 11.593435,10.107098 c 0,0.147341 -0.121491,0.268024 -0.269963,0.268024 H 5.6096501 c -0.1484718,0 -0.2699635,-0.120683 -0.2699635,-0.268024 V 4.5013582 c 0,-0.1473409 0.1214917,-0.2680247 0.2699635,-0.2680247 h 5.7139829 c 0.148472,0 0.269964,0.1206838 0.269964,0.2680247 v 5.6057398 z"
     id="path927"
     style="stroke-width:0.00161558" />
  <polygon
     opacity="0.2"
     fill="#004d40"
     points="3885.3,721.4 5210.8,1077 5210.8,892 "
     id="polygon929"
     transform="matrix(0.00161558,0,0,0.00161558,3.174971,4.2333335)" />
  <path
     opacity="0.2"
     fill="#004d40"
     d="M 8.5698773,4.5255919 5.3269236,5.9736363 8.9110878,4.6690554 v -0.00355 C 8.8480802,4.5304387 8.6946001,4.467431 8.5698773,4.5255919 Z"
     id="path931"
     style="stroke-width:0.00161558" />
  <path
     opacity="0.2"
     fill="#ffffff"
     d="M 11.323633,4.2333335 H 5.6096501 c -0.1484718,0 -0.2699635,0.1206838 -0.2699635,0.2680247 v 0.0601 c 0,-0.1473409 0.1214917,-0.2680247 0.2699635,-0.2680247 h 5.7139829 c 0.148472,0 0.269964,0.1206838 0.269964,0.2680247 v -0.0601 C 11.593435,4.3540173 11.472105,4.2333335 11.323633,4.2333335 Z"
     id="path933"
     style="stroke-width:0.00161558" />
  <path
     fill="#ea4335"
     d="M 6.726339,9.9348769 C 6.687727,10.078825 6.76479,10.225681 6.8975904,10.261224 l 5.2923166,1.423326 c 0.132801,0.03554 0.273033,-0.05315 0.311484,-0.197101 L 13.748134,6.8345789 C 13.786747,6.6906307 13.709684,6.5437745 13.576883,6.5082317 L 8.2845659,5.0849057 C 8.1517652,5.049363 8.0115328,5.1380583 7.973082,5.2820065 Z"
     id="path935"
     style="stroke-width:0.00161558" />
  <polygon
     opacity="0.2"
     fill="#3e2723"
     points="5978.7,3684.8 5806.4,4328.1 5806.4,2638.1 "
     id="polygon937"
     transform="matrix(0.00161558,0,0,0.00161558,3.174971,4.2333335)" />
  <polygon
     opacity="0.2"
     fill="#3e2723"
     points="4055.2,805.6 4151,1451.6 3900.8,764.1 "
     id="polygon939"
     transform="matrix(0.00161558,0,0,0.00161558,3.174971,4.2333335)" />
  <path
     opacity="0.2"
     fill="#ffffff"
     d="M 13.577044,6.5082317 8.2847274,5.0849057 C 8.1519267,5.049363 8.0116944,5.1380583 7.9732436,5.2820065 L 6.7265005,9.9348769 c -0.0021,0.00775 -0.00258,0.015671 -0.00404,0.023426 L 7.9598343,5.340652 C 7.9984466,5.1967039 8.138679,5.1080085 8.2713181,5.1435513 l 5.2923169,1.423326 c 0.125531,0.033604 0.200009,0.1668894 0.175291,0.3030828 l 0.0095,-0.035381 c 0.03845,-0.1439482 -0.03861,-0.2908044 -0.171413,-0.3263472 z"
     id="path941"
     style="stroke-width:0.00161558" />
  <path
     fill="#ffc107"
     d="m 10.894374,9.3618307 c 0.05089,0.1400707 -0.01309,0.2930662 -0.142171,0.3400795 L 5.1676274,11.734471 C 5.038381,11.781485 4.8910401,11.705391 4.8401493,11.56532 L 3.1925808,7.0387882 C 3.1416901,6.8987174 3.205667,6.745722 3.3347519,6.6987086 L 8.9193272,4.6661474 c 0.1292464,-0.047013 0.2765873,0.02908 0.3274781,0.1691512 z"
     id="path943"
     style="stroke-width:0.00161558" />
  <path
     opacity="0.2"
     fill="#ffffff"
     d="M 3.2137449,7.0958181 C 3.1628542,6.9557474 3.2268311,6.8027519 3.355916,6.7557386 L 8.9404913,4.7230158 C 9.0682837,4.6764871 9.2135244,4.7506422 9.2660307,4.887805 L 9.2468053,4.835137 C 9.195753,4.6950663 9.0484121,4.6189724 8.9193272,4.6659858 L 3.3347519,6.6987086 C 3.2055055,6.745722 3.1415285,6.8987174 3.1925808,7.0387882 L 4.8401493,11.56532 c 4.847e-4,0.0015 0.00145,0.0027 0.0021,0.0044 z"
     id="path945"
     style="stroke-width:0.00161558" />
  <path
     fill="#4285f4"
     d="m 12.555675,12.621748 c 0,0.148795 -0.121815,0.27061 -0.27061,0.27061 H 4.6482184 c -0.1487949,0 -0.2706096,-0.121815 -0.2706096,-0.27061 V 6.8491191 c 0,-0.1487949 0.1218147,-0.2706097 0.2706096,-0.2706097 h 7.6368466 c 0.148795,0 0.27061,0.1218148 0.27061,0.2706097 z"
     id="path947"
     style="stroke-width:0.00161558" />
  <path
     fill="#ffffff"
     d="M 11.097452,8.8635858 H 8.8123759 V 8.2622669 h 2.2850761 c 0.0664,0 0.120199,0.053799 0.120199,0.1201992 v 0.360759 c 0,0.0664 -0.0538,0.1203607 -0.120199,0.1203607 z m 0,2.2849152 H 8.8123759 v -0.601319 h 2.2850761 c 0.0664,0 0.120199,0.0538 0.120199,0.120199 v 0.360759 c 0,0.06656 -0.0538,0.120361 -0.120199,0.120361 z m 0.360759,-1.142539 H 8.8123759 V 9.4046435 h 2.6458351 c 0.0664,0 0.120199,0.053799 0.120199,0.1201992 v 0.360759 c 0,0.066562 -0.0538,0.1203603 -0.120199,0.1203603 z"
     id="path949"
     style="stroke-width:0.00161558" />
  <path
     opacity="0.2"
     fill="#1a237e"
     d="M 12.285065,12.832258 H 4.6482184 c -0.1487949,0 -0.2706096,-0.121815 -0.2706096,-0.27061 v 0.0601 c 0,0.148795 0.1218147,0.27061 0.2706096,0.27061 h 7.6368466 c 0.148795,0 0.27061,-0.121815 0.27061,-0.27061 v -0.0601 c 0,0.148795 -0.121815,0.27061 -0.27061,0.27061 z"
     id="path951"
     style="stroke-width:0.00161558" />
  <path
     opacity="0.2"
     fill="#ffffff"
     d="m 4.6482184,6.638609 h 7.6368466 c 0.148795,0 0.27061,0.1218147 0.27061,0.2706097 v -0.0601 c 0,-0.1487949 -0.121815,-0.2706097 -0.27061,-0.2706097 H 4.6482184 c -0.1487949,0 -0.2706096,0.1218148 -0.2706096,0.2706097 v 0.0601 c 0,-0.148795 0.1218147,-0.2706097 0.2706096,-0.2706097 z"
     id="path953"
     style="stroke-width:0.00161558" />
  <path
     fill="#ffffff"
     d="m 6.7678594,9.4649047 v 0.5423503 h 0.7782248 c -0.0643,0.330386 -0.3547813,0.569976 -0.7782248,0.569976 -0.4723956,0 -0.8554496,-0.399532 -0.8554496,-0.871928 0,-0.4723956 0.383054,-0.8719286 0.8554496,-0.8719286 0.2127718,0 0.4032487,0.073186 0.5536592,0.2164878 v 3.231e-4 L 7.73333,8.6383739 C 7.4832382,8.4052457 7.1570526,8.2622669 6.7676978,8.2622669 c -0.7969656,0 -1.4431976,0.6460704 -1.4431976,1.4431976 0,0.7971275 0.6460704,1.4431975 1.4431976,1.4431975 0.8334777,0 1.3818056,-0.585971 1.3818056,-1.4104012 0,-0.094511 -0.00872,-0.1856302 -0.02278,-0.2733561 z"
     id="path955"
     style="stroke-width:0.00161558" />
  <g
     opacity="0.2"
     fill="#1a237e"
     id="g961"
     transform="matrix(0.00161558,0,0,0.00161558,3.174971,4.2333335)">
    <path
       d="m 2233.2,3573.9 v 37.2 h 472.7 c 3.5,-12.2 6.5,-24.6 9,-37.2 z"
       id="path957" />
    <path
       d="m 2233.2,4280.3 c -487.1,0 -882.9,-389.9 -892.8,-874.7 -0.1,6.2 -0.5,12.4 -0.5,18.6 0,493.4 399.9,893.3 893.3,893.3 515.9,0 855.3,-362.7 855.3,-873 0,-4.1 -0.5,-7.9 -0.5,-12 -11.1,497 -347.4,847.8 -854.8,847.8 z m 342.7,-1299 c -93.1,-88.6 -211.1,-134 -342.7,-134 -292.4,0 -529.5,247.3 -529.5,539.7 0,6.3 0.7,12.4 0.9,18.6 9.9,-284.2 242.4,-521.1 528.6,-521.1 131.7,0 249.6,45.3 342.7,134 v 0.2 l 273.5,-273.5 c -6.4,-6 -13.5,-11.3 -20.1,-17.1 L 2576,2981.5 Z"
       id="path959" />
  </g>
  <path
     opacity="0.2"
     fill="#1a237e"
     d="m 11.217651,8.8033246 v -0.060099 c 0,0.0664 -0.0538,0.1201991 -0.120199,0.1201991 H 8.8123759 v 0.0601 h 2.2850761 c 0.0664,1.616e-4 0.120199,-0.053637 0.120199,-0.1202001 z M 11.097452,11.148501 H 8.8123759 v 0.0601 h 2.2850761 c 0.0664,0 0.120199,-0.0538 0.120199,-0.120199 v -0.0601 c 0,0.0664 -0.0538,0.1202 -0.120199,0.1202 z m 0.360759,-1.142539 H 8.8123759 v 0.0601 h 2.6458351 c 0.0664,0 0.120199,-0.0538 0.120199,-0.1201992 v -0.0601 c 0,0.0664 -0.0538,0.1201992 -0.120199,0.1201992 z"
     id="path963"
     style="stroke-width:0.00161558" />
  <path
     fill="url(#a)"
     d="M 13.577044,6.5082317 11.593597,5.9747672 v -1.473409 c 0,-0.1473409 -0.121492,-0.2680247 -0.269964,-0.2680247 H 5.6096501 c -0.1484718,0 -0.2699635,0.1206838 -0.2699635,0.2680247 V 5.9689511 L 3.3347519,6.6987086 C 3.2055055,6.745722 3.1415285,6.8987174 3.1925808,7.0387882 l 1.185028,3.2560398 v 2.32692 c 0,0.148795 0.1218147,0.27061 0.2706096,0.27061 h 7.6368466 c 0.148795,0 0.27061,-0.121815 0.27061,-0.27061 v -1.335923 l 1.192782,-4.4512461 c 0.03845,-0.1439482 -0.03861,-0.2908044 -0.171413,-0.3263472 z"
     id="path970"
     style="stroke-width:0.00161558" />
</svg>
