<?xml version="1.0" encoding="UTF-8" standalone="no"?>
<!-- Created with Inkscape (http://www.inkscape.org/) -->

<svg
   width="64"
   height="64"
   viewBox="0 0 16.933333 16.933334"
   version="1.1"
   id="svg5"
   inkscape:version="1.1.1 (3bf5ae0d25, 2021-09-20, custom)"
   sodipodi:docname="google-podcasts.svg"
   xmlns:inkscape="http://www.inkscape.org/namespaces/inkscape"
   xmlns:sodipodi="http://sodipodi.sourceforge.net/DTD/sodipodi-0.dtd"
   xmlns:xlink="http://www.w3.org/1999/xlink"
   xmlns="http://www.w3.org/2000/svg"
   xmlns:svg="http://www.w3.org/2000/svg">
  <sodipodi:namedview
     id="namedview7"
     pagecolor="#ffffff"
     bordercolor="#666666"
     borderopacity="1.0"
     inkscape:pageshadow="2"
     inkscape:pageopacity="0.0"
     inkscape:pagecheckerboard="0"
     inkscape:document-units="px"
     showgrid="false"
     units="px"
     height="64px"
     inkscape:zoom="8"
     inkscape:cx="37.875"
     inkscape:cy="42.875"
     inkscape:window-width="1920"
     inkscape:window-height="1002"
     inkscape:window-x="0"
     inkscape:window-y="0"
     inkscape:window-maximized="1"
     inkscape:current-layer="svg5" />
  <defs
     id="defs2">
    <linearGradient
       inkscape:collect="always"
       xlink:href="#linearGradient37218"
       id="linearGradient1781"
       x1="2.8346456e-08"
       y1="2.2677165e-07"
       x2="64"
       y2="64"
       gradientUnits="userSpaceOnUse"
       gradientTransform="scale(0.26458333)" />
    <linearGradient
       inkscape:collect="always"
       id="linearGradient37218">
      <stop
         style="stop-color:#1a1a1a;stop-opacity:1"
         offset="0"
         id="stop37214" />
      <stop
         style="stop-color:#afafaf;stop-opacity:0.40000001"
         offset="0.49741825"
         id="stop37220" />
      <stop
         style="stop-color:#4d4d4d;stop-opacity:1"
         offset="1"
         id="stop37216" />
    </linearGradient>
  </defs>
  <path
     id="rect863"
     style="fill:#ffffff;stroke-width:0.264583"
     d="M 3.1749998,1.0583333 H 13.758333 c 1.172634,0 2.116667,0.944034 2.116667,2.116667 V 13.758333 c 0,1.172634 -0.944033,2.116667 -2.116667,2.116667 H 3.1749998 c -1.1726332,0 -2.1166665,-0.944033 -2.1166665,-2.116667 V 3.1750003 c 0,-1.172633 0.9440333,-2.116667 2.1166665,-2.116667 z" />
  <path
     id="rect1345"
     style="opacity:0.3;fill:url(#linearGradient1781);fill-opacity:1;stroke-width:0.264583"
     d="m 3.1749998,1.0583333 c -1.1726331,0 -2.1166665,0.944034 -2.1166665,2.116667 V 13.758333 c 0,1.172634 0.9440334,2.116667 2.1166665,2.116667 H 13.758335 c 1.172632,0 2.116666,-0.944033 2.116666,-2.116667 V 3.1750003 c 0,-1.172633 -0.944034,-2.116667 -2.116666,-2.116667 z m 0,0.264584 H 13.758335 c 1.026054,0 1.852083,0.826029 1.852083,1.852083 V 13.758333 c 0,1.026054 -0.826029,1.852084 -1.852083,1.852084 H 3.1749998 c -1.026054,0 -1.8520832,-0.82603 -1.8520832,-1.852084 V 3.1750003 c 0,-1.026054 0.8260292,-1.852083 1.8520832,-1.852083 z" />
  <path
     id="rect847"
     style="opacity:1;stroke-width:0.289837;stroke-linecap:round;stroke-linejoin:round;fill:#fbbc05;fill-opacity:1"
     d="m 8.4666667,6.0854168 c 0.2931583,0 0.5291667,0.2360083 0.5291667,0.5291667 V 10.31875 c 0,0.293158 -0.2360084,0.529167 -0.5291667,0.529167 C 8.1735083,10.847917 7.9375,10.611908 7.9375,10.31875 V 6.6145835 c 0,-0.2931584 0.2360083,-0.5291667 0.5291667,-0.5291667 z" />
  <path
     id="rect1119"
     style="opacity:1;stroke-width:0.236651;stroke-linecap:round;stroke-linejoin:round;fill:#4285f4;fill-opacity:1"
     d="m 3.7041667,7.4083338 c 0.2931583,0 0.5291666,0.2360083 0.5291666,0.5291667 v 1.0583334 c 0,0.2931583 -0.2360083,0.5291667 -0.5291666,0.5291667 C 3.4110083,9.5250006 3.175,9.2889922 3.175,8.9958339 V 7.9375005 c 0,-0.2931584 0.2360083,-0.5291667 0.5291667,-0.5291667 z" />
  <path
     id="rect1223"
     style="opacity:1;stroke-width:0.529167;stroke-linecap:round;stroke-linejoin:round;fill:#4285f4;fill-opacity:1"
     d="m 13.229163,7.4083338 c 0.293158,0 0.529166,0.2360083 0.529166,0.5291667 v 1.0583334 c 0,0.2931583 -0.236008,0.5291667 -0.529166,0.5291667 -0.293159,0 -0.529167,-0.2360084 -0.529167,-0.5291667 V 7.9375005 c 0,-0.2931584 0.236008,-0.5291667 0.529167,-0.5291667 z" />
  <path
     id="rect1431"
     style="opacity:1;stroke-width:0.383418;stroke-linecap:round;stroke-linejoin:round;fill:#34a853;fill-opacity:1"
     d="m 10.847918,8.2020836 c 0.293158,0 0.529167,0.2360083 0.529167,0.5291667 V 11.1125 c 0,0.293159 -0.236009,0.529167 -0.529167,0.529167 -0.293158,0 -0.529167,-0.236008 -0.529167,-0.529167 V 8.7312503 c 0,-0.2931584 0.236009,-0.5291667 0.529167,-0.5291667 z" />
  <path
     id="rect1739"
     style="opacity:1;stroke-width:0.529167;stroke-linecap:round;stroke-linejoin:round;fill:#fbbc05;fill-opacity:1"
     d="m 8.4666667,11.641666 c 0.2931583,0 0.5291667,0.236009 0.5291667,0.529167 v 1.058334 c 0,0.293158 -0.2360084,0.529166 -0.5291667,0.529166 -0.2931584,0 -0.5291667,-0.236008 -0.5291667,-0.529166 v -1.058334 c 0,-0.293158 0.2360083,-0.529167 0.5291667,-0.529167 z" />
  <path
     id="rect1741"
     style="opacity:1;stroke-width:0.529167;stroke-linecap:round;stroke-linejoin:round;fill:#fbbc05;fill-opacity:1"
     d="m 8.4666667,3.175 c 0.2931583,0 0.5291667,0.2360083 0.5291667,0.5291667 v 1.0583338 c 0,0.2931584 -0.2360084,0.5291667 -0.5291667,0.5291667 C 8.1735083,5.2916672 7.9375,5.0556589 7.9375,4.7625005 V 3.7041667 C 7.9375,3.4110083 8.1735083,3.175 8.4666667,3.175 Z" />
  <path
     id="rect2133"
     style="opacity:1;stroke-width:0.389456;stroke-linecap:round;stroke-linejoin:round;fill:#ea4435;fill-opacity:1"
     d="m 6.0854168,5.2916675 c 0.2931583,0 0.5291667,0.2360083 0.5291667,0.5291667 v 2.3812499 c 0,0.2931583 -0.2360084,0.5291667 -0.5291667,0.5291667 -0.2931584,0 -0.5291667,-0.2360084 -0.5291667,-0.5291667 V 5.8208342 c 0,-0.2931584 0.2360083,-0.5291667 0.5291667,-0.5291667 z" />
  <path
     id="rect2237"
     style="opacity:1;stroke-width:0.529167;stroke-linecap:round;stroke-linejoin:round;fill:#ea4435;fill-opacity:1"
     d="m 6.0854168,9.5249996 h 2e-7 c 0.2931584,0 0.5291667,0.2360084 0.5291667,0.5291664 V 11.1125 c 0,0.293158 -0.2360083,0.529166 -0.5291667,0.529166 h -2e-7 c -0.2931584,0 -0.5291667,-0.236008 -0.5291667,-0.529166 v -1.058334 c 0,-0.293158 0.2360083,-0.5291664 0.5291667,-0.5291664 z" />
  <path
     id="rect2743"
     style="opacity:1;stroke-width:0.529167;stroke-linecap:round;stroke-linejoin:round;fill:#34a853;fill-opacity:1"
     d="m 10.847917,5.291667 h 10e-7 c 0.293158,0 0.529166,0.2360083 0.529166,0.5291667 v 1.0583334 c 0,0.2931583 -0.236008,0.5291667 -0.529166,0.5291667 h -10e-7 c -0.293158,0 -0.529167,-0.2360084 -0.529167,-0.5291667 V 5.8208337 c 0,-0.2931584 0.236009,-0.5291667 0.529167,-0.5291667 z" />
</svg>
