<?xml version="1.0" encoding="UTF-8" standalone="no"?>
<!-- Created with Inkscape (http://www.inkscape.org/) -->

<svg
   width="64"
   height="64"
   viewBox="0 0 16.933333 16.933333"
   version="1.1"
   id="svg5"
   inkscape:version="1.1.1 (3bf5ae0d25, 2021-09-20, custom)"
   sodipodi:docname="gsconnect.svg"
   xmlns:inkscape="http://www.inkscape.org/namespaces/inkscape"
   xmlns:sodipodi="http://sodipodi.sourceforge.net/DTD/sodipodi-0.dtd"
   xmlns:xlink="http://www.w3.org/1999/xlink"
   xmlns="http://www.w3.org/2000/svg"
   xmlns:svg="http://www.w3.org/2000/svg">
  <sodipodi:namedview
     id="namedview7"
     pagecolor="#ffffff"
     bordercolor="#666666"
     borderopacity="1.0"
     inkscape:pageshadow="2"
     inkscape:pageopacity="0.0"
     inkscape:pagecheckerboard="0"
     inkscape:document-units="px"
     showgrid="false"
     units="px"
     height="48px"
     inkscape:zoom="8"
     inkscape:cx="46.375"
     inkscape:cy="21.8125"
     inkscape:window-width="1920"
     inkscape:window-height="1019"
     inkscape:window-x="0"
     inkscape:window-y="0"
     inkscape:window-maximized="1"
     inkscape:current-layer="svg5"
     inkscape:lockguides="true" />
  <defs
     id="defs2">
    <linearGradient
       inkscape:collect="always"
       id="linearGradient9602">
      <stop
         style="stop-color:#000000;stop-opacity:1;"
         offset="0"
         id="stop9598" />
      <stop
         style="stop-color:#000000;stop-opacity:0;"
         offset="1"
         id="stop9600" />
    </linearGradient>
    <linearGradient
       inkscape:collect="always"
       id="linearGradient8490">
      <stop
         style="stop-color:#ececec;stop-opacity:1;"
         offset="0"
         id="stop8486" />
      <stop
         style="stop-color:#cccccc;stop-opacity:1"
         offset="1"
         id="stop8488" />
    </linearGradient>
    <linearGradient
       inkscape:collect="always"
       id="linearGradient8098">
      <stop
         style="stop-color:#cccccc;stop-opacity:1;"
         offset="0"
         id="stop8094" />
      <stop
         style="stop-color:#999999;stop-opacity:1"
         offset="1"
         id="stop8096" />
    </linearGradient>
    <linearGradient
       inkscape:collect="always"
       id="linearGradient7158">
      <stop
         style="stop-color:#939393;stop-opacity:1"
         offset="0"
         id="stop7154" />
      <stop
         style="stop-color:#bcbcbc;stop-opacity:1"
         offset="1"
         id="stop7156" />
    </linearGradient>
    <linearGradient
       inkscape:collect="always"
       id="linearGradient6714">
      <stop
         style="stop-color:#cccccc;stop-opacity:1;"
         offset="0"
         id="stop6710" />
      <stop
         style="stop-color:#999999;stop-opacity:1"
         offset="1"
         id="stop6712" />
    </linearGradient>
    <linearGradient
       inkscape:collect="always"
       id="linearGradient5676">
      <stop
         style="stop-color:#999999;stop-opacity:1;"
         offset="0"
         id="stop5672" />
      <stop
         style="stop-color:#cccccc;stop-opacity:1"
         offset="0.25"
         id="stop6098" />
      <stop
         style="stop-color:#b3b3b3;stop-opacity:1"
         offset="0.5"
         id="stop6614" />
      <stop
         style="stop-color:#cccccc;stop-opacity:1"
         offset="0.75"
         id="stop6356" />
      <stop
         style="stop-color:#999999;stop-opacity:1"
         offset="1"
         id="stop5674" />
    </linearGradient>
    <linearGradient
       inkscape:collect="always"
       id="linearGradient5126">
      <stop
         style="stop-color:#000000;stop-opacity:1;"
         offset="0"
         id="stop5122" />
      <stop
         style="stop-color:#3b3b3b;stop-opacity:1"
         offset="1"
         id="stop5124" />
    </linearGradient>
    <linearGradient
       inkscape:collect="always"
       id="linearGradient4820">
      <stop
         style="stop-color:#7394d2;stop-opacity:1;"
         offset="0"
         id="stop4816" />
      <stop
         style="stop-color:#3a64b4;stop-opacity:1"
         offset="1"
         id="stop4818" />
    </linearGradient>
    <linearGradient
       inkscape:collect="always"
       xlink:href="#linearGradient37218"
       id="linearGradient1781"
       x1="2.8346456e-08"
       y1="2.2677165e-07"
       x2="64"
       y2="64"
       gradientUnits="userSpaceOnUse"
       gradientTransform="scale(0.26458333)" />
    <linearGradient
       inkscape:collect="always"
       id="linearGradient37218">
      <stop
         style="stop-color:#ffffff;stop-opacity:1"
         offset="0"
         id="stop37214" />
      <stop
         style="stop-color:#ffffff;stop-opacity:0.00392157"
         offset="0.49741825"
         id="stop37220" />
      <stop
         style="stop-color:#000000;stop-opacity:1"
         offset="1"
         id="stop37216" />
    </linearGradient>
    <linearGradient
       inkscape:collect="always"
       xlink:href="#linearGradient4820"
       id="linearGradient4822"
       x1="4.2333331"
       y1="6.8791666"
       x2="12.699999"
       y2="10.054167"
       gradientUnits="userSpaceOnUse" />
    <linearGradient
       inkscape:collect="always"
       xlink:href="#linearGradient5126"
       id="linearGradient5128"
       x1="13.758333"
       y1="5.0270829"
       x2="10.583333"
       y2="3.4395831"
       gradientUnits="userSpaceOnUse" />
    <linearGradient
       inkscape:collect="always"
       xlink:href="#linearGradient5676"
       id="linearGradient5678"
       x1="1.8520833"
       y1="11.509373"
       x2="15.081248"
       y2="11.509373"
       gradientUnits="userSpaceOnUse" />
    <linearGradient
       inkscape:collect="always"
       xlink:href="#linearGradient6714"
       id="linearGradient6716"
       x1="6.0854163"
       y1="11.24479"
       x2="13.493749"
       y2="8.5989571"
       gradientUnits="userSpaceOnUse" />
    <linearGradient
       inkscape:collect="always"
       xlink:href="#linearGradient7158"
       id="linearGradient7160"
       x1="14.485937"
       y1="13.758334"
       x2="10.384895"
       y2="5.8208342"
       gradientUnits="userSpaceOnUse" />
    <linearGradient
       inkscape:collect="always"
       xlink:href="#linearGradient8098"
       id="linearGradient8100"
       x1="8.4666672"
       y1="7.4083328"
       x2="15.875002"
       y2="12.7"
       gradientUnits="userSpaceOnUse" />
    <linearGradient
       inkscape:collect="always"
       xlink:href="#linearGradient8490"
       id="linearGradient8492"
       x1="9.5249996"
       y1="6.7529299e-07"
       x2="9.5250006"
       y2="17.4625"
       gradientUnits="userSpaceOnUse" />
    <linearGradient
       inkscape:collect="always"
       xlink:href="#linearGradient9602"
       id="linearGradient9604"
       x1="-3"
       y1="60.625"
       x2="73.25"
       y2="22.625"
       gradientUnits="userSpaceOnUse" />
  </defs>
  <path
     id="rect863"
     style="fill:url(#linearGradient8492);stroke-width:0.264583;fill-opacity:1"
     d="M 3.1750003,1.0583333 H 13.758333 c 1.172634,0 2.116667,0.944034 2.116667,2.116667 V 13.758333 c 0,1.172634 -0.944033,2.116667 -2.116667,2.116667 H 3.1750003 c -1.172633,0 -2.116667,-0.944033 -2.116667,-2.116667 V 3.1750003 c 0,-1.172633 0.944034,-2.116667 2.116667,-2.116667 z" />
  <path
     id="rect6948-6"
     style="opacity:0.3;fill:url(#linearGradient9604);fill-opacity:1;stroke-width:0.974045"
     d="M 11 43 L 11 44 C 11 45.107999 11.892 46 13 46 L 49 46 C 50.107999 46 51 45.107999 51 44 L 51 43 C 51 44.107999 50.107999 45 49 45 L 13 45 C 11.892 45 11 44.107999 11 43 z M 38.75 47 L 38.75 48 C 38.75 49.2465 39.753497 50.25 41 50.25 L 51 50.25 C 52.2465 50.25 53.25 49.2465 53.25 48 L 53.25 47 C 53.25 48.2465 52.2465 49.25 51 49.25 L 41 49.25 C 39.753497 49.25 38.75 48.2465 38.75 47 z "
     transform="scale(0.26458333)" />
  <path
     id="rect1345"
     style="opacity:0.3;fill:url(#linearGradient1781);fill-opacity:1;stroke-width:0.264583"
     d="m 3.1750003,1.0583333 c -1.172633,0 -2.116667,0.944034 -2.116667,2.116667 V 13.758333 c 0,1.172634 0.944034,2.116667 2.116667,2.116667 H 13.758334 c 1.172633,0 2.116666,-0.944033 2.116666,-2.116667 V 3.1750003 c 0,-1.172633 -0.944033,-2.116667 -2.116666,-2.116667 z m 0,0.264584 H 13.758334 c 1.026054,0 1.852083,0.826029 1.852083,1.852083 V 13.758333 c 0,1.026054 -0.826029,1.852084 -1.852083,1.852084 H 3.1750003 c -1.026054,0 -1.852083,-0.82603 -1.852083,-1.852084 V 3.1750003 c 0,-1.026054 0.826029,-1.852083 1.852083,-1.852083 z" />
  <path
     id="rect2021"
     style="opacity:1;stroke-width:0.264583;fill:url(#linearGradient5128);fill-opacity:1"
     d="m 4.2333331,3.9687499 h 7.9375009 c 0.293158,0 0.529166,0.2360083 0.529166,0.5291666 V 10.318749 H 3.7041665 V 4.4979165 c 0,-0.2931583 0.2360083,-0.5291666 0.5291666,-0.5291666 z"
     sodipodi:nodetypes="sssccss" />
  <path
     id="rect2125"
     style="opacity:1;fill:url(#linearGradient5678);stroke-width:0.264583;fill-opacity:1"
     d="m 13.493749,11.112499 v 0.264583 c 0,0.293158 -0.236008,0.529166 -0.529166,0.529166 H 3.4395832 c -0.2931583,0 -0.5291666,-0.236008 -0.5291666,-0.529166 v -0.264583 z"
     sodipodi:nodetypes="csssscc" />
  <path
     id="rect2584"
     style="opacity:1;fill:url(#linearGradient6716);stroke-width:0.264583;fill-opacity:1"
     d="M 3.7041665,10.318749 H 12.7 l 0.793749,0.79375 H 2.9104166 Z"
     sodipodi:nodetypes="ccccc" />
  <rect
     style="opacity:1;fill:url(#linearGradient4822);stroke-width:0.264583;fill-opacity:1"
     id="rect2898"
     width="7.9375"
     height="4.7624998"
     x="4.2333331"
     y="4.4979167" />
  <rect
     style="opacity:1;fill:url(#linearGradient7160);fill-opacity:1;stroke-width:0.257716"
     id="rect6948"
     width="3.8364582"
     height="7.0114584"
     x="10.252604"
     y="6.0192709"
     ry="0.59531248" />
  <path
     id="rect849"
     style="opacity:1;stroke-width:0.264583"
     d="m 10.847917,6.0854166 h 2.645835 c 0.293159,0 0.529167,0.2360083 0.529167,0.5291666 v 5.8208328 c 0,0.293159 -0.236008,0.529167 -0.529167,0.529167 h -2.645835 c -0.293158,0 -0.529167,-0.236008 -0.529167,-0.529167 V 6.6145832 c 0,-0.2931583 0.236009,-0.5291666 0.529167,-0.5291666 z"
     sodipodi:nodetypes="sssssssss" />
  <path
     id="rect1027"
     style="opacity:1;fill:url(#linearGradient8100);stroke-width:0.264583;fill-opacity:1"
     d="m 10.847917,6.3500002 h 2.645835 c 0.146579,0 0.264583,0.1180042 0.264583,0.2645833 v 5.8208325 c 0,0.146579 -0.118004,0.264583 -0.264583,0.264583 h -2.645835 c -0.146579,0 -0.264583,-0.118004 -0.264583,-0.264583 V 6.6145835 c 0,-0.1465791 0.118004,-0.2645833 0.264583,-0.2645833 z"
     sodipodi:nodetypes="sssssssss" />
  <path
     id="rect1520"
     style="opacity:1;stroke-width:0.264583"
     d="m 12.964585,6.0854166 v 0.5291667 c 0,0.1465791 -0.118004,0.2645833 -0.264583,0.2645833 h -1.058334 c -0.14658,0 -0.264584,-0.1180042 -0.264584,-0.2645833 V 6.0854166 Z"
     sodipodi:nodetypes="csssscc" />
</svg>
