<?xml version="1.0" encoding="UTF-8"?>
<svg version="1.1" viewBox="0 0 18.001 18" xmlns="http://www.w3.org/2000/svg">
    <g transform="translate(1.0008 -1092.8)">
        <rect x="9.5745e-5" y="1093.8" width="16" height="16" rx="1.5001" ry="1.5001" fill="#2196f3"/>
        <path transform="translate(-1.0008 1092.8)" d="m2.5 1c-0.83103 0-1.5 0.66897-1.5 1.5v0.5c0-0.83103 0.66897-1.5 1.5-1.5h13c0.83103 0 1.5 0.66897 1.5 1.5v-0.5c0-0.83103-0.66897-1.5-1.5-1.5z" fill="#fff" opacity=".2"/>
        <path d="m14.5 1109.8c0.83103 0 1.5-0.669 1.5-1.5v-0.5c0 0.831-0.66897 1.5-1.5 1.5h-13c-0.83103 0-1.5-0.669-1.5-1.5v0.5c0 0.831 0.66897 1.5 1.5 1.5z" opacity=".2"/>
    </g>
    <g transform="translate(1.0008 1.0005)">
        <path transform="translate(-1.0008 -1.0005)" d="m7.0547 4c-0.15531 1.0685-0.078595 2.2097 0.27734 3.1504a2.5 2.5 0 0 1 1.668-0.65039 2.5 2.5 0 0 1 0.13281 0.0039062c0.4341-0.956 1.2368-1.8521 2.1504-2.5039h-4.2285zm-3.0547 2.7188v4.2266c1.0685 0.15531 2.2097 0.078595 3.1504-0.27734a2.5 2.5 0 0 1-0.65039-1.668 2.5 2.5 0 0 1 0.013672-0.12891c-0.9598-0.43259-1.8598-1.2359-2.5137-2.1523zm8.9434 0.25781c-0.73001 9.383e-4 -1.4532 0.11323-2.0859 0.35156a2.5 2.5 0 0 1 0.64258 1.6719 2.5 2.5 0 0 1-0.011719 0.12891c0.95897 0.43281 1.8579 1.2366 2.5117 2.1523v-4.2285c-0.34746-0.050428-0.70296-0.076626-1.0566-0.076172zm-4.9355 0.58594c-0.010192 0.0058842-0.010192 2.8711 0 2.877s2.4922-1.4277 2.4922-1.4395-2.482-1.4434-2.4922-1.4375zm2.6602 3.2891a2.5 2.5 0 0 1-1.668 0.64844 2.5 2.5 0 0 1-0.12891-0.011719c-0.43201 0.95892-1.2337 1.8576-2.1484 2.5117h4.2227c0.15522-1.0678 0.078042-2.208-0.27734-3.1484z" fill="#fff" stroke-linecap="round" stroke-linejoin="round" stroke-width=".825" style="paint-order:markers stroke fill"/>
    </g>
    <g transform="translate(1.0008 1.0005)" display="none" fill="none" opacity=".8" stroke-width=".05">
        <rect transform="rotate(90)" x="3.3425" y="-12.657" width="9.3148" height="9.3148" display="inline" opacity="1" stroke="#000"/>
        <rect x="3" y="4" width="10" height="8" opacity="1" stroke="#0091ff" stroke-linecap="round" stroke-linejoin="round"/>
        <rect transform="rotate(90)" x="3" y="-12" width="10" height="8" display="inline" opacity="1" stroke="#00ff03" stroke-linecap="round" stroke-linejoin="round"/>
    </g>
</svg>
