<?xml version="1.0" encoding="UTF-8" standalone="no"?>
<svg
   width="64"
   height="64"
   version="1.1"
   id="svg7729"
   sodipodi:docname="iagno.svg"
   inkscape:version="1.2.1 (9c6d41e410, 2022-07-14)"
   xmlns:inkscape="http://www.inkscape.org/namespaces/inkscape"
   xmlns:sodipodi="http://sodipodi.sourceforge.net/DTD/sodipodi-0.dtd"
   xmlns:xlink="http://www.w3.org/1999/xlink"
   xmlns="http://www.w3.org/2000/svg"
   xmlns:svg="http://www.w3.org/2000/svg">
  <sodipodi:namedview
     id="namedview7731"
     pagecolor="#505050"
     bordercolor="#ffffff"
     borderopacity="1"
     inkscape:showpageshadow="0"
     inkscape:pageopacity="0"
     inkscape:pagecheckerboard="1"
     inkscape:deskcolor="#505050"
     showgrid="false"
     inkscape:zoom="8.15625"
     inkscape:cx="19.065134"
     inkscape:cy="32"
     inkscape:window-width="1366"
     inkscape:window-height="703"
     inkscape:window-x="0"
     inkscape:window-y="37"
     inkscape:window-maximized="1"
     inkscape:current-layer="svg7729" />
  <defs
     id="defs7689">
    <linearGradient
       id="c">
      <stop
         stop-color="#ffb22a"
         offset="0"
         id="stop7645" />
      <stop
         stop-color="#ffec4a"
         offset="1"
         id="stop7647" />
    </linearGradient>
    <linearGradient
       id="b">
      <stop
         stop-color="#373737"
         offset="0"
         id="stop7650" />
      <stop
         stop-color="#646464"
         offset="1"
         id="stop7652" />
    </linearGradient>
    <linearGradient
       id="a">
      <stop
         stop-color="#f9f9f9"
         offset="0"
         id="stop7655" />
      <stop
         stop-color="#dedede"
         offset="1"
         id="stop7657" />
    </linearGradient>
    <linearGradient
       id="i"
       x1="22.169"
       x2="34.169"
       y1="31.424"
       y2="31.424"
       gradientUnits="userSpaceOnUse"
       xlink:href="#a" />
    <linearGradient
       id="j"
       x1="34.169"
       x2="46.169"
       y1="43.424"
       y2="43.424"
       gradientUnits="userSpaceOnUse"
       xlink:href="#a" />
    <linearGradient
       id="k"
       x1="22.169"
       x2="34.169"
       y1="43.424"
       y2="43.424"
       gradientUnits="userSpaceOnUse"
       xlink:href="#b" />
    <linearGradient
       id="n"
       x1="34.169"
       x2="46.169"
       y1="31.424"
       y2="31.424"
       gradientUnits="userSpaceOnUse"
       xlink:href="#b" />
    <linearGradient
       id="m"
       x1="23.978"
       x2="32.368"
       y1="43.424"
       y2="43.424"
       gradientUnits="userSpaceOnUse"
       xlink:href="#c" />
    <linearGradient
       id="p"
       x1="35.978"
       x2="44.368"
       y1="31.424"
       y2="31.424"
       gradientUnits="userSpaceOnUse"
       xlink:href="#c" />
    <linearGradient
       id="d"
       x1="7.937"
       x2="7.937"
       y1="15.081"
       y2="1.852"
       gradientTransform="translate(0 .032) scale(3.7795)"
       gradientUnits="userSpaceOnUse">
      <stop
         stop-color="#292929"
         offset="0"
         id="stop7666"
         style="stop-color:#1a1a1a;stop-opacity:1;" />
      <stop
         stop-color="#4d4d4d"
         offset="1"
         id="stop7668"
         style="stop-color:#404040;stop-opacity:1;" />
    </linearGradient>
    <filter
       id="e"
       x="-0.12"
       y="-0.12"
       width="1.24"
       height="1.24"
       color-interpolation-filters="sRGB">
      <feGaussianBlur
         stdDeviation=".6"
         id="feGaussianBlur7671" />
    </filter>
    <filter
       id="f"
       x="-0.12"
       y="-0.12"
       width="1.24"
       height="1.24"
       color-interpolation-filters="sRGB">
      <feGaussianBlur
         stdDeviation=".6"
         id="feGaussianBlur7674" />
    </filter>
    <filter
       id="g"
       x="-0.12"
       y="-0.12"
       width="1.24"
       height="1.24"
       color-interpolation-filters="sRGB">
      <feGaussianBlur
         stdDeviation=".6"
         id="feGaussianBlur7677" />
    </filter>
    <filter
       id="h"
       x="-0.12"
       y="-0.12"
       width="1.24"
       height="1.24"
       color-interpolation-filters="sRGB">
      <feGaussianBlur
         stdDeviation=".6"
         id="feGaussianBlur7680" />
    </filter>
    <filter
       id="l"
       x="-0.14445769"
       y="-0.1515"
       width="1.2889154"
       height="1.303"
       color-interpolation-filters="sRGB">
      <feGaussianBlur
         stdDeviation=".505"
         id="feGaussianBlur7683" />
    </filter>
    <filter
       id="o"
       x="-0.14445769"
       y="-0.1515"
       width="1.2889154"
       height="1.303"
       color-interpolation-filters="sRGB">
      <feGaussianBlur
         stdDeviation=".505"
         id="feGaussianBlur7686" />
    </filter>
  </defs>
  <g
     color="#000"
     id="g7701">
    <path
       d="M4.37.53C2.254.53.53 2.312.53 4.496v8.468c0 2.184 1.725 3.968 3.84 3.968h8.194c2.114 0 3.84-1.783 3.84-3.968V4.497c0-2.184-1.726-3.968-3.84-3.968zm.256.52h7.681c1.844 0 3.33 1.534 3.33 3.44v7.937c0 1.906-1.485 3.44-3.33 3.44h-7.68c-1.845 0-3.33-1.534-3.33-3.44V4.49c0-1.906 1.485-3.44 3.33-3.44z"
       opacity=".01"
       style="font-feature-settings:normal;font-variant-alternates:normal;font-variant-caps:normal;font-variant-east-asian:normal;font-variant-ligatures:normal;font-variant-numeric:normal;font-variant-position:normal;font-variation-settings:normal;inline-size:0;isolation:auto;mix-blend-mode:normal;shape-margin:0;shape-padding:0;text-decoration-color:#000;text-decoration-line:none;text-decoration-style:solid;text-indent:0;text-orientation:mixed;text-transform:none;white-space:normal"
       transform="scale(3.7796)"
       id="path7691" />
    <path
       d="M4.359.794C2.392.794.795 2.447.795 4.48v8.5c0 2.035 1.597 3.688 3.564 3.688h8.216c1.967 0 3.564-1.653 3.564-3.688v-8.5c0-2.034-1.597-3.687-3.564-3.687zm.272.256h7.672c1.842 0 3.325 1.534 3.325 3.44v7.937c0 1.906-1.483 3.44-3.325 3.44H4.63c-1.842 0-3.325-1.534-3.325-3.44V4.49c0-1.906 1.483-3.44 3.325-3.44z"
       opacity=".01"
       style="font-feature-settings:normal;font-variant-alternates:normal;font-variant-caps:normal;font-variant-east-asian:normal;font-variant-ligatures:normal;font-variant-numeric:normal;font-variant-position:normal;font-variation-settings:normal;inline-size:0;isolation:auto;mix-blend-mode:normal;shape-margin:0;shape-padding:0;text-decoration-color:#000;text-decoration-line:none;text-decoration-style:solid;text-indent:0;text-orientation:mixed;text-transform:none;white-space:normal"
       transform="scale(3.7796)"
       id="path7693" />
    <path
       d="M4.31 1.058c-1.866 0-3.375 1.539-3.375 3.44v8.467c0 1.9 1.57 3.439 3.435 3.439h8.2c1.866 0 3.427-1.538 3.427-3.44V4.498c0-1.9-1.51-3.439-3.375-3.439h-.097c1.794.087 3.214 1.582 3.214 3.432v7.937c0 1.906-1.506 3.44-3.377 3.44h-7.79c-1.871 0-3.377-1.534-3.377-3.44V4.49c0-1.85 1.42-3.345 3.214-3.432z"
       opacity=".03"
       style="font-feature-settings:normal;font-variant-alternates:normal;font-variant-caps:normal;font-variant-east-asian:normal;font-variant-ligatures:normal;font-variant-numeric:normal;font-variant-position:normal;font-variation-settings:normal;inline-size:0;isolation:auto;mix-blend-mode:normal;shape-margin:0;shape-padding:0;text-decoration-color:#000;text-decoration-line:none;text-decoration-style:solid;text-indent:0;text-orientation:mixed;text-transform:none;white-space:normal"
       transform="scale(3.7796)"
       id="path7695" />
    <path
       d="M4 46.969V49c0 6.648 5.896 12 12.544 12h30.961C54.153 61 60 55.648 60 49v-1.992a12.972 12.972 0 0 1-13 12.963H17.002A12.973 12.973 0 0 1 4 46.969z"
       opacity=".03"
       style="font-feature-settings:normal;font-variant-alternates:normal;font-variant-caps:normal;font-variant-east-asian:normal;font-variant-ligatures:normal;font-variant-numeric:normal;font-variant-position:normal;font-variation-settings:normal;inline-size:0;isolation:auto;mix-blend-mode:normal;shape-margin:0;shape-padding:0;text-decoration-color:#000;text-decoration-line:none;text-decoration-style:solid;text-indent:0;text-orientation:mixed;text-transform:none;white-space:normal"
       id="path7697" />
    <path
       d="M1.058 11.906v.592c0 1.939 1.573 3.5 3.332 3.5h8.16c1.76 0 3.325-1.561 3.325-3.5v-.58c-.006 2.095-1.537 3.78-3.44 3.78H4.498c-1.905 0-3.44-1.692-3.44-3.792z"
       opacity=".05"
       style="font-feature-settings:normal;font-variant-alternates:normal;font-variant-caps:normal;font-variant-east-asian:normal;font-variant-ligatures:normal;font-variant-numeric:normal;font-variant-position:normal;font-variation-settings:normal;inline-size:0;isolation:auto;mix-blend-mode:normal;shape-margin:0;shape-padding:0;text-decoration-color:#000;text-decoration-line:none;text-decoration-style:solid;text-indent:0;text-orientation:mixed;text-transform:none;white-space:normal"
       transform="scale(3.7796)"
       id="path7699" />
  </g>
  <rect
     x="4"
     y="4"
     width="56"
     height="56"
     rx="13.002"
     ry="13.002"
     fill="url(#d)"
     id="rect7703" />
  <path
     d="M34.169 31.424c0 3.313-2.688 6-6 6-3.313 0-6-2.688-6-6 0-3.313 2.688-6 6-6 3.313 0 6 2.688 6 6"
     filter="url(#e)"
     opacity=".25"
     transform="translate(-13.559 -17.898) scale(1.3333)"
     id="path7705" />
  <path
     d="M46.169 43.424c0 3.313-2.688 6-6 6-3.313 0-6-2.688-6-6 0-3.313 2.688-6 6-6 3.313 0 6 2.688 6 6"
     filter="url(#f)"
     opacity=".25"
     transform="translate(-13.559 -17.898) scale(1.3333)"
     id="path7707" />
  <path
     d="M34.169 43.424c0 3.313-2.688 6-6 6-3.313 0-6-2.688-6-6 0-3.313 2.688-6 6-6 3.313 0 6 2.688 6 6"
     filter="url(#g)"
     opacity=".25"
     transform="translate(-13.559 -17.898) scale(1.3333)"
     id="path7709" />
  <path
     d="M46.169 31.424c0 3.313-2.688 6-6 6-3.313 0-6-2.688-6-6 0-3.313 2.688-6 6-6 3.313 0 6 2.688 6 6"
     filter="url(#h)"
     opacity=".25"
     transform="translate(-13.559 -17.898) scale(1.3333)"
     id="path7711" />
  <path
     d="M34.169 31.424c0 3.313-2.688 6-6 6-3.313 0-6-2.688-6-6 0-3.313 2.688-6 6-6 3.313 0 6 2.688 6 6"
     fill="url(#i)"
     transform="translate(-13.559 -17.898) scale(1.3333)"
     id="path7713" />
  <path
     d="M46.169 43.424c0 3.313-2.688 6-6 6-3.313 0-6-2.688-6-6 0-3.313 2.688-6 6-6 3.313 0 6 2.688 6 6"
     fill="url(#j)"
     transform="translate(-13.559 -17.898) scale(1.3333)"
     id="path7715" />
  <path
     d="M34.169 43.424c0 3.313-2.688 6-6 6-3.313 0-6-2.688-6-6 0-3.313 2.688-6 6-6 3.313 0 6 2.688 6 6"
     fill="url(#k)"
     transform="translate(-13.559 -17.898) scale(1.3333)"
     id="path7717" />
  <path
     d="m30.724 47.424-2.582-1.383-2.602 1.34.52-2.883-2.082-2.059 2.902-.398 1.316-2.617 1.277 2.637 2.895.445-2.117 2.027"
     filter="url(#l)"
     opacity=".25"
     transform="translate(-13.559 -17.898) scale(1.3333)"
     id="path7719" />
  <path
     d="m30.724 47.424-2.582-1.383-2.602 1.34.52-2.883-2.082-2.059 2.902-.398 1.316-2.617 1.277 2.637 2.895.445-2.117 2.027"
     fill="url(#m)"
     transform="translate(-13.559 -17.898) scale(1.3333)"
     id="path7721" />
  <path
     d="M46.169 31.424c0 3.313-2.688 6-6 6-3.313 0-6-2.688-6-6 0-3.313 2.688-6 6-6 3.313 0 6 2.688 6 6"
     fill="url(#n)"
     transform="translate(-13.559 -17.898) scale(1.3333)"
     id="path7723" />
  <path
     d="m42.724 35.424-2.582-1.383-2.602 1.34.52-2.883-2.082-2.059 2.902-.398 1.316-2.617 1.277 2.637 2.895.445-2.117 2.027"
     filter="url(#o)"
     opacity=".25"
     transform="translate(-13.559 -17.898) scale(1.3333)"
     id="path7725" />
  <path
     d="m42.724 35.424-2.582-1.383-2.602 1.34.52-2.883-2.082-2.059 2.902-.398 1.316-2.617 1.277 2.637 2.895.445-2.117 2.027"
     fill="url(#p)"
     transform="translate(-13.559 -17.898) scale(1.3333)"
     id="path7727" />
</svg>
