<?xml version="1.0" encoding="UTF-8" standalone="no"?>
<!-- Created with Inkscape (http://www.inkscape.org/) -->

<svg
   xmlns:dc="http://purl.org/dc/elements/1.1/"
   xmlns:cc="http://creativecommons.org/ns#"
   xmlns:rdf="http://www.w3.org/1999/02/22-rdf-syntax-ns#"
   xmlns:svg="http://www.w3.org/2000/svg"
   xmlns="http://www.w3.org/2000/svg"
   xmlns:xlink="http://www.w3.org/1999/xlink"
   xmlns:sodipodi="http://sodipodi.sourceforge.net/DTD/sodipodi-0.dtd"
   xmlns:inkscape="http://www.inkscape.org/namespaces/inkscape"
   width="96"
   height="96"
   id="svg16495"
   version="1.1"
   inkscape:version="0.48.4 r9939"
   sodipodi:docname="im-aim.svg">
  <defs
     id="defs16497">
    <linearGradient
       id="linearGradient3028"
       inkscape:collect="always">
      <stop
         id="stop3030"
         offset="0"
         style="stop-color:#94c7ce;stop-opacity:1" />
      <stop
         id="stop3032"
         offset="1"
         style="stop-color:#e7f3f7;stop-opacity:1" />
    </linearGradient>
    <linearGradient
       inkscape:collect="always"
       id="linearGradient3014">
      <stop
         style="stop-color:#def3f7;stop-opacity:1"
         offset="0"
         id="stop3016" />
      <stop
         style="stop-color:#c6e7ef;stop-opacity:1"
         offset="1"
         id="stop3018" />
    </linearGradient>
    <radialGradient
       inkscape:collect="always"
       xlink:href="#linearGradient1147-8-0"
       id="radialGradient11016"
       gradientUnits="userSpaceOnUse"
       gradientTransform="matrix(13.286575,0,0,13.286566,-8379.7115,13175.693)"
       cx="781.42499"
       cy="-840.3576"
       fx="781.42499"
       fy="-840.3576"
       r="16.233601" />
    <linearGradient
       id="linearGradient1147-8-0"
       inkscape:collect="always">
      <stop
         id="stop1149-2-1"
         offset="0"
         style="stop-color:#ffffff;stop-opacity:1;" />
      <stop
         id="stop1151-8-4"
         offset="1"
         style="stop-color:#ffffff;stop-opacity:0;" />
    </linearGradient>
    <radialGradient
       inkscape:collect="always"
       xlink:href="#linearGradient1147-8-0"
       id="radialGradient19192"
       gradientUnits="userSpaceOnUse"
       gradientTransform="matrix(13.286575,0,0,13.286566,-8379.7115,13175.693)"
       cx="781.42499"
       cy="-840.3576"
       fx="781.42499"
       fy="-840.3576"
       r="16.233601" />
    <radialGradient
       inkscape:collect="always"
       xlink:href="#linearGradient3014"
       id="radialGradient3024"
       gradientUnits="userSpaceOnUse"
       gradientTransform="matrix(-0.90292011,-0.90292011,0.9089112,-0.9089112,-1026.9317,1924.22)"
       cx="-12.209522"
       cy="1061.9935"
       fx="-12.209522"
       fy="1061.9935"
       r="42" />
    <linearGradient
       inkscape:collect="always"
       xlink:href="#linearGradient3028"
       id="linearGradient3026"
       x1="-6.7857141"
       y1="1001.6479"
       x2="-6.7857141"
       y2="975.20422"
       gradientUnits="userSpaceOnUse" />
  </defs>
  <sodipodi:namedview
     id="base"
     pagecolor="#ffffff"
     bordercolor="#666666"
     borderopacity="1.0"
     inkscape:pageopacity="0.0"
     inkscape:pageshadow="2"
     inkscape:zoom="0.7"
     inkscape:cx="476.739"
     inkscape:cy="-153.59859"
     inkscape:document-units="px"
     inkscape:current-layer="layer1"
     showgrid="false"
     inkscape:window-width="1366"
     inkscape:window-height="719"
     inkscape:window-x="0"
     inkscape:window-y="25"
     inkscape:window-maximized="1" />
  <metadata
     id="metadata16500">
    <rdf:RDF>
      <cc:Work
         rdf:about="">
        <dc:format>image/svg+xml</dc:format>
        <dc:type
           rdf:resource="http://purl.org/dc/dcmitype/StillImage" />
        <dc:title />
      </cc:Work>
    </rdf:RDF>
  </metadata>
  <g
     inkscape:label="Layer 1"
     inkscape:groupmode="layer"
     id="layer1"
     transform="translate(0,-956.36217)">
    <g
       id="g3033"
       transform="matrix(-1,0,0,1,96,-1.0000126)">
      <rect
         ry="10.595235"
         rx="10.595235"
         y="961.86218"
         x="3.5"
         height="89"
         width="89"
         id="rect3826"
         style="opacity:0.05;fill:#000000;fill-opacity:1;stroke:none" />
      <rect
         style="opacity:0.05;fill:#000000;fill-opacity:1;stroke:none"
         id="rect3824"
         width="88"
         height="88"
         x="4"
         y="962.36218"
         rx="10.476188"
         ry="10.476188" />
      <rect
         ry="10.357141"
         rx="10.357141"
         y="962.86218"
         x="4.5"
         height="87"
         width="87"
         id="rect3822"
         style="opacity:0.05;fill:#000000;fill-opacity:1;stroke:none" />
      <rect
         style="opacity:0.1;fill:#000000;fill-opacity:1;stroke:none"
         id="rect3820"
         width="86"
         height="86"
         x="5"
         y="963.36218"
         rx="10.238094"
         ry="10.238094" />
      <rect
         ry="10.119047"
         rx="10.119047"
         y="963.86218"
         x="5.5"
         height="85"
         width="85"
         id="rect3818"
         style="opacity:0.1;fill:#000000;fill-opacity:1;stroke:none" />
      <rect
         style="opacity:0.3;fill:#000000;fill-opacity:1;stroke:none"
         id="rect3131"
         width="84"
         height="84"
         x="6"
         y="964.36218"
         rx="10"
         ry="10" />
    </g>
    <rect
       ry="10"
       rx="10"
       y="962.36218"
       x="-90"
       height="84"
       width="84"
       id="rect3036"
       style="fill:url(#linearGradient3026);fill-opacity:1;stroke:none"
       transform="scale(-1,1)" />
    <rect
       transform="scale(-1,1)"
       style="fill:url(#radialGradient3024);fill-opacity:1;stroke:none"
       id="rect3022"
       width="82"
       height="82"
       x="-89"
       y="963.36218"
       rx="9.7619047"
       ry="9.7619047" />
    <path
       id="path3021"
       d="m 46.625026,984.64358 c -0.264966,0.0115 -0.54177,0.0658 -0.8125,0.125 -2.165845,0.47357 -3.588794,2.32081 -3.1875,4.15625 0.401294,1.83544 2.490408,2.94233 4.65625,2.46875 2.165844,-0.47357 3.588794,-2.35205 3.1875,-4.1875 -0.351132,-1.60593 -1.988987,-2.64329 -3.84375,-2.5625 z m -19.875,7.40625 c -3.170031,0.0635 -6.496762,0.91642 -8.375,2.21875 -3.823599,2.52215 -5.638981,5.29348 -6.90625,10.03132 -0.493097,2.4191 -0.413385,4.9289 -0.0625,7.4687 0.630971,3.0219 2.06795,4.849 4.1875,6.1563 1.650828,1.0182 3.903733,1.2679 5.78125,0.7812 2.638157,-0.8224 4.367835,-2.3101 5.5,-4.0937 0.416551,3.1188 2.686165,4.5771 6.53125,3.5625 1.704662,-0.9197 2.48055,-2.3201 2.5625,-4.0938 -2.436695,0.8528 -3.502061,-0.1012 -4.15625,-1.625 -0.295846,-0.8801 -0.434667,-1.6809 0.0625,-2.9687 l 1.40625,-4.9688 c 0.288381,-1.0894 0.211271,-2.4233 -0.75,-3 l -2.5625,-1.0312 c -1.441907,-0.3526 -1.713203,0.6558 -1.9375,1.9375 l -0.78125,4.2187 c -0.501109,2.4375 -1.184309,5.0288 -3.78125,6.125 -2.233629,0.9263 -4.553389,0.8068 -5.78125,-0.9375 -1.696935,-2.647 -1.298589,-8.4779 1.21875,-11.125 4.586853,-4.94404 11.37403,-4.40329 17.09375,-0.375 0.147648,-3.34673 -0.666277,-5.06589 -2.875,-6.78127 -1.544901,-1.11794 -3.909421,-1.54938 -6.375,-1.5 z m 28.0625,2.8125 c -2.478087,0 -4.908838,1.77246 -5.5625,4.65623 2.406743,-0.60978 4.91343,0.091 4.53125,2.12504 l -2.625,14.5 c -0.300035,0.913 0.263382,2.0821 1.09375,2.0938 l 3.34375,0 c 0.851991,0 1.129243,-0.7751 1.5,-2.2813 l 1.96875,-10.1875 c 0.593335,-2.012 1.693829,-3.6236 3.3125,-4.7812 0.694738,-0.5027 1.671177,-0.6292 2.4375,0 1.32644,1.1331 1.327918,2.7351 1.03125,4.6562 l -2.21875,10.8438 c -0.212626,1.0726 0.345105,1.7044 1.09375,1.6875 l 3.5,0.094 c 0.629125,-0.1256 1.070261,-0.7278 1.21875,-1.7187 0.601405,-4.2328 1.540846,-9.8446 2.53125,-12.0313 1.188378,-2.2879 2.396444,-3.568 3.96875,-4.0312 1.830662,-0.3127 3.178323,2.0472 2.8125,4.3125 l -1.625,8.125 c -0.24327,1.7222 0.07019,3.2893 1.53125,4.5 1.441765,1.2023 3.091741,1.4908 4.875,1.1562 2.236683,-0.5162 3.04625,-2.3386 3.59375,-4.375 -2.196435,0.8921 -3.433298,0.5309 -4.09375,-0.625 -0.68357,-1.1963 0.658214,-5.9781 1,-8.9687 0.572118,-3.2936 0.129598,-6.84678 -1.28125,-8.09382 -2.060455,-1.80105 -5.385083,-1.48204 -6.65625,-0.78125 -1.532047,0.76489 -3.498748,2.45579 -4.625,4.03123 0.0202,-1.91162 -1.516502,-4.39904 -3.71875,-4.65623 -4.229342,-0.40994 -6.134768,1.88849 -8.65625,4.15623 0.229923,-2.31766 -1.803161,-4.40623 -4.28125,-4.40623 z m -11.09375,0.0625 c -1.298718,0 -2.261851,0.33532 -2.625,1.9375 l -2.28125,10.93757 c -0.789123,2.9894 -0.451561,6.1107 -0.0625,7.4687 0.553439,1.6442 1.723823,2.9126 2.75,3.1875 1.143766,0.3305 2.02723,0.2395 2.875,0.062 1.917037,-0.5438 3.61222,-2.5146 3.53125,-4.375 l -2.0625,0 c -0.866858,0 -2.1875,-0.6938 -2.1875,-2.1562 0.561517,-5.1251 2.279657,-10.1216 3.53125,-15.15632 0.138849,-0.95058 -0.391349,-1.90625 -1.40625,-1.90625 l -2.0625,0 z"
       style="opacity:0.5;fill:#ffffff;stroke:none"
       inkscape:connector-curvature="0" />
    <path
       style="fill:#107584;stroke:none;fill-opacity:1"
       d="M 45.625 27.28125 C 45.360034 27.292791 45.08323 27.347064 44.8125 27.40625 C 42.646655 27.87982 41.223706 29.72706 41.625 31.5625 C 42.026294 33.39794 44.115408 34.50483 46.28125 34.03125 C 48.447094 33.55768 49.870044 31.6792 49.46875 29.84375 C 49.117618 28.237819 47.479763 27.200463 45.625 27.28125 z M 25.75 34.6875 C 22.579969 34.750984 19.253238 35.603922 17.375 36.90625 C 13.551401 39.4284 11.736019 42.19972 10.46875 46.9375 C 9.9756527 49.3566 10.055365 51.86645 10.40625 54.40625 C 11.037221 57.42815 12.4742 59.2552 14.59375 60.5625 C 16.244578 61.5807 18.497483 61.83045 20.375 61.34375 C 23.013157 60.52135 24.742835 59.0336 25.875 57.25 C 26.291551 60.3688 28.561165 61.8271 32.40625 60.8125 C 34.110912 59.8928 34.8868 58.49245 34.96875 56.71875 C 32.532055 57.57155 31.466689 56.61755 30.8125 55.09375 C 30.516654 54.21365 30.377833 53.4128 30.875 52.125 L 32.28125 47.15625 C 32.569631 46.06685 32.492521 44.73295 31.53125 44.15625 L 28.96875 43.125 C 27.526843 42.77248 27.255547 43.7808 27.03125 45.0625 L 26.25 49.28125 C 25.748891 51.71875 25.065691 54.31005 22.46875 55.40625 C 20.235121 56.33255 17.915361 56.21305 16.6875 54.46875 C 14.990565 51.82175 15.388911 45.99088 17.90625 43.34375 C 22.493103 38.39973 29.28028 38.94048 35 42.96875 C 35.147648 39.62204 34.333723 37.90288 32.125 36.1875 C 30.580099 35.069565 28.215579 34.638123 25.75 34.6875 z M 53.8125 37.5 C 51.334413 37.5 48.903662 39.27246 48.25 42.15625 C 50.656743 41.54645 53.16343 42.24718 52.78125 44.28125 L 50.15625 58.78125 C 49.856215 59.69425 50.419632 60.8633 51.25 60.875 L 54.59375 60.875 C 55.445741 60.875 55.722993 60.09995 56.09375 58.59375 L 58.0625 48.40625 C 58.655835 46.39425 59.756329 44.78262 61.375 43.625 C 62.069738 43.12235 63.046177 42.99588 63.8125 43.625 C 65.13894 44.75812 65.140418 46.36015 64.84375 48.28125 L 62.625 59.125 C 62.412374 60.1976 62.970105 60.8294 63.71875 60.8125 L 67.21875 60.90625 C 67.847875 60.78065 68.289011 60.1784 68.4375 59.1875 C 69.038905 54.9547 69.978346 49.34295 70.96875 47.15625 C 72.157128 44.86835 73.365194 43.58828 74.9375 43.125 C 76.768162 42.81238 78.115823 45.1722 77.75 47.4375 L 76.125 55.5625 C 75.88173 57.2847 76.195187 58.8518 77.65625 60.0625 C 79.098015 61.2648 80.747991 61.55335 82.53125 61.21875 C 84.767933 60.70255 85.5775 58.88015 86.125 56.84375 C 83.928565 57.73585 82.691702 57.37465 82.03125 56.21875 C 81.34768 55.02245 82.689464 50.2406 83.03125 47.25 C 83.603368 43.9564 83.160848 40.40329 81.75 39.15625 C 79.689545 37.3552 76.364917 37.67421 75.09375 38.375 C 73.561703 39.13989 71.595002 40.83079 70.46875 42.40625 C 70.48895 40.49461 68.952248 38.00719 66.75 37.75 C 62.520658 37.34006 60.615232 39.63849 58.09375 41.90625 C 58.323673 39.58857 56.290589 37.5 53.8125 37.5 z M 42.71875 37.5625 C 41.420032 37.5625 40.456899 37.89782 40.09375 39.5 L 37.8125 50.4375 C 37.023377 53.4269 37.360939 56.54825 37.75 57.90625 C 38.303439 59.55045 39.473823 60.81885 40.5 61.09375 C 41.643766 61.42425 42.52723 61.33325 43.375 61.15625 C 45.292037 60.61245 46.98722 58.64165 46.90625 56.78125 L 44.84375 56.78125 C 43.976892 56.78125 42.65625 56.0874 42.65625 54.625 C 43.217767 49.4999 44.935907 44.50347 46.1875 39.46875 C 46.326349 38.51817 45.796151 37.5625 44.78125 37.5625 L 42.71875 37.5625 z "
       id="path3016"
       transform="translate(0,956.36217)" />
    <rect
       transform="scale(-1,1)"
       style="fill:#de6100;fill-opacity:1;stroke:none"
       id="rect3006"
       width="84"
       height="84"
       x="17.142857"
       y="962.36218"
       rx="10"
       ry="10" />
    <rect
       transform="scale(-1,1)"
       style="fill:#107584;fill-opacity:1;stroke:none"
       id="rect3008"
       width="84"
       height="84"
       x="116.42857"
       y="962.36218"
       rx="10"
       ry="10" />
    <path
       inkscape:connector-curvature="0"
       style="opacity:0.2;fill:#000000;stroke:none"
       d="m -61.232117,984.64358 c -0.264966,0.0115 -0.54177,0.0658 -0.8125,0.125 -2.165845,0.47357 -3.588794,2.32081 -3.1875,4.15625 0.401294,1.83544 2.490408,2.94233 4.65625,2.46875 2.165844,-0.47357 3.588794,-2.35205 3.1875,-4.1875 -0.351132,-1.60593 -1.988987,-2.64329 -3.84375,-2.5625 z m -19.875,7.40625 c -3.170031,0.0635 -6.496762,0.91642 -8.375,2.21875 -3.823599,2.52215 -5.638981,5.29348 -6.90625,10.03132 -0.493097,2.4191 -0.413385,4.9289 -0.0625,7.4687 0.630971,3.0219 2.06795,4.849 4.1875,6.1563 1.650828,1.0182 3.903733,1.2679 5.78125,0.7812 2.638157,-0.8224 4.367835,-2.3101 5.5,-4.0937 0.416551,3.1188 2.686165,4.5771 6.53125,3.5625 1.704662,-0.9197 2.48055,-2.3201 2.5625,-4.0938 -2.436695,0.8528 -3.502061,-0.1012 -4.15625,-1.625 -0.295846,-0.8801 -0.434667,-1.6809 0.0625,-2.9687 l 1.40625,-4.9688 c 0.288381,-1.0894 0.211271,-2.4233 -0.75,-3 l -2.5625,-1.0312 c -1.441907,-0.3526 -1.713203,0.6558 -1.9375,1.9375 l -0.78125,4.2187 c -0.501109,2.4375 -1.184309,5.0288 -3.78125,6.125 -2.233629,0.9263 -4.553389,0.8068 -5.78125,-0.9375 -1.696935,-2.647 -1.298589,-8.4779 1.21875,-11.125 4.586853,-4.94404 11.37403,-4.40329 17.09375,-0.375 0.147648,-3.34673 -0.666277,-5.06589 -2.875,-6.78127 -1.544901,-1.11794 -3.909421,-1.54938 -6.375,-1.5 z m 28.0625,2.8125 c -2.478087,0 -4.908838,1.77246 -5.5625,4.65623 2.406743,-0.60978 4.91343,0.091 4.53125,2.12504 l -2.625,14.5 c -0.300035,0.913 0.263382,2.0821 1.09375,2.0938 l 3.34375,0 c 0.851991,0 1.129243,-0.7751 1.5,-2.2813 l 1.96875,-10.1875 c 0.593335,-2.012 1.693829,-3.6236 3.3125,-4.7812 0.694738,-0.5027 1.671177,-0.6292 2.4375,0 1.32644,1.1331 1.327918,2.7351 1.03125,4.6562 l -2.21875,10.8438 c -0.212626,1.0726 0.345105,1.7044 1.09375,1.6875 l 3.5,0.094 c 0.629125,-0.1256 1.070261,-0.7278 1.21875,-1.7187 0.601405,-4.2328 1.540846,-9.8446 2.53125,-12.0313 1.188378,-2.2879 2.396444,-3.568 3.96875,-4.0312 1.830662,-0.3127 3.178323,2.0472 2.8125,4.3125 l -1.625,8.125 c -0.24327,1.7222 0.07019,3.2893 1.53125,4.5 1.441765,1.2023 3.091741,1.4908 4.875,1.1562 2.236683,-0.5162 3.04625,-2.3386 3.59375,-4.375 -2.196435,0.8921 -3.433298,0.5309 -4.09375,-0.625 -0.68357,-1.1963 0.658214,-5.9781 1,-8.9687 0.572118,-3.2936 0.129598,-6.84678 -1.28125,-8.09382 -2.060455,-1.80105 -5.385083,-1.48204 -6.65625,-0.78125 -1.532047,0.76489 -3.498748,2.45579 -4.625,4.03123 0.0202,-1.91162 -1.516502,-4.39904 -3.71875,-4.65623 -4.229342,-0.40994 -6.134768,1.88849 -8.65625,4.15623 0.229923,-2.31766 -1.803161,-4.40623 -4.28125,-4.40623 z m -11.09375,0.0625 c -1.298718,0 -2.261851,0.33532 -2.625,1.9375 l -2.28125,10.93757 c -0.789123,2.9894 -0.451561,6.1107 -0.0625,7.4687 0.553439,1.6442 1.723823,2.9126 2.75,3.1875 1.143766,0.3305 2.02723,0.2395 2.875,0.062 1.917037,-0.5438 3.61222,-2.5146 3.53125,-4.375 l -2.0625,0 c -0.866858,0 -2.1875,-0.6938 -2.1875,-2.1562 0.561517,-5.1251 2.279657,-10.1216 3.53125,-15.15632 0.138849,-0.95058 -0.391349,-1.90625 -1.40625,-1.90625 l -2.0625,0 z"
       id="path3010" />
    <path
       id="path3012"
       d="m -62.232143,983.64342 c -0.264966,0.0115 -0.54177,0.0658 -0.8125,0.125 -2.165845,0.47357 -3.588794,2.32081 -3.1875,4.15625 0.401294,1.83544 2.490408,2.94233 4.65625,2.46875 2.165844,-0.47357 3.588794,-2.35205 3.1875,-4.1875 -0.351132,-1.60593 -1.988987,-2.64329 -3.84375,-2.5625 z m -19.875,7.40625 c -3.170031,0.0635 -6.496762,0.91642 -8.375,2.21875 -3.823599,2.52215 -5.638981,5.29347 -6.90625,10.03128 -0.493097,2.4191 -0.413385,4.9289 -0.0625,7.4687 0.630971,3.0219 2.06795,4.849 4.1875,6.1563 1.650828,1.0182 3.903733,1.2679 5.78125,0.7812 2.638157,-0.8224 4.367835,-2.3101 5.5,-4.0937 0.416551,3.1188 2.686165,4.5771 6.53125,3.5625 1.704662,-0.9197 2.48055,-2.3201 2.5625,-4.0938 -2.436695,0.8528 -3.502061,-0.1012 -4.15625,-1.625 -0.295846,-0.8801 -0.434667,-1.6809 0.0625,-2.9687 l 1.40625,-4.9688 c 0.288381,-1.0894 0.211271,-2.4233 -0.75,-3 l -2.5625,-1.03123 c -1.441907,-0.35252 -1.713203,0.65583 -1.9375,1.93753 l -0.78125,4.2187 c -0.501109,2.4375 -1.184309,5.0288 -3.78125,6.125 -2.233629,0.9263 -4.553389,0.8068 -5.78125,-0.9375 -1.696935,-2.647 -1.298589,-8.4779 1.21875,-11.12498 4.586853,-4.94402 11.37403,-4.40327 17.09375,-0.375 0.147648,-3.34671 -0.666277,-5.06587 -2.875,-6.78125 -1.544901,-1.11794 -3.909421,-1.54938 -6.375,-1.5 z m 28.0625,2.8125 c -2.478087,0 -4.908838,1.77246 -5.5625,4.65625 2.406743,-0.6098 4.91343,0.0909 4.53125,2.12498 l -2.625,14.5 c -0.300035,0.913 0.263382,2.0821 1.09375,2.0938 l 3.34375,0 c 0.851991,0 1.129243,-0.7751 1.5,-2.2813 l 1.96875,-10.1875 c 0.593335,-2.012 1.693829,-3.6236 3.3125,-4.78123 0.694738,-0.50265 1.671177,-0.62912 2.4375,0 1.32644,1.13313 1.327918,2.73513 1.03125,4.65623 l -2.21875,10.8438 c -0.212626,1.0726 0.345105,1.7044 1.09375,1.6875 l 3.5,0.094 c 0.629125,-0.1256 1.070261,-0.7278 1.21875,-1.7187 0.601405,-4.2328 1.540846,-9.8446 2.53125,-12.0313 1.188378,-2.2879 2.396444,-3.56795 3.96875,-4.03123 1.830662,-0.31262 3.178323,2.04723 2.8125,4.31253 l -1.625,8.125 c -0.24327,1.7222 0.07019,3.2893 1.53125,4.5 1.441765,1.2023 3.091741,1.4908 4.875,1.1562 2.236683,-0.5162 3.04625,-2.3386 3.59375,-4.375 -2.196435,0.8921 -3.433298,0.5309 -4.09375,-0.625 -0.68357,-1.1963 0.658214,-5.9781 1,-8.9687 0.572118,-3.2936 0.129598,-6.84674 -1.28125,-8.09378 -2.060455,-1.80105 -5.385083,-1.48204 -6.65625,-0.78125 -1.532047,0.76489 -3.498748,2.45579 -4.625,4.03125 0.0202,-1.91164 -1.516502,-4.39906 -3.71875,-4.65625 -4.229342,-0.40994 -6.134768,1.88849 -8.65625,4.15625 0.229923,-2.31768 -1.803161,-4.40625 -4.28125,-4.40625 z m -11.09375,0.0625 c -1.298718,0 -2.261851,0.33532 -2.625,1.9375 l -2.28125,10.93753 c -0.789123,2.9894 -0.451561,6.1107 -0.0625,7.4687 0.553439,1.6442 1.723823,2.9126 2.75,3.1875 1.143766,0.3305 2.02723,0.2395 2.875,0.062 1.917037,-0.5438 3.61222,-2.5146 3.53125,-4.375 l -2.0625,0 c -0.866858,0 -2.1875,-0.6938 -2.1875,-2.1562 0.561517,-5.1251 2.279657,-10.1216 3.53125,-15.15628 0.138849,-0.95058 -0.391349,-1.90625 -1.40625,-1.90625 l -2.0625,0 z"
       style="fill:#ffffff;stroke:none"
       inkscape:connector-curvature="0" />
  </g>
</svg>
