<?xml version="1.0" encoding="UTF-8" standalone="no"?>
<!-- Created with Inkscape (http://www.inkscape.org/) -->

<svg
   width="64"
   height="64"
   viewBox="0 0 16.933333 16.933333"
   version="1.1"
   id="svg5"
   inkscape:version="1.1.1 (3bf5ae0d25, 2021-09-20, custom)"
   sodipodi:docname="instagram.svg"
   xmlns:inkscape="http://www.inkscape.org/namespaces/inkscape"
   xmlns:sodipodi="http://sodipodi.sourceforge.net/DTD/sodipodi-0.dtd"
   xmlns:xlink="http://www.w3.org/1999/xlink"
   xmlns="http://www.w3.org/2000/svg"
   xmlns:svg="http://www.w3.org/2000/svg">
  <sodipodi:namedview
     id="namedview7"
     pagecolor="#ffffff"
     bordercolor="#666666"
     borderopacity="1.0"
     inkscape:pageshadow="2"
     inkscape:pageopacity="0.0"
     inkscape:pagecheckerboard="0"
     inkscape:document-units="px"
     showgrid="false"
     units="px"
     height="48px"
     inkscape:zoom="5.656854"
     inkscape:cx="20.152544"
     inkscape:cy="54.358836"
     inkscape:window-width="1920"
     inkscape:window-height="1019"
     inkscape:window-x="0"
     inkscape:window-y="0"
     inkscape:window-maximized="1"
     inkscape:current-layer="svg5"
     inkscape:lockguides="true" />
  <defs
     id="defs2">
    <radialGradient
       fy="578.08801"
       fx="158.429"
       gradientTransform="matrix(0,-0.79264489,0.73742312,0,-406.48287,187.5679)"
       gradientUnits="userSpaceOnUse"
       xlink:href="#a"
       r="65"
       cy="578.08801"
       cx="158.429"
       id="c" />
    <linearGradient
       id="a">
      <stop
         id="stop9"
         stop-color="#fd5"
         offset="0" />
      <stop
         id="stop11"
         stop-color="#fd5"
         offset=".1" />
      <stop
         id="stop13"
         stop-color="#ff543e"
         offset=".5" />
      <stop
         id="stop15"
         stop-color="#c837ab"
         offset="1" />
    </linearGradient>
    <radialGradient
       fy="473.45499"
       fx="147.694"
       gradientTransform="matrix(0.06956311,0.34742348,-1.4324541,0.28681875,665.21829,-177.36317)"
       gradientUnits="userSpaceOnUse"
       xlink:href="#b"
       r="65"
       cy="473.45499"
       cx="147.694"
       id="d" />
    <linearGradient
       id="b">
      <stop
         id="stop2"
         stop-color="#3771c8"
         offset="0" />
      <stop
         id="stop4"
         offset=".128"
         stop-color="#3771c8" />
      <stop
         id="stop6"
         stop-opacity="0"
         stop-color="#60f"
         offset="1" />
    </linearGradient>
    <linearGradient
       inkscape:collect="always"
       xlink:href="#linearGradient37218"
       id="linearGradient1781"
       x1="2.8346456e-08"
       y1="2.2677165e-07"
       x2="64"
       y2="64"
       gradientUnits="userSpaceOnUse"
       gradientTransform="scale(0.26458333)" />
    <linearGradient
       inkscape:collect="always"
       id="linearGradient37218">
      <stop
         style="stop-color:#ffffff;stop-opacity:1"
         offset="0"
         id="stop37214" />
      <stop
         style="stop-color:#717171;stop-opacity:0.00392157"
         offset="0.49741825"
         id="stop37220" />
      <stop
         style="stop-color:#000000;stop-opacity:1"
         offset="1"
         id="stop37216" />
    </linearGradient>
  </defs>
  <path
     id="path22"
     style="fill:url(#c);stroke-width:0.399927"
     d="M 12 4 C 7.5680001 4 4 7.5680001 4 12 L 4 52 C 4 56.432 7.5680001 60 12 60 L 52 60 C 56.432 60 60 56.432 60 52 L 60 12 C 60 7.5680001 56.432 4 52 4 L 12 4 z "
     transform="scale(0.26458333)" />
  <path
     id="path24"
     style="fill:url(#d);stroke-width:0.399927"
     d="M 12 4 C 7.5680004 4 4 7.5680004 4 12 L 4 52 C 4 56.432003 7.5680004 60 12 60 L 52 60 C 56.432003 60 60 56.432003 60 52 L 60 12 C 60 7.5680004 56.432003 4 52 4 L 12 4 z "
     transform="scale(0.26458333)" />
  <path
     id="rect1345"
     style="opacity:0.3;fill:url(#linearGradient1781);fill-opacity:1;stroke-width:0.264583"
     d="m 3.1749996,1.0583333 c -1.1726333,0 -2.1166663,0.944034 -2.1166663,2.1166666 V 13.758333 c 0,1.172634 0.944033,2.116667 2.1166663,2.116667 H 13.758334 c 1.172632,0 2.116666,-0.944033 2.116666,-2.116667 V 3.1749999 c 0,-1.1726326 -0.944034,-2.1166666 -2.116666,-2.1166666 z m 0,0.264584 H 13.758334 c 1.026054,0 1.852083,0.826029 1.852083,1.8520826 V 13.758333 c 0,1.026054 -0.826029,1.852084 -1.852083,1.852084 H 3.1749996 c -1.0260543,0 -1.8520833,-0.82603 -1.8520833,-1.852084 V 3.1749999 c 0,-1.0260536 0.826029,-1.8520826 1.8520833,-1.8520826 z" />
  <path
     style="stroke-width:0.110244"
     id="path26"
     d="m 8.46716,3.1750001 c -1.437143,0 -1.6175025,0.00629 -2.1819526,0.031971 C 5.7218598,3.2327679 5.3373285,3.3219555 5.0008632,3.4528154 4.6528224,3.5879746 4.3575885,3.7687751 4.063457,4.0630167 3.769105,4.3571481 3.5883046,4.6523821 3.4527043,5.0003126 3.3215138,5.3368881 3.2322159,5.7215301 3.2068599,6.2846573 c -0.025247,0.5644501 -0.03186,0.7449197 -0.03186,2.1820626 0,1.4371434 0.00639,1.6169501 0.031971,2.1814001 0.025908,0.563348 0.1150941,0.947879 0.2458445,1.284344 0.1352693,0.348042 0.3160699,0.643275 0.6103117,0.937407 0.294021,0.294352 0.5892549,0.475594 0.9370753,0.610752 0.3366857,0.13086 0.7213276,0.220049 1.2845652,0.245845 0.5644501,0.02568 0.7446995,0.03197 2.1817317,0.03197 1.4372534,0 1.6170617,-0.0063 2.1815127,-0.03197 0.563347,-0.0258 0.94832,-0.114985 1.285005,-0.245845 0.347931,-0.135158 0.642723,-0.3164 0.936745,-0.610752 0.294352,-0.294132 0.475153,-0.589365 0.610752,-0.937296 0.130088,-0.336576 0.219387,-0.721217 0.245845,-1.284344 0.02536,-0.56445 0.03197,-0.7443677 0.03197,-2.1815111 0,-1.4371429 -0.0067,-1.6175024 -0.03197,-2.1819525 C 13.6999,5.72142 13.610601,5.3368881 13.480513,5.0004229 13.344914,4.6523821 13.164113,4.3571481 12.869761,4.0630167 12.575409,3.7686648 12.281056,3.5878643 11.932685,3.4528154 11.595338,3.3219555 11.210587,3.2327679 10.647238,3.2069709 10.082788,3.181284 9.9030907,3.1749999 8.4655064,3.1749999 Z m -0.4747111,0.953612 c 0.1408922,-2.204e-4 0.2981001,0 0.4747111,0 1.4128897,0 1.580351,0.00507 2.138296,0.030429 0.515942,0.023592 0.795963,0.109804 0.982496,0.1822334 0.246947,0.095914 0.423007,0.2105665 0.608107,0.3957768 0.185211,0.1852093 0.299863,0.3616009 0.395997,0.6085476 0.07243,0.1863122 0.158751,0.4663327 0.182233,0.9822757 0.02536,0.5578353 0.03087,0.7254065 0.03087,2.137634 0,1.4122277 -0.0055,1.5797994 -0.03087,2.1376344 -0.02359,0.515942 -0.109804,0.795962 -0.182233,0.982275 -0.09591,0.246946 -0.210787,0.422786 -0.395997,0.607886 -0.18521,0.185211 -0.36105,0.299864 -0.608107,0.395777 -0.186312,0.07277 -0.466554,0.158751 -0.982496,0.182343 -0.557835,0.02536 -0.7254063,0.03087 -2.138296,0.03087 -1.4129992,0 -1.5804602,-0.0055 -2.1382956,-0.03087 C 5.8129214,12.74761 5.5329013,12.6614 5.346258,12.588969 5.0993113,12.493056 4.9229205,12.378403 4.7377104,12.193192 4.5525001,12.007982 4.4378462,11.832032 4.3417133,11.584975 4.2692829,11.398663 4.1829617,11.118643 4.1594797,10.602699 4.1341235,10.044864 4.1290523,9.8772943 4.1290523,8.4641842 c 0,-1.4131096 0.00507,-1.5797985 0.030428,-2.137634 C 4.183073,5.8106073 4.2692847,5.5305871 4.3417141,5.3440539 4.4376274,5.0971072 4.5525009,4.9207164 4.7377112,4.7355063 4.9229205,4.5502951 5.099312,4.4356421 5.3462587,4.3395092 5.5327916,4.266747 5.8129222,4.1807578 6.3288651,4.1570552 6.8170259,4.135007 7.0062052,4.1283915 7.9924496,4.1272886 Z M 11.291836,5.007258 c -0.350576,0 -0.635007,0.2840994 -0.635007,0.6347861 0,0.3505762 0.284431,0.6350063 0.635007,0.6350063 0.350577,0 0.635006,-0.2844301 0.635006,-0.6350063 0,-0.3505765 -0.284429,-0.6350065 -0.635006,-0.6350065 z M 8.46716,5.749201 c -1.5007536,0 -2.7175184,1.216765 -2.7175184,2.7175189 0,1.5007534 1.2167648,2.7169671 2.7175184,2.7169671 1.5007547,0 2.717078,-1.2162137 2.717078,-2.7169671 0,-1.5007539 -1.2164343,-2.7175189 -2.7171881,-2.7175189 z m 0,0.9536124 c 0.974117,0 1.763907,0.7896789 1.763907,1.7639065 0,0.9741173 -0.78979,1.7639061 -1.763907,1.7639061 -0.9742277,0 -1.7639068,-0.7897888 -1.7639068,-1.7639061 0,-0.9742276 0.7896791,-1.7639065 1.7639068,-1.7639065 z"
     fill="#ffffff" />
</svg>
