<?xml version="1.0" encoding="UTF-8" standalone="no"?>
<!-- Created with Inkscape (http://www.inkscape.org/) -->

<svg
   width="64"
   height="64"
   viewBox="0 0 16.933333 16.933333"
   version="1.1"
   id="svg5"
   inkscape:version="1.1.1 (3bf5ae0d25, 2021-09-20, custom)"
   sodipodi:docname="jockey.svg"
   xmlns:inkscape="http://www.inkscape.org/namespaces/inkscape"
   xmlns:sodipodi="http://sodipodi.sourceforge.net/DTD/sodipodi-0.dtd"
   xmlns:xlink="http://www.w3.org/1999/xlink"
   xmlns="http://www.w3.org/2000/svg"
   xmlns:svg="http://www.w3.org/2000/svg">
  <sodipodi:namedview
     id="namedview7"
     pagecolor="#ffffff"
     bordercolor="#666666"
     borderopacity="1.0"
     inkscape:pageshadow="2"
     inkscape:pageopacity="0.0"
     inkscape:pagecheckerboard="0"
     inkscape:document-units="px"
     showgrid="false"
     units="px"
     height="48px"
     inkscape:zoom="5.6568542"
     inkscape:cx="30.935922"
     inkscape:cy="42.514795"
     inkscape:window-width="1920"
     inkscape:window-height="1011"
     inkscape:window-x="0"
     inkscape:window-y="0"
     inkscape:window-maximized="1"
     inkscape:current-layer="svg5"
     inkscape:lockguides="true" />
  <defs
     id="defs2">
    <linearGradient
       inkscape:collect="always"
       id="linearGradient3716">
      <stop
         style="stop-color:#4a4a4a;stop-opacity:1"
         offset="0"
         id="stop3712" />
      <stop
         style="stop-color:#b3b3b3;stop-opacity:1"
         offset="1"
         id="stop3714" />
    </linearGradient>
    <linearGradient
       inkscape:collect="always"
       id="linearGradient3326">
      <stop
         style="stop-color:#ececec;stop-opacity:1;"
         offset="0"
         id="stop3322" />
      <stop
         style="stop-color:#c8c8c8;stop-opacity:1"
         offset="1"
         id="stop3324" />
    </linearGradient>
    <linearGradient
       inkscape:collect="always"
       id="linearGradient2352">
      <stop
         style="stop-color:#4d4d4d;stop-opacity:1;"
         offset="0"
         id="stop2348" />
      <stop
         style="stop-color:#999999;stop-opacity:1"
         offset="1"
         id="stop2350" />
    </linearGradient>
    <linearGradient
       inkscape:collect="always"
       id="linearGradient1591">
      <stop
         style="stop-color:#62a451;stop-opacity:1"
         offset="0"
         id="stop1587" />
      <stop
         style="stop-color:#3cce85;stop-opacity:1"
         offset="1"
         id="stop1589" />
    </linearGradient>
    <linearGradient
       inkscape:collect="always"
       xlink:href="#linearGradient37218"
       id="linearGradient1781"
       x1="2.8346456e-08"
       y1="2.2677165e-07"
       x2="64"
       y2="64"
       gradientUnits="userSpaceOnUse"
       gradientTransform="scale(0.26458333)" />
    <linearGradient
       inkscape:collect="always"
       id="linearGradient37218">
      <stop
         style="stop-color:#ffffff;stop-opacity:1"
         offset="0"
         id="stop37214" />
      <stop
         style="stop-color:#d9d9d9;stop-opacity:0.00392157"
         offset="0.49741825"
         id="stop37220" />
      <stop
         style="stop-color:#000000;stop-opacity:1"
         offset="1"
         id="stop37216" />
    </linearGradient>
    <linearGradient
       inkscape:collect="always"
       xlink:href="#linearGradient1591"
       id="linearGradient1593"
       x1="8.4666662"
       y1="16.933334"
       x2="8.4666672"
       y2="6.7529299e-07"
       gradientUnits="userSpaceOnUse" />
    <linearGradient
       inkscape:collect="always"
       xlink:href="#linearGradient2352"
       id="linearGradient2354"
       x1="9.260417"
       y1="13.229167"
       x2="9.260417"
       y2="3.1750007"
       gradientUnits="userSpaceOnUse" />
    <linearGradient
       inkscape:collect="always"
       xlink:href="#linearGradient3326"
       id="linearGradient3328"
       x1="44"
       y1="7.9999523"
       x2="44.000095"
       y2="53.99995"
       gradientUnits="userSpaceOnUse" />
    <linearGradient
       inkscape:collect="always"
       xlink:href="#linearGradient3716"
       id="linearGradient3718"
       x1="47"
       y1="48"
       x2="17"
       y2="18"
       gradientUnits="userSpaceOnUse" />
    <linearGradient
       id="linearGradient964"
       x1="30"
       x2="30"
       y1="10"
       y2="70"
       gradientTransform="matrix(1.0009871,0,0,1.0009871,-0.00172444,-0.00376829)"
       gradientUnits="userSpaceOnUse">
      <stop
         offset="0"
         id="stop49" />
      <stop
         stop-opacity=".35"
         offset="1"
         id="stop51" />
    </linearGradient>
  </defs>
  <path
     id="rect863"
     style="fill:url(#linearGradient1593);stroke-width:0.264583;fill-opacity:1"
     d="M 3.1750003,1.0583333 H 13.758333 c 1.172634,0 2.116667,0.944034 2.116667,2.116667 V 13.758333 c 0,1.172634 -0.944033,2.116667 -2.116667,2.116667 H 3.1750003 c -1.172633,0 -2.116667,-0.944033 -2.116667,-2.116667 V 3.1750003 c 0,-1.172633 0.944034,-2.116667 2.116667,-2.116667 z" />
  <path
     id="path65"
     style="opacity:0.1;fill:url(#linearGradient964);stroke-width:1.00094"
     d="M 12.007812 4 L 12.007812 10.177734 L 24.021484 22.189453 L 25.107422 21.103516 L 23.019531 19.015625 L 21.017578 19.015625 L 21.017578 17.011719 L 15.011719 11.005859 L 15.011719 4 L 12.007812 4 z M 17.013672 4 L 17.013672 10.177734 L 21.017578 14.181641 L 21.017578 4 L 17.013672 4 z M 23.021484 4 L 23.019531 16.183594 L 26.523438 19.6875 L 27.195312 19.015625 L 26.023438 19.015625 L 26.023438 4 L 23.021484 4 z M 28.023438 4 L 28.023438 18.183594 L 31.199219 15.009766 L 31.027344 15.009766 L 31.027344 4 L 28.023438 4 z M 33.029297 4 L 33.029297 13.181641 L 36.033203 10.177734 L 36.033203 4 L 33.029297 4 z M 38.033203 4 L 38.033203 11.005859 L 27.939453 21.103516 L 29.025391 22.189453 L 41.037109 10.177734 L 41.037109 4 L 38.033203 4 z M 43.039062 4 L 43.039062 11.005859 L 29.589844 24.455078 L 29.025391 23.890625 L 28.460938 24.455078 L 26.523438 22.517578 L 24.585938 24.455078 L 24.021484 23.890625 L 23.457031 24.455078 L 10.005859 11.005859 L 10.005859 4.25 C 8.5056565 4.6322091 7.1795374 5.4360862 6.15625 6.5292969 L 6.15625 16.9375 L 4 19.089844 L 4 21.246094 L 7.2324219 24.478516 L 16.832031 24.478516 L 9.3554688 17.003906 C 8.588547 16.926605 8.0040601 16.280575 8.0039062 15.509766 C 8.003932 14.680569 8.6766624 14.009794 9.5058594 14.009766 C 10.335058 14.009791 11.005834 14.680567 11.005859 15.509766 C 11.005966 15.606223 10.998799 15.70414 10.980469 15.798828 L 19.660156 24.478516 L 48.197266 28.626953 L 55.742188 20.005859 L 60 20.005859 C 59.969008 19.641305 59.917592 19.282973 59.857422 18.927734 L 55.742188 18.927734 L 55.742188 10.466797 L 47.117188 20.169922 L 43.884766 20.169922 L 52.507812 10.466797 L 52.507812 4.0175781 C 52.339556 4.0071124 52.170984 4 52 4 L 48.042969 4 L 48.042969 11.005859 L 34.591797 24.455078 L 33.179688 23.039062 L 46.041016 10.177734 L 46.041016 4 L 43.039062 4 z M 14.78125 37.416016 L 4.0019531 46.041016 L 4 49.628906 L 10.46875 44.962891 L 10.46875 47.115234 L 4 51.494141 L 8.3144531 51.429688 L 8.3144531 59.105469 C 9.4163877 59.675851 10.668965 60 12 60 L 14.78125 60 L 14.78125 48.195312 L 21.248047 42.806641 L 24.482422 42.806641 L 18.015625 48.195312 L 18.015625 60 L 22.017578 60 L 22.017578 54.917969 L 35.466797 41.470703 L 36.033203 42.037109 L 36.597656 41.470703 L 38.533203 43.408203 L 40.472656 41.470703 L 41.037109 42.037109 L 41.603516 41.470703 L 55.052734 54.917969 L 55.052734 59.398438 C 55.884057 59.056705 56.644858 58.57995 57.306641 57.994141 L 57.306641 55 L 45.191406 42.886719 L 46.605469 41.470703 L 59.611328 54.474609 C 59.862727 53.695984 60 52.864422 60 52 L 60 48.787109 L 52.507812 41.646484 L 50.355469 39.572266 L 48.197266 37.416016 L 35.230469 37.416016 L 35.466797 37.652344 L 22.992188 50.126953 C 23.010405 50.221668 23.019758 50.319562 23.019531 50.416016 C 23.019495 51.245206 22.346769 51.915989 21.517578 51.916016 C 20.688382 51.915989 20.017607 51.24521 20.017578 50.416016 C 20.017732 49.645204 20.602216 48.997225 21.369141 48.919922 L 32.873047 37.416016 L 14.78125 37.416016 z M 36.033203 43.738281 L 24.021484 55.748047 L 24.021484 60 L 27.023438 60 L 27.023438 54.917969 L 33.029297 48.912109 L 33.029297 46.912109 L 35.03125 46.912109 L 37.119141 44.822266 L 36.033203 43.738281 z M 41.037109 43.738281 L 39.949219 44.822266 L 50.044922 54.917969 L 50.044922 60 L 52 60 C 52.35606 60 52.705323 59.974343 53.048828 59.929688 L 53.048828 55.748047 L 41.037109 43.738281 z M 38.533203 46.238281 L 35.03125 49.742188 L 35.03125 60 L 38.033203 60 L 38.033203 46.912109 L 39.207031 46.912109 L 38.533203 46.238281 z M 40.035156 47.740234 L 40.035156 60 L 43.039062 60 L 43.039062 50.916016 L 43.210938 50.916016 L 40.035156 47.740234 z M 33.029297 51.744141 L 29.025391 55.748047 L 29.025391 60 L 33.029297 60 L 33.029297 51.744141 z M 45.039062 52.744141 L 45.039062 60 L 48.042969 60 L 48.042969 55.748047 L 45.039062 52.744141 z "
     transform="scale(0.26458333)" />
  <path
     id="rect1345"
     style="opacity:0.3;fill:url(#linearGradient1781);fill-opacity:1;stroke-width:0.264583"
     d="m 3.1750003,1.0583333 c -1.172633,0 -2.116667,0.944034 -2.116667,2.116667 V 13.758333 c 0,1.172634 0.944034,2.116667 2.116667,2.116667 H 13.758334 c 1.172633,0 2.116666,-0.944033 2.116666,-2.116667 V 3.1750003 c 0,-1.172633 -0.944033,-2.116667 -2.116666,-2.116667 z m 0,0.264584 H 13.758334 c 1.026054,0 1.852083,0.826029 1.852083,1.852083 V 13.758333 c 0,1.026054 -0.826029,1.852084 -1.852083,1.852084 H 3.1750003 c -1.026054,0 -1.852083,-0.82603 -1.852083,-1.852084 V 3.1750003 c 0,-1.026054 0.826029,-1.852083 1.852083,-1.852083 z" />
  <path
     id="rect2616"
     style="opacity:1;fill:url(#linearGradient3328);fill-opacity:1;stroke-width:12.6336;stroke-linecap:round;stroke-linejoin:round"
     d="M 21.974609,14 C 21.432669,14.013638 21,14.454656 21,15 v 2 c 0,0.554 0.446,1 1,1 0.554,0 1,-0.446 1,-1 v -2 c 0,-0.554 -0.446,-1 -1,-1 -0.0087,0 -0.01679,-2.16e-4 -0.02539,0 z m 5,0 C 26.432669,14.013638 26,14.454656 26,15 v 2 c 0,0.554 0.446,1 1,1 0.554,0 1,-0.446 1,-1 v -2 c 0,-0.554 -0.446,-1 -1,-1 -0.0087,0 -0.01679,-2.16e-4 -0.02539,0 z m 5,0 C 31.432669,14.013638 31,14.454656 31,15 v 2 c 0,0.554 0.446,1 1,1 0.554,0 1,-0.446 1,-1 v -2 c 0,-0.554 -0.446,-1 -1,-1 -0.0087,0 -0.01679,-2.16e-4 -0.02539,0 z m 5,0 C 36.432668,14.013638 36,14.454656 36,15 v 2 c 0,0.554 0.445999,1 1,1 0.553999,0 1,-0.446 1,-1 v -2 c 0,-0.554 -0.446001,-1 -1,-1 -0.0087,0 -0.01679,-2.16e-4 -0.02539,0 z m 5,0 C 41.432666,14.013638 41,14.454656 41,15 v 2 c 0,0.554 0.445997,1 1,1 0.553999,0 1,-0.446 1,-1 v -2 c 0,-0.554 -0.446001,-1 -1,-1 -0.0087,0 -0.01679,-2.16e-4 -0.02539,0 z M 15,21 c -0.553999,0 -1,0.446 -1,1 0,0.554 0.446001,1 1,1 h 2 c 0.553999,0 1,-0.446 1,-1 0,-0.0087 2.16e-4,-0.01677 0,-0.02539 C 17.986362,21.432669 17.545343,21 17,21 Z m 32,0 c -0.553999,0 -1,0.446 -1,1 0,0.554 0.446001,1 1,1 h 2 c 0.553999,0 1,-0.446 1,-1 0,-0.0087 2.19e-4,-0.01677 0,-0.02539 C 49.986363,21.432669 49.545344,21 49,21 Z m -32,5 c -0.553999,0 -1,0.446 -1,1 0,0.554 0.446001,1 1,1 h 2 c 0.553999,0 1,-0.446 1,-1 0,-0.0087 2.16e-4,-0.01677 0,-0.02539 C 17.986362,26.432669 17.545343,26 17,26 Z m 32,0 c -0.553999,0 -1,0.446 -1,1 0,0.554 0.446001,1 1,1 h 2 c 0.553999,0 1,-0.446 1,-1 0,-0.0087 2.19e-4,-0.01677 0,-0.02539 C 49.986363,26.432669 49.545344,26 49,26 Z m -32,5 c -0.553999,0 -1,0.446001 -1,1 0,0.553999 0.446001,1 1,1 h 2 c 0.553999,0 1,-0.446001 1,-1 0,-0.0087 2.16e-4,-0.01677 0,-0.02539 C 17.986362,31.43267 17.545343,31 17,31 Z m 32,0 c -0.553999,0 -1,0.446001 -1,1 0,0.553999 0.446001,1 1,1 h 2 c 0.553999,0 1,-0.446001 1,-1 0,-0.0087 2.19e-4,-0.01677 0,-0.02539 C 49.986363,31.43267 49.545344,31 49,31 Z m -32,5 c -0.553999,0 -1,0.445997 -1,1 0,0.553999 0.446001,1 1,1 h 2 c 0.553999,0 1,-0.446001 1,-1 0,-0.0087 2.16e-4,-0.01677 0,-0.02539 C 17.986362,36.432666 17.545343,36 17,36 Z m 32,0 c -0.553999,0 -1,0.445997 -1,1 0,0.553999 0.446001,1 1,1 h 2 c 0.553999,0 1,-0.446001 1,-1 0,-0.0087 2.19e-4,-0.01677 0,-0.02539 C 49.986363,36.432666 49.545344,36 49,36 Z m -32,5 c -0.553999,0 -1,0.445997 -1,1 0,0.553999 0.446001,1 1,1 h 2 c 0.553999,0 1,-0.446001 1,-1 0,-0.0087 2.16e-4,-0.0167 0,-0.02539 C 17.986362,41.432667 17.545343,41 17,41 Z m 32,0 c -0.553999,0 -1,0.445997 -1,1 0,0.553999 0.446001,1 1,1 h 2 c 0.553999,0 1,-0.446001 1,-1 0,-0.0087 2.19e-4,-0.0167 0,-0.02539 C 49.986394,41.432667 49.545344,41 49,41 Z M 21.974609,46 C 21.432669,46.013638 21,46.454657 21,47 v 2 c 0,0.553999 0.446,1 1,1 0.554,0 1,-0.446001 1,-1 v -2 c 0,-0.553999 -0.446,-1 -1,-1 -0.0087,0 -0.01679,-2.16e-4 -0.02539,0 z m 5,0 C 26.432669,46.013638 26,46.454657 26,47 v 2 c 0,0.553999 0.446,1 1,1 0.554,0 1,-0.446001 1,-1 v -2 c 0,-0.553999 -0.446,-1 -1,-1 -0.0087,0 -0.01679,-2.16e-4 -0.02539,0 z m 5,0 C 31.43267,46.013638 31,46.454657 31,47 v 2 c 0,0.553999 0.446001,1 1,1 0.553999,0 1,-0.446001 1,-1 v -2 c 0,-0.553999 -0.446001,-1 -1,-1 -0.0087,0 -0.01679,-2.16e-4 -0.02539,0 z m 5,0 C 36.432666,46.013638 36,46.454657 36,47 v 2 c 0,0.553999 0.445997,1 1,1 0.553999,0 1,-0.446001 1,-1 v -2 c 0,-0.553999 -0.446001,-1 -1,-1 -0.0087,0 -0.01679,-2.16e-4 -0.02539,0 z m 5,0 C 41.432666,46.013638 41,46.454657 41,47 v 2 c 0,0.553999 0.445997,1 1,1 0.553999,0 1,-0.446001 1,-1 v -2 c 0,-0.553999 -0.446001,-1 -1,-1 -0.0087,0 -0.01679,-2.16e-4 -0.02539,0 z"
     transform="scale(0.26458333)"
     sodipodi:nodetypes="cssssssccssssssccssssssccssssssccsssssscssssscssssssscssssssscssssssscssssssscssssssscssssssscssssssscssssssscssssssscsscssssssccssssssccssssssccssssssccssssssc" />
  <path
     id="rect2090"
     style="opacity:1;fill:url(#linearGradient2354);stroke-width:2.38125;stroke-linecap:round;stroke-linejoin:round"
     d="m 5.2916667,4.4979167 h 6.3500003 c 0.439737,0 0.79375,0.3540125 0.79375,0.79375 v 6.3500003 c 0,0.439737 -0.354013,0.79375 -0.79375,0.79375 H 5.2916667 c -0.4397375,0 -0.79375,-0.354013 -0.79375,-0.79375 V 5.2916667 c 0,-0.4397375 0.3540125,-0.79375 0.79375,-0.79375 z" />
  <path
     id="rect3526"
     style="opacity:1;fill:url(#linearGradient3718);fill-opacity:1;stroke-width:9;stroke-linecap:round;stroke-linejoin:round"
     d="M 20 17 C 18.338 17 17 18.338 17 20 L 17 44 C 17 45.662 18.338 47 20 47 L 44 47 C 45.662 47 47 45.662 47 44 L 47 20 C 47 18.338 45.662 17 44 17 L 20 17 z M 20 18 L 44 18 C 45.108 18 46 18.892 46 20 L 46 44 C 46 45.108 45.108 46 44 46 L 20 46 C 18.892 46 18 45.108 18 44 L 18 20 C 18 18.892 18.892 18 20 18 z "
     transform="scale(0.26458333)" />
  <path
     id="rect6497"
     style="opacity:0.3;fill:#000000;fill-opacity:0.999661;stroke-width:0.690066;stroke-linecap:round;stroke-linejoin:round"
     d="M 22 22 L 22 23 L 42 23 L 42 22 L 22 22 z M 22 26 L 22 27 L 42 27 L 42 26 L 22 26 z M 22 30 L 22 31 L 32 31 L 32 30 L 22 30 z "
     transform="scale(0.26458333)" />
</svg>
