<?xml version="1.0" encoding="UTF-8" standalone="no"?>
<svg
   id="Calculator"
   width="64"
   height="64"
   enable-background="new 0 0 1024 1024"
   image-rendering="optimizeSpeed"
   version="1.1"
   viewBox="0 0 64 64"
   sodipodi:docname="khangman.svg"
   inkscape:version="1.2.1 (9c6d41e410, 2022-07-14)"
   xmlns:inkscape="http://www.inkscape.org/namespaces/inkscape"
   xmlns:sodipodi="http://sodipodi.sourceforge.net/DTD/sodipodi-0.dtd"
   xmlns:xlink="http://www.w3.org/1999/xlink"
   xmlns="http://www.w3.org/2000/svg"
   xmlns:svg="http://www.w3.org/2000/svg">
  <sodipodi:namedview
     id="namedview215"
     pagecolor="#505050"
     bordercolor="#ffffff"
     borderopacity="1"
     inkscape:showpageshadow="0"
     inkscape:pageopacity="0"
     inkscape:pagecheckerboard="1"
     inkscape:deskcolor="#505050"
     showgrid="false"
     inkscape:zoom="6.887845"
     inkscape:cx="9.6546888"
     inkscape:cy="34.553623"
     inkscape:window-width="1366"
     inkscape:window-height="703"
     inkscape:window-x="0"
     inkscape:window-y="37"
     inkscape:window-maximized="1"
     inkscape:current-layer="Calculator" />
  <defs
     id="defs192">
    <linearGradient
       inkscape:collect="always"
       id="linearGradient1919">
      <stop
         style="stop-color:#8c9cf2;stop-opacity:1;"
         offset="0"
         id="stop1917" />
      <stop
         style="stop-color:#b3f4ff;stop-opacity:1;"
         offset="1"
         id="stop1915" />
    </linearGradient>
    <inkscape:path-effect
       effect="fillet_chamfer"
       id="path-effect537"
       is_visible="true"
       lpeversion="1"
       nodesatellites_param="F,0,0,1,0,0.0089702718,0,1 @ F,0,0,1,0,1,0,1 @ F,0,0,1,0,1,0,1 @ F,0,0,1,0,1,0,1 @ F,0,0,1,0,1,0,1 @ F,0,0,1,0,1,0,1 @ F,0,0,1,0,1,0,1 @ F,0,0,1,0,1,0,1 @ F,0,0,1,0,1,0,1 @ F,0,0,1,0,1,0,1 @ F,0,0,1,0,1,0,1 @ F,0,0,1,0,1,0,1 @ F,0,0,1,0,1,0,1 @ F,0,0,1,0,1,0,1 @ F,0,0,1,0,0.000524,0,1 | F,0,0,1,0,1,0,1 @ F,0,0,1,0,1,0,1 @ F,0,0,1,0,1,0,1 | F,0,0,1,0,1,0,1 @ F,0,0,1,0,1,0,1 @ F,0,0,1,0,1,0,1 @ F,0,0,1,0,1,0,1"
       unit="px"
       method="auto"
       mode="F"
       radius="1"
       chamfer_steps="1"
       flexible="false"
       use_knot_distance="true"
       apply_no_radius="true"
       apply_with_radius="true"
       only_selected="false"
       hide_knots="false" />
    <filter
       id="filter911"
       x="-0.069000988"
       y="-0.053076336"
       width="1.138002"
       height="1.1061527"
       color-interpolation-filters="sRGB">
      <feGaussianBlur
         stdDeviation="0.5750183"
         id="feGaussianBlur179" />
    </filter>
    <linearGradient
       id="linearGradient921"
       x1="14"
       x2="34.001"
       y1="24.006"
       y2="24.006"
       gradientUnits="userSpaceOnUse">
      <stop
         stop-color="#fff"
         offset="0"
         id="stop182" />
      <stop
         stop-color="#e6e6e6"
         offset="1"
         id="stop184" />
    </linearGradient>
    <linearGradient
       id="linearGradient862-3"
       x1="7.9373"
       x2="7.9373"
       y1="15.081"
       y2="1.852"
       gradientTransform="matrix(3.7795 0 0 3.7795 .00014314 .031541)"
       gradientUnits="userSpaceOnUse">
      <stop
         stop-color="#292929"
         offset="0"
         id="stop187"
         style="stop-color:#ec13ba;stop-opacity:1;" />
      <stop
         stop-color="#4d4d4d"
         offset="1"
         id="stop189"
         style="stop-color:#a030e8;stop-opacity:1;" />
    </linearGradient>
    <linearGradient
       inkscape:collect="always"
       xlink:href="#linearGradient1919"
       id="linearGradient1921"
       x1="20.922031"
       y1="47.804867"
       x2="20.89719"
       y2="16.017202"
       gradientUnits="userSpaceOnUse" />
    <filter
       inkscape:collect="always"
       style="color-interpolation-filters:sRGB"
       id="filter2004"
       x="-0.2331451"
       y="-0.1631989"
       width="1.4662902"
       height="1.3263978">
      <feGaussianBlur
         inkscape:collect="always"
         stdDeviation="2.1775065"
         id="feGaussianBlur2006" />
    </filter>
    <filter
       inkscape:collect="always"
       style="color-interpolation-filters:sRGB"
       id="filter951"
       x="-0.048"
       y="-0.048"
       width="1.096"
       height="1.096">
      <feGaussianBlur
         inkscape:collect="always"
         stdDeviation="1.12"
         id="feGaussianBlur953" />
    </filter>
  </defs>
  <rect
     x="4"
     y="4"
     width="56"
     height="56"
     rx="13.002"
     ry="13.002"
     fill="url(#linearGradient862-3)"
     stroke-width="3.7795"
     id="rect206-7"
     style="fill:#000000;fill-opacity:1;filter:url(#filter951);opacity:0.4" />
  <rect
     x="4"
     y="4"
     width="56"
     height="56"
     rx="13.002"
     ry="13.002"
     fill="url(#linearGradient862-3)"
     stroke-width="3.7795"
     id="rect206" />
  <path
     style="fill:#01070b;fill-opacity:1;stroke-width:0.133424;filter:url(#filter2004);opacity:0.5"
     d="m 20.792354,15.989339 v 32.021846 h 4.803275 V 29.461027 l 8.671543,-8.668412 h 2.536104 v 8.287426 c -1.916933,0.677547 -3.199057,2.488157 -3.202184,4.521315 0,2.652849 2.150425,4.803276 4.803277,4.803276 2.652852,0 4.803277,-2.150427 4.803277,-4.803276 -0.0016,-2.034204 -1.284211,-3.846899 -3.202185,-4.52496 v -8.284305 h 3.202185 V 15.988815 H 20.792354 Z m 4.803275,4.803276 h 4.137197 l -4.137197,4.137198 z m 12.80874,11.207646 c 0.884458,0 1.601092,0.716632 1.601092,1.601095 0,0.884455 -0.716634,1.601086 -1.601092,1.601086 -0.884459,0 -1.601093,-0.716631 -1.601093,-1.601086 0,-0.884463 0.716634,-1.601095 1.601093,-1.601095 z m 0,0"
     id="path48-7" />
  <path
     style="fill:url(#linearGradient1921);stroke-width:0.133424;fill-opacity:1"
     d="M 20.792354,15.989339 V 48.011185 H 25.59563 V 29.461027 l 8.671543,-8.668412 h 2.536104 v 8.287426 c -1.916933,0.677547 -3.199057,2.488157 -3.202184,4.521315 0,2.652849 2.150425,4.803276 4.803276,4.803276 2.652852,0 4.803277,-2.150427 4.803277,-4.803276 -0.0016,-2.034204 -1.28421,-3.846899 -3.202185,-4.52496 v -8.284305 h 3.202185 V 15.988815 H 20.792354 Z m 4.803276,4.803276 h 4.137197 l -4.137197,4.137198 z m 12.808739,11.207646 c 0.884458,0 1.601092,0.716632 1.601092,1.601095 0,0.884455 -0.716634,1.601086 -1.601092,1.601086 -0.884458,0 -1.601092,-0.716631 -1.601092,-1.601086 0,-0.884463 0.716634,-1.601095 1.601092,-1.601095 z m 0,0"
     id="path48" />
</svg>
