<?xml version="1.0" encoding="UTF-8" standalone="no"?>
<!-- Created with Inkscape (http://www.inkscape.org/) -->

<svg
   width="64"
   height="64"
   viewBox="0 0 16.933333 16.933333"
   version="1.1"
   id="svg5"
   inkscape:version="1.1.1 (3bf5ae0d25, 2021-09-20, custom)"
   sodipodi:docname="kwin.svg"
   xmlns:inkscape="http://www.inkscape.org/namespaces/inkscape"
   xmlns:sodipodi="http://sodipodi.sourceforge.net/DTD/sodipodi-0.dtd"
   xmlns:xlink="http://www.w3.org/1999/xlink"
   xmlns="http://www.w3.org/2000/svg"
   xmlns:svg="http://www.w3.org/2000/svg">
  <sodipodi:namedview
     id="namedview7"
     pagecolor="#ffffff"
     bordercolor="#666666"
     borderopacity="1.0"
     inkscape:pageshadow="2"
     inkscape:pageopacity="0.0"
     inkscape:pagecheckerboard="0"
     inkscape:document-units="px"
     showgrid="false"
     units="px"
     height="48px"
     inkscape:zoom="7.9999996"
     inkscape:cx="29.125001"
     inkscape:cy="46.437502"
     inkscape:window-width="1920"
     inkscape:window-height="1011"
     inkscape:window-x="0"
     inkscape:window-y="0"
     inkscape:window-maximized="1"
     inkscape:current-layer="svg5"
     inkscape:lockguides="true" />
  <defs
     id="defs2">
    <linearGradient
       inkscape:collect="always"
       id="linearGradient2017">
      <stop
         style="stop-color:#ffffff;stop-opacity:1;"
         offset="0"
         id="stop2013" />
      <stop
         style="stop-color:#9ad5ff;stop-opacity:1"
         offset="1"
         id="stop2015" />
    </linearGradient>
    <linearGradient
       inkscape:collect="always"
       id="linearGradient1261">
      <stop
         style="stop-color:#1a86f2;stop-opacity:1"
         offset="0"
         id="stop1257" />
      <stop
         style="stop-color:#2ac9fe;stop-opacity:1"
         offset="1"
         id="stop1259" />
    </linearGradient>
    <linearGradient
       inkscape:collect="always"
       xlink:href="#linearGradient37218"
       id="linearGradient1781"
       x1="2.8346456e-08"
       y1="2.2677165e-07"
       x2="64"
       y2="64"
       gradientUnits="userSpaceOnUse"
       gradientTransform="scale(0.26458333)" />
    <linearGradient
       inkscape:collect="always"
       id="linearGradient37218">
      <stop
         style="stop-color:#ffffff;stop-opacity:1"
         offset="0"
         id="stop37214" />
      <stop
         style="stop-color:#fdfdfd;stop-opacity:0.00392157"
         offset="0.49741825"
         id="stop37220" />
      <stop
         style="stop-color:#000000;stop-opacity:1"
         offset="1"
         id="stop37216" />
    </linearGradient>
    <linearGradient
       inkscape:collect="always"
       id="linearGradient6263">
      <stop
         style="stop-color:#000000;stop-opacity:1;"
         offset="0"
         id="stop6259" />
      <stop
         style="stop-color:#000000;stop-opacity:0;"
         offset="1"
         id="stop6261" />
    </linearGradient>
    <linearGradient
       inkscape:collect="always"
       xlink:href="#linearGradient1261"
       id="linearGradient1263"
       x1="16.933332"
       y1="16.933334"
       x2="-1.0955811e-07"
       y2="6.3308715e-07"
       gradientUnits="userSpaceOnUse" />
    <linearGradient
       inkscape:collect="always"
       xlink:href="#linearGradient2017"
       id="linearGradient1917"
       x1="3.4395833"
       y1="-11.787496"
       x2="3.4395831"
       y2="24.063547"
       gradientUnits="userSpaceOnUse"
       gradientTransform="matrix(1.59138,0,0,1.59138,18.526315,20.947369)" />
    <linearGradient
       inkscape:collect="always"
       xlink:href="#linearGradient6263"
       id="linearGradient1535"
       gradientUnits="userSpaceOnUse"
       gradientTransform="matrix(1.59138,0,0,1.59138,18.526315,21.947369)"
       x1="-7.8713541"
       y1="17.118235"
       x2="24.804688"
       y2="5.2119846" />
  </defs>
  <path
     id="rect863"
     style="fill:url(#linearGradient1263);stroke-width:0.264583;fill-opacity:1"
     d="M 3.1750003,1.0583333 H 13.758333 c 1.172634,0 2.116667,0.944034 2.116667,2.116667 V 13.758333 c 0,1.172634 -0.944033,2.116667 -2.116667,2.116667 H 3.1750003 c -1.172633,0 -2.116667,-0.944033 -2.116667,-2.116667 V 3.1750003 c 0,-1.172633 0.944034,-2.116667 2.116667,-2.116667 z" />
  <path
     id="rect1345"
     style="opacity:0.3;fill:url(#linearGradient1781);fill-opacity:1;stroke-width:0.264583"
     d="m 3.1750003,1.0583333 c -1.172633,0 -2.116667,0.944034 -2.116667,2.116667 V 13.758333 c 0,1.172634 0.944034,2.116667 2.116667,2.116667 H 13.758334 c 1.172633,0 2.116666,-0.944033 2.116666,-2.116667 V 3.1750003 c 0,-1.172633 -0.944033,-2.116667 -2.116666,-2.116667 z m 0,0.264584 H 13.758334 c 1.026054,0 1.852083,0.826029 1.852083,1.852083 V 13.758333 c 0,1.026054 -0.826029,1.852084 -1.852083,1.852084 H 3.1750003 c -1.026054,0 -1.852083,-0.82603 -1.852083,-1.852084 V 3.1750003 c 0,-1.026054 0.826029,-1.852083 1.852083,-1.852083 z" />
  <path
     id="path27-7"
     style="opacity:0.3;fill:url(#linearGradient1535);fill-opacity:1;stroke-width:0.846368"
     d="M 14 22 L 14 23 L 50 23 L 50 22 L 14 22 z M 39.337891 27.466797 L 36.146484 31.679688 L 36.529297 32.175781 L 40 27.59375 L 39.337891 27.466797 z M 25.853516 30.84375 L 25.626953 31.070312 A 0.29622894 0.29622894 0 0 0 25.626953 31.490234 L 26.675781 33.134766 A 5.3321205 5.3321205 0 0 1 26.927734 32.529297 L 25.853516 30.84375 z M 29.923828 31.146484 A 4.147205 4.147205 0 0 0 27.556641 34.886719 A 4.147205 4.147205 0 0 0 27.597656 35.398438 A 4.147205 4.147205 0 0 1 29.923828 32.146484 L 29.923828 31.146484 z M 33.480469 32.517578 L 33.480469 33.517578 L 36.84375 38.5625 L 37.220703 38.412109 L 37.40625 38.701172 L 39.996094 37.666016 L 39.40625 36.902344 L 37.035156 37.849609 L 33.480469 32.517578 z M 24 35.775391 L 24 36.775391 C 24 36.9396 24.136064 37.036719 24.296875 37.072266 L 26.658203 37.597656 C 26.662195 37.609585 26.667797 37.620918 26.671875 37.632812 L 26.921875 37.240234 C 26.820312 37.032029 26.731843 36.817727 26.658203 36.597656 L 24.296875 36.072266 C 24.136064 36.036719 24 35.9396 24 35.775391 z M 33.480469 37.257812 L 30.517578 37.849609 L 30.517578 38.849609 L 33.480469 38.257812 L 33.480469 37.257812 z M 29.339844 39.660156 L 27.292969 40.960938 A 0.29622894 0.29622894 0 0 1 26.875 40.960938 L 25.84375 39.929688 L 25.617188 40.285156 C 25.529166 40.423109 25.501235 40.586307 25.617188 40.703125 L 26.875 41.960938 A 0.29622894 0.29622894 0 0 0 27.292969 41.960938 L 29.339844 40.660156 A 5.3321205 5.3321205 0 0 0 29.992188 40.931641 L 30.515625 43.292969 C 30.515625 43.457189 30.648302 43.587891 30.8125 43.587891 L 32.591797 43.587891 C 32.755991 43.587891 32.851172 43.453788 32.886719 43.292969 L 33.410156 40.929688 A 5.3321205 5.3321205 0 0 0 34.064453 40.664062 L 36.099609 41.960938 A 0.29622894 0.29622894 0 0 0 36.519531 41.960938 L 37.777344 40.703125 C 37.893296 40.586338 37.865365 40.423139 37.777344 40.285156 L 37.550781 39.929688 L 36.519531 40.960938 A 0.29622894 0.29622894 0 0 1 36.099609 40.960938 L 34.064453 39.664062 A 5.3321205 5.3321205 0 0 1 33.410156 39.929688 L 32.886719 42.292969 C 32.851172 42.453788 32.755991 42.587891 32.591797 42.587891 L 30.8125 42.587891 C 30.648302 42.587891 30.515625 42.457189 30.515625 42.292969 L 29.992188 39.931641 A 5.3321205 5.3321205 0 0 1 29.339844 39.660156 z M 12 46 L 12 47 C 12 48.107999 12.892 49 14 49 L 50 49 C 51.107999 49 52 48.107999 52 47 L 52 46 C 52 47.107999 51.108003 48 50 48 L 14 48 C 12.892 48 12 47.107999 12 46 z "
     transform="scale(0.26458333)" />
  <path
     id="path27"
     style="fill:url(#linearGradient1917);fill-opacity:1;stroke-width:0.846368"
     d="M 14 16 C 12.892 16 12 16.892 12 18 L 12 46 C 12 47.107999 12.892 48 14 48 L 50 48 C 51.107999 48 52 47.107999 52 46 L 52 18 C 52 16.892 51.107999 16 50 16 L 14 16 z M 14 22 L 50 22 L 50 46 L 14 46 L 14 22 z M 33.480469 26 L 30.517578 26.273438 L 30.517578 37.849609 L 33.480469 37.257812 L 33.480469 32.517578 L 37.035156 37.849609 L 39.996094 36.666016 L 36.146484 31.679688 L 40 26.59375 L 36.896484 26 L 33.480469 31.037109 L 33.480469 26 z M 27.085938 28.736328 A 0.25814238 0.25814238 0 0 0 26.884766 28.8125 L 25.626953 30.070312 A 0.29622894 0.29622894 0 0 0 25.626953 30.490234 L 26.927734 32.529297 A 5.3321205 5.3321205 0 0 0 26.658203 33.179688 L 24.296875 33.703125 A 0.29622894 0.29622894 0 0 0 24 34 L 24 35.775391 C 24 35.9396 24.136064 36.036719 24.296875 36.072266 L 26.658203 36.597656 C 26.73184 36.817727 26.820312 37.032028 26.921875 37.240234 L 25.617188 39.285156 C 25.529166 39.423109 25.501235 39.586319 25.617188 39.703125 L 26.875 40.960938 A 0.29622894 0.29622894 0 0 0 27.292969 40.960938 L 29.339844 39.660156 A 5.3321205 5.3321205 0 0 0 29.992188 39.931641 L 30.515625 42.292969 C 30.515625 42.457189 30.648302 42.587891 30.8125 42.587891 L 32.591797 42.587891 C 32.755991 42.587891 32.851172 42.453788 32.886719 42.292969 L 33.410156 39.929688 A 5.3321205 5.3321205 0 0 0 34.064453 39.664062 L 36.099609 40.960938 A 0.29622894 0.29622894 0 0 0 36.519531 40.960938 L 37.777344 39.703125 C 37.893296 39.586338 37.865365 39.423128 37.777344 39.285156 L 37.220703 38.412109 L 36.806641 38.578125 L 35.480469 36.587891 A 4.147205 4.147205 0 0 1 31.703125 39.035156 A 4.147205 4.147205 0 0 1 27.556641 34.886719 A 4.147205 4.147205 0 0 1 29.923828 31.146484 L 29.923828 29.869141 A 5.3321205 5.3321205 0 0 0 29.341797 30.109375 L 27.304688 28.8125 A 0.45534619 0.45534619 0 0 0 27.085938 28.736328 z "
     transform="scale(0.26458333)" />
</svg>
