<?xml version="1.0" encoding="UTF-8" standalone="no"?>
<!-- Created with Inkscape (http://www.inkscape.org/) -->

<svg
   width="64"
   height="64"
   viewBox="0 0 16.933333 16.933333"
   version="1.1"
   id="svg5"
   inkscape:version="1.1.1 (3bf5ae0d25, 2021-09-20, custom)"
   sodipodi:docname="log-viewer.svg"
   xmlns:inkscape="http://www.inkscape.org/namespaces/inkscape"
   xmlns:sodipodi="http://sodipodi.sourceforge.net/DTD/sodipodi-0.dtd"
   xmlns:xlink="http://www.w3.org/1999/xlink"
   xmlns="http://www.w3.org/2000/svg"
   xmlns:svg="http://www.w3.org/2000/svg">
  <sodipodi:namedview
     id="namedview7"
     pagecolor="#ffffff"
     bordercolor="#666666"
     borderopacity="1.0"
     inkscape:pageshadow="2"
     inkscape:pageopacity="0.0"
     inkscape:pagecheckerboard="0"
     inkscape:document-units="px"
     showgrid="false"
     units="px"
     height="48px"
     inkscape:zoom="2.828427"
     inkscape:cx="-3.5355341"
     inkscape:cy="24.571962"
     inkscape:window-width="1920"
     inkscape:window-height="1019"
     inkscape:window-x="0"
     inkscape:window-y="0"
     inkscape:window-maximized="1"
     inkscape:current-layer="svg5"
     inkscape:lockguides="true" />
  <defs
     id="defs2">
    <linearGradient
       inkscape:collect="always"
       id="linearGradient1106">
      <stop
         style="stop-color:#333333;stop-opacity:1;"
         offset="0"
         id="stop1102" />
      <stop
         style="stop-color:#4d4d4d;stop-opacity:1"
         offset="1"
         id="stop1104" />
    </linearGradient>
    <linearGradient
       inkscape:collect="always"
       xlink:href="#linearGradient37218-3"
       id="linearGradient1781"
       x1="2.8346456e-08"
       y1="2.2677165e-07"
       x2="64"
       y2="64"
       gradientUnits="userSpaceOnUse"
       gradientTransform="matrix(0.26458333,0,0,0.26458333,1.3125e-6,1.125e-7)" />
    <linearGradient
       inkscape:collect="always"
       id="linearGradient37218-3">
      <stop
         style="stop-color:#ffffff;stop-opacity:1"
         offset="0"
         id="stop37214-6" />
      <stop
         style="stop-color:#717171;stop-opacity:0.00392157"
         offset="0.49741825"
         id="stop37220-7" />
      <stop
         style="stop-color:#181818;stop-opacity:1"
         offset="1"
         id="stop37216-5" />
    </linearGradient>
    <linearGradient
       inkscape:collect="always"
       xlink:href="#linearGradient1106"
       id="linearGradient1001"
       x1="1.0583344"
       y1="8.4666672"
       x2="15.875001"
       y2="8.4666672"
       gradientUnits="userSpaceOnUse" />
    <linearGradient
       inkscape:collect="always"
       xlink:href="#linearGradient1254"
       id="linearGradient1256"
       x1="50"
       y1="64"
       x2="50"
       y2="2.2677165e-07"
       gradientUnits="userSpaceOnUse"
       gradientTransform="scale(0.26458333)" />
    <linearGradient
       inkscape:collect="always"
       id="linearGradient1254">
      <stop
         style="stop-color:#b3b3b3;stop-opacity:1;"
         offset="0"
         id="stop1250" />
      <stop
         style="stop-color:#ececec;stop-opacity:1"
         offset="1"
         id="stop1252" />
    </linearGradient>
    <linearGradient
       inkscape:collect="always"
       xlink:href="#linearGradient1272"
       id="linearGradient1274"
       x1="3"
       y1="6.5"
       x2="61"
       y2="14.5"
       gradientUnits="userSpaceOnUse"
       gradientTransform="scale(0.26458333)" />
    <linearGradient
       inkscape:collect="always"
       id="linearGradient1272">
      <stop
         style="stop-color:#000000;stop-opacity:1;"
         offset="0"
         id="stop1268" />
      <stop
         style="stop-color:#000000;stop-opacity:0;"
         offset="1"
         id="stop1270" />
    </linearGradient>
  </defs>
  <path
     id="rect863"
     style="fill:url(#linearGradient1001);fill-opacity:1;stroke-width:0.264583"
     d="m 3.704166,1.5875 h 9.525 c 1.172634,0 2.116667,0.9440332 2.116667,2.1166662 v 9.5249998 c 0,1.172634 -0.944033,2.116667 -2.116667,2.116667 h -9.525 C 2.531534,15.345833 1.5875,14.4018 1.5875,13.229166 V 3.7041662 C 1.5875,2.5315332 2.531534,1.5875 3.704166,1.5875 Z"
     sodipodi:nodetypes="sssssssss" />
  <path
     id="rect867"
     style="fill:url(#linearGradient1256);fill-opacity:1;stroke-width:2.38125;stroke-linecap:round;stroke-linejoin:round"
     d="m 3.175,1.0583333 c -1.1726333,0 -2.1166667,0.944033 -2.1166667,2.116667 V 13.758333 c 0,1.172633 0.9440334,2.116667 2.1166667,2.116667 h 10.583333 c 1.172633,0 2.116667,-0.944034 2.116667,-2.116667 V 3.1750003 c 0,-1.172634 -0.944034,-2.116667 -2.116667,-2.116667 z m 0.2645833,0.79375 H 13.49375 c 0.879475,0 1.5875,0.708025 1.5875,1.5875 V 13.49375 c 0,0.879475 -0.708025,1.5875 -1.5875,1.5875 H 3.4395833 c -0.879475,0 -1.5875,-0.708025 -1.5875,-1.5875 V 3.4395833 c 0,-0.879475 0.708025,-1.5875 1.5875,-1.5875 z" />
  <path
     id="rect872"
     style="opacity:0.3;fill:url(#linearGradient1274);fill-opacity:1;stroke-width:2.38125;stroke-linecap:round;stroke-linejoin:round"
     d="m 3.4395833,1.8520833 c -0.879475,0 -1.5875,0.708025 -1.5875,1.5875 v 0.264583 c 0,-0.879475 0.708025,-1.5875 1.5875,-1.5875 H 13.49375 c 0.879475,0 1.5875,0.708025 1.5875,1.5875 v -0.264583 c 0,-0.879475 -0.708025,-1.5875 -1.5875,-1.5875 z" />
  <path
     id="rect1345"
     style="opacity:0.3;fill:url(#linearGradient1781);fill-opacity:1;stroke-width:0.264583"
     d="m 3.1750003,1.0583333 c -1.172633,0 -2.116667,0.9440335 -2.116667,2.1166668 V 13.758333 c 0,1.172634 0.944034,2.116667 2.116667,2.116667 H 13.758334 c 1.172633,0 2.116666,-0.944033 2.116666,-2.116667 V 3.1750001 c 0,-1.1726333 -0.944033,-2.1166668 -2.116666,-2.1166668 z m 0,0.2645834 H 13.758334 c 1.026054,0 1.852083,0.8260292 1.852083,1.8520834 V 13.758333 c 0,1.026054 -0.826029,1.852084 -1.852083,1.852084 H 3.1750003 c -1.026055,0 -1.852083,-0.82603 -1.852083,-1.852084 V 3.1750001 c 0,-1.0260542 0.826028,-1.8520834 1.852083,-1.8520834 z" />
  <path
     id="rect870"
     style="opacity:0.3;stroke-width:0.264583"
     d="M 3.4395833,2.3812499 H 13.493749 c 0.586317,0 1.058334,0.4720167 1.058334,1.0583334 V 13.493749 c 0,0.586317 -0.472017,1.058334 -1.058334,1.058334 H 3.4395833 c -0.5863167,0 -1.0583334,-0.472017 -1.0583334,-1.058334 V 3.4395833 c 0,-0.5863167 0.4720167,-1.0583334 1.0583334,-1.0583334 z" />
  <path
     id="path26210"
     style="font-size:3.83454px;line-height:1.25;font-family:'Noto Sans Mono CJK KR';-inkscape-font-specification:'Noto Sans Mono CJK KR';stroke-width:0.362317;fill:#ffe112;fill-opacity:1"
     d="M 15 19.173828 L 16.087891 29.826172 L 17.478516 29.826172 L 18.246094 25.376953 C 18.347544 24.724779 18.419725 24.073228 18.492188 23.435547 L 18.550781 23.435547 C 18.623246 24.073228 18.680934 24.724779 18.796875 25.376953 L 19.564453 29.826172 L 20.986328 29.826172 L 22.013672 19.173828 L 20.927734 19.173828 L 20.390625 25.869141 C 20.31816 26.753198 20.261407 27.52106 20.232422 28.390625 L 20.173828 28.390625 C 20.028901 27.52106 19.912506 26.738706 19.767578 25.869141 L 19.058594 21.927734 L 18.101562 21.927734 L 17.376953 25.869141 C 17.217533 26.753198 17.101139 27.506567 16.970703 28.390625 L 16.912109 28.390625 C 16.854139 27.506567 16.810745 26.753198 16.738281 25.869141 L 16.1875 19.173828 L 15 19.173828 z M 24.869141 19.173828 L 22.449219 29.826172 L 23.724609 29.826172 L 24.40625 26.59375 L 27.101562 26.59375 L 27.783203 29.826172 L 29.087891 29.826172 L 26.666016 19.173828 L 24.869141 19.173828 z M 30.40625 19.173828 L 30.40625 29.826172 L 31.767578 29.826172 L 31.767578 25.318359 L 32.724609 25.318359 L 32.8125 25.318359 L 34.724609 29.826172 L 36.160156 29.826172 L 34.087891 25.101562 C 35.218325 24.695766 35.941406 23.724552 35.941406 22.173828 C 35.941406 19.97093 34.608667 19.173828 32.724609 19.173828 L 30.40625 19.173828 z M 37.537109 19.173828 L 37.537109 29.826172 L 38.666016 29.826172 L 38.666016 24.246094 C 38.666016 23.159138 38.565791 21.984573 38.507812 20.912109 L 38.564453 20.912109 L 39.304688 23.246094 L 41.609375 29.826172 L 42.986328 29.826172 L 42.986328 19.173828 L 41.855469 19.173828 L 41.855469 24.753906 C 41.855469 25.840862 41.955694 27.044413 42.013672 28.087891 L 41.957031 28.087891 L 41.246094 25.783203 L 38.912109 19.173828 L 37.537109 19.173828 z M 44.898438 19.173828 L 44.898438 20.333984 L 46.826172 20.333984 L 46.826172 28.710938 L 44.898438 28.710938 L 44.898438 29.826172 L 50.115234 29.826172 L 50.115234 28.710938 L 48.1875 28.710938 L 48.1875 20.333984 L 50.115234 20.333984 L 50.115234 19.173828 L 44.898438 19.173828 z M 52.029297 19.173828 L 52.029297 29.826172 L 53.160156 29.826172 L 53.160156 24.246094 C 53.160156 23.159138 53.057978 21.984573 53 20.912109 L 53.058594 20.912109 L 53.796875 23.246094 L 55 26.681641 L 55 23.691406 L 53.40625 19.173828 L 52.029297 19.173828 z M 31.767578 20.275391 L 32.537109 20.275391 C 33.870442 20.275391 34.609375 20.768032 34.609375 22.173828 C 34.609375 23.565132 33.870442 24.232422 32.537109 24.232422 L 31.767578 24.232422 L 31.767578 20.275391 z M 25.724609 20.289062 L 25.783203 20.289062 C 26.015088 21.520947 26.260615 22.680735 26.521484 23.869141 L 26.869141 25.507812 L 24.636719 25.507812 L 24.986328 23.869141 C 25.247198 22.680735 25.507218 21.520947 25.724609 20.289062 z "
     transform="scale(0.26458333)" />
  <path
     id="path27838"
     style="font-size:3.89614px;line-height:1.25;font-family:'Noto Sans Mono CJK KR';-inkscape-font-specification:'Noto Sans Mono CJK KR';fill:#ffe112;fill-opacity:1;stroke-width:0.368137"
     d="m 11.466797,36.230469 2.634765,6.964843 v 3.859376 h 1.384766 v -3.859376 l 2.634766,-6.964843 h -1.398438 l -1.074218,3.195312 c -0.265062,0.868808 -0.544433,1.634199 -0.824219,2.488281 h -0.06055 C 14.513337,41.05998 14.264161,40.310214 13.984375,39.441406 l -1.089844,-3.210937 z m 13.748047,0.132812 c -1.428014,0.04062 -2.625,1.355918 -2.625,3.341797 0,2.149935 1.014979,3.25586 2.443359,3.25586 0.780456,0 1.502928,-0.47286 2.0625,-1.179688 -0.07363,3.239626 -1.091049,4.314453 -2.166015,4.314453 -0.559573,0 -1.103618,-0.293191 -1.457032,-0.808594 l -0.75,0.839844 c 0.50067,0.633203 1.250769,1.103516 2.222656,1.103516 1.855423,0 3.445313,-1.604737 3.445313,-5.845703 0,-3.298526 -1.38453,-5.021485 -3.107422,-5.021485 -0.02278,0 -0.04569,-6.44e-4 -0.06836,0 z m 15.339844,0.175781 -3.548829,6.701172 v 0.898438 h 3.945313 v 2.916016 h 1.267578 v -2.916016 h 1.162109 V 43.0625 H 42.21875 v -6.523438 z m 6.935546,0 c -0.55957,0.353414 -1.222683,0.618369 -2.15039,0.765626 v 0.86914 h 1.826172 v 7.761719 h -2.283204 v 1.119141 h 5.699219 V 45.935547 H 48.505859 V 36.539062 Z M 25.3125,37.4375 c 1.001339,0 1.649774,1.119596 1.767578,3.269531 -0.589023,0.912987 -1.252183,1.222655 -1.767578,1.222657 -0.927711,0 -1.441406,-0.766778 -1.441406,-2.22461 0,-1.384203 0.587323,-2.267578 1.441406,-2.267578 z m 15.638672,0.324219 h 0.06055 c -0.04418,0.706828 -0.06055,1.339767 -0.06055,1.914062 V 43.0625 h -2.679688 l 1.929688,-3.578125 c 0.250318,-0.515395 0.514392,-1.14836 0.75,-1.722656 z M 9,39.119141 v 5.667968 l 0.4785156,2.267579 h 1.3242184 z m 23.832031,0.101562 c -0.508734,0.02648 -0.935547,0.46004 -0.935547,1.044922 0,0.618474 0.456208,1.001953 0.986328,1.001953 0.530122,0 0.986329,-0.383479 0.986329,-1.001953 0,-0.603749 -0.456207,-1.044922 -0.986329,-1.044922 -0.01657,0 -0.03437,-8.54e-4 -0.05078,0 z m 0.05078,5.962891 c -0.53012,0 -0.986328,0.427504 -0.986328,1.03125 0,0.633199 0.456208,1.015625 0.986328,1.015625 0.530122,0 0.986329,-0.382426 0.986329,-1.015625 0,-0.603746 -0.456207,-1.03125 -0.986329,-1.03125 z"
     transform="scale(0.26458333)"
     sodipodi:nodetypes="ccccccccccccccsscsccssscccccccccccccccccccccccccscsssccscccccccccsssssssssss" />
</svg>
