<?xml version="1.0" encoding="UTF-8" standalone="no"?>
<svg
   width="64"
   height="64"
   version="1.1"
   id="svg266"
   sodipodi:docname="lucidchart.svg"
   inkscape:version="1.2.1 (9c6d41e410, 2022-07-14)"
   xmlns:inkscape="http://www.inkscape.org/namespaces/inkscape"
   xmlns:sodipodi="http://sodipodi.sourceforge.net/DTD/sodipodi-0.dtd"
   xmlns="http://www.w3.org/2000/svg"
   xmlns:svg="http://www.w3.org/2000/svg">
  <sodipodi:namedview
     id="namedview268"
     pagecolor="#505050"
     bordercolor="#ffffff"
     borderopacity="1"
     inkscape:showpageshadow="0"
     inkscape:pageopacity="0"
     inkscape:pagecheckerboard="1"
     inkscape:deskcolor="#505050"
     showgrid="false"
     inkscape:zoom="8.15625"
     inkscape:cx="29.915709"
     inkscape:cy="32"
     inkscape:window-width="1366"
     inkscape:window-height="703"
     inkscape:window-x="0"
     inkscape:window-y="37"
     inkscape:window-maximized="1"
     inkscape:current-layer="svg266" />
  <defs
     id="defs254">
    <linearGradient
       id="linearGradient3532"
       x1="7.9373"
       x2="7.9373"
       y1="15.081"
       y2="1.852"
       gradientTransform="scale(3.7796)"
       gradientUnits="userSpaceOnUse">
      <stop
         stop-color="#f54800"
         offset="0"
         id="stop3528"
         style="stop-color:#000000;stop-opacity:1;" />
      <stop
         stop-color="#ffb200"
         offset="1"
         id="stop3530"
         style="stop-color:#ff7900;stop-opacity:1;" />
    </linearGradient>
    <linearGradient
       id="linearGradient1092"
       x1="7.9373"
       x2="7.9373"
       y1="15.081"
       y2="1.852"
       gradientTransform="scale(3.7796)"
       gradientUnits="userSpaceOnUse">
      <stop
         stop-color="#f54800"
         offset="0.01"
         id="stop244"
         style="stop-color:#f4460c;stop-opacity:1;" />
      <stop
         stop-color="#ffb200"
         offset="0.99271232"
         id="stop246"
         style="stop-color:#fba31f;stop-opacity:1;" />
    </linearGradient>
    <linearGradient
       id="linearGradient1138"
       x1="399.57"
       x2="399.57"
       y1="545.8"
       y2="517.8"
       gradientTransform="matrix(2.1429,0,0,2.1429,-826.36,-1107.5)"
       gradientUnits="userSpaceOnUse">
      <stop
         stop-color="#3889e9"
         offset="0"
         id="stop249" />
      <stop
         stop-color="#5ea5fb"
         offset="1"
         id="stop251" />
    </linearGradient>
    <filter
       inkscape:collect="always"
       style="color-interpolation-filters:sRGB"
       id="filter3534"
       x="-0.048000003"
       y="-0.048000003"
       width="1.096"
       height="1.096">
      <feGaussianBlur
         inkscape:collect="always"
         stdDeviation="1.12004"
         id="feGaussianBlur3536" />
    </filter>
    <filter
       inkscape:collect="always"
       style="color-interpolation-filters:sRGB"
       id="filter1045"
       x="-0.094965511"
       y="-0.12518182"
       width="1.189931"
       height="1.2503636">
      <feGaussianBlur
         inkscape:collect="always"
         stdDeviation="1.2288184"
         id="feGaussianBlur1047" />
    </filter>
  </defs>
  <rect
     width="64"
     height="64"
     rx="0"
     ry="0"
     fill="none"
     stroke-linecap="round"
     stroke-linejoin="round"
     stroke-width="1.4464"
     style="paint-order:stroke fill markers"
     id="rect256" />
  <rect
     x="3.9990005"
     y="3.9990005"
     width="56.001999"
     height="56.001999"
     rx="13.002"
     ry="13.002"
     fill="url(#linearGradient1092)"
     stroke-width="3.7796"
     id="rect260-5"
     style="fill:#000000;fill-opacity:1;filter:url(#filter3534);opacity:0.3" />
  <rect
     x="4"
     y="3.9686"
     width="56.002"
     height="56.002"
     rx="13.002"
     ry="13.002"
     fill="url(#linearGradient1092)"
     stroke-width="3.7796"
     id="rect260" />
  <circle
     cx="32.02"
     cy="32.044"
     r="30.001"
     fill-opacity="0"
     stroke-width="1.5715"
     id="circle262" />
  <circle
     cx="32.02"
     cy="32.044"
     r="0"
     fill="url(#linearGradient1138)"
     stroke-width="1.5715"
     id="circle264" />
  <path
     d="m 43.244088,20.220477 c -2.349479,0 -4.283462,1.933984 -4.283462,4.283463 0,2.34948 1.933983,4.283463 4.283462,4.283463 2.34948,0 4.283466,-1.933983 4.283466,-4.283463 0,-2.349479 -1.933986,-4.283463 -4.283466,-4.283463 z m -9.537129,0.0771 c -0.101734,-0.0022 -0.202393,0 -0.303055,0.0042 -1.455306,0.06854 -2.779967,0.875971 -3.508156,2.137448 -0.572913,0.994835 -0.721763,2.180283 -0.414425,3.286487 l -5.669163,3.274746 c -0.805291,-0.820281 -1.907212,-1.282896 -3.056251,-1.283967 -2.35055,0 -4.283463,1.933984 -4.283463,4.283462 0,2.350551 1.932913,4.283464 4.283463,4.283464 1.147968,-10e-4 2.248818,-0.463685 3.053039,-1.283969 l 5.670233,3.275779 c -0.307338,1.106206 -0.157417,2.290582 0.415496,3.285416 0.764598,1.32359 2.181354,2.142803 3.71055,2.142803 0.751748,0 1.490645,-0.198111 2.141731,-0.573985 1.324661,-0.764598 2.142802,-2.181354 2.142802,-3.71055 0,-0.751747 -0.19811,-1.490644 -0.573983,-2.141731 -0.764598,-1.32359 -2.181354,-2.141731 -3.709479,-2.141731 -0.751747,0 -1.491717,0.19811 -2.142802,0.575055 -0.336253,0.193826 -0.643591,0.431559 -0.91559,0.708913 L 24.877671,33.14578 c 0.104945,-0.373731 0.15956,-0.759244 0.160631,-1.145826 0,-0.387652 -0.05248,-0.773164 -0.156348,-1.145825 l 5.670235,-3.273638 c 0.269858,0.276284 0.577196,0.515087 0.911307,0.708914 0.651085,0.376945 1.391055,0.575055 2.142802,0.575055 1.528125,0 2.944881,-0.818143 3.709479,-2.141731 0.375873,-0.651087 0.573983,-1.389984 0.573983,-2.141733 0,-1.529196 -0.818141,-2.94595 -2.142802,-3.710549 -0.621102,-0.35874 -1.32359,-0.555779 -2.04107,-0.572913 z m 9.537129,14.915018 c -2.350549,0 -4.283462,1.933985 -4.283462,4.283464 0,2.35055 1.932913,4.283463 4.283462,4.283463 2.34948,0 4.283466,-1.932913 4.283466,-4.283464 0,-2.349478 -1.933986,-4.283463 -4.283466,-4.283463 z"
     fill="#ffffff"
     fill-rule="nonzero"
     id="path9-3"
     style="stroke-width:1.07086;fill:#090909;fill-opacity:1;filter:url(#filter1045);opacity:0.6" />
  <path
     d="m 43.244089,20.220477 c -2.349479,0 -4.283462,1.933984 -4.283462,4.283463 0,2.34948 1.933983,4.283463 4.283462,4.283463 2.34948,0 4.283465,-1.933983 4.283465,-4.283463 0,-2.349479 -1.933985,-4.283463 -4.283465,-4.283463 z m -9.537129,0.0771 c -0.101734,-0.0022 -0.202393,0 -0.303055,0.0042 -1.455306,0.06854 -2.779967,0.87597 -3.508156,2.137448 -0.572913,0.994835 -0.721763,2.180283 -0.414425,3.286487 l -5.669163,3.274746 c -0.805291,-0.820282 -1.907212,-1.282896 -3.056251,-1.283967 -2.35055,0 -4.283463,1.933984 -4.283463,4.283462 0,2.350551 1.932913,4.283464 4.283463,4.283464 1.147968,-10e-4 2.248818,-0.463685 3.053039,-1.283969 l 5.670233,3.275779 c -0.307338,1.106206 -0.157417,2.290582 0.415496,3.285416 0.764598,1.32359 2.181354,2.142803 3.71055,2.142803 0.751748,0 1.490645,-0.198111 2.141731,-0.573985 1.324661,-0.764598 2.142802,-2.181354 2.142802,-3.71055 0,-0.751747 -0.19811,-1.490644 -0.573983,-2.141731 -0.764598,-1.32359 -2.181354,-2.141731 -3.709479,-2.141731 -0.751747,0 -1.491717,0.19811 -2.142802,0.575055 -0.336253,0.193826 -0.643591,0.431559 -0.91559,0.708913 L 24.877672,33.14578 c 0.104945,-0.373731 0.15956,-0.759244 0.160631,-1.145826 0,-0.387652 -0.05248,-0.773164 -0.156348,-1.145825 l 5.670235,-3.273638 c 0.269858,0.276284 0.577196,0.515087 0.911307,0.708914 0.651085,0.376945 1.391055,0.575055 2.142802,0.575055 1.528125,0 2.944881,-0.818143 3.709479,-2.141731 0.375873,-0.651087 0.573983,-1.389984 0.573983,-2.141733 0,-1.529196 -0.818141,-2.94595 -2.142802,-3.710549 -0.621102,-0.35874 -1.32359,-0.555779 -2.04107,-0.572913 z m 9.537129,14.915018 c -2.350549,0 -4.283462,1.933985 -4.283462,4.283463 0,2.350551 1.932913,4.283464 4.283462,4.283464 2.34948,0 4.283465,-1.932913 4.283465,-4.283464 0,-2.349479 -1.933985,-4.283463 -4.283465,-4.283463 z"
     fill="#ffffff"
     fill-rule="nonzero"
     id="path9"
     style="stroke-width:1.07086" />
</svg>
