<?xml version="1.0" encoding="UTF-8" standalone="no"?>
<svg
   clip-rule="evenodd"
   fill-rule="evenodd"
   stroke-linejoin="round"
   stroke-miterlimit="2"
   viewBox="0 0 48 48"
   version="1.1"
   id="svg29"
   sodipodi:docname="LyricsFinder.svg"
   inkscape:version="1.2.1 (9c6d41e410, 2022-07-14)"
   xmlns:inkscape="http://www.inkscape.org/namespaces/inkscape"
   xmlns:sodipodi="http://sodipodi.sourceforge.net/DTD/sodipodi-0.dtd"
   xmlns:xlink="http://www.w3.org/1999/xlink"
   xmlns="http://www.w3.org/2000/svg"
   xmlns:svg="http://www.w3.org/2000/svg">
  <defs
     id="defs33">
    <linearGradient
       inkscape:collect="always"
       id="linearGradient1089">
      <stop
         style="stop-color:#454545;stop-opacity:1;"
         offset="0"
         id="stop1085" />
      <stop
         style="stop-color:#626262;stop-opacity:1;"
         offset="0.10527249"
         id="stop1093" />
      <stop
         style="stop-color:#3f3f3f;stop-opacity:1;"
         offset="0.20265658"
         id="stop1099" />
      <stop
         style="stop-color:#2b2b2b;stop-opacity:1;"
         offset="0.29526243"
         id="stop1101" />
      <stop
         style="stop-color:#484848;stop-opacity:1;"
         offset="0.71703446"
         id="stop1103" />
      <stop
         style="stop-color:#585858;stop-opacity:1;"
         offset="0.81487429"
         id="stop1097" />
      <stop
         style="stop-color:#454545;stop-opacity:1;"
         offset="0.92232066"
         id="stop1095" />
      <stop
         style="stop-color:#292929;stop-opacity:1;"
         offset="1"
         id="stop1087" />
    </linearGradient>
    <linearGradient
       inkscape:collect="always"
       id="linearGradient1075">
      <stop
         style="stop-color:#383838;stop-opacity:1;"
         offset="0"
         id="stop1071" />
      <stop
         style="stop-color:#666666;stop-opacity:1;"
         offset="0.24850884"
         id="stop1083" />
      <stop
         style="stop-color:#787878;stop-opacity:1;"
         offset="0.4160243"
         id="stop1081" />
      <stop
         style="stop-color:#686868;stop-opacity:1;"
         offset="0.51867622"
         id="stop1079" />
      <stop
         style="stop-color:#212121;stop-opacity:1;"
         offset="1"
         id="stop1073" />
    </linearGradient>
    <linearGradient
       inkscape:collect="always"
       id="linearGradient1061">
      <stop
         style="stop-color:#5a5858;stop-opacity:1;"
         offset="0"
         id="stop1057" />
      <stop
         style="stop-color:#838181;stop-opacity:1;"
         offset="0.13398808"
         id="stop1067" />
      <stop
         style="stop-color:#949292;stop-opacity:1;"
         offset="0.52909535"
         id="stop1069" />
      <stop
         style="stop-color:#838181;stop-opacity:1;"
         offset="0.88214427"
         id="stop1065" />
      <stop
         style="stop-color:#5a5858;stop-opacity:1;"
         offset="1"
         id="stop1059" />
    </linearGradient>
    <linearGradient
       inkscape:collect="always"
       id="linearGradient1047">
      <stop
         style="stop-color:#5a5858;stop-opacity:1;"
         offset="0"
         id="stop1043" />
      <stop
         style="stop-color:#838181;stop-opacity:1;"
         offset="0.10823835"
         id="stop1051" />
      <stop
         style="stop-color:#949292;stop-opacity:1;"
         offset="0.53336889"
         id="stop1055" />
      <stop
         style="stop-color:#838181;stop-opacity:1;"
         offset="0.87081885"
         id="stop1053" />
      <stop
         style="stop-color:#5a5858;stop-opacity:1;"
         offset="1"
         id="stop1045" />
    </linearGradient>
    <linearGradient
       inkscape:collect="always"
       id="linearGradient913">
      <stop
         style="stop-color:#514e4e;stop-opacity:1;"
         offset="0"
         id="stop909" />
      <stop
         style="stop-color:#6f6d6d;stop-opacity:1;"
         offset="0.51015395"
         id="stop1041" />
      <stop
         style="stop-color:#5e5a5a;stop-opacity:1;"
         offset="1"
         id="stop911" />
    </linearGradient>
    <linearGradient
       inkscape:collect="always"
       id="linearGradient897">
      <stop
         style="stop-color:#674f4f;stop-opacity:1;"
         offset="0"
         id="stop893" />
      <stop
         style="stop-color:#826464;stop-opacity:1;"
         offset="0.24576358"
         id="stop901" />
      <stop
         style="stop-color:#a38686;stop-opacity:1;"
         offset="0.45420814"
         id="stop903" />
      <stop
         style="stop-color:#7e6060;stop-opacity:1;"
         offset="0.5886783"
         id="stop907" />
      <stop
         style="stop-color:#6d5353;stop-opacity:1;"
         offset="0.71044737"
         id="stop905" />
      <stop
         style="stop-color:#523f3f;stop-opacity:1;"
         offset="1"
         id="stop895" />
    </linearGradient>
    <linearGradient
       inkscape:collect="always"
       xlink:href="#linearGradient897"
       id="linearGradient899"
       x1="22.391"
       y1="20.023"
       x2="25.609"
       y2="20.023"
       gradientUnits="userSpaceOnUse" />
    <linearGradient
       inkscape:collect="always"
       xlink:href="#linearGradient913"
       id="linearGradient915"
       x1="14.456593"
       y1="23.596384"
       x2="14.582742"
       y2="16.572807"
       gradientUnits="userSpaceOnUse" />
    <linearGradient
       inkscape:collect="always"
       xlink:href="#linearGradient1047"
       id="linearGradient1049"
       x1="27.218"
       y1="20.023"
       x2="40.092"
       y2="20.023"
       gradientUnits="userSpaceOnUse" />
    <linearGradient
       inkscape:collect="always"
       xlink:href="#linearGradient1061"
       id="linearGradient1063"
       x1="7.908"
       y1="20.023"
       x2="20.782"
       y2="20.023"
       gradientUnits="userSpaceOnUse" />
    <linearGradient
       inkscape:collect="always"
       xlink:href="#linearGradient1075"
       id="linearGradient1077"
       x1="7.908"
       y1="31.2875"
       x2="20.782"
       y2="31.2875"
       gradientUnits="userSpaceOnUse" />
    <linearGradient
       inkscape:collect="always"
       xlink:href="#linearGradient1089"
       id="linearGradient1091"
       x1="12.736"
       y1="10.368"
       x2="35.264"
       y2="10.368"
       gradientUnits="userSpaceOnUse" />
  </defs>
  <sodipodi:namedview
     id="namedview31"
     pagecolor="#505050"
     bordercolor="#ffffff"
     borderopacity="1"
     inkscape:showpageshadow="0"
     inkscape:pageopacity="0"
     inkscape:pagecheckerboard="1"
     inkscape:deskcolor="#505050"
     showgrid="false"
     inkscape:zoom="10.875"
     inkscape:cx="24.045977"
     inkscape:cy="25.37931"
     inkscape:window-width="1366"
     inkscape:window-height="703"
     inkscape:window-x="0"
     inkscape:window-y="37"
     inkscape:window-maximized="1"
     inkscape:current-layer="svg29" />
  <linearGradient
     id="a"
     x2="1"
     gradientTransform="matrix(0 -43.3373 43.3373 0 201.9 45.6687)"
     gradientUnits="userSpaceOnUse">
    <stop
       stop-color="#b2b2b2"
       offset="0"
       id="stop2" />
    <stop
       stop-color="#f6f6f6"
       offset="1"
       id="stop4" />
  </linearGradient>
  <path
     d="m45.668 8.56c0-3.438-2.79-6.228-6.228-6.228h-30.88c-3.438 0-6.228 2.79-6.228 6.228v30.88c0 3.438 2.79 6.228 6.228 6.228h30.88c3.438 0 6.228-2.79 6.228-6.228z"
     fill="url(#a)"
     id="path7" />
  <g
     fill="#454545"
     id="g15">
    <path
       d="m17.761 6.345c.779 0 1.411.632 1.411 1.411v6.635h-6.436v-6.635c0-.779.632-1.411 1.411-1.411zm16.092 0c.779 0 1.411.632 1.411 1.411v6.635h-6.436v-6.635c0-.779.632-1.411 1.411-1.411z"
       id="path9"
       style="fill-opacity:1;fill:url(#linearGradient1091)" />
    <path
       d="m7.908 38.529 3.219-14.483h6.436l3.219 14.483z"
       fill-rule="nonzero"
       id="path11"
       style="fill-opacity:1;fill:url(#linearGradient1077)" />
    <path
       d="m27.218 38.529 3.219-14.483h6.436l3.219 14.483z"
       fill-rule="nonzero"
       id="path13" />
  </g>
  <path
     d="m20.782 15.055c0-.603-.24-1.181-.666-1.608-.426-.426-1.005-.665-1.607-.665h-8.328c-.603 0-1.181.239-1.607.665-.426.427-.666 1.005-.666 1.608v12.209h12.874z"
     fill="#838181"
     id="path17"
     style="fill-opacity:1;fill:url(#linearGradient1063)" />
  <path
     d="m40.092 15.055c0-.603-.24-1.181-.666-1.608-.426-.426-1.004-.665-1.607-.665h-8.328c-.603 0-1.181.239-1.607.665-.426.427-.666 1.005-.666 1.608v12.209h12.874z"
     fill="#838181"
     id="path19"
     style="fill-opacity:1;fill:url(#linearGradient1049)" />
  <path
     d="m22.391 14.391h3.218v11.264h-3.218z"
     fill="#674f4f"
     id="path21"
     style="fill-opacity:1;fill:url(#linearGradient899)" />
  <path
     d="m33.655 17.913c0-1.057-.856-1.913-1.913-1.913h-15.484c-1.057 0-1.913.856-1.913 1.913v4.22c0 1.057.856 1.913 1.913 1.913h15.484c1.057 0 1.913-.856 1.913-1.913z"
     fill="#6f6d6d"
     id="path23"
     style="fill-opacity:1;fill:url(#linearGradient915)" />
  <circle
     cx="36.374"
     cy="36.296"
     r="11"
     fill="#0798ff"
     id="circle25" />
  <path
     d="m33 30v7.051c-.165-.034-.332-.051-.5-.051-1.371 0-2.5 1.129-2.5 2.5s1.129 2.5 2.5 2.5 2.5-1.129 2.5-2.5c-.001-.011-.001-.022-.002-.033h.002v-6.467h5v4.051c-.165-.034-.332-.051-.5-.051-1.371 0-2.5 1.129-2.5 2.5s1.129 2.5 2.5 2.5 2.5-1.129 2.5-2.5c0-.025-.001-.051-.002-.076h.002v-9.424z"
     fill="#fff"
     fill-rule="nonzero"
     id="path27" />
</svg>
