<?xml version="1.0" encoding="UTF-8" standalone="no"?>
<svg
   width="128"
   height="128"
   viewBox="0 0 33.866666 33.866668"
   version="1.1"
   id="svg2117"
   inkscape:version="1.2.1 (9c6d41e410, 2022-07-14, custom)"
   sodipodi:docname="marktext.svg"
   xmlns:inkscape="http://www.inkscape.org/namespaces/inkscape"
   xmlns:sodipodi="http://sodipodi.sourceforge.net/DTD/sodipodi-0.dtd"
   xmlns:xlink="http://www.w3.org/1999/xlink"
   xmlns="http://www.w3.org/2000/svg"
   xmlns:svg="http://www.w3.org/2000/svg"
   xmlns:rdf="http://www.w3.org/1999/02/22-rdf-syntax-ns#"
   xmlns:cc="http://creativecommons.org/ns#"
   xmlns:dc="http://purl.org/dc/elements/1.1/">
  <defs
     id="defs2111">
    <linearGradient
       id="linearGradient1630"
       inkscape:collect="always">
      <stop
         id="stop1626"
         offset="0"
         style="stop-color:#f5fbfb;stop-opacity:1" />
      <stop
         id="stop1628"
         offset="1"
         style="stop-color:#e3e5e4;stop-opacity:1" />
    </linearGradient>
    <linearGradient
       id="linearGradient895">
      <stop
         id="stop3335"
         offset="0" />
      <stop
         id="stop3337"
         offset="1"
         stop-opacity="0" />
    </linearGradient>
    <radialGradient
       inkscape:collect="always"
       xlink:href="#linearGradient1630"
       id="radialGradient1381"
       cx="16.688675"
       cy="4.6369486"
       fx="16.688675"
       fy="4.6369486"
       r="14.54372"
       gradientUnits="userSpaceOnUse"
       gradientTransform="matrix(3.5271834,0,0,2.0755194,-42.175343,-4.9871282)" />
    <filter
       id="filter1207"
       x="-1.825283e-08"
       y="-1.0481315e-08"
       width="1"
       height="1"
       color-interpolation-filters="sRGB">
      <feGaussianBlur
         stdDeviation="3.5526852e-08"
         id="feGaussianBlur31" />
    </filter>
    <linearGradient
       id="linearGradient484"
       x1="46.907001"
       x2="45.557999"
       y1="-1.6207"
       y2="6.5141001"
       gradientUnits="userSpaceOnUse">
      <stop
         stop-color="#e3b75e"
         offset="0"
         id="stop10"
         style="stop-color:#f9b120;stop-opacity:1;" />
      <stop
         stop-color="#ebcb8b"
         offset="1"
         id="stop12"
         style="stop-color:#fbc350;stop-opacity:1;" />
    </linearGradient>
    <filter
       id="filter1201"
       x="-1.7424719e-08"
       y="-2.119952e-08"
       width="1"
       height="1"
       color-interpolation-filters="sRGB">
      <feGaussianBlur
         stdDeviation="4.6250285e-08"
         id="feGaussianBlur28" />
    </filter>
    <linearGradient
       id="linearGradient587"
       x1="51.244999"
       x2="44.874001"
       y1="9.1321001"
       y2="3.8961"
       gradientUnits="userSpaceOnUse">
      <stop
         stop-color="#5e81ac"
         offset="0"
         id="stop20"
         style="stop-color:#3172c4;stop-opacity:1;" />
      <stop
         stop-color="#81a1c1"
         offset="1"
         id="stop22"
         style="stop-color:#478cd1;stop-opacity:1;" />
    </linearGradient>
    <filter
       id="filter1148"
       x="-2.0228534e-07"
       y="-5.3868092e-07"
       width="1.0000004"
       height="1.0000011"
       color-interpolation-filters="sRGB">
      <feGaussianBlur
         stdDeviation="6.5065919e-07"
         id="feGaussianBlur25" />
    </filter>
    <linearGradient
       id="linearGradient579"
       x1="39.817001"
       x2="47.536999"
       y1="7.4281998"
       y2="4.5293002"
       gradientUnits="userSpaceOnUse">
      <stop
         stop-color="#8bae70"
         offset="0"
         id="stop15"
         style="stop-color:#76c639;stop-opacity:1;" />
      <stop
         stop-color="#a3be8c"
         offset="1"
         id="stop17"
         style="stop-color:#93d161;stop-opacity:1;" />
    </linearGradient>
    <filter
       inkscape:collect="always"
       style="color-interpolation-filters:sRGB"
       id="filter1079"
       x="-0.099273022"
       y="-0.11840923"
       width="1.198546"
       height="1.2368185">
      <feGaussianBlur
         inkscape:collect="always"
         stdDeviation="0.37644573"
         id="feGaussianBlur1081" />
    </filter>
  </defs>
  <sodipodi:namedview
     id="base"
     pagecolor="#ffffff"
     bordercolor="#666666"
     borderopacity="1.0"
     inkscape:pageopacity="0.0"
     inkscape:pageshadow="2"
     inkscape:zoom="3.1304039"
     inkscape:cx="4.7917139"
     inkscape:cy="37.055921"
     inkscape:document-units="mm"
     inkscape:current-layer="g62"
     inkscape:document-rotation="0"
     showgrid="false"
     units="px"
     inkscape:window-width="1920"
     inkscape:window-height="1015"
     inkscape:window-x="0"
     inkscape:window-y="37"
     inkscape:window-maximized="1"
     inkscape:showpageshadow="0"
     inkscape:pagecheckerboard="1"
     inkscape:deskcolor="#d1d1d1" />
  <metadata
     id="metadata2114">
    <rdf:RDF>
      <cc:Work
         rdf:about="">
        <dc:format>image/svg+xml</dc:format>
        <dc:type
           rdf:resource="http://purl.org/dc/dcmitype/StillImage" />
      </cc:Work>
    </rdf:RDF>
  </metadata>
  <g
     inkscape:label="Capa 1"
     inkscape:groupmode="layer"
     id="layer1">
    <g
       style="opacity:0.13961803"
       transform="matrix(0.97573206,0,0,0.97573206,-65.861139,-37.234129)"
       id="g1702">
      <rect
         ry="6.6098609"
         rx="6.6098609"
         y="40.709618"
         x="69.839508"
         height="29.810888"
         width="29.810888"
         id="rect1634"
         style="fill:none;fill-opacity:1;stroke:#000000;stroke-width:0.1;stroke-linecap:round;stroke-linejoin:round;stroke-miterlimit:4;stroke-dasharray:none;stroke-opacity:0.02" />
      <rect
         style="fill:none;fill-opacity:1;stroke:#000000;stroke-width:0.2;stroke-linecap:round;stroke-linejoin:round;stroke-miterlimit:4;stroke-dasharray:none;stroke-opacity:0.02"
         id="rect1638"
         width="29.810888"
         height="29.810888"
         x="69.839508"
         y="40.709618"
         rx="6.6098609"
         ry="6.6098609" />
      <rect
         ry="6.6098609"
         rx="6.6098609"
         y="40.709618"
         x="69.839508"
         height="29.810888"
         width="29.810888"
         id="rect1640"
         style="fill:none;fill-opacity:1;stroke:#000000;stroke-width:0.3;stroke-linecap:round;stroke-linejoin:round;stroke-miterlimit:4;stroke-dasharray:none;stroke-opacity:0.02" />
      <rect
         style="fill:none;fill-opacity:1;stroke:#000000;stroke-width:0.4;stroke-linecap:round;stroke-linejoin:round;stroke-miterlimit:4;stroke-dasharray:none;stroke-opacity:0.02"
         id="rect1642"
         width="29.810888"
         height="29.810888"
         x="69.839508"
         y="40.709618"
         rx="6.6098609"
         ry="6.6098609" />
      <rect
         ry="6.6098609"
         rx="6.6098609"
         y="40.709618"
         x="69.839508"
         height="29.810888"
         width="29.810888"
         id="rect1644"
         style="fill:none;fill-opacity:1;stroke:#000000;stroke-width:0.5;stroke-linecap:round;stroke-linejoin:round;stroke-miterlimit:4;stroke-dasharray:none;stroke-opacity:0.02" />
      <rect
         style="fill:none;fill-opacity:1;stroke:#000000;stroke-width:0.6;stroke-linecap:round;stroke-linejoin:round;stroke-miterlimit:4;stroke-dasharray:none;stroke-opacity:0.02"
         id="rect1646"
         width="29.810888"
         height="29.810888"
         x="69.839508"
         y="40.709618"
         rx="6.6098609"
         ry="6.6098609" />
      <rect
         ry="6.6098609"
         rx="6.6098609"
         y="40.709618"
         x="69.839508"
         height="29.810888"
         width="29.810888"
         id="rect1648"
         style="fill:none;fill-opacity:1;stroke:#000000;stroke-width:0.7;stroke-linecap:round;stroke-linejoin:round;stroke-miterlimit:4;stroke-dasharray:none;stroke-opacity:0.02" />
      <rect
         style="fill:none;fill-opacity:1;stroke:#000000;stroke-width:0.8;stroke-linecap:round;stroke-linejoin:round;stroke-miterlimit:4;stroke-dasharray:none;stroke-opacity:0.02"
         id="rect1650"
         width="29.810888"
         height="29.810888"
         x="69.839508"
         y="40.709618"
         rx="6.6098609"
         ry="6.6098609" />
      <rect
         ry="6.6098609"
         rx="6.6098609"
         y="40.709618"
         x="69.839508"
         height="29.810888"
         width="29.810888"
         id="rect1652"
         style="fill:none;fill-opacity:1;stroke:#000000;stroke-width:1;stroke-linecap:round;stroke-linejoin:round;stroke-miterlimit:4;stroke-dasharray:none;stroke-opacity:0.02" />
      <rect
         style="fill:none;fill-opacity:1;stroke:#000000;stroke-width:1.2;stroke-linecap:round;stroke-linejoin:round;stroke-miterlimit:4;stroke-dasharray:none;stroke-opacity:0.02"
         id="rect1654"
         width="29.810888"
         height="29.810888"
         x="69.839508"
         y="40.709618"
         rx="6.6098609"
         ry="6.6098609" />
      <rect
         ry="6.6098609"
         rx="6.6098609"
         y="40.709618"
         x="69.839508"
         height="29.810888"
         width="29.810888"
         id="rect1656"
         style="fill:none;fill-opacity:1;stroke:#000000;stroke-width:1.4;stroke-linecap:round;stroke-linejoin:round;stroke-miterlimit:4;stroke-dasharray:none;stroke-opacity:0.02" />
      <rect
         style="fill:none;fill-opacity:1;stroke:#000000;stroke-width:1.6;stroke-linecap:round;stroke-linejoin:round;stroke-miterlimit:4;stroke-dasharray:none;stroke-opacity:0.02"
         id="rect1658"
         width="29.810888"
         height="29.810888"
         x="69.839508"
         y="40.709618"
         rx="6.6098609"
         ry="6.6098609" />
      <rect
         ry="6.6098609"
         rx="6.6098609"
         y="40.709618"
         x="69.839508"
         height="29.810888"
         width="29.810888"
         id="rect1660"
         style="fill:none;fill-opacity:1;stroke:#000000;stroke-width:1.8;stroke-linecap:round;stroke-linejoin:round;stroke-miterlimit:4;stroke-dasharray:none;stroke-opacity:0.02" />
      <rect
         style="fill:none;fill-opacity:1;stroke:#000000;stroke-width:2;stroke-linecap:round;stroke-linejoin:round;stroke-miterlimit:4;stroke-dasharray:none;stroke-opacity:0.02"
         id="rect1662"
         width="29.810888"
         height="29.810888"
         x="69.839508"
         y="40.709618"
         rx="6.6098609"
         ry="6.6098609" />
      <rect
         ry="6.6098609"
         rx="6.6098609"
         y="40.709618"
         x="69.839508"
         height="29.810888"
         width="29.810888"
         id="rect1664"
         style="fill:none;fill-opacity:1;stroke:#000000;stroke-width:2.2;stroke-linecap:round;stroke-linejoin:round;stroke-miterlimit:4;stroke-dasharray:none;stroke-opacity:0.02" />
      <rect
         style="fill:none;fill-opacity:1;stroke:#000000;stroke-width:2.6;stroke-linecap:round;stroke-linejoin:round;stroke-miterlimit:4;stroke-dasharray:none;stroke-opacity:0.02"
         id="rect1666"
         width="29.810888"
         height="29.810888"
         x="69.839508"
         y="40.709618"
         rx="6.6098609"
         ry="6.6098609" />
      <rect
         ry="6.6098609"
         rx="6.6098609"
         y="40.709618"
         x="69.839508"
         height="29.810888"
         width="29.810888"
         id="rect1668"
         style="fill:none;fill-opacity:1;stroke:#000000;stroke-width:3;stroke-linecap:round;stroke-linejoin:round;stroke-miterlimit:4;stroke-dasharray:none;stroke-opacity:0.02" />
      <rect
         style="fill:none;fill-opacity:1;stroke:#000000;stroke-width:3.4;stroke-linecap:round;stroke-linejoin:round;stroke-miterlimit:4;stroke-dasharray:none;stroke-opacity:0.02"
         id="rect1670"
         width="29.810888"
         height="29.810888"
         x="69.839508"
         y="40.709618"
         rx="6.6098609"
         ry="6.6098609" />
      <rect
         ry="6.6098609"
         rx="6.6098609"
         y="40.709618"
         x="69.839508"
         height="29.810888"
         width="29.810888"
         id="rect1672"
         style="fill:none;fill-opacity:1;stroke:#000000;stroke-width:3.8;stroke-linecap:round;stroke-linejoin:round;stroke-miterlimit:4;stroke-dasharray:none;stroke-opacity:0.02" />
      <rect
         style="fill:none;fill-opacity:1;stroke:#000000;stroke-width:4.2;stroke-linecap:round;stroke-linejoin:round;stroke-miterlimit:4;stroke-dasharray:none;stroke-opacity:0.02"
         id="rect1674"
         width="29.810888"
         height="29.810888"
         x="69.839508"
         y="40.709618"
         rx="6.6098609"
         ry="6.6098609" />
      <rect
         ry="6.6098609"
         rx="6.6098609"
         y="40.709618"
         x="69.839508"
         height="29.810888"
         width="29.810888"
         id="rect1676"
         style="fill:none;fill-opacity:1;stroke:#000000;stroke-width:4.6;stroke-linecap:round;stroke-linejoin:round;stroke-miterlimit:4;stroke-dasharray:none;stroke-opacity:0.02" />
      <rect
         style="fill:none;fill-opacity:1;stroke:#000000;stroke-width:5;stroke-linecap:round;stroke-linejoin:round;stroke-miterlimit:4;stroke-dasharray:none;stroke-opacity:0.02"
         id="rect1678"
         width="29.810888"
         height="29.810888"
         x="69.839508"
         y="40.709618"
         rx="6.6098609"
         ry="6.6098609" />
    </g>
    <rect
       style="fill:url(#radialGradient1381);fill-opacity:1;stroke-width:2.68769;stroke-linecap:round;stroke-linejoin:round"
       id="rect910"
       width="29.08744"
       height="29.08744"
       x="2.2835085"
       y="2.4875498"
       rx="6.4494534"
       ry="6.4494534" />
    <g
       transform="matrix(1.7725943,0,0,1.7725943,-64.084138,10.434867)"
       stroke-width="0.26458"
       id="g62">
      <path
         d="m 47.045668,6.6865977 1.332998,-0.7889914 0.0035,-0.810964 c 0.0019,-0.4460004 2.13e-4,-0.8109382 -0.004,-0.8109382 -0.0042,0 -0.604504,0.3395504 -1.334118,0.7545592 -0.729615,0.4150089 -1.335186,0.7578696 -1.345691,0.7618835 -0.01047,0.00395 -0.622304,-0.3355362 -1.359529,-0.7545592 -0.737227,-0.419049 -1.343761,-0.7618835 -1.347881,-0.7618835 -0.004,0 -0.0057,0.3648858 -0.004,0.8108859 l 0.0035,0.8108861 1.339982,0.7945431 c 0.736992,0.4370078 1.349391,0.7920929 1.360911,0.7890693 0.01152,-0.00295 0.620793,-0.3605327 1.353928,-0.7944908 z m -4.452705,-1.62576 -8.8e-5,-1.0015002 -0.460442,-0.2504311 V 3.0218961 c 0,-0.6903607 0.0026,-0.7860198 0.02075,-0.7790343 0.01134,0.00395 0.814874,0.4666698 1.785487,1.0273308 l 1.764739,1.0193547 1.714484,-0.9995715 c 0.942958,-0.5497656 1.747459,-1.01826 1.787782,-1.0411191 l 0.0733,-0.041573 v 1.6015975 l -0.46044,0.2504311 -8.4e-5,1.0022039 c -6.7e-5,0.8308519 0.003,1.0002753 0.01849,0.9910221 0.01025,-0.00592 0.33371,-0.1930669 0.71885,-0.4153737 L 50.256021,5.232972 V 2.5420085 c 0,-1.4800296 -0.0024,-2.69096314 -0.0054,-2.69096314 -0.0056,0 -4.45844,2.56952574 -4.511352,2.60322804 -0.02677,0.017044 -0.215759,-0.089057 -2.301421,-1.2923348 -1.249742,-0.72098733 -2.274571,-1.31089324 -2.277386,-1.31089324 -0.0028,0 -0.0053,1.21088124 -0.0053,2.69096314 v 2.6909632 l 0.715357,0.4138099 c 0.393453,0.2275955 0.716922,0.4142531 0.718825,0.4148004 0.0019,4.171e-4 0.0035,-0.4497016 0.0035,-1.0005096 z"
         fill="#109add"
         stroke-width="0.0139582"
         id="path15"
         style="fill:#010d12;fill-opacity:1;filter:url(#filter1079);opacity:0.5" />
      <path
         d="m 47.045668,6.6865977 1.332998,-0.7889914 0.0035,-0.810964 c 0.0019,-0.4460004 2.13e-4,-0.8109382 -0.004,-0.8109382 -0.0042,0 -0.604504,0.3395504 -1.334118,0.7545592 -0.729615,0.4150089 -1.335186,0.7578696 -1.345691,0.7618835 -0.01047,0.00395 -0.622304,-0.3355362 -1.359529,-0.7545592 -0.737227,-0.419049 -1.343761,-0.7618835 -1.347881,-0.7618835 -0.004,0 -0.0057,0.3648858 -0.004,0.8108859 l 0.0035,0.8108861 1.339982,0.7945431 c 0.736992,0.4370078 1.349391,0.7920929 1.360911,0.7890693 0.01152,-0.00295 0.620793,-0.3605327 1.353928,-0.7944908 z m -4.452705,-1.62576 -8.8e-5,-1.0015002 -0.460442,-0.2504311 V 3.0218961 c 0,-0.6903607 0.0026,-0.7860198 0.02075,-0.7790343 0.01134,0.00395 0.814874,0.4666698 1.785487,1.0273308 l 1.764739,1.0193547 1.714484,-0.9995715 c 0.942958,-0.5497656 1.747459,-1.01826 1.787782,-1.0411191 l 0.0733,-0.041573 v 1.6015975 l -0.46044,0.2504311 -8.4e-5,1.0022039 c -6.7e-5,0.8308519 0.003,1.0002753 0.01849,0.9910221 0.01025,-0.00592 0.33371,-0.1930669 0.71885,-0.4153737 L 50.256021,5.232972 V 2.5420085 c 0,-1.4800296 -0.0024,-2.69096312 -0.0054,-2.69096312 -0.0056,0 -4.45844,2.56952572 -4.511352,2.60322802 -0.02677,0.017044 -0.215759,-0.089057 -2.301421,-1.2923348 -1.249742,-0.72098732 -2.274571,-1.31089322 -2.277386,-1.31089322 -0.0028,0 -0.0053,1.21088122 -0.0053,2.69096312 v 2.6909632 l 0.715357,0.4138099 c 0.393453,0.2275955 0.716922,0.4142531 0.718825,0.4148004 0.0019,4.171e-4 0.0035,-0.4497016 0.0035,-1.0005096 z"
         fill="#109add"
         stroke-width="0.0139582"
         id="path15-3"
         style="fill:#000000;fill-opacity:1" />
    </g>
  </g>
</svg>
