<?xml version="1.0" encoding="UTF-8" standalone="no"?>
<!-- Created with Inkscape (http://www.inkscape.org/) -->

<svg
   width="64"
   height="64"
   viewBox="0 0 16.933333 16.933333"
   version="1.1"
   id="svg5"
   inkscape:version="1.1.1 (3bf5ae0d25, 2021-09-20, custom)"
   sodipodi:docname="mintbackup.svg"
   xmlns:inkscape="http://www.inkscape.org/namespaces/inkscape"
   xmlns:sodipodi="http://sodipodi.sourceforge.net/DTD/sodipodi-0.dtd"
   xmlns:xlink="http://www.w3.org/1999/xlink"
   xmlns="http://www.w3.org/2000/svg"
   xmlns:svg="http://www.w3.org/2000/svg">
  <sodipodi:namedview
     id="namedview7"
     pagecolor="#ffffff"
     bordercolor="#666666"
     borderopacity="1.0"
     inkscape:pageshadow="2"
     inkscape:pageopacity="0.0"
     inkscape:pagecheckerboard="0"
     inkscape:document-units="px"
     showgrid="false"
     units="px"
     height="48px"
     inkscape:zoom="5.6568542"
     inkscape:cx="47.022601"
     inkscape:cy="62.313786"
     inkscape:window-width="1920"
     inkscape:window-height="1007"
     inkscape:window-x="0"
     inkscape:window-y="0"
     inkscape:window-maximized="1"
     inkscape:current-layer="svg5"
     inkscape:lockguides="true" />
  <defs
     id="defs2">
    <linearGradient
       inkscape:collect="always"
       id="linearGradient4255">
      <stop
         style="stop-color:#000000;stop-opacity:1;"
         offset="0"
         id="stop4251" />
      <stop
         style="stop-color:#000000;stop-opacity:0;"
         offset="1"
         id="stop4253" />
    </linearGradient>
    <linearGradient
       inkscape:collect="always"
       id="linearGradient1307">
      <stop
         style="stop-color:#84a55d;stop-opacity:1"
         offset="0"
         id="stop1303" />
      <stop
         style="stop-color:#506a30;stop-opacity:1"
         offset="1"
         id="stop1305" />
    </linearGradient>
    <linearGradient
       inkscape:collect="always"
       id="linearGradient1017">
      <stop
         style="stop-color:#ffffff;stop-opacity:1"
         offset="0"
         id="stop1013" />
      <stop
         style="stop-color:#ffffff;stop-opacity:0"
         offset="1"
         id="stop1015" />
    </linearGradient>
    <linearGradient
       inkscape:collect="always"
       xlink:href="#linearGradient37218"
       id="linearGradient1781"
       x1="2.8346456e-08"
       y1="2.2677165e-07"
       x2="64"
       y2="64"
       gradientUnits="userSpaceOnUse"
       gradientTransform="scale(0.26458333)" />
    <linearGradient
       inkscape:collect="always"
       id="linearGradient37218">
      <stop
         style="stop-color:#ffffff;stop-opacity:1"
         offset="0"
         id="stop37214" />
      <stop
         style="stop-color:#717171;stop-opacity:0.00392157"
         offset="0.49741825"
         id="stop37220" />
      <stop
         style="stop-color:#000000;stop-opacity:1"
         offset="1"
         id="stop37216" />
    </linearGradient>
    <linearGradient
       inkscape:collect="always"
       xlink:href="#linearGradient1017"
       id="linearGradient1019"
       x1="7.9375"
       y1="15.345832"
       x2="7.9375"
       y2="0.5291664"
       gradientUnits="userSpaceOnUse"
       gradientTransform="matrix(1.1,0,0,1.1,-0.8466667,-0.8466667)" />
    <linearGradient
       inkscape:collect="always"
       xlink:href="#linearGradient1307"
       id="linearGradient1309"
       x1="7.9375"
       y1="6.7529299e-07"
       x2="7.9375"
       y2="16.933332"
       gradientUnits="userSpaceOnUse" />
    <linearGradient
       inkscape:collect="always"
       xlink:href="#linearGradient4255"
       id="linearGradient4257"
       x1="2.1166666"
       y1="13.49375"
       x2="14.552345"
       y2="3.96875"
       gradientUnits="userSpaceOnUse"
       gradientTransform="scale(3.7795276)" />
  </defs>
  <path
     id="rect863"
     style="fill:url(#linearGradient1309);stroke-width:0.264583;fill-opacity:1"
     d="M 3.1750003,1.0583333 H 13.758333 c 1.172634,0 2.116667,0.944034 2.116667,2.116667 V 13.758333 c 0,1.172634 -0.944033,2.116667 -2.116667,2.116667 H 3.1750003 c -1.172633,0 -2.116667,-0.944033 -2.116667,-2.116667 V 3.1750003 c 0,-1.172633 0.944034,-2.116667 2.116667,-2.116667 z" />
  <path
     id="rect1345"
     style="opacity:0.3;fill:url(#linearGradient1781);fill-opacity:1;stroke-width:0.264583"
     d="m 3.1750003,1.0583333 c -1.172633,0 -2.116667,0.944034 -2.116667,2.116667 V 13.758333 c 0,1.172634 0.944034,2.116667 2.116667,2.116667 H 13.758334 c 1.172633,0 2.116666,-0.944033 2.116666,-2.116667 V 3.1750003 c 0,-1.172633 -0.944033,-2.116667 -2.116666,-2.116667 z m 0,0.264584 H 13.758334 c 1.026054,0 1.852083,0.826029 1.852083,1.852083 V 13.758333 c 0,1.026054 -0.826029,1.852084 -1.852083,1.852084 H 3.1750003 c -1.026054,0 -1.852083,-0.82603 -1.852083,-1.852084 V 3.1750003 c 0,-1.026054 0.826029,-1.852083 1.852083,-1.852083 z" />
  <path
     id="rect931"
     style="opacity:0.3;fill:url(#linearGradient1019);stroke-width:2.19154;stroke-linecap:round;stroke-linejoin:round"
     d="M 3.4395832,2.6458333 H 13.49375 c 0.439737,0 0.79375,0.3540124 0.79375,0.7937499 V 13.49375 c 0,0.439737 -0.354013,0.79375 -0.79375,0.79375 H 3.4395832 c -0.4397375,0 -0.7937499,-0.354013 -0.7937499,-0.79375 V 3.4395832 c 0,-0.4397375 0.3540124,-0.7937499 0.7937499,-0.7937499 z" />
  <path
     id="path2800"
     style="opacity:1;fill:#ffffff;fill-opacity:0.996325;stroke-width:7.52999;stroke-linecap:round;stroke-linejoin:round"
     d="M 32 15 A 17 17 0 0 0 15.072266 31.003906 L 12.568359 31.003906 C 12.064561 31.007838 11.8106 31.61368 12.162109 31.974609 L 15.589844 35.412109 C 15.813414 35.636625 16.17682 35.636625 16.400391 35.412109 L 19.837891 31.974609 C 20.189401 31.613678 19.93544 31.007838 19.431641 31.003906 L 17.078125 31.003906 A 15 15 0 0 1 32 17 A 15 15 0 0 1 47 32 A 15 15 0 0 1 32 47 A 15 15 0 0 1 19.498047 40.216797 L 17.849609 41.392578 A 17 17 0 0 0 32 49 A 17 17 0 0 0 49 32 A 17 17 0 0 0 32 15 z M 32 20 C 31.446 20 31 20.446 31 21 L 31 32.974609 L 31 33 C 30.999986 33.007725 30.999834 33.015723 31 33.023438 C 31.000215 33.032718 31.001489 33.041567 31.001953 33.050781 C 31.002796 33.067716 31.004159 33.084727 31.005859 33.101562 C 31.006702 33.109911 31.00676 33.118636 31.007812 33.126953 C 31.009216 33.138063 31.01191 33.149165 31.013672 33.160156 C 31.01421 33.163492 31.015053 33.166593 31.015625 33.169922 C 31.018105 33.184456 31.02034 33.198581 31.023438 33.212891 C 31.026089 33.225144 31.028157 33.237921 31.03125 33.25 C 31.032078 33.253218 31.032343 33.256556 31.033203 33.259766 C 31.036619 33.272582 31.041018 33.286223 31.044922 33.298828 C 31.045705 33.301342 31.046072 33.304132 31.046875 33.306641 C 31.051016 33.319626 31.055898 33.331005 31.060547 33.34375 C 31.06342 33.351633 31.06724 33.359374 31.070312 33.367188 C 31.073252 33.374658 31.075014 33.383245 31.078125 33.390625 C 31.079005 33.392712 31.081137 33.394403 31.082031 33.396484 C 31.087499 33.409198 31.091683 33.421162 31.097656 33.433594 C 31.098676 33.435723 31.100527 33.43733 31.101562 33.439453 C 31.107648 33.451894 31.114515 33.464422 31.121094 33.476562 C 31.125251 33.484247 31.128448 33.492418 31.132812 33.5 C 31.136548 33.506484 31.140656 33.513141 31.144531 33.519531 C 31.145463 33.521067 31.147496 33.521905 31.148438 33.523438 C 31.155906 33.535606 31.161954 33.548733 31.169922 33.560547 C 31.17093 33.562041 31.172811 33.562964 31.173828 33.564453 C 31.189571 33.587519 31.207037 33.609246 31.224609 33.630859 C 31.226065 33.632649 31.227048 33.634939 31.228516 33.636719 C 31.23549 33.645164 31.242723 33.65387 31.25 33.662109 C 31.253323 33.665879 31.256387 33.670109 31.259766 33.673828 C 31.2616 33.675842 31.263773 33.677686 31.265625 33.679688 C 31.274556 33.689352 31.283665 33.697728 31.292969 33.707031 C 31.300826 33.714871 31.308252 33.722861 31.316406 33.730469 C 31.31984 33.733678 31.322693 33.737074 31.326172 33.740234 C 31.329256 33.743033 31.332812 33.745282 31.335938 33.748047 C 31.344816 33.755915 31.354123 33.763933 31.363281 33.771484 C 31.367123 33.774651 31.371101 33.778133 31.375 33.78125 C 31.401261 33.802248 31.428686 33.821543 31.457031 33.839844 C 31.467306 33.846478 31.47775 33.853113 31.488281 33.859375 C 31.492379 33.861818 31.495855 33.864793 31.5 33.867188 L 31.515625 33.875 C 31.518139 33.876391 31.520909 33.877537 31.523438 33.878906 C 31.559481 33.898438 31.596192 33.916579 31.634766 33.931641 L 39.892578 37.867188 C 40.372359 38.144165 40.982764 37.97978 41.259766 37.5 C 41.536779 37.020223 41.372355 36.411767 40.892578 36.134766 L 33 32.373047 L 33 21 C 33 20.446 32.554 20 32 20 z "
     transform="scale(0.26458333)" />
  <path
     id="path2800-7"
     style="opacity:0.3;fill:url(#linearGradient4257);fill-opacity:1;stroke-width:7.52999;stroke-linecap:round;stroke-linejoin:round"
     d="M 32 17 A 15 15 0 0 0 17.078125 31.003906 L 17.1875 31.003906 A 15 15 0 0 1 32.001953 18 A 15 15 0 0 1 46.980469 32.486328 A 15 15 0 0 0 47 32 A 15 15 0 0 0 32 17 z M 33 21.966797 L 33 32.373047 L 33.001953 32.373047 L 33.001953 22 C 33.001953 21.98868 33.00037 21.978024 33 21.966797 z M 12.275391 32.087891 C 11.983794 32.266565 11.890755 32.693977 12.164062 32.974609 L 15.591797 36.412109 C 15.815367 36.636613 16.178773 36.636613 16.402344 36.412109 L 19.839844 32.974609 C 20.113746 32.693356 20.017704 32.265891 19.724609 32.087891 L 16.400391 35.412109 C 16.176819 35.636613 15.813414 35.636613 15.589844 35.412109 L 12.275391 32.087891 z M 48.992188 32.474609 A 17 17 0 0 1 32 49 A 17 17 0 0 1 18.326172 42.054688 L 17.851562 42.392578 A 17 17 0 0 0 32.001953 50 A 17 17 0 0 0 49.001953 33 A 17 17 0 0 0 48.992188 32.474609 z M 31.001953 33.050781 L 31.001953 33.974609 L 31.001953 34 C 31.001942 34.007559 31.001787 34.015878 31.001953 34.023438 C 31.002169 34.032886 31.003407 34.04171 31.003906 34.050781 C 31.004749 34.067789 31.00428 34.084781 31.005859 34.101562 C 31.006702 34.109877 31.006716 34.118638 31.007812 34.126953 C 31.009215 34.137914 31.013735 34.149196 31.015625 34.160156 C 31.016165 34.16346 31.016977 34.16652 31.017578 34.169922 C 31.020076 34.184284 31.021989 34.198642 31.025391 34.212891 C 31.028093 34.224985 31.029802 34.237906 31.033203 34.25 C 31.034031 34.253201 31.034257 34.256364 31.035156 34.259766 C 31.038558 34.272616 31.043095 34.286205 31.046875 34.298828 C 31.047657 34.301326 31.047929 34.303995 31.048828 34.306641 C 31.052986 34.319491 31.057965 34.3309 31.0625 34.34375 C 31.065403 34.351687 31.069242 34.35925 31.072266 34.367188 C 31.075165 34.374747 31.076677 34.383066 31.080078 34.390625 C 31.080959 34.392723 31.083206 34.394217 31.083984 34.396484 C 31.089654 34.409335 31.09394 34.421121 31.099609 34.433594 C 31.100611 34.435691 31.102639 34.437102 31.103516 34.439453 C 31.109563 34.451926 31.116244 34.464468 31.123047 34.476562 C 31.127204 34.484122 31.130608 34.492441 31.134766 34.5 C 31.138466 34.506425 31.142705 34.513106 31.146484 34.519531 C 31.147418 34.521032 31.149612 34.522058 31.150391 34.523438 C 31.15795 34.535532 31.163938 34.54883 31.171875 34.560547 C 31.172877 34.562047 31.174904 34.563074 31.175781 34.564453 C 31.191655 34.587508 31.209025 34.60924 31.226562 34.630859 C 31.228063 34.632658 31.229089 34.634829 31.230469 34.636719 C 31.23765 34.645034 31.244772 34.653794 31.251953 34.662109 C 31.255253 34.665889 31.258317 34.670049 31.261719 34.673828 C 31.263518 34.675827 31.265688 34.67742 31.267578 34.679688 C 31.276649 34.689514 31.285851 34.69796 31.294922 34.707031 C 31.302859 34.714968 31.310044 34.72291 31.318359 34.730469 C 31.321761 34.73367 31.324723 34.736833 31.328125 34.740234 C 31.331228 34.743035 31.334489 34.745023 31.337891 34.748047 C 31.346961 34.755984 31.356164 34.763925 31.365234 34.771484 C 31.369014 34.774682 31.373174 34.777848 31.376953 34.78125 C 31.403032 34.802415 31.430638 34.821551 31.458984 34.839844 C 31.469189 34.846269 31.479652 34.85295 31.490234 34.859375 C 31.494392 34.861775 31.497796 34.864542 31.501953 34.867188 L 31.517578 34.875 C 31.52008 34.876402 31.522745 34.877629 31.525391 34.878906 C 31.561296 34.89856 31.59813 34.916711 31.636719 34.931641 L 39.894531 38.867188 C 40.374312 39.144151 40.984717 38.979773 41.261719 38.5 C 41.447752 38.177783 41.433741 37.798913 41.259766 37.5 C 40.982764 37.979773 40.372359 38.144151 39.892578 37.867188 L 31.634766 33.931641 C 31.596177 33.916711 31.559343 33.89856 31.523438 33.878906 C 31.520792 33.877629 31.518127 33.876402 31.515625 33.875 L 31.5 33.867188 C 31.495843 33.864542 31.492439 33.861775 31.488281 33.859375 C 31.477699 33.85295 31.467236 33.846269 31.457031 33.839844 C 31.428685 33.821551 31.401079 33.802415 31.375 33.78125 C 31.37122 33.777848 31.367061 33.774682 31.363281 33.771484 C 31.35421 33.763925 31.345008 33.755984 31.335938 33.748047 C 31.332536 33.745023 31.329275 33.743035 31.326172 33.740234 C 31.32277 33.736833 31.319808 33.73367 31.316406 33.730469 C 31.308091 33.72291 31.300906 33.714968 31.292969 33.707031 C 31.283898 33.69796 31.274696 33.689514 31.265625 33.679688 C 31.263735 33.67742 31.261565 33.675827 31.259766 33.673828 C 31.256364 33.670049 31.2533 33.665889 31.25 33.662109 C 31.242819 33.653794 31.235697 33.645034 31.228516 33.636719 C 31.227136 33.634829 31.22611 33.632658 31.224609 33.630859 C 31.207072 33.60924 31.189702 33.587508 31.173828 33.564453 C 31.172951 33.563074 31.170923 33.562047 31.169922 33.560547 C 31.161985 33.54883 31.155997 33.535532 31.148438 33.523438 C 31.147659 33.522058 31.145465 33.521032 31.144531 33.519531 C 31.140752 33.513106 31.136513 33.506425 31.132812 33.5 C 31.128655 33.492441 31.125251 33.484122 31.121094 33.476562 C 31.114291 33.464468 31.10761 33.451926 31.101562 33.439453 C 31.100686 33.437102 31.098658 33.435691 31.097656 33.433594 C 31.091987 33.421121 31.087701 33.409335 31.082031 33.396484 C 31.081253 33.394217 31.079006 33.392723 31.078125 33.390625 C 31.074723 33.383066 31.073211 33.374747 31.070312 33.367188 C 31.067289 33.35925 31.06345 33.351687 31.060547 33.34375 C 31.056011 33.3309 31.051032 33.319491 31.046875 33.306641 C 31.045975 33.303995 31.045704 33.301326 31.044922 33.298828 C 31.041142 33.286205 31.036605 33.272616 31.033203 33.259766 C 31.032304 33.256364 31.032078 33.253201 31.03125 33.25 C 31.027848 33.237906 31.02614 33.224985 31.023438 33.212891 C 31.020036 33.198642 31.018123 33.184284 31.015625 33.169922 C 31.015024 33.16652 31.014212 33.16346 31.013672 33.160156 C 31.011782 33.149196 31.009215 33.137914 31.007812 33.126953 C 31.006716 33.118638 31.006702 33.109877 31.005859 33.101562 C 31.00428 33.084781 31.002796 33.067789 31.001953 33.050781 z "
     transform="scale(0.26458333)" />
</svg>
