<?xml version="1.0" encoding="UTF-8" standalone="no"?>
<svg
   clip-rule="evenodd"
   fill-rule="evenodd"
   stroke-linecap="round"
   viewBox="0 0 48 48"
   version="1.1"
   id="svg6901"
   sodipodi:docname="mintinstall.svg"
   inkscape:version="1.2 (dc2aedaf03, 2022-05-15)"
   xmlns:inkscape="http://www.inkscape.org/namespaces/inkscape"
   xmlns:sodipodi="http://sodipodi.sourceforge.net/DTD/sodipodi-0.dtd"
   xmlns:xlink="http://www.w3.org/1999/xlink"
   xmlns="http://www.w3.org/2000/svg"
   xmlns:svg="http://www.w3.org/2000/svg">
  <defs
     id="defs6905">
    <filter
       style="color-interpolation-filters:sRGB;"
       inkscape:label="Color Shift"
       id="filter7546"
       x="0"
       y="0"
       width="1"
       height="1">
      <feColorMatrix
         type="hueRotate"
         values="112"
         result="color1"
         id="feColorMatrix7542" />
      <feColorMatrix
         type="saturate"
         values="1"
         result="color2"
         id="feColorMatrix7544" />
    </filter>
    <filter
       style="color-interpolation-filters:sRGB;"
       inkscape:label="Color Shift"
       id="filter7552"
       x="0"
       y="0"
       width="1"
       height="1">
      <feColorMatrix
         type="hueRotate"
         values="112"
         result="color1"
         id="feColorMatrix7548" />
      <feColorMatrix
         type="saturate"
         values="1"
         result="color2"
         id="feColorMatrix7550" />
    </filter>
    <linearGradient
       inkscape:collect="always"
       xlink:href="#linearGradient6256"
       id="linearGradient6258"
       x1="24.353285"
       y1="39.336971"
       x2="24.525436"
       y2="19.742079"
       gradientUnits="userSpaceOnUse"
       gradientTransform="translate(1.164954e-4,-0.85665211)" />
    <linearGradient
       inkscape:collect="always"
       id="linearGradient6256">
      <stop
         style="stop-color:#e5e5e5;stop-opacity:1;"
         offset="0"
         id="stop6252" />
      <stop
         style="stop-color:#ffffff;stop-opacity:1;"
         offset="1"
         id="stop6254" />
    </linearGradient>
    <filter
       inkscape:collect="always"
       style="color-interpolation-filters:sRGB"
       id="filter7665"
       x="-0.10583602"
       y="-0.11025431"
       width="1.211672"
       height="1.2205086">
      <feGaussianBlur
         inkscape:collect="always"
         stdDeviation="0.8972413"
         id="feGaussianBlur7667" />
    </filter>
  </defs>
  <sodipodi:namedview
     id="namedview6903"
     pagecolor="#ffffff"
     bordercolor="#666666"
     borderopacity="1.0"
     inkscape:showpageshadow="2"
     inkscape:pageopacity="0.0"
     inkscape:pagecheckerboard="0"
     inkscape:deskcolor="#d1d1d1"
     showgrid="false"
     inkscape:zoom="10.770833"
     inkscape:cx="24.046422"
     inkscape:cy="24.092843"
     inkscape:window-width="1366"
     inkscape:window-height="703"
     inkscape:window-x="0"
     inkscape:window-y="37"
     inkscape:window-maximized="1"
     inkscape:current-layer="svg6901" />
  <linearGradient
     id="a">
    <stop
       stop-color="#c31162"
       offset="0"
       id="stop6852" />
    <stop
       stop-color="#ff3966"
       offset="1"
       id="stop6854" />
  </linearGradient>
  <linearGradient
     id="b"
     x2="1"
     gradientTransform="matrix(0 -10.048 10.048 0 24 13.048)"
     gradientUnits="userSpaceOnUse"
     xlink:href="#a" />
  <linearGradient
     id="c"
     x2="1"
     gradientTransform="matrix(3.5 0 0 3.5 4 5.5)"
     gradientUnits="userSpaceOnUse"
     xlink:href="#a" />
  <linearGradient
     id="d"
     x2="1"
     gradientTransform="matrix(3.5 0 0 3.5 40.5 5.5)"
     gradientUnits="userSpaceOnUse"
     xlink:href="#a" />
  <linearGradient
     id="e"
     x2="1"
     gradientTransform="matrix(5.5 0 0 5.5 40.5 8)"
     gradientUnits="userSpaceOnUse">
    <stop
       stop-color="#ff709a"
       offset="0"
       id="stop6860" />
    <stop
       stop-color="#ec396c"
       offset="1"
       id="stop6862" />
  </linearGradient>
  <linearGradient
     id="f">
    <stop
       stop-color="#ec396c"
       offset="0"
       id="stop6865" />
    <stop
       stop-color="#ff709a"
       offset="1"
       id="stop6867" />
  </linearGradient>
  <linearGradient
     id="g"
     x2="1"
     gradientTransform="matrix(5.48673 0 0 5.48673 2.01327 8.99583)"
     gradientUnits="userSpaceOnUse"
     xlink:href="#f" />
  <linearGradient
     id="h"
     x2="1"
     gradientTransform="matrix(0 -36.668 36.668 0 24 45.668)"
     gradientUnits="userSpaceOnUse"
     xlink:href="#f" />
  <linearGradient
     id="i"
     x2="1"
     gradientTransform="matrix(0 -1 1 0 0 1)"
     gradientUnits="userSpaceOnUse">
    <stop
       stop-color="#e6e6e6"
       offset="0"
       id="stop6872" />
    <stop
       stop-color="#fff"
       offset="1"
       id="stop6874" />
  </linearGradient>
  <g
     transform="matrix(.984909 0 0 .984909 .362182 .139925)"
     id="g6889"
     style="filter:url(#filter7546)">
    <path
       d="m4 3h40v10h-40z"
       fill="url(#b)"
       id="path6877" />
    <path
       d="m4 3v27l3.5-24.5z"
       fill="url(#c)"
       fill-rule="nonzero"
       id="path6879" />
    <path
       d="m44 3v5l-3.5-2.5z"
       fill="url(#d)"
       fill-rule="nonzero"
       id="path6881" />
    <path
       d="m7.5 5.5 7.7 5.5h-11.2z"
       fill-opacity=".08"
       fill-rule="nonzero"
       id="path6883" />
    <path
       d="m46 9h-5.5v-3.5z"
       fill="url(#e)"
       fill-rule="nonzero"
       id="path6885" />
    <path
       d="m7.5 5.5-5.5 3.5h5.5z"
       fill="url(#g)"
       fill-rule="nonzero"
       id="path6887" />
  </g>
  <path
     d="m2.332 39.44v-30.161c0-.094.004-.187.013-.279h43.31c.009.092.013.185.013.279v30.161c0 3.438-2.79 6.228-6.228 6.228h-30.88c-3.438 0-6.228-2.79-6.228-6.228z"
     fill="url(#h)"
     id="path6891"
     style="filter:url(#filter7552)" />
  <circle
     cx="14.150908"
     cy="14.158453"
     r="1.969818"
     fill-opacity=".3"
     stroke-width=".984909"
     id="circle6893" />
  <circle
     cx="33.849088"
     cy="14.158453"
     r="1.969818"
     fill-opacity=".3"
     stroke-width=".984909"
     id="circle6895" />
  <path
     transform="matrix(.984909 0 0 .984909 .362182 .369727)"
     d="m34 13c0-5.486-4.514-10-10-10s-10 4.514-10 10"
     fill="none"
     stroke="url(#i)"
     stroke-width="2.4"
     id="path6897" />
  <path
     d="m 13.82693,18.970714 v 13.521981 c 0,3.300832 2.724631,6.009038 6.04583,6.009038 h 8.254711 c 3.321199,0 6.045831,-2.708206 6.045831,-6.009038 v -7.418989 c 0,-2.471682 -2.004545,-4.476229 -4.476228,-4.476229 -1.04005,0.0013 -2.046593,0.363329 -2.848151,1.025598 -0.801555,-0.66227 -1.809412,-1.024283 -2.848806,-1.025598 -2.471683,0 -4.475573,2.004547 -4.475573,4.476229 v 7.731069 h 3.254841 v -7.731069 c 0,-0.674095 0.546635,-1.220729 1.220732,-1.220729 0.674095,0 1.220726,0.546634 1.220726,1.220729 v 7.731069 h 3.254843 v -7.731069 c 0,-0.674095 0.547291,-1.220729 1.221388,-1.220729 0.673439,0 1.22073,0.546634 1.22073,1.220729 v 7.175237 c 0,1.677354 -1.346877,2.99795 -3.034743,2.99795 H 20.11717 c -1.687866,0 -3.036056,-1.320596 -3.034743,-2.99795 V 18.970714 Z"
     fill="#ffffff"
     fill-rule="nonzero"
     id="path1655-5"
     style="fill:#000000;fill-opacity:1;stroke-width:0.657013;filter:url(#filter7665);opacity:0.3" />
  <path
     d="m 13.82693,18.970714 v 13.521981 c 0,3.300832 2.724631,6.009038 6.04583,6.009038 h 8.254711 c 3.321199,0 6.045831,-2.708206 6.045831,-6.009038 v -7.418989 c 0,-2.471682 -2.004545,-4.476229 -4.476228,-4.476229 -1.04005,0.0013 -2.046593,0.363329 -2.848151,1.025598 -0.801555,-0.66227 -1.809412,-1.024283 -2.848806,-1.025598 -2.471683,0 -4.475573,2.004547 -4.475573,4.476229 v 7.731069 h 3.254841 v -7.731069 c 0,-0.674095 0.546635,-1.220729 1.220732,-1.220729 0.674095,0 1.220726,0.546634 1.220726,1.220729 v 7.731069 h 3.254843 v -7.731069 c 0,-0.674095 0.547291,-1.220729 1.221388,-1.220729 0.673439,0 1.22073,0.546634 1.22073,1.220729 v 7.175237 c 0,1.677354 -1.346877,2.99795 -3.034743,2.99795 H 20.11717 c -1.687866,0 -3.036056,-1.320596 -3.034743,-2.99795 V 18.970714 Z"
     fill="#ffffff"
     fill-rule="nonzero"
     id="path1655"
     style="fill:url(#linearGradient6258);fill-opacity:1;stroke-width:0.657013" />
</svg>
