<?xml version="1.0" encoding="UTF-8" standalone="no"?>
<!-- Created with Inkscape (http://www.inkscape.org/) -->

<svg
   width="64"
   height="64"
   viewBox="0 0 16.933333 16.933333"
   version="1.1"
   id="svg5"
   inkscape:version="1.1.1 (3bf5ae0d25, 2021-09-20, custom)"
   sodipodi:docname="ms-onedrive.svg"
   xmlns:inkscape="http://www.inkscape.org/namespaces/inkscape"
   xmlns:sodipodi="http://sodipodi.sourceforge.net/DTD/sodipodi-0.dtd"
   xmlns:xlink="http://www.w3.org/1999/xlink"
   xmlns="http://www.w3.org/2000/svg"
   xmlns:svg="http://www.w3.org/2000/svg">
  <sodipodi:namedview
     id="namedview7"
     pagecolor="#ffffff"
     bordercolor="#666666"
     borderopacity="1.0"
     inkscape:pageshadow="2"
     inkscape:pageopacity="0.0"
     inkscape:pagecheckerboard="0"
     inkscape:document-units="px"
     showgrid="true"
     units="px"
     height="48px"
     inkscape:zoom="12.484375"
     inkscape:cx="31.95995"
     inkscape:cy="25.43179"
     inkscape:window-width="1920"
     inkscape:window-height="1011"
     inkscape:window-x="0"
     inkscape:window-y="0"
     inkscape:window-maximized="1"
     inkscape:current-layer="svg5"
     inkscape:lockguides="true" />
  <defs
     id="defs2">
    <linearGradient
       inkscape:collect="always"
       xlink:href="#linearGradient37218-3"
       id="linearGradient1781"
       x1="2.8346456e-08"
       y1="2.2677165e-07"
       x2="64"
       y2="64"
       gradientUnits="userSpaceOnUse"
       gradientTransform="scale(0.26458333)" />
    <linearGradient
       inkscape:collect="always"
       id="linearGradient37218-3">
      <stop
         style="stop-color:#000000;stop-opacity:1"
         offset="0"
         id="stop37214-6" />
      <stop
         style="stop-color:#717171;stop-opacity:0.00392157"
         offset="0.49741825"
         id="stop37220-7" />
      <stop
         style="stop-color:#000000;stop-opacity:1"
         offset="1"
         id="stop37216-5" />
    </linearGradient>
  </defs>
  <path
     id="rect863"
     style="fill:#ffffff;stroke-width:0.264583"
     d="M 3.1750003,1.0583333 H 13.758334 c 1.172634,0 2.116667,0.944034 2.116667,2.116667 V 13.758333 c 0,1.172634 -0.944033,2.116667 -2.116667,2.116667 H 3.1750003 c -1.172633,0 -2.116667,-0.944033 -2.116667,-2.116667 V 3.1750003 c 0,-1.172633 0.944034,-2.116667 2.116667,-2.116667 z" />
  <path
     id="rect1345"
     style="opacity:0.3;fill:url(#linearGradient1781);fill-opacity:1;stroke-width:0.264583"
     d="m 3.1750003,1.0583333 c -1.172633,0 -2.116667,0.944034 -2.116667,2.116667 V 13.758333 c 0,1.172634 0.944034,2.116667 2.116667,2.116667 H 13.758335 c 1.172633,0 2.116666,-0.944033 2.116666,-2.116667 V 3.1750003 c 0,-1.172633 -0.944033,-2.116667 -2.116666,-2.116667 z m 0,0.264584 H 13.758335 c 1.026054,0 1.852083,0.826029 1.852083,1.852083 V 13.758333 c 0,1.026054 -0.826029,1.852084 -1.852083,1.852084 H 3.1750003 c -1.026054,0 -1.852083,-0.82603 -1.852083,-1.852084 V 3.1750003 c 0,-1.026054 0.826029,-1.852083 1.852083,-1.852083 z" />
  <circle
     id="circle4"
     r="3.1838214"
     cy="8.4754877"
     cx="8.4666615"
     style="fill:#056ab6;stroke-width:0.335139" />
  <path
     id="path8"
     d="m 11.482913,7.637641 c -0.284514,0.014096 -0.53144,0.066854 -0.763881,0.1518598 l -6.71e-4,6.704e-4 C 9.9735537,8.1007691 9.1998486,8.4238874 8.5275204,8.7046035 L 3.9219916,10.62182 c 0.4127241,0.566976 1.0563865,0.957582 1.802682,1.025709 v 0.01178 h 5.7124194 0.04582 c 1.110554,0 2.010835,-0.900282 2.010835,-2.0108355 0,-1.1105535 -0.900281,-2.0108346 -2.010836,-2.0108346 z"
     style="fill:#138fe6;stroke-width:0.335139" />
  <path
     id="path10"
     d="M 5.9531179,6.6322238 A 2.5135433,2.5135433 0 0 0 3.7466269,7.94746 L 3.7421769,7.9488 C 3.5491695,8.3046218 3.4395833,8.7125236 3.4395833,9.145767 c 6.168e-4,1.299193 0.991226,2.383833 2.2850394,2.501941 v 0.01161 h 0.2284952 5.4840951 c 0.760144,-5.45e-4 1.457995,-0.420367 1.814642,-1.09165 l -3.5266373,-2.1020582 -2.53318,-1.509822 -0.00803,0.00224 A 2.5135433,2.5135433 0 0 0 5.9531174,6.6322159 Z"
     style="fill:#1581d9;stroke-width:0.335139" />
  <path
     id="path12"
     d="M 9.4674964,8.3118467 C 9.1519546,8.4435798 8.8160374,8.5841301 8.5275362,8.7045878 L 3.9219916,10.62182 c 0.1537685,0.211237 0.3399015,0.397737 0.5511469,0.552455 0.00508,0.0037 0.010602,0.0068 0.015709,0.01045 0.062309,0.04492 0.1266097,0.08715 0.1930977,0.126332 0.014818,0.0088 0.030152,0.01646 0.045165,0.02488 0.056303,0.03163 0.1138519,0.06169 0.1728062,0.08903 0.02232,0.01034 0.044743,0.02042 0.06742,0.0301 0.057186,0.02448 0.1154086,0.04649 0.1747698,0.06676 0.022047,0.0075 0.043781,0.01534 0.066112,0.02226 0.06267,0.01945 0.1270123,0.03514 0.1917887,0.04975 0.021457,0.0049 0.042476,0.01078 0.064148,0.01505 0.085315,0.01688 0.1721098,0.03055 0.2605182,0.03862 v 0.01178 h 0.2284447 5.4839752 c 0.760145,-5.22e-4 1.457817,-0.420521 1.814465,-1.091805 L 9.7253964,8.4656702 Z"
     style="fill:#38afec;stroke-width:0.335139" />
</svg>
