<?xml version="1.0" encoding="UTF-8" standalone="no"?>
<!-- Created with Inkscape (http://www.inkscape.org/) -->

<svg
   width="64"
   height="64"
   viewBox="0 0 16.933333 16.933333"
   version="1.1"
   id="svg5"
   inkscape:version="1.1.1 (3bf5ae0d25, 2021-09-20, custom)"
   sodipodi:docname="multimedia-audio-player.svg"
   xmlns:inkscape="http://www.inkscape.org/namespaces/inkscape"
   xmlns:sodipodi="http://sodipodi.sourceforge.net/DTD/sodipodi-0.dtd"
   xmlns:xlink="http://www.w3.org/1999/xlink"
   xmlns="http://www.w3.org/2000/svg"
   xmlns:svg="http://www.w3.org/2000/svg">
  <sodipodi:namedview
     id="namedview7"
     pagecolor="#ffffff"
     bordercolor="#666666"
     borderopacity="1.0"
     inkscape:pageshadow="2"
     inkscape:pageopacity="0.0"
     inkscape:pagecheckerboard="0"
     inkscape:document-units="px"
     showgrid="false"
     units="px"
     height="48px"
     inkscape:zoom="8.905126"
     inkscape:cx="7.074577"
     inkscape:cy="40.201565"
     inkscape:window-width="1920"
     inkscape:window-height="1011"
     inkscape:window-x="0"
     inkscape:window-y="0"
     inkscape:window-maximized="1"
     inkscape:current-layer="svg5"
     inkscape:lockguides="true"
     showguides="false" />
  <defs
     id="defs2">
    <linearGradient
       inkscape:collect="always"
       id="linearGradient17397">
      <stop
         style="stop-color:#ffffff;stop-opacity:1;"
         offset="0"
         id="stop17393" />
      <stop
         style="stop-color:#ffffff;stop-opacity:0;"
         offset="1"
         id="stop17395" />
    </linearGradient>
    <linearGradient
       inkscape:collect="always"
       id="linearGradient15347">
      <stop
         style="stop-color:#e85c00;stop-opacity:1"
         offset="0"
         id="stop15343" />
      <stop
         style="stop-color:#ffbf55;stop-opacity:1"
         offset="1"
         id="stop15345" />
    </linearGradient>
    <linearGradient
       inkscape:collect="always"
       id="linearGradient13844">
      <stop
         style="stop-color:#333333;stop-opacity:1"
         offset="0"
         id="stop13840" />
      <stop
         style="stop-color:#4d4d4d;stop-opacity:1"
         offset="1"
         id="stop13842" />
    </linearGradient>
    <linearGradient
       inkscape:collect="always"
       id="linearGradient13102">
      <stop
         style="stop-color:#000000;stop-opacity:1;"
         offset="0"
         id="stop13098" />
      <stop
         style="stop-color:#000000;stop-opacity:0;"
         offset="1"
         id="stop13100" />
    </linearGradient>
    <linearGradient
       inkscape:collect="always"
       id="linearGradient3973">
      <stop
         style="stop-color:#b3b3b3;stop-opacity:1"
         offset="0"
         id="stop3969" />
      <stop
         style="stop-color:#e6e6e6;stop-opacity:1"
         offset="1"
         id="stop3971" />
    </linearGradient>
    <linearGradient
       inkscape:collect="always"
       id="linearGradient37218">
      <stop
         style="stop-color:#ffffff;stop-opacity:1"
         offset="0"
         id="stop37214" />
      <stop
         style="stop-color:#e6e6e6;stop-opacity:0.00306325"
         offset="0.49741825"
         id="stop37220" />
      <stop
         style="stop-color:#ffffff;stop-opacity:1"
         offset="1"
         id="stop37216" />
    </linearGradient>
    <linearGradient
       inkscape:collect="always"
       xlink:href="#linearGradient37218"
       id="linearGradient1781"
       x1="64"
       y1="64"
       x2="4.5354332e-07"
       y2="4.5354329e-07"
       gradientUnits="userSpaceOnUse"
       gradientTransform="scale(0.26458333)" />
    <radialGradient
       inkscape:collect="always"
       xlink:href="#linearGradient13844"
       id="radialGradient1577"
       cx="8.4666672"
       cy="-1.0717456"
       fx="8.4666672"
       fy="-1.0717456"
       r="7.4083333"
       gradientUnits="userSpaceOnUse"
       gradientTransform="matrix(-0.64285672,0.64285664,-1.2071067,-1.2071067,12.615807,1.7301065)" />
    <linearGradient
       inkscape:collect="always"
       xlink:href="#linearGradient15347"
       id="linearGradient2629"
       x1="8.2020826"
       y1="11.112499"
       x2="8.2020826"
       y2="4.7624998"
       gradientUnits="userSpaceOnUse" />
    <linearGradient
       inkscape:collect="always"
       xlink:href="#linearGradient3973"
       id="linearGradient6961"
       x1="7.4083333"
       y1="7.3949213"
       x2="7.4083333"
       y2="-9.5384121"
       gradientUnits="userSpaceOnUse"
       gradientTransform="translate(1.25e-8,9.5384124)" />
    <linearGradient
       inkscape:collect="always"
       xlink:href="#linearGradient13102"
       id="linearGradient8232"
       x1="7"
       y1="13.75"
       x2="53"
       y2="39.75"
       gradientUnits="userSpaceOnUse" />
    <radialGradient
       inkscape:collect="always"
       xlink:href="#linearGradient17397"
       id="radialGradient10460"
       cx="19.526367"
       cy="25.474846"
       fx="19.526367"
       fy="25.474846"
       r="8.1494141"
       gradientTransform="matrix(-1.2454164,2.0633022e-7,-4.5401733e-7,-1.2131819,43.844834,56.362647)"
       gradientUnits="userSpaceOnUse" />
    <radialGradient
       inkscape:collect="always"
       xlink:href="#linearGradient17397"
       id="radialGradient10470"
       cx="12.46384"
       cy="9.6857281"
       fx="12.46384"
       fy="9.6857281"
       r="1.9972944"
       gradientTransform="matrix(-0.04778217,1.3251952,-1.3193672,-0.04757198,25.83842,-6.453994)"
       gradientUnits="userSpaceOnUse" />
  </defs>
  <path
     id="rect863"
     style="fill:url(#radialGradient1577);fill-opacity:1;stroke-width:0.264583"
     d="M 3.1750003,2.1166666 H 13.758333 l 1.058334,1.0583337 V 13.758333 l -1.058334,1.058334 H 3.1750003 L 2.1166666,13.758333 V 3.1750003 Z"
     sodipodi:nodetypes="ccccccccc" />
  <path
     id="rect6873"
     style="fill:url(#linearGradient6961);fill-opacity:1;stroke-width:2.38125;stroke-linecap:round;stroke-linejoin:round"
     d="m 3.175,1.0583333 c -1.1726335,0 -2.1166667,0.9440332 -2.1166667,2.1166667 v 10.583333 c 0,1.172633 0.9440332,2.116667 2.1166667,2.116667 h 10.583333 c 1.172633,0 2.116667,-0.944034 2.116667,-2.116667 V 3.175 c 0,-1.1726335 -0.944034,-2.1166667 -2.116667,-2.1166667 z m 5.2916666,1.8520833 a 5.5562502,5.5562502 0 0 1 5.5562494,5.55625 5.5562502,5.5562502 0 0 1 -5.5562494,5.5562494 5.5562502,5.5562502 0 0 1 -5.55625,-5.5562494 5.5562502,5.5562502 0 0 1 5.55625,-5.55625 z" />
  <path
     id="rect1345"
     style="opacity:0.3;fill:url(#linearGradient1781);fill-opacity:1;stroke-width:0.264583"
     d="m 3.1750003,1.0583333 c -1.172633,0 -2.116667,0.944034 -2.116667,2.116667 V 13.758333 c 0,1.172634 0.944034,2.116667 2.116667,2.116667 H 13.758334 c 1.172633,0 2.116666,-0.944033 2.116666,-2.116667 V 3.1750003 c 0,-1.172633 -0.944033,-2.116667 -2.116666,-2.116667 z m 0,0.264584 H 13.758334 c 1.026054,0 1.852083,0.826029 1.852083,1.852083 V 13.758333 c 0,1.026054 -0.826029,1.852084 -1.852083,1.852084 H 3.1750003 c -1.026054,0 -1.852083,-0.82603 -1.852083,-1.852084 V 3.1750003 c 0,-1.026054 0.826029,-1.852083 1.852083,-1.852083 z" />
  <path
     id="path8039"
     style="opacity:0.3;fill:url(#linearGradient8232);fill-opacity:1;stroke-width:9;stroke-linecap:round;stroke-linejoin:round"
     d="M 32,11 A 21.000001,21.000001 0 0 0 11,32 21.000001,21.000001 0 0 0 11.019531,32.5 21.000001,21.000001 0 0 1 32,12 21.000001,21.000001 0 0 1 52.988281,32.332031 21.000001,21.000001 0 0 0 53,32 21.000001,21.000001 0 0 0 32,11 Z"
     transform="scale(0.26458333)" />
  <path
     id="path8574"
     style="opacity:0.2;fill:url(#radialGradient10460);fill-opacity:1;stroke-width:9.49999;stroke-linecap:round;stroke-linejoin:round"
     d="m 28.607422,13.34375 c -7.706614,1.414268 -13.754729,7.414295 -15.230469,15.109375 l 5.867188,1.117187 c 1.004748,-5.275005 5.149414,-9.389406 10.43164,-10.355468 z"
     transform="scale(0.26458333)"
     sodipodi:nodetypes="ccccc" />
  <path
     id="path8574-3"
     style="fill:url(#radialGradient10470);fill-opacity:1;stroke-width:2.51354;stroke-linecap:round;stroke-linejoin:round;opacity:0.2"
     d="M 11.849406,9.0816166 C 11.610837,10.366247 10.665005,11.40478 9.4082112,11.762073 l 0.438733,1.535824 C 11.683615,12.769249 13.06164,11.244829 13.4028,9.3642866 Z"
     sodipodi:nodetypes="ccccc" />
  <circle
     style="opacity:1;fill:url(#linearGradient2629);stroke-width:2.11446;stroke-linecap:round;stroke-linejoin:round;fill-opacity:1"
     id="path2453"
     cx="8.4666662"
     cy="8.4666662"
     r="2.9104166" />
  <circle
     style="opacity:1;fill:#1a1a1a;stroke-width:1.78594;stroke-linecap:round;stroke-linejoin:round;fill-opacity:1"
     id="path3067"
     cx="8.4666662"
     cy="8.4666662"
     r="0.79374999" />
  <circle
     style="opacity:1;fill:#ffffff;fill-opacity:1;stroke-width:2.73554;stroke-linecap:round;stroke-linejoin:round"
     id="path3261"
     cx="8.4666662"
     cy="8.4666662"
     r="0.52916664" />
</svg>
