<?xml version="1.0" encoding="UTF-8" standalone="no"?>
<svg
   width="64"
   height="64"
   version="1.1"
   viewBox="0 0 16.933 16.933"
   xml:space="preserve"
   id="svg29"
   sodipodi:docname="necrodancer.svg"
   inkscape:version="1.2.1 (9c6d41e410, 2022-07-14)"
   xmlns:inkscape="http://www.inkscape.org/namespaces/inkscape"
   xmlns:sodipodi="http://sodipodi.sourceforge.net/DTD/sodipodi-0.dtd"
   xmlns:xlink="http://www.w3.org/1999/xlink"
   xmlns="http://www.w3.org/2000/svg"
   xmlns:svg="http://www.w3.org/2000/svg"><sodipodi:namedview
     id="namedview31"
     pagecolor="#505050"
     bordercolor="#ffffff"
     borderopacity="1"
     inkscape:showpageshadow="0"
     inkscape:pageopacity="0"
     inkscape:pagecheckerboard="1"
     inkscape:deskcolor="#505050"
     showgrid="false"
     inkscape:zoom="7.976603"
     inkscape:cx="-7.710049"
     inkscape:cy="31.717763"
     inkscape:window-width="1920"
     inkscape:window-height="1015"
     inkscape:window-x="0"
     inkscape:window-y="37"
     inkscape:window-maximized="1"
     inkscape:current-layer="g17" /><defs
     id="defs13"><linearGradient
       inkscape:collect="always"
       id="linearGradient2613"><stop
         style="stop-color:#c7c7c7;stop-opacity:1;"
         offset="0"
         id="stop2609" /><stop
         style="stop-color:#f2f2f2;stop-opacity:1;"
         offset="1"
         id="stop2611" /></linearGradient><linearGradient
       id="linearGradient1340"
       x1="8.3017"
       x2="8.355"
       y1="16.007"
       y2=".79375"
       gradientTransform="translate(-4.004e-5 -3.7569e-5)"
       gradientUnits="userSpaceOnUse"><stop
         stop-color="#bf616a"
         offset="0"
         id="stop2"
         style="stop-color:#b32cf4;stop-opacity:1;" /><stop
         stop-color="#2e3440"
         offset="1"
         id="stop4"
         style="stop-color:#24478f;stop-opacity:1;" /></linearGradient><filter
       id="filter890"
       x="-0.025013746"
       y="-0.029329378"
       width="1.0500275"
       height="1.0586588"
       color-interpolation-filters="sRGB"><feGaussianBlur
         stdDeviation="0.12802307"
         id="feGaussianBlur7" /></filter><filter
       id="filter1178-3"
       x="-0.047999482"
       y="-0.047999482"
       width="1.095999"
       height="1.095999"
       color-interpolation-filters="sRGB"><feGaussianBlur
         stdDeviation="0.30691668"
         id="feGaussianBlur10" /></filter><filter
       inkscape:collect="always"
       style="color-interpolation-filters:sRGB"
       id="filter2553"
       x="-0.10231579"
       y="-0.11435294"
       width="1.2046316"
       height="1.2287059"><feGaussianBlur
         inkscape:collect="always"
         stdDeviation="0.64292485"
         id="feGaussianBlur2555" /></filter><filter
       inkscape:collect="always"
       style="color-interpolation-filters:sRGB"
       id="filter2579"
       x="-0.35"
       y="-0.26249999"
       width="1.7"
       height="1.525"><feGaussianBlur
         inkscape:collect="always"
         stdDeviation="0.23150586"
         id="feGaussianBlur2581" /></filter><filter
       inkscape:collect="always"
       style="color-interpolation-filters:sRGB"
       id="filter2605"
       x="-0.55000005"
       y="-0.20625001"
       width="2.1000001"
       height="1.4125"><feGaussianBlur
         inkscape:collect="always"
         stdDeviation="0.18189747"
         id="feGaussianBlur2607" /></filter><linearGradient
       inkscape:collect="always"
       xlink:href="#linearGradient2613"
       id="linearGradient2615"
       x1="10.141284"
       y1="13.542358"
       x2="10.035472"
       y2="0.36833018"
       gradientUnits="userSpaceOnUse" /></defs><g
     transform="translate(-.00025546 -.11386)"
     id="g17"><rect
       transform="matrix(.99138 0 0 1 .072989 .0019055)"
       x=".79375"
       y=".90545"
       width="15.346"
       height="15.346"
       rx="3.0526"
       ry="3.0526"
       filter="url(#filter1178-3)"
       opacity=".15"
       stroke-linecap="round"
       stroke-linejoin="round"
       stroke-width="1.2489"
       style="mix-blend-mode:normal;opacity:0.3"
       id="rect15" /></g><g
     stroke-linecap="round"
     stroke-linejoin="round"
     id="g27"><rect
       x=".926"
       y=".926"
       width="15.081"
       height="15.081"
       rx="3"
       ry="3"
       fill="url(#linearGradient1340)"
       stroke-width="1.2274"
       id="rect19" /><rect
       x=".0045001"
       y=".003"
       width="16.924"
       height="16.927"
       fill="none"
       opacity=".15"
       stroke-width="1.052"
       id="rect25" /><g
       id="g2529"
       transform="matrix(0.75511155,0,0,0.75511155,-4.8331925,3.1816882)"><path
         style="fill:#000000;stroke-width:0.264578;fill-opacity:1;filter:url(#filter2553);opacity:0.7"
         d="M 14.834814,0.25197433 V 1.045709 h -1.058313 v 0.7937343 h -1.32289 v 0.7937344 h -0.793735 v 0.5291562 h -0.793734 v 1.3228906 h -0.793734 v 4.23325 h 0.793734 v 0.5291562 h 0.793734 v 0.7937343 h 0.793735 v 1.080361 1.124457 0.705541 h 0.529156 v 0.793735 h 1.613927 V 12.15799 h 1.031854 v 1.587469 H 17.23586 V 12.15799 h 1.303048 v 1.587469 h 1.587468 V 12.15799 h 0.529156 v -1.058312 h 0.793735 v -0.793735 h 1.32289 V 9.5122088 h 0.793735 V 8.7184745 h 0.793734 V 7.3955839 h 0.793735 V 3.6914902 H 24.359626 V 2.6331777 H 23.565892 V 1.8394433 H 22.772157 V 1.045709 H 20.655532 V 0.25197433 Z"
         id="path4-3" /><path
         style="fill:url(#linearGradient2615);stroke-width:0.264578;fill-opacity:1"
         d="m 14.834814,0.2519744 v 0.7937347 h -1.058313 v 0.7937343 h -1.32289 V 2.6331778 H 11.659876 V 3.162334 h -0.793734 v 1.3228906 h -0.793734 v 4.23325 h 0.793734 v 0.5291562 h 0.793734 v 0.7937342 h 0.793735 v 1.080361 1.124457 0.705541 h 0.529156 v 0.793735 h 1.613927 V 12.15799 h 1.031854 v 1.587469 H 17.23586 V 12.15799 h 1.303048 v 1.587469 h 1.587468 V 12.15799 h 0.529156 v -1.058312 h 0.793735 v -0.793735 h 1.32289 V 9.5122089 h 0.793735 V 8.7184746 h 0.793734 V 7.395584 h 0.793735 V 3.6914903 H 24.359626 V 2.6331778 H 23.565892 V 1.8394434 H 22.772157 V 1.0457091 H 20.655532 V 0.2519744 Z"
         id="path4" /><path
         style="fill:#333333;stroke-width:0.264578;fill-opacity:1"
         d="m 11.659876,4.4852244 v 3.7040939 h 0.793735 v 0.7937344 h 1.32289 V 8.1893183 H 12.982767 V 6.0726934 h 0.793734 V 5.278959 H 12.982767 V 4.4852244 Z"
         id="path6" /><rect
         style="fill:#ea01f5;stroke-width:0.264578"
         width="0.79373437"
         height="2.1166251"
         x="12.982767"
         y="6.0726933"
         id="rect8" /><rect
         style="fill:#ea01f5;stroke-width:0.264578;filter:url(#filter2605)"
         width="0.79373437"
         height="2.1166251"
         x="12.982767"
         y="6.0726933"
         id="rect8-7" /><path
         style="fill:#333333;stroke-width:0.264578;fill-opacity:1"
         d="M 18.009751,4.4852244 V 5.278959 h -0.793734 v 3.7040937 h 2.910359 V 8.1893183 h 0.793735 V 5.278959 H 20.126376 V 4.4852244 Z"
         id="path10" /><rect
         style="fill:#ea01f5;stroke-width:0.264578"
         width="1.5874687"
         height="2.1166251"
         x="18.00975"
         y="6.0726933"
         id="rect12" /><rect
         style="fill:#ea01f5;stroke-width:0.264578;filter:url(#filter2579)"
         width="1.5874687"
         height="2.1166251"
         x="18.00975"
         y="6.0726933"
         id="rect12-6" /><path
         style="fill:#333333;stroke-width:0.264578;fill-opacity:1"
         d="M 14.570236,9.2476308 V 10.041365 H 13.776501 V 10.8351 h 2.91036 V 10.041365 H 15.893126 V 9.2476308 Z"
         id="path14" /></g></g></svg>
