<?xml version="1.0" encoding="UTF-8" standalone="no"?>
<!-- Created with Inkscape (http://www.inkscape.org/) -->

<svg
   width="64"
   height="64"
   viewBox="0 0 16.933333 16.933333"
   version="1.1"
   id="svg5"
   inkscape:version="1.1.1 (3bf5ae0d25, 2021-09-20, custom)"
   sodipodi:docname="newsflash.svg"
   xmlns:inkscape="http://www.inkscape.org/namespaces/inkscape"
   xmlns:sodipodi="http://sodipodi.sourceforge.net/DTD/sodipodi-0.dtd"
   xmlns:xlink="http://www.w3.org/1999/xlink"
   xmlns="http://www.w3.org/2000/svg"
   xmlns:svg="http://www.w3.org/2000/svg">
  <sodipodi:namedview
     id="namedview7"
     pagecolor="#ffffff"
     bordercolor="#666666"
     borderopacity="1.0"
     inkscape:pageshadow="2"
     inkscape:pageopacity="0.0"
     inkscape:pagecheckerboard="0"
     inkscape:document-units="px"
     showgrid="false"
     units="px"
     height="48px"
     inkscape:zoom="7.9999996"
     inkscape:cx="21.750001"
     inkscape:cy="37.187502"
     inkscape:window-width="1920"
     inkscape:window-height="1011"
     inkscape:window-x="0"
     inkscape:window-y="0"
     inkscape:window-maximized="1"
     inkscape:current-layer="svg5"
     inkscape:lockguides="true" />
  <defs
     id="defs2">
    <linearGradient
       inkscape:collect="always"
       id="linearGradient11327">
      <stop
         style="stop-color:#ffffff;stop-opacity:1;"
         offset="0"
         id="stop11323" />
      <stop
         style="stop-color:#ffc288;stop-opacity:1"
         offset="1"
         id="stop11325" />
    </linearGradient>
    <linearGradient
       inkscape:collect="always"
       id="linearGradient10284">
      <stop
         style="stop-color:#f68e15;stop-opacity:1;"
         offset="0"
         id="stop10280" />
      <stop
         style="stop-color:#f67130;stop-opacity:1"
         offset="1"
         id="stop10282" />
    </linearGradient>
    <linearGradient
       inkscape:collect="always"
       id="linearGradient9718">
      <stop
         style="stop-color:#000000;stop-opacity:1;"
         offset="0"
         id="stop9714" />
      <stop
         style="stop-color:#000000;stop-opacity:0;"
         offset="1"
         id="stop9716" />
    </linearGradient>
    <linearGradient
       inkscape:collect="always"
       xlink:href="#linearGradient37218"
       id="linearGradient1781"
       x1="2.8346456e-08"
       y1="2.2677165e-07"
       x2="64"
       y2="64"
       gradientUnits="userSpaceOnUse"
       gradientTransform="scale(0.26458333)" />
    <linearGradient
       inkscape:collect="always"
       id="linearGradient37218">
      <stop
         style="stop-color:#ffffff;stop-opacity:1"
         offset="0"
         id="stop37214" />
      <stop
         style="stop-color:#717171;stop-opacity:0.00392157"
         offset="0.49741825"
         id="stop37220" />
      <stop
         style="stop-color:#000000;stop-opacity:1"
         offset="1"
         id="stop37216" />
    </linearGradient>
    <linearGradient
       inkscape:collect="always"
       xlink:href="#linearGradient9718"
       id="linearGradient9720"
       x1="10"
       y1="47"
       x2="53"
       y2="21"
       gradientUnits="userSpaceOnUse" />
    <linearGradient
       inkscape:collect="always"
       xlink:href="#linearGradient10284"
       id="linearGradient10286"
       x1="7.4083333"
       y1="6.7529299e-07"
       x2="7.4083333"
       y2="16.933334"
       gradientUnits="userSpaceOnUse" />
    <linearGradient
       inkscape:collect="always"
       xlink:href="#linearGradient11327"
       id="linearGradient11329"
       x1="8.6528635"
       y1="3.4395835"
       x2="8.6855869"
       y2="13.736739"
       gradientUnits="userSpaceOnUse" />
  </defs>
  <path
     id="rect863"
     style="fill:url(#linearGradient10286);stroke-width:0.264583;fill-opacity:1"
     d="M 3.1750003,1.0583333 H 13.758333 c 1.172634,0 2.116667,0.944034 2.116667,2.116667 V 13.758333 c 0,1.172634 -0.944033,2.116667 -2.116667,2.116667 H 3.1750003 c -1.172633,0 -2.116667,-0.944033 -2.116667,-2.116667 V 3.1750003 c 0,-1.172633 0.944034,-2.116667 2.116667,-2.116667 z" />
  <path
     id="rect1345"
     style="opacity:0.3;fill:url(#linearGradient1781);fill-opacity:1;stroke-width:0.264583"
     d="m 3.1750003,1.0583333 c -1.172633,0 -2.116667,0.944034 -2.116667,2.116667 V 13.758333 c 0,1.172634 0.944034,2.116667 2.116667,2.116667 H 13.758334 c 1.172633,0 2.116666,-0.944033 2.116666,-2.116667 V 3.1750003 c 0,-1.172633 -0.944033,-2.116667 -2.116666,-2.116667 z m 0,0.264584 H 13.758334 c 1.026054,0 1.852083,0.826029 1.852083,1.852083 V 13.758333 c 0,1.026054 -0.826029,1.852084 -1.852083,1.852084 H 3.1750003 c -1.026054,0 -1.852083,-0.82603 -1.852083,-1.852084 V 3.1750003 c 0,-1.026054 0.826029,-1.852083 1.852083,-1.852083 z" />
  <path
     id="rect851"
     style="opacity:1;stroke-width:3.82757;stroke-linecap:round;stroke-linejoin:round;fill:url(#linearGradient11329);fill-opacity:1"
     d="M 7.5945304,3.4395835 H 10.356547 L 8.5895092,7.2658649 H 11.377084 L 6.5673367,13.493749 H 5.8019347 L 7.3138392,9.2197126 H 5.2916669 Z"
     sodipodi:nodetypes="ccccccccc" />
  <path
     id="rect851-3"
     style="fill:url(#linearGradient9720);stroke-width:14.4664;stroke-linecap:round;stroke-linejoin:round;opacity:0.3;fill-opacity:1"
     d="M 38.681641 14 L 32.464844 27.460938 L 32.925781 27.460938 L 39.142578 14 L 38.681641 14 z M 42.228516 28.460938 L 24.822266 51 L 22.28125 51 L 21.927734 52 L 24.822266 52 L 43 28.460938 L 42.228516 28.460938 z M 20.398438 34.845703 L 20 35.845703 L 27.289062 35.845703 L 27.642578 34.845703 L 20.398438 34.845703 z "
     transform="scale(0.26458333)" />
</svg>
