<?xml version="1.0" encoding="UTF-8" standalone="no"?>
<svg
   width="64"
   height="64"
   version="1.1"
   viewBox="0 0 64 64"
   id="svg18"
   sodipodi:docname="9AD6_Origin.0.svg"
   inkscape:version="1.1.2 (0a00cf5339, 2022-02-04, custom)"
   xmlns:inkscape="http://www.inkscape.org/namespaces/inkscape"
   xmlns:sodipodi="http://sodipodi.sourceforge.net/DTD/sodipodi-0.dtd"
   xmlns:xlink="http://www.w3.org/1999/xlink"
   xmlns="http://www.w3.org/2000/svg"
   xmlns:svg="http://www.w3.org/2000/svg">
  <sodipodi:namedview
     id="namedview20"
     pagecolor="#ffffff"
     bordercolor="#666666"
     borderopacity="1.0"
     inkscape:pageshadow="2"
     inkscape:pageopacity="0.0"
     inkscape:pagecheckerboard="0"
     showgrid="false"
     inkscape:zoom="3.2701076"
     inkscape:cx="19.877022"
     inkscape:cy="54.12666"
     inkscape:window-width="1366"
     inkscape:window-height="703"
     inkscape:window-x="0"
     inkscape:window-y="37"
     inkscape:window-maximized="1"
     inkscape:current-layer="svg18" />
  <defs
     id="defs10">
    <linearGradient
       inkscape:collect="always"
       id="linearGradient871">
      <stop
         style="stop-color:#ffffff;stop-opacity:1"
         offset="0"
         id="stop867" />
      <stop
         style="stop-color:#ffe0a4;stop-opacity:1"
         offset="1"
         id="stop869" />
    </linearGradient>
    <filter
       id="filter1057-1"
       x="-0.026999999"
       y="-0.026999999"
       width="1.054"
       height="1.054"
       color-interpolation-filters="sRGB">
      <feGaussianBlur
         stdDeviation="0.61875"
         id="feGaussianBlur2" />
    </filter>
    <linearGradient
       id="linearGradient1053-2"
       x1="-127"
       x2="-74.345856"
       y1="60"
       y2="8.665308"
       gradientTransform="translate(131.5 -.51)"
       gradientUnits="userSpaceOnUse">
      <stop
         stop-color="#ff7d1e"
         offset="0"
         id="stop5"
         style="stop-color:#ff4c0b;stop-opacity:1" />
      <stop
         stop-color="#ffa53c"
         offset="1"
         id="stop7"
         style="stop-color:#ffc923;stop-opacity:1" />
    </linearGradient>
    <linearGradient
       inkscape:collect="always"
       xlink:href="#linearGradient871"
       id="linearGradient873"
       x1="32.096699"
       y1="49.294308"
       x2="31.774679"
       y2="14.50356"
       gradientUnits="userSpaceOnUse" />
    <filter
       inkscape:collect="always"
       style="color-interpolation-filters:sRGB"
       id="filter1363"
       x="-0.12419877"
       y="-0.0955392"
       width="1.2483975"
       height="1.1910784">
      <feGaussianBlur
         inkscape:collect="always"
         stdDeviation="1.3932907"
         id="feGaussianBlur1365" />
    </filter>
  </defs>
  <rect
     x="4.5"
     y="4.5"
     width="55"
     height="55"
     ry="15"
     fill="#141414"
     filter="url(#filter1057-1)"
     opacity=".3"
     stroke-linecap="round"
     stroke-width="2.7444"
     id="rect12" />
  <rect
     x="4.5"
     y="4.5"
     width="55"
     height="55"
     ry="15"
     fill="url(#linearGradient1053-2)"
     stroke-linecap="round"
     stroke-width="2.7444"
     id="rect14"
     style="fill:url(#linearGradient1053-2)" />
  <path
     d="m 31.774,14.503 c -0.22766,-0.01858 -0.49503,0.0375 -0.78611,0.19456 -7.9019,4.2636 -12.519,11.962 -12.449,17.095 0.1011,7.4658 5.8304,13.577 14.374,13.369 -0.39275,1.9908 -1.5727,2.6497 -1.3988,3.5967 0.06881,0.37451 0.61682,1.0171 1.3593,0.6126 7.5838,-4.1314 12.434,-11.509 12.583,-16.821 0.20424,-7.2587 -5.3183,-14.144 -14.41,-13.682 0.21548,-1.0046 0.72014,-1.8956 1.3514,-2.9367 0.39372,-0.64941 0.05985,-1.3718 -0.62311,-1.4276 z m 0.22611,12.112 a 5.3845,5.3845 0 0 1 5.3845,5.3845 5.3845,5.3845 0 0 1 -5.3845,5.3845 5.3845,5.3845 0 0 1 -5.3845,-5.3845 5.3845,5.3845 0 0 1 5.3845,-5.3845 z"
     fill="#fff0e1"
     fill-rule="evenodd"
     stroke-width="1.3461"
     id="path16-7"
     style="fill:#000000;fill-opacity:1;filter:url(#filter1363);opacity:0.4" />
  <path
     d="m31.774 14.503c-0.22766-0.01858-0.49503 0.0375-0.78611 0.19456-7.9019 4.2636-12.519 11.962-12.449 17.095 0.1011 7.4658 5.8304 13.577 14.374 13.369-0.39275 1.9908-1.5727 2.6497-1.3988 3.5967 0.06881 0.37451 0.61682 1.0171 1.3593 0.6126 7.5838-4.1314 12.434-11.509 12.583-16.821 0.20424-7.2587-5.3183-14.144-14.41-13.682 0.21548-1.0046 0.72014-1.8956 1.3514-2.9367 0.39372-0.64941 0.05985-1.3718-0.62311-1.4276zm0.22611 12.112a5.3845 5.3845 0 0 1 5.3845 5.3845 5.3845 5.3845 0 0 1-5.3845 5.3845 5.3845 5.3845 0 0 1-5.3845-5.3845 5.3845 5.3845 0 0 1 5.3845-5.3845z"
     fill="#fff0e1"
     fill-rule="evenodd"
     stroke-width="1.3461"
     id="path16"
     style="fill-opacity:1;fill:url(#linearGradient873)" />
</svg>
