<?xml version="1.0" encoding="UTF-8" standalone="no"?>
<!-- Created with Inkscape (http://www.inkscape.org/) -->

<svg
   width="64"
   height="64"
   viewBox="0 0 16.933333 16.933333"
   version="1.1"
   id="svg5"
   inkscape:version="1.1.1 (3bf5ae0d25, 2021-09-20, custom)"
   sodipodi:docname="passwordsafe.svg"
   xmlns:inkscape="http://www.inkscape.org/namespaces/inkscape"
   xmlns:sodipodi="http://sodipodi.sourceforge.net/DTD/sodipodi-0.dtd"
   xmlns:xlink="http://www.w3.org/1999/xlink"
   xmlns="http://www.w3.org/2000/svg"
   xmlns:svg="http://www.w3.org/2000/svg">
  <sodipodi:namedview
     id="namedview7"
     pagecolor="#ffffff"
     bordercolor="#666666"
     borderopacity="1.0"
     inkscape:pageshadow="2"
     inkscape:pageopacity="0.0"
     inkscape:pagecheckerboard="0"
     inkscape:document-units="px"
     showgrid="false"
     units="px"
     height="48px"
     inkscape:zoom="11.313708"
     inkscape:cx="25.72101"
     inkscape:cy="29.433321"
     inkscape:window-width="1920"
     inkscape:window-height="1011"
     inkscape:window-x="0"
     inkscape:window-y="0"
     inkscape:window-maximized="1"
     inkscape:current-layer="svg5"
     inkscape:lockguides="true" />
  <defs
     id="defs2">
    <linearGradient
       inkscape:collect="always"
       id="linearGradient7311">
      <stop
         style="stop-color:#333333;stop-opacity:1;"
         offset="0"
         id="stop7307" />
      <stop
         style="stop-color:#808080;stop-opacity:1"
         offset="1"
         id="stop7309" />
    </linearGradient>
    <linearGradient
       inkscape:collect="always"
       id="linearGradient6887">
      <stop
         style="stop-color:#b3b3b3;stop-opacity:1"
         offset="0"
         id="stop6883" />
      <stop
         style="stop-color:#f9f9f9;stop-opacity:1"
         offset="1"
         id="stop6885" />
    </linearGradient>
    <linearGradient
       inkscape:collect="always"
       id="linearGradient6321">
      <stop
         style="stop-color:#333333;stop-opacity:1;"
         offset="0"
         id="stop6317" />
      <stop
         style="stop-color:#4d4d4d;stop-opacity:1"
         offset="0.5"
         id="stop6389" />
      <stop
         style="stop-color:#333333;stop-opacity:1"
         offset="1"
         id="stop6319" />
    </linearGradient>
    <linearGradient
       inkscape:collect="always"
       id="linearGradient4913">
      <stop
         style="stop-color:#000000;stop-opacity:1;"
         offset="0"
         id="stop4909" />
      <stop
         style="stop-color:#000000;stop-opacity:0;"
         offset="1"
         id="stop4911" />
    </linearGradient>
    <linearGradient
       inkscape:collect="always"
       id="linearGradient2907">
      <stop
         style="stop-color:#aa02eb;stop-opacity:1"
         offset="0"
         id="stop2903" />
      <stop
         style="stop-color:#d374fe;stop-opacity:0.89411765"
         offset="1"
         id="stop2905" />
    </linearGradient>
    <linearGradient
       inkscape:collect="always"
       xlink:href="#linearGradient37218"
       id="linearGradient1781"
       x1="2.8346456e-08"
       y1="2.2677165e-07"
       x2="64"
       y2="64"
       gradientUnits="userSpaceOnUse"
       gradientTransform="scale(0.26458333)" />
    <linearGradient
       inkscape:collect="always"
       id="linearGradient37218">
      <stop
         style="stop-color:#fefefe;stop-opacity:1"
         offset="0"
         id="stop37214" />
      <stop
         style="stop-color:#717171;stop-opacity:0.00392157"
         offset="0.49741825"
         id="stop37220" />
      <stop
         style="stop-color:#010101;stop-opacity:1"
         offset="1"
         id="stop37216" />
    </linearGradient>
    <linearGradient
       inkscape:collect="always"
       xlink:href="#linearGradient6887"
       id="linearGradient977"
       x1="8.4666662"
       y1="14.816666"
       x2="8.4666662"
       y2="2.1166663"
       gradientUnits="userSpaceOnUse"
       gradientTransform="matrix(1.0499999,0,0,1.0499999,-0.423332,-0.423332)" />
    <linearGradient
       inkscape:collect="always"
       xlink:href="#linearGradient2907"
       id="linearGradient2909"
       x1="8.4666662"
       y1="13.229166"
       x2="8.4666653"
       y2="3.1749997"
       gradientUnits="userSpaceOnUse" />
    <linearGradient
       inkscape:collect="always"
       xlink:href="#linearGradient6887"
       id="linearGradient3579"
       x1="8.2020826"
       y1="14.816667"
       x2="8.2020826"
       y2="2.1166663"
       gradientUnits="userSpaceOnUse"
       gradientTransform="matrix(1.0909091,0,0,1.0909091,-0.76969562,-0.76969562)" />
    <linearGradient
       inkscape:collect="always"
       xlink:href="#linearGradient4913"
       id="linearGradient4915"
       x1="18"
       y1="50"
       x2="54"
       y2="14"
       gradientUnits="userSpaceOnUse" />
    <linearGradient
       inkscape:collect="always"
       xlink:href="#linearGradient6321"
       id="linearGradient6323"
       x1="7.8052082"
       y1="8.4666662"
       x2="9.1281248"
       y2="8.4666662"
       gradientUnits="userSpaceOnUse" />
    <linearGradient
       inkscape:collect="always"
       xlink:href="#linearGradient7311"
       id="linearGradient7313"
       x1="13.229166"
       y1="16.933334"
       x2="13.229167"
       y2="6.7529299e-07"
       gradientUnits="userSpaceOnUse" />
    <linearGradient
       inkscape:collect="always"
       xlink:href="#linearGradient4913"
       id="linearGradient7867"
       x1="7"
       y1="57.166016"
       x2="57"
       y2="27.166016"
       gradientUnits="userSpaceOnUse" />
  </defs>
  <path
     id="rect863"
     style="fill:url(#linearGradient7313);stroke-width:0.264583;fill-opacity:1"
     d="M 3.1750003,1.0583333 H 13.758333 c 1.172634,0 2.116667,0.944034 2.116667,2.116667 V 13.758333 c 0,1.172634 -0.944033,2.116667 -2.116667,2.116667 H 3.1750003 c -1.172633,0 -2.116667,-0.944033 -2.116667,-2.116667 V 3.1750003 c 0,-1.172633 0.944034,-2.116667 2.116667,-2.116667 z" />
  <path
     id="rect1345"
     style="opacity:0.3;fill:url(#linearGradient1781);fill-opacity:1;stroke-width:0.264583"
     d="m 3.1750003,1.0583333 c -1.172633,0 -2.116667,0.944034 -2.116667,2.116667 V 13.758333 c 0,1.172634 0.944034,2.116667 2.116667,2.116667 H 13.758334 c 1.172633,0 2.116666,-0.944033 2.116666,-2.116667 V 3.1750003 c 0,-1.172633 -0.944033,-2.116667 -2.116666,-2.116667 z m 0,0.264584 H 13.758334 c 1.026054,0 1.852083,0.826029 1.852083,1.852083 V 13.758333 c 0,1.026054 -0.826029,1.852084 -1.852083,1.852084 H 3.1750003 c -1.026054,0 -1.852083,-0.82603 -1.852083,-1.852084 V 3.1750003 c 0,-1.026054 0.826029,-1.852083 1.852083,-1.852083 z" />
  <circle
     style="fill:url(#linearGradient977);fill-opacity:1;stroke-width:2.63191;stroke-linecap:round;stroke-linejoin:round"
     id="path871"
     cx="8.4666672"
     cy="8.4666672"
     r="5.5562501" />
  <circle
     style="fill:url(#linearGradient2909);stroke-width:2.11667;stroke-linecap:round;stroke-linejoin:round;fill-opacity:1"
     id="path1579"
     cx="8.4666662"
     cy="8.4666662"
     r="4.2333331" />
  <circle
     style="fill:url(#linearGradient3579);fill-opacity:1.0;stroke-width:3.175;stroke-linecap:round;stroke-linejoin:round"
     id="path3491"
     cx="8.4666662"
     cy="8.4666662"
     r="3.175" />
  <path
     id="path4609"
     style="opacity:0.3;fill:url(#linearGradient4915);fill-opacity:1;stroke-width:9;stroke-linecap:round;stroke-linejoin:round"
     d="m 32,16 c -8.836556,-10e-7 -16.000001,7.163444 -16,16 0.0039,0.166758 0.01041,0.333445 0.01953,0.5 C 16.289445,23.866875 23.362658,17.006325 32,17 40.592099,17.000743 47.649651,23.787547 47.986328,32.373047 47.992336,32.248755 47.996893,32.124398 48,32 48.000001,23.163444 40.836556,15.999999 32,16 Z M 43.984375,32.402172 C 43.767535,38.865896 38.467359,43.995043 32,43.999828 c -6.430159,-0.0038 -11.7145,-5.075424 -11.982422,-11.5 -0.0093,0.166526 -0.01519,0.333229 -0.01758,0.5 0,6.627417 5.372583,12 12,12 6.627417,0 12,-5.372583 12,-12 -2.44e-4,-0.199318 -0.0055,-0.398598 -0.01563,-0.597656 z"
     transform="scale(0.26458333)"
     sodipodi:nodetypes="scccccsccccscc" />
  <circle
     style="opacity:1;fill:#b3b3b3;fill-opacity:1;stroke-width:2.38125;stroke-linecap:round;stroke-linejoin:round"
     id="path7081"
     cx="8.4666662"
     cy="8.4666662"
     r="2.1166666" />
  <circle
     style="opacity:1;fill:#ececec;fill-opacity:1;stroke-width:2.08359;stroke-linecap:round;stroke-linejoin:round"
     id="path6779"
     cx="8.4666662"
     cy="8.4666662"
     r="1.8520833" />
  <path
     id="rect5340"
     style="opacity:1;fill:url(#linearGradient6323);stroke-width:2.17377;stroke-linecap:round;stroke-linejoin:round;fill-opacity:1"
     d="m 8.0697915,6.0854163 h 0.79375 c 0.1465792,0 0.2645833,0.1180042 0.2645833,0.2645833 V 8.7312498 L 8.5989581,9.2604165 9.1281248,9.7895831 v 0.7937499 c 0,0.146579 -0.1180041,0.264583 -0.2645833,0.264583 h -0.79375 c -0.1465791,0 -0.2645833,-0.118004 -0.2645833,-0.264583 V 8.2020832 L 8.3343749,7.6729165 7.8052082,7.1437499 V 6.3499996 c 0,-0.1465791 0.1180042,-0.2645833 0.2645833,-0.2645833 z"
     sodipodi:nodetypes="ssscccsssscccss" />
  <path
     id="path7687"
     style="opacity:0.3;fill:url(#linearGradient7867);fill-opacity:1;stroke-width:9;stroke-linecap:round;stroke-linejoin:round"
     d="M 52.988281 32.332031 A 21.000001 21.000001 0 0 1 32 53 A 21.000001 21.000001 0 0 1 11.019531 32.5 A 21.000001 21.000001 0 0 0 11 33 A 21.000001 21.000001 0 0 0 32 54 A 21.000001 21.000001 0 0 0 53 33 A 21.000001 21.000001 0 0 0 52.988281 32.332031 z "
     transform="scale(0.26458333)" />
</svg>
