<?xml version="1.0" encoding="UTF-8" standalone="no"?>
<!-- Created with Inkscape (http://www.inkscape.org/) -->

<svg
   width="64"
   height="64"
   viewBox="0 0 16.933333 16.933333"
   version="1.1"
   id="svg5"
   inkscape:version="1.1.2 (0a00cf5339, 2022-02-04)"
   sodipodi:docname="pattern-kde-devel.svg"
   xmlns:inkscape="http://www.inkscape.org/namespaces/inkscape"
   xmlns:sodipodi="http://sodipodi.sourceforge.net/DTD/sodipodi-0.dtd"
   xmlns:xlink="http://www.w3.org/1999/xlink"
   xmlns="http://www.w3.org/2000/svg"
   xmlns:svg="http://www.w3.org/2000/svg">
  <sodipodi:namedview
     id="namedview7"
     pagecolor="#ffffff"
     bordercolor="#666666"
     borderopacity="1.0"
     inkscape:pageshadow="2"
     inkscape:pageopacity="0.0"
     inkscape:pagecheckerboard="0"
     inkscape:document-units="px"
     showgrid="false"
     units="px"
     height="48px"
     inkscape:zoom="12.25"
     inkscape:cx="31.959184"
     inkscape:cy="32"
     inkscape:window-width="1920"
     inkscape:window-height="1011"
     inkscape:window-x="0"
     inkscape:window-y="32"
     inkscape:window-maximized="1"
     inkscape:current-layer="svg5"
     inkscape:lockguides="true" />
  <defs
     id="defs2">
    <linearGradient
       inkscape:collect="always"
       id="linearGradient2017">
      <stop
         style="stop-color:#ffffff;stop-opacity:1;"
         offset="0"
         id="stop2013" />
      <stop
         style="stop-color:#9ad5ff;stop-opacity:1"
         offset="1"
         id="stop2015" />
    </linearGradient>
    <linearGradient
       inkscape:collect="always"
       id="linearGradient1261">
      <stop
         style="stop-color:#1a86f2;stop-opacity:1"
         offset="0"
         id="stop1257" />
      <stop
         style="stop-color:#2ac9fe;stop-opacity:1"
         offset="1"
         id="stop1259" />
    </linearGradient>
    <linearGradient
       inkscape:collect="always"
       xlink:href="#linearGradient37218"
       id="linearGradient1781"
       x1="2.8346456e-08"
       y1="2.2677165e-07"
       x2="64"
       y2="64"
       gradientUnits="userSpaceOnUse"
       gradientTransform="scale(0.26458333)" />
    <linearGradient
       inkscape:collect="always"
       id="linearGradient37218">
      <stop
         style="stop-color:#ffffff;stop-opacity:1"
         offset="0"
         id="stop37214" />
      <stop
         style="stop-color:#fdfdfd;stop-opacity:0.00392157"
         offset="0.49741825"
         id="stop37220" />
      <stop
         style="stop-color:#000000;stop-opacity:1"
         offset="1"
         id="stop37216" />
    </linearGradient>
    <linearGradient
       inkscape:collect="always"
       id="linearGradient6263">
      <stop
         style="stop-color:#000000;stop-opacity:1;"
         offset="0"
         id="stop6259" />
      <stop
         style="stop-color:#000000;stop-opacity:0;"
         offset="1"
         id="stop6261" />
    </linearGradient>
    <linearGradient
       inkscape:collect="always"
       xlink:href="#linearGradient1261"
       id="linearGradient1263"
       x1="16.933332"
       y1="16.933334"
       x2="-1.0955811e-07"
       y2="6.3308715e-07"
       gradientUnits="userSpaceOnUse" />
    <linearGradient
       inkscape:collect="always"
       xlink:href="#linearGradient6263"
       id="linearGradient1591"
       x1="7"
       y1="53.34082"
       x2="55"
       y2="13.34082"
       gradientUnits="userSpaceOnUse" />
    <linearGradient
       inkscape:collect="always"
       xlink:href="#linearGradient2017"
       id="linearGradient1917"
       x1="3.4395833"
       y1="2.036983"
       x2="3.4395831"
       y2="15.26615"
       gradientUnits="userSpaceOnUse" />
  </defs>
  <path
     id="rect863"
     style="fill:url(#linearGradient1263);fill-opacity:1;stroke-width:0.264583"
     d="M 3.1750003,1.0583333 H 13.758333 c 1.172634,0 2.116667,0.944034 2.116667,2.116667 V 13.758333 c 0,1.172634 -0.944033,2.116667 -2.116667,2.116667 H 3.1750003 c -1.172633,0 -2.116667,-0.944033 -2.116667,-2.116667 V 3.1750003 c 0,-1.172633 0.944034,-2.116667 2.116667,-2.116667 z"
     sodipodi:nodetypes="sssssssss" />
  <path
     id="path27"
     d="M 9.396877,3.1749999 7.5354175,3.3474342 V 10.620838 L 9.396877,10.248961 V 7.2708342 L 11.630212,10.620838 13.491672,9.8770848 11.072398,6.7441821 13.49375,3.547915 11.543995,3.1749999 9.396877,6.3401044 Z M 5.3789497,4.8941491 A 0.1622129,0.1622129 0 0 0 5.252221,4.9419321 L 4.4617239,5.7324289 a 0.18614595,0.18614595 0 0 0 0,0.2638454 L 5.2792287,7.278105 A 3.350627,3.350627 0 0 0 5.1099107,7.6863385 L 3.6265602,8.0156254 A 0.18614595,0.18614595 0 0 0 3.4395833,8.2015639 v 1.1166677 c 0,0.1031781 0.085926,0.1636005 0.1869769,0.185938 l 1.4833505,0.3303261 c 0.046271,0.1382799 0.1013415,0.2732443 0.165163,0.4040783 l -0.8195823,1.284947 c -0.055312,0.08669 -0.072863,0.189412 0,0.262806 l 0.790497,0.790497 a 0.18614595,0.18614595 0 0 0 0.2628066,0 l 1.2859855,-0.818543 a 3.350627,3.350627 0 0 0 0.4103109,0.171395 l 0.3292874,1.483351 c 0,0.103178 0.08276,0.185938 0.185938,0.185938 h 1.1177064 c 0.1031781,0 0.163601,-0.08489 0.1859386,-0.185938 l 0.3292868,-1.484389 a 3.350627,3.350627 0 0 0 0.4103109,-0.167241 l 1.2797535,0.815427 a 0.18614595,0.18614595 0 0 0 0.262806,0 l 0.790497,-0.790497 c 0.07286,-0.07339 0.05531,-0.176115 0,-0.262806 L 11.747592,10.975055 11.486864,11.078931 10.653777,9.828263 A 2.6060432,2.6060432 0 0 1 8.2802087,11.365629 2.6060432,2.6060432 0 0 1 5.673958,8.7593784 2.6060432,2.6060432 0 0 1 7.1625023,6.4086625 V 5.6067389 A 3.350627,3.350627 0 0 0 6.7958198,5.7573597 L 5.5160664,4.9419321 A 0.28613291,0.28613291 0 0 0 5.3789497,4.8941491 Z"
     style="fill:url(#linearGradient1917);stroke-width:0.531846;fill-opacity:1" />
  <path
     id="path27-6"
     style="opacity:0.3;fill:url(#linearGradient1591);stroke-width:2.01013;fill-opacity:1"
     d="M 50.337891 14.283203 L 41.847656 25.490234 L 42.230469 25.986328 L 51 14.410156 L 50.337891 14.283203 z M 16.865234 22.664062 L 16.863281 22.666016 A 0.70354376 0.70354376 0 0 0 16.863281 23.662109 L 19.6875 28.091797 A 12.663787 12.663787 0 0 1 19.953125 27.507812 L 16.865234 22.664062 z M 27.070312 24.222656 A 9.8496123 9.8496123 0 0 0 21.445312 33.105469 A 9.8496123 9.8496123 0 0 0 21.470703 33.611328 A 9.8496123 9.8496123 0 0 1 27.070312 25.222656 L 27.070312 24.222656 z M 35.515625 27.480469 L 35.515625 28.480469 L 43.957031 41.142578 L 50.992188 38.330078 L 50.402344 37.566406 L 43.957031 40.142578 L 35.515625 27.480469 z M 13 35.21875 L 13 36.21875 C 13 36.608714 13.325107 36.837449 13.707031 36.921875 L 19.3125 38.169922 C 19.41953 38.489779 19.539973 38.803518 19.671875 39.113281 L 19.9375 38.697266 C 19.696285 38.202775 19.487383 37.692555 19.3125 37.169922 L 13.707031 35.921875 C 13.325107 35.83745 13 35.608714 13 35.21875 z M 35.515625 38.736328 L 28.480469 40.142578 L 28.480469 41.142578 L 35.515625 39.736328 L 35.515625 38.736328 z M 25.681641 44.441406 L 20.820312 47.535156 A 0.70354376 0.70354376 0 0 1 19.828125 47.535156 L 16.841797 44.548828 L 16.839844 44.552734 C 16.630791 44.880382 16.564456 45.269477 16.839844 45.546875 L 19.828125 48.535156 A 0.70354376 0.70354376 0 0 0 20.820312 48.535156 L 25.681641 45.441406 A 12.663787 12.663787 0 0 0 27.232422 46.087891 L 28.476562 51.695312 C 28.476562 52.085277 28.789723 52.398438 29.179688 52.398438 L 33.404297 52.398438 C 33.794261 52.398438 34.021043 52.077226 34.105469 51.695312 L 35.351562 46.083984 A 12.663787 12.663787 0 0 0 36.902344 45.453125 L 41.738281 48.535156 A 0.70354376 0.70354376 0 0 0 42.732422 48.535156 L 45.71875 45.546875 C 45.994126 45.269495 45.927796 44.880385 45.71875 44.552734 L 45.716797 44.548828 L 42.732422 47.535156 A 0.70354376 0.70354376 0 0 1 41.738281 47.535156 L 36.902344 44.453125 A 12.663787 12.663787 0 0 1 35.351562 45.083984 L 34.105469 50.695312 C 34.021043 51.077226 33.794261 51.398438 33.404297 51.398438 L 29.179688 51.398438 C 28.789723 51.398438 28.476562 51.085277 28.476562 50.695312 L 27.232422 45.087891 A 12.663787 12.663787 0 0 1 25.681641 44.441406 z "
     transform="scale(0.26458333)" />
  <g
     id="g1664"
     style="opacity:0.9">
    <path
       id="path866"
       style="fill:#ffd42a;fill-opacity:1;stroke-width:0.264583"
       d="M 4 44 L 4 52 C 4 56.432003 7.5680016 60 12 60 L 52 60 C 56.432003 60 60 56.432003 60 52 L 60 44 L 4 44 z "
       transform="scale(0.26458333)" />
    <path
       id="rect1125"
       style="fill:#1a1a1a;stroke-width:0.999999"
       d="M 11.75 44 L 24.75 60 L 34.75 60 L 21.75 44 L 11.75 44 z M 31.75 44 L 44.75 60 L 52 60 C 52.852191 60 53.672326 59.865703 54.441406 59.621094 L 41.75 44 L 31.75 44 z M 51.75 44 L 59.777344 53.878906 C 59.921315 53.276541 60 52.647712 60 52 L 60 44 L 51.75 44 z M 4 46.769531 L 4 52 C 4 56.432003 7.5680016 60 12 60 L 14.75 60 L 4 46.769531 z "
       transform="scale(0.26458333)" />
  </g>
  <path
     id="rect1345"
     style="opacity:0.3;fill:url(#linearGradient1781);fill-opacity:1;stroke-width:0.264583"
     d="m 3.1750003,1.0583333 c -1.172633,0 -2.116667,0.944034 -2.116667,2.116667 V 13.758333 c 0,1.172634 0.944034,2.116667 2.116667,2.116667 H 13.758334 c 1.172633,0 2.116666,-0.944033 2.116666,-2.116667 V 3.1750003 c 0,-1.172633 -0.944033,-2.116667 -2.116666,-2.116667 z m 0,0.264584 H 13.758334 c 1.026054,0 1.852083,0.826029 1.852083,1.852083 V 13.758333 c 0,1.026054 -0.826029,1.852084 -1.852083,1.852084 H 3.1750003 c -1.026054,0 -1.852083,-0.82603 -1.852083,-1.852084 V 3.1750003 c 0,-1.026054 0.826029,-1.852083 1.852083,-1.852083 z" />
</svg>
