<?xml version="1.0" encoding="UTF-8" standalone="no"?>
<!-- Created with Inkscape (http://www.inkscape.org/) -->

<svg
   width="64"
   height="64"
   viewBox="0 0 16.933333 16.933333"
   version="1.1"
   id="svg5"
   inkscape:version="1.1.1 (3bf5ae0d25, 2021-09-20, custom)"
   sodipodi:docname="peek.svg"
   xmlns:inkscape="http://www.inkscape.org/namespaces/inkscape"
   xmlns:sodipodi="http://sodipodi.sourceforge.net/DTD/sodipodi-0.dtd"
   xmlns:xlink="http://www.w3.org/1999/xlink"
   xmlns="http://www.w3.org/2000/svg"
   xmlns:svg="http://www.w3.org/2000/svg">
  <sodipodi:namedview
     id="namedview7"
     pagecolor="#ffffff"
     bordercolor="#666666"
     borderopacity="1.0"
     inkscape:pageshadow="2"
     inkscape:pageopacity="0.0"
     inkscape:pagecheckerboard="0"
     inkscape:document-units="px"
     showgrid="false"
     units="px"
     height="48px"
     inkscape:zoom="11.313708"
     inkscape:cx="34.294681"
     inkscape:cy="36.018253"
     inkscape:window-width="1920"
     inkscape:window-height="1019"
     inkscape:window-x="0"
     inkscape:window-y="0"
     inkscape:window-maximized="1"
     inkscape:current-layer="svg5"
     inkscape:lockguides="true" />
  <defs
     id="defs2">
    <linearGradient
       inkscape:collect="always"
       id="linearGradient3578">
      <stop
         style="stop-color:#d40000;stop-opacity:1;"
         offset="0"
         id="stop3574" />
      <stop
         style="stop-color:#ff2a2a;stop-opacity:1"
         offset="1"
         id="stop3576" />
    </linearGradient>
    <linearGradient
       inkscape:collect="always"
       id="linearGradient1586">
      <stop
         style="stop-color:#ffd42a;stop-opacity:1"
         offset="0"
         id="stop1582" />
      <stop
         style="stop-color:#ff7f2a;stop-opacity:1"
         offset="1"
         id="stop1584" />
    </linearGradient>
    <linearGradient
       inkscape:collect="always"
       id="linearGradient1106">
      <stop
         style="stop-color:#333333;stop-opacity:1;"
         offset="0"
         id="stop1102" />
      <stop
         style="stop-color:#4d4d4d;stop-opacity:1"
         offset="1"
         id="stop1104" />
    </linearGradient>
    <linearGradient
       inkscape:collect="always"
       xlink:href="#linearGradient37218-3"
       id="linearGradient1781"
       x1="2.8346456e-08"
       y1="2.2677165e-07"
       x2="64"
       y2="64"
       gradientUnits="userSpaceOnUse"
       gradientTransform="matrix(0.26458333,0,0,0.26458333,1.3125e-6,1.125e-7)" />
    <linearGradient
       inkscape:collect="always"
       id="linearGradient37218-3">
      <stop
         style="stop-color:#ffffff;stop-opacity:1"
         offset="0"
         id="stop37214-6" />
      <stop
         style="stop-color:#717171;stop-opacity:0.00392157"
         offset="0.49741825"
         id="stop37220-7" />
      <stop
         style="stop-color:#181818;stop-opacity:1"
         offset="1"
         id="stop37216-5" />
    </linearGradient>
    <linearGradient
       inkscape:collect="always"
       xlink:href="#linearGradient1106"
       id="linearGradient1001"
       x1="1.0583344"
       y1="8.4666672"
       x2="15.875001"
       y2="8.4666672"
       gradientUnits="userSpaceOnUse" />
    <linearGradient
       inkscape:collect="always"
       xlink:href="#linearGradient1254"
       id="linearGradient1256"
       x1="50"
       y1="64"
       x2="50"
       y2="2.2677165e-07"
       gradientUnits="userSpaceOnUse"
       gradientTransform="scale(0.26458333)" />
    <linearGradient
       inkscape:collect="always"
       id="linearGradient1254">
      <stop
         style="stop-color:#b3b3b3;stop-opacity:1;"
         offset="0"
         id="stop1250" />
      <stop
         style="stop-color:#ececec;stop-opacity:1"
         offset="1"
         id="stop1252" />
    </linearGradient>
    <linearGradient
       inkscape:collect="always"
       xlink:href="#linearGradient1272"
       id="linearGradient1274"
       x1="3"
       y1="6.5"
       x2="61"
       y2="14.5"
       gradientUnits="userSpaceOnUse"
       gradientTransform="scale(0.26458333)" />
    <linearGradient
       inkscape:collect="always"
       id="linearGradient1272">
      <stop
         style="stop-color:#000000;stop-opacity:1;"
         offset="0"
         id="stop1268" />
      <stop
         style="stop-color:#000000;stop-opacity:0;"
         offset="1"
         id="stop1270" />
    </linearGradient>
    <linearGradient
       inkscape:collect="always"
       xlink:href="#linearGradient1586"
       id="linearGradient1588"
       x1="8.4666662"
       y1="15.345833"
       x2="8.4666672"
       y2="1.5874997"
       gradientUnits="userSpaceOnUse" />
    <linearGradient
       inkscape:collect="always"
       xlink:href="#linearGradient3578"
       id="linearGradient3580"
       x1="13.493749"
       y1="4.2333331"
       x2="13.493749"
       y2="2.6458333"
       gradientUnits="userSpaceOnUse" />
    <linearGradient
       inkscape:collect="always"
       xlink:href="#linearGradient1272"
       id="linearGradient4110"
       x1="2"
       y1="52.5"
       x2="54"
       y2="14.5"
       gradientUnits="userSpaceOnUse" />
  </defs>
  <path
     id="rect863"
     style="fill:url(#linearGradient1001);fill-opacity:1;stroke-width:0.264583"
     d="m 3.704166,1.5875 h 9.525 c 1.172634,0 2.116667,0.9440332 2.116667,2.1166662 v 9.5249998 c 0,1.172634 -0.944033,2.116667 -2.116667,2.116667 h -9.525 C 2.531534,15.345833 1.5875,14.4018 1.5875,13.229166 V 3.7041662 C 1.5875,2.5315332 2.531534,1.5875 3.704166,1.5875 Z"
     sodipodi:nodetypes="sssssssss" />
  <path
     id="rect867"
     style="fill:url(#linearGradient1256);fill-opacity:1;stroke-width:2.38125;stroke-linecap:round;stroke-linejoin:round"
     d="m 3.175,1.0583333 c -1.1726333,0 -2.1166667,0.944033 -2.1166667,2.116667 V 13.758333 c 0,1.172633 0.9440334,2.116667 2.1166667,2.116667 h 10.583333 c 1.172633,0 2.116667,-0.944034 2.116667,-2.116667 V 3.1750003 c 0,-1.172634 -0.944034,-2.116667 -2.116667,-2.116667 z m 0.2645833,0.79375 H 13.49375 c 0.879475,0 1.5875,0.708025 1.5875,1.5875 V 13.49375 c 0,0.879475 -0.708025,1.5875 -1.5875,1.5875 H 3.4395833 c -0.879475,0 -1.5875,-0.708025 -1.5875,-1.5875 V 3.4395833 c 0,-0.879475 0.708025,-1.5875 1.5875,-1.5875 z" />
  <path
     id="rect872"
     style="opacity:0.3;fill:url(#linearGradient1274);fill-opacity:1;stroke-width:2.38125;stroke-linecap:round;stroke-linejoin:round"
     d="m 3.4395833,1.8520833 c -0.879475,0 -1.5875,0.708025 -1.5875,1.5875 v 0.264583 c 0,-0.879475 0.708025,-1.5875 1.5875,-1.5875 H 13.49375 c 0.879475,0 1.5875,0.708025 1.5875,1.5875 v -0.264583 c 0,-0.879475 -0.708025,-1.5875 -1.5875,-1.5875 z" />
  <path
     id="rect1345"
     style="opacity:0.3;fill:url(#linearGradient1781);fill-opacity:1;stroke-width:0.264583"
     d="m 3.1750003,1.0583333 c -1.172633,0 -2.116667,0.9440335 -2.116667,2.1166668 V 13.758333 c 0,1.172634 0.944034,2.116667 2.116667,2.116667 H 13.758334 c 1.172633,0 2.116666,-0.944033 2.116666,-2.116667 V 3.1750001 c 0,-1.1726333 -0.944033,-2.1166668 -2.116666,-2.1166668 z m 0,0.2645834 H 13.758334 c 1.026054,0 1.852083,0.8260292 1.852083,1.8520834 V 13.758333 c 0,1.026054 -0.826029,1.852084 -1.852083,1.852084 H 3.1750003 c -1.026055,0 -1.852083,-0.82603 -1.852083,-1.852084 V 3.1750001 c 0,-1.0260542 0.826028,-1.8520834 1.852083,-1.8520834 z" />
  <path
     id="rect950"
     style="fill:url(#linearGradient1588);stroke-width:0.264583"
     d="m 3.7041667,4.2333333 h 9.5249993 c 0.586317,0 1.058334,0.4720166 1.058334,1.0583334 v 7.9374993 c 0,0.586317 -0.472017,1.058334 -1.058334,1.058334 H 3.7041667 c -0.5863168,0 -1.0583334,-0.472017 -1.0583334,-1.058334 V 5.2916667 c 0,-0.5863168 0.4720166,-1.0583334 1.0583334,-1.0583334 z"
     sodipodi:nodetypes="sssssssss" />
  <path
     id="rect1834"
     style="fill:#ffffff;stroke-width:0.23665"
     d="M 4.2333331,5.8208332 H 6.3499997 V 6.3499998 H 4.7624998 v 1.5875 H 4.2333331 Z"
     sodipodi:nodetypes="ccccccc" />
  <path
     id="rect2151"
     style="fill:#ffffff;stroke-width:0.264583"
     d="m 12.700002,5.8208332 h -2.116668 v 0.5291666 h 1.587501 v 1.5875 h 0.529167 z"
     sodipodi:nodetypes="ccccccc" />
  <path
     id="rect2408"
     style="fill:#ffffff;stroke-width:0.264583"
     d="m 4.2333331,10.583334 h 0.5291667 v 1.587501 h 1.5874999 v 0.529167 H 4.2333331 Z"
     sodipodi:nodetypes="ccccccc" />
  <path
     id="rect2512"
     style="fill:#ffffff;stroke-width:0.132291"
     d="m 10.583334,12.170835 h 1.587501 v -1.587501 h 0.529167 v 2.116668 h -2.116668 z"
     sodipodi:nodetypes="ccccccc" />
  <path
     id="rect1834-3"
     style="opacity:0.3;fill:url(#linearGradient4110);stroke-width:0.894425;fill-opacity:1"
     d="M 18 24 L 18 25 L 24 25 L 24 24 L 18 24 z M 40 24 L 40 25 L 46 25 L 46 24 L 40 24 z M 16 30 L 16 31 L 18 31 L 18 30 L 16 30 z M 46 30 L 46 31 L 48 31 L 48 30 L 46 30 z M 16 48 L 16 49 L 24 49 L 24 48 L 16 48 z M 40 48 L 40 49 L 48 49 L 48 48 L 40 48 z "
     transform="scale(0.26458333)" />
  <circle
     style="fill:url(#linearGradient3580);fill-opacity:1;stroke-width:0.176389"
     id="path3474"
     cx="13.493749"
     cy="3.175"
     r="0.52916664" />
  <rect
     style="fill:#ffffff;fill-opacity:1;stroke-width:0.264583"
     id="rect3890"
     width="3.96875"
     height="0.52916664"
     x="6.614583"
     y="2.9104166"
     ry="0" />
</svg>
