<?xml version="1.0" encoding="UTF-8" standalone="no"?>
<svg
   clip-rule="evenodd"
   fill-rule="evenodd"
   stroke-linecap="round"
   viewBox="0 0 48 48"
   version="1.1"
   id="svg46"
   sodipodi:docname="plasmadiscover.svg"
   inkscape:version="1.1.2 (0a00cf5339, 2022-02-04, custom)"
   xmlns:inkscape="http://www.inkscape.org/namespaces/inkscape"
   xmlns:sodipodi="http://sodipodi.sourceforge.net/DTD/sodipodi-0.dtd"
   xmlns:xlink="http://www.w3.org/1999/xlink"
   xmlns="http://www.w3.org/2000/svg"
   xmlns:svg="http://www.w3.org/2000/svg">
  <defs
     id="defs50">
    <linearGradient
       inkscape:collect="always"
       id="linearGradient1537">
      <stop
         style="stop-color:#e6e6e6;stop-opacity:1"
         offset="0"
         id="stop1533" />
      <stop
         style="stop-color:#ffffff;stop-opacity:1"
         offset="1"
         id="stop1535" />
    </linearGradient>
    <linearGradient
       inkscape:collect="always"
       xlink:href="#linearGradient1537"
       id="linearGradient1539"
       x1="24.130842"
       y1="37.616226"
       x2="23.788944"
       y2="19.89938"
       gradientUnits="userSpaceOnUse" />
    <filter
       inkscape:collect="always"
       style="color-interpolation-filters:sRGB"
       id="filter2123"
       x="-0.10783378"
       y="-0.10816674"
       width="1.2156676"
       height="1.2163335">
      <feGaussianBlur
         inkscape:collect="always"
         stdDeviation="0.7736175"
         id="feGaussianBlur2125" />
    </filter>
  </defs>
  <sodipodi:namedview
     id="namedview48"
     pagecolor="#ffffff"
     bordercolor="#666666"
     borderopacity="1.0"
     inkscape:pageshadow="2"
     inkscape:pageopacity="0.0"
     inkscape:pagecheckerboard="0"
     showgrid="false"
     inkscape:zoom="7.0101628"
     inkscape:cx="21.254856"
     inkscape:cy="23.965207"
     inkscape:window-width="1366"
     inkscape:window-height="703"
     inkscape:window-x="0"
     inkscape:window-y="37"
     inkscape:window-maximized="1"
     inkscape:current-layer="svg46" />
  <linearGradient
     id="a"
     x2="1"
     gradientTransform="matrix(.0595533 -6.84864 6.84864 .0595533 23.2854 9.8263)"
     gradientUnits="userSpaceOnUse">
    <stop
       stop-color="#018fa9"
       offset="0"
       id="stop2"
       style="stop-color:#0167a9;stop-opacity:1" />
    <stop
       stop-color="#35b7dc"
       offset="1"
       id="stop4"
       style="stop-color:#35c0eb;stop-opacity:1" />
  </linearGradient>
  <linearGradient
     id="b"
     x2="1"
     gradientTransform="matrix(-1 0 0 -1 1 0)"
     gradientUnits="userSpaceOnUse">
    <stop
       stop-color="#3abbe1"
       offset="0"
       id="stop7" />
    <stop
       stop-color="#5ea5fb"
       offset="1"
       id="stop9" />
  </linearGradient>
  <linearGradient
     id="c"
     x2="1"
     gradientTransform="matrix(0 -37 37 0 24 46)"
     gradientUnits="userSpaceOnUse">
    <stop
       stop-color="#006783"
       offset="0"
       id="stop12"
       style="stop-color:#0041b6;stop-opacity:1" />
    <stop
       stop-color="#20ccff"
       offset="1"
       id="stop14"
       style="stop-color:#20dbff;stop-opacity:1" />
  </linearGradient>
  <linearGradient
     id="d"
     x2="1"
     gradientTransform="matrix(0 -1 1 0 0 1)"
     gradientUnits="userSpaceOnUse">
    <stop
       stop-color="#e6e6e6"
       offset="0"
       id="stop17" />
    <stop
       stop-color="#fff"
       offset="1"
       id="stop19" />
  </linearGradient>
  <path
     d="m4 3h40v10h-40z"
     fill="url(#a)"
     id="path22" />
  <g
     fill-rule="nonzero"
     id="g30">
    <path
       d="m4 3v27l3.5-24.5z"
       fill="#0492ac"
       id="path24" />
    <path
       d="m44 3v5l-3.5-2.5z"
       fill="url(#b)"
       id="path26" />
    <path
       d="m7.5 5.5 7.7 5.5h-11.2z"
       fill-opacity=".08"
       id="path28" />
  </g>
  <path
     d="M 46,9 H 2 v 31 c -0.2002827,4.162316 2.0374157,6 6,6 h 32 c 3.516066,0.117688 5.884415,-2.179644 6,-6 z"
     fill="url(#c)"
     id="path32"
     sodipodi:nodetypes="cccsccc" />
  <path
     d="m46 9h-5.5v-3.5z"
     fill="#0995b1"
     fill-rule="nonzero"
     id="path34" />
  <path
     d="m7.5 5.5-5.5 3.5h5.5z"
     fill="#39badf"
     fill-rule="nonzero"
     id="path36" />
  <circle
     cx="14"
     cy="14"
     r="2"
     fill-opacity=".3"
     id="circle38" />
  <circle
     cx="34"
     cy="14"
     r="2"
     fill-opacity=".3"
     id="circle40" />
  <path
     d="m34 13c0-5.486-4.514-10-10-10s-10 4.514-10 10"
     fill="none"
     stroke="url(#d)"
     stroke-width="2.4"
     id="path42" />
  <path
     d="m 19.265,20.764 c -0.708,0 -1.291,0.581 -1.291,1.287 0,0.706 0.583,1.287 1.291,1.288 h 10e-4 c 0.708,0 1.291,-0.581 1.291,-1.287 v -0.001 c 0,-0.706 -0.583,-1.287 -1.291,-1.287 z m 7.318,0 -2.449,2.441 3.767,3.755 -3.901,4.425 2.583,2.253 6.026,-6.866 z m -9.04,6.008 c -1.18,0 -2.152,0.968 -2.152,2.145 v 10e-4 c 0,1.177 0.972,2.145 2.152,2.145 1.181,0 2.153,-0.968 2.153,-2.145 v -10e-4 c 0,-1.177 -0.972,-2.145 -2.153,-2.145 z m 3.874,6.008 c -1.417,0 -2.583,1.162 -2.583,2.574 v 10e-4 c 0,1.412 1.166,2.574 2.583,2.574 1.417,0 2.583,-1.162 2.583,-2.574 V 35.354 C 24,33.942 22.834,32.78 21.417,32.78 Z"
     fill="#fff"
     fill-opacity=".8"
     fill-rule="nonzero"
     id="path44-7"
     style="fill:#000000;fill-opacity:1;filter:url(#filter2123);opacity:0.4" />
  <path
     d="m19.265 20.764c-.708 0-1.291.581-1.291 1.287s.583 1.287 1.291 1.288h.001c.708 0 1.291-.581 1.291-1.287v-.001c0-.706-.583-1.287-1.291-1.287zm7.318 0-2.449 2.441 3.767 3.755-3.901 4.425 2.583 2.253 6.026-6.866zm-9.04 6.008c-1.18 0-2.152.968-2.152 2.145v.001c0 1.177.972 2.145 2.152 2.145 1.181 0 2.153-.968 2.153-2.145v-.001c0-1.177-.972-2.145-2.153-2.145zm3.874 6.008c-1.417 0-2.583 1.162-2.583 2.574v.001c0 1.412 1.166 2.574 2.583 2.574s2.583-1.162 2.583-2.574v-.001c0-1.412-1.166-2.574-2.583-2.574z"
     fill="#fff"
     fill-opacity=".8"
     fill-rule="nonzero"
     id="path44"
     style="fill:url(#linearGradient1539);fill-opacity:1" />
</svg>
