<?xml version="1.0" encoding="UTF-8" standalone="no"?>
<!-- Created with Inkscape (http://www.inkscape.org/) -->

<svg
   width="64"
   height="64"
   viewBox="0 0 16.933333 16.933333"
   version="1.1"
   id="svg5"
   inkscape:version="1.1.1 (3bf5ae0d25, 2021-09-20, custom)"
   sodipodi:docname="preferences-desktop-icons.svg"
   xmlns:inkscape="http://www.inkscape.org/namespaces/inkscape"
   xmlns:sodipodi="http://sodipodi.sourceforge.net/DTD/sodipodi-0.dtd"
   xmlns:xlink="http://www.w3.org/1999/xlink"
   xmlns="http://www.w3.org/2000/svg"
   xmlns:svg="http://www.w3.org/2000/svg">
  <sodipodi:namedview
     id="namedview7"
     pagecolor="#ffffff"
     bordercolor="#666666"
     borderopacity="1.0"
     inkscape:pageshadow="2"
     inkscape:pageopacity="0.0"
     inkscape:pagecheckerboard="0"
     inkscape:document-units="px"
     showgrid="false"
     units="px"
     height="48px"
     inkscape:zoom="4"
     inkscape:cx="34.25"
     inkscape:cy="44.875"
     inkscape:window-width="1920"
     inkscape:window-height="1019"
     inkscape:window-x="0"
     inkscape:window-y="0"
     inkscape:window-maximized="1"
     inkscape:current-layer="svg5"
     inkscape:lockguides="true"
     showguides="true" />
  <defs
     id="defs2">
    <linearGradient
       inkscape:collect="always"
       id="linearGradient5008">
      <stop
         style="stop-color:#000000;stop-opacity:1;"
         offset="0"
         id="stop5004" />
      <stop
         style="stop-color:#000000;stop-opacity:0;"
         offset="1"
         id="stop5006" />
    </linearGradient>
    <linearGradient
       inkscape:collect="always"
       id="linearGradient6859">
      <stop
         style="stop-color:#7ddefe;stop-opacity:1"
         offset="0"
         id="stop6855" />
      <stop
         style="stop-color:#0279f3;stop-opacity:1"
         offset="1"
         id="stop6857" />
    </linearGradient>
    <linearGradient
       inkscape:collect="always"
       xlink:href="#linearGradient37218"
       id="linearGradient1781"
       x1="2.8346456e-08"
       y1="2.2677165e-07"
       x2="64"
       y2="64"
       gradientUnits="userSpaceOnUse"
       gradientTransform="scale(0.26458333)" />
    <linearGradient
       inkscape:collect="always"
       id="linearGradient37218">
      <stop
         style="stop-color:#ffffff;stop-opacity:1"
         offset="0"
         id="stop37214" />
      <stop
         style="stop-color:#fefefe;stop-opacity:0.00392157"
         offset="0.49741825"
         id="stop37220" />
      <stop
         style="stop-color:#000000;stop-opacity:1"
         offset="1"
         id="stop37216" />
    </linearGradient>
    <linearGradient
       inkscape:collect="always"
       xlink:href="#linearGradient6859"
       id="linearGradient6861"
       x1="8.9958334"
       y1="16.933334"
       x2="8.9958334"
       y2="1.350586e-06"
       gradientUnits="userSpaceOnUse" />
    <linearGradient
       inkscape:collect="always"
       xlink:href="#linearGradient5008"
       id="linearGradient5010"
       x1="1"
       y1="41.5"
       x2="21"
       y2="27.5"
       gradientUnits="userSpaceOnUse" />
  </defs>
  <path
     id="rect863"
     style="fill:url(#linearGradient6861);stroke-width:0.264583;fill-opacity:1"
     d="M 3.1750003,1.0583333 H 13.758333 c 1.172634,0 2.116667,0.944034 2.116667,2.116667 V 13.758333 c 0,1.172634 -0.944033,2.116667 -2.116667,2.116667 H 3.1750003 c -1.172633,0 -2.116667,-0.944033 -2.116667,-2.116667 V 3.1750003 c 0,-1.172633 0.944034,-2.116667 2.116667,-2.116667 z" />
  <path
     id="rect26368"
     style="opacity:0.5;fill:#ffffff;stroke-width:0.439812"
     d="M 1.0583333,3.7041626 V 3.1749959 c 0,-1.1726331 0.9440337,-2.1166658 2.1166667,-2.1166658 h 5.2916666 5.2916664 c 1.172633,0 2.116667,0.9440327 2.116667,2.1166658 V 3.7041626 H 8.4666666 Z" />
  <path
     id="rect1345"
     style="opacity:0.3;fill:url(#linearGradient1781);fill-opacity:1;stroke-width:0.264583"
     d="m 3.1750003,1.0583333 c -1.172633,0 -2.116667,0.944034 -2.116667,2.116667 V 13.758333 c 0,1.172634 0.944034,2.116667 2.116667,2.116667 H 13.758334 c 1.172633,0 2.116666,-0.944033 2.116666,-2.116667 V 3.1750003 c 0,-1.172633 -0.944033,-2.116667 -2.116666,-2.116667 z m 0,0.264584 H 13.758334 c 1.026054,0 1.852083,0.826029 1.852083,1.852083 V 13.758333 c 0,1.026054 -0.826029,1.852084 -1.852083,1.852084 H 3.1750003 c -1.026054,0 -1.852083,-0.82603 -1.852083,-1.852084 V 3.1750003 c 0,-1.026054 0.826029,-1.852083 1.852083,-1.852083 z" />
  <rect
     style="opacity:1;fill:#f9f9f9;fill-opacity:1;stroke-width:0.264583"
     id="rect3646"
     width="2.1166666"
     height="2.1166666"
     x="2.3812499"
     y="4.7624998"
     ry="0.52916664" />
  <path
     id="rect3852"
     style="opacity:1;fill:#ffffff;stroke-width:0.264583"
     d="M 5.8208334,2.1166667 H 11.1125 V 2.6458334 H 5.8208334 Z"
     sodipodi:nodetypes="ccccc" />
  <rect
     style="opacity:1;fill:#f9f9f9;fill-opacity:1;stroke-width:0.264583"
     id="rect4239"
     width="2.1166668"
     height="2.1166668"
     x="2.3812499"
     y="7.9375"
     ry="0.52916664" />
  <rect
     style="opacity:1;fill:#f9f9f9;fill-opacity:1;stroke-width:0.264583"
     id="rect4818"
     width="2.1166668"
     height="2.1166668"
     x="2.3812499"
     y="11.112497"
     ry="0.52916664" />
  <path
     id="rect3646-3"
     style="opacity:0.3;fill:url(#linearGradient5010);fill-opacity:1;stroke-width:0.999999"
     d="M 9 24 L 9 25 C 9 26.108 9.8920001 27 11 27 L 15 27 C 16.107999 27 17 26.108 17 25 L 17 24 C 17 25.108 16.107999 26 15 26 L 11 26 C 9.8920001 26 9 25.108 9 24 z M 9 36 L 9 37 C 9 38.108004 9.8920001 39 11 39 L 15 39 C 16.107999 39 17 38.108004 17 37 L 17 36 C 17 37.108003 16.107999 38 15 38 L 11 38 C 9.8920001 38 9 37.108003 9 36 z M 9 48 L 9 49 C 9 50.108003 9.8920001 51 11 51 L 15 51 C 16.107999 51 17 50.108003 17 49 L 17 48 C 17 49.108003 16.107999 50 15 50 L 11 50 C 9.8920001 50 9 49.108003 9 48 z "
     transform="scale(0.26458333)" />
</svg>
