<?xml version="1.0" encoding="UTF-8" standalone="no"?>
<!-- Created with Inkscape (http://www.inkscape.org/) -->

<svg
   width="64"
   height="64"
   viewBox="0 0 16.933333 16.933333"
   version="1.1"
   id="svg5"
   inkscape:version="1.1.1 (3bf5ae0d25, 2021-09-20, custom)"
   sodipodi:docname="preferences-kde-connect.svg"
   xmlns:inkscape="http://www.inkscape.org/namespaces/inkscape"
   xmlns:sodipodi="http://sodipodi.sourceforge.net/DTD/sodipodi-0.dtd"
   xmlns:xlink="http://www.w3.org/1999/xlink"
   xmlns="http://www.w3.org/2000/svg"
   xmlns:svg="http://www.w3.org/2000/svg">
  <sodipodi:namedview
     id="namedview7"
     pagecolor="#ffffff"
     bordercolor="#666666"
     borderopacity="1.0"
     inkscape:pageshadow="2"
     inkscape:pageopacity="0.0"
     inkscape:pagecheckerboard="0"
     inkscape:document-units="px"
     showgrid="false"
     units="px"
     height="48px"
     inkscape:zoom="2.8464655"
     inkscape:cx="-7.3775705"
     inkscape:cy="-23.362307"
     inkscape:window-width="1920"
     inkscape:window-height="1011"
     inkscape:window-x="0"
     inkscape:window-y="0"
     inkscape:window-maximized="1"
     inkscape:current-layer="svg5"
     inkscape:lockguides="true" />
  <defs
     id="defs2">
    <linearGradient
       inkscape:collect="always"
       id="linearGradient3920">
      <stop
         style="stop-color:#000000;stop-opacity:1;"
         offset="0"
         id="stop3916" />
      <stop
         style="stop-color:#000000;stop-opacity:0;"
         offset="1"
         id="stop3918" />
    </linearGradient>
    <linearGradient
       inkscape:collect="always"
       id="linearGradient971">
      <stop
         style="stop-color:#f2f2f2;stop-opacity:1;"
         offset="0"
         id="stop967" />
      <stop
         style="stop-color:#f9f9f9;stop-opacity:1"
         offset="1"
         id="stop969" />
    </linearGradient>
    <linearGradient
       inkscape:collect="always"
       xlink:href="#linearGradient37218"
       id="linearGradient1781"
       x1="2.8346456e-08"
       y1="2.2677165e-07"
       x2="64"
       y2="64"
       gradientUnits="userSpaceOnUse"
       gradientTransform="scale(0.26458333)" />
    <linearGradient
       inkscape:collect="always"
       id="linearGradient37218">
      <stop
         style="stop-color:#000000;stop-opacity:1"
         offset="0"
         id="stop37214" />
      <stop
         style="stop-color:#ffffff;stop-opacity:0.00392157"
         offset="0.49741825"
         id="stop37220" />
      <stop
         style="stop-color:#000000;stop-opacity:1"
         offset="1"
         id="stop37216" />
    </linearGradient>
    <linearGradient
       inkscape:collect="always"
       xlink:href="#linearGradient971"
       id="linearGradient973"
       x1="10.583333"
       y1="16.933334"
       x2="10.583333"
       y2="6.7529299e-07"
       gradientUnits="userSpaceOnUse" />
    <linearGradient
       inkscape:collect="always"
       id="linearGradient1261">
      <stop
         style="stop-color:#1a86f2;stop-opacity:1"
         offset="0"
         id="stop1257" />
      <stop
         style="stop-color:#2ac9fe;stop-opacity:1"
         offset="1"
         id="stop1259" />
    </linearGradient>
    <linearGradient
       inkscape:collect="always"
       xlink:href="#linearGradient1261"
       id="linearGradient3361"
       x1="11.641666"
       y1="1.5874997"
       x2="11.641666"
       y2="15.874999"
       gradientUnits="userSpaceOnUse" />
    <linearGradient
       inkscape:collect="always"
       xlink:href="#linearGradient2017"
       id="linearGradient1917"
       x1="3.4395833"
       y1="2.036983"
       x2="3.4395831"
       y2="15.26615"
       gradientUnits="userSpaceOnUse"
       gradientTransform="matrix(0.36842103,0,0,0.36842103,5.3473682,5.4448465)" />
    <linearGradient
       inkscape:collect="always"
       id="linearGradient2017">
      <stop
         style="stop-color:#ffffff;stop-opacity:1;"
         offset="0"
         id="stop2013" />
      <stop
         style="stop-color:#9ad5ff;stop-opacity:1"
         offset="1"
         id="stop2015" />
    </linearGradient>
    <linearGradient
       inkscape:collect="always"
       xlink:href="#linearGradient3920"
       id="linearGradient3922"
       x1="19"
       y1="45.454102"
       x2="43"
       y2="25.454102"
       gradientUnits="userSpaceOnUse" />
  </defs>
  <path
     id="rect863"
     style="fill:url(#linearGradient973);stroke-width:0.264583;fill-opacity:1"
     d="M 3.1750003,1.0583333 H 13.758333 c 1.172634,0 2.116667,0.944034 2.116667,2.116667 V 13.758333 c 0,1.172634 -0.944033,2.116667 -2.116667,2.116667 H 3.1750003 c -1.172633,0 -2.116667,-0.944033 -2.116667,-2.116667 V 3.1750003 c 0,-1.172633 0.944034,-2.116667 2.116667,-2.116667 z" />
  <path
     id="rect1345"
     style="opacity:0.3;fill:url(#linearGradient1781);fill-opacity:1;stroke-width:0.264583"
     d="m 3.1750003,1.0583333 c -1.172633,0 -2.116667,0.944034 -2.116667,2.116667 V 13.758333 c 0,1.172634 0.944034,2.116667 2.116667,2.116667 H 13.758334 c 1.172633,0 2.116666,-0.944033 2.116666,-2.116667 V 3.1750003 c 0,-1.172633 -0.944033,-2.116667 -2.116666,-2.116667 z m 0,0.264584 H 13.758334 c 1.026054,0 1.852083,0.826029 1.852083,1.852083 V 13.758333 c 0,1.026054 -0.826029,1.852084 -1.852083,1.852084 H 3.1750003 c -1.026054,0 -1.852083,-0.82603 -1.852083,-1.852084 V 3.1750003 c 0,-1.026054 0.826029,-1.852083 1.852083,-1.852083 z" />
  <path
     id="rect849"
     style="fill:#1a1a1a;stroke-width:2.17203;stroke-linecap:round;stroke-linejoin:round;fill-opacity:1"
     d="m 5.55625,2.1166666 h 5.820833 c 0.293159,0 0.529167,0.2360083 0.529167,0.5291666 V 14.2875 c 0,0.293158 -0.236008,0.529166 -0.529167,0.529166 H 5.55625 c -0.2931583,0 -0.5291666,-0.236008 -0.5291666,-0.529166 V 2.6458332 c 0,-0.2931583 0.2360083,-0.5291666 0.5291666,-0.5291666 z" />
  <path
     id="rect2016"
     style="stroke-width:2.38125;stroke-linecap:round;stroke-linejoin:round;fill:url(#linearGradient3361);fill-opacity:1"
     d="m 5.5562498,2.3812499 h 5.8208332 c 0.146579,0 0.264583,0.1180042 0.264583,0.2645833 V 14.287499 c 0,0.146579 -0.118004,0.264584 -0.264583,0.264584 H 5.5562498 c -0.1465791,0 -0.2645833,-0.118005 -0.2645833,-0.264584 V 2.6458332 c 0,-0.1465791 0.1180042,-0.2645833 0.2645833,-0.2645833 z" />
  <path
     id="rect849-3"
     style="opacity:0.3;fill:#000000;stroke-width:8.20925;stroke-linecap:round;stroke-linejoin:round"
     d="M 19 54 L 19 55 C 19 56.107999 19.892 57 21 57 L 43 57 C 44.108003 57 45 56.107999 45 55 L 45 54 C 45 55.107999 44.108003 56 43 56 L 21 56 C 19.892 56 19 55.107999 19 54 z "
     transform="scale(0.26458333)" />
  <circle
     style="opacity:1;fill:#1a1a1a;fill-opacity:1;stroke-width:2.38125;stroke-linecap:round;stroke-linejoin:round"
     id="path3169"
     cx="8.4666662"
     cy="2.9104168"
     r="0.26458332" />
  <path
     id="path27"
     d="M 8.8093753,6.6145832 8.1235745,6.6781112 V 9.3577867 L 8.8093753,9.2207793 V 8.1235747 L 9.632183,9.3577867 10.317984,9.0837722 9.4266726,7.929545 10.31875,6.751973 9.6004188,6.6145832 8.8093753,7.7806743 Z M 7.3290864,7.2479539 a 0.05976264,0.05976264 0 0 0 -0.04669,0.017604 L 6.9911611,7.5567938 a 0.06858008,0.06858008 0 0 0 0,0.097206 l 0.301186,0.4722534 A 1.2344414,1.2344414 0 0 0 7.2299671,8.276655 L 6.6834692,8.3979714 a 0.06858008,0.06858008 0 0 0 -0.068886,0.068504 v 0.4114038 c 0,0.038013 0.031657,0.060274 0.068886,0.068503 l 0.5464975,0.1216993 c 0.017047,0.050945 0.037336,0.100669 0.06085,0.148871 L 6.9888649,9.6903537 c -0.020378,0.03194 -0.026844,0.06978 0,0.09682 l 0.2912357,0.2912353 a 0.06858008,0.06858008 0 0 0 0.096824,0 L 7.8507082,9.7768417 a 1.2344414,1.2344414 0 0 0 0.1511672,0.06315 l 0.1213164,0.5464973 c 0,0.03801 0.03049,0.0685 0.068503,0.0685 h 0.4117866 c 0.038013,0 0.060274,-0.03128 0.068504,-0.0685 L 8.7933017,9.8396077 a 1.2344414,1.2344414 0 0 0 0.1511671,-0.06161 l 0.4714883,0.3004193 a 0.06858008,0.06858008 0 0 0 0.096823,0 L 9.804016,9.7871827 c 0.026843,-0.02704 0.020377,-0.06489 0,-0.09682 L 9.6754283,9.4882877 9.5793706,9.5265577 9.2724438,9.0657852 A 0.96012112,0.96012112 0 0 1 8.3979712,9.6321837 0.96012112,0.96012112 0 0 1 7.4377736,8.6719857 0.96012112,0.96012112 0 0 1 7.9861847,7.8059325 V 7.510487 A 1.2344414,1.2344414 0 0 0 7.8510911,7.5659789 L 7.379603,7.2655582 a 0.10541738,0.10541738 0 0 0 -0.050517,-0.017604 z"
     style="fill:url(#linearGradient1917);fill-opacity:1;stroke-width:0.195943" />
  <path
     id="path27-5"
     style="opacity:0.3;fill:url(#linearGradient3922);fill-opacity:1;stroke-width:0.740572"
     d="M 38.337891 26.392578 L 35.628906 29.970703 L 36.011719 30.464844 L 39 26.519531 L 38.337891 26.392578 z M 26.669922 29.314453 L 26.423828 29.560547 A 0.25920031 0.25920031 0 0 0 26.423828 29.927734 L 27.292969 31.289062 L 27.326172 31.28125 A 4.6656054 4.6656054 0 0 1 27.5625 30.712891 L 26.669922 29.314453 z M 30.183594 29.501953 A 3.6288043 3.6288043 0 0 0 28.111328 32.775391 A 3.6288043 3.6288043 0 0 0 28.150391 33.277344 A 3.6288043 3.6288043 0 0 1 30.183594 30.501953 L 30.183594 29.501953 z M 33.294922 30.703125 L 33.294922 31.703125 L 35.025391 34.300781 A 3.6288043 3.6288043 0 0 0 35.044922 34.263672 L 36.205078 36.005859 L 36.568359 35.861328 L 36.791016 36.212891 L 38.998047 35.332031 L 38.408203 34.568359 L 36.404297 35.367188 L 33.294922 30.703125 z M 25 33.554688 L 25 34.554688 C 25 34.698359 25.119054 34.781398 25.259766 34.8125 L 27.283203 35.263672 L 27.556641 34.835938 C 27.467784 34.653757 27.390613 34.466004 27.326172 34.273438 L 25.259766 33.8125 C 25.119054 33.781394 25 33.698347 25 33.554688 z M 33.294922 34.849609 L 30.703125 35.367188 L 30.703125 36.25 A 3.6288043 3.6288043 0 0 0 30.953125 36.316406 L 33.294922 35.849609 L 33.294922 34.849609 z M 29.671875 36.951172 L 27.880859 38.091797 A 0.25920031 0.25920031 0 0 1 27.515625 38.091797 L 26.662109 37.238281 L 26.414062 37.625 C 26.337036 37.745718 26.31262 37.888036 26.414062 37.990234 L 27.515625 39.091797 A 0.25920031 0.25920031 0 0 0 27.880859 39.091797 L 29.671875 37.951172 A 4.6656054 4.6656054 0 0 0 30.244141 38.191406 L 30.701172 40.255859 C 30.701172 40.399519 30.817278 40.515625 30.960938 40.515625 L 32.517578 40.515625 C 32.661238 40.515625 32.744285 40.396533 32.775391 40.255859 L 33.234375 38.189453 A 4.6656054 4.6656054 0 0 0 33.806641 37.957031 L 35.587891 39.091797 A 0.25920031 0.25920031 0 0 0 35.953125 39.091797 L 37.054688 37.990234 C 37.15613 37.888036 37.131714 37.74568 37.054688 37.625 L 36.808594 37.236328 L 35.953125 38.091797 A 0.25920031 0.25920031 0 0 1 35.587891 38.091797 L 33.806641 36.957031 A 4.6656054 4.6656054 0 0 1 33.234375 37.189453 L 32.775391 39.255859 C 32.744285 39.396533 32.661238 39.515625 32.517578 39.515625 L 30.960938 39.515625 C 30.817278 39.515625 30.701172 39.399519 30.701172 39.255859 L 30.244141 37.191406 A 4.6656054 4.6656054 0 0 1 29.671875 36.951172 z "
     transform="scale(0.26458333)" />
</svg>
