<?xml version="1.0" encoding="UTF-8" standalone="no"?>
<svg
   width="128"
   height="128"
   viewBox="0 0 33.866666 33.866668"
   version="1.1"
   id="svg1503"
   inkscape:version="1.1.2 (0a00cf5339, 2022-02-04, custom)"
   sodipodi:docname="preferences-system-splash.svg"
   xmlns:inkscape="http://www.inkscape.org/namespaces/inkscape"
   xmlns:sodipodi="http://sodipodi.sourceforge.net/DTD/sodipodi-0.dtd"
   xmlns:xlink="http://www.w3.org/1999/xlink"
   xmlns="http://www.w3.org/2000/svg"
   xmlns:svg="http://www.w3.org/2000/svg"
   xmlns:rdf="http://www.w3.org/1999/02/22-rdf-syntax-ns#"
   xmlns:cc="http://creativecommons.org/ns#"
   xmlns:dc="http://purl.org/dc/elements/1.1/">
  <defs
     id="defs1497">
    <radialGradient
       inkscape:collect="always"
       xlink:href="#linearGradient1430"
       id="radialGradient1432"
       cx="17.088472"
       cy="23.924042"
       fx="17.088472"
       fy="23.924042"
       r="14.660657"
       gradientTransform="matrix(1,0,0,0.99998241,-8.4542441,-0.42443524)"
       gradientUnits="userSpaceOnUse" />
    <linearGradient
       inkscape:collect="always"
       id="linearGradient1430">
      <stop
         style="stop-color:#f6f6f6;stop-opacity:1"
         offset="0"
         id="stop1426" />
      <stop
         style="stop-color:#dbdbde;stop-opacity:1"
         offset="1"
         id="stop1428" />
    </linearGradient>
    <linearGradient
       inkscape:collect="always"
       xlink:href="#linearGradient1554"
       id="linearGradient1556"
       x1="19.006489"
       y1="-13.190138"
       x2="91.212891"
       y2="50.897461"
       gradientUnits="userSpaceOnUse"
       gradientTransform="matrix(0.26458333,0,0,0.26458333,-8.4542441,-0.42473539)" />
    <linearGradient
       inkscape:collect="always"
       id="linearGradient1554">
      <stop
         style="stop-color:#efc66d;stop-opacity:1;"
         offset="0"
         id="stop1550" />
      <stop
         style="stop-color:#efc66d;stop-opacity:0;"
         offset="1"
         id="stop1552" />
    </linearGradient>
    <radialGradient
       inkscape:collect="always"
       xlink:href="#linearGradient1474"
       id="radialGradient1476"
       cx="16.039591"
       cy="2.089998"
       fx="16.039591"
       fy="2.089998"
       r="14.543815"
       gradientTransform="matrix(1.9228608,-0.71986768,0.51790492,1.3833918,-25.637807,14.409033)"
       gradientUnits="userSpaceOnUse" />
    <linearGradient
       inkscape:collect="always"
       id="linearGradient1474">
      <stop
         style="stop-color:#c8cfdc;stop-opacity:1"
         offset="0"
         id="stop1470" />
      <stop
         style="stop-color:#b6bfd0;stop-opacity:1;"
         offset="0.21630132"
         id="stop1505" />
      <stop
         style="stop-color:#7d889c;stop-opacity:1"
         offset="1"
         id="stop1472" />
    </linearGradient>
    <radialGradient
       inkscape:collect="always"
       xlink:href="#linearGradient1474"
       id="radialGradient1476-3"
       cx="16.039591"
       cy="2.089998"
       fx="16.039591"
       fy="2.089998"
       r="14.543815"
       gradientTransform="matrix(1.9228608,-0.71986768,0.51790492,1.3833918,-25.637807,14.409033)"
       gradientUnits="userSpaceOnUse" />
    <radialGradient
       inkscape:collect="always"
       xlink:href="#linearGradient1513"
       id="radialGradient1529"
       gradientUnits="userSpaceOnUse"
       gradientTransform="matrix(0.58430752,0.70559543,-1.0852454,0.89869774,-9.2044891,34.359422)"
       cx="-17.138258"
       cy="-25.424328"
       fx="-17.138258"
       fy="-25.424328"
       r="20.906937" />
    <linearGradient
       inkscape:collect="always"
       id="linearGradient1513">
      <stop
         style="stop-color:#ebb645;stop-opacity:1;"
         offset="0"
         id="stop1509" />
      <stop
         style="stop-color:#dd6843;stop-opacity:1;"
         offset="0.5471006"
         id="stop1533" />
      <stop
         style="stop-color:#d94c43;stop-opacity:1;"
         offset="0.74844581"
         id="stop1531" />
      <stop
         style="stop-color:#d73b43;stop-opacity:1"
         offset="1"
         id="stop1511" />
    </linearGradient>
    <linearGradient
       inkscape:collect="always"
       xlink:href="#linearGradient1525"
       id="linearGradient1527"
       x1="21.691174"
       y1="22.17811"
       x2="15.878203"
       y2="25.861942"
       gradientUnits="userSpaceOnUse"
       gradientTransform="translate(-8.454244,-0.4247354)" />
    <linearGradient
       inkscape:collect="always"
       id="linearGradient1525">
      <stop
         style="stop-color:#0e3d65;stop-opacity:1;"
         offset="0"
         id="stop1521" />
      <stop
         style="stop-color:#8f59ad;stop-opacity:1"
         offset="1"
         id="stop1523" />
    </linearGradient>
    <radialGradient
       inkscape:collect="always"
       xlink:href="#linearGradient11547"
       id="radialGradient11549"
       cx="17.060562"
       cy="28.739515"
       fx="17.060562"
       fy="28.739515"
       r="1.5804152"
       gradientTransform="matrix(0.94798025,0,0,1.1131213,0.86392346,-3.3863032)"
       gradientUnits="userSpaceOnUse" />
    <linearGradient
       inkscape:collect="always"
       id="linearGradient11547">
      <stop
         style="stop-color:#3c3c3c;stop-opacity:1"
         offset="0"
         id="stop11543" />
      <stop
         style="stop-color:#141414;stop-opacity:0.99607843"
         offset="1"
         id="stop11545" />
    </linearGradient>
  </defs>
  <sodipodi:namedview
     id="base"
     pagecolor="#ffffff"
     bordercolor="#666666"
     borderopacity="1.0"
     inkscape:pageopacity="0.0"
     inkscape:pageshadow="2"
     inkscape:zoom="2.8"
     inkscape:cx="43.571429"
     inkscape:cy="92.142857"
     inkscape:document-units="mm"
     inkscape:current-layer="g2265"
     inkscape:document-rotation="0"
     showgrid="false"
     units="px"
     inkscape:window-width="1366"
     inkscape:window-height="703"
     inkscape:window-x="0"
     inkscape:window-y="37"
     inkscape:window-maximized="1"
     inkscape:pagecheckerboard="0" />
  <metadata
     id="metadata1500">
    <rdf:RDF>
      <cc:Work
         rdf:about="">
        <dc:format>image/svg+xml</dc:format>
        <dc:type
           rdf:resource="http://purl.org/dc/dcmitype/StillImage" />
      </cc:Work>
    </rdf:RDF>
  </metadata>
  <g
     inkscape:label="Capa 1"
     inkscape:groupmode="layer"
     id="layer1">
    <g
       style="opacity:0.295"
       transform="matrix(0.97573206,0,0,0.97573206,-65.48778,-37.452201)"
       id="g1702">
      <rect
         ry="6.6098609"
         rx="6.6098609"
         y="40.709618"
         x="69.839508"
         height="29.810888"
         width="29.810888"
         id="rect1634"
         style="fill:none;fill-opacity:1;stroke:#000000;stroke-width:0.1;stroke-linecap:round;stroke-linejoin:round;stroke-miterlimit:4;stroke-dasharray:none;stroke-opacity:0.02" />
      <rect
         style="fill:none;fill-opacity:1;stroke:#000000;stroke-width:0.2;stroke-linecap:round;stroke-linejoin:round;stroke-miterlimit:4;stroke-dasharray:none;stroke-opacity:0.02"
         id="rect1638"
         width="29.810888"
         height="29.810888"
         x="69.839508"
         y="40.709618"
         rx="6.6098609"
         ry="6.6098609" />
      <rect
         ry="6.6098609"
         rx="6.6098609"
         y="40.709618"
         x="69.839508"
         height="29.810888"
         width="29.810888"
         id="rect1640"
         style="fill:none;fill-opacity:1;stroke:#000000;stroke-width:0.3;stroke-linecap:round;stroke-linejoin:round;stroke-miterlimit:4;stroke-dasharray:none;stroke-opacity:0.02" />
      <rect
         style="fill:none;fill-opacity:1;stroke:#000000;stroke-width:0.4;stroke-linecap:round;stroke-linejoin:round;stroke-miterlimit:4;stroke-dasharray:none;stroke-opacity:0.02"
         id="rect1642"
         width="29.810888"
         height="29.810888"
         x="69.839508"
         y="40.709618"
         rx="6.6098609"
         ry="6.6098609" />
      <rect
         ry="6.6098609"
         rx="6.6098609"
         y="40.709618"
         x="69.839508"
         height="29.810888"
         width="29.810888"
         id="rect1644"
         style="fill:none;fill-opacity:1;stroke:#000000;stroke-width:0.5;stroke-linecap:round;stroke-linejoin:round;stroke-miterlimit:4;stroke-dasharray:none;stroke-opacity:0.02" />
      <rect
         style="fill:none;fill-opacity:1;stroke:#000000;stroke-width:0.6;stroke-linecap:round;stroke-linejoin:round;stroke-miterlimit:4;stroke-dasharray:none;stroke-opacity:0.02"
         id="rect1646"
         width="29.810888"
         height="29.810888"
         x="69.839508"
         y="40.709618"
         rx="6.6098609"
         ry="6.6098609" />
      <rect
         ry="6.6098609"
         rx="6.6098609"
         y="40.709618"
         x="69.839508"
         height="29.810888"
         width="29.810888"
         id="rect1648"
         style="fill:none;fill-opacity:1;stroke:#000000;stroke-width:0.7;stroke-linecap:round;stroke-linejoin:round;stroke-miterlimit:4;stroke-dasharray:none;stroke-opacity:0.02" />
      <rect
         style="fill:none;fill-opacity:1;stroke:#000000;stroke-width:0.8;stroke-linecap:round;stroke-linejoin:round;stroke-miterlimit:4;stroke-dasharray:none;stroke-opacity:0.02"
         id="rect1650"
         width="29.810888"
         height="29.810888"
         x="69.839508"
         y="40.709618"
         rx="6.6098609"
         ry="6.6098609" />
      <rect
         ry="6.6098609"
         rx="6.6098609"
         y="40.709618"
         x="69.839508"
         height="29.810888"
         width="29.810888"
         id="rect1652"
         style="fill:none;fill-opacity:1;stroke:#000000;stroke-width:1;stroke-linecap:round;stroke-linejoin:round;stroke-miterlimit:4;stroke-dasharray:none;stroke-opacity:0.02" />
      <rect
         style="fill:none;fill-opacity:1;stroke:#000000;stroke-width:1.2;stroke-linecap:round;stroke-linejoin:round;stroke-miterlimit:4;stroke-dasharray:none;stroke-opacity:0.02"
         id="rect1654"
         width="29.810888"
         height="29.810888"
         x="69.839508"
         y="40.709618"
         rx="6.6098609"
         ry="6.6098609" />
      <rect
         ry="6.6098609"
         rx="6.6098609"
         y="40.709618"
         x="69.839508"
         height="29.810888"
         width="29.810888"
         id="rect1656"
         style="fill:none;fill-opacity:1;stroke:#000000;stroke-width:1.4;stroke-linecap:round;stroke-linejoin:round;stroke-miterlimit:4;stroke-dasharray:none;stroke-opacity:0.02" />
      <rect
         style="fill:none;fill-opacity:1;stroke:#000000;stroke-width:1.6;stroke-linecap:round;stroke-linejoin:round;stroke-miterlimit:4;stroke-dasharray:none;stroke-opacity:0.02"
         id="rect1658"
         width="29.810888"
         height="29.810888"
         x="69.839508"
         y="40.709618"
         rx="6.6098609"
         ry="6.6098609" />
      <rect
         ry="6.6098609"
         rx="6.6098609"
         y="40.709618"
         x="69.839508"
         height="29.810888"
         width="29.810888"
         id="rect1660"
         style="fill:none;fill-opacity:1;stroke:#000000;stroke-width:1.8;stroke-linecap:round;stroke-linejoin:round;stroke-miterlimit:4;stroke-dasharray:none;stroke-opacity:0.02" />
      <rect
         style="fill:none;fill-opacity:1;stroke:#000000;stroke-width:2;stroke-linecap:round;stroke-linejoin:round;stroke-miterlimit:4;stroke-dasharray:none;stroke-opacity:0.02"
         id="rect1662"
         width="29.810888"
         height="29.810888"
         x="69.839508"
         y="40.709618"
         rx="6.6098609"
         ry="6.6098609" />
      <rect
         ry="6.6098609"
         rx="6.6098609"
         y="40.709618"
         x="69.839508"
         height="29.810888"
         width="29.810888"
         id="rect1664"
         style="fill:none;fill-opacity:1;stroke:#000000;stroke-width:2.2;stroke-linecap:round;stroke-linejoin:round;stroke-miterlimit:4;stroke-dasharray:none;stroke-opacity:0.02" />
      <rect
         style="fill:none;fill-opacity:1;stroke:#000000;stroke-width:2.6;stroke-linecap:round;stroke-linejoin:round;stroke-miterlimit:4;stroke-dasharray:none;stroke-opacity:0.02"
         id="rect1666"
         width="29.810888"
         height="29.810888"
         x="69.839508"
         y="40.709618"
         rx="6.6098609"
         ry="6.6098609" />
      <rect
         ry="6.6098609"
         rx="6.6098609"
         y="40.709618"
         x="69.839508"
         height="29.810888"
         width="29.810888"
         id="rect1668"
         style="fill:none;fill-opacity:1;stroke:#000000;stroke-width:3;stroke-linecap:round;stroke-linejoin:round;stroke-miterlimit:4;stroke-dasharray:none;stroke-opacity:0.02" />
      <rect
         style="fill:none;fill-opacity:1;stroke:#000000;stroke-width:3.4;stroke-linecap:round;stroke-linejoin:round;stroke-miterlimit:4;stroke-dasharray:none;stroke-opacity:0.02"
         id="rect1670"
         width="29.810888"
         height="29.810888"
         x="69.839508"
         y="40.709618"
         rx="6.6098609"
         ry="6.6098609" />
      <rect
         ry="6.6098609"
         rx="6.6098609"
         y="40.709618"
         x="69.839508"
         height="29.810888"
         width="29.810888"
         id="rect1672"
         style="fill:none;fill-opacity:1;stroke:#000000;stroke-width:3.8;stroke-linecap:round;stroke-linejoin:round;stroke-miterlimit:4;stroke-dasharray:none;stroke-opacity:0.02" />
      <rect
         style="fill:none;fill-opacity:1;stroke:#000000;stroke-width:4.2;stroke-linecap:round;stroke-linejoin:round;stroke-miterlimit:4;stroke-dasharray:none;stroke-opacity:0.02"
         id="rect1674"
         width="29.810888"
         height="29.810888"
         x="69.839508"
         y="40.709618"
         rx="6.6098609"
         ry="6.6098609" />
      <rect
         ry="6.6098609"
         rx="6.6098609"
         y="40.709618"
         x="69.839508"
         height="29.810888"
         width="29.810888"
         id="rect1676"
         style="fill:none;fill-opacity:1;stroke:#000000;stroke-width:4.6;stroke-linecap:round;stroke-linejoin:round;stroke-miterlimit:4;stroke-dasharray:none;stroke-opacity:0.02" />
      <rect
         style="fill:none;fill-opacity:1;stroke:#000000;stroke-width:5;stroke-linecap:round;stroke-linejoin:round;stroke-miterlimit:4;stroke-dasharray:none;stroke-opacity:0.02"
         id="rect1678"
         width="29.810888"
         height="29.810888"
         x="69.839508"
         y="40.709618"
         rx="6.6098609"
         ry="6.6098609" />
    </g>
    <g
       id="g2265"
       transform="translate(8.5512326,0.34394242)">
      <path
         id="rect901"
         style="fill:url(#radialGradient1432);fill-opacity:1;stroke:#808080;stroke-width:0.233683;stroke-miterlimit:4;stroke-dasharray:none;stroke-opacity:1"
         d="m 0.3917279,2.0939706 c -3.5729972,0 -6.4497358,2.8762217 -6.4497358,6.4492189 V 24.731866 c 0,3.572998 2.8767386,6.44922 6.4497358,6.44922 H 16.579888 c 3.572997,0 6.449735,-2.876222 6.449735,-6.44922 V 8.5431895 c 0,-3.5729972 -2.876738,-6.4492189 -6.449735,-6.4492189 z" />
      <path
         id="rect897"
         style="fill:#000000;fill-opacity:1;stroke:none;stroke-width:0.10242"
         d="m 0.3917279,2.0939706 c -3.5729972,0 -6.4497358,2.8762217 -6.4497358,6.4492189 V 24.731866 c 0,0.422472 0.041513,0.834642 0.1183391,1.234034 H 22.911285 c 0.07682,-0.399386 0.118338,-0.811569 0.118338,-1.234034 V 8.5431895 c 0,-3.5729972 -2.876738,-6.4492189 -6.449735,-6.4492189 z" />
      <path
         id="path1424-3"
         style="fill:url(#radialGradient1476-3);fill-opacity:1;stroke:none;stroke-width:0.10242"
         d="m 0.3917283,2.0939712 c -3.5729972,0 -6.4497358,2.8762217 -6.4497358,6.4492188 V 23.989926 H 23.029623 V 8.54319 c 0,-3.5729971 -2.876738,-6.4492188 -6.449735,-6.4492188 z"
         sodipodi:nodetypes="ssccsss" />
      <path
         id="path1424"
         style="fill:url(#radialGradient1476);fill-opacity:1;stroke:none;stroke-width:0.10242"
         d="m 0.3917279,2.0939706 c -3.5729972,0 -6.4497358,2.8762217 -6.4497358,6.4492189 V 23.989926 H 23.029623 V 8.5431895 c 0,-3.5729972 -2.876738,-6.4492189 -6.449735,-6.4492189 z"
         sodipodi:nodetypes="ssccsss" />
      <path
         id="circle1517"
         style="fill:url(#linearGradient1527);fill-opacity:1;stroke:none;stroke-width:2;stroke-linecap:round;stroke-linejoin:round;stroke-opacity:0.31345;paint-order:stroke markers fill"
         d="M 19.670138,14.111328 A 20.906937,20.906937 0 0 0 1.9192828,23.989795 H 23.029622 v -9.608199 a 20.906937,20.906937 0 0 0 -3.349149,-0.270268 20.906937,20.906937 0 0 0 -0.01035,0 z" />
      <path
         id="path1507"
         style="fill:url(#radialGradient1529);fill-opacity:1;stroke:none;stroke-width:2;stroke-linecap:round;stroke-linejoin:round;stroke-opacity:0.31345;paint-order:stroke markers fill"
         d="M 6.376375,2.0939745 A 20.906937,20.906937 0 0 0 5.886483,6.591891 20.906937,20.906937 0 0 0 15.200126,23.989795 h 7.829496 V 8.543193 c 0,-3.572997 -2.876738,-6.4492185 -6.449735,-6.4492185 z" />
      <path
         id="path1545"
         style="fill:url(#linearGradient1556);fill-opacity:1;stroke:none;stroke-width:2;stroke-linecap:round;stroke-linejoin:round;stroke-opacity:0.31345;paint-order:stroke markers fill"
         d="M 6.3763749,2.0939739 A 20.906937,20.906937 0 0 0 5.8864825,6.5918904 20.906937,20.906937 0 0 0 15.200126,23.989795 h 0.47904 A 20.906937,20.906937 0 0 1 6.365523,6.5918904 20.906937,20.906937 0 0 1 6.8554155,2.0939739 Z" />
      <circle
         style="opacity:0.6;fill:#ffffff;stroke-width:0.676534"
         cx="-8.4858074"
         cy="8.9600573"
         r="1.0148007"
         transform="scale(-1,1)"
         id="circle6" />
      <circle
         style="fill:#ffffff;stroke-width:0.676534"
         cx="-8.4858074"
         cy="18.43153"
         r="1.0148007"
         transform="scale(-1,1)"
         id="circle8" />
      <circle
         style="opacity:0.4;fill:#ffffff;stroke-width:0.676534"
         cx="-13.695793"
         cy="-13.221544"
         r="1.0148007"
         transform="matrix(0,-1,-1,0,0,0)"
         id="circle10" />
      <circle
         style="opacity:0.8;fill:#ffffff;stroke-width:0.676534"
         cx="-13.695793"
         cy="-3.7500708"
         r="1.0148007"
         transform="matrix(0,-1,-1,0,0,0)"
         id="circle12" />
      <circle
         style="opacity:0.7;fill:#ffffff;stroke-width:0.676534"
         cx="-3.6840165"
         cy="-10.948814"
         r="1.0148007"
         transform="matrix(0.70710678,-0.70710678,-0.70710678,-0.70710678,0,0)"
         id="circle16" />
      <circle
         style="opacity:0.9;fill:#ffffff;stroke-width:0.676534"
         cx="-15.68455"
         cy="-8.4197531"
         r="1.0148007"
         transform="rotate(-135)"
         id="circle18" />
      <circle
         style="opacity:0.5;fill:#ffffff;stroke-width:0.676534"
         cx="-15.68455"
         cy="1.0517201"
         r="1.0148007"
         transform="rotate(-135)"
         id="circle20" />
      <circle
         style="opacity:0.3;fill:#ffffff;stroke-width:0.676534"
         cx="-3.6380208"
         cy="-20.64695"
         r="1.0148007"
         transform="matrix(0.70710678,-0.70710678,-0.70710678,-0.70710678,0,0)"
         id="circle14" />
    </g>
    <path
       d="m 15.882768,30.174161 c 0.185548,0.02225 0.394043,0.142357 0.568516,0.163587 0.175407,0.02225 0.229701,-0.11947 0.229701,-0.11947 0,0 0.197387,-0.04406 0.404919,-0.04917 0.207719,-0.0062 0.404363,0.0432 0.404363,0.0432 0,0 0.03814,0.0874 0.109292,0.125461 0.07119,0.03889 0.22445,0.04406 0.322658,-0.05943 0.09843,-0.104257 0.360981,-0.235525 0.508418,-0.317602 0.148367,-0.08232 0.121144,-0.207718 0.028,-0.245828 -0.09315,-0.03814 -0.16939,-0.09817 -0.163587,-0.213544 0.005,-0.114372 -0.08225,-0.190627 -0.08225,-0.190627 0,0 0.07643,-0.251682 0.0053,-0.460148 -0.07118,-0.207526 -0.305925,-0.54128 -0.486414,-0.792195 -0.180489,-0.25168 -0.02721,-0.542211 -0.191562,-0.913517 -0.164333,-0.371878 -0.590489,-0.349892 -0.820184,-0.191399 -0.229701,0.158508 -0.15927,0.551608 -0.148199,0.73811 0.011,0.185572 0.005,0.318332 -0.01625,0.366047 -0.02117,0.04852 -0.16942,0.224451 -0.267811,0.371876 -0.09823,0.148181 -0.169417,0.454128 -0.241348,0.580351 -0.07045,0.125462 -0.02116,0.239839 -0.02116,0.239839 0,0 -0.04921,0.01703 -0.08809,0.09915 -0.03814,0.08132 -0.114372,0.120214 -0.251678,0.146659 -0.136366,0.02797 -0.136366,0.115858 -0.103473,0.214286 0.03305,0.09817 0,0.153259 -0.03815,0.278727 -0.0381,0.125427 0.152685,0.16357 0.338999,0.185546 z m 1.928846,-0.572282 c 0.09748,0.04259 0.237585,-0.01676 0.280217,-0.05943 0.04246,-0.04248 0.07251,-0.105592 0.07251,-0.105592 0,0 0.04265,0.02117 0.0383,0.08864 -0.0043,0.06833 0.02929,0.165839 0.09315,0.19964 0.06386,0.03369 0.161336,0.08059 0.110825,0.127512 -0.05146,0.04692 -0.336187,0.161505 -0.421259,0.250913 -0.08432,0.08888 -0.195138,0.161504 -0.262562,0.140104 -0.06818,-0.02116 -0.127714,-0.114395 -0.09839,-0.250717 0.03023,-0.135789 0.05578,-0.284723 0.05146,-0.369795 -0.0043,-0.08507 -0.02116,-0.19967 0,-0.216538 0.02116,-0.01676 0.05504,-0.0088 0.05504,-0.0088 0,0 -0.01703,0.161369 0.08075,0.203788 z m -0.632552,-2.298445 c 0.09391,0 0.169583,0.09309 0.169583,0.20772 0,0.08133 -0.03814,0.151753 -0.09391,0.185572 -0.01405,-0.0062 -0.02874,-0.01236 -0.04489,-0.01923 0.03382,-0.01675 0.05729,-0.05943 0.05729,-0.108566 0,-0.06437 -0.03961,-0.117353 -0.0894,-0.117353 -0.04843,0 -0.08882,0.05297 -0.08882,0.117353 0,0.02364 0.0057,0.04692 0.0154,0.06537 -0.02928,-0.01236 -0.05578,-0.02197 -0.07699,-0.03007 -0.011,-0.02797 -0.01758,-0.05954 -0.01758,-0.09309 1.1e-5,-0.114524 0.07551,-0.20772 0.169417,-0.20772 z m -0.232529,0.35796 c 0.04622,0.0088 0.173154,0.06315 0.22011,0.07999 0.04697,0.01625 0.09898,0.04618 0.09391,0.07628 -0.0057,0.03094 -0.03003,0.03094 -0.09391,0.06982 -0.06312,0.03814 -0.20096,0.123177 -0.245085,0.129035 -0.04397,0.0062 -0.06894,-0.01896 -0.115893,-0.04926 -0.04697,-0.03082 -0.13501,-0.102759 -0.112862,-0.140869 0,0 0.06894,-0.05273 0.09901,-0.07984 0.03006,-0.02797 0.107816,-0.09398 0.154766,-0.08529 z m -0.202471,-0.324905 c 0.074,0 0.134282,0.08803 0.134282,0.196645 0,0.01978 -0.0021,0.03814 -0.0057,0.05658 -0.0184,0.0062 -0.03678,0.01541 -0.05448,0.03082 -0.0084,0.0075 -0.01676,0.01372 -0.02392,0.02116 0.01147,-0.02197 0.01625,-0.05349 0.011,-0.08652 -0.01018,-0.05856 -0.04976,-0.102021 -0.08864,-0.09619 -0.03908,0.0062 -0.06237,0.06029 -0.05297,0.119571 0.01054,0.06016 0.04921,0.103508 0.08883,0.09693 0.0021,-6.28e-4 0.0043,-0.0013 0.0067,-0.0026 -0.01896,0.0184 -0.03663,0.03453 -0.05504,0.04768 -0.05353,-0.02502 -0.09315,-0.0998 -0.09315,-0.187825 1.1e-5,-0.109291 0.05935,-0.196619 0.133538,-0.196619 z m -0.412247,1.420992 c 0.07624,-0.120215 0.125461,-0.382946 0.201702,-0.470286 0.07702,-0.08714 0.136365,-0.272893 0.109291,-0.354951 0,0 0.164333,0.196616 0.278716,0.164331 0.114571,-0.03305 0.372061,-0.224424 0.410182,-0.191561 0.03814,0.03305 0.366052,0.754252 0.399103,0.983945 0.03307,0.229507 -0.02197,0.404932 -0.02197,0.404932 0,0 -0.125463,-0.03305 -0.141613,0.04322 -0.01625,0.07699 -0.01625,0.355918 -0.01625,0.355918 0,0 -0.169582,0.234756 -0.432162,0.273634 -0.26256,0.03814 -0.394042,0.0098 -0.394042,0.0098 l -0.147437,-0.1688 c 0,0 0.114571,-0.01703 0.09843,-0.132015 -0.01625,-0.114395 -0.350094,-0.272892 -0.410194,-0.415256 -0.06009,-0.142376 -0.011,-0.38296 0.06614,-0.503342 z m -0.649269,0.861313 c 0.0132,-0.05632 0.183292,-0.05632 0.248657,-0.09595 0.06537,-0.03962 0.0785,-0.153447 0.131287,-0.183486 0.05201,-0.03082 0.148181,0.0785 0.187825,0.140106 0.03887,0.06016 0.187826,0.322851 0.248685,0.388203 0.06161,0.06586 0.11815,0.153261 0.100477,0.231761 -0.01676,0.0785 -0.109292,0.13579 -0.109292,0.13579 -0.08282,0.02554 -0.313835,-0.07415 -0.418814,-0.118099 -0.104995,-0.04406 -0.372061,-0.05731 -0.40643,-0.09618 -0.03531,-0.03962 0.01675,-0.12697 0.03079,-0.209808 0.01236,-0.08381 -0.02637,-0.13579 -0.0132,-0.192304 z"
       id="path2-3"
       style="fill:url(#radialGradient11549);fill-opacity:1;stroke-width:0.0111693" />
  </g>
</svg>
