<?xml version="1.0" encoding="UTF-8" standalone="no"?>
<!-- Created with Inkscape (http://www.inkscape.org/) -->

<svg
   width="64"
   height="64"
   viewBox="0 0 16.933333 16.933333"
   version="1.1"
   id="svg5"
   inkscape:version="1.1.1 (3bf5ae0d25, 2021-09-20, custom)"
   sodipodi:docname="preferences-desktop-password.svg"
   xmlns:inkscape="http://www.inkscape.org/namespaces/inkscape"
   xmlns:sodipodi="http://sodipodi.sourceforge.net/DTD/sodipodi-0.dtd"
   xmlns:xlink="http://www.w3.org/1999/xlink"
   xmlns="http://www.w3.org/2000/svg"
   xmlns:svg="http://www.w3.org/2000/svg">
  <sodipodi:namedview
     id="namedview7"
     pagecolor="#ffffff"
     bordercolor="#666666"
     borderopacity="1.0"
     inkscape:pageshadow="2"
     inkscape:pageopacity="0.0"
     inkscape:pagecheckerboard="0"
     inkscape:document-units="px"
     showgrid="false"
     units="px"
     height="48px"
     inkscape:zoom="8.7173009"
     inkscape:cx="16.060017"
     inkscape:cy="37.454254"
     inkscape:window-width="1920"
     inkscape:window-height="1011"
     inkscape:window-x="0"
     inkscape:window-y="0"
     inkscape:window-maximized="1"
     inkscape:current-layer="svg5"
     inkscape:lockguides="true" />
  <defs
     id="defs2">
    <linearGradient
       inkscape:collect="always"
       id="linearGradient11433">
      <stop
         style="stop-color:#000000;stop-opacity:1;"
         offset="0"
         id="stop11429" />
      <stop
         style="stop-color:#000000;stop-opacity:0;"
         offset="1"
         id="stop11431" />
    </linearGradient>
    <linearGradient
       inkscape:collect="always"
       id="linearGradient10691">
      <stop
         style="stop-color:#bc8d40;stop-opacity:1;"
         offset="0"
         id="stop10687" />
      <stop
         style="stop-color:#e09c2f;stop-opacity:1"
         offset="1"
         id="stop10689" />
    </linearGradient>
    <linearGradient
       inkscape:collect="always"
       id="linearGradient7981">
      <stop
         style="stop-color:#f1ca78;stop-opacity:1"
         offset="0"
         id="stop7977" />
      <stop
         style="stop-color:#da9a4c;stop-opacity:1"
         offset="1"
         id="stop7979" />
    </linearGradient>
    <linearGradient
       inkscape:collect="always"
       id="linearGradient2955">
      <stop
         style="stop-color:#e6e6e6;stop-opacity:1;"
         offset="0"
         id="stop2951" />
      <stop
         style="stop-color:#b3b3b3;stop-opacity:1"
         offset="1"
         id="stop2953" />
    </linearGradient>
    <linearGradient
       inkscape:collect="always"
       xlink:href="#linearGradient37218"
       id="linearGradient1781"
       x1="2.8346456e-08"
       y1="2.2677165e-07"
       x2="64"
       y2="64"
       gradientUnits="userSpaceOnUse"
       gradientTransform="scale(0.26458333)" />
    <linearGradient
       inkscape:collect="always"
       id="linearGradient37218">
      <stop
         style="stop-color:#ffffff;stop-opacity:1"
         offset="0"
         id="stop37214" />
      <stop
         style="stop-color:#717171;stop-opacity:0.00392157"
         offset="0.49741825"
         id="stop37220" />
      <stop
         style="stop-color:#000000;stop-opacity:1"
         offset="1"
         id="stop37216" />
    </linearGradient>
    <linearGradient
       inkscape:collect="always"
       xlink:href="#linearGradient2955"
       id="linearGradient2957"
       x1="10.583333"
       y1="6.7529299e-07"
       x2="10.583333"
       y2="16.933334"
       gradientUnits="userSpaceOnUse" />
    <linearGradient
       inkscape:collect="always"
       xlink:href="#linearGradient7981"
       id="linearGradient7983"
       x1="32"
       y1="4.5441561"
       x2="31.999998"
       y2="61.656857"
       gradientUnits="userSpaceOnUse"
       gradientTransform="matrix(0.18708867,0.18708867,-0.18708867,0.18708867,8.6537554,-3.4295134)" />
    <linearGradient
       inkscape:collect="always"
       xlink:href="#linearGradient10691"
       id="linearGradient10693"
       x1="9.982892"
       y1="10.683361"
       x2="7.1891456"
       y2="10.583333"
       gradientUnits="userSpaceOnUse"
       gradientTransform="rotate(45,8.4666666,8.7312501)" />
    <linearGradient
       inkscape:collect="always"
       xlink:href="#linearGradient11433"
       id="linearGradient11435"
       x1="3.7363281"
       y1="52.474758"
       x2="57.189949"
       y2="12.474758"
       gradientUnits="userSpaceOnUse" />
  </defs>
  <path
     id="rect863"
     style="fill:url(#linearGradient2957);stroke-width:0.264583;fill-opacity:1"
     d="M 3.1750003,1.0583333 H 13.758333 c 1.172634,0 2.116667,0.944034 2.116667,2.116667 V 13.758333 c 0,1.172634 -0.944033,2.116667 -2.116667,2.116667 H 3.1750003 c -1.172633,0 -2.116667,-0.944033 -2.116667,-2.116667 V 3.1750003 c 0,-1.172633 0.944034,-2.116667 2.116667,-2.116667 z" />
  <path
     id="rect2238-1"
     style="opacity:0.3;fill:url(#linearGradient11435);fill-opacity:1;stroke-width:9;stroke-linecap:round;stroke-linejoin:round"
     d="M 43.052734 18.697266 A 3.0000001 3.0000001 0 0 0 41.193359 19.564453 A 3.0000001 3.0000001 0 0 0 40.367188 22.185547 A 3.0000001 3.0000001 0 0 1 41.193359 20.564453 A 3.0000001 3.0000001 0 0 1 43.052734 19.697266 A 3.0000001 3.0000001 0 0 1 45.435547 20.564453 A 3.0000001 3.0000001 0 0 1 46.269531 22.185547 A 3.0000001 3.0000001 0 0 0 45.435547 19.564453 A 3.0000001 3.0000001 0 0 0 43.052734 18.697266 z M 31.220703 24.304688 A 10 10 0 0 0 31.636719 27.707031 L 31.888672 27.455078 A 10 10 0 0 1 31.220703 24.304688 z M 51.177734 24.316406 A 10 10 0 0 1 48.263672 30.878906 A 10 10 0 0 1 37.546875 33.111328 L 21.394531 49.263672 L 15.736328 49.263672 L 15.736328 50.263672 L 21.394531 50.263672 L 37.546875 34.111328 A 10 10 0 0 0 48.263672 31.878906 A 10 10 0 0 0 51.177734 24.316406 z "
     transform="scale(0.26458333)" />
  <path
     id="rect1345"
     style="opacity:0.3;fill:url(#linearGradient1781);fill-opacity:1;stroke-width:0.264583"
     d="m 3.1750003,1.0583333 c -1.172633,0 -2.116667,0.944034 -2.116667,2.116667 V 13.758333 c 0,1.172634 0.944034,2.116667 2.116667,2.116667 H 13.758334 c 1.172633,0 2.116666,-0.944033 2.116666,-2.116667 V 3.1750003 c 0,-1.172633 -0.944033,-2.116667 -2.116666,-2.116667 z m 0,0.264584 H 13.758334 c 1.026054,0 1.852083,0.826029 1.852083,1.852083 V 13.758333 c 0,1.026054 -0.826029,1.852084 -1.852083,1.852084 H 3.1750003 c -1.026054,0 -1.852083,-0.82603 -1.852083,-1.852084 V 3.1750003 c 0,-1.026054 0.826029,-1.852083 1.852083,-1.852083 z" />
  <path
     id="rect2238"
     style="fill:url(#linearGradient10693);fill-opacity:1;stroke-width:2.38125;stroke-linecap:round;stroke-linejoin:round"
     d="m 9.7762871,7.421629 0.7483549,0.7483547 -4.8643061,4.8643063 -1.4967091,-1e-6 z"
     sodipodi:nodetypes="ccccc" />
  <path
     id="path849"
     style="fill:url(#linearGradient7983);fill-opacity:1;stroke-width:2.97656;stroke-linecap:round;stroke-linejoin:round"
     d="m 12.769706,4.4282107 a 2.6458333,2.6458333 0 0 0 -3.7417733,0 2.6458333,2.6458333 0 0 0 -0.590864,2.8359281 L 8.0924894,7.6087181 V 8.3570728 H 7.3441347 l -0.561266,0.561266 V 9.6666935 H 6.034514 L 5.473248,10.22796 v 0.748354 H 4.7248933 l -0.561266,0.561266 v 1.49671 L 9.0279327,8.1699841 a 2.6458333,2.6458333 0 0 0 3.7417733,0 2.6458333,2.6458333 0 0 0 0,-3.7417734 z m -0.748355,0.7483547 a 0.79375,0.79375 0 0 1 0,1.122532 0.79375,0.79375 0 0 1 -1.122532,0 0.79375,0.79375 0 0 1 0,-1.122532 0.79375,0.79375 0 0 1 1.122532,0 z" />
  <path
     id="path11825"
     style="opacity:1;fill:#ca9339;fill-opacity:1;stroke-width:2.38125;stroke-linecap:round;stroke-linejoin:round"
     d="M 11.46519,4.6824016 A 1.0583333,1.0583333 0 0 0 10.406856,5.7407349 1.0583333,1.0583333 0 0 0 11.46519,6.7990682 1.0583333,1.0583333 0 0 0 12.523523,5.7407349 1.0583333,1.0583333 0 0 0 11.46519,4.6824016 Z m 0,0.2645833 a 0.79374999,0.79374999 0 0 1 0.79375,0.79375 0.79374999,0.79374999 0 0 1 -0.79375,0.79375 0.79374999,0.79374999 0 0 1 -0.79375,-0.79375 0.79374999,0.79374999 0 0 1 0.79375,-0.79375 z" />
</svg>
