<?xml version="1.0" encoding="UTF-8" standalone="no"?>
<svg
   width="128"
   height="128"
   viewBox="0 0 33.866666 33.866668"
   version="1.1"
   id="svg1498"
   inkscape:version="1.1.2 (0a00cf5339, 2022-02-04, custom)"
   sodipodi:docname="preferences-desktop-plasma.svg"
   xmlns:inkscape="http://www.inkscape.org/namespaces/inkscape"
   xmlns:sodipodi="http://sodipodi.sourceforge.net/DTD/sodipodi-0.dtd"
   xmlns:xlink="http://www.w3.org/1999/xlink"
   xmlns="http://www.w3.org/2000/svg"
   xmlns:svg="http://www.w3.org/2000/svg"
   xmlns:rdf="http://www.w3.org/1999/02/22-rdf-syntax-ns#"
   xmlns:cc="http://creativecommons.org/ns#"
   xmlns:dc="http://purl.org/dc/elements/1.1/">
  <defs
     id="defs1492">
    <linearGradient
       gradientUnits="userSpaceOnUse"
       y2="28.95187"
       x2="4.9738135"
       y1="6.4081883"
       x1="26.124226"
       id="linearGradient2042"
       xlink:href="#linearGradient2040"
       inkscape:collect="always"
       gradientTransform="translate(0.09152258,-0.02546887)" />
    <linearGradient
       id="linearGradient2040"
       inkscape:collect="always">
      <stop
         id="stop2036"
         offset="0"
         style="stop-color:#000000;stop-opacity:1" />
      <stop
         id="stop2038"
         offset="1"
         style="stop-color:#000000;stop-opacity:1" />
    </linearGradient>
    <linearGradient
       gradientUnits="userSpaceOnUse"
       y2="4.3134179"
       x2="17.585337"
       y1="25.474516"
       x1="17.585337"
       id="linearGradient7784"
       xlink:href="#linearGradient7782"
       inkscape:collect="always"
       gradientTransform="translate(0.09152258,-0.02546887)" />
    <linearGradient
       id="linearGradient7782"
       inkscape:collect="always">
      <stop
         id="stop7778"
         offset="0"
         style="stop-color:#143fd8;stop-opacity:1" />
      <stop
         id="stop7780"
         offset="1"
         style="stop-color:#26c5f3;stop-opacity:1" />
    </linearGradient>
    <linearGradient
       gradientTransform="matrix(0.26458333,0,0,0.26458333,0.09152258,-0.02547217)"
       gradientUnits="userSpaceOnUse"
       y2="21.264637"
       x2="79.514992"
       y1="96.281647"
       x1="66.464264"
       id="linearGradient7756"
       xlink:href="#linearGradient7754"
       inkscape:collect="always" />
    <linearGradient
       id="linearGradient7754"
       inkscape:collect="always">
      <stop
         id="stop7750"
         offset="0"
         style="stop-color:#143fd8;stop-opacity:1" />
      <stop
         id="stop7752"
         offset="1"
         style="stop-color:#5de0ef;stop-opacity:1" />
    </linearGradient>
    <radialGradient
       inkscape:collect="always"
       xlink:href="#linearGradient11547"
       id="radialGradient11549"
       cx="17.060562"
       cy="28.739515"
       fx="17.060562"
       fy="28.739515"
       r="1.5804152"
       gradientTransform="matrix(0.80979407,0,0,0.95086263,3.2160157,1.505686)"
       gradientUnits="userSpaceOnUse" />
    <linearGradient
       inkscape:collect="always"
       id="linearGradient11547">
      <stop
         style="stop-color:#3c3c3c;stop-opacity:1"
         offset="0"
         id="stop11543" />
      <stop
         style="stop-color:#141414;stop-opacity:0.99607843"
         offset="1"
         id="stop11545" />
    </linearGradient>
    <linearGradient
       inkscape:collect="always"
       xlink:href="#linearGradient1498"
       id="linearGradient1500"
       x1="5.5562501"
       y1="7.1569281"
       x2="5.5562496"
       y2="14.036095"
       gradientUnits="userSpaceOnUse"
       gradientTransform="matrix(2.4350457,0,0,2.4350457,-3.6833916,-9.0707173)" />
    <linearGradient
       inkscape:collect="always"
       id="linearGradient1498">
      <stop
         style="stop-color:#ffffff;stop-opacity:1;"
         offset="0"
         id="stop1494" />
      <stop
         style="stop-color:#85c8f3;stop-opacity:1"
         offset="1"
         id="stop1496" />
    </linearGradient>
    <filter
       inkscape:collect="always"
       style="color-interpolation-filters:sRGB"
       id="filter1725"
       x="-0.10824453"
       y="-0.10775658"
       width="1.2164891"
       height="1.2155132">
      <feGaussianBlur
         inkscape:collect="always"
         stdDeviation="0.6392741"
         id="feGaussianBlur1727" />
    </filter>
  </defs>
  <sodipodi:namedview
     id="base"
     pagecolor="#ffffff"
     bordercolor="#666666"
     borderopacity="1.0"
     inkscape:pageopacity="0.0"
     inkscape:pageshadow="2"
     inkscape:zoom="2.7100119"
     inkscape:cx="60.885342"
     inkscape:cy="66.051372"
     inkscape:document-units="mm"
     inkscape:current-layer="layer1"
     inkscape:document-rotation="0"
     showgrid="false"
     units="px"
     inkscape:window-width="1366"
     inkscape:window-height="703"
     inkscape:window-x="0"
     inkscape:window-y="37"
     inkscape:window-maximized="1"
     inkscape:pagecheckerboard="0" />
  <metadata
     id="metadata1495">
    <rdf:RDF>
      <cc:Work
         rdf:about="">
        <dc:format>image/svg+xml</dc:format>
        <dc:type
           rdf:resource="http://purl.org/dc/dcmitype/StillImage" />
      </cc:Work>
    </rdf:RDF>
  </metadata>
  <g
     inkscape:label="Capa 1"
     inkscape:groupmode="layer"
     id="layer1">
    <g
       style="opacity:0.295"
       transform="matrix(0.97573206,0,0,0.97573206,-65.656862,-37.228562)"
       id="g1702">
      <rect
         ry="6.6098609"
         rx="6.6098609"
         y="40.709618"
         x="69.839508"
         height="29.810888"
         width="29.810888"
         id="rect1634"
         style="fill:none;fill-opacity:1;stroke:#000000;stroke-width:0.1;stroke-linecap:round;stroke-linejoin:round;stroke-miterlimit:4;stroke-dasharray:none;stroke-opacity:0.02" />
      <rect
         style="fill:none;fill-opacity:1;stroke:#000000;stroke-width:0.2;stroke-linecap:round;stroke-linejoin:round;stroke-miterlimit:4;stroke-dasharray:none;stroke-opacity:0.02"
         id="rect1638"
         width="29.810888"
         height="29.810888"
         x="69.839508"
         y="40.709618"
         rx="6.6098609"
         ry="6.6098609" />
      <rect
         ry="6.6098609"
         rx="6.6098609"
         y="40.709618"
         x="69.839508"
         height="29.810888"
         width="29.810888"
         id="rect1640"
         style="fill:none;fill-opacity:1;stroke:#000000;stroke-width:0.3;stroke-linecap:round;stroke-linejoin:round;stroke-miterlimit:4;stroke-dasharray:none;stroke-opacity:0.02" />
      <rect
         style="fill:none;fill-opacity:1;stroke:#000000;stroke-width:0.4;stroke-linecap:round;stroke-linejoin:round;stroke-miterlimit:4;stroke-dasharray:none;stroke-opacity:0.02"
         id="rect1642"
         width="29.810888"
         height="29.810888"
         x="69.839508"
         y="40.709618"
         rx="6.6098609"
         ry="6.6098609" />
      <rect
         ry="6.6098609"
         rx="6.6098609"
         y="40.709618"
         x="69.839508"
         height="29.810888"
         width="29.810888"
         id="rect1644"
         style="fill:none;fill-opacity:1;stroke:#000000;stroke-width:0.5;stroke-linecap:round;stroke-linejoin:round;stroke-miterlimit:4;stroke-dasharray:none;stroke-opacity:0.02" />
      <rect
         style="fill:none;fill-opacity:1;stroke:#000000;stroke-width:0.6;stroke-linecap:round;stroke-linejoin:round;stroke-miterlimit:4;stroke-dasharray:none;stroke-opacity:0.02"
         id="rect1646"
         width="29.810888"
         height="29.810888"
         x="69.839508"
         y="40.709618"
         rx="6.6098609"
         ry="6.6098609" />
      <rect
         ry="6.6098609"
         rx="6.6098609"
         y="40.709618"
         x="69.839508"
         height="29.810888"
         width="29.810888"
         id="rect1648"
         style="fill:none;fill-opacity:1;stroke:#000000;stroke-width:0.7;stroke-linecap:round;stroke-linejoin:round;stroke-miterlimit:4;stroke-dasharray:none;stroke-opacity:0.02" />
      <rect
         style="fill:none;fill-opacity:1;stroke:#000000;stroke-width:0.8;stroke-linecap:round;stroke-linejoin:round;stroke-miterlimit:4;stroke-dasharray:none;stroke-opacity:0.02"
         id="rect1650"
         width="29.810888"
         height="29.810888"
         x="69.839508"
         y="40.709618"
         rx="6.6098609"
         ry="6.6098609" />
      <rect
         ry="6.6098609"
         rx="6.6098609"
         y="40.709618"
         x="69.839508"
         height="29.810888"
         width="29.810888"
         id="rect1652"
         style="fill:none;fill-opacity:1;stroke:#000000;stroke-width:1;stroke-linecap:round;stroke-linejoin:round;stroke-miterlimit:4;stroke-dasharray:none;stroke-opacity:0.02" />
      <rect
         style="fill:none;fill-opacity:1;stroke:#000000;stroke-width:1.2;stroke-linecap:round;stroke-linejoin:round;stroke-miterlimit:4;stroke-dasharray:none;stroke-opacity:0.02"
         id="rect1654"
         width="29.810888"
         height="29.810888"
         x="69.839508"
         y="40.709618"
         rx="6.6098609"
         ry="6.6098609" />
      <rect
         ry="6.6098609"
         rx="6.6098609"
         y="40.709618"
         x="69.839508"
         height="29.810888"
         width="29.810888"
         id="rect1656"
         style="fill:none;fill-opacity:1;stroke:#000000;stroke-width:1.4;stroke-linecap:round;stroke-linejoin:round;stroke-miterlimit:4;stroke-dasharray:none;stroke-opacity:0.02" />
      <rect
         style="fill:none;fill-opacity:1;stroke:#000000;stroke-width:1.6;stroke-linecap:round;stroke-linejoin:round;stroke-miterlimit:4;stroke-dasharray:none;stroke-opacity:0.02"
         id="rect1658"
         width="29.810888"
         height="29.810888"
         x="69.839508"
         y="40.709618"
         rx="6.6098609"
         ry="6.6098609" />
      <rect
         ry="6.6098609"
         rx="6.6098609"
         y="40.709618"
         x="69.839508"
         height="29.810888"
         width="29.810888"
         id="rect1660"
         style="fill:none;fill-opacity:1;stroke:#000000;stroke-width:1.8;stroke-linecap:round;stroke-linejoin:round;stroke-miterlimit:4;stroke-dasharray:none;stroke-opacity:0.02" />
      <rect
         style="fill:none;fill-opacity:1;stroke:#000000;stroke-width:2;stroke-linecap:round;stroke-linejoin:round;stroke-miterlimit:4;stroke-dasharray:none;stroke-opacity:0.02"
         id="rect1662"
         width="29.810888"
         height="29.810888"
         x="69.839508"
         y="40.709618"
         rx="6.6098609"
         ry="6.6098609" />
      <rect
         ry="6.6098609"
         rx="6.6098609"
         y="40.709618"
         x="69.839508"
         height="29.810888"
         width="29.810888"
         id="rect1664"
         style="fill:none;fill-opacity:1;stroke:#000000;stroke-width:2.2;stroke-linecap:round;stroke-linejoin:round;stroke-miterlimit:4;stroke-dasharray:none;stroke-opacity:0.02" />
      <rect
         style="fill:none;fill-opacity:1;stroke:#000000;stroke-width:2.6;stroke-linecap:round;stroke-linejoin:round;stroke-miterlimit:4;stroke-dasharray:none;stroke-opacity:0.02"
         id="rect1666"
         width="29.810888"
         height="29.810888"
         x="69.839508"
         y="40.709618"
         rx="6.6098609"
         ry="6.6098609" />
      <rect
         ry="6.6098609"
         rx="6.6098609"
         y="40.709618"
         x="69.839508"
         height="29.810888"
         width="29.810888"
         id="rect1668"
         style="fill:none;fill-opacity:1;stroke:#000000;stroke-width:3;stroke-linecap:round;stroke-linejoin:round;stroke-miterlimit:4;stroke-dasharray:none;stroke-opacity:0.02" />
      <rect
         style="fill:none;fill-opacity:1;stroke:#000000;stroke-width:3.4;stroke-linecap:round;stroke-linejoin:round;stroke-miterlimit:4;stroke-dasharray:none;stroke-opacity:0.02"
         id="rect1670"
         width="29.810888"
         height="29.810888"
         x="69.839508"
         y="40.709618"
         rx="6.6098609"
         ry="6.6098609" />
      <rect
         ry="6.6098609"
         rx="6.6098609"
         y="40.709618"
         x="69.839508"
         height="29.810888"
         width="29.810888"
         id="rect1672"
         style="fill:none;fill-opacity:1;stroke:#000000;stroke-width:3.8;stroke-linecap:round;stroke-linejoin:round;stroke-miterlimit:4;stroke-dasharray:none;stroke-opacity:0.02" />
      <rect
         style="fill:none;fill-opacity:1;stroke:#000000;stroke-width:4.2;stroke-linecap:round;stroke-linejoin:round;stroke-miterlimit:4;stroke-dasharray:none;stroke-opacity:0.02"
         id="rect1674"
         width="29.810888"
         height="29.810888"
         x="69.839508"
         y="40.709618"
         rx="6.6098609"
         ry="6.6098609" />
      <rect
         ry="6.6098609"
         rx="6.6098609"
         y="40.709618"
         x="69.839508"
         height="29.810888"
         width="29.810888"
         id="rect1676"
         style="fill:none;fill-opacity:1;stroke:#000000;stroke-width:4.6;stroke-linecap:round;stroke-linejoin:round;stroke-miterlimit:4;stroke-dasharray:none;stroke-opacity:0.02" />
      <rect
         style="fill:none;fill-opacity:1;stroke:#000000;stroke-width:5;stroke-linecap:round;stroke-linejoin:round;stroke-miterlimit:4;stroke-dasharray:none;stroke-opacity:0.02"
         id="rect1678"
         width="29.810888"
         height="29.810888"
         x="69.839508"
         y="40.709618"
         rx="6.6098609"
         ry="6.6098609" />
    </g>
    <rect
       ry="6.4494534"
       rx="6.4494534"
       y="2.4931161"
       x="2.4877868"
       height="29.08744"
       width="29.08744"
       id="rect849"
       style="fill:url(#linearGradient2042);fill-opacity:1;stroke-width:2.68801;stroke-linecap:round;stroke-linejoin:round;stroke-miterlimit:4;stroke-dasharray:none" />
    <path
       id="rect901"
       style="fill:#dbdbde;fill-opacity:1;stroke:#808080;stroke-width:0.233683;stroke-miterlimit:4;stroke-dasharray:none;stroke-opacity:1"
       d="m 8.9374947,2.4932371 c -3.5729974,0 -6.4497359,2.8762217 -6.4497359,6.4492195 V 25.131133 c 0,3.572998 2.8767385,6.44922 6.4497359,6.44922 H 25.125656 c 3.572997,0 6.449735,-2.876222 6.449735,-6.44922 V 8.9424566 c 0,-3.5729978 -2.876738,-6.4492195 -6.449735,-6.4492195 z" />
    <path
       id="rect897"
       style="fill:#000000;fill-opacity:1;stroke:none;stroke-width:0.10242"
       d="m 8.9374947,2.4932371 c -3.5729974,0 -6.4497359,2.8762217 -6.4497359,6.4492195 V 25.131133 c 0,0.422472 0.041513,0.834642 0.1183391,1.234034 H 31.457054 c 0.07682,-0.399386 0.118337,-0.811569 0.118337,-1.234034 V 8.9424566 c 0,-3.5729978 -2.876738,-6.4492195 -6.449735,-6.4492195 z" />
    <path
       style="fill:url(#linearGradient7784);fill-opacity:1;stroke:url(#linearGradient7756);stroke-width:0.150866;stroke-miterlimit:4;stroke-dasharray:0.0377164, 0.0377164;stroke-dashoffset:0;stroke-opacity:1"
       d="m 8.9374944,2.4932404 c -3.4613411,0 -6.2693527,2.699331 -6.4414674,6.1164226 -0.00427,0.1183586 -0.00827,0.2349686 -0.00827,0.3327956 V 24.528588 H 31.575388 V 8.9424586 c 0,-0.111656 -0.0027,-0.222567 -0.0083,-0.3327956 C 31.395006,5.1925714 28.586994,2.4932404 25.125655,2.4932404 Z"
       id="rect1848" />
    <path
       d="m 16.045577,30.174074 c 0.1585,0.01901 0.336603,0.121606 0.485644,0.139741 0.149837,0.01901 0.196217,-0.102055 0.196217,-0.102055 0,0 0.168614,-0.03764 0.345894,-0.042 0.17744,-0.0053 0.34542,0.0369 0.34542,0.0369 0,0 0.03258,0.07466 0.09336,0.107173 0.06081,0.03322 0.191732,0.03764 0.275625,-0.05077 0.08408,-0.08906 0.308361,-0.201193 0.434306,-0.271306 0.12674,-0.07032 0.103486,-0.177439 0.02392,-0.209994 -0.07957,-0.03258 -0.144699,-0.08386 -0.139741,-0.182416 0.0043,-0.0977 -0.07026,-0.162839 -0.07026,-0.162839 0,0 0.06529,-0.214995 0.0045,-0.393073 -0.0608,-0.177275 -0.261331,-0.462378 -0.41551,-0.676717 -0.154179,-0.214993 -0.02324,-0.463174 -0.163638,-0.780355 -0.140378,-0.317669 -0.504414,-0.298888 -0.700627,-0.163499 -0.196217,0.135403 -0.136053,0.471201 -0.126596,0.630517 0.0094,0.158521 0.0043,0.271929 -0.01388,0.312688 -0.01808,0.04145 -0.144723,0.191733 -0.228771,0.317668 -0.08391,0.126581 -0.144722,0.387931 -0.206168,0.495754 -0.06018,0.107174 -0.01808,0.204878 -0.01808,0.204878 0,0 -0.04204,0.01455 -0.07525,0.0847 -0.03258,0.06947 -0.0977,0.10269 -0.214992,0.12528 -0.116488,0.02389 -0.116488,0.09897 -0.08839,0.18305 0.02823,0.08386 0,0.130919 -0.03259,0.238097 -0.03255,0.107144 0.130428,0.139727 0.289584,0.158499 z m 1.64768,-0.488861 c 0.08327,0.03638 0.202953,-0.01432 0.23937,-0.05077 0.03627,-0.03629 0.06194,-0.0902 0.06194,-0.0902 0,0 0.03643,0.01808 0.03272,0.07572 -0.0037,0.05837 0.02502,0.141665 0.07957,0.170539 0.05455,0.02878 0.137818,0.06884 0.09467,0.108925 -0.04396,0.04008 -0.287182,0.137962 -0.359853,0.214337 -0.07203,0.07592 -0.166692,0.137962 -0.224288,0.119682 -0.05824,-0.01808 -0.109098,-0.09772 -0.08405,-0.214171 0.02582,-0.115995 0.04765,-0.243219 0.04396,-0.31589 -0.0037,-0.07267 -0.01808,-0.170564 0,-0.184973 0.01808,-0.01432 0.04702,-0.0075 0.04702,-0.0075 0,0 -0.01455,0.137847 0.06898,0.174082 z M 17.152912,27.72181 c 0.08022,0 0.144863,0.07952 0.144863,0.177441 0,0.06947 -0.03258,0.129632 -0.08022,0.158521 -0.012,-0.0053 -0.02455,-0.01056 -0.03835,-0.01643 0.02889,-0.01431 0.04894,-0.05077 0.04894,-0.09274 0,-0.05499 -0.03384,-0.100247 -0.07637,-0.100247 -0.04137,0 -0.07587,0.04525 -0.07587,0.100247 0,0.02019 0.0049,0.04008 0.01316,0.05584 -0.02501,-0.01056 -0.04765,-0.01877 -0.06577,-0.02569 -0.0094,-0.02389 -0.01502,-0.05086 -0.01502,-0.07952 9e-6,-0.09783 0.0645,-0.177441 0.144721,-0.177441 z m -0.198634,0.305781 c 0.03948,0.0075 0.147913,0.05394 0.188025,0.06833 0.04012,0.01388 0.08455,0.03945 0.08022,0.06516 -0.0049,0.02643 -0.02565,0.02643 -0.08022,0.05964 -0.05392,0.03258 -0.171666,0.105222 -0.209359,0.110226 -0.03756,0.0053 -0.05889,-0.0162 -0.099,-0.04208 -0.04012,-0.02633 -0.115329,-0.08778 -0.09641,-0.120335 0,0 0.05889,-0.04504 0.08458,-0.0682 0.02568,-0.02389 0.0921,-0.08028 0.132206,-0.07286 z m -0.172957,-0.277544 c 0.06321,0 0.114708,0.0752 0.114708,0.16798 0,0.0169 -0.0018,0.03258 -0.0049,0.04833 -0.01572,0.0053 -0.03142,0.01316 -0.04654,0.02633 -0.0072,0.0064 -0.01432,0.01172 -0.02043,0.01808 0.0098,-0.01877 0.01388,-0.04569 0.0094,-0.07391 -0.0087,-0.05002 -0.04251,-0.08715 -0.07572,-0.08217 -0.03338,0.0053 -0.05328,0.0515 -0.04525,0.102141 0.009,0.05139 0.04204,0.08842 0.07588,0.0828 0.0018,-5.37e-4 0.0037,-0.0011 0.0057,-0.0022 -0.0162,0.01572 -0.03129,0.0295 -0.04702,0.04073 -0.04573,-0.02137 -0.07957,-0.08525 -0.07957,-0.160446 9e-6,-0.09336 0.0507,-0.167958 0.114072,-0.167958 z m -0.352154,1.213855 c 0.06513,-0.102691 0.107173,-0.327124 0.1723,-0.401733 0.06579,-0.07444 0.116487,-0.233113 0.09336,-0.30321 0,0 0.140377,0.167956 0.238088,0.140377 0.09787,-0.02823 0.317826,-0.19171 0.35039,-0.163638 0.03258,0.02823 0.312693,0.644306 0.340926,0.840517 0.02825,0.196052 -0.01877,0.345905 -0.01877,0.345905 0,0 -0.107174,-0.02823 -0.12097,0.03692 -0.01388,0.06577 -0.01388,0.304036 -0.01388,0.304036 0,0 -0.144862,0.200536 -0.369166,0.233747 -0.224287,0.03258 -0.336603,0.0084 -0.336603,0.0084 L 16.638898,29.861 c 0,0 0.09787,-0.01455 0.08408,-0.112771 -0.01388,-0.09772 -0.299061,-0.233113 -0.3504,-0.354725 -0.05133,-0.121622 -0.0094,-0.327136 0.0565,-0.42997 z m -0.554626,0.73576 c 0.01128,-0.04811 0.156574,-0.04811 0.212411,-0.08196 0.05584,-0.03384 0.06706,-0.131079 0.112149,-0.156739 0.04443,-0.02633 0.126581,0.06706 0.160446,0.119683 0.0332,0.05139 0.160447,0.275789 0.212435,0.331615 0.05263,0.05626 0.100927,0.13092 0.08583,0.197977 -0.01432,0.06706 -0.09336,0.115996 -0.09336,0.115996 -0.07075,0.02182 -0.268088,-0.06334 -0.357764,-0.100884 -0.08969,-0.03764 -0.317826,-0.04896 -0.347185,-0.08216 -0.03016,-0.03384 0.01431,-0.108461 0.0263,-0.179224 0.01056,-0.07159 -0.02253,-0.115996 -0.01128,-0.164272 z"
       id="path2-3"
       style="fill:url(#radialGradient11549);fill-opacity:1;stroke-width:0.00954116" />
    <path
       id="path8-7"
       style="isolation:auto;mix-blend-mode:normal;fill:#000000;fill-opacity:1;stroke-width:0.644272;filter:url(#filter1725);opacity:0.4"
       d="m 13.389833,6.3918229 c -0.535389,0 -0.966409,0.4310189 -0.966409,0.9664088 0,0.5353916 0.43102,0.9664107 0.966409,0.9664107 0.535389,0 0.966408,-0.4310191 0.966408,-0.9664107 0,-0.5353899 -0.431019,-0.9664088 -0.966408,-0.9664088 z m 5.476318,0.064185 -1.93282,1.9328173 3.221365,3.2213628 -3.221365,3.221364 1.93282,1.932819 5.154182,-5.154183 z m -7.409136,5.1541811 c -0.892317,0 -1.610681,0.718365 -1.610681,1.610682 0,0.892319 0.718362,1.610681 1.610681,1.610681 0.892319,0 1.610682,-0.718362 1.610682,-1.610681 0,-0.892317 -0.718363,-1.610682 -1.610682,-1.610682 z m 3.543499,5.154182 c -1.07078,0 -1.932817,0.862036 -1.932817,1.932817 0,1.070779 0.862037,1.932818 1.932817,1.932818 1.070781,0 1.932819,-0.862038 1.932819,-1.932818 0,-1.070781 -0.862038,-1.932817 -1.932819,-1.932817 z" />
    <path
       id="path8"
       style="isolation:auto;mix-blend-mode:normal;fill:url(#linearGradient1500);fill-opacity:1;stroke-width:0.644272"
       d="m 13.389833,6.3918229 c -0.535389,0 -0.966409,0.4310189 -0.966409,0.9664088 0,0.5353916 0.43102,0.9664107 0.966409,0.9664107 0.535389,0 0.966408,-0.4310191 0.966408,-0.9664107 0,-0.5353899 -0.431019,-0.9664088 -0.966408,-0.9664088 z m 5.476318,0.064185 -1.93282,1.9328173 3.221365,3.2213628 -3.221365,3.221364 1.93282,1.932819 5.154182,-5.154183 z m -7.409136,5.1541811 c -0.892317,0 -1.6106813,0.718365 -1.6106813,1.610682 0,0.892319 0.7183623,1.610681 1.6106813,1.610681 0.892319,0 1.610682,-0.718362 1.610682,-1.610681 0,-0.892317 -0.718363,-1.610682 -1.610682,-1.610682 z m 3.543499,5.154182 c -1.07078,0 -1.932817,0.862036 -1.932817,1.932817 0,1.070779 0.862037,1.932818 1.932817,1.932818 1.070781,0 1.932819,-0.862038 1.932819,-1.932818 0,-1.070781 -0.862038,-1.932817 -1.932819,-1.932817 z" />
  </g>
</svg>
