<?xml version="1.0" encoding="UTF-8" standalone="no"?>
<svg
   width="64"
   height="64"
   enable-background="new 0 0 1024 1024"
   image-rendering="optimizeSpeed"
   version="1.1"
   id="svg13"
   sodipodi:docname="preferences-desktop-peripherals.svg"
   inkscape:version="1.3.2 (091e20ef0f, 2023-11-25, custom)"
   xmlns:inkscape="http://www.inkscape.org/namespaces/inkscape"
   xmlns:sodipodi="http://sodipodi.sourceforge.net/DTD/sodipodi-0.dtd"
   xmlns="http://www.w3.org/2000/svg"
   xmlns:svg="http://www.w3.org/2000/svg">
  <sodipodi:namedview
     id="namedview13"
     pagecolor="#ffffff"
     bordercolor="#000000"
     borderopacity="0.25"
     inkscape:showpageshadow="2"
     inkscape:pageopacity="0.0"
     inkscape:pagecheckerboard="0"
     inkscape:deskcolor="#d1d1d1"
     inkscape:zoom="12.671875"
     inkscape:cx="32"
     inkscape:cy="31.960543"
     inkscape:window-width="1920"
     inkscape:window-height="1015"
     inkscape:window-x="0"
     inkscape:window-y="0"
     inkscape:window-maximized="1"
     inkscape:current-layer="svg13" />
  <defs
     id="defs4">
    <linearGradient
       id="c"
       x1="18.601"
       x2="18.601"
       y1=".854"
       y2="49.956"
       gradientTransform="matrix(1.1117 0 0 .96015 24.948 10.068)"
       gradientUnits="userSpaceOnUse">
      <stop
         offset="0"
         stop-color="#fafafa"
         id="stop1" />
      <stop
         offset="1"
         stop-color="#d4d4d4"
         id="stop2" />
    </linearGradient>
    <linearGradient
       id="a"
       x1="7.937"
       x2="7.937"
       y1="15.081"
       y2="1.852"
       gradientTransform="scale(3.7796)"
       gradientUnits="userSpaceOnUse">
      <stop
         offset="0"
         stop-color="#676767"
         id="stop3" />
      <stop
         offset="1"
         stop-color="#c6c6c6"
         id="stop4" />
    </linearGradient>
    <filter
       id="b"
       width="1.1672525"
       height="1.0936005"
       x="-0.083626257"
       y="-0.046800227"
       color-interpolation-filters="sRGB">
      <feGaussianBlur
         stdDeviation=".897"
         id="feGaussianBlur4" />
    </filter>
  </defs>
  <g
     color="#000"
     image-rendering="auto"
     id="g8">
    <path
       d="M4.37.53C2.254.53.53 2.312.53 4.496v8.468c0 2.184 1.725 3.968 3.84 3.968h8.194c2.114 0 3.84-1.783 3.84-3.968V4.497c0-2.184-1.726-3.968-3.84-3.968zm.256.52h7.681c1.844 0 3.33 1.534 3.33 3.44v7.937c0 1.906-1.485 3.44-3.33 3.44h-7.68c-1.845 0-3.33-1.534-3.33-3.44V4.49c0-1.906 1.485-3.44 3.33-3.44z"
       enable-background="accumulate"
       opacity=".01"
       style="font-feature-settings:normal;font-variant-alternates:normal;font-variant-caps:normal;font-variant-east-asian:normal;font-variant-ligatures:normal;font-variant-numeric:normal;font-variant-position:normal;font-variation-settings:normal;inline-size:0;isolation:auto;mix-blend-mode:normal;shape-margin:0;shape-padding:0;text-decoration-color:#000;text-decoration-line:none;text-decoration-style:solid;text-indent:0;text-orientation:mixed;text-transform:none;white-space:normal"
       transform="scale(3.7796)"
       id="path4" />
    <path
       d="M4.359.794C2.392.794.795 2.447.795 4.48v8.5c0 2.035 1.597 3.688 3.564 3.688h8.216c1.967 0 3.564-1.653 3.564-3.688v-8.5c0-2.034-1.597-3.687-3.564-3.687zm.272.256h7.672c1.842 0 3.325 1.534 3.325 3.44v7.937c0 1.906-1.483 3.44-3.325 3.44H4.63c-1.842 0-3.325-1.534-3.325-3.44V4.49c0-1.906 1.483-3.44 3.325-3.44z"
       enable-background="accumulate"
       opacity=".01"
       style="font-feature-settings:normal;font-variant-alternates:normal;font-variant-caps:normal;font-variant-east-asian:normal;font-variant-ligatures:normal;font-variant-numeric:normal;font-variant-position:normal;font-variation-settings:normal;inline-size:0;isolation:auto;mix-blend-mode:normal;shape-margin:0;shape-padding:0;text-decoration-color:#000;text-decoration-line:none;text-decoration-style:solid;text-indent:0;text-orientation:mixed;text-transform:none;white-space:normal"
       transform="scale(3.7796)"
       id="path5" />
    <path
       d="M4.31 1.058c-1.866 0-3.375 1.539-3.375 3.44v8.467c0 1.9 1.57 3.439 3.435 3.439h8.2c1.866 0 3.427-1.538 3.427-3.44V4.498c0-1.9-1.51-3.439-3.375-3.439h-.097c1.794.087 3.214 1.582 3.214 3.432v7.937c0 1.906-1.506 3.44-3.377 3.44h-7.79c-1.871 0-3.377-1.534-3.377-3.44V4.49c0-1.85 1.42-3.345 3.214-3.432z"
       enable-background="accumulate"
       opacity=".03"
       style="font-feature-settings:normal;font-variant-alternates:normal;font-variant-caps:normal;font-variant-east-asian:normal;font-variant-ligatures:normal;font-variant-numeric:normal;font-variant-position:normal;font-variation-settings:normal;inline-size:0;isolation:auto;mix-blend-mode:normal;shape-margin:0;shape-padding:0;text-decoration-color:#000;text-decoration-line:none;text-decoration-style:solid;text-indent:0;text-orientation:mixed;text-transform:none;white-space:normal"
       transform="scale(3.7796)"
       id="path6" />
    <path
       d="M4 46.969V49c0 6.648 5.896 12 12.544 12h30.961C54.153 61 60 55.648 60 49v-1.992a12.97 12.97 0 0 1-13 12.963H17.002A12.973 12.973 0 0 1 4 46.969"
       enable-background="accumulate"
       opacity=".03"
       style="font-feature-settings:normal;font-variant-alternates:normal;font-variant-caps:normal;font-variant-east-asian:normal;font-variant-ligatures:normal;font-variant-numeric:normal;font-variant-position:normal;font-variation-settings:normal;inline-size:0;isolation:auto;mix-blend-mode:normal;shape-margin:0;shape-padding:0;text-decoration-color:#000;text-decoration-line:none;text-decoration-style:solid;text-indent:0;text-orientation:mixed;text-transform:none;white-space:normal"
       id="path7" />
    <path
       d="M1.058 11.906v.592c0 1.939 1.573 3.5 3.332 3.5h8.16c1.76 0 3.325-1.561 3.325-3.5v-.58c-.006 2.095-1.537 3.78-3.44 3.78H4.498c-1.905 0-3.44-1.692-3.44-3.792"
       enable-background="accumulate"
       opacity=".05"
       style="font-feature-settings:normal;font-variant-alternates:normal;font-variant-caps:normal;font-variant-east-asian:normal;font-variant-ligatures:normal;font-variant-numeric:normal;font-variant-position:normal;font-variation-settings:normal;inline-size:0;isolation:auto;mix-blend-mode:normal;shape-margin:0;shape-padding:0;text-decoration-color:#000;text-decoration-line:none;text-decoration-style:solid;text-indent:0;text-orientation:mixed;text-transform:none;white-space:normal"
       transform="scale(3.7796)"
       id="path8" />
  </g>
  <rect
     width="56.002"
     height="56.002"
     x="4"
     y="3.969"
     fill="url(#a)"
     rx="13.002"
     ry="13.002"
     id="rect8" />
  <path
     d="M31.053 11.95c-2.926.032-6.07.3-8.214 2.308-3.283 3.078-2.869 5.207-3.191 9.42-.658 8.598-.404 20.382 1.345 28.848.513 2.483 2.855 4.231 5.34 4.71 1.907.367 3.88.645 5.854.712 1.975-.067 3.947-.345 5.854-.713 2.485-.478 4.827-2.226 5.34-4.709 1.749-8.466 2.003-20.25 1.345-28.849-.322-4.212.092-6.34-3.19-9.418-2.144-2.01-5.29-2.277-8.215-2.309-.382-.004-.762 0-1.134 0s-.751-.004-1.134 0"
     color="#000"
     enable-background="accumulate"
     filter="url(#b)"
     opacity=".35"
     transform="translate(0 -2.448)"
     id="path9" />
  <path
     fill="url(#c)"
     d="M31.053 11.45c-2.926.032-6.07.3-8.214 2.308-3.283 3.078-2.869 5.207-3.191 9.42-.658 8.598-.404 20.382 1.345 28.848.513 2.483 2.855 4.231 5.34 4.71 1.907.367 3.88.645 5.854.712 1.975-.067 3.947-.345 5.854-.713 2.485-.478 4.827-2.226 5.34-4.709 1.749-8.466 2.003-20.25 1.345-28.849-.322-4.212.092-6.34-3.19-9.418-2.144-2.01-5.29-2.277-8.215-2.309-.382-.004-.762 0-1.134 0s-.751-.004-1.134 0"
     color="#000"
     enable-background="accumulate"
     transform="translate(0 -2.448)"
     id="path10" />
  <path
     fill="#4d4d4d"
     fill-opacity=".588"
     d="M32.187 15c.554 0 1 .55 1 1.232v3.536c0 .683-.446 1.232-1 1.232s-1-.55-1-1.232v-3.536c0-.682.446-1.232 1-1.232"
     id="path11" />
  <path
     fill="#4d4d4d"
     fill-opacity=".588"
     d="M32.187 16c.554 0 1 .55 1 1.232v3.536c0 .683-.446 1.232-1 1.232s-1-.55-1-1.232v-3.536c0-.682.446-1.232 1-1.232"
     id="path12" />
  <path
     d="m 33.977764,46.676972 c 0.01337,-1.222149 0.139151,-3.531256 -2.200162,-3.344566 -2.309603,0.185946 -1.697291,2.625786 -1.731707,3.442862 -0.03045,0.432308 -0.173815,0.960684 -0.376598,1.498469 h 0.624196 c 0.06438,-0.227791 0.11142,-0.453354 0.131724,-0.668022 0.03763,0.02625 0.07799,0.0515 0.121075,0.07577 0.06983,0.04135 0.12999,0.09607 0.193623,0.154006 0.148558,0.135436 0.317174,0.289195 0.64648,0.308261 0.02203,0.0013 0.04432,0.002 0.06611,0.002 0.333268,0 0.561059,-0.145835 0.744282,-0.26295 0.08765,-0.0562 0.163415,-0.104734 0.234724,-0.128008 0.202784,-0.06339 0.379816,-0.165892 0.512034,-0.296129 0.0208,-0.0203 0.03986,-0.04135 0.05794,-0.06264 0.07379,0.27013 0.174804,0.574429 0.286718,0.877738 h 1.333073 c -0.320398,-0.49418 -0.650447,-0.978731 -0.643515,-1.596737 z m -3.708287,-0.664804 v -2.47e-4 c -0.02303,-0.398882 0.167872,-0.734131 0.426117,-0.749235 0.258246,-0.0151 0.486284,0.296129 0.509311,0.694763 v 2.48e-4 c 0.0013,0.02154 0.0018,0.04284 0.0018,0.06388 -0.08171,0.02055 -0.15574,0.05051 -0.221849,0.08542 l -7.53e-4,-0.0089 v -2.47e-4 c -0.02203,-0.226306 -0.142864,-0.397149 -0.27013,-0.381798 -0.127019,0.0156 -0.212193,0.211697 -0.189909,0.438003 0.0097,0.09879 0.03789,0.186937 0.0775,0.253789 -0.0099,0.0077 -0.03763,0.02798 -0.06957,0.0515 -0.02402,0.01758 -0.05348,0.03887 -0.08864,0.06487 -0.09607,-0.126275 -0.16193,-0.307518 -0.173814,-0.512034 z m 2.616872,0.985692 c -0.0092,0.210706 -0.284987,0.409033 -0.539519,0.488512 l -0.0015,5.02e-4 c -0.105972,0.03442 -0.200306,0.09483 -0.300337,0.158711 -0.167872,0.107458 -0.341686,0.21863 -0.592504,0.21863 -0.01658,0 -0.03343,-5.02e-4 -0.05001,-0.0015 -0.22979,-0.01339 -0.337248,-0.111191 -0.47318,-0.235238 -0.0718,-0.06537 -0.146083,-0.133208 -0.241657,-0.189165 l -0.0023,-0.0013 c -0.206496,-0.116615 -0.334751,-0.261461 -0.342922,-0.387984 -0.004,-0.06264 0.02402,-0.117114 0.08319,-0.161434 0.128772,-0.09655 0.215184,-0.159684 0.272132,-0.201528 0.06339,-0.0463 0.08269,-0.06017 0.09681,-0.07379 0.01015,-0.0094 0.02105,-0.02005 0.03293,-0.03169 0.118105,-0.114885 0.315936,-0.30727 0.61974,-0.30727 0.185699,0 0.391207,0.07156 0.610083,0.212192 0.103002,0.0671 0.19288,0.09805 0.306528,0.137418 0.07799,0.02699 0.166634,0.05744 0.285234,0.108201 l 0.002,9.76e-4 c 0.11043,0.04531 0.241162,0.128256 0.23522,0.265426 z m -0.06091,-0.495198 c -0.02129,-0.01065 -0.04358,-0.0208 -0.06661,-0.03045 -0.106963,-0.04556 -0.192633,-0.07676 -0.263693,-0.101516 0.03937,-0.07676 0.06363,-0.172576 0.06586,-0.276815 0.0055,-0.253294 -0.122314,-0.459049 -0.285234,-0.459296 -0.163167,-5.02e-4 -0.299595,0.204516 -0.305042,0.45781 -2.47e-4,0.0084 -2.47e-4,0.01659 0,0.02476 -0.100527,-0.04605 -0.199319,-0.07973 -0.295882,-0.100277 -5.02e-4,-0.0097 -9.76e-4,-0.01906 -0.0013,-0.02872 v -2.48e-4 c -0.0094,-0.461277 0.273844,-0.843322 0.632367,-0.852978 0.358524,-0.0097 0.65688,0.356295 0.666289,0.817819 v 2.48e-4 c 0.0042,0.208725 -0.0515,0.400614 -0.146826,0.549669 z"
     fill="#eeeeee"
     fill-rule="nonzero"
     id="path27"
     sodipodi:nodetypes="cccccccccscccccccccsccccccccccccccccscccccccccsccccccccccccccccsccc"
     style="fill:#999999;fill-opacity:1;stroke-width:0.247599" />
</svg>
