<?xml version="1.0" encoding="UTF-8" standalone="no"?>
<!-- Created with Inkscape (http://www.inkscape.org/) -->

<svg
   width="64"
   height="64"
   viewBox="0 0 16.933333 16.933333"
   version="1.1"
   id="svg5"
   inkscape:version="1.1.1 (3bf5ae0d25, 2021-09-20, custom)"
   sodipodi:docname="accessories-scanner.svg"
   xmlns:inkscape="http://www.inkscape.org/namespaces/inkscape"
   xmlns:sodipodi="http://sodipodi.sourceforge.net/DTD/sodipodi-0.dtd"
   xmlns:xlink="http://www.w3.org/1999/xlink"
   xmlns="http://www.w3.org/2000/svg"
   xmlns:svg="http://www.w3.org/2000/svg">
  <sodipodi:namedview
     id="namedview7"
     pagecolor="#ffffff"
     bordercolor="#666666"
     borderopacity="1.0"
     inkscape:pageshadow="2"
     inkscape:pageopacity="0.0"
     inkscape:pagecheckerboard="0"
     inkscape:document-units="px"
     showgrid="false"
     units="px"
     height="48px"
     inkscape:zoom="11.313708"
     inkscape:cx="19.622214"
     inkscape:cy="40.835418"
     inkscape:window-width="1920"
     inkscape:window-height="1011"
     inkscape:window-x="0"
     inkscape:window-y="0"
     inkscape:window-maximized="1"
     inkscape:current-layer="svg5"
     inkscape:lockguides="true"
     showguides="false" />
  <defs
     id="defs2">
    <linearGradient
       inkscape:collect="always"
       id="linearGradient8260">
      <stop
         style="stop-color:#1a1a1a;stop-opacity:1;"
         offset="0"
         id="stop8256" />
      <stop
         style="stop-color:#1a1a1a;stop-opacity:0;"
         offset="1"
         id="stop8258" />
    </linearGradient>
    <linearGradient
       inkscape:collect="always"
       id="linearGradient7621">
      <stop
         style="stop-color:#4d4d4d;stop-opacity:1;"
         offset="0"
         id="stop7617" />
      <stop
         style="stop-color:#1a1a1a;stop-opacity:1"
         offset="1"
         id="stop7619" />
    </linearGradient>
    <linearGradient
       inkscape:collect="always"
       id="linearGradient6860">
      <stop
         style="stop-color:#e6e6e6;stop-opacity:1;"
         offset="0"
         id="stop6856" />
      <stop
         style="stop-color:#cccccc;stop-opacity:1"
         offset="1"
         id="stop6858" />
    </linearGradient>
    <linearGradient
       inkscape:collect="always"
       id="linearGradient4056">
      <stop
         style="stop-color:#6be6dc;stop-opacity:0.00058928"
         offset="0"
         id="stop4052" />
      <stop
         style="stop-color:#6be6dc;stop-opacity:0"
         offset="0.30000001"
         id="stop4979" />
      <stop
         style="stop-color:#6be6dc;stop-opacity:0.40000001"
         offset="0.49807936"
         id="stop4380" />
      <stop
         style="stop-color:#6be6dc;stop-opacity:0.00861745"
         offset="0.69999999"
         id="stop5237" />
      <stop
         style="stop-color:#6be6dc;stop-opacity:0"
         offset="1"
         id="stop4054" />
    </linearGradient>
    <linearGradient
       inkscape:collect="always"
       id="linearGradient2287">
      <stop
         style="stop-color:#f2f2f2;stop-opacity:1;"
         offset="0"
         id="stop2283" />
      <stop
         style="stop-color:#fcfcfc;stop-opacity:1"
         offset="1"
         id="stop2285" />
    </linearGradient>
    <linearGradient
       inkscape:collect="always"
       xlink:href="#linearGradient37218"
       id="linearGradient1781"
       x1="2.8346456e-08"
       y1="2.2677165e-07"
       x2="64"
       y2="64"
       gradientUnits="userSpaceOnUse"
       gradientTransform="scale(0.26458333)" />
    <linearGradient
       inkscape:collect="always"
       id="linearGradient37218">
      <stop
         style="stop-color:#ffffff;stop-opacity:1"
         offset="0"
         id="stop37214" />
      <stop
         style="stop-color:#717171;stop-opacity:0.00392157"
         offset="0.49741825"
         id="stop37220" />
      <stop
         style="stop-color:#000000;stop-opacity:1"
         offset="1"
         id="stop37216" />
    </linearGradient>
    <linearGradient
       inkscape:collect="always"
       xlink:href="#linearGradient2287"
       id="linearGradient2289"
       x1="11.641666"
       y1="16.933332"
       x2="11.641666"
       y2="-2.7838135e-07"
       gradientUnits="userSpaceOnUse" />
    <linearGradient
       inkscape:collect="always"
       xlink:href="#linearGradient4056"
       id="linearGradient4058"
       x1="8.2020836"
       y1="-0.016799251"
       x2="8.2020826"
       y2="16.916534"
       gradientUnits="userSpaceOnUse" />
    <linearGradient
       inkscape:collect="always"
       xlink:href="#linearGradient6860"
       id="linearGradient6862"
       x1="48"
       y1="2.2677165e-07"
       x2="48"
       y2="64"
       gradientUnits="userSpaceOnUse" />
    <linearGradient
       inkscape:collect="always"
       xlink:href="#linearGradient7621"
       id="linearGradient7623"
       x1="3.7041667"
       y1="-2.7838135e-07"
       x2="3.7041664"
       y2="16.933332"
       gradientUnits="userSpaceOnUse" />
    <linearGradient
       inkscape:collect="always"
       xlink:href="#linearGradient8260"
       id="linearGradient8262"
       x1="5.6692912e-08"
       y1="6.5"
       x2="60"
       y2="20.5"
       gradientUnits="userSpaceOnUse" />
  </defs>
  <path
     id="rect863"
     style="fill:url(#linearGradient7623);stroke-width:0.264583;fill-opacity:1"
     d="M 3.1750003,1.5875 H 13.758333 l 1.5875,1.5875003 V 13.758333 l -1.5875,1.5875 H 3.1750003 L 1.5875,13.758333 V 3.1750003 Z"
     sodipodi:nodetypes="ccccccccc" />
  <path
     id="rect1775"
     style="opacity:1;fill:url(#linearGradient2289);fill-opacity:1;stroke-width:2.38125;stroke-linecap:round;stroke-linejoin:round"
     d="m 4.7624999,2.9104166 h 7.4083321 c 0.293159,0 0.509667,0.2366577 0.529167,0.5291668 v 7.9374986 l -2.645834,2.645834 H 4.7624999 c -0.2931584,0 -0.5291668,-0.236009 -0.5291668,-0.529167 V 3.4395834 c 0,-0.2931584 0.2360084,-0.5291668 0.5291668,-0.5291668 z"
     sodipodi:nodetypes="sssccssss" />
  <path
     id="rect3970"
     style="opacity:1;fill:url(#linearGradient4058);stroke-width:3.53196;stroke-linecap:round;stroke-linejoin:round"
     d="M 1.8520833,3.4227836 H 15.081249 V 13.47695 H 1.8520833 Z"
     sodipodi:nodetypes="ccccc" />
  <rect
     style="opacity:1;fill:#dcf9f7;fill-opacity:1;stroke-width:1.85255;stroke-linecap:round;stroke-linejoin:round"
     id="rect3308"
     width="13.229166"
     height="0.52916664"
     x="1.8520833"
     y="8.2020836" />
  <path
     id="rect1116"
     style="opacity:1;fill:url(#linearGradient6862);fill-opacity:1;stroke-width:9;stroke-linecap:round;stroke-linejoin:round"
     d="M 12 4 C 7.5680001 4 4 7.5680001 4 12 L 4 52 C 4 56.432 7.5680001 60 12 60 L 52 60 C 56.432 60 60 56.432 60 52 L 60 12 C 60 7.5680001 56.432 4 52 4 L 12 4 z M 12 8 L 52 8 C 54.216 8 56 9.7840003 56 12 L 56 52 C 56 54.216 54.216 56 52 56 L 12 56 C 9.7840003 56 8 54.216 8 52 L 8 12 C 8 9.7840003 9.7840003 8 12 8 z "
     transform="scale(0.26458333)" />
  <path
     id="rect1345"
     style="opacity:0.3;fill:url(#linearGradient1781);fill-opacity:1;stroke-width:0.264583"
     d="m 3.1750003,1.0583333 c -1.172633,0 -2.116667,0.944034 -2.116667,2.116667 V 13.758333 c 0,1.172634 0.944034,2.116667 2.116667,2.116667 H 13.758334 c 1.172633,0 2.116666,-0.944033 2.116666,-2.116667 V 3.1750003 c 0,-1.172633 -0.944033,-2.116667 -2.116666,-2.116667 z m 0,0.264584 H 13.758334 c 1.026054,0 1.852083,0.826029 1.852083,1.852083 V 13.758333 c 0,1.026054 -0.826029,1.852084 -1.852083,1.852084 H 3.1750003 c -1.026054,0 -1.852083,-0.82603 -1.852083,-1.852084 V 3.1750003 c 0,-1.026054 0.826029,-1.852083 1.852083,-1.852083 z" />
  <path
     id="rect7949"
     style="opacity:0.3;fill:url(#linearGradient8262);fill-opacity:1;stroke-width:9.39129;stroke-linecap:round;stroke-linejoin:round"
     d="M 12 8 C 9.7839993 8 8 9.7839993 8 12 L 8 13 C 8 10.784 9.7840001 9 12 9 L 52 9 C 54.216 9 56 10.784 56 13 L 56 12 C 56 9.7839993 54.216001 8 52 8 L 12 8 z "
     transform="scale(0.26458333)" />
</svg>
