<?xml version="1.0" encoding="UTF-8" standalone="no"?>
<svg
   width="64"
   height="64"
   viewBox="0 0 16.933 16.933"
   version="1.1"
   id="svg37"
   sodipodi:docname="system-software-update (Copy).svg"
   inkscape:version="1.4 (e7c3feb100, 2024-10-09)"
   xmlns:inkscape="http://www.inkscape.org/namespaces/inkscape"
   xmlns:sodipodi="http://sodipodi.sourceforge.net/DTD/sodipodi-0.dtd"
   xmlns:xlink="http://www.w3.org/1999/xlink"
   xmlns="http://www.w3.org/2000/svg"
   xmlns:svg="http://www.w3.org/2000/svg">
  <sodipodi:namedview
     id="namedview39"
     pagecolor="#ffffff"
     bordercolor="#666666"
     borderopacity="1.0"
     inkscape:pageshadow="2"
     inkscape:pageopacity="0.0"
     inkscape:pagecheckerboard="0"
     showgrid="false"
     showguides="false"
     inkscape:zoom="6.2219351"
     inkscape:cx="28.929906"
     inkscape:cy="34.555166"
     inkscape:window-width="1920"
     inkscape:window-height="1015"
     inkscape:window-x="0"
     inkscape:window-y="0"
     inkscape:window-maximized="1"
     inkscape:current-layer="svg37"
     inkscape:showpageshadow="2"
     inkscape:deskcolor="#d1d1d1" />
  <defs
     id="defs17">
    <linearGradient
       id="a"
       x1="8.649"
       x2="8.649"
       y1="1.483"
       y2="15.436"
       gradientUnits="userSpaceOnUse">
      <stop
         stop-color="#17b7f1"
         offset="0"
         id="stop2" />
      <stop
         stop-color="#1763e1"
         offset="1"
         id="stop4" />
    </linearGradient>
    <linearGradient
       id="b"
       x1="499.95"
       x2="499.95"
       y1="2.008"
       y2="1026"
       gradientTransform="translate(2 2) scale(.99609)"
       gradientUnits="userSpaceOnUse">
      <stop
         stop-color="#fff"
         offset="0"
         id="stop7" />
      <stop
         stop-color="#d7d7d7"
         offset="1"
         id="stop9" />
    </linearGradient>
    <linearGradient
       id="c"
       x1="60.997"
       x2="60.997"
       y1="29.79"
       y2="104.85"
       gradientTransform="matrix(0.07932,0,0,-0.07931,6.953,17.692)"
       gradientUnits="userSpaceOnUse">
      <stop
         stop-color="#0059ff"
         offset="0"
         id="stop12" />
      <stop
         stop-color="#31fbff"
         offset="1"
         id="stop14" />
    </linearGradient>
    <linearGradient
       id="a-3"
       x2="1"
       gradientTransform="matrix(0.131484,-10,10,0.131484,141.887,14.578)"
       gradientUnits="userSpaceOnUse">
      <stop
         stop-color="#727272"
         offset="0"
         id="stop2-6" />
      <stop
         stop-color="#eee"
         offset="1"
         id="stop4-7" />
    </linearGradient>
    <linearGradient
       id="c-5"
       x2="1"
       gradientTransform="matrix(3.5,0,0,3.5,4,5.5)"
       gradientUnits="userSpaceOnUse"
       xlink:href="#b-3" />
    <linearGradient
       id="b-3">
      <stop
         stop-color="#d9d9d9"
         offset="0"
         id="stop7-5" />
      <stop
         stop-color="#eee"
         offset="1"
         id="stop9-6" />
    </linearGradient>
    <linearGradient
       id="d"
       x2="1"
       gradientTransform="matrix(-3.48396,0,0,-3.48396,43.984,5.5)"
       gradientUnits="userSpaceOnUse"
       xlink:href="#b-3" />
    <linearGradient
       id="e"
       x2="1"
       gradientTransform="matrix(0,-9.7893904,9.7893904,0,369.42743,10.523358)"
       gradientUnits="userSpaceOnUse">
      <stop
         stop-color="#d6d6d6"
         offset="0"
         id="stop14-2" />
      <stop
         stop-color="#fff"
         offset="1"
         id="stop16" />
    </linearGradient>
    <linearGradient
       id="g"
       x2="1"
       gradientTransform="matrix(1.4332195,0,0,1.4332195,21.309036,0.6004157)"
       gradientUnits="userSpaceOnUse"
       xlink:href="#f" />
    <linearGradient
       id="f">
      <stop
         stop-color="#ececec"
         offset="0"
         id="stop19" />
      <stop
         stop-color="#fff"
         offset="1"
         id="stop21" />
    </linearGradient>
    <linearGradient
       id="h"
       x2="1"
       gradientTransform="matrix(1.4332195,0,0,1.4332195,11.2765,0.79585473)"
       gradientUnits="userSpaceOnUse"
       xlink:href="#f" />
    <linearGradient
       id="i"
       x2="1"
       gradientTransform="matrix(0,-104860.86,104860.86,0,-22452.355,104859.83)"
       gradientUnits="userSpaceOnUse">
      <stop
         stop-color="#cdcdcd"
         offset="0"
         id="stop26" />
      <stop
         stop-color="#fff"
         offset="1"
         id="stop28" />
    </linearGradient>
    <linearGradient
       id="j"
       x2="1"
       gradientTransform="matrix(0,-5.2117065,5.2117065,0,76.923161,8.7847593)"
       gradientUnits="userSpaceOnUse">
      <stop
         stop-color="#404040"
         offset="0"
         id="stop31" />
      <stop
         stop-color="#606060"
         offset="1"
         id="stop33" />
    </linearGradient>
    <linearGradient
       id="a-3-9"
       x2="1"
       gradientTransform="matrix(0.131484,-10,10,0.131484,141.887,14.578)"
       gradientUnits="userSpaceOnUse">
      <stop
         stop-color="#727272"
         offset="0"
         id="stop2-6-1" />
      <stop
         stop-color="#eee"
         offset="1"
         id="stop4-7-2" />
    </linearGradient>
    <linearGradient
       id="c-5-7"
       x2="1"
       gradientTransform="matrix(3.5,0,0,3.5,4,5.5)"
       gradientUnits="userSpaceOnUse"
       xlink:href="#b-3" />
    <linearGradient
       id="d-3"
       x2="1"
       gradientTransform="matrix(-3.48396,0,0,-3.48396,43.984,5.5)"
       gradientUnits="userSpaceOnUse"
       xlink:href="#b-3" />
    <filter
       inkscape:collect="always"
       style="color-interpolation-filters:sRGB"
       id="filter2320"
       x="-0.047917797"
       y="-0.048082485"
       width="1.0958356"
       height="1.096165">
      <feGaussianBlur
         inkscape:collect="always"
         stdDeviation="0.22892244"
         id="feGaussianBlur2322" />
    </filter>
    <filter
       id="d-36"
       width="1.1499979"
       height="1.1499982"
       x="-0.074998972"
       y="-0.074999119"
       color-interpolation-filters="sRGB">
      <feGaussianBlur
         stdDeviation="31.874"
         id="feGaussianBlur4" />
    </filter>
    <linearGradient
       xlink:href="#b"
       id="e-3"
       x1="512"
       x2="512"
       y1="53"
       y2="925.69"
       gradientUnits="userSpaceOnUse" />
    <linearGradient
       inkscape:collect="always"
       xlink:href="#b"
       id="linearGradient3"
       gradientUnits="userSpaceOnUse"
       gradientTransform="matrix(0.99609,0,0,0.99609,2,2)"
       x1="499.95001"
       y1="2.0079999"
       x2="499.95001"
       y2="1026" />
  </defs>
  <g
     id="g975"
     transform="matrix(1.2922743,0,0,1.2922743,-13.514283,2.4217849)">
    <path
       style="mix-blend-mode:normal;fill:#000000;fill-opacity:1;stroke:none;stroke-width:0.204738px;stroke-linecap:butt;stroke-linejoin:miter;stroke-opacity:1;filter:url(#filter2320);opacity:0.5"
       d="M 12.329179,10.389203 11.362256,9.3040392 11.2765,0.79587904 11.819247,0.40209306 11.79767,-0.76765747 h 10.423415 v 1.3029269 L 22.742258,0.79587904 22.6102,9.3901359 21.782032,10.357596 20.71001,10.658829 Z"
       id="path1757" />
    <g
       transform="matrix(0.26058537,0,0,0.26058537,10.755329,-1.5494136)"
       id="g44">
      <path
         d="M 4,3 H 44 V 13 H 4 Z"
         fill="url(#a)"
         id="path36"
         style="fill:url(#a-3)" />
      <path
         d="M 4,3 V 30 L 7.5,5.5 Z"
         fill="url(#c)"
         fill-rule="nonzero"
         id="path38"
         style="fill:url(#c-5)" />
      <path
         d="M 44,3 V 8 L 40.5,5.5 Z"
         fill="url(#d)"
         fill-rule="nonzero"
         id="path40"
         style="fill:url(#d)" />
      <path
         d="M 7.5,5.5 15.2,11 H 4 Z"
         fill-opacity="0.08"
         fill-rule="nonzero"
         id="path42" />
    </g>
    <path
       d="M 22.742258,0.79587906 V 8.7877258 c 0,0.9096195 -0.738173,1.6477922 -1.647793,1.6477922 h -8.170172 c -0.90962,0 -1.647793,-0.7381727 -1.647793,-1.6477922 V 0.79587906 Z"
       fill="url(#e)"
       id="path46"
       style="fill:url(#e);stroke-width:0.264578" />
    <path
       d="m 22.742256,0.79585473 h -1.43322 v -0.9120488 z"
       fill="url(#g)"
       fill-rule="nonzero"
       id="path48"
       style="fill:url(#g);stroke-width:0.260585" />
    <path
       d="M 12.709719,-0.11619407 11.2765,0.79585473 h 1.433219 z"
       fill="url(#h)"
       fill-rule="nonzero"
       id="path50"
       style="fill:url(#h);stroke-width:0.260585" />
    <circle
       cx="14.403524"
       cy="2.0987816"
       r="0.52117074"
       fill-opacity="0.3"
       stroke-width="0.260585"
       id="circle52" />
    <circle
       cx="19.615232"
       cy="2.0987816"
       r="0.52117074"
       fill-opacity="0.3"
       stroke-width="0.260585"
       id="circle54" />
    <path
       d="m 19.615232,1.8381962 c 0,-1.42957133 -1.176283,-2.60585369 -2.605854,-2.60585369 -1.429571,0 -2.605854,1.17628236 -2.605854,2.60585369"
       fill="none"
       stroke="url(#i)"
       stroke-width="0.625405"
       id="path56"
       style="stroke:url(#i)" />
    <path
       d="m 18.554883,8.2766763 c -0.432642,0.3192712 -0.967192,0.508083 -1.545506,0.508083 -1.43818,0 -2.605854,-1.167674 -2.605854,-2.6058532 0,-1.4381793 1.167674,-2.6058533 2.605854,-2.6058533 0.578314,0 1.112864,0.1888119 1.545506,0.5080831 v -0.348239 h 1.060347 v 4.8920184 h -1.060347 z m 0.587692,-2.33639 c -0.0069,-0.060228 -0.07732,-0.1054512 -0.138378,-0.1054512 -0.196315,0 -0.370747,-0.1154545 -0.443896,-0.294263 -0.07523,-0.1827682 -0.02667,-0.3963798 0.119623,-0.5307988 0.04627,-0.041889 0.05168,-0.1125369 0.01313,-0.161928 C 18.592395,4.7200951 18.477774,4.6046406 18.352942,4.5043995 18.304176,4.46522 18.232069,4.4708468 18.19018,4.5177372 18.062013,4.6592418 17.832146,4.7121758 17.654588,4.6377765 17.469944,4.5602511 17.353239,4.3728981 17.364701,4.1717906 c 0.0038,-0.062937 -0.04251,-0.1179553 -0.105659,-0.1252494 -0.160261,-0.018756 -0.321564,-0.018965 -0.482658,-0.00125 -0.06231,0.00688 -0.108369,0.060645 -0.106493,0.1225401 0.0071,0.1992319 -0.111079,0.3834589 -0.293847,0.4582751 -0.175265,0.071482 -0.403882,0.01959 -0.531215,-0.1210813 -0.04231,-0.046057 -0.112746,-0.051892 -0.162345,-0.013546 -0.128375,0.1008663 -0.245706,0.2165292 -0.347197,0.3434458 -0.03939,0.049183 -0.03376,0.1206645 0.01271,0.1631784 0.150049,0.1352526 0.19819,0.3505314 0.120248,0.5353836 -0.07398,0.1765161 -0.257376,0.290095 -0.466819,0.290095 -0.06836,-0.00188 -0.116705,0.043556 -0.123999,0.1054512 -0.01917,0.1615112 -0.01917,0.3255232 -0.0013,0.4880765 0.0069,0.060645 0.07961,0.105868 0.140671,0.105868 0.186936,-0.005 0.366579,0.1106612 0.44202,0.2940546 0.07503,0.1829766 0.02688,0.3961714 -0.120039,0.5305904 -0.04606,0.042306 -0.05189,0.1129536 -0.01313,0.161928 0.09962,0.1273334 0.21382,0.2425794 0.339695,0.3434458 0.04897,0.040013 0.120664,0.033969 0.163387,-0.012713 0.128167,-0.1421299 0.358242,-0.1946471 0.534967,-0.1206645 0.18506,0.077525 0.301765,0.2648784 0.290303,0.4661943 -0.0038,0.063146 0.04251,0.1177469 0.10566,0.1254577 0.0819,0.00917 0.164428,0.01438 0.247372,0.01438 0.07836,0 0.156927,-0.00458 0.235286,-0.013338 0.06231,-0.00688 0.108577,-0.060645 0.106493,-0.122957 -0.0071,-0.1990235 0.110661,-0.3828337 0.293638,-0.4576498 0.176516,-0.072107 0.40409,-0.019381 0.531632,0.1210813 0.0421,0.045848 0.112329,0.051684 0.161928,0.013546 0.128584,-0.1010748 0.24508,-0.2163208 0.347405,-0.3434458 0.03939,-0.049183 0.03376,-0.1208729 -0.01271,-0.1631784 C 18.52133,7.2244568 18.472356,7.0091779 18.550089,6.8241173 18.623447,6.650102 18.799755,6.5329803 18.9894,6.5329803 l 0.02668,8.337e-4 C 19.07756,6.539024 19.134036,6.4913 19.14133,6.4287796 19.1605,6.2672683 19.1605,6.1030479 19.14263,5.9402863 Z m -2.129864,0.959064 c -0.394712,0 -0.715859,-0.3211468 -0.715859,-0.7160678 0,-0.3947126 0.321147,-0.7160678 0.715859,-0.7160678 0.394921,0 0.716068,0.3213552 0.716068,0.7160678 0,0.394921 -0.321147,0.7160678 -0.716068,0.7160678 z"
       fill="url(#j)"
       id="path58"
       style="fill:url(#j);stroke-width:0.208402" />
  </g>
  <g
     image-rendering="optimizeSpeed"
     transform="matrix(0.0083,0,0,0.0083,7.92,8.1838054)"
     id="g8">
    <path
       d="m 984.88,348.72 q -9.292,-22.529 -20.962,-44.139 A 452,452 0 0 0 949.98,280.378 C 928.856,246.126 903.086,213.764 872.669,183.349 773.101,83.781 652.839,33.969 511.999,33.969 c -140.85,0 -261.05,49.811 -360.61,149.38 -99.569,99.572 -149.38,219.78 -149.38,360.61 0,140.83 49.811,261.11 149.38,360.67 99.568,99.568 219.78,149.32 360.61,149.32 140.84,0 261.11,-49.758 360.67,-149.32 54.836,-54.89 94.598,-116.04 119.23,-183.42 20.043,-54.943 30.092,-113.99 30.092,-177.25 0,-48.515 -5.889,-94.598 -17.72,-138.25 a 657,657 0 0 0 -4.214,-14.695 498,498 0 0 0 -15.18,-42.302 z"
       filter="url(#d)"
       opacity="0.15"
       id="path6"
       style="filter:url(#d-36)" />
    <path
       fill="url(#a)"
       d="m 984.88,316.75 q -9.292,-22.529 -20.962,-44.139 A 452,452 0 0 0 949.98,248.408 C 928.856,214.156 903.086,181.794 872.669,151.379 773.101,51.811 652.839,1.999 511.999,1.999 c -140.85,0 -261.05,49.811 -360.61,149.38 -99.569,99.572 -149.38,219.78 -149.38,360.61 0,140.83 49.811,261.11 149.38,360.67 99.568,99.568 219.78,149.32 360.61,149.32 140.84,0 261.11,-49.758 360.67,-149.32 54.836,-54.89 94.598,-116.04 119.23,-183.42 20.043,-54.943 30.092,-113.99 30.092,-177.25 0,-48.515 -5.889,-94.598 -17.72,-138.25 a 657,657 0 0 0 -4.214,-14.695 498,498 0 0 0 -15.18,-42.302 z"
       id="path7"
       style="fill:url(#linearGradient3)" />
    <circle
       cx="512"
       cy="511.98999"
       r="458.98999"
       fill="#333333"
       id="circle7" />
    <path
       fill="url(#e)"
       d="m 731.1,171.44 c -5.247,17.051 -14.755,33.29 -17.3,50.856 10.213,11.324 27.841,29.648 41.722,12.95 13.171,-6.136 24.275,-24.735 39.294,-20.981 12.309,9.766 25.955,23.871 9.352,36.962 -5.879,13.095 -26.171,24.632 -18.793,39.704 8.31,15.044 21.742,27.382 38.347,15.241 13.406,-1.902 31.878,-20.441 41.33,-4.437 13.075,13.352 10.392,28.97 -6.473,37.028 -9.127,10.435 -33.223,17.758 -23.097,34.849 2.75,19.409 18.444,25.34 35.943,19.875 13.656,-0.079 36.855,-10.061 37.704,11.351 10.983,17.786 -6.255,26.752 -21.292,31.517 -13.468,5.942 -34.633,11.15 -26.498,30.397 -3.116,21.089 17.728,23.041 33.6,24.626 15.677,0.706 34.731,4.415 28.86,24.605 4.988,20.56 -20.006,17.861 -33.313,21.035 -17.01,-0.414 -31.994,7.159 -29.37,26.329 -7.03,19.993 18.398,22.392 30.907,29.836 18.401,3.178 24.921,17.594 16.02,33.794 -4.445,18.063 -27.735,5.293 -41.069,6.764 -18.044,-7.084 -28.754,6.114 -32.39,22.584 -6.476,17.348 18.202,24.12 27.503,35.454 19.257,8.04 10.15,25.38 0.831,37.906 -13.311,7.802 -29.136,-7.075 -43.455,-9.763 -16.508,-12.167 -26.873,6.837 -35.53,18.67 -2.012,16.065 15.814,27.66 22.879,41.574 15.293,13.063 -5.217,28.014 -16.312,35.215 -17.981,-6.947 -31.13,-24.065 -49.129,-31.044 -13.574,6.933 -35.915,19.17 -23.364,36.913 2.519,14.303 17.62,29.833 10.107,43.363 -12.614,9.374 -29.756,18.87 -38.101,-0.546 -11.134,-9.082 -17.041,-31.658 -33.505,-28.474 -16.685,4.116 -32.058,13.916 -24.632,33.085 -1.628,13.463 11.5,36.124 -6.4,41.138 -16.285,9.16 -30.667,2.527 -34.087,-15.847 -7.724,-11.527 -8.566,-36.725 -27.708,-31.35 -19.471,-2.354 -29.212,11.31 -28.48,29.614 -3.454,13.2 0.178,38.168 -20.711,33.455 -20.022,6.015 -24.217,-12.961 -24.928,-28.716 -2.237,-14.525 -1.812,-36.256 -22.475,-33.363 -19.566,-8.455 -26.893,11.118 -32.526,26.062 -4.727,14.955 -13.264,32.338 -31.223,21.465 -21.158,-0.498 -12.096,-23.955 -11.715,-37.635 4.802,-16.333 1.352,-32.765 -17.833,-35.238 -17.475,-12.006 -26.368,11.972 -36.795,22.117 -7.855,16.962 -23.461,19.594 -36.833,6.758 -16.29,-8.98 2.062,-28.161 4.094,-41.422 11.502,-15.608 1.603,-29.402 -13.435,-37.137 -15.105,-10.69 -28.021,11.356 -41.383,17.413 -12.746,16.513 -27.122,3.184 -36.806,-9.03 -4.146,-14.865 14.367,-26.312 20.664,-39.445 16.012,-12.785 0.262,-27.717 -8.862,-39.15 -14.977,-6.127 -30.794,8.119 -46.05,11.338 -16.557,11.387 -25.69,-12.277 -29.77,-24.846 11.388,-15.578 31.33,-23.871 42.75,-39.46 -3.179,-14.9 -9.216,-39.617 -29.593,-32.087 -14.494,-1.257 -33.412,9.294 -44.572,-1.448 -5.778,-14.616 -10.513,-33.626 10.401,-36.66 11.664,-8.409 35.023,-8.278 36.2,-25.017 0.333,-17.196 -5.198,-34.536 -25.627,-32.334 -12.57,-5.055 -37.835,1.758 -38.05,-16.816 -4.644,-18.103 5.488,-30.274 24.12,-28.822 13.101,-4.468 37.62,1.239 37.354,-18.62 7.286,-18.193 -3.322,-31.193 -21.216,-35.218 -11.845,-6.745 -36.857,-9.71 -26.909,-28.652 -0.635,-20.9 18.796,-20.055 34.202,-16.663 14.624,1.603 35.491,7.62 38.088,-13.08 13.28,-16.696 -3.759,-28.827 -16.732,-38.137 -13.234,-8.459 -27.873,-21.205 -12.686,-35.76 5.969,-20.296 26.274,-5.484 39.39,-1.574 14.538,8.842 31.351,9.853 38.667,-8.102 16.066,-13.803 -4.774,-28.587 -11.874,-41.29 -14.353,-11.974 -12.807,-27.715 3.027,-37.304 12.881,-13.452 26.667,9.26 38.95,14.66 12.08,15.164 27.96,9.07 39.327,-3.381 14.29,-11.793 -3.697,-29.992 -6.089,-44.458 -12.66,-16.578 3.954,-27.003 18.243,-33.2 15.416,-0.103 21.683,20.698 32.733,30.184 8.203,18.777 26.685,7.522 40.106,1.639 9.808,-12.885 0.132,-31.85 0.97,-47.424 -6.747,-18.978 18.459,-21.71 31.699,-22.383 12.088,15.053 14.96,36.449 27.049,51.536 15.232,0.785 40.655,1.307 38.65,-20.328 4.966,-13.664 -0.329,-34.642 12.923,-42.648 15.612,-1.807 35.198,-1.464 32.715,19.524 5.102,13.406 -1.083,35.91 14.767,41.346 16.517,4.742 34.742,3.941 37.906,-16.372 8.133,-10.818 8.09,-36.955 26.08,-32.354 18.694,0.19 27.838,13.143 21.614,30.768 0.922,13.828 -10.922,36.023 8.33,40.937 15.671,11.792 30.956,4.898 39.476,-11.346 9.6,-9.712 18.948,-33.153 34.686,-18.614 5.38,4.4 17.585,6.145 15.41,15.538 z m -78.338,97.95 c -66.223,-38.247 -149.7,-49.824 -222.43,-24.741 -36.187,30.905 14.938,71.477 25.188,103.76 20.88,33.949 35.191,72.507 60.436,103.43 33.188,34.934 83.547,21.805 126.03,22.879 38.02,-1.322 97.609,-1.003 121.47,-3.236 45.215,-20.914 1.92,-76.687 -11.978,-106.67 -24.338,-39.328 -58.612,-72.408 -98.713,-95.424 z m -4.616,491.4 c 66.888,-37.081 119.79,-102.68 135.76,-177.94 -7.857,-46.929 -68.954,-24.021 -101.9,-31.852 -39.849,0.412 -80.265,-7.18 -119.77,-1.479 -47.044,10.447 -61.728,60.38 -84.524,96.24 -18.446,33.273 -49.423,84.197 -59.799,105.79 -4.615,47.808 46.286,37.823 84.151,44.55 50.716,1.787 101.77,-10.61 146.08,-35.315 z m -334.03,-44.959 c 45.894,24.287 49.811,-29.754 74.046,-60.786 21.746,-39.924 48.048,-77.675 67.009,-118.94 12.68,-36.495 -7.67,-71.273 -28.377,-99.901 -25.482,-39.364 -49.257,-79.931 -75.733,-118.6 -41.061,-29.058 -68.497,35.269 -87.484,62.841 -59.759,107.5 -38.288,250.32 50.537,335.38 z"
       class="shp86"
       id="path8"
       style="fill:url(#e-3)" />
  </g>
</svg>
