<?xml version="1.0" encoding="UTF-8" standalone="no"?>
<svg
   id="App-Store"
   width="64"
   height="64"
   enable-background="new 0 0 1024 1024"
   image-rendering="optimizeSpeed"
   version="1.1"
   viewBox="0 0 64 64"
   sodipodi:docname="soundcloud.svg"
   inkscape:version="1.1.2 (0a00cf5339, 2022-02-04, custom)"
   xmlns:inkscape="http://www.inkscape.org/namespaces/inkscape"
   xmlns:sodipodi="http://sodipodi.sourceforge.net/DTD/sodipodi-0.dtd"
   xmlns:xlink="http://www.w3.org/1999/xlink"
   xmlns="http://www.w3.org/2000/svg"
   xmlns:svg="http://www.w3.org/2000/svg">
  <sodipodi:namedview
     id="namedview21"
     pagecolor="#ffffff"
     bordercolor="#666666"
     borderopacity="1.0"
     inkscape:pageshadow="2"
     inkscape:pageopacity="0.0"
     inkscape:pagecheckerboard="0"
     showgrid="false"
     inkscape:zoom="4.9485594"
     inkscape:cx="29.099378"
     inkscape:cy="18.187111"
     inkscape:window-width="1366"
     inkscape:window-height="703"
     inkscape:window-x="0"
     inkscape:window-y="37"
     inkscape:window-maximized="1"
     inkscape:current-layer="g1134" />
  <defs
     id="defs10">
    <filter
       id="filter873"
       x="-0.085157753"
       y="-0.14758821"
       width="1.1703155"
       height="1.2951764"
       color-interpolation-filters="sRGB">
      <feGaussianBlur
         stdDeviation="1.6366986"
         id="feGaussianBlur2" />
    </filter>
    <linearGradient
       id="linearGradient874"
       x1="357.8"
       x2="357.8"
       y1="546.73"
       y2="523.48"
       gradientTransform="matrix(2.1429,0,0,2.1429,-736.33,-1114)"
       gradientUnits="userSpaceOnUse">
      <stop
         stop-color="#197ff1"
         offset="0"
         id="stop5" />
      <stop
         stop-color="#21c6fb"
         offset="1"
         id="stop7" />
    </linearGradient>
    <linearGradient
       id="outerBackgroundGradient-46">
      <stop
         style="stop-color:#002b82;stop-opacity:1"
         offset="0"
         id="stop3864-8-6-1" />
      <stop
         style="stop-color:#3d83d0;stop-opacity:1"
         offset="1"
         id="stop3866-9-1-8" />
    </linearGradient>
    <linearGradient
       id="a"
       x2="1"
       gradientTransform="matrix(0,-56.000775,56.000775,0,31.999998,60.000126)"
       gradientUnits="userSpaceOnUse">
      <stop
         stop-color="#0a3a7f"
         offset="0"
         id="stop2"
         style="stop-color:#07296b;stop-opacity:1" />
      <stop
         stop-color="#3363c1"
         offset="1"
         id="stop4"
         style="stop-color:#568fda;stop-opacity:1" />
    </linearGradient>
    <linearGradient
       id="outerBackgroundGradient-5">
      <stop
         style="stop-color:#701a5f;stop-opacity:1"
         offset="0"
         id="stop3864-8-6-47" />
      <stop
         style="stop-color:#de7980;stop-opacity:1"
         offset="1"
         id="stop3866-9-1-22" />
    </linearGradient>
    <linearGradient
       id="outerBackgroundGradient-14">
      <stop
         style="stop-color:#0d65c5;stop-opacity:1"
         offset="0"
         id="stop3864-8-6-1-6" />
      <stop
         style="stop-color:#71d7ff;stop-opacity:1"
         offset="1"
         id="stop3866-9-1-758" />
    </linearGradient>
    <linearGradient
       id="outerBackgroundGradient">
      <stop
         style="stop-color:#00adef;stop-opacity:1;"
         offset="0"
         id="stop3864-8-6" />
      <stop
         style="stop-color:#1cc0ff;stop-opacity:1;"
         offset="1"
         id="stop3866-9-1" />
    </linearGradient>
    <linearGradient
       id="outerBackgroundGradient-7">
      <stop
         style="stop-color:#dd4814;stop-opacity:1;"
         offset="0"
         id="stop3864-8-6-4" />
      <stop
         style="stop-color:#ff6a37;stop-opacity:1;"
         offset="1"
         id="stop3866-9-1-5" />
    </linearGradient>
    <linearGradient
       id="linearGradient5062">
      <stop
         id="stop5064"
         style="stop-color:#202a34;stop-opacity:1"
         offset="0" />
      <stop
         id="stop5066"
         style="stop-color:#787e87;stop-opacity:1"
         offset="1" />
    </linearGradient>
    <linearGradient
       id="outerBackgroundGradient-1">
      <stop
         style="stop-color:#9b0739;stop-opacity:1"
         offset="0"
         id="stop3864-8-6-0" />
      <stop
         style="stop-color:#f385b0;stop-opacity:1"
         offset="1"
         id="stop3866-9-1-5-3" />
    </linearGradient>
    <linearGradient
       id="outerBackgroundGradient-5-6">
      <stop
         style="stop-color:#0e64e2;stop-opacity:1"
         offset="0"
         id="stop3864-8-6-7" />
      <stop
         style="stop-color:#47ddf8;stop-opacity:1"
         offset="1"
         id="stop3866-9-1-6" />
    </linearGradient>
    <linearGradient
       inkscape:collect="always"
       xlink:href="#outerBackgroundGradient-1-3"
       id="linearGradient4264"
       x1="293"
       y1="76"
       x2="379"
       y2="76"
       gradientUnits="userSpaceOnUse"
       gradientTransform="matrix(0,-914.70379,914.70379,0,-63135.495,309283.42)" />
    <linearGradient
       id="outerBackgroundGradient-1-3">
      <stop
         style="stop-color:#da2500;stop-opacity:1"
         offset="0"
         id="stop3864-8-6-5" />
      <stop
         style="stop-color:#fe9700;stop-opacity:1"
         offset="1"
         id="stop3866-9-1-4" />
    </linearGradient>
    <clipPath
       clipPathUnits="userSpaceOnUse"
       id="clipPath3911">
      <rect
         style="color:#bebebe;display:inline;overflow:visible;visibility:visible;fill:url(#linearGradient3915);fill-opacity:1;fill-rule:nonzero;stroke:none;stroke-width:0;marker:none;enable-background:accumulate"
         id="rect3913"
         width="88"
         height="88"
         x="292"
         y="32"
         ry="18" />
    </clipPath>
    <clipPath
       clipPathUnits="userSpaceOnUse"
       id="clipPath3911-6">
      <rect
         style="color:#bebebe;display:inline;overflow:visible;visibility:visible;fill:url(#linearGradient3915);fill-opacity:1;fill-rule:nonzero;stroke:none;stroke-width:0;marker:none;enable-background:accumulate"
         id="rect3913-7"
         width="88"
         height="88"
         x="292"
         y="32"
         ry="18" />
    </clipPath>
    <filter
       inkscape:collect="always"
       style="color-interpolation-filters:sRGB"
       id="filter2046"
       x="-0.048"
       y="-0.048"
       width="1.096"
       height="1.096">
      <feGaussianBlur
         inkscape:collect="always"
         stdDeviation="1591.5846"
         id="feGaussianBlur2048" />
    </filter>
    <linearGradient
       inkscape:collect="always"
       xlink:href="#linearGradient4146-2"
       id="linearGradient3897"
       gradientUnits="userSpaceOnUse"
       gradientTransform="matrix(737.78326,0,0,742.58979,-28148.073,-13051.013)"
       x1="104.60813"
       y1="-36.265301"
       x2="105.89959"
       y2="80.496735" />
    <linearGradient
       id="linearGradient4146-2">
      <stop
         style="stop-color:#f6f6f6;stop-opacity:1;"
         offset="0"
         id="stop4148-2" />
      <stop
         style="stop-color:#e2e2e2;stop-opacity:1;"
         offset="1"
         id="stop4150-8" />
    </linearGradient>
    <filter
       inkscape:collect="always"
       style="color-interpolation-filters:sRGB"
       id="filter1470"
       x="-0.077604849"
       y="-0.17753392"
       width="1.1552097"
       height="1.3550678">
      <feGaussianBlur
         inkscape:collect="always"
         stdDeviation="2218.2952"
         id="feGaussianBlur1472" />
    </filter>
  </defs>
  <g
     id="g6586"
     transform="matrix(0.25570776,0,0,0.25570776,25.878873,25.434852)">
    <g
       style="display:inline;enable-background:new"
       id="g5644"
       transform="matrix(2.1652989,0,0,2.1652989,-738.28121,-153.0942)" />
    <g
       id="g1708"
       transform="matrix(0.25570776,0,0,0.25570776,10.995147,18.737177)">
      <g
         id="g2249"
         transform="matrix(0.25570775,0,0,0.25570775,-0.16100029,29.40827)">
        <g
           id="g3600"
           transform="matrix(0.25570776,0,0,0.25570776,426.63956,190.64411)">
          <g
             id="g1134"
             transform="matrix(0.16365297,0,0,0.16365297,-1898.9108,-1098.3733)">
            <path
               style="color:#bebebe;display:inline;overflow:visible;visibility:visible;fill:#000000;fill-opacity:1;fill-rule:nonzero;stroke:none;stroke-width:1829.41;marker:none;enable-background:accumulate;filter:url(#filter2046);opacity:0.3"
               d="m -17400.305,-37846.669 c -8874.959,0 -16007.316,7132.359 -16007.316,16007.317 v 47564.597 c 0,8874.959 7132.357,16007.316 16007.316,16007.316 h 47564.597 c 8874.959,0 16007.316,-7132.357 16007.316,-16007.316 v -47564.597 c 0,-8874.958 -7132.357,-16007.317 -16007.316,-16007.317 z"
               id="path4210-4" />
            <path
               style="color:#bebebe;display:inline;overflow:visible;visibility:visible;fill:url(#linearGradient4264);fill-opacity:1;fill-rule:nonzero;stroke:none;stroke-width:1829.41;marker:none;enable-background:accumulate"
               d="m -17400.305,-37846.669 c -8874.959,0 -16007.316,7132.359 -16007.316,16007.317 v 47564.597 c 0,8874.959 7132.357,16007.316 16007.316,16007.316 h 47564.597 c 8874.959,0 16007.316,-7132.357 16007.316,-16007.316 v -47564.597 c 0,-8874.958 -7132.357,-16007.317 -16007.316,-16007.317 z"
               id="path4210" />
            <path
               sodipodi:nodetypes="scccsccccccscscccscccccccsccccccscccscccsscccscccsscccccscccscccccscccccscccscccsscccscccsccccsccccccscccscccsccccscccscccccsccccssccccccscccccc"
               inkscape:connector-curvature="0"
               d="m -27371.175,4883.9974 c -143.137,0 -256.761,111.336 -275.212,270.295 l -501.686,3835.481 501.686,3769.4366 c 18.58,158.858 132.06,269.551 275.212,269.551 138.634,0 251.572,-109.907 273.696,-268.079 v 0 0 0 l 594.672,-3770.9086 -594.672,-3836.196 c -21.295,-158.186 -135.776,-269.58 -273.696,-269.58 z m 2821.26,-2095.572 c -23.582,-164.861 -140.921,-278.47 -285.516,-278.47 -145.309,0 -265.593,117.339 -285.516,278.47 0,1.258 -674.337,6201.348 -674.337,6201.348 l 674.337,6064.0276 c 19.151,162.632 139.349,279.9 285.516,279.9 143.909,0 261.191,-114.338 284.773,-278.399 l 767.308,-6065.5146 z m 10627.044,-5720.171 c -276.684,0 -505.388,227.975 -518.68,517.565 l -537.103,11409.157 537.103,7373.1396 c 14.292,288.16 241.996,515.364 518.68,515.364 275.183,0 503.158,-227.904 519.394,-516.793 v 5.717 l 607.192,-7373.9546 -607.192,-11409.143 c -16.293,-289.618 -244.211,-517.565 -519.394,-517.565 z m -5500.171,3965.426 c -212.483,0 -385.862,170.792 -402.841,398.768 l -604.991,7559.54 604.991,7313.7996 c 16.293,226.518 190.358,397.31 402.841,397.31 210.267,0 383.647,-170.792 402.084,-397.31 l 687.614,-7313.7996 -687.614,-7561.012 c -18.437,-226.504 -191.817,-397.296 -402.084,-397.296 z M -8333.4173,16882.794 c 343.057,0 621.9414,-278.456 635.9624,-634.89 l 526.769,-7249.2266 -526.026,-15189.656 c -14.292,-356.434 -292.9194,-634.904 -635.9764,-634.904 -346.03,0 -625.643,279.199 -636.705,635.676 0,0.943 -467.014,15188.17 -467.014,15188.17 l 467.014,7252.0846 c 11.434,353.533 290.675,632.761 635.976,632.761 z m 11443.0014,33.73 c 472.187,0 861.736,-391.365 870.597,-872.556 v 5.717 -5.717 l 367.397,-7041.2596 -367.397,-17542.946 c -7.146,-480.448 -398.41,-872.513 -870.597,-872.513 -472.902,0 -863.195,391.336 -870.57,873.27 l -328.321,17536.229 c 0,11.434 328.321,7051.6786 328.321,7051.6786 7.146,476.732 398.397,868.097 870.57,868.097 z m -5765.035,-27.298 c 410.945,0 742.225,-331.966 753.287,-755.274 v 5.717 l 447.09,-7139.2766 -447.833,-15299.563 c -11.434,-423.279 -342.328,-754.474 -753.273,-754.474 -413.889,0 -745.169,331.195 -754.016,754.474 l -397.667,15300.307 398.41,7137.8326 c 8.576,418.748 340.127,750.714 754.002,750.714 z m -14028.2111,-66.745 c 244.212,0 441.931,-196.733 460.382,-455.88 l 647.768,-7374.6546 -647.768,-7015.235 c -17.865,-259.147 -215.441,-454.451 -460.382,-454.451 -247.884,0 -445.618,196.79 -461.096,457.438 l -570.318,7012.262 570.318,7373.9546 c 16.293,259.876 213.212,456.609 461.096,456.609 z m -5456.652,-403.913 c 178.554,0 323.162,-141.922 343.815,-337.855 l 727.462,-7090.3106 -726.733,-7357.562 c -21.439,-196.776 -165.99,-338.627 -344.544,-338.627 -180.754,0 -325.362,142.637 -343.799,338.627 0,0.957 -640.393,7357.562 -640.393,7357.562 l 640.393,7088.8106 c 17.722,196.804 162.317,339.355 343.799,339.355 z M 216.0041,-6554.2156 c -446.361,0 -804.196,357.206 -813.043,814.643 l -362.994,14741.137 362.994,7093.2266 c 8.575,451.535 365.953,808.67 813.043,808.67 445.632,0 801.223,-356.434 811.571,-813.858 v 5.717 l 407.243,-7093.2836 -407.243,-14742.738 c -11.434,-455.937 -365.939,-813.114 -811.571,-813.114 z M -11138.485,16897.515 c 308.384,0 562.929,-253.201 577.693,-576.249 l 566.6157,-7324.1886 -566.6157,-14018.579 c -15.579,-323.776 -269.309,-576.249 -577.693,-576.249 -311.342,0 -565.144,253.216 -578.421,576.249 0,0.972 -501.686,14018.579 -501.686,14018.579 l 502.443,7327.1756 c 12.863,320.061 266.322,573.262 577.664,573.262 z m 6327.2351,-691.273 v -5.717 l 486.937,-7203.1336 -486.937,-15701.304 c -12.863,-389.864 -317.245,-695.804 -694.26,-695.804 -379.216,0 -684.656,305.24 -694.989,695.804 l -432.341,15700.561 433.084,7206.8496 c 11.434,386.162 315.759,691.33 694.246,691.33 377.758,0 681.711,-305.168 694.26,-693.631 v 5.717 z M 32017.423,-51.3436 c -1156.114,0 -2259.104,235.421 -3263.963,659.415 -671.378,-7654.627 -7048.779,-13659.1854 -14827.962,-13659.1854 -1903.484,0 -3759.004,377.216 -5397.6379,1015.108 -636.691,248.027 -806.397,503.501 -812.3,998.813 v 26956.018 c 5.717,519.809 407.272,952.707 911.174,1003.888 21.438,5.716 23239.4339,14.292 23389.9459,14.292 4659.844,0 8438.027,-3802.781 8438.027,-8493.7666 0,-4690.915 -3777.455,-8494.468 -8437.284,-8494.468 z M 5990.6431,-11060.446 c -506.874,0 -922.979,418.82 -930.354,933.426 l -380.702,19132.8154 381.431,6943.9866 c 5.717,507.189 422.751,925.294 929.625,925.294 505.374,0 921.478,-418.119 928.853,-932.726 v 7.146 l 413.904,-6944.7296 -413.904,-19134.3014 c -7.146,-513.106 -423.479,-931.926 -928.853,-931.926 z"
               id="path3850-7"
               style="display:inline;fill:#000000;fill-opacity:1;stroke-width:1429.22;enable-background:new;filter:url(#filter1470);opacity:0.4" />
            <path
               sodipodi:nodetypes="scccsccccccscscccscccccccsccccccscccscccsscccscccsscccccscccscccccscccccscccscccsscccscccsccccsccccccscccscccsccccscccscccccsccccssccccccscccccc"
               inkscape:connector-curvature="0"
               d="m -27371.175,4883.9976 c -143.137,0 -256.761,111.336 -275.212,270.295 l -501.686,3835.4812 501.686,3769.4372 c 18.58,158.858 132.06,269.551 275.212,269.551 138.634,0 251.572,-109.907 273.696,-268.079 v 0 0 0 l 594.672,-3770.9092 -594.672,-3836.1962 c -21.295,-158.186 -135.776,-269.58 -273.696,-269.58 z m 2821.26,-2095.572 c -23.582,-164.861 -140.921,-278.47 -285.516,-278.47 -145.309,0 -265.593,117.339 -285.516,278.47 0,1.258 -674.337,6201.3482 -674.337,6201.3482 l 674.337,6064.0282 c 19.151,162.632 139.349,279.9 285.516,279.9 143.909,0 261.191,-114.338 284.773,-278.399 l 767.308,-6065.5149 z m 10627.044,-5720.171 c -276.684,0 -505.388,227.975 -518.68,517.565 l -537.103,11409.1566 537.103,7373.1408 c 14.292,288.16 241.996,515.364 518.68,515.364 275.183,0 503.158,-227.904 519.394,-516.793 v 5.717 l 607.192,-7373.9558 -607.192,-11409.1426 c -16.293,-289.618 -244.211,-517.565 -519.394,-517.565 z m -5500.171,3965.426 c -212.483,0 -385.862,170.792 -402.841,398.768 l -604.991,7559.5405 604.991,7313.7999 c 16.293,226.518 190.358,397.31 402.841,397.31 210.267,0 383.647,-170.792 402.084,-397.31 l 687.614,-7313.7999 -687.614,-7561.0125 c -18.437,-226.504 -191.817,-397.296 -402.084,-397.296 z M -8333.4174,16882.795 c 343.057,0 621.941,-278.456 635.962,-634.89 l 526.769,-7249.2271 -526.026,-15189.6563 c -14.292,-356.434 -292.919,-634.904 -635.976,-634.904 -346.03,0 -625.643,279.199 -636.705,635.676 0,0.943 -467.014,15188.1697 -467.014,15188.1697 l 467.014,7252.0857 c 11.434,353.533 290.675,632.761 635.976,632.761 z m 11443.0015,33.73 c 472.187,0 861.736,-391.365 870.597,-872.556 v 5.717 -5.717 l 367.397,-7041.2607 -367.397,-17542.9457 c -7.146,-480.448 -398.41,-872.513 -870.597,-872.513 -472.902,0 -863.195,391.336 -870.57,873.27 l -328.321,17536.2288 c 0,11.4338 328.321,7051.6796 328.321,7051.6796 7.146,476.732 398.397,868.097 870.57,868.097 z m -5765.0351,-27.298 c 410.945,0 742.225,-331.966 753.2872,-755.274 v 5.717 l 447.09,-7139.277 -447.8332,-15299.5634 c -11.4338,-423.279 -342.3279,-754.474 -753.2729,-754.474 -413.8891,0 -745.1691,331.195 -754.016,754.474 l -397.6675,15300.3066 398.4107,7137.8338 c 8.5754,418.748 340.1269,750.714 754.0017,750.714 z m -14028.211,-66.745 c 244.212,0 441.931,-196.733 460.382,-455.88 l 647.768,-7374.6558 -647.768,-7015.2346 c -17.865,-259.147 -215.441,-454.451 -460.382,-454.451 -247.884,0 -445.618,196.79 -461.096,457.438 l -570.318,7012.2619 570.318,7373.9555 c 16.293,259.876 213.212,456.609 461.096,456.609 z m -5456.652,-403.913 c 178.554,0 323.162,-141.922 343.815,-337.855 l 727.462,-7090.3113 -726.733,-7357.5621 c -21.439,-196.776 -165.99,-338.627 -344.544,-338.627 -180.754,0 -325.362,142.637 -343.799,338.627 0,0.957 -640.393,7357.5621 -640.393,7357.5621 l 640.393,7088.8113 c 17.722,196.804 162.317,339.355 343.799,339.355 z M 216.00407,-6554.2154 c -446.361,0 -804.196,357.206 -813.043,814.643 l -362.994,14741.1373 362.994,7093.2271 c 8.575,451.535 365.953,808.67 813.043,808.67 445.632,0 801.22303,-356.434 811.57103,-813.858 v 5.717 l 407.243,-7093.2844 -407.243,-14742.738 c -11.434,-455.937 -365.93903,-813.114 -811.57103,-813.114 z M -11138.485,16897.516 c 308.384,0 562.929,-253.201 577.693,-576.249 l 566.6156,-7324.1898 -566.6156,-14018.5786 c -15.579,-323.776 -269.309,-576.249 -577.693,-576.249 -311.342,0 -565.144,253.216 -578.421,576.249 0,0.972 -501.686,14018.5786 -501.686,14018.5786 l 502.443,7327.1768 c 12.863,320.061 266.322,573.262 577.664,573.262 z m 6327.2346,-691.273 v -5.717 l 486.937,-7203.1344 -486.937,-15701.304 c -12.863,-389.864 -317.245,-695.804 -694.26,-695.804 -379.216,0 -684.656,305.24 -694.989,695.804 l -432.341,15700.5608 433.084,7206.8506 c 11.434,386.162 315.759,691.33 694.246,691.33 377.758,0 681.711,-305.168 694.26,-693.631 v 5.717 z M 32017.423,-51.343447 c -1156.114,0 -2259.104,235.420997 -3263.963,659.414997 C 28082.082,-7046.5554 21704.681,-13051.113 13925.498,-13051.113 c -1903.484,0 -3759.004,377.215 -5397.6379,1015.107 -636.691,248.027 -806.397,503.501 -812.3,998.813 v 26956.019 c 5.717,519.809 407.272,952.707 911.174,1003.888 21.438,5.716 23239.4339,14.292 23389.9459,14.292 4659.844,0 8438.027,-3802.781 8438.027,-8493.7677 0,-4690.9147 -3777.455,-8494.467747 -8437.284,-8494.467747 z M 5990.6431,-11060.446 c -506.874,0 -922.979,418.82 -930.354,933.426 l -380.702,19132.8154 381.431,6943.9876 c 5.717,507.189 422.751,925.294 929.625,925.294 505.374,0 921.478,-418.119 928.853,-932.726 v 7.146 l 413.904,-6944.7306 -413.904,-19134.3014 c -7.146,-513.106 -423.479,-931.926 -928.853,-931.926 z"
               id="path3850"
               style="display:inline;fill:url(#linearGradient3897);fill-opacity:1;stroke-width:1429.22;enable-background:new" />
          </g>
        </g>
      </g>
    </g>
  </g>
</svg>
