<?xml version="1.0" encoding="UTF-8" standalone="no"?>
<!-- Created with Inkscape (http://www.inkscape.org/) -->

<svg
   xmlns:dc="http://purl.org/dc/elements/1.1/"
   xmlns:cc="http://creativecommons.org/ns#"
   xmlns:rdf="http://www.w3.org/1999/02/22-rdf-syntax-ns#"
   xmlns:svg="http://www.w3.org/2000/svg"
   xmlns="http://www.w3.org/2000/svg"
   xmlns:xlink="http://www.w3.org/1999/xlink"
   xmlns:sodipodi="http://sodipodi.sourceforge.net/DTD/sodipodi-0.dtd"
   xmlns:inkscape="http://www.inkscape.org/namespaces/inkscape"
   width="96"
   height="96"
   id="svg2"
   version="1.1"
   inkscape:version="0.48.4 r9939"
   sodipodi:docname="stardict.svg">
  <defs
     id="defs4">
    <linearGradient
       id="linearGradient4298"
       inkscape:collect="always">
      <stop
         id="stop4300"
         offset="0"
         style="stop-color:#4a695a;stop-opacity:1" />
      <stop
         style="stop-color:#3f6252;stop-opacity:0.66666667;"
         offset="0.51535559"
         id="stop4304" />
      <stop
         id="stop4302"
         offset="1"
         style="stop-color:#295542;stop-opacity:0" />
    </linearGradient>
    <linearGradient
       inkscape:collect="always"
       id="linearGradient3142">
      <stop
         style="stop-color:#ffdb94;stop-opacity:1"
         offset="0"
         id="stop3144" />
      <stop
         style="stop-color:#efc142;stop-opacity:0"
         offset="1"
         id="stop3146" />
    </linearGradient>
    <linearGradient
       id="linearGradient3126"
       inkscape:collect="always">
      <stop
         id="stop3128"
         offset="0"
         style="stop-color:#214531;stop-opacity:1" />
      <stop
         id="stop3130"
         offset="1"
         style="stop-color:#31554a;stop-opacity:1" />
    </linearGradient>
    <linearGradient
       inkscape:collect="always"
       id="linearGradient3225">
      <stop
         style="stop-color:#1b2a2e;stop-opacity:1"
         offset="0"
         id="stop3227" />
      <stop
         style="stop-color:#425c52;stop-opacity:1"
         offset="1"
         id="stop3231" />
    </linearGradient>
    <linearGradient
       id="linearGradient3199"
       inkscape:collect="always">
      <stop
         id="stop3201"
         offset="0"
         style="stop-color:#182c21;stop-opacity:1" />
      <stop
         id="stop3203"
         offset="1"
         style="stop-color:#414c49;stop-opacity:1" />
    </linearGradient>
    <linearGradient
       inkscape:collect="always"
       id="linearGradient3222">
      <stop
         style="stop-color:#de005a;stop-opacity:1"
         offset="0"
         id="stop3224" />
      <stop
         style="stop-color:#a30444;stop-opacity:1"
         offset="1"
         id="stop3226" />
    </linearGradient>
    <linearGradient
       id="linearGradient3076"
       inkscape:collect="always">
      <stop
         id="stop3078"
         offset="0"
         style="stop-color:#ffe7f7;stop-opacity:1" />
      <stop
         id="stop3080"
         offset="1"
         style="stop-color:#ffc3ef;stop-opacity:1" />
    </linearGradient>
    <linearGradient
       inkscape:collect="always"
       id="linearGradient3048">
      <stop
         style="stop-color:#c16d16;stop-opacity:1"
         offset="0"
         id="stop3050" />
      <stop
         style="stop-color:#ff8e31;stop-opacity:1"
         offset="1"
         id="stop3052" />
    </linearGradient>
    <linearGradient
       inkscape:collect="always"
       id="linearGradient3119">
      <stop
         style="stop-color:#92948f;stop-opacity:0"
         offset="0"
         id="stop3121" />
      <stop
         id="stop3123"
         offset="0.4283945"
         style="stop-color:#9b9e98;stop-opacity:1" />
      <stop
         style="stop-color:#939690;stop-opacity:0"
         offset="1"
         id="stop3125" />
    </linearGradient>
    <linearGradient
       id="linearGradient3073"
       inkscape:collect="always">
      <stop
         id="stop3075"
         offset="0"
         style="stop-color:#ffffff;stop-opacity:0" />
      <stop
         style="stop-color:#ffffff;stop-opacity:1"
         offset="0.45872402"
         id="stop3085" />
      <stop
         id="stop3083"
         offset="1"
         style="stop-color:#ffffff;stop-opacity:0" />
    </linearGradient>
    <linearGradient
       inkscape:collect="always"
       id="linearGradient3047">
      <stop
         style="stop-color:#000000;stop-opacity:1"
         offset="0"
         id="stop3049" />
      <stop
         id="stop3055"
         offset="0.06123874"
         style="stop-color:#1a1a1a;stop-opacity:1" />
      <stop
         style="stop-color:#333333;stop-opacity:1"
         offset="0.16480456"
         id="stop3057" />
      <stop
         id="stop3059"
         offset="0.55385184"
         style="stop-color:#4d4d4d;stop-opacity:1" />
      <stop
         style="stop-color:#999999;stop-opacity:1"
         offset="1"
         id="stop3051" />
    </linearGradient>
    <linearGradient
       id="linearGradient3041"
       inkscape:collect="always">
      <stop
         id="stop3043"
         offset="0"
         style="stop-color:#1a1a1a;stop-opacity:1" />
      <stop
         id="stop3045"
         offset="1"
         style="stop-color:#808080;stop-opacity:1" />
    </linearGradient>
    <linearGradient
       inkscape:collect="always"
       id="linearGradient3029">
      <stop
         style="stop-color:#333333;stop-opacity:1"
         offset="0"
         id="stop3031" />
      <stop
         style="stop-color:#e0e0dd;stop-opacity:0;"
         offset="1"
         id="stop3033" />
    </linearGradient>
    <linearGradient
       inkscape:collect="always"
       xlink:href="#linearGradient3029"
       id="linearGradient3035"
       x1="35.355339"
       y1="1030.3622"
       x2="35.355339"
       y2="975.33282"
       gradientUnits="userSpaceOnUse"
       gradientTransform="matrix(1.1638085,0,0,1.1638085,-7.862809,-164.23642)" />
    <linearGradient
       inkscape:collect="always"
       xlink:href="#linearGradient3041"
       id="linearGradient3039"
       gradientUnits="userSpaceOnUse"
       x1="35.355339"
       y1="1030.3622"
       x2="35.355339"
       y2="975.33282"
       gradientTransform="matrix(1.1218695,0,0,1.1218695,-5.8497348,-122.18782)" />
    <linearGradient
       inkscape:collect="always"
       xlink:href="#linearGradient3047"
       id="linearGradient3053"
       x1="40"
       y1="1043.4336"
       x2="39.285713"
       y2="972.33325"
       gradientUnits="userSpaceOnUse" />
    <linearGradient
       inkscape:collect="always"
       xlink:href="#linearGradient3073"
       id="linearGradient3113"
       gradientUnits="userSpaceOnUse"
       gradientTransform="translate(0,-956.36218)"
       x1="14.869445"
       y1="978.90387"
       x2="24.52651"
       y2="969.24683" />
    <linearGradient
       inkscape:collect="always"
       xlink:href="#linearGradient3073"
       id="linearGradient3115"
       gradientUnits="userSpaceOnUse"
       gradientTransform="matrix(-1,0,0,1,96,-956.36218)"
       x1="15.152279"
       y1="978.62103"
       x2="26.263966"
       y2="967.50934" />
    <linearGradient
       inkscape:collect="always"
       xlink:href="#linearGradient3119"
       id="linearGradient3117"
       gradientUnits="userSpaceOnUse"
       gradientTransform="translate(0,-956.36218)"
       x1="13.131983"
       y1="980.64136"
       x2="25.549681"
       y2="967.86646" />
    <linearGradient
       inkscape:collect="always"
       xlink:href="#linearGradient3119"
       id="linearGradient3129"
       gradientUnits="userSpaceOnUse"
       gradientTransform="matrix(-1,0,0,1,96,0)"
       x1="13.131983"
       y1="980.64136"
       x2="25.549681"
       y2="967.86646" />
    <linearGradient
       inkscape:collect="always"
       xlink:href="#linearGradient3048"
       id="linearGradient3054"
       x1="49.267925"
       y1="996.57349"
       x2="49.267925"
       y2="1045.8627"
       gradientUnits="userSpaceOnUse" />
    <linearGradient
       inkscape:collect="always"
       xlink:href="#linearGradient3048"
       id="linearGradient3058"
       x1="115.80308"
       y1="985.47241"
       x2="115.80308"
       y2="1033.5543"
       gradientUnits="userSpaceOnUse" />
    <linearGradient
       inkscape:collect="always"
       xlink:href="#linearGradient3222"
       id="linearGradient3055"
       gradientUnits="userSpaceOnUse"
       x1="115.80308"
       y1="985.47241"
       x2="115.80308"
       y2="1025.3639"
       gradientTransform="matrix(1.4144782,0,0,1.4144782,-119.78686,-419.05496)" />
    <linearGradient
       inkscape:collect="always"
       xlink:href="#linearGradient3076"
       id="linearGradient3086"
       gradientUnits="userSpaceOnUse"
       gradientTransform="matrix(1.4144782,0,0,1.4144782,-119.78686,-417.12598)"
       x1="115.80308"
       y1="985.47241"
       x2="115.80308"
       y2="1025.3639" />
    <linearGradient
       inkscape:collect="always"
       xlink:href="#linearGradient3076"
       id="linearGradient3091"
       gradientUnits="userSpaceOnUse"
       gradientTransform="matrix(1.4144782,0,0,1.4144782,-119.78686,-418.126)"
       x1="115.80308"
       y1="985.47241"
       x2="115.80308"
       y2="1025.3639" />
    <linearGradient
       inkscape:collect="always"
       xlink:href="#linearGradient3076"
       id="linearGradient3093"
       gradientUnits="userSpaceOnUse"
       gradientTransform="matrix(1.4144782,0,0,1.4144782,-119.78686,-1375.4171)"
       x1="115.80308"
       y1="985.47241"
       x2="115.80308"
       y2="1025.3639" />
    <linearGradient
       inkscape:collect="always"
       xlink:href="#linearGradient3225"
       id="linearGradient3155"
       gradientUnits="userSpaceOnUse"
       x1="34.368782"
       y1="1045.1626"
       x2="34.368782"
       y2="962.46661"
       gradientTransform="translate(-96,0)" />
    <linearGradient
       inkscape:collect="always"
       xlink:href="#linearGradient3199"
       id="linearGradient3346"
       gradientUnits="userSpaceOnUse"
       gradientTransform="matrix(0,-1,-1,0,1053.3622,1052.3622)"
       x1="6.4664979"
       y1="963.49542"
       x2="89.618896"
       y2="963.49542" />
    <linearGradient
       inkscape:collect="always"
       xlink:href="#linearGradient3126"
       id="linearGradient3124"
       gradientUnits="userSpaceOnUse"
       gradientTransform="translate(-96,-5.2343748e-6)"
       x1="62.620525"
       y1="1044.8497"
       x2="62.620525"
       y2="985.95312" />
    <linearGradient
       inkscape:collect="always"
       xlink:href="#linearGradient3142"
       id="linearGradient3148"
       x1="75.713211"
       y1="1036.0603"
       x2="67.381134"
       y2="1024.4679"
       gradientUnits="userSpaceOnUse" />
    <linearGradient
       inkscape:collect="always"
       xlink:href="#linearGradient4298"
       id="linearGradient3191"
       gradientUnits="userSpaceOnUse"
       x1="75.325203"
       y1="1035.9027"
       x2="66.832405"
       y2="1024.5504"
       gradientTransform="matrix(-1,0,0,1,96,0)" />
    <linearGradient
       inkscape:collect="always"
       xlink:href="#linearGradient3225"
       id="linearGradient3112"
       gradientUnits="userSpaceOnUse"
       gradientTransform="translate(42.838419,0)"
       x1="34.368782"
       y1="1045.1626"
       x2="34.368782"
       y2="962.46661" />
    <linearGradient
       inkscape:collect="always"
       xlink:href="#linearGradient3126"
       id="linearGradient3114"
       gradientUnits="userSpaceOnUse"
       gradientTransform="translate(42.838419,-5.2343748e-6)"
       x1="62.620525"
       y1="1044.8497"
       x2="62.620525"
       y2="985.95312" />
    <linearGradient
       inkscape:collect="always"
       xlink:href="#linearGradient3199"
       id="linearGradient3116"
       gradientUnits="userSpaceOnUse"
       gradientTransform="matrix(0,-1,-1,0,914.52378,1052.3622)"
       x1="6.4664979"
       y1="963.49542"
       x2="89.618896"
       y2="963.49542" />
    <linearGradient
       inkscape:collect="always"
       xlink:href="#linearGradient4298"
       id="linearGradient3118"
       gradientUnits="userSpaceOnUse"
       gradientTransform="matrix(-1,0,0,1,-77.676103,0)"
       x1="75.325203"
       y1="1035.9027"
       x2="66.832405"
       y2="1024.5504" />
    <linearGradient
       inkscape:collect="always"
       xlink:href="#linearGradient3131"
       id="linearGradient3183"
       gradientUnits="userSpaceOnUse"
       gradientTransform="translate(165.17783,-19.21395)"
       x1="-72.606209"
       y1="1059.8721"
       x2="-117.01132"
       y2="982.96021" />
    <linearGradient
       inkscape:collect="always"
       id="linearGradient3131">
      <stop
         style="stop-color:#17442b;stop-opacity:1"
         offset="0"
         id="stop3133" />
      <stop
         style="stop-color:#385b4c;stop-opacity:0.99607843"
         offset="1"
         id="stop3135" />
    </linearGradient>
    <linearGradient
       y2="982.96021"
       x2="-117.01132"
       y1="1059.8721"
       x1="-72.606209"
       gradientTransform="translate(165.17783,-19.21395)"
       gradientUnits="userSpaceOnUse"
       id="linearGradient3160"
       xlink:href="#linearGradient3131"
       inkscape:collect="always" />
    <linearGradient
       gradientTransform="translate(0,956.36296)"
       inkscape:collect="always"
       xlink:href="#linearGradient3148-5"
       id="linearGradient3154"
       x1="16.503042"
       y1="58.25"
       x2="6.2307978"
       y2="58.25"
       gradientUnits="userSpaceOnUse" />
    <linearGradient
       inkscape:collect="always"
       id="linearGradient3148-5">
      <stop
         style="stop-color:#000000;stop-opacity:0.75"
         offset="0"
         id="stop3150" />
      <stop
         id="stop3147"
         offset="0.53976041"
         style="stop-color:#153124;stop-opacity:1;" />
      <stop
         style="stop-color:#183829;stop-opacity:1"
         offset="1"
         id="stop3152" />
    </linearGradient>
    <linearGradient
       inkscape:collect="always"
       xlink:href="#linearGradient3131-6"
       id="linearGradient3183-3"
       gradientUnits="userSpaceOnUse"
       gradientTransform="translate(165.17783,-19.21395)"
       x1="-72.606209"
       y1="1059.8721"
       x2="-117.01132"
       y2="982.96021" />
    <linearGradient
       inkscape:collect="always"
       id="linearGradient3131-6">
      <stop
         style="stop-color:#17442b;stop-opacity:1"
         offset="0"
         id="stop3133-4" />
      <stop
         style="stop-color:#385b4c;stop-opacity:0.99607843"
         offset="1"
         id="stop3135-5" />
    </linearGradient>
    <linearGradient
       y2="982.96021"
       x2="-117.01132"
       y1="1059.8721"
       x1="-72.606209"
       gradientTransform="translate(165.17783,-19.21317)"
       gradientUnits="userSpaceOnUse"
       id="linearGradient3197"
       xlink:href="#linearGradient3131-6"
       inkscape:collect="always" />
    <linearGradient
       inkscape:collect="always"
       xlink:href="#linearGradient4298"
       id="linearGradient3208"
       gradientUnits="userSpaceOnUse"
       x1="75.325203"
       y1="1035.9027"
       x2="66.832405"
       y2="1024.5504" />
    <linearGradient
       inkscape:collect="always"
       xlink:href="#linearGradient4298"
       id="linearGradient3210"
       gradientUnits="userSpaceOnUse"
       gradientTransform="matrix(-1,0,0,1,-42.838419,0)"
       x1="75.325203"
       y1="1035.9027"
       x2="66.832405"
       y2="1024.5504" />
    <linearGradient
       inkscape:collect="always"
       xlink:href="#linearGradient4298"
       id="linearGradient3120"
       gradientUnits="userSpaceOnUse"
       gradientTransform="matrix(-1,0,0,1,-42.838419,0)"
       x1="75.325203"
       y1="1035.9027"
       x2="66.832405"
       y2="1024.5504" />
    <linearGradient
       inkscape:collect="always"
       xlink:href="#linearGradient3199"
       id="linearGradient3132"
       gradientUnits="userSpaceOnUse"
       gradientTransform="matrix(0,-1,-1,0,914.52378,1052.3622)"
       x1="6.4664979"
       y1="963.49542"
       x2="89.618896"
       y2="963.49542" />
    <linearGradient
       inkscape:collect="always"
       xlink:href="#linearGradient3126"
       id="linearGradient3135"
       gradientUnits="userSpaceOnUse"
       gradientTransform="translate(42.838419,-5.2343748e-6)"
       x1="62.620525"
       y1="1044.8497"
       x2="62.620525"
       y2="985.95312" />
    <linearGradient
       inkscape:collect="always"
       xlink:href="#linearGradient3225"
       id="linearGradient3138"
       gradientUnits="userSpaceOnUse"
       gradientTransform="translate(42.838419,0)"
       x1="34.368782"
       y1="1045.1626"
       x2="34.368782"
       y2="962.46661" />
  </defs>
  <sodipodi:namedview
     id="base"
     pagecolor="#ffffff"
     bordercolor="#666666"
     borderopacity="1.0"
     inkscape:pageopacity="0.0"
     inkscape:pageshadow="2"
     inkscape:zoom="1.9519093"
     inkscape:cx="94.062684"
     inkscape:cy="27.520155"
     inkscape:document-units="px"
     inkscape:current-layer="layer1"
     showgrid="false"
     inkscape:window-width="1366"
     inkscape:window-height="701"
     inkscape:window-x="0"
     inkscape:window-y="28"
     inkscape:window-maximized="1"
     showguides="false"
     inkscape:guide-bbox="true">
    <sodipodi:guide
       orientation="0,1"
       position="120.2717,73.17736"
       id="guide4443" />
    <sodipodi:guide
       orientation="0,1"
       position="142.73208,28.256604"
       id="guide4445" />
    <sodipodi:guide
       orientation="0,1"
       position="193.81133,64.845285"
       id="guide3247" />
    <sodipodi:guide
       orientation="0,1"
       position="112.32592,86.966131"
       id="guide3344" />
  </sodipodi:namedview>
  <metadata
     id="metadata7">
    <rdf:RDF>
      <cc:Work
         rdf:about="">
        <dc:format>image/svg+xml</dc:format>
        <dc:type
           rdf:resource="http://purl.org/dc/dcmitype/StillImage" />
        <dc:title />
      </cc:Work>
    </rdf:RDF>
  </metadata>
  <g
     inkscape:label="Layer 1"
     inkscape:groupmode="layer"
     id="layer1"
     transform="translate(0,-956.36218)">
    <g
       id="g3033"
       transform="matrix(-1,0,0,1,96,-1.0000026)">
      <rect
         ry="10.595235"
         rx="10.595235"
         y="961.86218"
         x="3.5"
         height="89"
         width="89"
         id="rect3826"
         style="opacity:0.05;fill:#000000;fill-opacity:1;stroke:none" />
      <rect
         style="opacity:0.05;fill:#000000;fill-opacity:1;stroke:none"
         id="rect3824"
         width="88"
         height="88"
         x="4"
         y="962.36218"
         rx="10.476188"
         ry="10.476188" />
      <rect
         ry="10.357141"
         rx="10.357141"
         y="962.86218"
         x="4.5"
         height="87"
         width="87"
         id="rect3822"
         style="opacity:0.05;fill:#000000;fill-opacity:1;stroke:none" />
      <rect
         style="opacity:0.1;fill:#000000;fill-opacity:1;stroke:none"
         id="rect3820"
         width="86"
         height="86"
         x="5"
         y="963.36218"
         rx="10.238094"
         ry="10.238094" />
      <rect
         ry="10.119047"
         rx="10.119047"
         y="963.86218"
         x="5.5"
         height="85"
         width="85"
         id="rect3818"
         style="opacity:0.1;fill:#000000;fill-opacity:1;stroke:none" />
      <rect
         style="opacity:0.3;fill:#000000;fill-opacity:1;stroke:none"
         id="rect3131"
         width="84"
         height="84"
         x="6"
         y="964.36218"
         rx="10"
         ry="10" />
    </g>
    <path
       style="fill:url(#linearGradient3197);fill-opacity:1;stroke:none"
       d="m 16,962.36364 c -0.6925,0 -1.37865,0.0543 -2.03125,0.1875 -0.32607,0.0664 -0.65524,0.1529 -0.96875,0.25 -0.61765,0.19371 -1.22184,0.44646 -1.78125,0.75 -0.28343,0.15359 -0.57783,0.32064 -0.84375,0.5 -0.53184,0.35871 -1.01687,0.76687 -1.46875,1.21875 -0.45188,0.45188 -0.86004,0.93691 -1.21875,1.46875 -0.36552,0.53862 -0.64993,1.11178 -0.90625,1.71875 -0.12617,0.2993 -0.24665,0.59274 -0.34375,0.90625 -0.29778,0.94951 -0.4375,1.95108 -0.4375,3 l 0,63.96876 0,0.031 c 0.003,1.0275 0.1482,2.0055 0.4375,2.9375 0.003,0.01 -0.003,0.022 0,0.031 0.292,0.931 0.71577,1.8024 1.25,2.5938 0.005,0.01 -0.005,0.024 0,0.031 0.35871,0.5318 0.76687,1.0169 1.21875,1.4688 0.45188,0.4518 0.93691,0.86 1.46875,1.2187 0.53861,0.3655 1.11179,0.6499 1.71875,0.9063 0.2993,0.1261 0.59274,0.2466 0.90625,0.3437 0.94951,0.2978 1.95108,0.4688 3,0.4688 l 5.34375,0 26.65625,0 31.96875,0 c 2.08628,0 4.02265,-0.6314 5.625,-1.7188 0.53184,-0.3587 1.01687,-0.7669 1.46875,-1.2187 0.45187,-0.4519 0.86004,-0.937 1.21875,-1.4688 1.0874,-1.6023 1.71875,-3.5387 1.71875,-5.625 l 0,-63.96876 c 0,-2.08628 -0.63135,-4.02264 -1.71875,-5.625 -0.35871,-0.53184 -0.76688,-1.01687 -1.21875,-1.46875 -0.45188,-0.45188 -0.93691,-0.86004 -1.46875,-1.21875 -0.007,-0.005 -0.02405,0.005 -0.03125,0 -0.79137,-0.53423 -1.66266,-0.95799 -2.59375,-1.25 -0.01,-0.003 -0.02185,0.003 -0.03125,0 -0.93197,-0.28931 -1.90998,-0.43436 -2.9375,-0.4375 l -32,0 -26.65625,0 -5.34375,0 z"
       id="rect3108"
       inkscape:connector-curvature="0" />
    <rect
       transform="matrix(0,-1,-1,0,0,0)"
       style="opacity:0.1;fill:#ffffff;fill-opacity:1;stroke:none"
       id="rect3098"
       width="84"
       height="1"
       x="-1046.3622"
       y="-17"
       rx="0"
       ry="0" />
    <g
       style="font-size:27.18287277px;font-style:normal;font-variant:normal;font-weight:normal;font-stretch:normal;text-align:center;line-height:125%;letter-spacing:0px;word-spacing:0px;text-anchor:middle;opacity:0.2;fill:#ffffff;fill-opacity:1;stroke:none;font-family:Garamond;-inkscape-font-specification:Garamond"
       id="text3158">
      <path
         d="m 30.751958,1018.1421 0,-14.8691 4.213345,0 c 3.261941,0 4.784186,1.5223 5.735586,3.5338 0.543657,1.1417 0.815486,2.4465 0.815486,3.9143 0,1.4679 -0.19028,2.827 -0.733937,3.9687 -0.9514,2.0116 -2.582377,3.4523 -5.817135,3.4523 l -4.213345,0 m 4.376442,1.9843 c 3.859964,0 6.415159,-1.6853 7.774302,-4.3493 0.733936,-1.4406 1.087315,-3.1532 1.087315,-5.056 0,-1.9028 -0.353379,-3.6153 -1.087315,-5.056 -1.359143,-2.6639 -3.914338,-4.3764 -7.774302,-4.3764 l -6.632621,0 0,18.8377 6.632621,0"
         style="font-family:Cantarell;-inkscape-font-specification:Cantarell"
         id="path3109" />
      <path
         d="m 47.413359,1007.0243 0,13.1021 2.256179,0 0,-13.1021 -2.256179,0 m 0,-5.1104 0,2.2562 2.256179,0 0,-2.2562 -2.256179,0"
         style="font-family:Cantarell;-inkscape-font-specification:Cantarell"
         id="path3111" />
      <path
         d="m 59.254473,1020.3982 0.135915,0 c 1.25041,0 2.419276,-0.2446 3.669687,-0.7611 l -0.516474,-1.495 c -0.842668,0.299 -1.766888,0.4621 -2.500825,0.4621 -0.217462,0 -0.407743,0 -0.598023,-0.027 -2.908564,-0.3534 -4.267711,-1.9572 -4.267711,-5.1648 0,-3.0716 1.522244,-4.7842 4.648271,-4.7842 0.788303,0 1.739705,0.1631 2.745471,0.5165 l 0.543657,-1.5766 c -1.196045,-0.5165 -2.337728,-0.7883 -3.397859,-0.7883 -2.283359,0 -3.968701,0.6252 -5.083197,1.9572 -1.060131,1.2776 -1.712521,2.9629 -1.712521,5.056 0,4.159 2.283365,6.6054 6.333609,6.6054"
         style="font-family:Cantarell;-inkscape-font-specification:Cantarell"
         id="path3113" />
      <path
         d="m 70.454664,1020.371 c 0.924217,0 1.875619,-0.163 2.881384,-0.4892 l 0,-1.6582 c -0.706754,0.1903 -1.440693,0.299 -2.228995,0.299 -1.685337,0 -2.065899,-0.897 -2.065899,-2.6367 l 0,-7.0404 4.294894,0 0,-1.8484 -4.294894,0 0,-3.3707 -2.256178,0.1087 0,3.262 -2.201813,0 0,1.8484 2.201813,0 0,7.2035 c 0,2.7726 0.951403,4.322 3.669688,4.322"
         style="font-family:Cantarell;-inkscape-font-specification:Cantarell"
         id="path3115" />
    </g>
    <path
       inkscape:connector-curvature="0"
       style="opacity:0.75000000000000000;fill:url(#linearGradient3154);fill-opacity:1;stroke:none"
       d="m 16,962.36296 c -0.6925,0 -1.37865,0.0543 -2.03125,0.1875 -0.32607,0.0664 -0.65524,0.1529 -0.96875,0.25 -0.61765,0.19371 -1.22184,0.44646 -1.78125,0.75 -0.28343,0.15359 -0.57783,0.32064 -0.84375,0.5 -0.53184,0.35871 -1.01687,0.76687 -1.46875,1.21875 -0.45188,0.45188 -0.86004,0.93691 -1.21875,1.46875 -0.36552,0.53862 -0.64993,1.11178 -0.90625,1.71875 -0.12617,0.2993 -0.24665,0.59274 -0.34375,0.90625 -0.29778,0.94951 -0.4375,1.95108 -0.4375,3 l 0,63.96884 0,0.031 c 0.003,1.0275 0.1482,2.0055 0.4375,2.9375 0.003,0.01 -0.003,0.022 0,0.031 0.292,0.931 0.71577,1.8023 1.25,2.5937 0.005,0.01 -0.005,0.024 0,0.031 0.35871,0.5318 0.76687,1.0168 1.21875,1.4687 0.45188,0.4518 0.93691,0.8601 1.46875,1.2188 0.53861,0.3655 1.11179,0.6498 1.71875,0.9062 0.2993,0.1261 0.59274,0.2467 0.90625,0.3438 0.94951,0.2978 1.95108,0.4687 3,0.4687 l 0,-84.00004 z"
       id="rect3143" />
    <g
       style="font-size:27.18287277px;font-style:normal;font-variant:normal;font-weight:bold;font-stretch:normal;text-align:start;line-height:125%;letter-spacing:0px;word-spacing:0px;text-anchor:start;fill:#ffffff;fill-opacity:1;stroke:none;font-family:Ubuntu;-inkscape-font-specification:Sans Bold"
       id="text3131">
      <path
         d="m 33.728909,991.9044 c 1.71252,0 3.234764,0.43493 4.757003,1.03295 l 1.060132,-3.04448 -0.326194,-0.13592 c -0.76112,-0.24464 -2.609559,-1.00576 -5.599672,-1.00576 -4.322072,0 -7.040364,2.22899 -7.040364,5.30066 0,6.63265 10.22076,4.89292 10.139211,8.48105 0,1.3591 -1.658157,2.3377 -4.104613,2.3377 -1.032948,0 -2.691107,-0.299 -5.137563,-1.196 l -0.516475,-0.2175 -1.141681,3.0717 0.489292,0.1631 c 1.821251,0.7067 3.642508,1.3319 6.034598,1.3319 5.817129,0 7.828667,-2.8813 7.828667,-5.4909 0,-6.4967 -10.139211,-5.11038 -10.139211,-8.34514 0,-1.35914 1.413511,-2.28336 3.69687,-2.28336"
         style="text-align:center;text-anchor:middle;font-family:Cantarell;-inkscape-font-specification:Cantarell Bold"
         id="path3100" />
      <path
         d="m 52.727189,1007.2899 -0.489292,-2.3105 c -0.516474,0.1359 -1.549425,0.3805 -2.500824,0.3805 -1.794068,0 -2.201813,-0.897 -2.201813,-1.9028 l 0,-6.27922 4.593905,0 0,-2.52801 -4.593905,0 0,-3.77842 -3.261945,0 0,3.77842 -2.17463,0 0,2.52801 2.17463,0 0,6.36082 c 0,2.3105 0.570845,4.4851 4.72982,4.4851 1.250411,0 2.799837,-0.3805 3.724054,-0.7339"
         style="text-align:center;text-anchor:middle;font-family:Cantarell;-inkscape-font-specification:Cantarell Bold"
         id="path3102" />
      <path
         d="m 59.462595,994.37804 c -2.256176,0 -3.370677,0.54366 -4.322077,0.86985 l 0,2.50083 c 1.196045,-0.48929 2.283363,-0.89704 3.615322,-0.89704 2.691102,0 3.31631,0.73394 3.31631,2.96294 l -2.528007,0.13591 c -3.506587,0.21747 -5.463757,1.60377 -5.463757,4.18617 0,2.2834 1.739707,3.8871 4.593905,3.8871 1.576605,0 2.82702,-0.4892 3.859968,-1.1416 l 0.353378,0.8698 2.609555,0 0,-8.04612 c 0,-3.07166 -1.223234,-5.32784 -6.034597,-5.32784 m 2.772653,10.46536 c -0.706754,0.435 -1.331962,0.7612 -2.718288,0.7612 -1.359142,0 -2.201812,-0.6524 -2.201812,-1.6854 0,-1.0329 0.815488,-1.6309 2.582373,-1.7397 l 2.337727,-0.1359 0,2.7998"
         style="text-align:center;text-anchor:middle;font-family:Cantarell;-inkscape-font-specification:Cantarell Bold"
         id="path3104" />
      <path
         d="m 71.335139,995.5469 -0.434926,-0.89703 -2.283362,0 0,13.10213 3.261945,0 0,-10.11201 c 0.897034,-0.27183 1.929985,-0.4893 2.990116,-0.4893 0.815485,0 1.685339,0.13592 2.500824,0.4893 l 0.217463,0 0,-2.74547 c -0.761119,-0.35338 -1.576607,-0.51648 -2.392093,-0.51648 -1.359142,0 -2.745471,0.46211 -3.859967,1.16886"
         style="text-align:center;text-anchor:middle;font-family:Cantarell;-inkscape-font-specification:Cantarell Bold"
         id="path3106" />
    </g>
    <rect
       style="opacity:0.2;fill:#ffffff;fill-opacity:1;stroke:none"
       id="rect3197"
       width="66.020813"
       height="0.5"
       x="19.239594"
       y="976.36292"
       rx="0"
       ry="0" />
    <g
       style="font-size:4.29970598px;font-style:normal;font-variant:normal;font-weight:bold;font-stretch:normal;text-align:start;line-height:125%;letter-spacing:0px;word-spacing:0px;text-anchor:start;opacity:0.5;fill:#ffffff;fill-opacity:1;stroke:none;font-family:Ubuntu;-inkscape-font-specification:Sans Bold"
       id="text3199">
      <path
         d="m 31.514266,970.54936 c 0.666454,0 1.040529,0.33537 1.040529,0.98893 0,0.27948 -0.07739,0.46007 -0.133291,0.55896 -0.245083,0.45147 -0.722351,0.46437 -1.049128,0.46437 l -0.343977,0 0,-2.01226 0.485867,0 m -0.0086,-0.48587 -1.006131,0 0,2.984 0.743849,0 c 0.249382,0 0.515965,0 0.769647,-0.0645 0.829843,-0.19779 1.083526,-0.90724 1.083526,-1.5135 0,-0.61485 -0.331079,-1.406 -1.590891,-1.406"
         style="text-align:center;text-anchor:middle;font-family:Cantarell;-inkscape-font-specification:Cantarell Bold"
         id="path3118" />
      <path
         d="m 33.571138,970.06349 0,0.50306 0.515965,0 0,-0.50306 -0.515965,0 m 0,0.91154 0,2.07246 0.515965,0 0,-2.07246 -0.515965,0"
         style="text-align:center;text-anchor:middle;font-family:Cantarell;-inkscape-font-specification:Cantarell Bold"
         id="path3120" />
      <path
         d="m 35.025446,972.01556 c 0,-0.39558 0.206387,-0.67936 0.627757,-0.67936 0.219285,0 0.395573,0.0645 0.558962,0.12899 l 0.15049,-0.33967 c -0.189187,-0.0946 -0.408473,-0.19349 -0.795446,-0.19349 -0.653554,0 -1.070627,0.43427 -1.070627,1.08353 0,0.64925 0.417073,1.08352 1.070627,1.08352 0.386973,0 0.606259,-0.0989 0.795446,-0.19348 l -0.15049,-0.33968 c -0.163389,0.0645 -0.339677,0.12899 -0.558962,0.12899 -0.399872,0 -0.627757,-0.28378 -0.627757,-0.67935"
         style="text-align:center;text-anchor:middle;font-family:Cantarell;-inkscape-font-specification:Cantarell Bold"
         id="path3122" />
      <path
         d="m 38.263125,972.97439 -0.0774,-0.36547 c -0.08169,0.0215 -0.245083,0.0602 -0.395573,0.0602 -0.28378,0 -0.348276,-0.14189 -0.348276,-0.30098 l 0,-0.99323 0.726651,0 0,-0.39987 -0.726651,0 0,-0.59766 -0.515964,0 0,0.59766 -0.343977,0 0,0.39987 0.343977,0 0,1.00613 c 0,0.36548 0.09029,0.70945 0.748148,0.70945 0.197787,0 0.44287,-0.0602 0.58906,-0.11609"
         style="text-align:center;text-anchor:middle;font-family:Cantarell;-inkscape-font-specification:Cantarell Bold"
         id="path3124" />
      <path
         d="m 38.584662,970.06349 0,0.50306 0.515965,0 0,-0.50306 -0.515965,0 m 0,0.91154 0,2.07246 0.515965,0 0,-2.07246 -0.515965,0"
         style="text-align:center;text-anchor:middle;font-family:Cantarell;-inkscape-font-specification:Cantarell Bold"
         id="path3126" />
      <path
         d="m 40.572134,971.3362 c 0.29238,0 0.533163,0.23649 0.533163,0.67936 0,0.44287 -0.236484,0.66645 -0.533163,0.66645 -0.29238,0 -0.533164,-0.22788 -0.533164,-0.66645 0,-0.43857 0.245084,-0.67936 0.533164,-0.67936 m 0,1.75428 c 0.649255,0 1.066327,-0.43427 1.066327,-1.07922 0,-0.64926 -0.408473,-1.07923 -1.062027,-1.07923 -0.649255,0 -1.066327,0.43427 -1.066327,1.08353 0,0.64495 0.412772,1.07492 1.062027,1.07492"
         style="text-align:center;text-anchor:middle;font-family:Cantarell;-inkscape-font-specification:Cantarell Bold"
         id="path3128" />
      <path
         d="m 42.405757,970.97503 -0.361175,0 0,2.07246 0.515965,0 0,-1.5737 c 0.227884,-0.0946 0.399873,-0.11609 0.494466,-0.11609 0.331077,0 0.374074,0.26658 0.374074,0.42137 l 0,1.26842 0.515965,0 0,-1.17812 c 0,-0.36118 -0.0344,-0.93304 -0.752448,-0.93304 -0.283781,0 -0.554663,0.11179 -0.718051,0.18059 l -0.0688,-0.14189"
         style="text-align:center;text-anchor:middle;font-family:Cantarell;-inkscape-font-specification:Cantarell Bold"
         id="path3130" />
      <path
         d="m 45.181822,970.93203 c -0.356875,0 -0.533164,0.086 -0.683653,0.13759 l 0,0.39557 c 0.189186,-0.0774 0.361175,-0.14189 0.57186,-0.14189 0.425671,0 0.524565,0.1161 0.524565,0.46867 l -0.399873,0.0215 c -0.554662,0.0344 -0.864241,0.25368 -0.864241,0.66215 0,0.36118 0.275182,0.61486 0.72665,0.61486 0.249383,0 0.44717,-0.0774 0.610559,-0.18059 l 0.0559,0.1376 0.412772,0 0,-1.27272 c 0,-0.48586 -0.193488,-0.84274 -0.954535,-0.84274 m 0.43857,1.65539 c -0.111792,0.0688 -0.210686,0.12039 -0.429971,0.12039 -0.214985,0 -0.348276,-0.10319 -0.348276,-0.26658 0,-0.16339 0.128992,-0.25799 0.408472,-0.27518 l 0.369775,-0.0215 0,0.44287"
         style="text-align:center;text-anchor:middle;font-family:Cantarell;-inkscape-font-specification:Cantarell Bold"
         id="path3132" />
      <path
         d="m 47.059786,971.11692 -0.0688,-0.14189 -0.361175,0 0,2.07246 0.515964,0 0,-1.5995 c 0.141891,-0.043 0.30528,-0.0774 0.472968,-0.0774 0.128991,0 0.266582,0.0215 0.395573,0.0774 l 0.0344,0 0,-0.43427 c -0.120392,-0.0559 -0.249383,-0.0817 -0.378374,-0.0817 -0.214985,0 -0.434271,0.0731 -0.610559,0.18489"
         style="text-align:center;text-anchor:middle;font-family:Cantarell;-inkscape-font-specification:Cantarell Bold"
         id="path3134" />
      <path
         d="m 48.118589,970.97503 0.937336,2.08965 -0.472968,1.09643 0.580461,0 1.268413,-3.18608 -0.546063,0 -0.558962,1.59089 -0.614858,-1.59089 -0.593359,0"
         style="text-align:center;text-anchor:middle;font-family:Cantarell;-inkscape-font-specification:Cantarell Bold"
         id="path3136" />
      <path
         d="m 52.585715,970.54936 1.397405,0 0,-0.48587 -1.926269,0 0,2.984 0.528864,0 0,-1.13513 1.225416,0 0,-0.48586 -1.225416,0 0,-0.87714"
         style="text-align:center;text-anchor:middle;font-family:Cantarell;-inkscape-font-specification:Cantarell Bold"
         id="path3138" />
      <path
         d="m 55.394363,971.3362 c 0.29238,0 0.533164,0.23649 0.533164,0.67936 0,0.44287 -0.236484,0.66645 -0.533164,0.66645 -0.292379,0 -0.533163,-0.22788 -0.533163,-0.66645 0,-0.43857 0.245083,-0.67936 0.533163,-0.67936 m 0,1.75428 c 0.649255,0 1.066327,-0.43427 1.066327,-1.07922 0,-0.64926 -0.408472,-1.07923 -1.062027,-1.07923 -0.649255,0 -1.066327,0.43427 -1.066327,1.08353 0,0.64495 0.412772,1.07492 1.062027,1.07492"
         style="text-align:center;text-anchor:middle;font-family:Cantarell;-inkscape-font-specification:Cantarell Bold"
         id="path3140" />
      <path
         d="m 58.341611,973.05179 0.361175,0 0,-2.07246 -0.515965,0 0,1.57369 c -0.184887,0.0946 -0.356876,0.11609 -0.451469,0.11609 -0.331077,0 -0.374074,-0.26658 -0.374074,-0.42137 l 0,-1.26841 -0.515965,0 0,1.17812 c 0,0.36117 0.0344,0.93303 0.752448,0.93303 0.283781,0 0.511666,-0.11179 0.675054,-0.18059 l 0.0688,0.1419"
         style="text-align:center;text-anchor:middle;font-family:Cantarell;-inkscape-font-specification:Cantarell Bold"
         id="path3142" />
      <path
         d="m 59.579387,970.97503 -0.361175,0 0,2.07246 0.515965,0 0,-1.5737 c 0.227884,-0.0946 0.399872,-0.11609 0.494466,-0.11609 0.331077,0 0.374074,0.26658 0.374074,0.42137 l 0,1.26842 0.515965,0 0,-1.17812 c 0,-0.36118 -0.0344,-0.93304 -0.752449,-0.93304 -0.28378,0 -0.554662,0.11179 -0.718051,0.18059 l -0.0688,-0.14189"
         style="text-align:center;text-anchor:middle;font-family:Cantarell;-inkscape-font-specification:Cantarell Bold"
         id="path3144" />
      <path
         d="m 63.009009,970.06349 0,0.95883 c -0.14189,-0.0559 -0.309579,-0.0903 -0.494466,-0.0903 -0.421371,0 -1.010431,0.28378 -1.010431,1.07923 0,0.66645 0.382674,1.07922 1.057727,1.07922 0.223585,0 0.412772,-0.0817 0.554662,-0.15479 l 0.0387,0.1118 0.369775,0 0,-2.984 -0.515965,0 m -0.374075,1.27701 c 0.111793,0 0.236484,0.0172 0.374075,0.0688 l 0,1.18242 c -0.09459,0.0559 -0.210686,0.10319 -0.356876,0.10319 -0.343976,0 -0.619157,-0.16769 -0.619157,-0.65356 0,-0.53746 0.257982,-0.70085 0.601958,-0.70085"
         style="text-align:center;text-anchor:middle;font-family:Cantarell;-inkscape-font-specification:Cantarell Bold"
         id="path3146" />
      <path
         d="m 64.782436,970.93203 c -0.356875,0 -0.533163,0.086 -0.683653,0.13759 l 0,0.39557 c 0.189187,-0.0774 0.361176,-0.14189 0.571861,-0.14189 0.425671,0 0.524564,0.1161 0.524564,0.46867 l -0.399872,0.0215 c -0.554662,0.0344 -0.864241,0.25368 -0.864241,0.66215 0,0.36118 0.275181,0.61486 0.72665,0.61486 0.249383,0 0.44717,-0.0774 0.610558,-0.18059 l 0.0559,0.1376 0.412772,0 0,-1.27272 c 0,-0.48586 -0.193487,-0.84274 -0.954535,-0.84274 m 0.43857,1.65539 c -0.111792,0.0688 -0.210685,0.12039 -0.42997,0.12039 -0.214985,0 -0.348276,-0.10319 -0.348276,-0.26658 0,-0.16339 0.128991,-0.25799 0.408472,-0.27518 l 0.369774,-0.0215 0,0.44287"
         style="text-align:center;text-anchor:middle;font-family:Cantarell;-inkscape-font-specification:Cantarell Bold"
         id="path3148" />
      <path
         d="m 67.739625,972.97439 -0.0774,-0.36547 c -0.08169,0.0215 -0.245083,0.0602 -0.395572,0.0602 -0.283781,0 -0.348277,-0.14189 -0.348277,-0.30098 l 0,-0.99323 0.726651,0 0,-0.39987 -0.726651,0 0,-0.59766 -0.515964,0 0,0.59766 -0.343977,0 0,0.39987 0.343977,0 0,1.00613 c 0,0.36548 0.09029,0.70945 0.748148,0.70945 0.197787,0 0.44287,-0.0602 0.58906,-0.11609"
         style="text-align:center;text-anchor:middle;font-family:Cantarell;-inkscape-font-specification:Cantarell Bold"
         id="path3150" />
      <path
         d="m 68.061163,970.06349 0,0.50306 0.515964,0 0,-0.50306 -0.515964,0 m 0,0.91154 0,2.07246 0.515964,0 0,-2.07246 -0.515964,0"
         style="text-align:center;text-anchor:middle;font-family:Cantarell;-inkscape-font-specification:Cantarell Bold"
         id="path3152" />
      <path
         d="m 70.048633,971.3362 c 0.29238,0 0.533164,0.23649 0.533164,0.67936 0,0.44287 -0.236484,0.66645 -0.533164,0.66645 -0.292379,0 -0.533163,-0.22788 -0.533163,-0.66645 0,-0.43857 0.245083,-0.67936 0.533163,-0.67936 m 0,1.75428 c 0.649255,0 1.066328,-0.43427 1.066328,-1.07922 0,-0.64926 -0.408473,-1.07923 -1.062028,-1.07923 -0.649255,0 -1.066327,0.43427 -1.066327,1.08353 0,0.64495 0.412773,1.07492 1.062027,1.07492"
         style="text-align:center;text-anchor:middle;font-family:Cantarell;-inkscape-font-specification:Cantarell Bold"
         id="path3154" />
      <path
         d="m 71.882257,970.97503 -0.361175,0 0,2.07246 0.515964,0 0,-1.5737 c 0.227885,-0.0946 0.399873,-0.11609 0.494467,-0.11609 0.331077,0 0.374074,0.26658 0.374074,0.42137 l 0,1.26842 0.515965,0 0,-1.17812 c 0,-0.36118 -0.0344,-0.93304 -0.752449,-0.93304 -0.28378,0 -0.554662,0.11179 -0.718051,0.18059 l -0.0688,-0.14189"
         style="text-align:center;text-anchor:middle;font-family:Cantarell;-inkscape-font-specification:Cantarell Bold"
         id="path3156" />
    </g>
    <path
       style="opacity:0.2;fill:#000000;fill-opacity:1;stroke:none"
       d="m 90,1014.9872 c 0,16.3666 -12.6407,31.375 -42.3125,31.375 l 27.09375,0 c 7.10112,-2.9511 12.08866,-7.3478 15.21875,-12.5 l 0,-18.875 z"
       id="path3198"
       inkscape:connector-curvature="0" />
    <path
       style="opacity:0.2;fill:#000000;fill-opacity:1;stroke:none"
       d="m 90,1014.9872 c 0,16.3666 -12.6407,31.375 -42.3125,31.375 l 23.40625,0 c 9.38456,-3.1985 15.56197,-8.6959 18.90625,-15.25 l 0,-16.125 z"
       id="path3200"
       inkscape:connector-curvature="0" />
    <path
       style="opacity:0.2;fill:#000000;fill-opacity:1;stroke:none"
       d="m 90,1014.9872 c 0,16.3666 -12.6407,31.375 -42.3125,31.375 l 19.125,0 c 12.38366,-3.2645 19.86163,-10.2037 23.1875,-18.5 l 0,-12.875 z"
       id="path3202"
       inkscape:connector-curvature="0" />
    <path
       style="opacity:0.2;fill:#000000;fill-opacity:1;stroke:none"
       d="m 90,1014.9872 c 0,16.3666 -12.6407,31.375 -42.3125,31.375 l 13.375,0 C 77.89469,1043.4719 87.06478,1034.553 90,1023.9247 l 0,-8.9375 z"
       id="path3204"
       inkscape:connector-curvature="0" />
    <g
       style="font-size:3.86797071px;font-style:normal;font-variant:normal;font-weight:bold;font-stretch:normal;text-align:start;line-height:125%;letter-spacing:0px;word-spacing:0px;text-anchor:start;opacity:0.75;fill:#ffffff;fill-opacity:1;stroke:none;font-family:Ubuntu;-inkscape-font-specification:Sans Bold"
       id="text3135">
      <path
         d="m 30.825606,1029.4956 c -0.870292,0 -1.427281,0.5918 -1.427281,1.3654 0,0.762 0.529913,1.377 1.400205,1.377 0.24755,0 0.537649,-0.058 0.82001,-0.1779 l 0.06962,-0.027 -0.154719,-0.3829 -0.06962,0.027 c -0.205002,0.081 -0.410005,0.1237 -0.580195,0.1237 -0.626611,0 -0.997937,-0.3752 -0.997937,-0.9437 0,-0.5106 0.348118,-0.94 0.928313,-0.94 0.123775,0 0.313306,0 0.607272,0.1083 l 0.07349,0.027 0.154719,-0.379 -0.06962,-0.027 c -0.282362,-0.1122 -0.545385,-0.1509 -0.754255,-0.1509"
         style="font-style:normal;font-variant:normal;font-stretch:normal;font-family:Cantarell;-inkscape-font-specification:Cantarell Bold"
         id="path3159" />
      <path
         d="m 32.467923,1030.4626 -0.06189,-0.1276 -0.32491,0 0,1.8643 0.464157,0 0,-1.4388 c 0.127643,-0.039 0.274626,-0.07 0.425477,-0.07 0.116039,0 0.239814,0.019 0.355853,0.07 l 0.03094,0 0,-0.3907 c -0.108303,-0.05 -0.224343,-0.073 -0.340382,-0.073 -0.193398,0 -0.390665,0.066 -0.549251,0.1663"
         style="font-style:normal;font-variant:normal;font-stretch:normal;font-family:Cantarell;-inkscape-font-specification:Cantarell Bold"
         id="path3161" />
      <path
         d="m 34.511178,1030.6599 c 0.263022,0 0.479628,0.2127 0.479628,0.6111 0,0.3984 -0.212738,0.5996 -0.479628,0.5996 -0.263022,0 -0.479628,-0.205 -0.479628,-0.5996 0,-0.3945 0.220474,-0.6111 0.479628,-0.6111 m 0,1.5781 c 0.584063,0 0.959257,-0.3906 0.959257,-0.9708 0,-0.5841 -0.367458,-0.9709 -0.955389,-0.9709 -0.584063,0 -0.959257,0.3907 -0.959257,0.9747 0,0.5802 0.371326,0.967 0.955389,0.967"
         style="font-style:normal;font-variant:normal;font-stretch:normal;font-family:Cantarell;-inkscape-font-specification:Cantarell Bold"
         id="path3163" />
      <path
         d="m 35.781625,1032.0988 c 0.201134,0.081 0.410005,0.1392 0.665291,0.1392 0.692366,0 0.83935,-0.3481 0.83935,-0.5956 0,-0.6344 -1.06756,-0.5338 -1.06756,-0.7852 0,-0.062 0.04255,-0.1741 0.363589,-0.1741 0.220474,0 0.456421,0.07 0.556988,0.1006 l 0,-0.3984 c -0.127643,-0.039 -0.351986,-0.089 -0.568592,-0.089 -0.711706,0 -0.792934,0.3559 -0.792934,0.5376 0,0.6808 1.04822,0.5725 1.063692,0.8085 0,0.1315 -0.0851,0.1972 -0.379061,0.1972 -0.162455,0 -0.36359,-0.039 -0.61114,-0.1315 l -0.06962,-0.027 0,0.4178"
         style="font-style:normal;font-variant:normal;font-stretch:normal;font-family:Cantarell;-inkscape-font-specification:Cantarell Bold"
         id="path3165" />
      <path
         d="m 37.579627,1032.0988 c 0.201134,0.081 0.410005,0.1392 0.665291,0.1392 0.692366,0 0.839349,-0.3481 0.839349,-0.5956 0,-0.6344 -1.06756,-0.5338 -1.06756,-0.7852 0,-0.062 0.04255,-0.1741 0.36359,-0.1741 0.220474,0 0.45642,0.07 0.556987,0.1006 l 0,-0.3984 c -0.127642,-0.039 -0.351985,-0.089 -0.568591,-0.089 -0.711706,0 -0.792934,0.3559 -0.792934,0.5376 0,0.6808 1.04822,0.5725 1.063692,0.8085 0,0.1315 -0.0851,0.1972 -0.379061,0.1972 -0.162455,0 -0.36359,-0.039 -0.61114,-0.1315 l -0.06962,-0.027 0,0.4178"
         style="font-style:normal;font-variant:normal;font-stretch:normal;font-family:Cantarell;-inkscape-font-specification:Cantarell Bold"
         id="path3167" />
      <path
         d="m 39.381497,1030.7489 0,0.4138 1.779266,0 0,-0.4138 -1.779266,0"
         style="font-style:normal;font-variant:normal;font-stretch:normal;font-family:Cantarell;-inkscape-font-specification:Cantarell Bold"
         id="path3169" />
      <path
         d="m 41.654655,1029.515 0,2.6843 0.475761,0 0,-1.0443 c 0.06962,0 0.135379,0.01 0.20887,0.01 0.580195,0 1.291902,-0.089 1.291902,-0.8548 0,-0.7388 -0.754254,-0.7929 -1.102371,-0.7929 l -0.874162,0 m 0.475761,0.437 0.351985,0 c 0.344249,0 0.661423,0.043 0.661423,0.3714 0,0.3713 -0.371325,0.4061 -0.777462,0.4061 -0.08123,0 -0.154719,-0.01 -0.235946,-0.012 l 0,-0.7659"
         style="font-style:normal;font-variant:normal;font-stretch:normal;font-family:Cantarell;-inkscape-font-specification:Cantarell Bold"
         id="path3171" />
      <path
         d="m 44.690468,1031.8744 c -0.181794,0 -0.216606,-0.1121 -0.216606,-0.2939 l 0,-2.0655 -0.456421,0 0,2.2008 c 0,0.2631 0.08123,0.5222 0.475761,0.5222 0.212738,0 0.351985,-0.07 0.417741,-0.093 l 0,-0.3017 c -0.06576,0.015 -0.146983,0.031 -0.220475,0.031"
         style="font-style:normal;font-variant:normal;font-stretch:normal;font-family:Cantarell;-inkscape-font-specification:Cantarell Bold"
         id="path3173" />
      <path
         d="m 45.865123,1030.2963 c -0.321042,0 -0.479629,0.077 -0.615008,0.1238 l 0,0.3558 c 0.170191,-0.07 0.32491,-0.1276 0.51444,-0.1276 0.382929,0 0.471893,0.1044 0.471893,0.4216 l -0.359722,0.019 c -0.498967,0.031 -0.777462,0.2282 -0.777462,0.5957 0,0.3249 0.247551,0.5531 0.653687,0.5531 0.224342,0 0.402269,-0.07 0.549252,-0.1624 l 0.05028,0.1237 0.371325,0 0,-1.1449 c 0,-0.4371 -0.174059,-0.7581 -0.858689,-0.7581 m 0.394533,1.4892 c -0.100568,0.062 -0.189531,0.1083 -0.386798,0.1083 -0.193398,0 -0.313305,-0.093 -0.313305,-0.2398 0,-0.147 0.116039,-0.2321 0.367457,-0.2476 l 0.332646,-0.019 0,0.3984"
         style="font-style:normal;font-variant:normal;font-stretch:normal;font-family:Cantarell;-inkscape-font-specification:Cantarell Bold"
         id="path3175" />
      <path
         d="m 48.525379,1032.1336 -0.06962,-0.3288 c -0.07349,0.019 -0.220475,0.054 -0.355854,0.054 -0.255285,0 -0.313305,-0.1277 -0.313305,-0.2708 l 0,-0.8935 0.653687,0 0,-0.3597 -0.653687,0 0,-0.5377 -0.464157,0 0,0.5377 -0.309437,0 0,0.3597 0.309437,0 0,0.9051 c 0,0.3288 0.08123,0.6382 0.673027,0.6382 0.177927,0 0.398401,-0.054 0.529912,-0.1044"
         style="font-style:normal;font-variant:normal;font-stretch:normal;font-family:Cantarell;-inkscape-font-specification:Cantarell Bold"
         id="path3177" />
      <path
         d="m 48.96935,1030.1841 0,0.1509 -0.309438,0 0,0.3597 0.309438,0 0,1.5046 0.464157,0 0,-1.5046 0.700102,0 0,-0.3597 -0.700102,0 0,-0.1663 c 0,-0.178 0.158587,-0.294 0.410004,-0.294 0.112171,0 0.235947,0.027 0.290098,0.039 l 0.07736,0.019 0.06962,-0.3326 -0.06575,-0.023 c -0.22821,-0.07 -0.38293,-0.077 -0.483497,-0.077 -0.673026,0 -0.76199,0.4796 -0.76199,0.6846"
         style="font-style:normal;font-variant:normal;font-stretch:normal;font-family:Cantarell;-inkscape-font-specification:Cantarell Bold"
         id="path3179" />
      <path
         d="m 51.214466,1030.6599 c 0.263022,0 0.479628,0.2127 0.479628,0.6111 0,0.3984 -0.212738,0.5996 -0.479628,0.5996 -0.263022,0 -0.479628,-0.205 -0.479628,-0.5996 0,-0.3945 0.220474,-0.6111 0.479628,-0.6111 m 0,1.5781 c 0.584063,0 0.959257,-0.3906 0.959257,-0.9708 0,-0.5841 -0.367458,-0.9709 -0.955389,-0.9709 -0.584063,0 -0.959257,0.3907 -0.959257,0.9747 0,0.5802 0.371326,0.967 0.955389,0.967"
         style="font-style:normal;font-variant:normal;font-stretch:normal;font-family:Cantarell;-inkscape-font-specification:Cantarell Bold"
         id="path3181" />
      <path
         d="m 52.92586,1030.4626 -0.06189,-0.1276 -0.32491,0 0,1.8643 0.464157,0 0,-1.4388 c 0.127643,-0.039 0.274626,-0.07 0.425476,-0.07 0.116039,0 0.239815,0.019 0.355854,0.07 l 0.03094,0 0,-0.3907 c -0.108304,-0.05 -0.224343,-0.073 -0.340382,-0.073 -0.193398,0 -0.390665,0.066 -0.549252,0.1663"
         style="font-style:normal;font-variant:normal;font-stretch:normal;font-family:Cantarell;-inkscape-font-specification:Cantarell Bold"
         id="path3183" />
      <path
         d="m 54.435336,1030.335 -0.324909,0 0,1.8643 0.464156,0 0,-1.4156 c 0.205002,-0.085 0.321042,-0.1045 0.406137,-0.1045 0.259154,0 0.297834,0.2398 0.297834,0.3791 l 0,1.141 0.464156,0 0,-1.0598 c 0,-0.1044 -0.0039,-0.2243 -0.02708,-0.3442 0.193399,-0.081 0.313306,-0.1161 0.433213,-0.1161 0.259154,0 0.297834,0.2398 0.297834,0.3791 l 0,1.141 0.464156,0 0,-1.0598 c 0,-0.3249 -0.03094,-0.8393 -0.638215,-0.8393 -0.278493,0 -0.564724,0.1392 -0.688499,0.1972 -0.09283,-0.116 -0.243682,-0.1972 -0.479628,-0.1972 -0.255286,0 -0.498968,0.116 -0.607271,0.1624 l -0.06189,-0.1276"
         style="font-style:normal;font-variant:normal;font-stretch:normal;font-family:Cantarell;-inkscape-font-specification:Cantarell Bold"
         id="path3185" />
      <path
         d="m 59.406766,1029.952 c 0.599535,0 0.936049,0.3018 0.936049,0.8897 0,0.2514 -0.06962,0.4139 -0.119907,0.5028 -0.220474,0.4062 -0.649819,0.4178 -0.943785,0.4178 l -0.309438,0 0,-1.8103 0.437081,0 m -0.0077,-0.437 -0.905105,0 0,2.6843 0.669159,0 c 0.224342,0 0.464157,0 0.692367,-0.058 0.746517,-0.1779 0.974728,-0.8161 0.974728,-1.3615 0,-0.5531 -0.297835,-1.2648 -1.431149,-1.2648"
         style="font-style:normal;font-variant:normal;font-stretch:normal;font-family:Cantarell;-inkscape-font-specification:Cantarell Bold"
         id="path3187" />
      <path
         d="m 61.257107,1029.515 0,0.4525 0.464157,0 0,-0.4525 -0.464157,0 m 0,0.82 0,1.8643 0.464157,0 0,-1.8643 -0.464157,0"
         style="font-style:normal;font-variant:normal;font-stretch:normal;font-family:Cantarell;-inkscape-font-specification:Cantarell Bold"
         id="path3189" />
      <path
         d="m 62.565387,1031.271 c 0,-0.3558 0.185663,-0.6111 0.564724,-0.6111 0.197266,0 0.355853,0.058 0.502836,0.116 l 0.135379,-0.3055 c -0.170191,-0.085 -0.367458,-0.1741 -0.715575,-0.1741 -0.587931,0 -0.963124,0.3907 -0.963124,0.9747 0,0.5841 0.375193,0.9748 0.963124,0.9748 0.348117,0 0.545384,-0.089 0.715575,-0.1741 l -0.135379,-0.3056 c -0.146983,0.058 -0.30557,0.1161 -0.502836,0.1161 -0.359721,0 -0.564724,-0.2553 -0.564724,-0.6112"
         style="font-style:normal;font-variant:normal;font-stretch:normal;font-family:Cantarell;-inkscape-font-specification:Cantarell Bold"
         id="path3191" />
      <path
         d="m 65.47797,1032.1336 -0.06962,-0.3288 c -0.07349,0.019 -0.220475,0.054 -0.355854,0.054 -0.255285,0 -0.313305,-0.1277 -0.313305,-0.2708 l 0,-0.8935 0.653687,0 0,-0.3597 -0.653687,0 0,-0.5377 -0.464157,0 0,0.5377 -0.309437,0 0,0.3597 0.309437,0 0,0.9051 c 0,0.3288 0.08123,0.6382 0.673027,0.6382 0.177927,0 0.398401,-0.054 0.529912,-0.1044"
         style="font-style:normal;font-variant:normal;font-stretch:normal;font-family:Cantarell;-inkscape-font-specification:Cantarell Bold"
         id="path3193" />
      <path
         d="m 65.76722,1029.515 0,0.4525 0.464157,0 0,-0.4525 -0.464157,0 m 0,0.82 0,1.8643 0.464157,0 0,-1.8643 -0.464157,0"
         style="font-style:normal;font-variant:normal;font-stretch:normal;font-family:Cantarell;-inkscape-font-specification:Cantarell Bold"
         id="path3195" />
      <path
         d="m 67.555132,1030.6599 c 0.263022,0 0.479628,0.2127 0.479628,0.6111 0,0.3984 -0.212738,0.5996 -0.479628,0.5996 -0.263022,0 -0.479629,-0.205 -0.479629,-0.5996 0,-0.3945 0.220475,-0.6111 0.479629,-0.6111 m 0,1.5781 c 0.584063,0 0.959257,-0.3906 0.959257,-0.9708 0,-0.5841 -0.367458,-0.9709 -0.955389,-0.9709 -0.584063,0 -0.959257,0.3907 -0.959257,0.9747 0,0.5802 0.371326,0.967 0.955389,0.967"
         style="font-style:normal;font-variant:normal;font-stretch:normal;font-family:Cantarell;-inkscape-font-specification:Cantarell Bold"
         id="path3197" />
      <path
         d="m 69.20464,1030.335 -0.324909,0 0,1.8643 0.464156,0 0,-1.4156 c 0.205003,-0.085 0.359722,-0.1045 0.444817,-0.1045 0.297833,0 0.336513,0.2398 0.336513,0.3791 l 0,1.141 0.464157,0 0,-1.0598 c 0,-0.3249 -0.03094,-0.8393 -0.676895,-0.8393 -0.255286,0 -0.498968,0.1005 -0.645951,0.1624 l -0.06189,-0.1276"
         style="font-style:normal;font-variant:normal;font-stretch:normal;font-family:Cantarell;-inkscape-font-specification:Cantarell Bold"
         id="path3199" />
      <path
         d="m 71.701958,1030.2963 c -0.321041,0 -0.479628,0.077 -0.615007,0.1238 l 0,0.3558 c 0.170191,-0.07 0.32491,-0.1276 0.51444,-0.1276 0.382929,0 0.471893,0.1044 0.471893,0.4216 l -0.359722,0.019 c -0.498967,0.031 -0.777462,0.2282 -0.777462,0.5957 0,0.3249 0.247551,0.5531 0.653687,0.5531 0.224342,0 0.402269,-0.07 0.549252,-0.1624 l 0.05028,0.1237 0.371325,0 0,-1.1449 c 0,-0.4371 -0.174059,-0.7581 -0.85869,-0.7581 m 0.394533,1.4892 c -0.100567,0.062 -0.18953,0.1083 -0.386797,0.1083 -0.193398,0 -0.313305,-0.093 -0.313305,-0.2398 0,-0.147 0.116039,-0.2321 0.367457,-0.2476 l 0.332645,-0.019 0,0.3984"
         style="font-style:normal;font-variant:normal;font-stretch:normal;font-family:Cantarell;-inkscape-font-specification:Cantarell Bold"
         id="path3201" />
      <path
         d="m 73.391353,1030.4626 -0.06189,-0.1276 -0.32491,0 0,1.8643 0.464157,0 0,-1.4388 c 0.127643,-0.039 0.274626,-0.07 0.425477,-0.07 0.116039,0 0.239814,0.019 0.355853,0.07 l 0.03094,0 0,-0.3907 c -0.108303,-0.05 -0.224343,-0.073 -0.340382,-0.073 -0.193398,0 -0.390665,0.066 -0.549251,0.1663"
         style="font-style:normal;font-variant:normal;font-stretch:normal;font-family:Cantarell;-inkscape-font-specification:Cantarell Bold"
         id="path3203" />
      <path
         d="m 74.343843,1030.335 0.843217,1.8798 -0.425477,0.9863 0.522176,0 1.141052,-2.8661 -0.491232,0 -0.502837,1.4311 -0.553119,-1.4311 -0.53378,0"
         style="font-style:normal;font-variant:normal;font-stretch:normal;font-family:Cantarell;-inkscape-font-specification:Cantarell Bold"
         id="path3205" />
    </g>
    <path
       style="fill:url(#linearGradient3208);fill-opacity:1;stroke:none"
       d="m 90,1001.6122 -62.0625,44.75 19.75,0 c 29.6718,0 42.3125,-15.0084 42.3125,-31.375 l 0,-13.375 z"
       id="path3206"
       inkscape:connector-curvature="0" />
  </g>
</svg>
