<?xml version="1.0" encoding="UTF-8" standalone="no"?>
<svg
   clip-rule="evenodd"
   fill-rule="evenodd"
   stroke-linejoin="round"
   stroke-miterlimit="2"
   viewBox="0 0 48 48"
   version="1.1"
   id="svg17"
   sodipodi:docname="tixati.svg"
   inkscape:version="1.1.2 (0a00cf5339, 2022-02-04, custom)"
   xmlns:inkscape="http://www.inkscape.org/namespaces/inkscape"
   xmlns:sodipodi="http://sodipodi.sourceforge.net/DTD/sodipodi-0.dtd"
   xmlns="http://www.w3.org/2000/svg"
   xmlns:svg="http://www.w3.org/2000/svg">
  <defs
     id="defs21">
    <linearGradient
       id="a-3"
       x2="1"
       gradientTransform="matrix(0,-56,56,0,-192.00061,60.114039)"
       gradientUnits="userSpaceOnUse">
      <stop
         stop-color="#111"
         offset="0"
         id="stop2-6" />
      <stop
         stop-color="#4f4f4f"
         offset="1"
         id="stop4-7" />
    </linearGradient>
    <filter
       inkscape:collect="always"
       style="color-interpolation-filters:sRGB"
       id="filter3536"
       x="-0.033966493"
       y="-0.033966493"
       width="1.067933"
       height="1.067933">
      <feGaussianBlur
         inkscape:collect="always"
         stdDeviation="0.61332165"
         id="feGaussianBlur3538" />
    </filter>
  </defs>
  <sodipodi:namedview
     id="namedview19"
     pagecolor="#ffffff"
     bordercolor="#666666"
     borderopacity="1.0"
     inkscape:pageshadow="2"
     inkscape:pageopacity="0.0"
     inkscape:pagecheckerboard="0"
     showgrid="false"
     inkscape:zoom="10.75"
     inkscape:cx="23.813953"
     inkscape:cy="24.744186"
     inkscape:window-width="1366"
     inkscape:window-height="703"
     inkscape:window-x="0"
     inkscape:window-y="37"
     inkscape:window-maximized="1"
     inkscape:current-layer="g15" />
  <linearGradient
     id="a"
     x2="1"
     gradientTransform="matrix(0 -56 56 0 -192 60)"
     gradientUnits="userSpaceOnUse">
    <stop
       stop-color="#111"
       offset="0"
       id="stop2" />
    <stop
       stop-color="#4f4f4f"
       offset="1"
       id="stop4" />
  </linearGradient>
  <path
     d="m39.44 2.332c3.438 0 6.228 2.79 6.228 6.228v30.88c0 3.438-2.79 6.228-6.228 6.228h-30.88c-3.438 0-6.228-2.79-6.228-6.228v-30.88c0-3.438 2.79-6.228 6.228-6.228z"
     fill="url(#a)"
     id="path7" />
  <path
     d="m 39.439389,2.4460385 c 3.438,0 6.228001,2.79 6.228001,6.228 V 39.55404 c 0,3.438 -2.790001,6.228 -6.228001,6.228 H 8.5593891 c -3.438,0 -6.228,-2.79 -6.228,-6.228 V 8.6740385 c 0,-3.438 2.79,-6.228 6.228,-6.228 z"
     fill="url(#a)"
     id="path7-5"
     style="fill:url(#a-3);filter:url(#filter3536)" />
  <g
     fill-rule="nonzero"
     id="g15">
    <path
       d="m45.098 42.045c-.486 1.054-1.259 1.949-2.217 2.586l-18.881-41.005-18.881 41.005c-.959-.637-1.731-1.532-2.217-2.586l18.284-39.713h5.628z"
       fill="#be3535"
       id="path9"
       style="fill:#eb2634;fill-opacity:1" />
    <path
       d="m24 21.812 18.612-18.612c.9.534 1.654 1.288 2.188 2.188l-18.612 18.612 18.612 18.612c-.534.9-1.288 1.654-2.189 2.188l-18.611-18.612-18.612 18.612c-.9-.534-1.654-1.288-2.188-2.188l18.611-18.612-18.611-18.612c.534-.9 1.288-1.654 2.188-2.188z"
       fill="#57982d"
       id="path11"
       style="fill:#54e631;fill-opacity:1" />
    <path
       d="m39.44 2.332c2.296 0 4.303 1.245 5.383 3.095h-19.275v40.241h-3.096v-40.241h-19.275c1.08-1.85 3.087-3.095 5.383-3.095z"
       fill="#036fff"
       id="path13"
       style="fill:#2969eb;fill-opacity:1" />
  </g>
</svg>
