<?xml version="1.0" encoding="UTF-8" standalone="no"?>
<svg
   version="1.1"
   viewBox="0 0 64 64"
   id="svg29"
   sodipodi:docname="toggldesktop.svg"
   width="64"
   height="64"
   inkscape:version="1.1.2 (0a00cf5339, 2022-02-04, custom)"
   xmlns:inkscape="http://www.inkscape.org/namespaces/inkscape"
   xmlns:sodipodi="http://sodipodi.sourceforge.net/DTD/sodipodi-0.dtd"
   xmlns:xlink="http://www.w3.org/1999/xlink"
   xmlns="http://www.w3.org/2000/svg"
   xmlns:svg="http://www.w3.org/2000/svg"
   xmlns:rdf="http://www.w3.org/1999/02/22-rdf-syntax-ns#"
   xmlns:cc="http://creativecommons.org/ns#"
   xmlns:dc="http://purl.org/dc/elements/1.1/">
  <metadata
     id="metadata33">
    <rdf:RDF>
      <cc:Work
         rdf:about="">
        <dc:format>image/svg+xml</dc:format>
        <dc:type
           rdf:resource="http://purl.org/dc/dcmitype/StillImage" />
      </cc:Work>
    </rdf:RDF>
  </metadata>
  <sodipodi:namedview
     pagecolor="#ffffff"
     bordercolor="#666666"
     borderopacity="1"
     objecttolerance="10"
     gridtolerance="10"
     guidetolerance="10"
     inkscape:pageopacity="0"
     inkscape:pageshadow="2"
     inkscape:window-width="1366"
     inkscape:window-height="703"
     id="namedview31"
     showgrid="false"
     inkscape:zoom="6.1208931"
     inkscape:cx="28.590599"
     inkscape:cy="36.269217"
     inkscape:window-x="0"
     inkscape:window-y="37"
     inkscape:window-maximized="1"
     inkscape:current-layer="svg29"
     inkscape:pagecheckerboard="0" />
  <defs
     id="defs7">
    <linearGradient
       id="bg"
       x2="0"
       y1="1"
       y2="47"
       gradientUnits="userSpaceOnUse"
       gradientTransform="translate(-67.267486)">
      <stop
         style="stop-color:#f35151"
         offset="0"
         id="stop2" />
      <stop
         style="stop-color:#f23e3e"
         offset="1"
         id="stop4" />
    </linearGradient>
    <filter
       color-interpolation-filters="sRGB"
       height="1.048"
       width="1.048"
       y="-.024"
       x="-.024"
       id="filter2761">
      <feGaussianBlur
         id="feGaussianBlur4"
         stdDeviation="0.14552168" />
    </filter>
    <linearGradient
       gradientUnits="userSpaceOnUse"
       gradientTransform="translate(31.146088,0.14045)"
       y2="1.1082"
       y1="14.536"
       x2="15.644"
       x1="2.2495"
       id="linearGradient4673">
      <stop
         id="stop7"
         offset="0"
         stop-color="#ff5050" />
      <stop
         id="stop9"
         offset=".47728"
         stop-color="#fa4b5a" />
      <stop
         id="stop11"
         offset="1"
         stop-color="#ff7864" />
    </linearGradient>
    <linearGradient
       gradientUnits="userSpaceOnUse"
       gradientTransform="matrix(0.32664815,0,0,0.32664815,0.63054332,0.95372475)"
       y2="4"
       y1="44"
       x2="0"
       id="linearGradient890">
      <stop
         id="stop4-3"
         offset="0"
         stop-color="#FFB900" />
      <stop
         id="stop6"
         offset="1"
         stop-color="#ff0" />
    </linearGradient>
    <filter
       color-interpolation-filters="sRGB"
       height="1.048"
       width="1.048"
       y="-.024"
       x="-.024"
       id="filter2761-67">
      <feGaussianBlur
         id="feGaussianBlur9"
         stdDeviation="0.14552168" />
    </filter>
    <linearGradient
       gradientUnits="userSpaceOnUse"
       gradientTransform="matrix(3.7796,0,0,3.7796,66.443573,0.53068)"
       y2="1.1082"
       y1="15.601"
       x2="15.644"
       x1="1.4377"
       id="linearGradient4673-5">
      <stop
         id="stop12"
         offset="0"
         stop-color="#dc2828" />
      <stop
         id="stop14"
         offset="1"
         stop-color="#fa4141" />
    </linearGradient>
    <linearGradient
       gradientTransform="scale(0.26457812)"
       gradientUnits="userSpaceOnUse"
       y2="9.67"
       y1="54.592"
       x2="34.134"
       x1="34.134"
       id="linearGradient915">
      <stop
         id="stop17"
         offset="0"
         stop-color="#ffb900" />
      <stop
         id="stop19"
         offset="1"
         stop-color="#ff0" />
    </linearGradient>
    <filter
       inkscape:collect="always"
       style="color-interpolation-filters:sRGB"
       id="filter1057"
       x="-0.048000001"
       width="1.096"
       y="-0.048000001"
       height="1.096">
      <feGaussianBlur
         inkscape:collect="always"
         stdDeviation="1.1"
         id="feGaussianBlur1059" />
    </filter>
    <linearGradient
       inkscape:collect="always"
       xlink:href="#linearGradient1051"
       id="linearGradient1053"
       x1="-127"
       y1="60"
       x2="-72"
       y2="5"
       gradientUnits="userSpaceOnUse"
       gradientTransform="translate(131.5,-0.50999746)" />
    <linearGradient
       inkscape:collect="always"
       id="linearGradient1051">
      <stop
         style="stop-color:#df2a2a;stop-opacity:1"
         offset="0"
         id="stop1047" />
      <stop
         style="stop-color:#f83f3f;stop-opacity:1"
         offset="1"
         id="stop1049" />
    </linearGradient>
    <linearGradient
       id="linearGradient890-3"
       x2="0"
       y1="44"
       y2="4"
       gradientTransform="matrix(1.2346,0,0,1.2346,3.1419,3.6047)"
       gradientUnits="userSpaceOnUse">
      <stop
         stop-color="#FFB900"
         offset="0"
         id="stop861" />
      <stop
         stop-color="#ff0"
         offset="1"
         id="stop863" />
    </linearGradient>
    <filter
       id="filter2761-6"
       x="-.024"
       y="-.024"
       width="1.048"
       height="1.048"
       color-interpolation-filters="sRGB">
      <feGaussianBlur
         stdDeviation="0.14552168"
         id="feGaussianBlur866" />
    </filter>
    <filter
       id="filter2761-3"
       x="-.024"
       y="-.024"
       width="1.048"
       height="1.048"
       color-interpolation-filters="sRGB">
      <feGaussianBlur
         stdDeviation="0.14552168"
         id="feGaussianBlur935" />
    </filter>
    <linearGradient
       id="linearGradient4673-56"
       x1="1.4377"
       x2="15.644"
       y1="15.601"
       y2="1.1082"
       gradientTransform="translate(-8.4984e-4,0.14045)"
       gradientUnits="userSpaceOnUse">
      <stop
         stop-color="#dc2828"
         offset="0"
         id="stop938" />
      <stop
         stop-color="#fa4141"
         offset="1"
         id="stop940" />
    </linearGradient>
    <filter
       id="filter909"
       x="-.084"
       y="-.084"
       width="1.168"
       height="1.168"
       color-interpolation-filters="sRGB">
      <feGaussianBlur
         stdDeviation="0.27781045"
         id="feGaussianBlur943" />
    </filter>
    <filter
       inkscape:collect="always"
       style="color-interpolation-filters:sRGB"
       id="filter2104"
       x="-0.10800042"
       y="-0.10799958"
       width="1.2160008"
       height="1.2159992">
      <feGaussianBlur
         inkscape:collect="always"
         stdDeviation="1.5749939"
         id="feGaussianBlur2106" />
    </filter>
  </defs>
  <g
     fill="#5e4aa6"
     id="g30">
    <circle
       cx="-1248.7"
       cy="-1241.6"
       r="0"
       id="circle24" />
    <circle
       cx="-1140.3"
       cy="-1301.8"
       r="0"
       id="circle26" />
    <circle
       cx="-1158.1"
       cy="-1246"
       r="0"
       id="circle28" />
  </g>
  <circle
     style="stroke-width:1"
     cx="-1157.3"
     cy="-1267.7"
     r="0"
     fill="#5e4aa6"
     id="circle36" />
  <circle
     style="stroke-width:1"
     cx="-57.756001"
     cy="-2.1829"
     r="0"
     fill="#5e4aa6"
     fill-rule="evenodd"
     id="circle38" />
  <rect
     ry="15"
     y="4.5"
     x="4.5"
     height="55"
     width="55"
     id="rect1055"
     style="opacity:0.4;fill:#141414;fill-opacity:1;stroke-width:2.74436;stroke-linecap:round;filter:url(#filter1057)" />
  <rect
     style="fill:url(#linearGradient1053);fill-opacity:1;stroke-width:2.74436;stroke-linecap:round"
     id="rect1045"
     width="54.999996"
     height="54.999996"
     x="4.5000019"
     y="4.5000019"
     ry="14.999999" />
  <path
     d="m 24.222358,18.388889 c -1.296296,0 -2.073568,-2.073569 -2.073568,-2.073569 -1.296296,1.296296 -6.352358,6.610606 -7.648654,7.906902 0,0 3.513664,-0.649534 1.944444,1.944445 -1.56922,2.593979 -1.318722,4.275444 -1.319111,6.481481 C 15.123669,41.955167 22.670303,49.5 31.977321,49.5 c 9.307019,0 16.853148,-7.544833 16.851852,-16.851852 -3.43e-4,-2.211481 -0.849832,-5.460194 -1.273507,-6.481481 -0.423675,-1.021287 1.944198,-1.944432 1.944198,-1.944432 -1.296296,-1.296296 -6.352371,-6.610593 -7.648667,-7.906889 0,0 -0.777259,2.073556 -2.073309,2.073543 -1.29605,-1.3e-5 -3.888889,-1.296296 -3.888889,-1.296296 L 34.592729,14.5 c -1.296296,0 -3.88889,0 -5.185186,0 l -1.296322,2.592593 c 0,0 -2.522455,1.296296 -3.888863,1.296296 z"
     style="opacity:0.4;fill:#000000;fill-opacity:1;stroke-width:1.2963;paint-order:normal;filter:url(#filter2104)"
     id="path972-3"
     sodipodi:nodetypes="scczcsczcczccccs" />
  <path
     d="m 29.407543,14.5 -1.296296,1.296296 v 2.592593 h 7.777778 V 15.796296 L 34.592729,14.5 Z m -7.25874,1.815333 -7.648667,7.906889 0.648148,0.648148 h 1.296296 l 1.296297,1.296297 6.481481,-6.481482 -1.296296,-1.296296 V 17.092593 L 22.14879,16.31532 Z m 19.702407,0 -0.777272,0.777273 v 1.296296 l -1.296296,1.296296 6.481481,6.481482 1.296296,-1.296297 h 1.296297 l 0.648148,-0.648148 -7.648667,-7.906889 z"
     style="fill:#ffffff;stroke-width:1.2963;paint-order:normal;fill-opacity:1"
     id="path970" />
  <path
     d="m 24.222358,18.388889 -7.777778,7.777778 c -0.843668,2.038296 -1.318722,4.275444 -1.319111,6.481481 C 15.123654,41.955167 22.670303,49.5 31.977321,49.5 c 9.307019,0 16.853148,-7.544833 16.851852,-16.851852 -3.43e-4,-2.211481 -0.426157,-4.438907 -1.273507,-6.481481 l -7.777778,-7.777778 -3.888889,-1.296296 h -7.777778 z"
     style="fill:#ffffff;stroke-width:1.2963;paint-order:normal;fill-opacity:1;opacity:0.5"
     id="path972" />
  <path
     d="m 21.629766,27.462963 h 20.74074 l 1.296297,1.296296 v 7.777778 l -1.296297,1.296296 h -20.74074 l -1.296297,-1.296296 v -7.777778 z"
     style="fill:#ffffff;stroke-width:1.2963;paint-order:normal;fill-opacity:1;opacity:0.5"
     id="path974" />
  <path
     d="m 22.277914,28.759259 -0.648148,0.648148 v 6.481482 l 0.648148,0.648148 h 3.888889 l 0.648148,-0.648148 v -6.481482 l -0.648148,-0.648148 z m 9.074074,0 -0.648148,0.648148 v 6.481482 l 0.648148,0.648148 h 3.888889 l 0.648148,-0.648148 v -6.481482 l -0.648148,-0.648148 z m 6.481481,0 -0.648148,0.648148 v 0.648149 h 3.888889 v 6.481481 h 0.648148 l 0.648148,-0.648148 v -6.481482 l -0.648148,-0.648148 z m -14.907407,1.296297 h 2.592592 v 5.185185 h -2.592592 z m 9.074074,0 h 2.592593 v 5.185185 h -2.592593 z m -3.888889,1.296296 v 1.296296 h 1.296296 v -1.296296 z m 0,2.592593 v 1.296296 h 1.296296 v -1.296296 z"
     style="fill:#3e3e3e;stroke-width:1.2963;paint-order:normal"
     id="path976" />
</svg>
