<?xml version="1.0" encoding="UTF-8" standalone="no"?>
<!-- Created with Inkscape (http://www.inkscape.org/) -->

<svg
   width="64"
   height="64"
   viewBox="0 0 16.933333 16.933333"
   version="1.1"
   id="svg5"
   inkscape:version="1.1.2 (0a00cf5339, 2022-02-04, custom)"
   sodipodi:docname="ubiquity-kde.svg"
   xmlns:inkscape="http://www.inkscape.org/namespaces/inkscape"
   xmlns:sodipodi="http://sodipodi.sourceforge.net/DTD/sodipodi-0.dtd"
   xmlns:xlink="http://www.w3.org/1999/xlink"
   xmlns="http://www.w3.org/2000/svg"
   xmlns:svg="http://www.w3.org/2000/svg">
  <sodipodi:namedview
     id="namedview7"
     pagecolor="#ffffff"
     bordercolor="#666666"
     borderopacity="1.0"
     inkscape:pageshadow="2"
     inkscape:pageopacity="0.0"
     inkscape:pagecheckerboard="0"
     inkscape:document-units="px"
     showgrid="false"
     units="px"
     height="48px"
     inkscape:zoom="1"
     inkscape:cx="44.5"
     inkscape:cy="34.5"
     inkscape:window-width="1920"
     inkscape:window-height="1011"
     inkscape:window-x="0"
     inkscape:window-y="32"
     inkscape:window-maximized="1"
     inkscape:current-layer="svg5"
     inkscape:lockguides="true" />
  <defs
     id="defs2">
    <linearGradient
       inkscape:collect="always"
       id="linearGradient3246">
      <stop
         style="stop-color:#000000;stop-opacity:1;"
         offset="0"
         id="stop3242" />
      <stop
         style="stop-color:#000000;stop-opacity:0;"
         offset="1"
         id="stop3244" />
    </linearGradient>
    <linearGradient
       inkscape:collect="always"
       id="linearGradient2558">
      <stop
         style="stop-color:#e6e6e6;stop-opacity:1;"
         offset="0"
         id="stop2554" />
      <stop
         style="stop-color:#cccccc;stop-opacity:1"
         offset="1"
         id="stop2556" />
    </linearGradient>
    <linearGradient
       inkscape:collect="always"
       id="linearGradient939">
      <stop
         style="stop-color:#35a5e4;stop-opacity:1"
         offset="0"
         id="stop935" />
      <stop
         style="stop-color:#3584e4;stop-opacity:1"
         offset="1"
         id="stop937" />
    </linearGradient>
    <linearGradient
       inkscape:collect="always"
       xlink:href="#linearGradient37218"
       id="linearGradient1781"
       x1="2.8346456e-08"
       y1="2.2677165e-07"
       x2="64"
       y2="64"
       gradientUnits="userSpaceOnUse"
       gradientTransform="scale(0.26458333)" />
    <linearGradient
       inkscape:collect="always"
       id="linearGradient37218">
      <stop
         style="stop-color:#fffdfa;stop-opacity:1"
         offset="0"
         id="stop37214" />
      <stop
         style="stop-color:#aeaeae;stop-opacity:0.00392157"
         offset="0.49741825"
         id="stop37220" />
      <stop
         style="stop-color:#232323;stop-opacity:1"
         offset="1"
         id="stop37216" />
    </linearGradient>
    <linearGradient
       inkscape:collect="always"
       xlink:href="#linearGradient939"
       id="linearGradient1747"
       x1="11.112499"
       y1="16.933332"
       x2="11.112499"
       y2="-2.7838135e-07"
       gradientUnits="userSpaceOnUse" />
    <linearGradient
       inkscape:collect="always"
       xlink:href="#linearGradient2558"
       id="linearGradient2560"
       x1="40"
       y1="2.2677165e-07"
       x2="40"
       y2="64"
       gradientUnits="userSpaceOnUse" />
    <linearGradient
       inkscape:collect="always"
       xlink:href="#linearGradient3246"
       id="linearGradient3248"
       x1="5"
       y1="17.75"
       x2="59"
       y2="31.75"
       gradientUnits="userSpaceOnUse" />
    <linearGradient
       inkscape:collect="always"
       xlink:href="#linearGradient3246"
       id="linearGradient986"
       x1="0.8060286"
       y1="14.013622"
       x2="14.917157"
       y2="2.3719554"
       gradientUnits="userSpaceOnUse" />
  </defs>
  <rect
     style="opacity:1;fill:url(#linearGradient1747);fill-opacity:1;stroke-width:2.38125;stroke-linecap:round;stroke-linejoin:round"
     id="rect1551"
     width="12.7"
     height="12.7"
     x="2.1166666"
     y="2.1166666" />
  <path
     id="rect863"
     style="fill:url(#linearGradient2560);fill-opacity:1;stroke-width:0.999999"
     d="M 12 4 C 7.5680012 4 4 7.5680012 4 12 L 4 52 C 4 56.432003 7.5680012 60 12 60 L 52 60 C 56.432003 60 60 56.432003 60 52 L 60 12 C 60 7.5680012 56.432003 4 52 4 L 12 4 z M 32 11 A 21.000001 21.000001 0 0 1 53 32 A 21.000001 21.000001 0 0 1 32 53 A 21.000001 21.000001 0 0 1 11 32 A 21.000001 21.000001 0 0 1 32 11 z "
     transform="scale(0.26458333)" />
  <path
     id="rect1345"
     style="opacity:0.3;fill:url(#linearGradient1781);fill-opacity:1;stroke-width:0.264583"
     d="m 3.1750003,1.0583333 c -1.172633,0 -2.116667,0.944034 -2.116667,2.116667 V 13.758333 c 0,1.172634 0.944034,2.116667 2.116667,2.116667 H 13.758334 c 1.172633,0 2.116666,-0.944033 2.116666,-2.116667 V 3.1750003 c 0,-1.172633 -0.944033,-2.116667 -2.116666,-2.116667 z m 0,0.264584 H 13.758334 c 1.026054,0 1.852083,0.826029 1.852083,1.852083 V 13.758333 c 0,1.026054 -0.826029,1.852084 -1.852083,1.852084 H 3.1750003 c -1.026054,0 -1.852083,-0.82603 -1.852083,-1.852084 V 3.1750003 c 0,-1.026054 0.826029,-1.852083 1.852083,-1.852083 z" />
  <path
     id="path3078"
     style="opacity:0.3;fill:url(#linearGradient3248);fill-opacity:1;stroke-width:9;stroke-linecap:round;stroke-linejoin:round"
     d="M 32 11 A 21.000001 21.000001 0 0 0 11 32 A 21.000001 21.000001 0 0 0 11.019531 32.5 A 21.000001 21.000001 0 0 1 32 12 A 21.000001 21.000001 0 0 1 52.988281 32.332031 A 21.000001 21.000001 0 0 0 53 32 A 21.000001 21.000001 0 0 0 32 11 z "
     transform="scale(0.26458333)" />
  <path
     d="m 8.1297758,4.2898053 c -0.0084,-8.996e-4 -0.01713,-1.868e-4 -0.02578,0.00196 l -0.796934,0.1940658 c -0.03347,0.00819 -0.05721,0.038257 -0.05739,0.072956 l 0.351164,1.6210981 0.01386,0.00851 c 0.267762,-0.089684 0.553943,-0.1391095 0.85189,-0.1391095 1.344735,0 2.4583802,0.9897433 2.6522202,2.2803831 l 1.639093,-0.3587035 c 0.03215,-0.01537 0.04892,-0.051062 0.04038,-0.085603 l -0.194071,-0.796942 c -0.0083,-0.033551 -0.03831,-0.057363 -0.07296,-0.057393 L 11.222654,7.0300726 C 11.112216,6.8219185 10.975774,6.6260363 10.814827,6.4473899 l 0.42631,-1.2001375 c 0.01182,-0.03338 -0.0012,-0.070509 -0.03162,-0.089007 L 10.508648,4.7319349 c -0.02963,-0.018026 -0.06764,-0.01342 -0.09192,0.01094 L 9.5351588,5.623224 C 9.2736948,5.5397331 9.0055038,5.4936618 8.7382298,5.4858134 l -0.548629,-1.153448 c -0.01155,-0.024151 -0.03445,-0.039871 -0.05983,-0.042558 z m -2.59896,1.1738731 c -0.0167,0.00175 -0.0327,0.00902 -0.04523,0.021643 L 4.905337,6.0653279 C 4.88095,6.0897939 4.876422,6.1276369 4.894439,6.1572529 L 5.573673,7.2759223 C 5.4532118,7.4784389 5.3566876,7.6968416 5.2876817,7.9271826 L 4.0408526,8.1864218 c -0.03469,0.0072 -0.059824,0.038086 -0.059824,0.073687 v 0.8200329 c 0,0.034693 0.023717,0.064877 0.057146,0.072956 l 1.2101097,0.2957179 c 0.064535,0.2667741 0.1647564,0.5197467 0.2969324,0.7521834 l -0.7006272,1.06833 c -0.019542,0.02984 -0.015277,0.06897 0.00997,0.09411 l 0.5797633,0.580005 c 0.02439,0.02434 0.06242,0.02906 0.09216,0.01115 l 1.120135,-1.238802 7.41e-4,-0.018 c -0.529381,-0.489899 -0.862643,-1.1885279 -0.862643,-1.9666277 0,-0.8629701 0.409124,-1.628829 1.042308,-2.1193919 l -1.24732,-1.1361785 c -0.01492,-0.00975 -0.03219,-0.013645 -0.04888,-0.011917 z m 5.5546802,3.8455472 c -0.264433,1.2032504 -1.3361932,2.1040734 -2.6189042,2.1040734 -0.337861,0 -0.660894,-0.063 -0.958649,-0.177042 l -0.008,0.0044 -0.428499,1.621584 c -0.002,0.03559 0.02129,0.06749 0.05569,0.07661 l 0.792067,0.213033 c 0.03338,0.009 0.06867,-0.0059 0.08536,-0.03624 l 0.6301,-1.146879 c 0.235612,0.0033 0.472917,-0.02213 0.70695,-0.07733 l 0.8472732,0.950867 c 0.02354,0.02647 0.06255,0.03285 0.09338,0.01509 l 0.710842,-0.409529 c 0.03005,-0.01731 0.04422,-0.05284 0.03453,-0.08585 l -0.347785,-1.19624 c 0.198936,-0.189097 0.367985,-0.402215 0.503401,-0.632778 l 1.275283,0.07369 c 0.03562,0.002 0.06767,-0.02102 0.07685,-0.05545 l 0.213033,-0.792067 c 0.009,-0.033285 -0.0059,-0.068755 -0.03624,-0.085603 z"
     style="fill:url(#linearGradient986);fill-opacity:1;stroke-width:0.0136812;opacity:0.2"
     id="path867" />
  <path
     d="m 8.1297752,4.0251498 c -0.0084,-8.965e-4 -0.017132,-1.868e-4 -0.025775,0.00195 l -0.796934,0.1940658 c -0.033468,0.00819 -0.057212,0.038257 -0.057395,0.072956 l 0.3511645,1.621098 0.01386,0.00851 C 7.882457,5.8340466 8.1686384,5.7846213 8.466585,5.7846213 c 1.3447356,0 2.45838,0.9897433 2.65222,2.2803832 l 1.639093,-0.3587037 c 0.03215,-0.015371 0.04892,-0.051062 0.04038,-0.085603 L 12.604205,6.8237627 c -0.0083,-0.033551 -0.03831,-0.057363 -0.07296,-0.057393 L 11.222653,6.7654073 C 11.112215,6.5572533 10.975773,6.3613711 10.814826,6.1827247 l 0.42631,-1.2001376 c 0.01182,-0.03338 -0.0012,-0.070509 -0.03162,-0.089007 L 10.508647,4.4672696 c -0.02963,-0.018026 -0.06764,-0.013419 -0.09192,0.010942 L 9.5351588,5.3585601 C 9.2736944,5.2750778 9.0055037,5.2290063 8.7382289,5.2211581 L 8.1895998,4.06771 C 8.1780498,4.043558 8.1551488,4.027839 8.1297718,4.025152 Z M 5.5308156,5.199023 c -0.016695,0.00174 -0.032695,0.00902 -0.045229,0.021643 l -0.58025,0.5800064 c -0.024386,0.024465 -0.028915,0.062309 -0.010898,0.091925 l 0.679234,1.1186695 C 5.4532114,7.2137836 5.3566875,7.4321863 5.2876815,7.662527 L 4.0408524,7.9217664 c -0.03469,0.0072 -0.059824,0.038086 -0.059824,0.073687 v 0.8200329 c 0,0.034693 0.023717,0.064877 0.057146,0.072956 L 5.2482842,9.18416 c 0.064535,0.2667743 0.1647567,0.5197468 0.2969321,0.7521835 l -0.700627,1.0683295 c -0.019543,0.02984 -0.015278,0.06897 0.00997,0.09411 l 0.5797627,0.580005 c 0.024387,0.02434 0.062422,0.02906 0.092163,0.01115 l 1.1201354,-1.238801 7.52e-4,-0.018 C 6.11799,9.9432377 5.7847278,9.2446089 5.7847278,8.4665092 c 0,-0.8629701 0.4091234,-1.628829 1.0423075,-2.1193919 L 5.5797154,5.2109388 c -0.014923,-0.00975 -0.032195,-0.013646 -0.048878,-0.011918 z M 11.085495,9.0445702 C 10.821062,10.24782 9.7493021,11.148643 8.4665917,11.148643 c -0.337861,0 -0.6608948,-0.063 -0.9586498,-0.177042 l -0.008,0.0044 -0.4284984,1.621584 c -0.00197,0.03559 0.021288,0.06749 0.05569,0.07661 l 0.792067,0.213033 c 0.033379,0.009 0.06867,-0.0059 0.085359,-0.03624 l 0.6301014,-1.146879 c 0.2356112,0.0033 0.4729164,-0.02213 0.7069493,-0.07733 l 0.8472728,0.950868 c 0.02354,0.02647 0.06255,0.03285 0.09338,0.01509 l 0.710842,-0.409529 c 0.03005,-0.01731 0.04422,-0.05284 0.03453,-0.08585 l -0.347785,-1.19624 c 0.198936,-0.189098 0.367985,-0.402216 0.503401,-0.632779 l 1.275283,0.07369 c 0.03562,0.002 0.06767,-0.02102 0.07685,-0.05545 l 0.213033,-0.7920666 c 0.009,-0.033285 -0.0059,-0.068755 -0.03624,-0.085603 z"
     style="fill:#ffffff;fill-opacity:1;stroke-width:0.0517085"
     id="path873"
     sodipodi:nodetypes="ccccccsccccccccccccccccsccccccsscccccccccsccsscsccccccccccccccccccc" />
</svg>
