<?xml version="1.0" encoding="UTF-8" standalone="no"?>
<!-- Created with Inkscape (http://www.inkscape.org/) -->

<svg
   width="64"
   height="64"
   viewBox="0 0 16.933333 16.933333"
   version="1.1"
   id="svg5"
   inkscape:version="1.1.1 (3bf5ae0d25, 2021-09-20, custom)"
   sodipodi:docname="goa-account-ubuntusso.svg"
   xmlns:inkscape="http://www.inkscape.org/namespaces/inkscape"
   xmlns:sodipodi="http://sodipodi.sourceforge.net/DTD/sodipodi-0.dtd"
   xmlns:xlink="http://www.w3.org/1999/xlink"
   xmlns="http://www.w3.org/2000/svg"
   xmlns:svg="http://www.w3.org/2000/svg">
  <sodipodi:namedview
     id="namedview7"
     pagecolor="#ffffff"
     bordercolor="#666666"
     borderopacity="1.0"
     inkscape:pageshadow="2"
     inkscape:pageopacity="0.0"
     inkscape:pagecheckerboard="0"
     inkscape:document-units="px"
     showgrid="false"
     units="px"
     height="48px"
     inkscape:zoom="5.656854"
     inkscape:cx="-7.2478448"
     inkscape:cy="28.991379"
     inkscape:window-width="1920"
     inkscape:window-height="1011"
     inkscape:window-x="0"
     inkscape:window-y="0"
     inkscape:window-maximized="1"
     inkscape:current-layer="svg5"
     inkscape:lockguides="true" />
  <defs
     id="defs2">
    <linearGradient
       inkscape:collect="always"
       id="linearGradient37218">
      <stop
         style="stop-color:#1a1a1a;stop-opacity:1"
         offset="0"
         id="stop37214" />
      <stop
         style="stop-color:#e6e6e6;stop-opacity:0.00306325"
         offset="0.49741825"
         id="stop37220" />
      <stop
         style="stop-color:#ffffff;stop-opacity:1"
         offset="1"
         id="stop37216" />
    </linearGradient>
    <linearGradient
       inkscape:collect="always"
       xlink:href="#linearGradient37218"
       id="linearGradient1781"
       x1="64"
       y1="64"
       x2="-1.7196851e-06"
       y2="-1.9653544e-06"
       gradientUnits="userSpaceOnUse"
       gradientTransform="scale(0.26458332)" />
  </defs>
  <path
     id="rect863"
     style="fill:#e95420;stroke-width:0.264583;fill-opacity:1"
     d="M 3.1750002,1.0583333 H 13.758333 c 1.172634,0 2.116667,0.944034 2.116667,2.1166671 V 13.758333 c 0,1.172634 -0.944033,2.116667 -2.116667,2.116667 H 3.1750002 c -1.1726329,0 -2.1166669,-0.944033 -2.1166669,-2.116667 V 3.1750004 c 0,-1.172633 0.944034,-2.116667 2.1166669,-2.1166671 z" />
  <path
     id="rect1345"
     style="opacity:0.3;fill:url(#linearGradient1781);fill-opacity:1;stroke-width:0.264583"
     d="m 3.1750002,1.0583333 c -1.1726329,0 -2.1166669,0.944034 -2.1166669,2.1166671 V 13.758333 c 0,1.172634 0.944034,2.116667 2.1166669,2.116667 H 13.758333 c 1.172633,0 2.116667,-0.944033 2.116667,-2.116667 V 3.1750004 c 0,-1.172633 -0.944033,-2.116667 -2.116667,-2.116667 z m 0,0.264584 H 13.758333 c 1.026055,0 1.852084,0.826029 1.852084,1.8520831 V 13.758333 c 0,1.026054 -0.826029,1.852084 -1.852084,1.852084 H 3.1750002 c -1.0260539,0 -1.8520829,-0.82603 -1.8520829,-1.852084 V 3.1750004 c 0,-1.026054 0.826029,-1.852083 1.8520829,-1.8520831 z" />
  <path
     id="path6"
     style="fill:#ffffff;fill-opacity:1;stroke-width:1.24523"
     d="m 4.4979166,3.4395833 0.037321,6.6271877 c 0,0 -0.037503,2.772371 2.9336196,3.356385 1.7059676,0.336212 4.9361268,-0.637688 4.9361268,-0.637688 V 3.4408702 H 9.889625 V 10.988233 H 7.3716924 V 5.9575156 H 5.9348045 L 7.7313971,3.4408702 Z" />
</svg>
