<?xml version="1.0" encoding="UTF-8" standalone="no"?>
<svg
   clip-rule="evenodd"
   fill-rule="evenodd"
   stroke-linejoin="round"
   stroke-miterlimit="2"
   viewBox="0 0 48 48"
   version="1.1"
   id="svg11"
   sodipodi:docname="whalebird.svg"
   inkscape:version="1.1.2 (0a00cf5339, 2022-02-04, custom)"
   xmlns:inkscape="http://www.inkscape.org/namespaces/inkscape"
   xmlns:sodipodi="http://sodipodi.sourceforge.net/DTD/sodipodi-0.dtd"
   xmlns="http://www.w3.org/2000/svg"
   xmlns:svg="http://www.w3.org/2000/svg">
  <defs
     id="defs15">
    <filter
       inkscape:collect="always"
       style="color-interpolation-filters:sRGB"
       id="filter1052"
       x="-0.10086141"
       y="-0.11622604"
       width="1.2017228"
       height="1.2324521">
      <feGaussianBlur
         inkscape:collect="always"
         stdDeviation="1.3075432"
         id="feGaussianBlur1054" />
    </filter>
    <linearGradient
       id="linearGradient1607"
       x2="0.99475658"
       gradientTransform="matrix(-0.299799,-43.336,43.336,-0.299799,198.381,44.4688)"
       gradientUnits="userSpaceOnUse"
       x1="0.0022575408"
       y1="-3.9979033"
       y2="-3.9876623">
      <stop
         stop-color="#00ad8c"
         offset="0"
         id="stop2-6"
         style="stop-color:#007e68;stop-opacity:1" />
      <stop
         stop-color="#40e0ca"
         offset="1"
         id="stop4-7"
         style="stop-color:#1df364;stop-opacity:1" />
    </linearGradient>
    <filter
       inkscape:collect="always"
       style="color-interpolation-filters:sRGB"
       id="filter1830"
       x="-0.048000001"
       y="-0.048000001"
       width="1.096"
       height="1.096">
      <feGaussianBlur
         inkscape:collect="always"
         stdDeviation="0.86672"
         id="feGaussianBlur1832" />
    </filter>
  </defs>
  <sodipodi:namedview
     id="namedview13"
     pagecolor="#ffffff"
     bordercolor="#666666"
     borderopacity="1.0"
     inkscape:pageshadow="2"
     inkscape:pageopacity="0.0"
     inkscape:pagecheckerboard="0"
     showgrid="false"
     inkscape:zoom="8.0509381"
     inkscape:cx="28.568099"
     inkscape:cy="26.083917"
     inkscape:window-width="1366"
     inkscape:window-height="703"
     inkscape:window-x="0"
     inkscape:window-y="37"
     inkscape:window-maximized="1"
     inkscape:current-layer="svg11" />
  <linearGradient
     id="a"
     x2="0.99475658"
     gradientTransform="matrix(-.299799 -43.336 43.336 -.299799 198.381 44.4688)"
     gradientUnits="userSpaceOnUse"
     x1="0.0022575408"
     y1="-3.9979033"
     y2="-3.9876623">
    <stop
       stop-color="#00ad8c"
       offset="0"
       id="stop2"
       style="stop-color:#007e68;stop-opacity:1" />
    <stop
       stop-color="#40e0ca"
       offset="1"
       id="stop4"
       style="stop-color:#1df364;stop-opacity:1" />
  </linearGradient>
  <path
     d="m 45.668,8.56 c 0,-3.438 -2.79,-6.228 -6.228,-6.228 H 8.56 c -3.438,0 -6.228,2.79 -6.228,6.228 v 30.88 c 0,3.438 2.79,6.228 6.228,6.228 h 30.88 c 3.438,0 6.228,-2.79 6.228,-6.228 z"
     fill="url(#a)"
     id="path7-5"
     style="fill:#000000;fill-opacity:1;filter:url(#filter1830);opacity:0.3" />
  <path
     d="m45.668 8.56c0-3.438-2.79-6.228-6.228-6.228h-30.88c-3.438 0-6.228 2.79-6.228 6.228v30.88c0 3.438 2.79 6.228 6.228 6.228h30.88c3.438 0 6.228-2.79 6.228-6.228z"
     fill="url(#a)"
     id="path7"
     style="fill-opacity:1;fill:url(#a)" />
  <path
     d="m 32.206,37.5 c -1.01,0 -2.626,-0.106 -3.926,-1.365 -0.777,-0.752 -3.145,-3.883 -4.28,-6.395 -0.648,-1.435 -2.829,-3.698 -4.991,-3.353 -2.514,0.402 -3.774,2.608 -3.916,2.977 -0.053,0.138 0.143,0.426 0.476,0.699 1.035,0.849 1.472,2.555 0.959,3.779 -0.234,0.556 -0.468,0.86 -1.005,0.84 -0.529,-0.019 -1.128,-1.19 -2.58,-1.137 -2.021,0.075 -4.608,2.93 -4.701,2.898 -0.367,-0.121 -0.465,-1.633 -0.124,-2.83 0.664,-2.325 2.004,-3.441 3.678,-4.356 l 0.581,-0.318 0.188,-1.901 c 0.22,-2.206 0.541,-3.418 1.334,-5.035 1.294,-2.637 3.855,-4.834 6.424,-6.058 0.778,-0.371 1.602,-0.767 1.832,-0.879 0.305,-0.152 0.402,-0.314 0.362,-0.611 -0.082,-0.607 -0.799,-2.107 -1.281,-2.677 -0.534,-0.632 -0.367,-0.873 0.771,-1.115 1.696,-0.363 3.429,-0.111 4.964,0.669 0.961,0.487 2.387,1.872 3.018,2.928 0.466,0.783 0.698,0.975 1.954,1.623 5.984,3.085 8.477,9.753 6.303,16.276 -0.336,1.012 -0.823,2.027 -1.326,2.765 -1.264,1.857 -2.579,2.576 -4.714,2.576 z"
     fill="#ffffff"
     fill-rule="nonzero"
     id="path9-3"
     style="fill:#000000;fill-opacity:1;filter:url(#filter1052);opacity:0.4" />
  <path
     d="m32.206 37.5c-1.01 0-2.626-.106-3.926-1.365-.777-.752-3.145-3.883-4.28-6.395-.648-1.435-2.829-3.698-4.991-3.353-2.514.402-3.774 2.608-3.916 2.977-.053.138.143.426.476.699 1.035.849 1.472 2.555.959 3.779-.234.556-.468.86-1.005.84-.529-.019-1.128-1.19-2.58-1.137-2.021.075-4.608 2.93-4.701 2.898-.367-.121-.465-1.633-.124-2.83.664-2.325 2.004-3.441 3.678-4.356l.581-.318.188-1.901c.22-2.206.541-3.418 1.334-5.035 1.294-2.637 3.855-4.834 6.424-6.058.778-.371 1.602-.767 1.832-.879.305-.152.402-.314.362-.611-.082-.607-.799-2.107-1.281-2.677-.534-.632-.367-.873.771-1.115 1.696-.363 3.429-.111 4.964.669.961.487 2.387 1.872 3.018 2.928.466.783.698.975 1.954 1.623 5.984 3.085 8.477 9.753 6.303 16.276-.336 1.012-.823 2.027-1.326 2.765-1.264 1.857-2.579 2.576-4.714 2.576z"
     fill="#fff"
     fill-rule="nonzero"
     id="path9" />
</svg>
