<?xml version="1.0" encoding="UTF-8" standalone="no"?>
<!-- Created with Inkscape (http://www.inkscape.org/) -->

<svg
   width="64"
   height="64"
   viewBox="0 0 16.933333 16.933333"
   version="1.1"
   id="svg5"
   inkscape:version="1.1.2 (0a00cf5339, 2022-02-04, custom)"
   sodipodi:docname="xfce-terminal-settings.svg"
   xmlns:inkscape="http://www.inkscape.org/namespaces/inkscape"
   xmlns:sodipodi="http://sodipodi.sourceforge.net/DTD/sodipodi-0.dtd"
   xmlns:xlink="http://www.w3.org/1999/xlink"
   xmlns="http://www.w3.org/2000/svg"
   xmlns:svg="http://www.w3.org/2000/svg">
  <sodipodi:namedview
     id="namedview7"
     pagecolor="#ffffff"
     bordercolor="#666666"
     borderopacity="1.0"
     inkscape:pageshadow="2"
     inkscape:pageopacity="0.0"
     inkscape:pagecheckerboard="0"
     inkscape:document-units="px"
     showgrid="false"
     units="px"
     height="48px"
     inkscape:zoom="7.9999996"
     inkscape:cx="4.6875002"
     inkscape:cy="41.062502"
     inkscape:window-width="1920"
     inkscape:window-height="1011"
     inkscape:window-x="0"
     inkscape:window-y="32"
     inkscape:window-maximized="1"
     inkscape:current-layer="svg5"
     inkscape:lockguides="true" />
  <defs
     id="defs2">
    <linearGradient
       inkscape:collect="always"
       id="linearGradient3187">
      <stop
         style="stop-color:#ffffff;stop-opacity:1"
         offset="0"
         id="stop3183" />
      <stop
         style="stop-color:#ffffff;stop-opacity:0"
         offset="1"
         id="stop3185" />
    </linearGradient>
    <linearGradient
       inkscape:collect="always"
       id="linearGradient1106">
      <stop
         style="stop-color:#333333;stop-opacity:1;"
         offset="0"
         id="stop1102" />
      <stop
         style="stop-color:#4d4d4d;stop-opacity:1"
         offset="1"
         id="stop1104" />
    </linearGradient>
    <linearGradient
       inkscape:collect="always"
       xlink:href="#linearGradient3187"
       id="linearGradient3189"
       x1="17"
       y1="39.75"
       x2="37"
       y2="19.75"
       gradientUnits="userSpaceOnUse"
       gradientTransform="matrix(0.26458333,0,0,0.26458333,-0.66145837,-1.3456149)" />
    <linearGradient
       inkscape:collect="always"
       xlink:href="#linearGradient37218-3"
       id="linearGradient1781"
       x1="2.8346456e-08"
       y1="2.2677165e-07"
       x2="64"
       y2="64"
       gradientUnits="userSpaceOnUse"
       gradientTransform="matrix(0.26458333,0,0,0.26458333,1.3125e-6,1.125e-7)" />
    <linearGradient
       inkscape:collect="always"
       id="linearGradient37218-3">
      <stop
         style="stop-color:#ffffff;stop-opacity:1"
         offset="0"
         id="stop37214-6" />
      <stop
         style="stop-color:#717171;stop-opacity:0.00392157"
         offset="0.49741825"
         id="stop37220-7" />
      <stop
         style="stop-color:#181818;stop-opacity:1"
         offset="1"
         id="stop37216-5" />
    </linearGradient>
    <linearGradient
       inkscape:collect="always"
       xlink:href="#linearGradient1106"
       id="linearGradient1001"
       x1="5.8208342"
       y1="16.933334"
       x2="5.8208346"
       y2="6.7529299e-07"
       gradientUnits="userSpaceOnUse" />
    <linearGradient
       inkscape:collect="always"
       xlink:href="#linearGradient1254"
       id="linearGradient1256"
       x1="50"
       y1="64"
       x2="50"
       y2="2.2677165e-07"
       gradientUnits="userSpaceOnUse"
       gradientTransform="scale(0.26458333)" />
    <linearGradient
       inkscape:collect="always"
       id="linearGradient1254">
      <stop
         style="stop-color:#b3b3b3;stop-opacity:1;"
         offset="0"
         id="stop1250" />
      <stop
         style="stop-color:#ececec;stop-opacity:1"
         offset="1"
         id="stop1252" />
    </linearGradient>
    <linearGradient
       inkscape:collect="always"
       xlink:href="#linearGradient1272"
       id="linearGradient1274"
       x1="3"
       y1="6.5"
       x2="61"
       y2="14.5"
       gradientUnits="userSpaceOnUse"
       gradientTransform="scale(0.26458333)" />
    <linearGradient
       inkscape:collect="always"
       id="linearGradient1272">
      <stop
         style="stop-color:#000000;stop-opacity:1;"
         offset="0"
         id="stop1268" />
      <stop
         style="stop-color:#000000;stop-opacity:0;"
         offset="1"
         id="stop1270" />
    </linearGradient>
    <linearGradient
       inkscape:collect="always"
       xlink:href="#linearGradient1016"
       id="linearGradient1018"
       x1="8.4666662"
       y1="8.4666662"
       x2="16.933332"
       y2="16.404167"
       gradientUnits="userSpaceOnUse"
       gradientTransform="matrix(1.1666667,0,0,1.1666667,-2.1166658,-2.1166657)" />
    <linearGradient
       inkscape:collect="always"
       id="linearGradient1016">
      <stop
         style="stop-color:#cccccc;stop-opacity:1;"
         offset="0"
         id="stop1012" />
      <stop
         style="stop-color:#999999;stop-opacity:1"
         offset="1"
         id="stop1014" />
    </linearGradient>
    <linearGradient
       inkscape:collect="always"
       xlink:href="#linearGradient2058"
       id="linearGradient2060"
       x1="13.754716"
       y1="18.536539"
       x2="13.754716"
       y2="-2.1009581"
       gradientUnits="userSpaceOnUse"
       gradientTransform="matrix(0.5999994,0,0,0.5999994,7.6200042,7.6200047)" />
    <linearGradient
       inkscape:collect="always"
       id="linearGradient2058">
      <stop
         style="stop-color:#333333;stop-opacity:1"
         offset="0"
         id="stop2054" />
      <stop
         style="stop-color:#666666;stop-opacity:1"
         offset="1"
         id="stop2056" />
    </linearGradient>
    <linearGradient
       inkscape:collect="always"
       xlink:href="#linearGradient3822"
       id="linearGradient6863"
       x1="12.435417"
       y1="17.727047"
       x2="12.43545"
       y2="4.2333245"
       gradientUnits="userSpaceOnUse"
       gradientTransform="matrix(0.70000009,0,0,0.70000009,6.7733119,5.1064578)" />
    <linearGradient
       inkscape:collect="always"
       id="linearGradient3822">
      <stop
         style="stop-color:#999999;stop-opacity:1"
         offset="0"
         id="stop3818" />
      <stop
         style="stop-color:#cccccc;stop-opacity:1"
         offset="1"
         id="stop3820" />
    </linearGradient>
    <linearGradient
       inkscape:collect="always"
       xlink:href="#linearGradient2216"
       id="linearGradient1449"
       gradientUnits="userSpaceOnUse"
       x1="9.5249996"
       y1="9.5249996"
       x2="15.874999"
       y2="15.875001"
       gradientTransform="matrix(1.1666668,0,0,1.1666668,-2.1166662,-2.1166674)" />
    <linearGradient
       inkscape:collect="always"
       id="linearGradient2216">
      <stop
         style="stop-color:#ffffff;stop-opacity:1"
         offset="0"
         id="stop2210" />
      <stop
         style="stop-color:#ffffff;stop-opacity:0.00392157"
         offset="0.49741825"
         id="stop2212" />
      <stop
         style="stop-color:#ffffff;stop-opacity:1"
         offset="1"
         id="stop2214" />
    </linearGradient>
  </defs>
  <path
     id="rect863"
     style="fill:url(#linearGradient1001);fill-opacity:1;stroke-width:0.264583"
     d="m 3.704166,1.5875 h 9.525 c 1.172634,0 2.116667,0.9440332 2.116667,2.1166662 v 9.5249998 c 0,1.172634 -0.944033,2.116667 -2.116667,2.116667 h -9.525 C 2.531534,15.345833 1.5875,14.4018 1.5875,13.229166 V 3.7041662 C 1.5875,2.5315332 2.531534,1.5875 3.704166,1.5875 Z"
     sodipodi:nodetypes="sssssssss" />
  <path
     id="rect867"
     style="fill:url(#linearGradient1256);fill-opacity:1;stroke-width:2.38125;stroke-linecap:round;stroke-linejoin:round"
     d="m 3.175,1.0583333 c -1.1726333,0 -2.1166667,0.944033 -2.1166667,2.116667 V 13.758333 c 0,1.172633 0.9440334,2.116667 2.1166667,2.116667 h 10.583333 c 1.172633,0 2.116667,-0.944034 2.116667,-2.116667 V 3.1750003 c 0,-1.172634 -0.944034,-2.116667 -2.116667,-2.116667 z m 0.2645833,0.79375 H 13.49375 c 0.879475,0 1.5875,0.708025 1.5875,1.5875 V 13.49375 c 0,0.879475 -0.708025,1.5875 -1.5875,1.5875 H 3.4395833 c -0.879475,0 -1.5875,-0.708025 -1.5875,-1.5875 V 3.4395833 c 0,-0.879475 0.708025,-1.5875 1.5875,-1.5875 z" />
  <path
     id="rect872"
     style="opacity:0.3;fill:url(#linearGradient1274);fill-opacity:1;stroke-width:2.38125;stroke-linecap:round;stroke-linejoin:round"
     d="m 3.4395833,1.8520833 c -0.879475,0 -1.5875,0.708025 -1.5875,1.5875 v 0.264583 c 0,-0.879475 0.708025,-1.5875 1.5875,-1.5875 H 13.49375 c 0.879475,0 1.5875,0.708025 1.5875,1.5875 v -0.264583 c 0,-0.879475 -0.708025,-1.5875 -1.5875,-1.5875 z" />
  <path
     id="rect1345"
     style="opacity:0.3;fill:url(#linearGradient1781);fill-opacity:1;stroke-width:0.264583"
     d="m 3.1750003,1.0583333 c -1.172633,0 -2.116667,0.9440335 -2.116667,2.1166668 V 13.758333 c 0,1.172634 0.944034,2.116667 2.116667,2.116667 H 13.758334 c 1.172633,0 2.116666,-0.944033 2.116666,-2.116667 V 3.1750001 c 0,-1.1726333 -0.944033,-2.1166668 -2.116666,-2.1166668 z m 0,0.2645834 H 13.758334 c 1.026054,0 1.852083,0.8260292 1.852083,1.8520834 V 13.758333 c 0,1.026054 -0.826029,1.852084 -1.852083,1.852084 H 3.1750003 c -1.026055,0 -1.852083,-0.82603 -1.852083,-1.852084 V 3.1750001 c 0,-1.0260542 0.826028,-1.8520834 1.852083,-1.8520834 z" />
  <path
     id="rect1562-6"
     style="opacity:0.3;fill:url(#linearGradient3189);fill-opacity:1;stroke-width:0.273129"
     d="M 4.1010416,4.4752183 3.9687499,4.60751 5.3652664,6.0040275 5.4975581,5.8717359 Z M 6.1136212,6.0040273 4.3429272,7.7747214 4.1010416,7.5328357 3.9687499,7.6651277 4.3429272,8.0393044 6.2459129,6.136319 Z M 6.245913,7.9884024 v 0.264583 h 2.6458335 v -0.264583 z"
     sodipodi:nodetypes="ccccccccccccccccc" />
  <rect
     style="opacity:1;fill:#e6e6e6;stroke-width:2.08849;stroke-linecap:round;stroke-linejoin:round"
     id="rect996"
     width="2.6458333"
     height="0.52916664"
     x="6.245913"
     y="7.4592357"
     ry="0" />
  <path
     id="rect996-3"
     style="fill:#e6e6e6;stroke-width:2.38125;stroke-linecap:round;stroke-linejoin:round"
     d="M 3.9687499,7.4005444 5.4975581,5.8717359 3.9687499,4.3429267 4.3429267,3.9687499 6.2459129,5.8717357 4.3429272,7.7747214 Z"
     sodipodi:nodetypes="ccccccc" />
  <circle
     style="fill:url(#linearGradient1018);fill-opacity:1;stroke-width:0.303379"
     id="path876"
     cx="12.700001"
     cy="12.700003"
     r="3.7041667" />
  <path
     id="rect846-3-3"
     style="fill:url(#linearGradient2060);fill-opacity:1;stroke-width:0.202517"
     d="M 12.699999,9.5249998 A 3.1749969,3.1749969 0 0 0 9.5249998,12.699997 3.1749969,3.1749969 0 0 0 12.699999,15.874996 3.1749969,3.1749969 0 0 0 15.875,12.699997 3.1749969,3.1749969 0 0 0 12.699999,9.5249998 Z" />
  <path
     id="path863-3"
     style="fill:url(#linearGradient6863);fill-opacity:1;stroke-width:0.303104;stroke-linejoin:round"
     d="m 15.478078,12.699986 c 0,-0.09053 -0.07288,-0.163418 -0.163419,-0.163418 h -0.175227 a 2.4512737,2.4512737 0 0 0 -0.04021,-0.31024 l 0.168525,-0.04533 c 0.07651,-0.0205 0.125607,-0.09127 0.120972,-0.167244 -7e-4,-0.01085 -0.0024,-0.02195 -0.0053,-0.03286 -0.02344,-0.08744 -0.112676,-0.138971 -0.200124,-0.115535 l -0.168208,0.045 a 2.4512737,2.4512737 0 0 0 -0.118784,-0.289825 l 0.149694,-0.08649 c 0.049,-0.02829 0.07801,-0.07766 0.08172,-0.129907 0.0022,-0.03136 -0.0048,-0.0638 -0.02171,-0.09319 -0.04526,-0.0784 -0.145022,-0.104953 -0.223424,-0.05968 l -0.148729,0.08586 a 2.4512737,2.4512737 0 0 0 -0.189631,-0.250244 l 0.12033,-0.12033 c 0.03202,-0.03203 0.04789,-0.07378 0.04789,-0.115547 0,-0.04176 -0.01586,-0.08354 -0.04789,-0.115546 -0.06401,-0.06401 -0.167068,-0.06401 -0.231084,0 l -0.120333,0.120321 a 2.4512737,2.4512737 0 0 0 -0.250275,-0.189587 l 0.08585,-0.148738 c 0.01698,-0.0294 0.02387,-0.06178 0.02171,-0.09319 -0.0036,-0.05235 -0.03238,-0.101931 -0.08138,-0.130226 -0.07841,-0.04526 -0.177838,-0.01838 -0.223105,0.06002 l -0.08649,0.149692 a 2.4512737,2.4512737 0 0 0 -0.28983,-0.11873 l 0.045,-0.168207 c 0.0029,-0.01096 0.0048,-0.02201 0.0053,-0.03287 0.0046,-0.07599 -0.04446,-0.146745 -0.120974,-0.167247 -0.08744,-0.023424 -0.176692,0.0281 -0.200123,0.115547 l -0.04533,0.168525 a 2.4512737,2.4512737 0 0 0 -0.31015,-0.04021 v -0.175229 c 0,-0.090534 -0.07288,-0.163417 -0.163419,-0.163417 -0.09053,-9e-7 -0.163418,0.072879 -0.163418,0.163417 l -2e-6,0.175228 a 2.4512737,2.4512737 0 0 0 -0.31024,0.04021 l -0.04533,-0.168525 c -0.02342,-0.08746 -0.112677,-0.1389732 -0.200123,-0.115547 -0.08746,0.02342 -0.138973,0.112677 -0.115547,0.200125 l 0.045,0.168207 a 2.4512737,2.4512737 0 0 0 -0.289772,0.118734 l -0.08651,-0.149695 c -0.04526,-0.07841 -0.1447,-0.10528 -0.223104,-0.06002 -0.0784,0.04526 -0.104953,0.145019 -0.05968,0.223424 l 0.08586,0.148734 a 2.4512737,2.4512737 0 0 0 -0.250233,0.189597 l -0.12033,-0.120329 c -0.06401,-0.06401 -0.167068,-0.06401 -0.231087,0 -0.06401,0.06401 -0.06401,0.167068 4e-6,0.231083 l 0.120329,0.12033 a 2.4512737,2.4512737 0 0 0 -0.189575,0.250241 l -0.148738,-0.08586 c -0.07841,-0.04526 -0.178155,-0.01872 -0.223422,0.05968 -0.04526,0.07841 -0.01838,0.177838 0.06002,0.223104 l 0.149693,0.08651 a 2.4512737,2.4512737 0 0 0 -0.118732,0.289811 l -0.168205,-0.045 c -0.08744,-0.02342 -0.176693,0.0281 -0.200124,0.115547 -0.023441,0.08746 0.0281,0.176692 0.115535,0.200127 l 0.168526,0.04533 a 2.4512737,2.4512737 0 0 0 -0.04021,0.310238 l -0.175226,-4e-6 c -0.090533,2e-6 -0.1634195,0.07288 -0.1634195,0.163419 -9e-7,0.09053 0.072879,0.163418 0.1634155,0.163418 h 0.17523 a 2.4512737,2.4512737 0 0 0 0.04021,0.31024 l -0.168524,0.04533 c -0.08744,0.02344 -0.1389759,0.112678 -0.115547,0.200123 0.02342,0.08744 0.112677,0.138974 0.200122,0.115546 l 0.168206,-0.04501 a 2.4512737,2.4512737 0 0 0 0.118734,0.289803 l -0.149693,0.08649 c -0.07841,0.04526 -0.105278,0.144699 -0.06002,0.223106 0.04528,0.0784 0.14502,0.104941 0.223423,0.05968 l 0.148737,-0.08585 a 2.4512737,2.4512737 0 0 0 0.189591,0.250236 l -0.120331,0.120328 c -0.06401,0.06401 -0.06401,0.167068 4e-6,0.231084 0.06401,0.06401 0.167066,0.06401 0.231084,-7e-6 l 0.120328,-0.120327 a 2.4512737,2.4512737 0 0 0 0.250236,0.189588 l -0.08586,0.148735 c -0.04526,0.0784 -0.01872,0.178155 0.05968,0.223423 0.0784,0.04526 0.177838,0.0184 0.223103,-0.06002 l 0.08651,-0.149694 a 2.4512737,2.4512737 0 0 0 0.289813,0.118733 l -0.045,0.168209 c -0.02342,0.08744 0.0281,0.176693 0.115535,0.200126 0.08744,0.02344 0.176693,-0.0281 0.200127,-0.115536 l 0.04533,-0.168527 a 2.4512737,2.4512737 0 0 0 0.310241,0.04021 l -10e-7,0.175228 c 0,0.09053 0.07287,0.163419 0.163415,0.16342 0.09053,-1e-6 0.163418,-0.07287 0.163417,-0.16342 v -0.169479 a 2.4512737,2.4512737 0 0 0 0.311835,-0.04054 l 0.04372,0.1631 c 0.02342,0.08746 0.112678,0.138974 0.200123,0.115547 0.07651,-0.0205 0.125608,-0.09127 0.120973,-0.167245 -7e-4,-0.01085 -0.0025,-0.02195 -0.0053,-0.03289 l -0.04404,-0.16374 a 2.4512737,2.4512737 0 0 0 0.290767,-0.120334 l 0.08457,0.146822 c 0.04526,0.0784 0.144702,0.10528 0.223104,0.06003 0.049,-0.02831 0.07777,-0.07788 0.08138,-0.130225 0.0021,-0.0314 -0.0048,-0.0638 -0.0217,-0.09319 l -0.0843,-0.146189 a 2.4512737,2.4512737 0 0 0 0.248955,-0.191823 l 0.12001,0.120011 c 0.06401,0.06401 0.167074,0.06401 0.231089,4e-6 0.03202,-0.03202 0.04788,-0.07378 0.04788,-0.115546 6e-6,-0.04176 -0.01586,-0.08354 -0.04788,-0.115547 l -0.12002,-0.12002 a 2.4512737,2.4512737 0 0 0 0.191826,-0.248959 l 0.146183,0.08427 c 0.0784,0.04526 0.178157,0.01872 0.223424,-0.05968 0.01698,-0.02941 0.02394,-0.06184 0.02171,-0.09319 -0.0038,-0.05226 -0.03272,-0.101616 -0.08172,-0.129903 l -0.146818,-0.08459 a 2.4512737,2.4512737 0 0 0 0.120326,-0.290771 l 0.163735,0.04404 c 0.08746,0.02344 0.176693,-0.0281 0.200128,-0.115535 0.0029,-0.01096 0.0048,-0.02201 0.0053,-0.03286 0.0046,-0.07599 -0.04445,-0.146748 -0.120968,-0.167248 l -0.163099,-0.04372 a 2.4512737,2.4512737 0 0 0 0.04053,-0.311837 h 0.169481 c 0.09055,-3e-6 0.163425,-0.07288 0.163427,-0.163418 z m -0.700273,0.443656 a 2.1244372,2.1244372 0 0 1 -2.07784,1.680782 2.1244372,2.1244372 0 0 1 -0.65463,-0.103728 l -0.102771,-0.382373 0.667717,-1.156695 a 0.49025471,0.49025471 0 0 0 0.08968,0.0088 0.49025471,0.49025471 0 0 0 0.462168,-0.326834 l 1.335436,-6e-6 z m -0.0053,-0.882205 -0.275131,0.275131 h -1.336709 a 0.49025471,0.49025471 0 0 0 -0.460889,-0.326837 0.49025471,0.49025471 0 0 0 -0.08905,0.0092 l -0.668292,-1.157297 0.102772,-0.382373 a 2.1244372,2.1244372 0 0 1 0.654629,-0.103729 2.1244372,2.1244372 0 0 1 2.072732,1.68589 z m -1.909313,0.438549 a 0.16341826,0.16341826 0 0 1 -0.163416,0.163419 0.16341826,0.16341826 0 0 1 -0.163423,-0.163419 0.16341826,0.16341826 0 0 1 0.163418,-0.163416 0.16341826,0.16341826 0 0 1 0.163421,0.163416 z M 12.327314,12.38145 a 0.49025471,0.49025471 0 0 0 -0.117777,0.318537 0.49025471,0.49025471 0 0 0 0.117782,0.318537 l -0.667718,1.156373 -0.376309,0.10087 a 2.1244372,2.1244372 0 0 1 -0.707891,-1.575775 2.1244372,2.1244372 0 0 1 0.707932,-1.575773 l 0.376311,0.100857 z" />
  <path
     id="path876-5"
     style="opacity:0.4;fill:url(#linearGradient1449);fill-opacity:1;stroke-width:0.303379"
     d="m 12.7,8.9958332 c -2.045755,3e-7 -3.7041676,1.6584118 -3.7041668,3.7041668 0,2.045755 1.6584118,3.704167 3.7041668,3.704167 2.045755,0 3.704166,-1.658412 3.704166,-3.704167 1e-6,-2.045756 -1.65841,-3.7041668 -3.704166,-3.7041668 z m 0,0.2645834 C 14.599632,9.2604144 16.139585,10.80037 16.139583,12.7 16.139584,14.599631 14.599631,16.139586 12.7,16.139583 10.800371,16.139583 9.2604152,14.59963 9.2604166,12.7 9.2604147,10.80037 10.800371,9.2604155 12.7,9.2604166 Z" />
</svg>
