<?xml version="1.0" encoding="UTF-8" standalone="no"?>
<!-- Created with Inkscape (http://www.inkscape.org/) -->

<svg
   width="64"
   height="64"
   viewBox="0 0 16.933333 16.933333"
   version="1.1"
   id="svg5"
   inkscape:version="1.1.1 (3bf5ae0d25, 2021-09-20, custom)"
   sodipodi:docname="yakuake.svg"
   xmlns:inkscape="http://www.inkscape.org/namespaces/inkscape"
   xmlns:sodipodi="http://sodipodi.sourceforge.net/DTD/sodipodi-0.dtd"
   xmlns:xlink="http://www.w3.org/1999/xlink"
   xmlns="http://www.w3.org/2000/svg"
   xmlns:svg="http://www.w3.org/2000/svg">
  <sodipodi:namedview
     id="namedview7"
     pagecolor="#ffffff"
     bordercolor="#666666"
     borderopacity="1.0"
     inkscape:pageshadow="2"
     inkscape:pageopacity="0.0"
     inkscape:pagecheckerboard="0"
     inkscape:document-units="px"
     showgrid="false"
     units="px"
     height="48px"
     inkscape:zoom="7.9999996"
     inkscape:cx="2.2500001"
     inkscape:cy="39.437502"
     inkscape:window-width="1920"
     inkscape:window-height="1019"
     inkscape:window-x="0"
     inkscape:window-y="0"
     inkscape:window-maximized="1"
     inkscape:current-layer="svg5"
     inkscape:lockguides="true" />
  <defs
     id="defs2">
    <linearGradient
       inkscape:collect="always"
       id="linearGradient3187">
      <stop
         style="stop-color:#ffffff;stop-opacity:1"
         offset="0"
         id="stop3183" />
      <stop
         style="stop-color:#ffffff;stop-opacity:0"
         offset="1"
         id="stop3185" />
    </linearGradient>
    <linearGradient
       inkscape:collect="always"
       id="linearGradient1106">
      <stop
         style="stop-color:#333333;stop-opacity:1;"
         offset="0"
         id="stop1102" />
      <stop
         style="stop-color:#4d4d4d;stop-opacity:1"
         offset="1"
         id="stop1104" />
    </linearGradient>
    <linearGradient
       inkscape:collect="always"
       xlink:href="#linearGradient3187"
       id="linearGradient3189"
       x1="17"
       y1="39.75"
       x2="37"
       y2="19.75"
       gradientUnits="userSpaceOnUse"
       gradientTransform="matrix(0.26458333,0,0,0.26458333,-0.66145837,-1.3456149)" />
    <linearGradient
       inkscape:collect="always"
       xlink:href="#linearGradient37218-3"
       id="linearGradient1781"
       x1="2.8346456e-08"
       y1="2.2677165e-07"
       x2="64"
       y2="64"
       gradientUnits="userSpaceOnUse"
       gradientTransform="matrix(0.26458333,0,0,0.26458333,1.3125e-6,1.125e-7)" />
    <linearGradient
       inkscape:collect="always"
       id="linearGradient37218-3">
      <stop
         style="stop-color:#ffffff;stop-opacity:1"
         offset="0"
         id="stop37214-6" />
      <stop
         style="stop-color:#717171;stop-opacity:0.00392157"
         offset="0.49741825"
         id="stop37220-7" />
      <stop
         style="stop-color:#181818;stop-opacity:1"
         offset="1"
         id="stop37216-5" />
    </linearGradient>
    <linearGradient
       inkscape:collect="always"
       xlink:href="#linearGradient1106"
       id="linearGradient1001"
       x1="7.4083343"
       y1="16.933334"
       x2="7.4083343"
       y2="6.7529299e-07"
       gradientUnits="userSpaceOnUse" />
    <linearGradient
       inkscape:collect="always"
       xlink:href="#linearGradient1254"
       id="linearGradient1256"
       x1="50"
       y1="64"
       x2="50"
       y2="2.2677165e-07"
       gradientUnits="userSpaceOnUse"
       gradientTransform="scale(0.26458333)" />
    <linearGradient
       inkscape:collect="always"
       id="linearGradient1254">
      <stop
         style="stop-color:#b3b3b3;stop-opacity:1;"
         offset="0"
         id="stop1250" />
      <stop
         style="stop-color:#ececec;stop-opacity:1"
         offset="1"
         id="stop1252" />
    </linearGradient>
    <linearGradient
       inkscape:collect="always"
       xlink:href="#linearGradient1272"
       id="linearGradient1274"
       x1="3"
       y1="6.5"
       x2="61"
       y2="14.5"
       gradientUnits="userSpaceOnUse"
       gradientTransform="scale(0.26458333)" />
    <linearGradient
       inkscape:collect="always"
       id="linearGradient1272">
      <stop
         style="stop-color:#000000;stop-opacity:1;"
         offset="0"
         id="stop1268" />
      <stop
         style="stop-color:#000000;stop-opacity:0;"
         offset="1"
         id="stop1270" />
    </linearGradient>
  </defs>
  <path
     id="rect863"
     style="fill:url(#linearGradient1001);fill-opacity:1;stroke-width:0.264583"
     d="m 3.704166,1.5875 h 9.525 c 1.172634,0 2.116667,0.9440332 2.116667,2.1166662 v 9.5249998 c 0,1.172634 -0.944033,2.116667 -2.116667,2.116667 h -9.525 C 2.531534,15.345833 1.5875,14.4018 1.5875,13.229166 V 3.7041662 C 1.5875,2.5315332 2.531534,1.5875 3.704166,1.5875 Z"
     sodipodi:nodetypes="sssssssss" />
  <path
     id="rect867"
     style="fill:url(#linearGradient1256);fill-opacity:1;stroke-width:2.38125;stroke-linecap:round;stroke-linejoin:round"
     d="m 3.175,1.0583333 c -1.1726333,0 -2.1166667,0.944033 -2.1166667,2.116667 V 13.758333 c 0,1.172633 0.9440334,2.116667 2.1166667,2.116667 h 10.583333 c 1.172633,0 2.116667,-0.944034 2.116667,-2.116667 V 3.1750003 c 0,-1.172634 -0.944034,-2.116667 -2.116667,-2.116667 z m 0.2645833,0.79375 H 13.49375 c 0.879475,0 1.5875,0.708025 1.5875,1.5875 V 13.49375 c 0,0.879475 -0.708025,1.5875 -1.5875,1.5875 H 3.4395833 c -0.879475,0 -1.5875,-0.708025 -1.5875,-1.5875 V 3.4395833 c 0,-0.879475 0.708025,-1.5875 1.5875,-1.5875 z" />
  <path
     id="rect872"
     style="opacity:0.3;fill:url(#linearGradient1274);fill-opacity:1;stroke-width:2.38125;stroke-linecap:round;stroke-linejoin:round"
     d="m 3.4395833,1.8520833 c -0.879475,0 -1.5875,0.708025 -1.5875,1.5875 v 0.264583 c 0,-0.879475 0.708025,-1.5875 1.5875,-1.5875 H 13.49375 c 0.879475,0 1.5875,0.708025 1.5875,1.5875 v -0.264583 c 0,-0.879475 -0.708025,-1.5875 -1.5875,-1.5875 z" />
  <path
     id="rect1345"
     style="opacity:0.3;fill:url(#linearGradient1781);fill-opacity:1;stroke-width:0.264583"
     d="m 3.1750003,1.0583333 c -1.172633,0 -2.116667,0.9440335 -2.116667,2.1166668 V 13.758333 c 0,1.172634 0.944034,2.116667 2.116667,2.116667 H 13.758334 c 1.172633,0 2.116666,-0.944033 2.116666,-2.116667 V 3.1750001 c 0,-1.1726333 -0.944033,-2.1166668 -2.116666,-2.1166668 z m 0,0.2645834 H 13.758334 c 1.026054,0 1.852083,0.8260292 1.852083,1.8520834 V 13.758333 c 0,1.026054 -0.826029,1.852084 -1.852083,1.852084 H 3.1750003 c -1.026055,0 -1.852083,-0.82603 -1.852083,-1.852084 V 3.1750001 c 0,-1.0260542 0.826028,-1.8520834 1.852083,-1.8520834 z" />
  <path
     id="rect1562-6"
     style="opacity:0.3;fill:url(#linearGradient3189);fill-opacity:1;stroke-width:0.273129"
     d="M 4.1010416,4.4752183 3.9687499,4.60751 5.3652664,6.0040275 5.4975581,5.8717359 Z M 7.7747214,4.3429272 4.3429272,7.7747214 4.1010416,7.5328357 3.9687499,7.6651277 4.3429272,8.0393044 7.9070131,4.4752189 Z M 6.245913,7.9884024 v 0.264583 h 2.6458335 v -0.264583 z"
     sodipodi:nodetypes="ccccccccccccccccc" />
  <rect
     style="opacity:1;fill:#159ad8;stroke-width:2.08849;stroke-linecap:round;stroke-linejoin:round;fill-opacity:1"
     id="rect996"
     width="2.6458333"
     height="0.52916664"
     x="6.245913"
     y="7.4592357"
     ry="0" />
  <path
     id="rect3117"
     style="opacity:1;fill:#1161b0;stroke-width:0.264583;fill-opacity:1"
     d="M 4.3429267,3.9687499 6.136245,5.7620672 5.7620672,6.136245 3.96875,4.3429268 Z"
     sodipodi:nodetypes="ccccc" />
  <path
     id="rect2009"
     style="opacity:1;fill:#159ad8;stroke-width:0.264583"
     d="M 7.4005444,3.9687499 7.7747214,4.3429272 4.3429272,7.7747214 3.9687499,7.4005444 Z"
     sodipodi:nodetypes="ccccc" />
</svg>
