<?xml version="1.0" encoding="UTF-8" standalone="no"?>
<!-- Created with Inkscape (http://www.inkscape.org/) -->

<svg
   width="64"
   height="64"
   viewBox="0 0 16.933333 16.933333"
   version="1.1"
   id="svg5"
   inkscape:version="1.1.2 (0a00cf5339, 2022-02-04)"
   sodipodi:docname="yast-control-center.svg"
   xmlns:inkscape="http://www.inkscape.org/namespaces/inkscape"
   xmlns:sodipodi="http://sodipodi.sourceforge.net/DTD/sodipodi-0.dtd"
   xmlns:xlink="http://www.w3.org/1999/xlink"
   xmlns="http://www.w3.org/2000/svg"
   xmlns:svg="http://www.w3.org/2000/svg">
  <sodipodi:namedview
     id="namedview7"
     pagecolor="#ffffff"
     bordercolor="#666666"
     borderopacity="1.0"
     inkscape:pageshadow="2"
     inkscape:pageopacity="0.0"
     inkscape:pagecheckerboard="0"
     inkscape:document-units="px"
     showgrid="false"
     units="px"
     height="48px"
     inkscape:zoom="12.25"
     inkscape:cx="31.959184"
     inkscape:cy="32"
     inkscape:window-width="1920"
     inkscape:window-height="1011"
     inkscape:window-x="0"
     inkscape:window-y="32"
     inkscape:window-maximized="1"
     inkscape:current-layer="svg5"
     inkscape:lockguides="true" />
  <defs
     id="defs2">
    <linearGradient
       inkscape:collect="always"
       id="linearGradient8255">
      <stop
         style="stop-color:#3fa91f;stop-opacity:1"
         offset="0"
         id="stop8251" />
      <stop
         style="stop-color:#2ccd25;stop-opacity:1"
         offset="1"
         id="stop8253" />
    </linearGradient>
    <linearGradient
       inkscape:collect="always"
       id="linearGradient7927">
      <stop
         style="stop-color:#ffc529;stop-opacity:1;"
         offset="0"
         id="stop7923" />
      <stop
         style="stop-color:#fff471;stop-opacity:1"
         offset="1"
         id="stop7925" />
    </linearGradient>
    <linearGradient
       inkscape:collect="always"
       id="linearGradient7633">
      <stop
         style="stop-color:#d41d1d;stop-opacity:1;"
         offset="0"
         id="stop7629" />
      <stop
         style="stop-color:#f03838;stop-opacity:1"
         offset="1"
         id="stop7631" />
    </linearGradient>
    <linearGradient
       inkscape:collect="always"
       id="linearGradient6000">
      <stop
         style="stop-color:#4e85e7;stop-opacity:1;"
         offset="0"
         id="stop5996" />
      <stop
         style="stop-color:#1d5fd4;stop-opacity:1"
         offset="1"
         id="stop5998" />
    </linearGradient>
    <linearGradient
       inkscape:collect="always"
       xlink:href="#linearGradient37218-3"
       id="linearGradient1781"
       x1="2.8346456e-08"
       y1="2.2677165e-07"
       x2="64"
       y2="64"
       gradientUnits="userSpaceOnUse"
       gradientTransform="matrix(0.26458333,0,0,0.26458333,1.3125e-6,1.125e-7)" />
    <linearGradient
       inkscape:collect="always"
       id="linearGradient37218-3">
      <stop
         style="stop-color:#ffffff;stop-opacity:1"
         offset="0"
         id="stop37214-6" />
      <stop
         style="stop-color:#717171;stop-opacity:0.00392157"
         offset="0.49741825"
         id="stop37220-7" />
      <stop
         style="stop-color:#181818;stop-opacity:1"
         offset="1"
         id="stop37216-5" />
    </linearGradient>
    <linearGradient
       inkscape:collect="always"
       xlink:href="#linearGradient1254"
       id="linearGradient1256"
       x1="50"
       y1="64"
       x2="50"
       y2="2.2677165e-07"
       gradientUnits="userSpaceOnUse"
       gradientTransform="scale(0.26458333)" />
    <linearGradient
       inkscape:collect="always"
       id="linearGradient1254">
      <stop
         style="stop-color:#dbdbdb;stop-opacity:1"
         offset="0"
         id="stop1250" />
      <stop
         style="stop-color:#ececec;stop-opacity:1"
         offset="1"
         id="stop1252" />
    </linearGradient>
    <linearGradient
       inkscape:collect="always"
       xlink:href="#linearGradient6000"
       id="linearGradient6002"
       x1="12.7"
       y1="6.0854163"
       x2="12.7"
       y2="9.260416"
       gradientUnits="userSpaceOnUse" />
    <linearGradient
       inkscape:collect="always"
       xlink:href="#linearGradient7633"
       id="linearGradient7635"
       x1="3.7041667"
       y1="13.758333"
       x2="3.7041664"
       y2="11.641666"
       gradientUnits="userSpaceOnUse" />
    <linearGradient
       inkscape:collect="always"
       xlink:href="#linearGradient7927"
       id="linearGradient7929"
       x1="9.7895861"
       y1="13.758333"
       x2="9.7895861"
       y2="11.641666"
       gradientUnits="userSpaceOnUse" />
    <linearGradient
       inkscape:collect="always"
       xlink:href="#linearGradient8255"
       id="linearGradient8257"
       x1="12.964583"
       y1="13.758333"
       x2="12.964583"
       y2="11.641666"
       gradientUnits="userSpaceOnUse" />
  </defs>
  <path
     id="rect867"
     style="fill:url(#linearGradient1256);fill-opacity:1;stroke-width:2.38125;stroke-linecap:round;stroke-linejoin:round"
     d="m 3.175,1.0583333 c -1.1726333,0 -2.1166667,0.944033 -2.1166667,2.116667 V 13.758333 c 0,1.172633 0.9440334,2.116667 2.1166667,2.116667 h 10.583333 c 1.172633,0 2.116667,-0.944034 2.116667,-2.116667 V 3.1750003 c 0,-1.172634 -0.944034,-2.116667 -2.116667,-2.116667 z"
     sodipodi:nodetypes="sssssssss" />
  <path
     id="rect1345"
     style="opacity:0.3;fill:url(#linearGradient1781);fill-opacity:1;stroke-width:0.264583"
     d="m 3.1750003,1.0583333 c -1.172633,0 -2.116667,0.9440335 -2.116667,2.1166668 V 13.758333 c 0,1.172634 0.944034,2.116667 2.116667,2.116667 H 13.758334 c 1.172633,0 2.116666,-0.944033 2.116666,-2.116667 V 3.1750001 c 0,-1.1726333 -0.944033,-2.1166668 -2.116666,-2.1166668 z m 0,0.2645834 H 13.758334 c 1.026054,0 1.852083,0.8260292 1.852083,1.8520834 V 13.758333 c 0,1.026054 -0.826029,1.852084 -1.852083,1.852084 H 3.1750003 c -1.026055,0 -1.852083,-0.82603 -1.852083,-1.852084 V 3.1750001 c 0,-1.0260542 0.826028,-1.8520834 1.852083,-1.8520834 z" />
  <path
     id="rect1348"
     style="fill:#333333;stroke-width:0.264583"
     d="m 2.9104166,2.6458333 h 6.3499999 c 0.1465792,0 0.2645834,0.1180041 0.2645834,0.2645833 v 6.3499999 c 0,0.1465792 -0.1180042,0.2645834 -0.2645834,0.2645834 H 2.9104166 c -0.1465792,0 -0.2645833,-0.1180042 -0.2645833,-0.2645834 V 2.9104166 c 0,-0.1465792 0.1180041,-0.2645833 0.2645833,-0.2645833 z" />
  <rect
     style="fill:#41c179;fill-opacity:1;stroke-width:0.264583"
     id="rect1514"
     width="6.3499999"
     height="6.3499999"
     x="2.9104166"
     y="2.9104166" />
  <path
     id="rect3475"
     style="opacity:0.2;fill:#000000;fill-opacity:1;stroke-width:0.999999"
     d="M 13 13 L 13 33 L 33 33 L 33 13 L 13 13 z M 17 17 L 21 17 L 21 21 L 25 21 L 25 17 L 29 17 L 29 25 L 25 25 L 25 29 L 21 29 L 21 25 L 17 25 L 17 17 z "
     transform="scale(0.26458333)" />
  <path
     id="rect4617"
     style="opacity:0.2;stroke-width:0.220486"
     d="m 12.7,2.6458333 c 0.732895,0 1.322916,0.5900208 1.322916,1.3229166 v 4.233333 c 0,0.7328959 -0.590021,1.3229172 -1.322916,1.3229172 -0.732896,0 -1.322917,-0.5900213 -1.322917,-1.3229172 v -4.233333 c 0,-0.7328958 0.590021,-1.3229166 1.322917,-1.3229166 z"
     sodipodi:nodetypes="sssssss" />
  <path
     id="rect4801"
     style="opacity:1;stroke-width:0.264583;fill:url(#linearGradient6002);fill-opacity:1"
     d="m 12.7,6.0854163 c 0.586316,0 1.058333,0.4720167 1.058333,1.0583333 V 8.202083 c 0,0.5863166 -0.472017,1.0583333 -1.058333,1.0583333 -0.586317,0 -1.058334,-0.4720167 -1.058334,-1.0583333 V 7.1437496 c 0,-0.5863166 0.472017,-1.0583333 1.058334,-1.0583333 z" />
  <path
     id="rect6264"
     style="opacity:1;fill:url(#linearGradient7635);stroke-width:0.264583;fill-opacity:1"
     d="m 3.1749999,11.641666 h 1.0583333 c 0.2931583,0 0.5291666,0.236009 0.5291666,0.529167 v 1.058333 c 0,0.293159 -0.2360083,0.529167 -0.5291666,0.529167 H 3.1749999 c -0.2931583,0 -0.5291666,-0.236008 -0.5291666,-0.529167 v -1.058333 c 0,-0.293158 0.2360083,-0.529167 0.5291666,-0.529167 z" />
  <path
     id="rect6458"
     style="opacity:1;fill:url(#linearGradient8257);stroke-width:0.264583;fill-opacity:1"
     d="m 12.435417,11.641666 h 1.058333 c 0.293158,0 0.529167,0.236009 0.529167,0.529167 v 1.058334 c 0,0.293158 -0.236009,0.529166 -0.529167,0.529166 h -1.058333 c -0.293159,0 -0.529167,-0.236008 -0.529167,-0.529166 v -1.058334 c 0,-0.293158 0.236008,-0.529167 0.529167,-0.529167 z" />
  <path
     id="rect6832"
     style="opacity:1;fill:url(#linearGradient7929);stroke-width:0.264583;fill-opacity:1"
     d="m 9.2604193,11.641666 h 1.0583337 c 0.293158,0 0.529166,0.236009 0.529166,0.529167 v 1.058334 c 0,0.293158 -0.236008,0.529166 -0.529166,0.529166 H 9.2604193 c -0.2931583,0 -0.5291666,-0.236008 -0.5291666,-0.529166 v -1.058334 c 0,-0.293158 0.2360083,-0.529167 0.5291666,-0.529167 z" />
</svg>
