<?xml version="1.0" encoding="UTF-8" standalone="no"?>
<!-- Created with Inkscape (http://www.inkscape.org/) -->

<svg
   width="64"
   height="64"
   viewBox="0 0 16.933333 16.933333"
   version="1.1"
   id="svg5"
   inkscape:version="1.1.2 (0a00cf5339, 2022-02-04)"
   sodipodi:docname="yast-hardware-group.svg"
   xmlns:inkscape="http://www.inkscape.org/namespaces/inkscape"
   xmlns:sodipodi="http://sodipodi.sourceforge.net/DTD/sodipodi-0.dtd"
   xmlns:xlink="http://www.w3.org/1999/xlink"
   xmlns="http://www.w3.org/2000/svg"
   xmlns:svg="http://www.w3.org/2000/svg">
  <sodipodi:namedview
     id="namedview7"
     pagecolor="#ffffff"
     bordercolor="#666666"
     borderopacity="1.0"
     inkscape:pageshadow="2"
     inkscape:pageopacity="0.0"
     inkscape:pagecheckerboard="0"
     inkscape:document-units="px"
     showgrid="false"
     units="px"
     height="48px"
     inkscape:zoom="12.25"
     inkscape:cx="31.959184"
     inkscape:cy="32"
     inkscape:window-width="1920"
     inkscape:window-height="1011"
     inkscape:window-x="0"
     inkscape:window-y="32"
     inkscape:window-maximized="1"
     inkscape:current-layer="svg5"
     inkscape:lockguides="true" />
  <defs
     id="defs2">
    <linearGradient
       inkscape:collect="always"
       xlink:href="#linearGradient37218"
       id="linearGradient1781"
       x1="2.8346456e-08"
       y1="2.2677165e-07"
       x2="64"
       y2="64"
       gradientUnits="userSpaceOnUse"
       gradientTransform="scale(0.26458333)" />
    <linearGradient
       inkscape:collect="always"
       id="linearGradient37218">
      <stop
         style="stop-color:#ffffff;stop-opacity:1"
         offset="0"
         id="stop37214" />
      <stop
         style="stop-color:#d9d9d9;stop-opacity:0.00392157"
         offset="0.49741825"
         id="stop37220" />
      <stop
         style="stop-color:#000000;stop-opacity:1"
         offset="1"
         id="stop37216" />
    </linearGradient>
    <linearGradient
       inkscape:collect="always"
       xlink:href="#linearGradient7534"
       id="linearGradient1593"
       x1="8.4666662"
       y1="1.2661743e-06"
       x2="8.4666672"
       y2="16.933334"
       gradientUnits="userSpaceOnUse" />
    <linearGradient
       id="linearGradient964"
       x1="30"
       x2="30"
       y1="10"
       y2="70"
       gradientTransform="matrix(0.96523765,0,0,0.96523765,1.1411945,1.1392232)"
       gradientUnits="userSpaceOnUse">
      <stop
         offset="0"
         id="stop49" />
      <stop
         stop-opacity=".35"
         offset="1"
         id="stop51" />
    </linearGradient>
    <linearGradient
       inkscape:collect="always"
       xlink:href="#linearGradient4343"
       id="linearGradient4345"
       x1="10.583333"
       y1="13.758333"
       x2="10.583333"
       y2="3.1749995"
       gradientUnits="userSpaceOnUse" />
    <linearGradient
       inkscape:collect="always"
       id="linearGradient4343">
      <stop
         style="stop-color:#b3b3b3;stop-opacity:1"
         offset="0"
         id="stop4339" />
      <stop
         style="stop-color:#f2f2f2;stop-opacity:1"
         offset="0.5"
         id="stop13288" />
      <stop
         style="stop-color:#cccccc;stop-opacity:1"
         offset="1"
         id="stop4341" />
    </linearGradient>
    <linearGradient
       inkscape:collect="always"
       xlink:href="#linearGradient12797"
       id="linearGradient12799"
       x1="14"
       y1="50"
       x2="54"
       y2="8"
       gradientUnits="userSpaceOnUse"
       gradientTransform="scale(0.26458334)" />
    <linearGradient
       inkscape:collect="always"
       id="linearGradient12797">
      <stop
         style="stop-color:#b3b3b3;stop-opacity:1"
         offset="0"
         id="stop12793" />
      <stop
         style="stop-color:#ffffff;stop-opacity:1"
         offset="1"
         id="stop12795" />
    </linearGradient>
    <linearGradient
       inkscape:collect="always"
       xlink:href="#linearGradient13931"
       id="linearGradient13933"
       x1="13.229167"
       y1="13.758334"
       x2="4.2333341"
       y2="3.7041671"
       gradientUnits="userSpaceOnUse" />
    <linearGradient
       inkscape:collect="always"
       id="linearGradient13931">
      <stop
         style="stop-color:#d8d8d8;stop-opacity:1"
         offset="0"
         id="stop13927" />
      <stop
         style="stop-color:#f2f2f2;stop-opacity:1"
         offset="1"
         id="stop13929" />
    </linearGradient>
    <linearGradient
       inkscape:collect="always"
       xlink:href="#linearGradient14489"
       id="linearGradient14491"
       x1="34"
       y1="12"
       x2="34"
       y2="52"
       gradientUnits="userSpaceOnUse"
       gradientTransform="scale(0.26458334)" />
    <linearGradient
       inkscape:collect="always"
       id="linearGradient14489">
      <stop
         style="stop-color:#b3b3b3;stop-opacity:1;"
         offset="0"
         id="stop14485" />
      <stop
         style="stop-color:#d4d4d4;stop-opacity:1"
         offset="0.5"
         id="stop14557" />
      <stop
         style="stop-color:#b3b3b3;stop-opacity:0.9973911"
         offset="1"
         id="stop14487" />
    </linearGradient>
    <linearGradient
       inkscape:collect="always"
       id="linearGradient7534">
      <stop
         style="stop-color:#2f8b57;stop-opacity:1;"
         offset="0"
         id="stop7530" />
      <stop
         style="stop-color:#37a274;stop-opacity:1"
         offset="1"
         id="stop7532" />
    </linearGradient>
  </defs>
  <path
     id="rect863"
     style="fill:url(#linearGradient1593);stroke-width:0.264583;fill-opacity:1"
     d="M 3.1750003,1.0583333 H 13.758333 c 1.172634,0 2.116667,0.944034 2.116667,2.116667 V 13.758333 c 0,1.172634 -0.944033,2.116667 -2.116667,2.116667 H 3.1750003 c -1.172633,0 -2.116667,-0.944033 -2.116667,-2.116667 V 3.1750003 c 0,-1.172633 0.944034,-2.116667 2.116667,-2.116667 z" />
  <path
     id="path65"
     style="opacity:0.1;fill:url(#linearGradient964);stroke-width:0.965193"
     d="M 8.1152344 5 C 7.7512846 5.2016615 7.4061235 5.4315555 7.0800781 5.6855469 L 7.0800781 17.474609 L 5 19.550781 L 5 21.630859 L 8.1171875 24.748047 L 17.373047 24.748047 L 10.164062 17.539062 C 9.424531 17.464523 8.8614763 16.842889 8.8613281 16.099609 C 8.8613531 15.300027 9.5090109 14.652371 10.308594 14.652344 C 11.108178 14.652368 11.755834 15.300025 11.755859 16.099609 C 11.755963 16.19262 11.748157 16.285647 11.730469 16.376953 L 20.101562 24.748047 L 47.619141 28.748047 L 54.894531 20.433594 L 59 20.433594 C 58.970142 20.08206 58.921297 19.737083 58.863281 19.394531 L 54.894531 19.394531 L 54.894531 11.236328 L 46.578125 20.591797 L 43.460938 20.591797 L 51.775391 11.236328 L 51.775391 5 L 47.470703 5 L 47.470703 11.755859 L 34.5 24.724609 L 33.136719 23.359375 L 45.539062 10.957031 L 45.539062 5 L 42.644531 5 L 42.644531 11.755859 L 29.675781 24.724609 L 29.130859 24.179688 L 28.587891 24.724609 L 26.71875 22.855469 L 24.851562 24.724609 L 24.306641 24.179688 L 23.761719 24.724609 L 10.791016 11.755859 L 10.791016 5 L 8.1152344 5 z M 12.722656 5 L 12.722656 10.957031 L 24.306641 22.539062 L 25.353516 21.492188 L 23.339844 19.478516 L 21.410156 19.478516 L 21.410156 17.546875 L 15.619141 11.755859 L 15.619141 5 L 12.722656 5 z M 17.548828 5 L 17.548828 10.957031 L 21.410156 14.818359 L 21.410156 5 L 17.548828 5 z M 23.341797 5 L 23.339844 16.748047 L 26.71875 20.126953 L 27.367188 19.478516 L 26.236328 19.478516 L 26.236328 5 L 23.341797 5 z M 28.166016 5 L 28.166016 18.677734 L 31.228516 15.617188 L 31.0625 15.617188 L 31.0625 5 L 28.166016 5 z M 32.992188 5 L 32.992188 13.853516 L 35.888672 10.957031 L 35.888672 5 L 32.992188 5 z M 37.818359 5 L 37.818359 11.755859 L 28.083984 21.492188 L 29.130859 22.539062 L 40.714844 10.957031 L 40.714844 5 L 37.818359 5 z M 15.396484 37.222656 L 5.0019531 45.539062 L 5 49 L 11.238281 44.5 L 11.238281 46.576172 L 5 50.798828 L 9.1601562 50.736328 L 9.1601562 59 L 15.396484 59 L 15.396484 47.617188 L 21.632812 42.419922 L 24.75 42.419922 L 18.515625 47.617188 L 18.515625 59 L 22.375 59 L 22.375 54.099609 L 35.34375 41.132812 L 35.888672 41.677734 L 36.433594 41.132812 L 38.300781 43 L 40.169922 41.132812 L 40.714844 41.677734 L 41.259766 41.132812 L 54.228516 54.099609 L 54.228516 59 L 55.884766 59 C 56.061996 58.901798 56.233764 58.796496 56.402344 58.685547 L 56.402344 54.177734 L 44.720703 42.498047 L 46.083984 41.132812 L 59 54.046875 L 59 48.1875 L 51.775391 41.302734 L 49.699219 39.302734 L 47.619141 37.222656 L 35.115234 37.222656 L 35.34375 37.451172 L 23.314453 49.480469 C 23.332028 49.571782 23.340071 49.664798 23.339844 49.757812 C 23.339809 50.55739 22.692155 51.205052 21.892578 51.205078 C 21.092996 51.205052 20.44534 50.557394 20.445312 49.757812 C 20.44546 49.014531 21.008512 48.39095 21.748047 48.316406 L 32.841797 37.222656 L 15.396484 37.222656 z M 35.888672 43.318359 L 24.306641 54.900391 L 24.306641 59 L 27.201172 59 L 27.201172 54.099609 L 32.992188 48.308594 L 32.992188 46.378906 L 34.923828 46.378906 L 36.935547 44.365234 L 35.888672 43.318359 z M 40.714844 43.318359 L 39.666016 44.365234 L 49.400391 54.099609 L 49.400391 59 L 52.296875 59 L 52.296875 54.900391 L 40.714844 43.318359 z M 38.300781 45.730469 L 34.923828 49.109375 L 34.923828 59 L 37.818359 59 L 37.818359 46.378906 L 38.949219 46.378906 L 38.300781 45.730469 z M 39.748047 47.177734 L 39.748047 59 L 42.644531 59 L 42.644531 50.240234 L 42.810547 50.240234 L 39.748047 47.177734 z M 32.992188 51.039062 L 29.130859 54.900391 L 29.130859 59 L 32.992188 59 L 32.992188 51.039062 z M 44.574219 52.003906 L 44.574219 59 L 47.470703 59 L 47.470703 54.900391 L 44.574219 52.003906 z "
     transform="scale(0.26458333)" />
  <path
     id="rect3863"
     style="fill:url(#linearGradient4345);stroke-width:2.2509;stroke-linecap:round;stroke-linejoin:round"
     d="m 4.2333335,3.175 h 8.4666655 c 0.586316,0 1.058334,0.4720167 1.058334,1.0583336 v 8.4666654 c 0,0.586317 -0.472017,1.058334 -1.058334,1.058334 H 4.2333335 c -0.5863168,0 -1.0583336,-0.472017 -1.0583336,-1.058334 V 4.2333336 C 3.1749999,3.6470167 3.6470167,3.175 4.2333335,3.175 Z" />
  <path
     id="path7820"
     style="fill:#c5b149;fill-opacity:1;stroke-width:3.57188;stroke-linecap:round;stroke-linejoin:round"
     d="m 2.2489583,1.8520833 c -0.219188,0 -0.396875,0.177687 -0.396875,0.396875 0,0.219188 0.177687,0.396875 0.396875,0.396875 0.219188,0 0.396875,-0.177687 0.396875,-0.396875 0,-0.219188 -0.177687,-0.396875 -0.396875,-0.396875 z m 1.7197917,0 V 2.1166667 H 4.2333333 V 1.8520833 Z M 4.2333333,2.1166667 V 2.38125 H 4.4979167 V 2.1166667 Z m 0.2645834,0 H 4.7625 V 1.8520833 H 4.4979167 Z m 0.2645833,0 V 2.38125 H 5.0270834 V 2.1166667 Z m 0.2645834,0 H 5.2916667 V 1.8520833 H 5.0270834 Z m 0.2645833,0 V 2.38125 H 5.55625 V 2.1166667 Z m 0.2645833,0 H 5.8208334 V 1.8520833 H 5.55625 Z m 0.2645834,0 V 2.38125 H 6.0854167 V 2.1166667 Z m 0.2645833,0 H 6.3500001 V 1.8520833 H 6.0854167 Z m 0.2645834,0 V 2.38125 H 6.6145834 V 2.1166667 Z m 0.2645833,0 H 6.8791667 V 1.8520833 H 6.6145834 Z m 0.2645833,0 V 2.38125 H 7.1437501 V 2.1166667 Z m 0.2645834,0 H 7.4083334 V 1.8520833 H 7.1437501 Z m 0.2645833,0 V 2.38125 H 7.6729168 V 2.1166667 Z m 0.2645834,0 H 7.9375001 V 1.8520833 H 7.6729168 Z m 0.2645833,0 V 2.38125 H 8.2020834 V 2.1166667 Z m 0.2645833,0 H 8.4666668 V 1.8520833 H 8.2020834 Z m 0.2645834,0 V 2.38125 H 8.7312501 V 2.1166667 Z m 0.2645833,0 H 8.9958335 V 1.8520833 H 8.7312501 Z m 0.2645834,0 V 2.38125 H 9.2604168 V 2.1166667 Z M 14.816667,1.8520833 c -0.146125,2e-7 -0.264583,0.1184582 -0.264583,0.2645834 0,0.1461252 0.118458,0.2645831 0.264583,0.2645833 0.146125,-2e-7 0.264583,-0.1184581 0.264583,-0.2645833 0,-0.1461252 -0.118458,-0.2645832 -0.264583,-0.2645834 z m 0,12.7000007 c -0.146125,0 -0.264583,0.118458 -0.264583,0.264583 0,0.146125 0.118458,0.264583 0.264583,0.264583 0.146125,0 0.264583,-0.118458 0.264583,-0.264583 0,-0.146125 -0.118458,-0.264583 -0.264583,-0.264583 z"
     sodipodi:nodetypes="sssssccccccccccccccccccccccccccccccccccccccccccccccccccccccccccccccccccccccccccccccccccccccccccccccccccccssssssssss" />
  <path
     id="rect12399"
     style="fill:url(#linearGradient12799);fill-opacity:1;stroke-width:2.50658;stroke-linecap:round;stroke-linejoin:round"
     d="M 4.2333333,3.1750001 C 3.6470164,3.1750001 3.175,3.6470165 3.175,4.2333334 V 12.7 c 0,0.586317 0.4720164,1.058334 1.0583333,1.058334 h 8.4666657 c 0.586317,0 1.058335,-0.472017 1.058335,-1.058334 V 4.2333334 c 0,-0.5863169 -0.472017,-1.0583333 -1.058335,-1.0583333 z m 0,0.2645833 h 8.4666657 c 0.439739,0 0.79375,0.3540125 0.79375,0.79375 V 12.7 c 0,0.439738 -0.354012,0.79375 -0.79375,0.79375 H 4.2333333 c -0.4397375,0 -0.79375,-0.354012 -0.79375,-0.79375 V 4.2333334 c 0,-0.4397375 0.3540125,-0.79375 0.79375,-0.79375 z" />
  <path
     id="rect13708"
     style="fill:url(#linearGradient13933);fill-opacity:1;stroke-width:2.38125;stroke-linecap:round;stroke-linejoin:round"
     d="m 4.7625002,4.2333336 h 7.4083328 c 0.293158,0 0.529167,0.2360083 0.529167,0.5291667 v 7.4083337 c 0,0.293158 -0.236009,0.529167 -0.529167,0.529167 H 4.7625002 c -0.2931584,0 -0.5291667,-0.236009 -0.5291667,-0.529167 V 4.7625003 c 0,-0.2931584 0.2360083,-0.5291667 0.5291667,-0.5291667 z" />
  <path
     id="rect13708-6"
     style="fill:url(#linearGradient14491);fill-opacity:1;stroke-width:2.38125;stroke-linecap:round;stroke-linejoin:round"
     d="m 4.7625,4.2333334 c -0.2931581,0 -0.5291667,0.2360084 -0.5291667,0.5291667 V 12.170834 C 4.2333333,12.463992 4.4693419,12.7 4.7625,12.7 h 7.408333 c 0.293158,0 0.529166,-0.236008 0.529166,-0.529166 V 4.7625 c 0,-0.2931583 -0.236008,-0.5291667 -0.529166,-0.5291667 z m 0,0.2645834 h 7.408333 c 0.146579,0 0.264583,0.1180041 0.264583,0.2645833 v 7.4083339 c 0,0.146579 -0.118004,0.264583 -0.264583,0.264583 H 4.7625 c -0.1465792,0 -0.2645833,-0.118004 -0.2645833,-0.264583 V 4.7625 c 0,-0.1465791 0.1180041,-0.2645833 0.2645833,-0.2645832 z" />
  <path
     id="rect15233"
     style="opacity:0.3;fill:#000000;fill-opacity:1;stroke-width:2.17377;stroke-linecap:round;stroke-linejoin:round"
     d="M 5.2916667,5.55625 V 5.8208334 H 7.9375001 V 5.55625 Z m 0,0.7937502 V 6.6145835 H 8.4666668 V 6.3500002 Z m 0,0.79375 V 7.4083335 H 7.1437501 V 7.1437502 Z" />
  <path
     id="rect1345"
     style="opacity:0.3;fill:url(#linearGradient1781);fill-opacity:1;stroke-width:0.264583"
     d="m 3.1750003,1.0583333 c -1.172633,0 -2.116667,0.944034 -2.116667,2.116667 V 13.758333 c 0,1.172634 0.944034,2.116667 2.116667,2.116667 H 13.758334 c 1.172633,0 2.116666,-0.944033 2.116666,-2.116667 V 3.1750003 c 0,-1.172633 -0.944033,-2.116667 -2.116666,-2.116667 z m 0,0.264584 H 13.758334 c 1.026054,0 1.852083,0.826029 1.852083,1.852083 V 13.758333 c 0,1.026054 -0.826029,1.852084 -1.852083,1.852084 H 3.1750003 c -1.026054,0 -1.852083,-0.82603 -1.852083,-1.852084 V 3.1750003 c 0,-1.026054 0.826029,-1.852083 1.852083,-1.852083 z" />
</svg>
