<?xml version="1.0" encoding="UTF-8" standalone="no"?>
<svg
   version="1.1"
   viewBox="0 0 32 32"
   id="svg2"
   sodipodi:docname="folder-documents-symbolic.svg"
   inkscape:version="1.3 (0e150ed6c4, 2023-07-21)"
   xmlns:inkscape="http://www.inkscape.org/namespaces/inkscape"
   xmlns:sodipodi="http://sodipodi.sourceforge.net/DTD/sodipodi-0.dtd"
   xmlns="http://www.w3.org/2000/svg"
   xmlns:svg="http://www.w3.org/2000/svg">
  <sodipodi:namedview
     id="namedview2"
     pagecolor="#ffffff"
     bordercolor="#000000"
     borderopacity="0.25"
     inkscape:showpageshadow="2"
     inkscape:pageopacity="0.0"
     inkscape:pagecheckerboard="0"
     inkscape:deskcolor="#d1d1d1"
     inkscape:zoom="24.875"
     inkscape:cx="16"
     inkscape:cy="16"
     inkscape:window-width="1920"
     inkscape:window-height="1015"
     inkscape:window-x="0"
     inkscape:window-y="0"
     inkscape:window-maximized="1"
     inkscape:current-layer="svg2" />
  <defs
     id="defs1">
    <style
       id="current-color-scheme"
       type="text/css">.ColorScheme-Text {&#10;                color:#363636;&#10;            }&#10;            .ColorScheme-NegativeText {&#10;                color:#da4453;&#10;            }</style>
  </defs>
  <path
     class="ColorScheme-Text"
     d="m7 4c-1.662 0-3 1.338-3 3v16c0 1.662 1.338 3 3 3h12c1.662 0 3-1.338 3-3v-12l-7-7h-1zm0 1h7v4c0 1.662 1.338 3 3 3h4v11c0 1.108-0.892 2-2 2h-12c-1.108 0-2-0.892-2-2v-16c0-1.108 0.892-2 2-2zm8 0.41406 5.5859 5.5859h-3.5859c-1.108 0-2-0.892-2-2z"
     fill="currentColor"
     id="path1"
     style="fill:#f0f0f0;fill-opacity:1" />
  <path
     class="ColorScheme-Text"
     d="m17 6 1 1h2v2l1 1v-2.5859l5.5859 5.5859h-3.5859c-0.36522 0-0.70592-0.09795-1-0.26758v1.0938c0.31294 0.11011 0.64848 0.17383 1 0.17383h4v11c0 1.108-0.892 2-2 2h-12c-0.74278 0-1.3874-0.40192-1.7324-1h-1.0938c0.41051 1.1666 1.5157 2 2.8262 2h12c1.662 0 3-1.338 3-3v-12l-7-7h-1z"
     fill="currentColor"
     id="path2"
     style="fill:#f0f0f0;fill-opacity:1" />
</svg>
