<?xml version="1.0" encoding="UTF-8" standalone="no"?>
<svg
   width="32"
   height="32"
   version="1.1"
   viewBox="0 0 32 32"
   id="svg1"
   sodipodi:docname="sc-apps-git.svg"
   inkscape:version="1.3 (0e150ed6c4, 2023-07-21)"
   xmlns:inkscape="http://www.inkscape.org/namespaces/inkscape"
   xmlns:sodipodi="http://sodipodi.sourceforge.net/DTD/sodipodi-0.dtd"
   xmlns="http://www.w3.org/2000/svg"
   xmlns:svg="http://www.w3.org/2000/svg">
  <sodipodi:namedview
     id="namedview1"
     pagecolor="#ffffff"
     bordercolor="#000000"
     borderopacity="0.25"
     inkscape:showpageshadow="2"
     inkscape:pageopacity="0.0"
     inkscape:pagecheckerboard="0"
     inkscape:deskcolor="#d1d1d1"
     inkscape:zoom="24.875"
     inkscape:cx="16"
     inkscape:cy="16"
     inkscape:window-width="1920"
     inkscape:window-height="1015"
     inkscape:window-x="0"
     inkscape:window-y="0"
     inkscape:window-maximized="1"
     inkscape:current-layer="svg1" />
  <defs
     id="defs1">
    <style
       id="current-color-scheme"
       type="text/css">.ColorScheme-Text {&#10;        color:#363636;&#10;      }</style>
  </defs>
  <path
     class="ColorScheme-Text"
     d="m1.1508 13.879c-1.1752 1.1752-1.1752 3.0674 0 4.2426l12.728 12.728c1.1752 1.1752 3.0674 1.1752 4.2426 0l12.728-12.728c1.1752-1.1752 1.1752-3.0674 0-4.2426l-12.728-12.728c-1.1752-1.1752-3.0674-1.1752-4.2426 0zm0.70711 0.70711 9.1924-9.1924 2.8685 2.8685a2.5 2.5 0 0 0 0.3135 3.1419 2.5 2.5 0 0 0 1.2678 0.67948l-1e-6 9.2449a2.5 2.5 0 0 0-1.2678 0.68225 2.5 2.5 0 0 0 0 3.5355 2.5 2.5 0 0 0 3.5355 0 2.5 2.5 0 0 0 0-3.5355 2.5 2.5 0 0 0-1.2678-0.68225l-1e-6 -9.2449a2.5 2.5 0 0 0 0.87422-0.36598l3.6156 3.6156a2.5 2.5 0 0 0 0.3135 3.1419 2.5 2.5 0 0 0 3.5355 0 2.5 2.5 0 0 0 0-3.5355 2.5 2.5 0 0 0-3.1461-0.31765l-3.6115-3.6115a2.5 2.5 0 0 0-0.3135-3.1419 2.5 2.5 0 0 0-3.1461-0.31765l-2.8643-2.8643 2.8284-2.8284c0.78347-0.78347 2.045-0.78347 2.8284 0l12.728 12.728c0.78347 0.78347 0.78347 2.045 0 2.8284l-12.728 12.728c-0.78347 0.78347-2.045 0.78347-2.8284 0l-12.728-12.728c-0.78347-0.78347-0.78347-2.045 0-2.8284zm13.081-6.0104a1.5 1.5 0 0 1 2.1213 0 1.5 1.5 0 0 1 0 2.1213 1.5 1.5 0 0 1-2.1213 0 1.5 1.5 0 0 1 0-2.1213zm0 14.142a1.5 1.5 0 0 1 2.1213 0 1.5 1.5 0 0 1 0 2.1213 1.5 1.5 0 0 1-2.1213 0 1.5 1.5 0 0 1 0-2.1213zm7.0711-7.0711a1.5 1.5 0 0 1 2.1213 0 1.5 1.5 0 0 1 0 2.1213 1.5 1.5 0 0 1-2.1213 0 1.5 1.5 0 0 1 0-2.1213z"
     fill="currentColor"
     id="path1"
     style="fill:#f0f0f0;fill-opacity:1" />
</svg>
