<?xml version="1.0" encoding="UTF-8" standalone="no"?>
<svg
   id="svg16"
   width="64"
   height="64"
   version="1.1"
   viewBox="0 0 16.933 16.933"
   sodipodi:docname="user-trash.svg"
   inkscape:version="1.2.1 (9c6d41e410, 2022-07-14)"
   xmlns:inkscape="http://www.inkscape.org/namespaces/inkscape"
   xmlns:sodipodi="http://sodipodi.sourceforge.net/DTD/sodipodi-0.dtd"
   xmlns:xlink="http://www.w3.org/1999/xlink"
   xmlns="http://www.w3.org/2000/svg"
   xmlns:svg="http://www.w3.org/2000/svg">
  <sodipodi:namedview
     id="namedview12"
     pagecolor="#ffffff"
     bordercolor="#666666"
     borderopacity="1.0"
     inkscape:showpageshadow="2"
     inkscape:pageopacity="0.0"
     inkscape:pagecheckerboard="0"
     inkscape:deskcolor="#d1d1d1"
     showgrid="false"
     inkscape:zoom="5.977262"
     inkscape:cx="8.615985"
     inkscape:cy="30.866976"
     inkscape:window-width="1366"
     inkscape:window-height="703"
     inkscape:window-x="0"
     inkscape:window-y="37"
     inkscape:window-maximized="1"
     inkscape:current-layer="g905" />
  <defs
     id="defs20">
    <linearGradient
       inkscape:collect="always"
       id="linearGradient1112">
      <stop
         style="stop-color:#bfbfbf;stop-opacity:1;"
         offset="0"
         id="stop1108" />
      <stop
         style="stop-color:#d9d9d9;stop-opacity:1;"
         offset="1"
         id="stop1110" />
    </linearGradient>
    <linearGradient
       inkscape:collect="always"
       id="linearGradient1081">
      <stop
         style="stop-color:#737373;stop-opacity:0.80000001;"
         offset="0"
         id="stop1077" />
      <stop
         style="stop-color:#8c8c8c;stop-opacity:0.80000001;"
         offset="1"
         id="stop1079" />
    </linearGradient>
    <linearGradient
       inkscape:collect="always"
       id="linearGradient1033">
      <stop
         style="stop-color:#0078d7;stop-opacity:1;"
         offset="0"
         id="stop1029" />
      <stop
         style="stop-color:#33a5ff;stop-opacity:1;"
         offset="1"
         id="stop1031" />
    </linearGradient>
    <linearGradient
       inkscape:collect="always"
       id="linearGradient1000">
      <stop
         style="stop-color:#f5f5f5;stop-opacity:0.75;"
         offset="0"
         id="stop996" />
      <stop
         style="stop-color:#cccccc;stop-opacity:0.75;"
         offset="1"
         id="stop998" />
    </linearGradient>
    <linearGradient
       id="linearGradient3824"
       x1="8.224041"
       x2="8.224041"
       y1="14.987754"
       y2="15.417529"
       gradientTransform="translate(0,0.5470028)"
       gradientUnits="userSpaceOnUse">
      <stop
         id="stop3818"
         stop-color="#f5f5f5"
         offset="0" />
      <stop
         id="stop3820"
         stop-color="#646464"
         offset="1" />
    </linearGradient>
    <linearGradient
       inkscape:collect="always"
       xlink:href="#linearGradient1000"
       id="linearGradient1002"
       x1="8.3449926"
       y1="4.3128772"
       x2="8.224041"
       y2="15.534757"
       gradientUnits="userSpaceOnUse" />
    <linearGradient
       inkscape:collect="always"
       xlink:href="#linearGradient1033"
       id="linearGradient1035"
       x1="8.5612907"
       y1="12.907625"
       x2="8.6528196"
       y2="7.2514653"
       gradientUnits="userSpaceOnUse" />
    <linearGradient
       inkscape:collect="always"
       xlink:href="#linearGradient1081"
       id="linearGradient1083"
       x1="8.417717"
       y1="13.850977"
       x2="8.3942595"
       y2="2.5045488"
       gradientUnits="userSpaceOnUse" />
    <linearGradient
       inkscape:collect="always"
       xlink:href="#linearGradient1112"
       id="linearGradient1114"
       x1="8.5822086"
       y1="4.5327582"
       x2="8.5655413"
       y2="2.2071309"
       gradientUnits="userSpaceOnUse" />
    <filter
       inkscape:collect="always"
       style="color-interpolation-filters:sRGB"
       id="filter1447"
       x="-0.11384802"
       y="-0.10272342"
       width="1.227696"
       height="1.2054468">
      <feGaussianBlur
         inkscape:collect="always"
         stdDeviation="0.57872974"
         id="feGaussianBlur1449" />
    </filter>
  </defs>
  <g
     id="g905">
    <g
       id="g1520"
       transform="translate(4.2862822e-6,-0.29681036)">
      <path
         id="rect2677-7-2"
         d="m 2.3664717,4.3074226 1.101719,11.0321844 c 0.02768,0.276559 0.22863,0.501252 0.51262,0.501252 h 8.9708523 c 0.28399,0 0.48494,-0.224437 0.51262,-0.501252 L 14.566521,4.3074226 13.83514,2.3195864 c -2.033342,0 -8.593467,0.035394 -10.6268085,0.035394 z"
         fill="#f5f5f5"
         stroke="url(#linearGradient3824)"
         stroke-linecap="round"
         stroke-width="0.264578"
         style="opacity:0.15;fill:#000000;fill-opacity:1;stroke:none;filter:url(#filter1447)"
         sodipodi:nodetypes="ccssccccc" />
      <path
         id="rect2719-3"
         d="m 3.340299,2.2564255 c -0.28399,0 -0.416499,0.2455451 -0.51262,0.5126201 L 2.366217,4.050596 c -0.09612,0.2673311 0.228628,0.5126202 0.512621,0.5126202 h 11.175324 c 0.283993,0 0.608742,-0.2452891 0.51262,-0.5126202 L 14.105321,2.7690456 c -0.09612,-0.267075 -0.22863,-0.5126201 -0.51262,-0.5126201 z"
         fill="#ccc"
         stroke="#f5f5f6"
         stroke-linecap="round"
         stroke-width="0.264578"
         style="fill:url(#linearGradient1114);fill-opacity:1" />
      <path
         id="rect2747-6"
         d="M 3.340299,2.3845805 4.955156,13.416765 c 0.04024,0.275021 0.228628,0.501768 0.512621,0.501768 h 5.997449 c 0.28399,0 0.47238,-0.226747 0.51262,-0.501768 L 13.592701,2.3845805 Z"
         fill="#646464"
         fill-opacity=".298039"
         style="fill:url(#linearGradient1083);fill-opacity:1" />
      <path
         id="rect2677-7"
         d="M 2.366472,4.3074228 3.468191,15.339607 c 0.02768,0.276559 0.22863,0.501252 0.51262,0.501252 h 8.970852 c 0.28399,0 0.48494,-0.224437 0.51262,-0.501252 L 14.566521,4.3074228 Z"
         fill="#f5f5f5"
         stroke="url(#linearGradient3824)"
         stroke-linecap="round"
         stroke-width="0.264578"
         style="fill:url(#linearGradient1002);stroke:url(#linearGradient3824)" />
      <path
         id="rect1679"
         d="m 7.948195,6.9981615 c 0.15763,0.065616 0.288881,0.1840474 0.387049,0.3544934 L 9.036996,8.5721947 8.597755,8.8212704 10.020379,8.8414234 10.715414,7.5950127 10.28289,7.850806 9.882923,7.1692072 C 9.817053,7.0574563 9.705804,6.9981615 9.561502,6.9981615 Z m -0.37413,0.059427 c -0.248877,0 -0.452131,0.1182747 -0.576697,0.3348567 L 6.400517,8.4218193 7.653129,9.3034022 8.427226,7.8115326 8.203988,7.4379194 C 8.053535,7.1823785 7.843191,7.0575883 7.574065,7.0575885 Z m 3.279322,1.9502297 -1.252095,0.715188 0.773581,1.3378768 h 0.43304 a 0.73227767,0.73227767 0 0 0 0.373613,-0.08526 c 0.209405,-0.117907 0.360694,-0.367252 0.360694,-0.603057 0,-0.118159 -0.03303,-0.22977 -0.09198,-0.334857 z m -4.032749,0.302302 -1.429859,0.02635 0.439241,0.248559 -0.39325,0.6888328 c -0.0264,0.04562 -0.04599,0.117522 -0.04599,0.17673 a 0.36575436,0.36575436 0 0 0 0.04599,0.171046 l 0.819572,1.409705 c -0.0064,-0.04588 -0.0062,-0.07901 -0.0062,-0.104901 0,-0.111495 0.05221,-0.288783 0.11782,-0.406685 l 0.70175,-1.212823 0.445959,0.255277 z m 2.596689,1.3962688 -0.734307,1.226775 0.734307,1.226258 v -0.505386 h 0.76738 a 0.35422042,0.35422042 0 0 0 0.321421,-0.17673 l 0.812855,-1.416423 c -0.137638,0.104828 -0.301562,0.157093 -0.498151,0.157093 H 9.417327 Z M 6.728656,11.205057 6.518853,11.57867 c -0.06562,0.111496 -0.111619,0.28868 -0.111619,0.393767 a 0.68562926,0.68562926 0 0 0 0.682116,0.681599 h 1.193185 v -1.448979 z"
         fill="#0078d7"
         style="fill:url(#linearGradient1035);fill-opacity:1;paint-order:stroke fill markers" />
    </g>
  </g>
</svg>
