<?xml version="1.0" encoding="UTF-8" standalone="no"?>
<svg
   width="64"
   height="64"
   viewBox="0 0 16.933 16.933"
   version="1.1"
   id="svg123"
   sodipodi:docname="application-torrent.svg"
   inkscape:version="1.1.2 (0a00cf5339, 2022-02-04, custom)"
   xmlns:inkscape="http://www.inkscape.org/namespaces/inkscape"
   xmlns:sodipodi="http://sodipodi.sourceforge.net/DTD/sodipodi-0.dtd"
   xmlns:xlink="http://www.w3.org/1999/xlink"
   xmlns="http://www.w3.org/2000/svg"
   xmlns:svg="http://www.w3.org/2000/svg">
  <sodipodi:namedview
     id="namedview125"
     pagecolor="#ffffff"
     bordercolor="#666666"
     borderopacity="1.0"
     inkscape:pageshadow="2"
     inkscape:pageopacity="0.0"
     inkscape:pagecheckerboard="0"
     showgrid="false"
     inkscape:zoom="8.0625"
     inkscape:cx="35.968992"
     inkscape:cy="48.124031"
     inkscape:window-width="1366"
     inkscape:window-height="703"
     inkscape:window-x="0"
     inkscape:window-y="37"
     inkscape:window-maximized="1"
     inkscape:current-layer="svg123" />
  <defs
     id="defs47">
    <linearGradient
       id="b"
       x1="7.937"
       x2="7.937"
       y1="15.346"
       y2="16.933"
       gradientUnits="userSpaceOnUse"
       xlink:href="#a" />
    <linearGradient
       id="a">
      <stop
         offset="0"
         id="stop3" />
      <stop
         stop-opacity="0"
         offset="1"
         id="stop5" />
    </linearGradient>
    <linearGradient
       id="d"
       x1="43"
       x2="46.748"
       y1="12"
       y2="8.252"
       gradientUnits="userSpaceOnUse"
       xlink:href="#a" />
    <linearGradient
       id="f"
       x1="5.821"
       x2="5.821"
       y1="1.058"
       gradientUnits="userSpaceOnUse"
       xlink:href="#a" />
    <linearGradient
       id="h"
       x1="13.758"
       x2="15.081"
       y1="10.583"
       y2="10.583"
       gradientUnits="userSpaceOnUse"
       xlink:href="#a" />
    <linearGradient
       id="i"
       x1="3.175"
       x2="1.852"
       y1="8.466"
       y2="8.466"
       gradientUnits="userSpaceOnUse"
       xlink:href="#a" />
    <linearGradient
       id="l"
       x1="7.937"
       x2="7.937"
       y1="15.346"
       y2="16.668"
       gradientUnits="userSpaceOnUse"
       xlink:href="#a" />
    <linearGradient
       id="n"
       x1="43"
       x2="46.004"
       y1="12"
       y2="8.996"
       gradientUnits="userSpaceOnUse"
       xlink:href="#a" />
    <linearGradient
       id="p"
       x1="5.821"
       x2="5.821"
       y1="1.058"
       y2=".265"
       gradientUnits="userSpaceOnUse"
       xlink:href="#a" />
    <linearGradient
       id="r"
       x1="13.758"
       x2="14.816"
       y1="10.583"
       y2="10.583"
       gradientUnits="userSpaceOnUse"
       xlink:href="#a" />
    <linearGradient
       id="s"
       x1="3.175"
       x2="2.117"
       y1="8.466"
       y2="8.466"
       gradientUnits="userSpaceOnUse"
       xlink:href="#a" />
    <linearGradient
       id="v"
       x1="21.039"
       x2="21.039"
       y1="2"
       y2="62"
       gradientTransform="translate(45.221 -.507) scale(.26458)"
       gradientUnits="userSpaceOnUse">
      <stop
         stop-color="#ffae44"
         offset="0"
         id="stop17"
         style="stop-color:#1fc85e;stop-opacity:1" />
      <stop
         stop-color="#fc772b"
         offset="1"
         id="stop19"
         style="stop-color:#049452;stop-opacity:1" />
    </linearGradient>
    <linearGradient
       id="z"
       x1="10.583"
       x2="6.35"
       y1="3.175"
       y2="3.175"
       gradientTransform="matrix(1 0 0 .66667 45.221 1.169)"
       gradientUnits="userSpaceOnUse"
       xlink:href="#a" />
    <linearGradient
       id="A"
       x1="10.583"
       x2="8.731"
       y1="3.043"
       y2="3.043"
       gradientTransform="matrix(1 0 0 .66667 45.221 1.169)"
       gradientUnits="userSpaceOnUse"
       xlink:href="#a" />
    <linearGradient
       id="D"
       x1="10.583"
       x2="6.35"
       y1="3.175"
       y2="3.175"
       gradientTransform="matrix(1 0 0 .66667 -14.574 54.57)"
       gradientUnits="userSpaceOnUse"
       xlink:href="#a" />
    <linearGradient
       id="E"
       x1="10.583"
       x2="8.724"
       y1="3.043"
       y2="3.043"
       gradientTransform="matrix(1 0 0 .66667 -14.574 54.57)"
       gradientUnits="userSpaceOnUse"
       xlink:href="#a" />
    <linearGradient
       id="G"
       x1="40"
       x2="46"
       y1="17"
       y2="11"
       gradientTransform="translate(45.221 -.507) scale(.26458)"
       gradientUnits="userSpaceOnUse">
      <stop
         stop-color="#fefefe"
         offset="0"
         id="stop26" />
      <stop
         stop-color="#e9e9e9"
         offset="1"
         id="stop28" />
    </linearGradient>
    <radialGradient
       id="c"
       cx="35"
       cy="4"
       r="3.728"
       gradientTransform="matrix(1.696 0 0 1.0731 -24.361 -.292)"
       gradientUnits="userSpaceOnUse"
       xlink:href="#a" />
    <radialGradient
       id="e"
       cx="52"
       cy="22"
       r="5.206"
       gradientTransform="matrix(.96042 0 0 1.3331 2.058 -7.328)"
       gradientUnits="userSpaceOnUse"
       xlink:href="#a" />
    <radialGradient
       id="g"
       cx="3.175"
       cy="1.323"
       r=".794"
       gradientTransform="matrix(0 -1.3333 1.6667 0 .97 5.292)"
       gradientUnits="userSpaceOnUse"
       xlink:href="#a" />
    <radialGradient
       id="j"
       cx="13.758"
       cy="15.346"
       r=".794"
       gradientTransform="matrix(0 2 -1.6667 0 39.334 -12.171)"
       gradientUnits="userSpaceOnUse"
       xlink:href="#a" />
    <radialGradient
       id="k"
       cx="3.175"
       cy="15.346"
       r=".794"
       gradientTransform="matrix(-1.6667 0 0 -2 8.466 46.037)"
       gradientUnits="userSpaceOnUse"
       xlink:href="#a" />
    <radialGradient
       id="m"
       cx="35"
       cy="4"
       r="3.728"
       gradientTransform="matrix(1.6115 0 0 .80482 -21.403 .78)"
       gradientUnits="userSpaceOnUse"
       xlink:href="#a" />
    <radialGradient
       id="o"
       cx="52"
       cy="22"
       r="5.206"
       gradientTransform="matrix(.76834 0 0 1.2272 12.047 -4.999)"
       gradientUnits="userSpaceOnUse"
       xlink:href="#a" />
    <radialGradient
       id="q"
       cx="3.175"
       cy="1.323"
       r=".794"
       gradientTransform="matrix(0 -1 1.3333 0 1.411 4.233)"
       gradientUnits="userSpaceOnUse"
       xlink:href="#a" />
    <radialGradient
       id="t"
       cx="13.758"
       cy="15.346"
       r=".794"
       gradientTransform="matrix(0 1.6667 -1.3333 0 34.219 -7.585)"
       gradientUnits="userSpaceOnUse"
       xlink:href="#a" />
    <radialGradient
       id="u"
       cx="3.175"
       cy="15.346"
       r=".794"
       gradientTransform="matrix(-1.3333 0 0 -1.6667 7.408 40.921)"
       gradientUnits="userSpaceOnUse"
       xlink:href="#a" />
    <radialGradient
       id="w"
       cx="40"
       cy="12"
       r="8"
       gradientTransform="matrix(.39687 0 0 -.52916 41.517 10.341)"
       gradientUnits="userSpaceOnUse"
       xlink:href="#a" />
    <radialGradient
       id="x"
       cx="10.583"
       cy="4.233"
       r="2.117"
       gradientTransform="matrix(-2 0 0 -2 76.971 12.457)"
       gradientUnits="userSpaceOnUse"
       xlink:href="#a" />
    <radialGradient
       id="y"
       cx="40"
       cy="12"
       r="8"
       gradientTransform="matrix(0 -.39687 .52916 0 49.455 18.278)"
       gradientUnits="userSpaceOnUse"
       xlink:href="#a" />
    <radialGradient
       id="B"
       cx="10.583"
       cy="4.233"
       r="2.117"
       gradientTransform="matrix(-.875 0 0 -.87849 65.065 7.71)"
       gradientUnits="userSpaceOnUse"
       xlink:href="#a" />
    <radialGradient
       id="C"
       cx="40"
       cy="12"
       r="8"
       gradientTransform="matrix(0 -.34601 .23278 0 53.011 16.244)"
       gradientUnits="userSpaceOnUse"
       xlink:href="#a" />
    <radialGradient
       id="F"
       cx="40"
       cy="12"
       r="8"
       gradientTransform="matrix(.3793 0 0 -.23243 42.22 6.78)"
       gradientUnits="userSpaceOnUse"
       xlink:href="#a" />
  </defs>
  <g
     transform="translate(-45.227 .514)"
     id="g119">
    <g
       opacity=".15"
       id="g69">
      <path
         fill="url(#b)"
         opacity="1"
         d="M3.175 15.346h10.583v1.587H3.175z"
         transform="translate(45.221 -.243)"
         id="path49" />
      <path
         transform="translate(45.221 -.243) scale(.26458)"
         d="M35 0v7l7-7z"
         fill="url(#c)"
         opacity="1"
         id="path51" />
      <path
         transform="translate(45.221 -.243) scale(.26458)"
         d="m42 0-7 7 14 15 9-9V3.545L54.455 0z"
         fill="url(#d)"
         opacity="1"
         id="path53" />
      <path
         transform="translate(45.221 -.243) scale(.26458)"
         d="m58 13-9 9h9z"
         fill="url(#e)"
         opacity="1"
         id="path55" />
      <path
         fill="url(#f)"
         opacity="1"
         d="M3.175 0H9.26v1.058H3.175z"
         transform="translate(45.221 -.243)"
         id="path57" />
      <path
         fill="url(#g)"
         opacity="1"
         d="M1.587 0h1.587v1.058H1.587z"
         transform="translate(45.221 -.243)"
         id="path59" />
      <path
         fill="url(#h)"
         opacity="1"
         d="M13.758 5.821h1.587v9.525h-1.587z"
         transform="translate(45.221 -.243)"
         id="path61" />
      <path
         fill="url(#i)"
         opacity="1"
         d="M1.587 1.058h1.587v14.287H1.587z"
         transform="translate(45.221 -.243)"
         id="path63" />
      <path
         fill="url(#j)"
         opacity="1"
         d="M13.758 15.346h1.587v1.587h-1.587z"
         transform="translate(45.221 -.243)"
         id="path65" />
      <path
         fill="url(#k)"
         opacity="1"
         d="M1.587 15.346h1.587v1.587H1.587z"
         transform="translate(45.221 -.243)"
         id="path67" />
    </g>
    <g
       transform="translate(45.221 -.243)"
       opacity=".25"
       id="g91">
      <path
         fill="url(#l)"
         opacity="1"
         d="M3.175 15.346h10.583v1.587H3.175z"
         id="path71" />
      <path
         transform="scale(.26458)"
         d="M35 0v7l7-7z"
         fill="url(#m)"
         opacity="1"
         id="path73" />
      <path
         transform="scale(.26458)"
         d="m42 0-7 7 14 15 9-9V3.545L54.455 0z"
         fill="url(#n)"
         opacity="1"
         id="path75" />
      <path
         transform="scale(.26458)"
         d="m58 13-9 9h9z"
         fill="url(#o)"
         opacity="1"
         id="path77" />
      <path
         fill="url(#p)"
         opacity="1"
         d="M3.175 0H9.26v1.058H3.175z"
         id="path79" />
      <rect
         x="1.587"
         width="1.587"
         height="1.058"
         ry="0"
         fill="url(#q)"
         opacity="1"
         id="rect81" />
      <path
         fill="url(#r)"
         opacity="1"
         d="M13.758 5.821h1.587v9.525h-1.587z"
         id="path83" />
      <path
         fill="url(#s)"
         opacity="1"
         d="M1.587 1.058h1.587v14.287H1.587z"
         id="path85" />
      <path
         fill="url(#t)"
         opacity="1"
         d="M13.758 15.346h1.587v1.587h-1.587z"
         id="path87" />
      <path
         fill="url(#u)"
         opacity="1"
         d="M1.587 15.346h1.587v1.587H1.587z"
         id="path89" />
    </g>
    <path
       d="M48.132.022a.528.528 0 0 0-.53.53v14.815c0 .293.237.53.53.53h11.112c.293 0 .53-.237.53-.53V5.048c0-.264-.162-.69-.53-1.058L55.804.55a1.325 1.325 0 0 0-1.058-.529z"
       fill="url(#v)"
       id="path93" />
    <path
       d="M57.392 3.99v4.234h2.381V5.049c0-.035-.007-.08-.01-.12-.04-.263-.202-.621-.519-.938z"
       fill="url(#w)"
       opacity=".05"
       id="path95" />
    <path
       fill="none"
       d="M53.942-.785h6.636V5.85h-6.636z"
       id="path97" />
    <rect
       x="51.571"
       y="3.991"
       width="4.233"
       height="4.233"
       ry="0"
       fill="url(#x)"
       opacity=".05"
       id="rect99" />
    <path
       d="M51.571.022v2.381h4.233V.551a1.325 1.325 0 0 0-1.058-.529z"
       fill="url(#y)"
       opacity=".05"
       id="path101" />
    <rect
       x="51.571"
       y="2.403"
       width="4.233"
       height="1.587"
       ry="0"
       fill="url(#z)"
       opacity=".05"
       id="rect103" />
    <rect
       x="52.894"
       y="2.403"
       width="2.91"
       height="1.587"
       ry="0"
       fill="url(#A)"
       opacity=".2"
       id="rect105" />
    <rect
       x="52.894"
       y="3.991"
       width="2.91"
       height="2.91"
       ry="0"
       fill="url(#B)"
       opacity=".2"
       id="rect107" />
    <path
       d="M52.894.022v2.381h2.91V.551a1.4 1.4 0 0 0-.444-.375l-.614-.154z"
       fill="url(#C)"
       opacity=".2"
       id="path109" />
    <rect
       transform="rotate(-90)"
       x="-8.224"
       y="55.804"
       width="4.233"
       height="1.587"
       ry="0"
       fill="url(#D)"
       opacity=".05"
       id="rect111" />
    <rect
       transform="rotate(-90)"
       x="-6.901"
       y="55.804"
       width="2.91"
       height="1.587"
       ry="0"
       fill="url(#E)"
       opacity=".2"
       id="rect113" />
    <path
       d="M57.392 3.99v2.911h2.381V5.05l-.116-.466c-.086-.192-.22-.4-.413-.592z"
       fill="url(#F)"
       opacity=".2"
       id="path115" />
    <path
       d="M55.275.133v3.856c0 .293.236.53.53.53h3.826a2.017 2.017 0 0 0-.382-.53l-3.44-3.44a1.375 1.375 0 0 0-.529-.416z"
       fill="url(#G)"
       id="path117" />
  </g>
  <path
     d="M 10.029244,12.91897 H 8.8235364 c -0.367806,0 -0.726913,0.0065 -1.0751075,-0.128401 C 7.4633268,12.679572 7.1934324,12.511994 6.9801988,12.290001 6.2750885,11.552239 6.1836247,10.381307 6.8213199,9.5674002 7.2108913,9.0711902 7.8115595,8.7534383 8.4470634,8.7534383 c 0.174108,0 0.53756,-0.026114 0.609395,0.1762886 0.037,0.1044643 -0.04135,0.2241623 -0.147988,0.2437523 -0.102289,0.01741 -0.219813,-0.03482 -0.324277,-0.03482 -0.304692,-0.0044 -0.5789248,0.037 -0.8596935,0.163228 -1.033791,0.467915 -1.2905763,1.9848388 -0.4439807,2.7552508 0.2176325,0.198047 0.4657403,0.350396 0.7508967,0.426565 0.2546325,0.0653 0.5157945,0.05224 0.7769515,0.05224 h 1.5648046 c 0.0653,0 0.161048,0.01741 0.224162,-0.0043 0.0457,-0.01741 0.08705,-0.06964 0.12188,-0.104466 0.08487,-0.08487 0.213282,-0.178457 0.261162,-0.291632 H 9.0151584 c -0.237223,0 -0.487505,0.02393 -0.722553,-0.01082 C 8.0162083,12.085535 7.7681006,11.954947 7.5635118,11.765609 7.4568671,11.667679 7.3719939,11.541446 7.3088796,11.413037 6.9193084,10.631726 7.4198738,9.7002452 8.2708294,9.5500222 c 0.145819,-0.02611 0.306867,-0.01958 0.452686,0.01088 0.143638,0.02829 0.324276,0.08052 0.437451,0.178458 0.08052,0.06964 0.08923,0.187168 0.01958,0.2655118 -0.102289,0.117423 -0.206753,0.0456 -0.319927,-0.0023 -0.08705,-0.03918 -0.180638,-0.06746 -0.276397,-0.07834 -0.4069809,-0.05005 -0.8052406,0.178458 -0.9641303,0.559302 -0.1980478,0.476625 0.05441,1.048999 0.5419146,1.21879 0.2372227,0.08271 0.5070947,0.05005 0.7530227,0.05005 h 2.0501396 c 0.08053,0 0.215458,0.02611 0.289457,-0.0065 0.03047,-0.01082 0.0457,-0.05224 0.06094,-0.07834 l 0.121879,-0.239404 c 0.145818,-0.330783 0.243756,-0.670257 0.280756,-1.029406 C 11.879249,8.8970005 10.962999,7.4649769 9.5440564,6.9600185 8.4341184,6.5639172 7.1435416,6.8359646 6.2751811,7.623812 5.8682001,7.9916184 5.5765573,8.4508558 5.3871979,8.9600662 c -0.2546323,0.681236 -0.2546323,1.5125308 0.00218,2.1915858 0.05876,0.154519 0.1196979,0.309048 0.2024031,0.452686 0.019589,0.03917 0.047879,0.126221 0.091403,0.141456 0.095764,0.03701 0.015235,-0.169758 0.0087,-0.202402 C 5.62659,11.286579 5.607005,11.031947 5.607005,10.76644 c 0,-1.1251458 0.7595633,-2.1567568 1.7802726,-2.5855135 0.306867,-0.1284032 0.6572526,-0.211108 0.9902388,-0.211108 0.04788,0 0.100114,-0.00654 0.145819,0.0087 0.106645,0.034819 0.169758,0.1566984 0.117524,0.2589874 -0.07183,0.1392886 -0.213283,0.1044645 -0.339517,0.117524 C 8.0293011,8.381157 7.7637891,8.4355671 7.5091351,8.5422106 6.7800414,8.8490774 6.2120176,9.5107012 6.0444614,10.289833 c -0.2350477,1.105633 0.291632,2.263428 1.3123794,2.774873 0.4287403,0.213283 0.8988306,0.280753 1.3732646,0.248103 0.335156,-0.02393 0.665974,-0.102288 0.975032,-0.228519 0.09793,-0.03917 0.254632,-0.08487 0.3242766,-0.165409 z"
     fill="#ffffff"
     stroke-width="0.557176"
     id="path15" />
</svg>
