<?xml version="1.0" encoding="UTF-8" standalone="no"?>
<!-- Created with Inkscape (http://www.inkscape.org/) -->

<svg
   xmlns:dc="http://purl.org/dc/elements/1.1/"
   xmlns:cc="http://creativecommons.org/ns#"
   xmlns:rdf="http://www.w3.org/1999/02/22-rdf-syntax-ns#"
   xmlns:svg="http://www.w3.org/2000/svg"
   xmlns="http://www.w3.org/2000/svg"
   xmlns:xlink="http://www.w3.org/1999/xlink"
   xmlns:sodipodi="http://sodipodi.sourceforge.net/DTD/sodipodi-0.dtd"
   xmlns:inkscape="http://www.inkscape.org/namespaces/inkscape"
   width="96"
   height="96"
   id="svg2"
   version="1.1"
   inkscape:version="0.48.4 r9939"
   sodipodi:docname="gnome-contacts.svg">
  <defs
     id="defs4">
    <linearGradient
       inkscape:collect="always"
       id="linearGradient4398">
      <stop
         style="stop-color:#ebe3e3;stop-opacity:1"
         offset="0"
         id="stop4400" />
      <stop
         id="stop3856"
         offset="0.43727577"
         style="stop-color:#f7ebef;stop-opacity:1" />
      <stop
         style="stop-color:#f7f7f7;stop-opacity:1"
         offset="1"
         id="stop4402" />
    </linearGradient>
    <linearGradient
       id="linearGradient4357"
       inkscape:collect="always">
      <stop
         id="stop4359"
         offset="0"
         style="stop-color:#ded3d6;stop-opacity:1" />
      <stop
         id="stop4361"
         offset="1"
         style="stop-color:#f7ebef;stop-opacity:1" />
    </linearGradient>
    <linearGradient
       id="linearGradient3076"
       inkscape:collect="always">
      <stop
         id="stop3078"
         offset="0"
         style="stop-color:#ffe7f7;stop-opacity:1" />
      <stop
         id="stop3080"
         offset="1"
         style="stop-color:#ffc3ef;stop-opacity:1" />
    </linearGradient>
    <linearGradient
       inkscape:collect="always"
       id="linearGradient3059">
      <stop
         style="stop-color:#29a221;stop-opacity:1"
         offset="0"
         id="stop3061" />
      <stop
         style="stop-color:#63db4a;stop-opacity:1"
         offset="1"
         id="stop3064" />
    </linearGradient>
    <linearGradient
       inkscape:collect="always"
       id="linearGradient3048">
      <stop
         style="stop-color:#c16d16;stop-opacity:1"
         offset="0"
         id="stop3050" />
      <stop
         style="stop-color:#ff8e31;stop-opacity:1"
         offset="1"
         id="stop3052" />
    </linearGradient>
    <linearGradient
       inkscape:collect="always"
       id="linearGradient3119">
      <stop
         style="stop-color:#92948f;stop-opacity:0"
         offset="0"
         id="stop3121" />
      <stop
         id="stop3123"
         offset="0.4283945"
         style="stop-color:#9b9e98;stop-opacity:1" />
      <stop
         style="stop-color:#939690;stop-opacity:0"
         offset="1"
         id="stop3125" />
    </linearGradient>
    <linearGradient
       id="linearGradient3073"
       inkscape:collect="always">
      <stop
         id="stop3075"
         offset="0"
         style="stop-color:#ffffff;stop-opacity:0" />
      <stop
         style="stop-color:#ffffff;stop-opacity:1"
         offset="0.45872402"
         id="stop3085" />
      <stop
         id="stop3083"
         offset="1"
         style="stop-color:#ffffff;stop-opacity:0" />
    </linearGradient>
    <linearGradient
       inkscape:collect="always"
       id="linearGradient3047">
      <stop
         style="stop-color:#000000;stop-opacity:1"
         offset="0"
         id="stop3049" />
      <stop
         id="stop3055"
         offset="0.06123874"
         style="stop-color:#1a1a1a;stop-opacity:1" />
      <stop
         style="stop-color:#333333;stop-opacity:1"
         offset="0.16480456"
         id="stop3057" />
      <stop
         id="stop3059"
         offset="0.55385184"
         style="stop-color:#4d4d4d;stop-opacity:1" />
      <stop
         style="stop-color:#999999;stop-opacity:1"
         offset="1"
         id="stop3051" />
    </linearGradient>
    <linearGradient
       id="linearGradient3041"
       inkscape:collect="always">
      <stop
         id="stop3043"
         offset="0"
         style="stop-color:#1a1a1a;stop-opacity:1" />
      <stop
         id="stop3045"
         offset="1"
         style="stop-color:#808080;stop-opacity:1" />
    </linearGradient>
    <linearGradient
       inkscape:collect="always"
       id="linearGradient3029">
      <stop
         style="stop-color:#333333;stop-opacity:1"
         offset="0"
         id="stop3031" />
      <stop
         style="stop-color:#e0e0dd;stop-opacity:0;"
         offset="1"
         id="stop3033" />
    </linearGradient>
    <linearGradient
       inkscape:collect="always"
       xlink:href="#linearGradient3029"
       id="linearGradient3035"
       x1="35.355339"
       y1="1030.3622"
       x2="35.355339"
       y2="975.33282"
       gradientUnits="userSpaceOnUse"
       gradientTransform="matrix(1.1638085,0,0,1.1638085,-7.862809,-164.23642)" />
    <linearGradient
       inkscape:collect="always"
       xlink:href="#linearGradient3041"
       id="linearGradient3039"
       gradientUnits="userSpaceOnUse"
       x1="35.355339"
       y1="1030.3622"
       x2="35.355339"
       y2="975.33282"
       gradientTransform="matrix(1.1218695,0,0,1.1218695,-5.8497348,-122.18782)" />
    <linearGradient
       inkscape:collect="always"
       xlink:href="#linearGradient3047"
       id="linearGradient3053"
       x1="40"
       y1="1043.4336"
       x2="39.285713"
       y2="972.33325"
       gradientUnits="userSpaceOnUse" />
    <linearGradient
       inkscape:collect="always"
       xlink:href="#linearGradient3073"
       id="linearGradient3113"
       gradientUnits="userSpaceOnUse"
       gradientTransform="translate(0,-956.36218)"
       x1="14.869445"
       y1="978.90387"
       x2="24.52651"
       y2="969.24683" />
    <linearGradient
       inkscape:collect="always"
       xlink:href="#linearGradient3073"
       id="linearGradient3115"
       gradientUnits="userSpaceOnUse"
       gradientTransform="matrix(-1,0,0,1,96,-956.36218)"
       x1="15.152279"
       y1="978.62103"
       x2="26.263966"
       y2="967.50934" />
    <linearGradient
       inkscape:collect="always"
       xlink:href="#linearGradient3119"
       id="linearGradient3117"
       gradientUnits="userSpaceOnUse"
       gradientTransform="translate(0,-956.36218)"
       x1="13.131983"
       y1="980.64136"
       x2="25.549681"
       y2="967.86646" />
    <linearGradient
       inkscape:collect="always"
       xlink:href="#linearGradient3119"
       id="linearGradient3129"
       gradientUnits="userSpaceOnUse"
       gradientTransform="matrix(-1,0,0,1,96,0)"
       x1="13.131983"
       y1="980.64136"
       x2="25.549681"
       y2="967.86646" />
    <linearGradient
       inkscape:collect="always"
       xlink:href="#linearGradient3048"
       id="linearGradient3054"
       x1="49.267925"
       y1="996.57349"
       x2="49.267925"
       y2="1045.8627"
       gradientUnits="userSpaceOnUse" />
    <linearGradient
       inkscape:collect="always"
       xlink:href="#linearGradient3048"
       id="linearGradient3058"
       x1="115.80308"
       y1="985.47241"
       x2="115.80308"
       y2="1033.5543"
       gradientUnits="userSpaceOnUse" />
    <linearGradient
       inkscape:collect="always"
       xlink:href="#linearGradient3059"
       id="linearGradient3066"
       x1="22.54203"
       y1="1043.3966"
       x2="22.54203"
       y2="964.45898"
       gradientUnits="userSpaceOnUse" />
    <linearGradient
       inkscape:collect="always"
       xlink:href="#linearGradient3059"
       id="linearGradient3068"
       x1="53.796227"
       y1="1046.0226"
       x2="53.796227"
       y2="962.97437"
       gradientUnits="userSpaceOnUse" />
    <linearGradient
       inkscape:collect="always"
       xlink:href="#linearGradient3076"
       id="linearGradient3086"
       gradientUnits="userSpaceOnUse"
       gradientTransform="matrix(1.4144782,0,0,1.4144782,-119.78686,-417.12598)"
       x1="115.80308"
       y1="985.47241"
       x2="115.80308"
       y2="1025.3639" />
    <linearGradient
       inkscape:collect="always"
       xlink:href="#linearGradient3076"
       id="linearGradient3091"
       gradientUnits="userSpaceOnUse"
       gradientTransform="matrix(1.4144782,0,0,1.4144782,-119.78686,-418.126)"
       x1="115.80308"
       y1="985.47241"
       x2="115.80308"
       y2="1025.3639" />
    <linearGradient
       inkscape:collect="always"
       xlink:href="#linearGradient3076"
       id="linearGradient3093"
       gradientUnits="userSpaceOnUse"
       gradientTransform="matrix(1.4144782,0,0,1.4144782,-119.78686,-1375.4171)"
       x1="115.80308"
       y1="985.47241"
       x2="115.80308"
       y2="1025.3639" />
    <linearGradient
       inkscape:collect="always"
       xlink:href="#linearGradient4357"
       id="linearGradient4354"
       gradientUnits="userSpaceOnUse"
       x1="93.242035"
       y1="1027.2615"
       x2="93.242035"
       y2="980.7262"
       gradientTransform="translate(86.884751,0)" />
    <linearGradient
       inkscape:collect="always"
       xlink:href="#linearGradient4398"
       id="linearGradient4404"
       x1="47.094341"
       y1="1025.5547"
       x2="47.094341"
       y2="975.55695"
       gradientUnits="userSpaceOnUse"
       gradientTransform="translate(0,-956.36218)" />
    <filter
       inkscape:collect="always"
       id="filter3871">
      <feGaussianBlur
         inkscape:collect="always"
         stdDeviation="2.1054689"
         id="feGaussianBlur3873" />
    </filter>
  </defs>
  <sodipodi:namedview
     id="base"
     pagecolor="#ffffff"
     bordercolor="#666666"
     borderopacity="1.0"
     inkscape:pageopacity="0.0"
     inkscape:pageshadow="2"
     inkscape:zoom="0.48797732"
     inkscape:cx="-466.03991"
     inkscape:cy="-63.720093"
     inkscape:document-units="px"
     inkscape:current-layer="layer1"
     showgrid="false"
     inkscape:window-width="1366"
     inkscape:window-height="704"
     inkscape:window-x="0"
     inkscape:window-y="28"
     inkscape:window-maximized="1"
     showguides="true"
     inkscape:guide-bbox="true" />
  <metadata
     id="metadata7">
    <rdf:RDF>
      <cc:Work
         rdf:about="">
        <dc:format>image/svg+xml</dc:format>
        <dc:type
           rdf:resource="http://purl.org/dc/dcmitype/StillImage" />
        <dc:title />
      </cc:Work>
    </rdf:RDF>
  </metadata>
  <g
     inkscape:label="Layer 1"
     inkscape:groupmode="layer"
     id="layer1"
     transform="translate(0,-956.36218)">
    <rect
       style="opacity:0.05;fill:#000000;fill-opacity:1;stroke:none"
       id="rect3826"
       width="89"
       height="89"
       x="3.5"
       y="960.86218"
       rx="10.595235"
       ry="10.595235" />
    <g
       id="g3041">
      <rect
         style="opacity:0.05;fill:#000000;fill-opacity:1;stroke:none"
         id="rect3824"
         width="88"
         height="88"
         x="4"
         y="961.36218"
         rx="10.476188"
         ry="10.476188" />
      <rect
         ry="10.357141"
         rx="10.357141"
         y="961.86218"
         x="4.5"
         height="87"
         width="87"
         id="rect3822"
         style="opacity:0.05;fill:#000000;fill-opacity:1;stroke:none" />
      <rect
         style="opacity:0.1;fill:#000000;fill-opacity:1;stroke:none"
         id="rect3820"
         width="86"
         height="86"
         x="5"
         y="962.36218"
         rx="10.238094"
         ry="10.238094" />
      <rect
         ry="10.119047"
         rx="10.119047"
         y="962.86218"
         x="5.5"
         height="85"
         width="85"
         id="rect3818"
         style="opacity:0.1;fill:#000000;fill-opacity:1;stroke:none" />
      <rect
         style="opacity:0.3;fill:#000000;fill-opacity:1;stroke:none"
         id="rect3131"
         width="84"
         height="84"
         x="6"
         y="963.36218"
         rx="10"
         ry="10" />
    </g>
    <rect
       ry="10"
       rx="10"
       y="962.36218"
       x="6"
       height="84"
       width="84"
       id="rect3036"
       style="fill:url(#linearGradient3068);fill-opacity:1;stroke:none" />
    <path
       id="path3069"
       d="m 47.75,980.62159 c -16.30595,0 -29.5625,13.19408 -29.5625,29.50001 0,16.306 13.25655,29.5313 29.5625,29.5313 5.41202,0 10.45112,-1.4581 14.8125,-4 l 15.25,5.6562 -4.75,-16 c 2.66765,-4.4378 4.1875,-9.6325 4.1875,-15.1875 0,-16.30593 -13.19405,-29.50001 -29.5,-29.50001 z m -12.84375,13 c 0.219597,-0.009 0.432414,0.0183 0.65625,0.0937 0.22351,0.0759 0.50236,0.23185 0.78125,0.4375 1.95102,1.44105 4.945,5.68579 5,7.53131 0.06286,2.109 -1.30461,2.5173 -2.0625,4.0312 -0.75787,1.5139 -0.66171,2.8663 0.1875,4.6875 0.99782,2.0243 2.64657,3.8465 4.28125,5.3125 1.53764,1.2611 3.3151,2.418 5.1875,3.0625 1.89408,0.6053 3.21845,0.4992 4.59375,-0.4688 1.37532,-0.9678 1.58807,-2.3698 3.65625,-2.5937 1.55113,-0.1681 5.11159,1.5977 7.15625,3.2187 0.68166,0.54 1.22902,1.0395 1.4375,1.4688 0.83369,1.7174 -1.2803,3.7591 -2.15625,4.875 -1.99094,2.5361 -9.90421,2.2155 -15.71875,0.031 -2.81883,-1.0591 -5.51543,-2.922 -7.875,-5.0312 -2.72045,-2.2354 -5.19351,-4.9273 -6.78125,-7.9375 -2.92516,-5.546 -4.33084,-13.46624 -2.125,-15.81251 0.849179,-0.90327 2.244073,-2.84109 3.78125,-2.90625 z"
       style="opacity:0.2;fill:#000000;fill-opacity:1;stroke:none;filter:url(#filter3871)"
       inkscape:connector-curvature="0" />
    <path
       style="opacity:1;fill:url(#linearGradient4404);fill-opacity:1;stroke:none"
       d="M 47.75 18.28125 C 31.44405 18.28125 18.1875 31.47533 18.1875 47.78125 C 18.1875 64.08725 31.44405 77.3125 47.75 77.3125 C 53.16202 77.3125 58.20112 75.8544 62.5625 73.3125 L 77.8125 78.96875 L 73.0625 62.96875 C 75.73015 58.53095 77.25 53.33625 77.25 47.78125 C 77.25 31.47533 64.05595 18.28125 47.75 18.28125 z M 34.90625 31.28125 C 35.125847 31.271941 35.338664 31.29951 35.5625 31.375 C 35.78601 31.4509 36.06486 31.60685 36.34375 31.8125 C 38.29477 33.25355 41.28875 37.49829 41.34375 39.34375 C 41.40661 41.45279 40.03914 41.86105 39.28125 43.375 C 38.52338 44.88891 38.61954 46.2413 39.46875 48.0625 C 40.46657 50.0868 42.11532 51.909 43.75 53.375 C 45.28764 54.6361 47.0651 55.793 48.9375 56.4375 C 50.83158 57.0428 52.15595 56.93675 53.53125 55.96875 C 54.90657 55.00095 55.11932 53.5989 57.1875 53.375 C 58.73863 53.2069 62.29909 54.97275 64.34375 56.59375 C 65.02541 57.13375 65.57277 57.6332 65.78125 58.0625 C 66.61494 59.7799 64.50095 61.8216 63.625 62.9375 C 61.63406 65.4735 53.72079 65.15295 47.90625 62.96875 C 45.08742 61.90965 42.39082 60.0467 40.03125 57.9375 C 37.3108 55.7021 34.83774 53.0102 33.25 50 C 30.32484 44.454 28.91916 36.53377 31.125 34.1875 C 31.974179 33.284238 33.369073 31.346412 34.90625 31.28125 z "
       transform="translate(0,956.36218)"
       id="path4393" />
    <path
       style="opacity:1;fill:#ffffff;fill-opacity:1;stroke:none"
       d="M 47.75 18.28125 C 31.44405 18.28125 18.1875 31.47533 18.1875 47.78125 C 18.1875 47.947568 18.184752 48.115583 18.1875 48.28125 C 18.45412 32.2055 31.610368 19.28125 47.75 19.28125 C 63.858447 19.28125 76.935712 32.154994 77.25 48.1875 C 77.251834 48.051297 77.25 47.917895 77.25 47.78125 C 77.25 31.47533 64.05595 18.28125 47.75 18.28125 z M 30.0625 38.78125 C 29.957353 42.255732 31.238952 47.187125 33.25 51 C 34.83774 54.0102 37.3108 56.7021 40.03125 58.9375 C 42.39082 61.0467 45.08742 62.90965 47.90625 63.96875 C 53.72079 66.15325 61.63406 66.4735 63.625 63.9375 C 64.441385 62.897481 66.327663 61.042585 65.90625 59.40625 C 65.622343 60.757314 64.281963 62.100575 63.625 62.9375 C 61.63406 65.4735 53.72079 65.15295 47.90625 62.96875 C 45.08742 61.90965 42.39082 60.0467 40.03125 57.9375 C 37.3108 55.7021 34.83774 53.0102 33.25 50 C 31.427134 46.54391 30.198947 42.157887 30.0625 38.78125 z M 41.3125 40.0625 C 41.082507 41.574234 39.944404 42.050294 39.28125 43.375 C 38.857414 44.221649 38.719791 45.019134 38.8125 45.875 C 38.877392 45.375732 39.025024 44.88683 39.28125 44.375 C 40.03914 42.86108 41.40661 42.45279 41.34375 40.34375 C 41.341166 40.257045 41.327646 40.159257 41.3125 40.0625 z M 73.25 63.625 C 73.183847 63.738482 73.130135 63.856235 73.0625 63.96875 L 77.46875 78.84375 L 77.8125 78.96875 L 73.25 63.625 z "
       transform="translate(0,956.36218)"
       id="path3851" />
  </g>
</svg>
