<?xml version="1.0" encoding="UTF-8" standalone="no"?>
<!-- Created with Inkscape (http://www.inkscape.org/) -->

<svg
   xmlns:dc="http://purl.org/dc/elements/1.1/"
   xmlns:cc="http://creativecommons.org/ns#"
   xmlns:rdf="http://www.w3.org/1999/02/22-rdf-syntax-ns#"
   xmlns:svg="http://www.w3.org/2000/svg"
   xmlns="http://www.w3.org/2000/svg"
   xmlns:xlink="http://www.w3.org/1999/xlink"
   xmlns:sodipodi="http://sodipodi.sourceforge.net/DTD/sodipodi-0.dtd"
   xmlns:inkscape="http://www.inkscape.org/namespaces/inkscape"
   width="96"
   height="96"
   id="svg2"
   version="1.1"
   inkscape:version="0.48.4 r9939"
   sodipodi:docname="gnome-music.svg">
  <defs
     id="defs4">
    <linearGradient
       id="linearGradient4293">
      <stop
         style="stop-color:#3b69a4;stop-opacity:1;"
         offset="0"
         id="stop4295" />
      <stop
         id="stop4301"
         offset="0.12751994"
         style="stop-color:#3b69a4;stop-opacity:0" />
      <stop
         style="stop-color:#3b69a4;stop-opacity:0"
         offset="0.88838893"
         id="stop4303" />
      <stop
         style="stop-color:#3b69a4;stop-opacity:1;"
         offset="1"
         id="stop4297" />
    </linearGradient>
    <linearGradient
       id="linearGradient4269"
       inkscape:collect="always">
      <stop
         id="stop4271"
         offset="0"
         style="stop-color:#cfd1cc;stop-opacity:1" />
      <stop
         style="stop-color:#f4f4f3;stop-opacity:1"
         offset="0.33202529"
         id="stop4275" />
      <stop
         id="stop4277"
         offset="0.69475311"
         style="stop-color:#fbfbfb;stop-opacity:1" />
      <stop
         id="stop4273"
         offset="1"
         style="stop-color:#c1c3bd;stop-opacity:1" />
    </linearGradient>
    <linearGradient
       inkscape:collect="always"
       id="linearGradient4259">
      <stop
         style="stop-color:#cbcdc7;stop-opacity:1"
         offset="0"
         id="stop4261" />
      <stop
         style="stop-color:#abada8;stop-opacity:1"
         offset="1"
         id="stop4263" />
    </linearGradient>
    <linearGradient
       id="linearGradient4249"
       inkscape:collect="always">
      <stop
         id="stop4251"
         offset="0"
         style="stop-color:#f4f4f2;stop-opacity:0.2" />
      <stop
         id="stop4253"
         offset="1"
         style="stop-color:#cbccca;stop-opacity:1" />
    </linearGradient>
    <linearGradient
       id="linearGradient4215"
       inkscape:collect="always">
      <stop
         id="stop4217"
         offset="0"
         style="stop-color:#6c6d69;stop-opacity:1" />
      <stop
         id="stop4219"
         offset="1"
         style="stop-color:#0e0f0e;stop-opacity:1" />
    </linearGradient>
    <linearGradient
       id="linearGradient4185"
       inkscape:collect="always">
      <stop
         id="stop4187"
         offset="0"
         style="stop-color:#2f3131;stop-opacity:1" />
      <stop
         id="stop4189"
         offset="1"
         style="stop-color:#1d2122;stop-opacity:0" />
    </linearGradient>
    <linearGradient
       inkscape:collect="always"
       id="linearGradient4173">
      <stop
         style="stop-color:#0f1112;stop-opacity:1"
         offset="0"
         id="stop4175" />
      <stop
         style="stop-color:#1d2122;stop-opacity:1"
         offset="1"
         id="stop4177" />
    </linearGradient>
    <linearGradient
       inkscape:collect="always"
       id="linearGradient4126">
      <stop
         style="stop-color:#f9eb7e;stop-opacity:1"
         offset="0"
         id="stop4128" />
      <stop
         style="stop-color:#c29e00;stop-opacity:1"
         offset="1"
         id="stop4130" />
    </linearGradient>
    <linearGradient
       inkscape:collect="always"
       id="linearGradient4118">
      <stop
         style="stop-color:#494a47;stop-opacity:1"
         offset="0"
         id="stop4120" />
      <stop
         style="stop-color:#000000;stop-opacity:1"
         offset="1"
         id="stop4122" />
    </linearGradient>
    <linearGradient
       inkscape:collect="always"
       id="linearGradient4110">
      <stop
         style="stop-color:#d9dad9;stop-opacity:1"
         offset="0"
         id="stop4112" />
      <stop
         style="stop-color:#5b5d59;stop-opacity:1"
         offset="1"
         id="stop4114" />
    </linearGradient>
    <linearGradient
       inkscape:collect="always"
       id="linearGradient4102">
      <stop
         style="stop-color:#6e706d;stop-opacity:1"
         offset="0"
         id="stop4104" />
      <stop
         style="stop-color:#000000;stop-opacity:1"
         offset="1"
         id="stop4106" />
    </linearGradient>
    <linearGradient
       inkscape:collect="always"
       id="linearGradient4082">
      <stop
         style="stop-color:#323331;stop-opacity:1"
         offset="0"
         id="stop4084" />
      <stop
         id="stop4100"
         offset="0.92270255"
         style="stop-color:#2a2a29;stop-opacity:1" />
      <stop
         style="stop-color:#090909;stop-opacity:1"
         offset="1"
         id="stop4086" />
    </linearGradient>
    <linearGradient
       id="linearGradient3070"
       inkscape:collect="always">
      <stop
         id="stop3072"
         offset="0"
         style="stop-color:#727470;stop-opacity:1" />
      <stop
         id="stop3074"
         offset="1"
         style="stop-color:#e5e5e4;stop-opacity:1" />
    </linearGradient>
    <linearGradient
       inkscape:collect="always"
       id="linearGradient3059">
      <stop
         style="stop-color:#82837f;stop-opacity:1"
         offset="0"
         id="stop3061" />
      <stop
         id="stop4042"
         offset="0.02215983"
         style="stop-color:#9d9e9a;stop-opacity:0.84057605" />
      <stop
         style="stop-color:#eaebe8;stop-opacity:1"
         offset="0.17418769"
         id="stop4044" />
      <stop
         style="stop-color:#ebecea;stop-opacity:1"
         offset="1"
         id="stop3064" />
    </linearGradient>
    <linearGradient
       inkscape:collect="always"
       id="linearGradient3048">
      <stop
         style="stop-color:#c16d16;stop-opacity:1"
         offset="0"
         id="stop3050" />
      <stop
         style="stop-color:#ff8e31;stop-opacity:1"
         offset="1"
         id="stop3052" />
    </linearGradient>
    <linearGradient
       inkscape:collect="always"
       id="linearGradient3119">
      <stop
         style="stop-color:#92948f;stop-opacity:0"
         offset="0"
         id="stop3121" />
      <stop
         id="stop3123"
         offset="0.4283945"
         style="stop-color:#9b9e98;stop-opacity:1" />
      <stop
         style="stop-color:#939690;stop-opacity:0"
         offset="1"
         id="stop3125" />
    </linearGradient>
    <linearGradient
       id="linearGradient3073"
       inkscape:collect="always">
      <stop
         id="stop3075"
         offset="0"
         style="stop-color:#ffffff;stop-opacity:0" />
      <stop
         style="stop-color:#ffffff;stop-opacity:1"
         offset="0.45872402"
         id="stop3085" />
      <stop
         id="stop3083"
         offset="1"
         style="stop-color:#ffffff;stop-opacity:0" />
    </linearGradient>
    <linearGradient
       inkscape:collect="always"
       id="linearGradient3047">
      <stop
         style="stop-color:#000000;stop-opacity:1"
         offset="0"
         id="stop3049" />
      <stop
         id="stop3055"
         offset="0.06123874"
         style="stop-color:#1a1a1a;stop-opacity:1" />
      <stop
         style="stop-color:#333333;stop-opacity:1"
         offset="0.16480456"
         id="stop3057" />
      <stop
         id="stop3059"
         offset="0.55385184"
         style="stop-color:#4d4d4d;stop-opacity:1" />
      <stop
         style="stop-color:#999999;stop-opacity:1"
         offset="1"
         id="stop3051" />
    </linearGradient>
    <linearGradient
       id="linearGradient3041"
       inkscape:collect="always">
      <stop
         id="stop3043"
         offset="0"
         style="stop-color:#1a1a1a;stop-opacity:1" />
      <stop
         id="stop3045"
         offset="1"
         style="stop-color:#808080;stop-opacity:1" />
    </linearGradient>
    <linearGradient
       inkscape:collect="always"
       id="linearGradient3029">
      <stop
         style="stop-color:#333333;stop-opacity:1"
         offset="0"
         id="stop3031" />
      <stop
         style="stop-color:#e0e0dd;stop-opacity:0;"
         offset="1"
         id="stop3033" />
    </linearGradient>
    <linearGradient
       inkscape:collect="always"
       xlink:href="#linearGradient3029"
       id="linearGradient3035"
       x1="35.355339"
       y1="1030.3622"
       x2="35.355339"
       y2="975.33282"
       gradientUnits="userSpaceOnUse"
       gradientTransform="matrix(1.1638085,0,0,1.1638085,-7.862809,-164.23642)" />
    <linearGradient
       inkscape:collect="always"
       xlink:href="#linearGradient3041"
       id="linearGradient3039"
       gradientUnits="userSpaceOnUse"
       x1="35.355339"
       y1="1030.3622"
       x2="35.355339"
       y2="975.33282"
       gradientTransform="matrix(1.1218695,0,0,1.1218695,-5.8497348,-122.18782)" />
    <linearGradient
       inkscape:collect="always"
       xlink:href="#linearGradient3047"
       id="linearGradient3053"
       x1="40"
       y1="1043.4336"
       x2="39.285713"
       y2="972.33325"
       gradientUnits="userSpaceOnUse" />
    <linearGradient
       inkscape:collect="always"
       xlink:href="#linearGradient3073"
       id="linearGradient3113"
       gradientUnits="userSpaceOnUse"
       gradientTransform="translate(0,-956.36218)"
       x1="14.869445"
       y1="978.90387"
       x2="24.52651"
       y2="969.24683" />
    <linearGradient
       inkscape:collect="always"
       xlink:href="#linearGradient3073"
       id="linearGradient3115"
       gradientUnits="userSpaceOnUse"
       gradientTransform="matrix(-1,0,0,1,96,-956.36218)"
       x1="15.152279"
       y1="978.62103"
       x2="26.263966"
       y2="967.50934" />
    <linearGradient
       inkscape:collect="always"
       xlink:href="#linearGradient3119"
       id="linearGradient3117"
       gradientUnits="userSpaceOnUse"
       gradientTransform="translate(0,-956.36218)"
       x1="13.131983"
       y1="980.64136"
       x2="25.549681"
       y2="967.86646" />
    <linearGradient
       inkscape:collect="always"
       xlink:href="#linearGradient3119"
       id="linearGradient3129"
       gradientUnits="userSpaceOnUse"
       gradientTransform="matrix(-1,0,0,1,96,0)"
       x1="13.131983"
       y1="980.64136"
       x2="25.549681"
       y2="967.86646" />
    <linearGradient
       inkscape:collect="always"
       xlink:href="#linearGradient3048"
       id="linearGradient3054"
       x1="49.267925"
       y1="996.57349"
       x2="49.267925"
       y2="1045.8627"
       gradientUnits="userSpaceOnUse" />
    <linearGradient
       inkscape:collect="always"
       xlink:href="#linearGradient3048"
       id="linearGradient3058"
       x1="115.80308"
       y1="985.47241"
       x2="115.80308"
       y2="1033.5543"
       gradientUnits="userSpaceOnUse" />
    <linearGradient
       inkscape:collect="always"
       xlink:href="#linearGradient3059"
       id="linearGradient3066"
       x1="22.54203"
       y1="1045.382"
       x2="22.54203"
       y2="964.45898"
       gradientUnits="userSpaceOnUse" />
    <linearGradient
       inkscape:collect="always"
       xlink:href="#linearGradient3070"
       id="linearGradient3068"
       x1="53.796227"
       y1="1046.0226"
       x2="53.796227"
       y2="962.97437"
       gradientUnits="userSpaceOnUse" />
    <radialGradient
       inkscape:collect="always"
       xlink:href="#linearGradient4082"
       id="radialGradient4155"
       gradientUnits="userSpaceOnUse"
       gradientTransform="matrix(0.66316695,-0.68106874,0.68785799,0.66977775,79.202061,95.943291)"
       cx="123.82769"
       cy="-7.3479452"
       fx="123.82769"
       fy="-7.3479452"
       r="27.66522" />
    <radialGradient
       inkscape:collect="always"
       xlink:href="#linearGradient4102"
       id="radialGradient4157"
       gradientUnits="userSpaceOnUse"
       gradientTransform="matrix(0.70930849,-0.70930849,0.70710678,0.70710678,21.369517,119.4564)"
       cx="170.69501"
       cy="39.103237"
       fx="170.69501"
       fy="39.103237"
       r="27.66522" />
    <radialGradient
       inkscape:collect="always"
       xlink:href="#linearGradient4126"
       id="radialGradient4159"
       gradientUnits="userSpaceOnUse"
       gradientTransform="matrix(-0.55614981,-0.99657157,0.63750556,-0.3557679,246.83721,207.35853)"
       cx="170.0654"
       cy="27.937065"
       fx="170.0654"
       fy="27.937065"
       r="27.66522" />
    <radialGradient
       inkscape:collect="always"
       xlink:href="#linearGradient4118"
       id="radialGradient4161"
       gradientUnits="userSpaceOnUse"
       gradientTransform="matrix(-0.77814907,-1.3477937,0.86602541,-0.49999998,277.3503,270.83093)"
       cx="169.66512"
       cy="28.104902"
       fx="169.66512"
       fy="28.104902"
       r="27.66522" />
    <radialGradient
       inkscape:collect="always"
       xlink:href="#linearGradient4110"
       id="radialGradient4163"
       gradientUnits="userSpaceOnUse"
       gradientTransform="matrix(0.92642916,-0.92642916,0.70710665,0.70710691,6.435631,143.49064)"
       cx="152.19656"
       cy="0.39519843"
       fx="152.19656"
       fy="0.39519843"
       r="27.66522" />
    <radialGradient
       inkscape:collect="always"
       xlink:href="#linearGradient4215"
       id="radialGradient4213"
       gradientUnits="userSpaceOnUse"
       gradientTransform="matrix(0.92642916,-0.92642916,0.70710665,0.70710691,6.435631,143.49064)"
       cx="152.19656"
       cy="0.39519843"
       fx="152.19656"
       fy="0.39519843"
       r="27.66522" />
    <radialGradient
       inkscape:collect="always"
       xlink:href="#linearGradient4215"
       id="radialGradient4223"
       gradientUnits="userSpaceOnUse"
       gradientTransform="matrix(0.92642916,-0.92642916,0.70710665,0.70710691,6.435631,143.49064)"
       cx="152.19656"
       cy="0.39519843"
       fx="152.19656"
       fy="0.39519843"
       r="27.66522" />
    <radialGradient
       inkscape:collect="always"
       xlink:href="#linearGradient4215"
       id="radialGradient4229"
       gradientUnits="userSpaceOnUse"
       gradientTransform="matrix(0.92642916,-0.92642916,0.70710665,0.70710691,6.435631,143.49064)"
       cx="152.19656"
       cy="0.39519843"
       fx="152.19656"
       fy="0.39519843"
       r="27.66522" />
    <radialGradient
       inkscape:collect="always"
       xlink:href="#linearGradient4215"
       id="radialGradient4231"
       gradientUnits="userSpaceOnUse"
       gradientTransform="matrix(0.92642916,-0.92642916,0.70710665,0.70710691,6.435631,143.49064)"
       cx="152.19656"
       cy="0.39519843"
       fx="152.19656"
       fy="0.39519843"
       r="27.66522" />
    <linearGradient
       inkscape:collect="always"
       xlink:href="#linearGradient4173"
       id="linearGradient4234"
       gradientUnits="userSpaceOnUse"
       x1="-51.872288"
       y1="983.32721"
       x2="-51.872288"
       y2="1027.3868"
       gradientTransform="translate(98.551388,-957.08672)" />
    <linearGradient
       inkscape:collect="always"
       xlink:href="#linearGradient4185"
       id="linearGradient4237"
       gradientUnits="userSpaceOnUse"
       x1="-73.517761"
       y1="981.97845"
       x2="-73.517761"
       y2="996.24957"
       gradientTransform="translate(98.551388,-957.08672)" />
    <linearGradient
       inkscape:collect="always"
       xlink:href="#linearGradient4249"
       id="linearGradient4247"
       x1="163.93456"
       y1="27.549704"
       x2="163.93456"
       y2="-18.987923"
       gradientUnits="userSpaceOnUse" />
    <linearGradient
       inkscape:collect="always"
       xlink:href="#linearGradient4259"
       id="linearGradient4257"
       gradientUnits="userSpaceOnUse"
       x1="163.93456"
       y1="27.549704"
       x2="163.93456"
       y2="-18.987923" />
    <linearGradient
       inkscape:collect="always"
       xlink:href="#linearGradient4269"
       id="linearGradient4267"
       gradientUnits="userSpaceOnUse"
       x1="133.60789"
       y1="23.400761"
       x2="181.84242"
       y2="-8.7555933" />
    <linearGradient
       inkscape:collect="always"
       xlink:href="#linearGradient4293"
       id="linearGradient4299"
       x1="58.404354"
       y1="-11.586967"
       x2="178.93112"
       y2="-11.586967"
       gradientUnits="userSpaceOnUse" />
    <linearGradient
       inkscape:collect="always"
       xlink:href="#linearGradient4293"
       id="linearGradient4307"
       gradientUnits="userSpaceOnUse"
       x1="58.404354"
       y1="-11.586967"
       x2="178.93112"
       y2="-11.586967" />
    <linearGradient
       inkscape:collect="always"
       xlink:href="#linearGradient4293"
       id="linearGradient4311"
       gradientUnits="userSpaceOnUse"
       x1="58.404354"
       y1="-11.586967"
       x2="178.93112"
       y2="-11.586967" />
  </defs>
  <sodipodi:namedview
     id="base"
     pagecolor="#ffffff"
     bordercolor="#666666"
     borderopacity="1.0"
     inkscape:pageopacity="0.0"
     inkscape:pageshadow="2"
     inkscape:zoom="1.3802083"
     inkscape:cx="197.01589"
     inkscape:cy="16.94154"
     inkscape:document-units="px"
     inkscape:current-layer="layer1"
     showgrid="false"
     inkscape:window-width="1366"
     inkscape:window-height="704"
     inkscape:window-x="0"
     inkscape:window-y="28"
     inkscape:window-maximized="1"
     showguides="true"
     inkscape:guide-bbox="true" />
  <metadata
     id="metadata7">
    <rdf:RDF>
      <cc:Work
         rdf:about="">
        <dc:format>image/svg+xml</dc:format>
        <dc:type
           rdf:resource="http://purl.org/dc/dcmitype/StillImage" />
        <dc:title></dc:title>
      </cc:Work>
    </rdf:RDF>
  </metadata>
  <g
     inkscape:label="Layer 1"
     inkscape:groupmode="layer"
     id="layer1"
     transform="translate(0,-956.36218)">
    <rect
       style="opacity:0.05;fill:#000000;fill-opacity:1;stroke:none"
       id="rect3826"
       width="89"
       height="89"
       x="3.5"
       y="960.86218"
       rx="10.595235"
       ry="10.595235" />
    <g
       id="g3041">
      <rect
         style="opacity:0.05;fill:#000000;fill-opacity:1;stroke:none"
         id="rect3824"
         width="88"
         height="88"
         x="4"
         y="961.36218"
         rx="10.476188"
         ry="10.476188" />
      <rect
         ry="10.357141"
         rx="10.357141"
         y="961.86218"
         x="4.5"
         height="87"
         width="87"
         id="rect3822"
         style="opacity:0.05;fill:#000000;fill-opacity:1;stroke:none" />
      <rect
         style="opacity:0.1;fill:#000000;fill-opacity:1;stroke:none"
         id="rect3820"
         width="86"
         height="86"
         x="5"
         y="962.36218"
         rx="10.238094"
         ry="10.238094" />
      <rect
         ry="10.119047"
         rx="10.119047"
         y="962.86218"
         x="5.5"
         height="85"
         width="85"
         id="rect3818"
         style="opacity:0.1;fill:#000000;fill-opacity:1;stroke:none" />
      <rect
         style="opacity:0.3;fill:#000000;fill-opacity:1;stroke:none"
         id="rect3131"
         width="84"
         height="84"
         x="6"
         y="963.36218"
         rx="10"
         ry="10" />
    </g>
    <rect
       ry="10"
       rx="10"
       y="962.36218"
       x="6"
       height="84"
       width="84"
       id="rect3036"
       style="fill:url(#linearGradient3068);fill-opacity:1;stroke:none" />
    <rect
       style="fill:url(#linearGradient3066);fill-opacity:1;stroke:none"
       id="rect3034"
       width="82"
       height="82"
       x="7"
       y="963.36218"
       rx="9.7619047"
       ry="9.7619047" />
    <path
       style="fill:#090a0a;fill-opacity:1;stroke:none"
       d="M 48 20.1875 C 42.575583 20.1875 37.528068 21.751089 33.25 24.4375 L 28.4375 24.4375 C 26.222579 24.4375 24.4375 26.222579 24.4375 28.4375 L 24.4375 33.25 C 21.751089 37.528068 20.1875 42.575583 20.1875 48 C 20.1875 53.424417 21.751089 58.471932 24.4375 62.75 L 24.4375 67.5625 C 24.4375 69.777421 26.222579 71.5625 28.4375 71.5625 L 33.25 71.5625 C 37.528068 74.248911 42.575583 75.8125 48 75.8125 C 53.424417 75.8125 58.471932 74.248911 62.75 71.5625 L 67.5625 71.5625 C 69.777421 71.5625 71.5625 69.777421 71.5625 67.5625 L 71.5625 62.75 C 74.248911 58.471932 75.8125 53.424417 75.8125 48 C 75.8125 42.575583 74.248911 37.528068 71.5625 33.25 L 71.5625 28.4375 C 71.5625 26.222579 69.777421 24.4375 67.5625 24.4375 L 62.75 24.4375 C 58.471932 21.751089 53.424417 20.1875 48 20.1875 z "
       transform="translate(0,956.36218)"
       id="rect4165" />
    <path
       style="fill:url(#linearGradient4237);fill-opacity:1;stroke:none"
       d="M 48 20.71875 C 42.697651 20.71875 37.75065 22.226996 33.5625 24.84375 L 28.75 24.84375 C 26.571222 24.84375 24.8125 26.602472 24.8125 28.78125 L 24.8125 33.59375 C 22.209904 37.774052 20.71875 42.713225 20.71875 48 C 20.71875 53.286775 22.209904 58.225948 24.8125 62.40625 L 24.8125 67.21875 C 24.8125 69.397528 26.571222 71.15625 28.75 71.15625 L 33.5625 71.15625 C 37.75065 73.773004 42.697651 75.28125 48 75.28125 C 53.302349 75.28125 58.24935 73.773004 62.4375 71.15625 L 67.25 71.15625 C 69.428778 71.15625 71.1875 69.397528 71.1875 67.21875 L 71.1875 62.40625 C 73.790096 58.225948 75.28125 53.286775 75.28125 48 C 75.28125 42.713225 73.790096 37.774052 71.1875 33.59375 L 71.1875 28.78125 C 71.1875 26.602472 69.428778 24.84375 67.25 24.84375 L 62.4375 24.84375 C 58.24935 22.226996 53.302349 20.71875 48 20.71875 z "
       transform="translate(0,956.36218)"
       id="rect4167" />
    <path
       style="fill:url(#linearGradient4234);fill-opacity:1;stroke:none"
       d="M 48 21.09375 C 42.705303 21.09375 37.787558 22.640065 33.625 25.28125 L 29.125 25.28125 C 26.988078 25.28125 25.28125 26.988078 25.28125 29.125 L 25.28125 33.625 C 22.640065 37.787558 21.09375 42.705303 21.09375 48 C 21.09375 53.294697 22.640065 58.212442 25.28125 62.375 L 25.28125 66.875 C 25.28125 69.011922 26.988078 70.71875 29.125 70.71875 L 33.625 70.71875 C 37.787558 73.359935 42.705303 74.90625 48 74.90625 C 53.294697 74.90625 58.212442 73.359935 62.375 70.71875 L 66.875 70.71875 C 69.011922 70.71875 70.71875 69.011922 70.71875 66.875 L 70.71875 62.375 C 73.359935 58.212442 74.90625 53.294697 74.90625 48 C 74.90625 42.705303 73.359935 37.787558 70.71875 33.625 L 70.71875 29.125 C 70.71875 26.988078 69.011922 25.28125 66.875 25.28125 L 62.375 25.28125 C 58.212442 22.640065 53.294697 21.09375 48 21.09375 z "
       transform="translate(0,956.36218)"
       id="rect4169" />
    <path
       transform="matrix(0.90768827,0,0,0.90768827,-94.065406,998.1386)"
       d="m 184.17865,6.8565135 a 27.66522,27.66522 0 1 1 -55.33044,0 27.66522,27.66522 0 1 1 55.33044,0 z"
       sodipodi:ry="27.66522"
       sodipodi:rx="27.66522"
       sodipodi:cy="6.8565135"
       sodipodi:cx="156.51343"
       id="path4052"
       style="fill:url(#radialGradient4155);fill-opacity:1;stroke:none"
       sodipodi:type="arc" />
    <path
       sodipodi:type="arc"
       style="opacity:0.3;fill:#000000;fill-opacity:0.84057605;stroke:none"
       id="path4054"
       sodipodi:cx="156.51343"
       sodipodi:cy="6.8565135"
       sodipodi:rx="27.66522"
       sodipodi:ry="27.66522"
       d="m 184.17865,6.8565135 a 27.66522,27.66522 0 1 1 -55.33044,0 27.66522,27.66522 0 1 1 55.33044,0 z"
       transform="matrix(0.81046605,0,0,0.81046605,-78.848823,998.80521)" />
    <path
       transform="matrix(0.7873179,0,0,0.7873179,-75.225823,998.96393)"
       d="m 184.17865,6.8565135 a 27.66522,27.66522 0 1 1 -55.33044,0 27.66522,27.66522 0 1 1 55.33044,0 z"
       sodipodi:ry="27.66522"
       sodipodi:rx="27.66522"
       sodipodi:cy="6.8565135"
       sodipodi:cx="156.51343"
       id="path4056"
       style="opacity:0.3;fill:url(#radialGradient4157);fill-opacity:1;stroke:none"
       sodipodi:type="arc" />
    <path
       sodipodi:type="arc"
       style="opacity:0.3;fill:#ffff00;fill-opacity:0.84057605;stroke:none"
       id="path4058"
       sodipodi:cx="156.51343"
       sodipodi:cy="6.8565135"
       sodipodi:rx="27.66522"
       sodipodi:ry="27.66522"
       d="m 184.17865,6.8565135 a 27.66522,27.66522 0 1 1 -55.33044,0 27.66522,27.66522 0 1 1 55.33044,0 z"
       transform="matrix(0.72250309,0,0,0.72250309,-65.081433,999.40833)" />
    <path
       transform="matrix(0.70398457,0,0,0.70398457,-62.183043,999.5353)"
       d="m 184.17865,6.8565135 a 27.66522,27.66522 0 1 1 -55.33044,0 27.66522,27.66522 0 1 1 55.33044,0 z"
       sodipodi:ry="27.66522"
       sodipodi:rx="27.66522"
       sodipodi:cy="6.8565135"
       sodipodi:cx="156.51343"
       id="path4060"
       style="fill:url(#radialGradient4159);fill-opacity:1;stroke:none"
       sodipodi:type="arc" />
    <path
       sodipodi:type="arc"
       style="fill:url(#radialGradient4161);fill-opacity:1;stroke:none"
       id="path4062"
       sodipodi:cx="156.51343"
       sodipodi:cy="6.8565135"
       sodipodi:rx="27.66522"
       sodipodi:ry="27.66522"
       d="m 184.17865,6.8565135 a 27.66522,27.66522 0 1 1 -55.33044,0 27.66522,27.66522 0 1 1 55.33044,0 z"
       transform="matrix(0.32898457,0,0,0.32898457,-3.4905032,1000.5695)" />
    <path
       sodipodi:type="arc"
       style="fill:#000000;fill-opacity:1;stroke:none"
       id="path4134"
       sodipodi:cx="156.51343"
       sodipodi:cy="6.8565135"
       sodipodi:rx="27.66522"
       sodipodi:ry="27.66522"
       d="m 184.17865,6.8565135 a 27.66522,27.66522 0 1 1 -55.33044,0 27.66522,27.66522 0 1 1 55.33044,0 z"
       transform="matrix(0.23639198,0,0,0.23639198,11.001483,1002.2049)" />
    <path
       transform="matrix(0.23639198,0,0,0.23639198,11.001483,1000.7049)"
       d="m 184.17865,6.8565135 a 27.66522,27.66522 0 1 1 -55.33044,0 27.66522,27.66522 0 1 1 55.33044,0 z"
       sodipodi:ry="27.66522"
       sodipodi:rx="27.66522"
       sodipodi:cy="6.8565135"
       sodipodi:cx="156.51343"
       id="path4064"
       style="fill:url(#radialGradient4163);fill-opacity:1;stroke:none"
       sodipodi:type="arc" />
    <path
       sodipodi:type="arc"
       style="fill:url(#radialGradient4213);fill-opacity:1;stroke:none"
       id="path4211"
       sodipodi:cx="156.51343"
       sodipodi:cy="6.8565135"
       sodipodi:rx="27.66522"
       sodipodi:ry="27.66522"
       d="m 184.17865,6.8565135 a 27.66522,27.66522 0 1 1 -55.33044,0 27.66522,27.66522 0 1 1 55.33044,0 z"
       transform="matrix(0.04337576,0,0,0.04337576,60.723847,984.27119)" />
    <path
       transform="matrix(0.04337576,0,0,0.04337576,60.839997,1023.6937)"
       d="m 184.17865,6.8565135 a 27.66522,27.66522 0 1 1 -55.33044,0 27.66522,27.66522 0 1 1 55.33044,0 z"
       sodipodi:ry="27.66522"
       sodipodi:rx="27.66522"
       sodipodi:cy="6.8565135"
       sodipodi:cx="156.51343"
       id="path4221"
       style="fill:url(#radialGradient4223);fill-opacity:1;stroke:none"
       sodipodi:type="arc" />
    <path
       transform="matrix(0.04337576,0,0,0.04337576,21.281178,984.17474)"
       d="m 184.17865,6.8565135 a 27.66522,27.66522 0 1 1 -55.33044,0 27.66522,27.66522 0 1 1 55.33044,0 z"
       sodipodi:ry="27.66522"
       sodipodi:rx="27.66522"
       sodipodi:cy="6.8565135"
       sodipodi:cx="156.51343"
       id="path4225"
       style="fill:url(#radialGradient4229);fill-opacity:1;stroke:none"
       sodipodi:type="arc" />
    <path
       sodipodi:type="arc"
       style="fill:url(#radialGradient4231);fill-opacity:1;stroke:none"
       id="path4227"
       sodipodi:cx="156.51343"
       sodipodi:cy="6.8565135"
       sodipodi:rx="27.66522"
       sodipodi:ry="27.66522"
       d="m 184.17865,6.8565135 a 27.66522,27.66522 0 1 1 -55.33044,0 27.66522,27.66522 0 1 1 55.33044,0 z"
       transform="matrix(0.04337576,0,0,0.04337576,21.473297,1023.7193)" />
    <path
       sodipodi:type="arc"
       style="fill:url(#linearGradient4247);fill-opacity:1;stroke:none"
       id="path4243"
       sodipodi:cx="156.51343"
       sodipodi:cy="6.8565135"
       sodipodi:rx="27.66522"
       sodipodi:ry="27.66522"
       d="m 184.17865,6.8565135 a 27.66522,27.66522 0 1 1 -55.33044,0 27.66522,27.66522 0 1 1 55.33044,0 z"
       transform="matrix(0.24565124,0,0,0.24565124,37.857904,1032.5333)" />
    <path
       transform="matrix(0.20636753,0,0,0.20636753,44.006332,1032.4036)"
       d="m 184.17865,6.8565135 a 27.66522,27.66522 0 1 1 -55.33044,0 27.66522,27.66522 0 1 1 55.33044,0 z"
       sodipodi:ry="27.66522"
       sodipodi:rx="27.66522"
       sodipodi:cy="6.8565135"
       sodipodi:cx="156.51343"
       id="path4255"
       style="fill:url(#linearGradient4257);fill-opacity:1;stroke:none"
       sodipodi:type="arc" />
    <path
       sodipodi:type="arc"
       style="fill:url(#linearGradient4267);fill-opacity:1;stroke:none"
       id="path4265"
       sodipodi:cx="156.51343"
       sodipodi:cy="6.8565135"
       sodipodi:rx="27.66522"
       sodipodi:ry="27.66522"
       d="m 184.17865,6.8565135 a 27.66522,27.66522 0 1 1 -55.33044,0 27.66522,27.66522 0 1 1 55.33044,0 z"
       transform="matrix(0.20405271,0,0,0.20405271,44.368632,1032.8185)" />
    <path
       sodipodi:type="arc"
       style="opacity:0.2;fill:url(#linearGradient4299);fill-opacity:1;stroke:none"
       id="path4279"
       sodipodi:cx="118.60182"
       sodipodi:cy="-8.7692127"
       sodipodi:rx="62.759064"
       sodipodi:ry="62.759064"
       d="m 181.36089,-8.7692127 a 62.759064,62.759064 0 1 1 -125.518132,0 62.759064,62.759064 0 1 1 125.518132,0 z"
       transform="matrix(0.76482977,0,0,0.76482977,-42.710204,1011.0691)" />
    <path
       transform="matrix(0.65870732,0,0,0.65870732,-30.123888,1010.1385)"
       d="m 181.36089,-8.7692127 a 62.759064,62.759064 0 1 1 -125.518132,0 62.759064,62.759064 0 1 1 125.518132,0 z"
       sodipodi:ry="62.759064"
       sodipodi:rx="62.759064"
       sodipodi:cy="-8.7692127"
       sodipodi:cx="118.60182"
       id="path4305"
       style="opacity:0.2;fill:url(#linearGradient4307);fill-opacity:1;stroke:none"
       sodipodi:type="arc" />
    <path
       sodipodi:type="arc"
       style="opacity:0.2;fill:url(#linearGradient4311);fill-opacity:1;stroke:none"
       id="path4309"
       sodipodi:cx="118.60182"
       sodipodi:cy="-8.7692127"
       sodipodi:rx="62.759064"
       sodipodi:ry="62.759064"
       d="m 181.36089,-8.7692127 a 62.759064,62.759064 0 1 1 -125.518132,0 62.759064,62.759064 0 1 1 125.518132,0 z"
       transform="matrix(0.53625834,0,0,0.53625834,-15.601216,1009.0647)" />
  </g>
</svg>
