<?xml version="1.0" encoding="UTF-8" standalone="no"?>
<svg
   width="64"
   height="64"
   viewBox="0 0 16.933 16.933"
   version="1.1"
   id="svg123"
   sodipodi:docname="vnd.android.package-archive.svg"
   inkscape:version="1.1.2 (0a00cf5339, 2022-02-04, custom)"
   xmlns:inkscape="http://www.inkscape.org/namespaces/inkscape"
   xmlns:sodipodi="http://sodipodi.sourceforge.net/DTD/sodipodi-0.dtd"
   xmlns:xlink="http://www.w3.org/1999/xlink"
   xmlns="http://www.w3.org/2000/svg"
   xmlns:svg="http://www.w3.org/2000/svg">
  <sodipodi:namedview
     id="namedview125"
     pagecolor="#ffffff"
     bordercolor="#666666"
     borderopacity="1.0"
     inkscape:pageshadow="2"
     inkscape:pageopacity="0.0"
     inkscape:pagecheckerboard="0"
     showgrid="false"
     inkscape:zoom="8.0625"
     inkscape:cx="32.496124"
     inkscape:cy="22.573643"
     inkscape:window-width="1366"
     inkscape:window-height="703"
     inkscape:window-x="0"
     inkscape:window-y="37"
     inkscape:window-maximized="1"
     inkscape:current-layer="svg123" />
  <defs
     id="defs47">
    <linearGradient
       id="b"
       x1="7.937"
       x2="7.937"
       y1="15.346"
       y2="16.933"
       gradientUnits="userSpaceOnUse"
       xlink:href="#a" />
    <linearGradient
       id="a">
      <stop
         offset="0"
         id="stop3" />
      <stop
         stop-opacity="0"
         offset="1"
         id="stop5" />
    </linearGradient>
    <linearGradient
       id="d"
       x1="43"
       x2="46.748"
       y1="12"
       y2="8.252"
       gradientUnits="userSpaceOnUse"
       xlink:href="#a" />
    <linearGradient
       id="f"
       x1="5.821"
       x2="5.821"
       y1="1.058"
       gradientUnits="userSpaceOnUse"
       xlink:href="#a" />
    <linearGradient
       id="h"
       x1="13.758"
       x2="15.081"
       y1="10.583"
       y2="10.583"
       gradientUnits="userSpaceOnUse"
       xlink:href="#a" />
    <linearGradient
       id="i"
       x1="3.175"
       x2="1.852"
       y1="8.466"
       y2="8.466"
       gradientUnits="userSpaceOnUse"
       xlink:href="#a" />
    <linearGradient
       id="l"
       x1="7.937"
       x2="7.937"
       y1="15.346"
       y2="16.668"
       gradientUnits="userSpaceOnUse"
       xlink:href="#a" />
    <linearGradient
       id="n"
       x1="43"
       x2="46.004"
       y1="12"
       y2="8.996"
       gradientUnits="userSpaceOnUse"
       xlink:href="#a" />
    <linearGradient
       id="p"
       x1="5.821"
       x2="5.821"
       y1="1.058"
       y2=".265"
       gradientUnits="userSpaceOnUse"
       xlink:href="#a" />
    <linearGradient
       id="r"
       x1="13.758"
       x2="14.816"
       y1="10.583"
       y2="10.583"
       gradientUnits="userSpaceOnUse"
       xlink:href="#a" />
    <linearGradient
       id="s"
       x1="3.175"
       x2="2.117"
       y1="8.466"
       y2="8.466"
       gradientUnits="userSpaceOnUse"
       xlink:href="#a" />
    <linearGradient
       id="v"
       x1="21.039"
       x2="21.039"
       y1="2"
       y2="62"
       gradientTransform="translate(45.221 -.507) scale(.26458)"
       gradientUnits="userSpaceOnUse">
      <stop
         stop-color="#ffae44"
         offset="0"
         id="stop17"
         style="stop-color:#91e109;stop-opacity:1" />
      <stop
         stop-color="#fc772b"
         offset="1"
         id="stop19"
         style="stop-color:#459200;stop-opacity:1" />
    </linearGradient>
    <linearGradient
       id="z"
       x1="10.583"
       x2="6.35"
       y1="3.175"
       y2="3.175"
       gradientTransform="matrix(1 0 0 .66667 45.221 1.169)"
       gradientUnits="userSpaceOnUse"
       xlink:href="#a" />
    <linearGradient
       id="A"
       x1="10.583"
       x2="8.731"
       y1="3.043"
       y2="3.043"
       gradientTransform="matrix(1 0 0 .66667 45.221 1.169)"
       gradientUnits="userSpaceOnUse"
       xlink:href="#a" />
    <linearGradient
       id="D"
       x1="10.583"
       x2="6.35"
       y1="3.175"
       y2="3.175"
       gradientTransform="matrix(1 0 0 .66667 -14.574 54.57)"
       gradientUnits="userSpaceOnUse"
       xlink:href="#a" />
    <linearGradient
       id="E"
       x1="10.583"
       x2="8.724"
       y1="3.043"
       y2="3.043"
       gradientTransform="matrix(1 0 0 .66667 -14.574 54.57)"
       gradientUnits="userSpaceOnUse"
       xlink:href="#a" />
    <linearGradient
       id="G"
       x1="40"
       x2="46"
       y1="17"
       y2="11"
       gradientTransform="translate(45.221 -.507) scale(.26458)"
       gradientUnits="userSpaceOnUse">
      <stop
         stop-color="#fefefe"
         offset="0"
         id="stop26" />
      <stop
         stop-color="#e9e9e9"
         offset="1"
         id="stop28" />
    </linearGradient>
    <radialGradient
       id="c"
       cx="35"
       cy="4"
       r="3.728"
       gradientTransform="matrix(1.696 0 0 1.0731 -24.361 -.292)"
       gradientUnits="userSpaceOnUse"
       xlink:href="#a" />
    <radialGradient
       id="e"
       cx="52"
       cy="22"
       r="5.206"
       gradientTransform="matrix(.96042 0 0 1.3331 2.058 -7.328)"
       gradientUnits="userSpaceOnUse"
       xlink:href="#a" />
    <radialGradient
       id="g"
       cx="3.175"
       cy="1.323"
       r=".794"
       gradientTransform="matrix(0 -1.3333 1.6667 0 .97 5.292)"
       gradientUnits="userSpaceOnUse"
       xlink:href="#a" />
    <radialGradient
       id="j"
       cx="13.758"
       cy="15.346"
       r=".794"
       gradientTransform="matrix(0 2 -1.6667 0 39.334 -12.171)"
       gradientUnits="userSpaceOnUse"
       xlink:href="#a" />
    <radialGradient
       id="k"
       cx="3.175"
       cy="15.346"
       r=".794"
       gradientTransform="matrix(-1.6667 0 0 -2 8.466 46.037)"
       gradientUnits="userSpaceOnUse"
       xlink:href="#a" />
    <radialGradient
       id="m"
       cx="35"
       cy="4"
       r="3.728"
       gradientTransform="matrix(1.6115 0 0 .80482 -21.403 .78)"
       gradientUnits="userSpaceOnUse"
       xlink:href="#a" />
    <radialGradient
       id="o"
       cx="52"
       cy="22"
       r="5.206"
       gradientTransform="matrix(.76834 0 0 1.2272 12.047 -4.999)"
       gradientUnits="userSpaceOnUse"
       xlink:href="#a" />
    <radialGradient
       id="q"
       cx="3.175"
       cy="1.323"
       r=".794"
       gradientTransform="matrix(0 -1 1.3333 0 1.411 4.233)"
       gradientUnits="userSpaceOnUse"
       xlink:href="#a" />
    <radialGradient
       id="t"
       cx="13.758"
       cy="15.346"
       r=".794"
       gradientTransform="matrix(0 1.6667 -1.3333 0 34.219 -7.585)"
       gradientUnits="userSpaceOnUse"
       xlink:href="#a" />
    <radialGradient
       id="u"
       cx="3.175"
       cy="15.346"
       r=".794"
       gradientTransform="matrix(-1.3333 0 0 -1.6667 7.408 40.921)"
       gradientUnits="userSpaceOnUse"
       xlink:href="#a" />
    <radialGradient
       id="w"
       cx="40"
       cy="12"
       r="8"
       gradientTransform="matrix(.39687 0 0 -.52916 41.517 10.341)"
       gradientUnits="userSpaceOnUse"
       xlink:href="#a" />
    <radialGradient
       id="x"
       cx="10.583"
       cy="4.233"
       r="2.117"
       gradientTransform="matrix(-2 0 0 -2 76.971 12.457)"
       gradientUnits="userSpaceOnUse"
       xlink:href="#a" />
    <radialGradient
       id="y"
       cx="40"
       cy="12"
       r="8"
       gradientTransform="matrix(0 -.39687 .52916 0 49.455 18.278)"
       gradientUnits="userSpaceOnUse"
       xlink:href="#a" />
    <radialGradient
       id="B"
       cx="10.583"
       cy="4.233"
       r="2.117"
       gradientTransform="matrix(-.875 0 0 -.87849 65.065 7.71)"
       gradientUnits="userSpaceOnUse"
       xlink:href="#a" />
    <radialGradient
       id="C"
       cx="40"
       cy="12"
       r="8"
       gradientTransform="matrix(0 -.34601 .23278 0 53.011 16.244)"
       gradientUnits="userSpaceOnUse"
       xlink:href="#a" />
    <radialGradient
       id="F"
       cx="40"
       cy="12"
       r="8"
       gradientTransform="matrix(.3793 0 0 -.23243 42.22 6.78)"
       gradientUnits="userSpaceOnUse"
       xlink:href="#a" />
  </defs>
  <g
     transform="translate(-45.227 .514)"
     id="g119">
    <g
       opacity=".15"
       id="g69">
      <path
         fill="url(#b)"
         opacity="1"
         d="M3.175 15.346h10.583v1.587H3.175z"
         transform="translate(45.221 -.243)"
         id="path49" />
      <path
         transform="translate(45.221 -.243) scale(.26458)"
         d="M35 0v7l7-7z"
         fill="url(#c)"
         opacity="1"
         id="path51" />
      <path
         transform="translate(45.221 -.243) scale(.26458)"
         d="m42 0-7 7 14 15 9-9V3.545L54.455 0z"
         fill="url(#d)"
         opacity="1"
         id="path53" />
      <path
         transform="translate(45.221 -.243) scale(.26458)"
         d="m58 13-9 9h9z"
         fill="url(#e)"
         opacity="1"
         id="path55" />
      <path
         fill="url(#f)"
         opacity="1"
         d="M3.175 0H9.26v1.058H3.175z"
         transform="translate(45.221 -.243)"
         id="path57" />
      <path
         fill="url(#g)"
         opacity="1"
         d="M1.587 0h1.587v1.058H1.587z"
         transform="translate(45.221 -.243)"
         id="path59" />
      <path
         fill="url(#h)"
         opacity="1"
         d="M13.758 5.821h1.587v9.525h-1.587z"
         transform="translate(45.221 -.243)"
         id="path61" />
      <path
         fill="url(#i)"
         opacity="1"
         d="M1.587 1.058h1.587v14.287H1.587z"
         transform="translate(45.221 -.243)"
         id="path63" />
      <path
         fill="url(#j)"
         opacity="1"
         d="M13.758 15.346h1.587v1.587h-1.587z"
         transform="translate(45.221 -.243)"
         id="path65" />
      <path
         fill="url(#k)"
         opacity="1"
         d="M1.587 15.346h1.587v1.587H1.587z"
         transform="translate(45.221 -.243)"
         id="path67" />
    </g>
    <g
       transform="translate(45.221 -.243)"
       opacity=".25"
       id="g91">
      <path
         fill="url(#l)"
         opacity="1"
         d="M3.175 15.346h10.583v1.587H3.175z"
         id="path71" />
      <path
         transform="scale(.26458)"
         d="M35 0v7l7-7z"
         fill="url(#m)"
         opacity="1"
         id="path73" />
      <path
         transform="scale(.26458)"
         d="m42 0-7 7 14 15 9-9V3.545L54.455 0z"
         fill="url(#n)"
         opacity="1"
         id="path75" />
      <path
         transform="scale(.26458)"
         d="m58 13-9 9h9z"
         fill="url(#o)"
         opacity="1"
         id="path77" />
      <path
         fill="url(#p)"
         opacity="1"
         d="M3.175 0H9.26v1.058H3.175z"
         id="path79" />
      <rect
         x="1.587"
         width="1.587"
         height="1.058"
         ry="0"
         fill="url(#q)"
         opacity="1"
         id="rect81" />
      <path
         fill="url(#r)"
         opacity="1"
         d="M13.758 5.821h1.587v9.525h-1.587z"
         id="path83" />
      <path
         fill="url(#s)"
         opacity="1"
         d="M1.587 1.058h1.587v14.287H1.587z"
         id="path85" />
      <path
         fill="url(#t)"
         opacity="1"
         d="M13.758 15.346h1.587v1.587h-1.587z"
         id="path87" />
      <path
         fill="url(#u)"
         opacity="1"
         d="M1.587 15.346h1.587v1.587H1.587z"
         id="path89" />
    </g>
    <path
       d="M48.132.022a.528.528 0 0 0-.53.53v14.815c0 .293.237.53.53.53h11.112c.293 0 .53-.237.53-.53V5.048c0-.264-.162-.69-.53-1.058L55.804.55a1.325 1.325 0 0 0-1.058-.529z"
       fill="url(#v)"
       id="path93" />
    <path
       d="M57.392 3.99v4.234h2.381V5.049c0-.035-.007-.08-.01-.12-.04-.263-.202-.621-.519-.938z"
       fill="url(#w)"
       opacity=".05"
       id="path95" />
    <path
       fill="none"
       d="M53.942-.785h6.636V5.85h-6.636z"
       id="path97" />
    <rect
       x="51.571"
       y="3.991"
       width="4.233"
       height="4.233"
       ry="0"
       fill="url(#x)"
       opacity=".05"
       id="rect99" />
    <path
       d="M51.571.022v2.381h4.233V.551a1.325 1.325 0 0 0-1.058-.529z"
       fill="url(#y)"
       opacity=".05"
       id="path101" />
    <rect
       x="51.571"
       y="2.403"
       width="4.233"
       height="1.587"
       ry="0"
       fill="url(#z)"
       opacity=".05"
       id="rect103" />
    <rect
       x="52.894"
       y="2.403"
       width="2.91"
       height="1.587"
       ry="0"
       fill="url(#A)"
       opacity=".2"
       id="rect105" />
    <rect
       x="52.894"
       y="3.991"
       width="2.91"
       height="2.91"
       ry="0"
       fill="url(#B)"
       opacity=".2"
       id="rect107" />
    <path
       d="M52.894.022v2.381h2.91V.551a1.4 1.4 0 0 0-.444-.375l-.614-.154z"
       fill="url(#C)"
       opacity=".2"
       id="path109" />
    <rect
       transform="rotate(-90)"
       x="-8.224"
       y="55.804"
       width="4.233"
       height="1.587"
       ry="0"
       fill="url(#D)"
       opacity=".05"
       id="rect111" />
    <rect
       transform="rotate(-90)"
       x="-6.901"
       y="55.804"
       width="2.91"
       height="1.587"
       ry="0"
       fill="url(#E)"
       opacity=".2"
       id="rect113" />
    <path
       d="M57.392 3.99v2.911h2.381V5.05l-.116-.466c-.086-.192-.22-.4-.413-.592z"
       fill="url(#F)"
       opacity=".2"
       id="path115" />
    <path
       d="M55.275.133v3.856c0 .293.236.53.53.53h3.826a2.017 2.017 0 0 0-.382-.53l-3.44-3.44a1.375 1.375 0 0 0-.529-.416z"
       fill="url(#G)"
       id="path117" />
  </g>
  <path
     fill="#ffffff"
     d="m 7.4334754,7.0046674 c 0.303208,-0.1522743 0.6562237,-0.2395637 1.0330247,-0.2395637 0.3768007,0 0.7298165,0.087289 1.0330248,0.2395637 0.00712,-0.01843 0.018121,-0.035708 0.032988,-0.050579 L 10.1172,6.3694012 c 0.05708,-0.057084 0.149634,-0.057084 0.206718,0 0.05708,0.057084 0.05708,0.1496345 0,0.2067181 L 9.7482949,7.1517427 C 10.214533,7.473246 10.512903,7.9663392 10.512903,8.5191649 H 6.4200953 c 0,-0.5528257 0.2983695,-1.0459189 0.7646079,-1.3674222 L 6.6090798,6.5761193 c -0.057084,-0.057084 -0.057084,-0.1496346 0,-0.2067181 0.057084,-0.057084 0.1496346,-0.057084 0.2067182,0 l 0.584687,0.584687 c 0.014871,0.014871 0.025868,0.032149 0.03299,0.050579 z M 8.7588434,12.31963 H 8.1741565 v 1.021817 c 0,0.242951 -0.1968227,0.439901 -0.4385153,0.439901 -0.2421852,0 -0.4385153,-0.195378 -0.4385153,-0.439901 V 12.31963 H 6.711159 c -0.1607501,0 -0.2910637,-0.13112 -0.2910637,-0.293067 V 8.8115087 h 4.0928097 v 3.2150543 c 0,0.161857 -0.13154,0.293067 -0.291064,0.293067 H 9.6358742 v 1.021817 c 0,0.242951 -0.1968228,0.439901 -0.4385151,0.439901 -0.2421857,0 -0.4385157,-0.195378 -0.4385157,-0.439901 z M 5.2507212,9.2489333 c 0,-0.241583 0.1968228,-0.4374246 0.4385153,-0.4374246 0.2421853,0 0.4385153,0.1977594 0.4385153,0.4374246 v 1.7562417 c 0,0.241583 -0.1968228,0.437425 -0.4385153,0.437425 -0.2421852,0 -0.4385153,-0.19776 -0.4385153,-0.437425 z m 5.5545268,0 c 0,-0.241583 0.196823,-0.4374246 0.438515,-0.4374246 0.242185,0 0.438516,0.1977594 0.438516,0.4374246 v 1.7562417 c 0,0.241583 -0.196823,0.437425 -0.438516,0.437425 -0.242185,0 -0.438515,-0.19776 -0.438515,-0.437425 z M 7.5894695,7.9344779 c 0.1614567,0 0.2923435,-0.1308868 0.2923435,-0.2923436 0,-0.1614567 -0.1308868,-0.2923435 -0.2923435,-0.2923435 -0.1614568,0 -0.2923436,0.1308868 -0.2923436,0.2923435 0,0.1614568 0.1308868,0.2923436 0.2923436,0.2923436 z m 1.7540613,0 c 0.1614569,0 0.2923434,-0.1308868 0.2923434,-0.2923436 0,-0.1614567 -0.1308865,-0.2923435 -0.2923434,-0.2923435 -0.1614569,0 -0.2923434,0.1308868 -0.2923434,0.2923435 0,0.1614568 0.1308865,0.2923436 0.2923434,0.2923436 z"
     id="path42"
     style="stroke-width:0.146172" />
</svg>
