<?xml version="1.0" encoding="UTF-8" standalone="no"?>
<svg
   viewBox="0 0 16 16"
   version="1.1"
   id="svg9"
   sodipodi:docname="emblem-shared.svg"
   inkscape:version="1.1.2 (0a00cf5339, 2022-02-04, custom)"
   xmlns:inkscape="http://www.inkscape.org/namespaces/inkscape"
   xmlns:sodipodi="http://sodipodi.sourceforge.net/DTD/sodipodi-0.dtd"
   xmlns="http://www.w3.org/2000/svg"
   xmlns:svg="http://www.w3.org/2000/svg">
  <defs
     id="defs13" />
  <sodipodi:namedview
     id="namedview11"
     pagecolor="#ffffff"
     bordercolor="#666666"
     borderopacity="1.0"
     inkscape:pageshadow="2"
     inkscape:pageopacity="0.0"
     inkscape:pagecheckerboard="0"
     showgrid="false"
     inkscape:zoom="19.891821"
     inkscape:cx="3.7703939"
     inkscape:cy="8.0435069"
     inkscape:window-width="1366"
     inkscape:window-height="703"
     inkscape:window-x="0"
     inkscape:window-y="37"
     inkscape:window-maximized="1"
     inkscape:current-layer="svg9" />
  <style
     type="text/css"
     id="current-color-scheme">
        .ColorScheme-Highlight {
            color:#3daee9;
        }
        .ColorScheme-Text {
            color:#eff0f1;
        }
    </style>
  <g
     transform="matrix(3.3073472,0,0,3.3073472,0.12355184,-963.7829)"
     id="g6">
    <rect
       transform="matrix(0,-1,-1,0,0,0)"
       width="4.2329998"
       height="4.2329998"
       x="-295.94199"
       y="-4.4980001"
       rx="2.1170001"
       ry="2.1170001"
       fill="#673ab7"
       id="rect2" />
    <path
       d="m 2.778,292.767 a 0.397,0.397 0 0 0 -0.397,0.397 c 0,0.03 0.006,0.058 0.013,0.086 l -0.426,0.265 a 0.397,0.397 0 1 0 0,0.62 l 0.426,0.265 a 0.38,0.38 0 0 0 -0.013,0.086 0.397,0.397 0 1 0 0.15,-0.31 l -0.427,-0.264 a 0.38,0.38 0 0 0 0.013,-0.087 0.38,0.38 0 0 0 -0.013,-0.087 l 0.426,-0.264 a 0.397,0.397 0 1 0 0.248,-0.707 z"
       fill="#ffffff"
       id="path4" />
  </g>
</svg>
