<?xml version="1.0" encoding="UTF-8" standalone="no"?>
<svg
   height="16"
   width="16"
   version="1.1"
   id="svg9"
   sodipodi:docname="emblem-readonly.svg"
   inkscape:version="1.1.2 (0a00cf5339, 2022-02-04, custom)"
   xmlns:inkscape="http://www.inkscape.org/namespaces/inkscape"
   xmlns:sodipodi="http://sodipodi.sourceforge.net/DTD/sodipodi-0.dtd"
   xmlns="http://www.w3.org/2000/svg"
   xmlns:svg="http://www.w3.org/2000/svg">
  <defs
     id="defs13" />
  <sodipodi:namedview
     id="namedview11"
     pagecolor="#ffffff"
     bordercolor="#666666"
     borderopacity="1.0"
     inkscape:pageshadow="2"
     inkscape:pageopacity="0.0"
     inkscape:pagecheckerboard="0"
     showgrid="false"
     inkscape:zoom="21.004866"
     inkscape:cx="5.2844897"
     inkscape:cy="8.4742268"
     inkscape:window-width="1366"
     inkscape:window-height="703"
     inkscape:window-x="0"
     inkscape:window-y="37"
     inkscape:window-maximized="1"
     inkscape:current-layer="svg9" />
  <style
     type="text/css"
     id="current-color-scheme">
        .ColorScheme-Text {
            color:#eff0f1;
        }
    </style>
  <path
     style="color:#3daee9;fill:#7f8c8d;fill-opacity:1;stroke:none"
     d="M 8,0.99999978 A 7,7 0 0 0 1.0000001,7.9999998 7,7 0 0 0 7.9999999,15 7,7 0 0 0 15,7.9999998 7,7 0 0 0 8,0.99999978 Z"
     class="ColorScheme-Highlight"
     id="path4" />
  <path
     d="M 8.0000002,4 A 2,2 0 0 0 6.0000001,6 V 8 H 4.6666667 v 4 H 11.333333 V 8 H 10 V 6 A 2,2 0 0 0 8.0000002,4 Z m 0,0.6666666 A 1.3333334,1.3333334 0 0 1 9.3333334,6 V 8 H 6.6666667 V 6 A 1.3333334,1.3333334 0 0 1 8.0000002,4.6666666 Z"
     fill="#ffffff"
     id="path7"
     style="stroke-width:0.666666" />
</svg>
