<?xml version="1.0" encoding="UTF-8" standalone="no"?>
<svg
   height="16"
   width="16"
   version="1.1"
   id="svg9"
   sodipodi:docname="package-reinstall.svg"
   inkscape:version="1.1.2 (0a00cf5339, 2022-02-04, custom)"
   xmlns:inkscape="http://www.inkscape.org/namespaces/inkscape"
   xmlns:sodipodi="http://sodipodi.sourceforge.net/DTD/sodipodi-0.dtd"
   xmlns="http://www.w3.org/2000/svg"
   xmlns:svg="http://www.w3.org/2000/svg">
  <defs
     id="defs13" />
  <sodipodi:namedview
     id="namedview11"
     pagecolor="#ffffff"
     bordercolor="#666666"
     borderopacity="1.0"
     inkscape:pageshadow="2"
     inkscape:pageopacity="0.0"
     inkscape:pagecheckerboard="0"
     showgrid="false"
     inkscape:zoom="18.836219"
     inkscape:cx="4.7249398"
     inkscape:cy="5.4681887"
     inkscape:window-width="1366"
     inkscape:window-height="703"
     inkscape:window-x="0"
     inkscape:window-y="37"
     inkscape:window-maximized="1"
     inkscape:current-layer="svg9" />
  <style
     type="text/css"
     id="current-color-scheme">
        .ColorScheme-Highlight {
            color:#3daee9;
        }
        .ColorScheme-Text {
            color:#eff0f1;
        }
    </style>
  <path
     style="color:#3daee9;fill:currentColor;fill-opacity:1;stroke:none"
     d="M 7.9999996,0.99999994 A 7,7 0 0 0 1.0000004,8 7,7 0 0 0 7.9999996,15 7,7 0 0 0 15,8 7,7 0 0 0 7.9999996,0.99999994 Z"
     class="ColorScheme-Highlight"
     id="path4" />
  <path
     d="M 8.0000002,2 V 3.6666667 A 4.1666667,4.1666667 0 0 0 3.8333335,7.8333333 4.1666667,4.1666667 0 0 0 8.0000002,12 4.1666667,4.1666667 0 0 0 12.166667,7.8333333 H 10.5 a 2.5,2.5 0 0 1 -2.4999998,2.4999997 2.5,2.5 0 0 1 -2.5,-2.4999997 2.5,2.5 0 0 1 2.5,-2.5 V 7 L 11.333334,4.5 Z"
     fill="#ffffff"
     id="path7"
     style="stroke-width:0.833333" />
</svg>
