<?xml version="1.0" encoding="UTF-8" standalone="no"?>
<svg
   height="16"
   width="16"
   version="1.1"
   id="svg9"
   sodipodi:docname="package-available-locked.svg"
   inkscape:version="1.1.2 (0a00cf5339, 2022-02-04, custom)"
   xmlns:inkscape="http://www.inkscape.org/namespaces/inkscape"
   xmlns:sodipodi="http://sodipodi.sourceforge.net/DTD/sodipodi-0.dtd"
   xmlns="http://www.w3.org/2000/svg"
   xmlns:svg="http://www.w3.org/2000/svg">
  <defs
     id="defs13" />
  <sodipodi:namedview
     id="namedview11"
     pagecolor="#ffffff"
     bordercolor="#666666"
     borderopacity="1.0"
     inkscape:pageshadow="2"
     inkscape:pageopacity="0.0"
     inkscape:pagecheckerboard="0"
     showgrid="false"
     inkscape:zoom="32.25"
     inkscape:cx="8"
     inkscape:cy="8"
     inkscape:window-width="1366"
     inkscape:window-height="703"
     inkscape:window-x="0"
     inkscape:window-y="37"
     inkscape:window-maximized="1"
     inkscape:current-layer="svg9" />
  <style
     type="text/css"
     id="current-color-scheme">
        .ColorScheme-NeutralText {
            color:#f67400;
        }
        .ColorScheme-Text {
            color:#eff0f1;
        }
    </style>
  <path
     style="color:#3daee9;fill:#f67400;fill-opacity:1;stroke:none"
     d="m 8,0.9999997 a 7,7 0 0 0 -7,7 A 7,7 0 0 0 8,15 a 7,7 0 0 0 7,-7.0000003 7,7 0 0 0 -7,-7 z"
     class="ColorScheme-Highlight"
     id="path4" />
  <path
     d="M 8,3 A 5,5 0 0 0 3,8 5,5 0 0 0 8,13 5,5 0 0 0 13,8 5,5 0 0 0 8,3 Z M 8,4.6666667 A 3.3333333,3.3333333 0 0 1 11.333333,8 3.3333333,3.3333333 0 0 1 10.867838,9.6894533 L 6.3105468,5.1321615 A 3.3333333,3.3333333 0 0 1 8,4.6666667 Z M 5.1321615,6.3105468 9.6894533,10.867838 A 3.3333333,3.3333333 0 0 1 8,11.333333 3.3333333,3.3333333 0 0 1 4.6666667,8 3.3333333,3.3333333 0 0 1 5.1321615,6.3105468 Z"
     fill="#ffffff"
     id="path7"
     style="stroke-width:0.833333" />
</svg>
