<?xml version="1.0" encoding="UTF-8" standalone="no"?>
<svg
   height="16"
   width="16"
   version="1.1"
   id="svg9"
   sodipodi:docname="package-installed-outdated.svg"
   inkscape:version="1.1.2 (0a00cf5339, 2022-02-04, custom)"
   xmlns:inkscape="http://www.inkscape.org/namespaces/inkscape"
   xmlns:sodipodi="http://sodipodi.sourceforge.net/DTD/sodipodi-0.dtd"
   xmlns="http://www.w3.org/2000/svg"
   xmlns:svg="http://www.w3.org/2000/svg">
  <defs
     id="defs13" />
  <sodipodi:namedview
     id="namedview11"
     pagecolor="#ffffff"
     bordercolor="#666666"
     borderopacity="1.0"
     inkscape:pageshadow="2"
     inkscape:pageopacity="0.0"
     inkscape:pagecheckerboard="0"
     showgrid="false"
     inkscape:zoom="19.621774"
     inkscape:cx="3.6184292"
     inkscape:cy="7.6445687"
     inkscape:window-width="1366"
     inkscape:window-height="703"
     inkscape:window-x="0"
     inkscape:window-y="37"
     inkscape:window-maximized="1"
     inkscape:current-layer="svg9" />
  <style
     type="text/css"
     id="current-color-scheme">
        .ColorScheme-NeutralText {
            color:#f67400;
        }
        .ColorScheme-Text {
            color:#eff0f1;
        }
    </style>
  <path
     style="color:#3daee9;fill:#f67400;fill-opacity:1;stroke:none"
     d="M 7.9999999,1.0000001 A 7,7 0 0 0 1,8.0000001 7,7 0 0 0 7.9999999,15 7,7 0 0 0 15,8.0000001 a 7,7 0 0 0 -7.0000001,-7 z"
     class="ColorScheme-Highlight"
     id="path4" />
  <path
     d="M 8,3 A 5,5 0 0 0 3,8 5,5 0 0 0 8,13 5,5 0 0 0 13,8 5,5 0 0 0 8,3 Z M 8,4.6666667 A 3.3333333,3.3333333 0 0 1 11.333333,8 3.3333333,3.3333333 0 0 1 8,11.333333 3.3333333,3.3333333 0 0 1 4.6666667,8 a 3.3333333,3.3333333 0 0 1 2.5,-3.2242838 V 8.8333333 H 10.5 V 8 H 8 Z"
     fill="#ffffff"
     id="path7"
     style="stroke-width:0.833333" />
</svg>
