<?xml version="1.0" encoding="UTF-8" standalone="no"?>
<svg
   height="16"
   width="16"
   version="1.1"
   id="svg17"
   sodipodi:docname="package-upgrade-auto.svg"
   inkscape:version="1.1.2 (0a00cf5339, 2022-02-04, custom)"
   xmlns:inkscape="http://www.inkscape.org/namespaces/inkscape"
   xmlns:sodipodi="http://sodipodi.sourceforge.net/DTD/sodipodi-0.dtd"
   xmlns="http://www.w3.org/2000/svg"
   xmlns:svg="http://www.w3.org/2000/svg">
  <defs
     id="defs21" />
  <sodipodi:namedview
     id="namedview19"
     pagecolor="#ffffff"
     bordercolor="#666666"
     borderopacity="1.0"
     inkscape:pageshadow="2"
     inkscape:pageopacity="0.0"
     inkscape:pagecheckerboard="0"
     showgrid="false"
     inkscape:zoom="11.371477"
     inkscape:cx="2.0226044"
     inkscape:cy="10.200962"
     inkscape:window-width="1366"
     inkscape:window-height="703"
     inkscape:window-x="0"
     inkscape:window-y="37"
     inkscape:window-maximized="1"
     inkscape:current-layer="svg17" />
  <style
     type="text/css"
     id="current-color-scheme">
        .ColorScheme-Highlight {
            color:#3daee9;
        }
        .ColorScheme-Text {
            color:#eff0f1;
        }
    </style>
  <g
     id="g1091">
    <path
       style="color:#3daee9;fill:currentColor;fill-opacity:1;stroke:none"
       d="M 7.9999991,1.0000001 A 7,7 0 0 0 0.9999999,7.9999998 7,7 0 0 0 7.9999991,15 7,7 0 0 0 15,7.9999998 7,7 0 0 0 7.9999991,1.0000001 Z"
       class="ColorScheme-Highlight"
       id="path4" />
    <path
       d="M 8.0000002,4.9108334 2.9999998,9.9108336 4.1783331,11.089167 8.0000002,7.2675006 11.821667,11.089167 13,9.9108336 Z"
       fill="#ffffff"
       id="path7"
       style="stroke-width:0.833333" />
  </g>
  <g
     fill="#fff"
     id="g15">
    <path
       d="m15 14a1 1 0 0 1 -1 1 1 1 0 0 1 -1-1 1 1 0 0 1 1-1 1 1 0 0 1 1 1z"
       id="path9" />
    <path
       d="m9 14a1 1 0 0 1 -1 1 1 1 0 0 1 -1-1 1 1 0 0 1 1-1 1 1 0 0 1 1 1z"
       id="path11" />
    <path
       d="m12 14a1 1 0 0 1 -1 1 1 1 0 0 1 -1-1 1 1 0 0 1 1-1 1 1 0 0 1 1 1z"
       id="path13" />
  </g>
</svg>
