<?xml version="1.0" encoding="UTF-8" standalone="no"?>
<svg
   height="16"
   width="16"
   version="1.1"
   id="svg17"
   sodipodi:docname="package-remove-auto.svg"
   inkscape:version="1.1.2 (0a00cf5339, 2022-02-04, custom)"
   xmlns:inkscape="http://www.inkscape.org/namespaces/inkscape"
   xmlns:sodipodi="http://sodipodi.sourceforge.net/DTD/sodipodi-0.dtd"
   xmlns="http://www.w3.org/2000/svg"
   xmlns:svg="http://www.w3.org/2000/svg">
  <defs
     id="defs21" />
  <sodipodi:namedview
     id="namedview19"
     pagecolor="#ffffff"
     bordercolor="#666666"
     borderopacity="1.0"
     inkscape:pageshadow="2"
     inkscape:pageopacity="0.0"
     inkscape:pagecheckerboard="0"
     showgrid="false"
     inkscape:zoom="15.831342"
     inkscape:cx="3.6636187"
     inkscape:cy="4.4847747"
     inkscape:window-width="1366"
     inkscape:window-height="703"
     inkscape:window-x="0"
     inkscape:window-y="37"
     inkscape:window-maximized="1"
     inkscape:current-layer="g15" />
  <style
     type="text/css"
     id="current-color-scheme">
        .ColorScheme-NegativeText {
            color:#da4453;
        }
        .ColorScheme-Text {
            color:#eff0f1;
        }
    </style>
  <path
     style="color:#3daee9;fill:#da4453;fill-opacity:1;stroke:none"
     d="m 8.0000001,1.0000001 a 7,7 0 0 0 -7.0000002,7 A 7,7 0 0 0 8.0000001,15 7,7 0 0 0 15,8.0000001 a 7,7 0 0 0 -6.9999999,-7 z"
     class="ColorScheme-Highlight"
     id="path4" />
  <g
     fill="#fff"
     id="g15">
    <path
       d="M 3,7.1666666 V 8.8333334 H 13 V 7.1666666 Z"
       id="path7"
       style="stroke-width:0.833333" />
    <g
       id="g3780">
      <path
         d="m15 14a1 1 0 0 1 -1 1 1 1 0 0 1 -1-1 1 1 0 0 1 1-1 1 1 0 0 1 1 1z"
         id="path9" />
      <path
         d="m9 14a1 1 0 0 1 -1 1 1 1 0 0 1 -1-1 1 1 0 0 1 1-1 1 1 0 0 1 1 1z"
         id="path11" />
      <path
         d="m12 14a1 1 0 0 1 -1 1 1 1 0 0 1 -1-1 1 1 0 0 1 1-1 1 1 0 0 1 1 1z"
         id="path13" />
    </g>
  </g>
</svg>
