<?xml version="1.0" encoding="UTF-8" standalone="no"?>
<svg
   width="22"
   height="22"
   version="1.1"
   id="svg7"
   sodipodi:docname="folder-remote.svg"
   inkscape:version="1.1.2 (0a00cf5339, 2022-02-04, custom)"
   xmlns:inkscape="http://www.inkscape.org/namespaces/inkscape"
   xmlns:sodipodi="http://sodipodi.sourceforge.net/DTD/sodipodi-0.dtd"
   xmlns="http://www.w3.org/2000/svg"
   xmlns:svg="http://www.w3.org/2000/svg">
  <sodipodi:namedview
     id="namedview9"
     pagecolor="#ffffff"
     bordercolor="#666666"
     borderopacity="1.0"
     inkscape:pageshadow="2"
     inkscape:pageopacity="0.0"
     inkscape:pagecheckerboard="0"
     showgrid="false"
     inkscape:zoom="23.454545"
     inkscape:cx="11"
     inkscape:cy="11"
     inkscape:window-width="1366"
     inkscape:window-height="703"
     inkscape:window-x="0"
     inkscape:window-y="37"
     inkscape:window-maximized="1"
     inkscape:current-layer="svg7" />
  <defs
     id="defs3">
    <style
       id="current-color-scheme"
       type="text/css">.ColorScheme-Text { color:#dedede; }</style>
  </defs>
  <path
     d="m 5.0000002,2.9999999 c -1.108,0 -2,0.892 -2,2 V 15 c 0,1.108 0.892,2 2,2 H 10.5 v 1 H 3.0000002 v 1 H 19 V 18 H 11.5 V 17 H 17 c 1.108,0 2,-0.892 2,-2 V 6.9999999 c 0,-1.108 -0.892,-2 -2,-2 h -6 l -2.0000002,-2 z m 0,1 h 3.5858995 l 1.4961003,1.5039 -1.4961003,1.4961 H 4.0000002 v -2 c 0,-0.554 0.446,-1 1,-1 z m 5.9999998,2 h 6 c 0.554,0 1,0.446 1,1 V 15 c 0,0.554 -0.446,1 -1,1 H 5.0000002 c -0.554,0 -1,-0.446 -1,-1 V 7.9999999 h 4.9999996 z"
     fill="#dedede"
     id="path5-3" />
</svg>
