<?xml version="1.0" encoding="UTF-8" standalone="no"?>
<svg
   width="22"
   height="22"
   version="1.1"
   id="svg9"
   sodipodi:docname="network-workgroup.svg"
   inkscape:version="1.1.2 (0a00cf5339, 2022-02-04, custom)"
   xmlns:inkscape="http://www.inkscape.org/namespaces/inkscape"
   xmlns:sodipodi="http://sodipodi.sourceforge.net/DTD/sodipodi-0.dtd"
   xmlns="http://www.w3.org/2000/svg"
   xmlns:svg="http://www.w3.org/2000/svg">
  <sodipodi:namedview
     id="namedview11"
     pagecolor="#ffffff"
     bordercolor="#666666"
     borderopacity="1.0"
     inkscape:pageshadow="2"
     inkscape:pageopacity="0.0"
     inkscape:pagecheckerboard="0"
     showgrid="false"
     inkscape:zoom="10.570845"
     inkscape:cx="10.122181"
     inkscape:cy="10.50058"
     inkscape:window-width="1366"
     inkscape:window-height="703"
     inkscape:window-x="0"
     inkscape:window-y="37"
     inkscape:window-maximized="1"
     inkscape:current-layer="svg9" />
  <defs
     id="defs3">
    <style
       id="current-color-scheme"
       type="text/css">.ColorScheme-Text { color:#dedede; }</style>
  </defs>
  <path
     d="M 9.5000002,10.999998 H 12.5 v 1 H 9.5000002 Z m 0,-2.0000005 H 12.5 V 9.9999976 H 9.5000002 Z m 0,-4 H 12.5 v 1 H 9.5000002 Z M 17.5,17.999998 h -3 v 1 H 7.5000002 v -1 h -3 v -1 h 3 v -1 h 2 v -1 H 10.5 v -1 H 7.5000002 V 3.9999975 q 0,-0.21094 0.07813,-0.39062 0.07813,-0.17968 0.21094,-0.3125 0.14062,-0.14062 0.32031,-0.21875 0.17969,-0.07813 0.39062,-0.078125 H 13.5 q 0.21094,0 0.39062,0.078125 0.17969,0.078125 0.3125,0.21875 0.14062,0.13281 0.21875,0.3125 Q 14.5,3.7890675 14.5,3.9999975 V 13.999998 h -3 v 1 h 1 v 1 h 2 v 1 h 3 z m -4,-5 V 3.9999975 H 8.5000002 v 9.0000005 z m 0,4 h -2 v -1 h -1 v 1 H 8.5000002 v 1 H 13.5 Z"
     stroke-width="2"
     id="path5-3"
     style="fill:#dedede;fill-opacity:1;paint-order:stroke fill markers" />
</svg>
