<?xml version="1.0" encoding="UTF-8" standalone="no"?>
<svg
   width="24"
   height="24"
   version="1.1"
   id="svg7"
   sodipodi:docname="folder-remote.svg"
   inkscape:version="1.1.2 (0a00cf5339, 2022-02-04, custom)"
   xmlns:inkscape="http://www.inkscape.org/namespaces/inkscape"
   xmlns:sodipodi="http://sodipodi.sourceforge.net/DTD/sodipodi-0.dtd"
   xmlns="http://www.w3.org/2000/svg"
   xmlns:svg="http://www.w3.org/2000/svg">
  <sodipodi:namedview
     id="namedview9"
     pagecolor="#ffffff"
     bordercolor="#666666"
     borderopacity="1.0"
     inkscape:pageshadow="2"
     inkscape:pageopacity="0.0"
     inkscape:pagecheckerboard="0"
     showgrid="false"
     inkscape:zoom="21.5"
     inkscape:cx="12.511628"
     inkscape:cy="10.604651"
     inkscape:window-width="1366"
     inkscape:window-height="703"
     inkscape:window-x="0"
     inkscape:window-y="37"
     inkscape:window-maximized="1"
     inkscape:current-layer="svg7" />
  <defs
     id="defs3">
    <style
       id="current-color-scheme"
       type="text/css">.ColorScheme-Text { color:#dedede; }</style>
  </defs>
  <path
     d="m 5.9998003,4 c -1.108,0 -2,0.892 -2,2 v 10 c 0,1.108 0.892,2 2,2 H 11.4998 v 1 H 3.9998003 v 1 H 19.9998 v -1 h -7.5 v -1 h 5.5 c 1.108,0 2,-0.892 2,-2 V 8 c 0,-1.108 -0.892,-2 -2,-2 h -6 l -2,-2 z m 0,1 H 9.5857 L 11.0818,6.5039 9.5857,8 H 4.9998003 V 6 c 0,-0.554 0.446,-1 1,-1 z M 11.9998,7 h 6 c 0.554,0 1,0.446 1,1 v 8 c 0,0.554 -0.446,1 -1,1 H 5.9998003 c -0.554,0 -1,-0.446 -1,-1 V 9 H 9.9998 Z"
     fill="#dedede"
     id="path5-36" />
</svg>
