<?xml version="1.0" encoding="UTF-8" standalone="no"?>
<svg
   width="24"
   height="24"
   version="1.1"
   id="svg7"
   sodipodi:docname="network-workgroup.svg"
   inkscape:version="1.1.2 (0a00cf5339, 2022-02-04, custom)"
   xmlns:inkscape="http://www.inkscape.org/namespaces/inkscape"
   xmlns:sodipodi="http://sodipodi.sourceforge.net/DTD/sodipodi-0.dtd"
   xmlns="http://www.w3.org/2000/svg"
   xmlns:svg="http://www.w3.org/2000/svg">
  <sodipodi:namedview
     id="namedview9"
     pagecolor="#ffffff"
     bordercolor="#666666"
     borderopacity="1.0"
     inkscape:pageshadow="2"
     inkscape:pageopacity="0.0"
     inkscape:pagecheckerboard="0"
     showgrid="false"
     inkscape:zoom="10.383615"
     inkscape:cx="10.593613"
     inkscape:cy="11.556669"
     inkscape:window-width="1366"
     inkscape:window-height="703"
     inkscape:window-x="0"
     inkscape:window-y="37"
     inkscape:window-maximized="1"
     inkscape:current-layer="svg7" />
  <defs
     id="defs3">
    <style
       id="current-color-scheme"
       type="text/css">.ColorScheme-Text { color:#dedede; }</style>
  </defs>
  <path
     d="m 10.5,11.999998 h 3 v 1 h -3 z m 0,-2.0000002 h 3 v 1.0000002 h -3 z m 0,-4.0000005 h 3 v 1 h -3 z m 8,13.0000007 h -3 v 1 H 8.5000001 v -1 h -3 v -1 h 3 v -1 H 10.5 v -1 h 1 v -1 H 8.5000001 V 4.9999973 q 0,-0.21094 0.07813,-0.39062 0.07813,-0.17968 0.2109399,-0.3125 0.14062,-0.14062 0.3203099,-0.21875 Q 9.28907,3.9999973 9.5,4.0000023 h 5 q 0.21094,0 0.39062,0.078125 0.17969,0.078125 0.3125,0.21875 0.14062,0.13281 0.21875,0.3125 Q 15.5,4.7890673 15.5,4.9999973 V 14.999998 h -3 v 1 h 1 v 1 h 2 v 1 h 3 z m -4,-5 V 4.9999973 h -5 v 9.0000007 z m 0,4 h -2 v -1 h -1 v 1 h -2 v 1 h 5 z"
     stroke-width="2"
     id="path5-3"
     style="fill:#dedede;fill-opacity:1;paint-order:stroke fill markers" />
</svg>
