<?xml version="1.0" encoding="UTF-8" standalone="no"?>
<svg
   width="16"
   height="16"
   version="1.1"
   id="svg4"
   sodipodi:docname="notifications-applet-symbolic.svg"
   inkscape:version="1.1.2 (0a00cf5339, 2022-02-04, custom)"
   xmlns:inkscape="http://www.inkscape.org/namespaces/inkscape"
   xmlns:sodipodi="http://sodipodi.sourceforge.net/DTD/sodipodi-0.dtd"
   xmlns="http://www.w3.org/2000/svg"
   xmlns:svg="http://www.w3.org/2000/svg">
  <defs
     id="defs8" />
  <sodipodi:namedview
     id="namedview6"
     pagecolor="#ffffff"
     bordercolor="#666666"
     borderopacity="1.0"
     inkscape:pageshadow="2"
     inkscape:pageopacity="0.0"
     inkscape:pagecheckerboard="0"
     showgrid="false"
     inkscape:zoom="32.25"
     inkscape:cx="8"
     inkscape:cy="8"
     inkscape:window-width="1366"
     inkscape:window-height="703"
     inkscape:window-x="0"
     inkscape:window-y="37"
     inkscape:window-maximized="1"
     inkscape:current-layer="svg4" />
  <path
     style="fill:#dfdfdf;fill-opacity:1"
     d="M 8,1 C 8.55,1 9,1.45 9,2 9,2.03 9,2.07 8.99,2.1 11.28,2.56 13,4.57 13,7 V 9 11.5 L 15,13.5 V 14 H 13 3 1 V 13.5 L 3,11.5 V 7 C 3,4.57 4.72,2.56 7.01,2.1 7,2.07 7,2.03 7,2 7,1.45 7.45,1 8,1 Z M 9.73,15 C 9.37,15.62 8.71,16 8,16 7.29,16 6.63,15.62 6.27,15 Z"
     id="path2" />
</svg>
