<?xml version="1.0" encoding="UTF-8" standalone="no"?>
<svg
   width="16.011"
   height="16"
   version="1.1"
   id="svg22"
   sodipodi:docname="speedometer-symbolic.svg"
   inkscape:version="1.1.2 (0a00cf5339, 2022-02-04, custom)"
   xmlns:inkscape="http://www.inkscape.org/namespaces/inkscape"
   xmlns:sodipodi="http://sodipodi.sourceforge.net/DTD/sodipodi-0.dtd"
   xmlns="http://www.w3.org/2000/svg"
   xmlns:svg="http://www.w3.org/2000/svg">
  <defs
     id="defs26" />
  <sodipodi:namedview
     id="namedview24"
     pagecolor="#ffffff"
     bordercolor="#666666"
     borderopacity="1.0"
     inkscape:pageshadow="2"
     inkscape:pageopacity="0.0"
     inkscape:pagecheckerboard="0"
     showgrid="false"
     inkscape:zoom="32.25"
     inkscape:cx="8"
     inkscape:cy="8"
     inkscape:window-width="1366"
     inkscape:window-height="703"
     inkscape:window-x="0"
     inkscape:window-y="37"
     inkscape:window-maximized="1"
     inkscape:current-layer="svg22" />
  <path
     d="m5.1777 5.6719c-0.12781 0-0.25558 0.04855-0.35352 0.14648-0.19587 0.19587-0.19587 0.51116 0 0.70703l2.4746 2.4746h1.4141l-3.1816-3.1816c-0.097934-0.097934-0.22571-0.14648-0.35352-0.14648z"
     fill="#333333"
     style="paint-order:stroke fill markers;fill:#dfdfdf;fill-opacity:1"
     id="path2" />
  <path
     d="m8 1a8 8 0 0 0-8 8 8 8 0 0 0 3.3496 6.5098l0.58203-0.81445a7 7 0 0 1-2.9316-5.6953 7 7 0 0 1 6.9062-7 7 7 0 0 1 0.09375 0 7 7 0 0 1 7 7 7 7 0 0 1-2.9316 5.6973l0.58008 0.8125a8 8 0 0 0 3.3516-6.5098 8 8 0 0 0-8-8z"
     fill="#333333"
     style="paint-order:stroke fill markers;fill:#dfdfdf;fill-opacity:1"
     id="path4" />
  <circle
     cx="8"
     cy="9"
     r="1"
     fill="#333333"
     style="paint-order:stroke fill markers;fill:#dfdfdf;fill-opacity:1"
     id="circle6" />
  <rect
     x="7.5055"
     y="1.5261"
     width="1"
     height="1.4739"
     rx="0"
     ry="0"
     fill="#333333"
     style="paint-order:stroke fill markers;fill:#dfdfdf;fill-opacity:1"
     id="rect8" />
  <rect
     transform="rotate(45)"
     x="11.525"
     y="-6.7707"
     width="1"
     height="1.4739"
     rx="0"
     ry="0"
     fill="#333333"
     style="paint-order:stroke fill markers;fill:#dfdfdf;fill-opacity:1"
     id="rect10" />
  <rect
     transform="rotate(45)"
     x="11.525"
     y="6.7032"
     width="1"
     height="1.4739"
     rx="0"
     ry="0"
     fill="#333333"
     style="paint-order:stroke fill markers;fill:#dfdfdf;fill-opacity:1"
     id="rect12" />
  <rect
     transform="rotate(90)"
     x="8.5"
     y="-15.479"
     width="1"
     height="1.4739"
     rx="0"
     ry="0"
     fill="#333333"
     style="paint-order:stroke fill markers;fill:#dfdfdf;fill-opacity:1"
     id="rect14" />
  <rect
     transform="rotate(90)"
     x="8.5"
     y="-2.0055"
     width="1"
     height="1.4739"
     rx="0"
     ry="0"
     fill="#333333"
     style="paint-order:stroke fill markers;fill:#dfdfdf;fill-opacity:1"
     id="rect16" />
  <rect
     transform="rotate(135)"
     x=".20322"
     y="-19.499"
     width="1"
     height="1.4739"
     rx="0"
     ry="0"
     fill="#333333"
     style="paint-order:stroke fill markers;fill:#dfdfdf;fill-opacity:1"
     id="rect18" />
  <rect
     transform="rotate(135)"
     x=".20322"
     y="-6.0247"
     width="1"
     height="1.4739"
     rx="0"
     ry="0"
     fill="#333333"
     style="paint-order:stroke fill markers;fill:#dfdfdf;fill-opacity:1"
     id="rect20" />
</svg>
