<?xml version="1.0" encoding="UTF-8" standalone="no"?>
<svg
   width="16"
   height="16"
   version="1.1"
   id="svg10"
   sodipodi:docname="task-list-symbolic.svg"
   inkscape:version="1.1.2 (0a00cf5339, 2022-02-04, custom)"
   xmlns:inkscape="http://www.inkscape.org/namespaces/inkscape"
   xmlns:sodipodi="http://sodipodi.sourceforge.net/DTD/sodipodi-0.dtd"
   xmlns="http://www.w3.org/2000/svg"
   xmlns:svg="http://www.w3.org/2000/svg">
  <defs
     id="defs14" />
  <sodipodi:namedview
     id="namedview12"
     pagecolor="#ffffff"
     bordercolor="#666666"
     borderopacity="1.0"
     inkscape:pageshadow="2"
     inkscape:pageopacity="0.0"
     inkscape:pagecheckerboard="0"
     showgrid="false"
     inkscape:zoom="32.25"
     inkscape:cx="8"
     inkscape:cy="14.325581"
     inkscape:window-width="1366"
     inkscape:window-height="703"
     inkscape:window-x="0"
     inkscape:window-y="37"
     inkscape:window-maximized="1"
     inkscape:current-layer="svg10" />
  <path
     style="fill:#dfdfdf;fill-opacity:1"
     d="M 8,10 H 14 V 12 H 8 Z"
     id="path2" />
  <path
     style="fill:#dfdfdf;fill-opacity:1"
     d="M 8,4 H 14 V 6 H 8 Z"
     id="path4" />
  <path
     style="fill:#dfdfdf;fill-opacity:1"
     d="M 2.25,3 H 5.75 C 5.8885,3 6,3.1115 6,3.25 V 6.75 C 6,6.8885 5.8885,7 5.75,7 H 2.25 C 2.1115,7 2,6.8885 2,6.75 V 3.25 C 2,3.1115 2.1115,3 2.25,3 Z"
     id="path6" />
  <path
     style="fill:#dfdfdf;fill-opacity:1"
     d="M 2.25,9 H 5.75 C 5.8885,9 6,9.1115 6,9.25 V 12.75 C 6,12.889 5.8885,13 5.75,13 H 2.25 C 2.1115,13 2,12.889 2,12.75 V 9.25 C 2,9.1115 2.1115,9 2.25,9 Z"
     id="path8" />
</svg>
