<?xml version="1.0" encoding="UTF-8" standalone="no"?>
<svg
   width="16"
   height="16"
   version="1.1"
   id="svg4"
   sodipodi:docname="workspace-switcher-symbolic.svg"
   inkscape:version="1.1.2 (0a00cf5339, 2022-02-04, custom)"
   xmlns:inkscape="http://www.inkscape.org/namespaces/inkscape"
   xmlns:sodipodi="http://sodipodi.sourceforge.net/DTD/sodipodi-0.dtd"
   xmlns="http://www.w3.org/2000/svg"
   xmlns:svg="http://www.w3.org/2000/svg">
  <defs
     id="defs8" />
  <sodipodi:namedview
     id="namedview6"
     pagecolor="#ffffff"
     bordercolor="#666666"
     borderopacity="1.0"
     inkscape:pageshadow="2"
     inkscape:pageopacity="0.0"
     inkscape:pagecheckerboard="0"
     showgrid="false"
     inkscape:zoom="32.25"
     inkscape:cx="8"
     inkscape:cy="13.581395"
     inkscape:window-width="1366"
     inkscape:window-height="703"
     inkscape:window-x="0"
     inkscape:window-y="37"
     inkscape:window-maximized="1"
     inkscape:current-layer="svg4" />
  <path
     style="fill:#dfdfdf;fill-opacity:1"
     d="M 1 2 C 0.446 2 0 2.446 0 3 L 0 9 C 0 9.554 0.446 10 1 10 L 9 10 C 9.554 10 10 9.554 10 9 L 10 3 C 10 2.446 9.554 2 9 2 L 1 2 z M 2 4 L 8 4 L 8 8 L 2 8 L 2 4 z M 11 4 L 11 9 C 11 10.090703 10.090703 11 9 11 L 3 11 L 3 13.5 C 3 14.331 3.669 15 4.5 15 L 14.5 15 C 15.331 15 16 14.331 16 13.5 L 16 5.5 C 16 4.669 15.331 4 14.5 4 L 11 4 z"
     id="path2" />
</svg>
