<?xml version="1.0" encoding="UTF-8" standalone="no"?>
<svg
   width="16"
   height="16"
   version="1.1"
   id="svg16"
   sodipodi:docname="view-tasks-week-symbolic.svg"
   inkscape:version="1.1.2 (0a00cf5339, 2022-02-04, custom)"
   xmlns:inkscape="http://www.inkscape.org/namespaces/inkscape"
   xmlns:sodipodi="http://sodipodi.sourceforge.net/DTD/sodipodi-0.dtd"
   xmlns="http://www.w3.org/2000/svg"
   xmlns:svg="http://www.w3.org/2000/svg"
   xmlns:rdf="http://www.w3.org/1999/02/22-rdf-syntax-ns#"
   xmlns:cc="http://creativecommons.org/ns#"
   xmlns:dc="http://purl.org/dc/elements/1.1/">
  <defs
     id="defs20" />
  <sodipodi:namedview
     id="namedview18"
     pagecolor="#ffffff"
     bordercolor="#666666"
     borderopacity="1.0"
     inkscape:pageshadow="2"
     inkscape:pageopacity="0.0"
     inkscape:pagecheckerboard="0"
     showgrid="false"
     inkscape:zoom="32.25"
     inkscape:cx="8"
     inkscape:cy="8"
     inkscape:window-width="1366"
     inkscape:window-height="703"
     inkscape:window-x="0"
     inkscape:window-y="37"
     inkscape:window-maximized="1"
     inkscape:current-layer="svg16" />
  <metadata
     id="metadata2">
    <rdf:RDF>
      <cc:Work
         rdf:about="">
        <dc:format>image/svg+xml</dc:format>
        <dc:type
           rdf:resource="http://purl.org/dc/dcmitype/StillImage" />
        <dc:title>Gnome Symbolic Icon Theme</dc:title>
      </cc:Work>
    </rdf:RDF>
  </metadata>
  <title
     id="title4">Gnome Symbolic Icon Theme</title>
  <g
     fill="#333"
     stroke-linecap="round"
     stroke-linejoin="round"
     id="g14"
     style="fill:#ffffff">
    <path
       d="m2 2c-1.108 0-2 0.892-2 2v9c0 1.108 0.892 2 2 2h12c1.108 0 2-0.892 2-2v-9c0-1.108-0.892-2-2-2zm0 1h12c0.554 0 1 0.446 1 1v9c0 0.554-0.446 1-1 1h-12c-0.554 0-1-0.446-1-1v-9c0-0.554 0.446-1 1-1z"
       style="paint-order:stroke fill markers;fill:#ffffff"
       id="path6" />
    <rect
       x="3"
       y="1"
       width="2"
       height="2"
       ry=".5"
       stroke-width=".70711"
       style="paint-order:stroke fill markers;fill:#ffffff"
       id="rect8" />
    <rect
       x="11"
       y="1"
       width="2"
       height="2"
       ry=".5"
       stroke-width=".70711"
       style="paint-order:stroke fill markers;fill:#ffffff"
       id="rect10" />
    <rect
       x="3"
       y="5"
       width="10"
       height="2"
       rx="1"
       ry="1"
       style="paint-order:stroke fill markers;fill:#ffffff"
       id="rect12" />
  </g>
</svg>
