<?xml version="1.0" encoding="UTF-8" standalone="no"?>
<svg
   width="24"
   height="24"
   version="1.1"
   viewBox="0 0 24 24"
   id="svg2"
   sodipodi:docname="edit-shot-symbolic.svg"
   inkscape:version="1.3 (0e150ed6c4, 2023-07-21)"
   xmlns:inkscape="http://www.inkscape.org/namespaces/inkscape"
   xmlns:sodipodi="http://sodipodi.sourceforge.net/DTD/sodipodi-0.dtd"
   xmlns="http://www.w3.org/2000/svg"
   xmlns:svg="http://www.w3.org/2000/svg">
  <sodipodi:namedview
     id="namedview2"
     pagecolor="#ffffff"
     bordercolor="#000000"
     borderopacity="0.25"
     inkscape:showpageshadow="2"
     inkscape:pageopacity="0.0"
     inkscape:pagecheckerboard="0"
     inkscape:deskcolor="#d1d1d1"
     inkscape:zoom="33.166667"
     inkscape:cx="12"
     inkscape:cy="12"
     inkscape:window-width="1920"
     inkscape:window-height="1015"
     inkscape:window-x="0"
     inkscape:window-y="0"
     inkscape:window-maximized="1"
     inkscape:current-layer="svg2" />
  <defs
     id="defs1">
    <style
       id="current-color-scheme"
       type="text/css">.ColorScheme-Text { color:#363636; } .ColorScheme-Highlight { color:#5294e2; }</style>
  </defs>
  <path
     class="ColorScheme-Text"
     d="m5.9644 5c-1.108 0-2 0.892-2 2v9c0 1.108 0.892 2 2 2h5.9453l0.88867-2.6621 2.752-2.752-1.5859-1.5859-3.4785 4-2.5215-2-3 3v-9c0-0.554 0.446-1 1-1h12c0.554 0 1 0.446 1 1v2.8594l1 1v-3.8594c0-1.108-0.892-2-2-2zm2.5 3c-0.82843 0-1.5 0.67157-1.5 1.5s0.67157 1.5 1.5 1.5 1.5-0.67157 1.5-1.5-0.67157-1.5-1.5-1.5z"
     fill="#363636"
     id="path1"
     style="fill:#f0f0f0;fill-opacity:1" />
  <path
     d="m12.964 18 2.1213-0.70711 3.5355-3.5355-1.4142-1.4142-3.5355 3.5355zm6.364-4.9497 0.70711-0.70711-1.4142-1.4142-0.70711 0.70711z"
     color="#000000"
     fill="#363636"
     stroke-width="2"
     style="-inkscape-stroke:none;fill:#f0f0f0;fill-opacity:1"
     id="path2" />
</svg>
