<?xml version="1.0" encoding="UTF-8" standalone="no"?>
<svg
   width="24"
   height="24"
   version="1.1"
   id="svg1"
   sodipodi:docname="entries-linked-symbolic.svg"
   inkscape:version="1.3 (0e150ed6c4, 2023-07-21)"
   xmlns:inkscape="http://www.inkscape.org/namespaces/inkscape"
   xmlns:sodipodi="http://sodipodi.sourceforge.net/DTD/sodipodi-0.dtd"
   xmlns="http://www.w3.org/2000/svg"
   xmlns:svg="http://www.w3.org/2000/svg">
  <defs
     id="defs1" />
  <sodipodi:namedview
     id="namedview1"
     pagecolor="#ffffff"
     bordercolor="#000000"
     borderopacity="0.25"
     inkscape:showpageshadow="2"
     inkscape:pageopacity="0.0"
     inkscape:pagecheckerboard="0"
     inkscape:deskcolor="#d1d1d1"
     inkscape:zoom="33.166667"
     inkscape:cx="11.984925"
     inkscape:cy="12"
     inkscape:window-width="1920"
     inkscape:window-height="1015"
     inkscape:window-x="0"
     inkscape:window-y="0"
     inkscape:window-maximized="1"
     inkscape:current-layer="svg1" />
  <path
     d="m16.597 4.4051a2.99 2.99 0 0 0-2.121 0.877l-3.092 3.09c0.433-0.028 0.869 0.013 1.29 0.123l2.509-2.506c0.79-0.79 2.038-0.79 2.828 0s0.79 2.039 0 2.828l-4.242 4.243c-0.79 0.79-2.039 0.79-2.829 0a2.011 2.011 0 0 1-0.523-0.891l-0.77 0.77a3.004 3.004 0 0 0 4.828 0.828l4.243-4.243a3.004 3.004 0 0 0 0-4.242 2.99 2.99 0 0 0-2.121-0.877zm-4.95 4.95a2.99 2.99 0 0 0-2.12 0.877l-4.245 4.242a3.006 3.006 0 0 0 0 4.244 3.006 3.006 0 0 0 4.244 0l3.09-3.092a4.063 4.063 0 0 1-1.29-0.123l-2.507 2.508c-0.79 0.79-2.04 0.79-2.83 0s-0.79-2.04 0-2.83l4.244-4.242c0.79-0.79 2.039-0.79 2.829 0 0.258 0.258 0.432 0.567 0.521 0.892l0.771-0.771a2.99 2.99 0 0 0-2.707-1.705z"
     fill="#363636"
     id="path1"
     style="fill:#f0f0f0;fill-opacity:1" />
</svg>
