<?xml version="1.0" encoding="UTF-8" standalone="no"?>
<svg
   width="24"
   height="24"
   version="1.1"
   viewBox="0 0 24 24"
   id="svg1"
   sodipodi:docname="input-keyboard-virtual-show.svg"
   inkscape:version="1.3 (0e150ed6c4, 2023-07-21)"
   xmlns:inkscape="http://www.inkscape.org/namespaces/inkscape"
   xmlns:sodipodi="http://sodipodi.sourceforge.net/DTD/sodipodi-0.dtd"
   xmlns="http://www.w3.org/2000/svg"
   xmlns:svg="http://www.w3.org/2000/svg">
  <defs
     id="defs1" />
  <sodipodi:namedview
     id="namedview1"
     pagecolor="#ffffff"
     bordercolor="#000000"
     borderopacity="0.25"
     inkscape:showpageshadow="2"
     inkscape:pageopacity="0.0"
     inkscape:pagecheckerboard="0"
     inkscape:deskcolor="#d1d1d1"
     inkscape:zoom="33.166667"
     inkscape:cx="11.984925"
     inkscape:cy="12"
     inkscape:window-width="1920"
     inkscape:window-height="1015"
     inkscape:window-x="0"
     inkscape:window-y="0"
     inkscape:window-maximized="1"
     inkscape:current-layer="svg1" />
  <style
     id="current-color-scheme"
     type="text/css">.ColorScheme-Text {&#10;            color:#363636;&#10;        }</style>
  <path
     class="ColorScheme-Text"
     d="m12 3-5 5 0.70703 0.70703 4.293-4.293 4.293 4.293 0.70703-0.70703zm-7 7c-1.108 0-2 0.892-2 2v7c0 1.108 0.892 2 2 2h14c1.108 0 2-0.892 2-2v-7c0-1.108-0.892-2-2-2zm0 1h14c0.554 0 1 0.446 1 1h-16c0-0.554 0.446-1 1-1zm-1 2h16v6c0 0.554-0.446 1-1 1h-14c-0.554 0-1-0.446-1-1zm1 1v1h2v-1zm3 0v1h2v-1zm3 0v1h2v-1zm3 0v1h2v-1zm3 0v1h2v-1zm-12 2v1h2v-1zm3 0v1h2v-1zm3 0v1h2v-1zm3 0v1h2v-1zm3 0v1h2v-1zm-12 2v1h2v-1zm3 0v1h8v-1zm9 0v1h2v-1z"
     fill="currentColor"
     id="path1"
     style="fill:#f0f0f0;fill-opacity:1" />
</svg>
