<?xml version="1.0" encoding="UTF-8" standalone="no"?>
<svg
   width="24"
   height="24"
   version="1.1"
   id="svg1"
   sodipodi:docname="media-playlist-shuffle-symbolic.svg"
   inkscape:version="1.3 (0e150ed6c4, 2023-07-21)"
   xmlns:inkscape="http://www.inkscape.org/namespaces/inkscape"
   xmlns:sodipodi="http://sodipodi.sourceforge.net/DTD/sodipodi-0.dtd"
   xmlns="http://www.w3.org/2000/svg"
   xmlns:svg="http://www.w3.org/2000/svg">
  <defs
     id="defs1" />
  <sodipodi:namedview
     id="namedview1"
     pagecolor="#ffffff"
     bordercolor="#000000"
     borderopacity="0.25"
     inkscape:showpageshadow="2"
     inkscape:pageopacity="0.0"
     inkscape:pagecheckerboard="0"
     inkscape:deskcolor="#d1d1d1"
     inkscape:zoom="33.166667"
     inkscape:cx="12"
     inkscape:cy="12"
     inkscape:window-width="1920"
     inkscape:window-height="1015"
     inkscape:window-x="0"
     inkscape:window-y="0"
     inkscape:window-maximized="1"
     inkscape:current-layer="svg1" />
  <path
     d="m15 5v2h-1c-1.74 0-2.955 0.642-3.756 1.582-0.8 0.94-1.216 2.127-1.594 3.26-0.377 1.133-0.72 2.218-1.246 2.965-0.524 0.747-1.164 1.193-2.404 1.193h-1v1h1c1.511 0 2.559-0.679 3.22-1.62 0.663-0.94 1.007-2.105 1.38-3.222 0.372-1.117 0.77-2.18 1.406-2.928 0.637-0.747 1.484-1.23 2.994-1.23h1.002v2c0.76-0.348 1.534-0.736 2.322-1.166a43.6 43.6 0 0 0 2.258-1.334c-0.725-0.45-1.477-0.89-2.258-1.32a43.074 43.074 0 0 0-2.324-1.18zm-11 2v1h1c1.239 0 1.879 0.446 2.404 1.193 0.256 0.364 0.466 0.81 0.66 1.3 0.151-0.405 0.335-0.814 0.545-1.22a5.886 5.886 0 0 0-0.388-0.654c-0.662-0.939-1.711-1.619-3.221-1.619zm6.21 6.459c-0.139 0.414-0.287 0.823-0.478 1.244 0.153 0.25 0.32 0.49 0.512 0.715 0.8 0.94 2.016 1.582 3.756 1.582h1.002v2c0.76-0.348 1.534-0.736 2.322-1.166a43.6 43.6 0 0 0 2.258-1.334c-0.725-0.45-1.477-0.89-2.258-1.32a43.074 43.074 0 0 0-2.324-1.18v2h-1c-1.51 0-2.357-0.483-2.994-1.23-0.315-0.37-0.571-0.819-0.795-1.311z"
     color="#000000"
     fill="#363636"
     overflow="visible"
     id="path1"
     style="fill:#f0f0f0;fill-opacity:1" />
</svg>
