<?xml version="1.0" encoding="UTF-8" standalone="no"?>
<svg
   width="24"
   height="24"
   version="1.1"
   id="svg2"
   sodipodi:docname="media-playlist-repeat-symbolic.svg"
   inkscape:version="1.3 (0e150ed6c4, 2023-07-21)"
   xmlns:inkscape="http://www.inkscape.org/namespaces/inkscape"
   xmlns:sodipodi="http://sodipodi.sourceforge.net/DTD/sodipodi-0.dtd"
   xmlns="http://www.w3.org/2000/svg"
   xmlns:svg="http://www.w3.org/2000/svg">
  <defs
     id="defs2" />
  <sodipodi:namedview
     id="namedview2"
     pagecolor="#ffffff"
     bordercolor="#000000"
     borderopacity="0.25"
     inkscape:showpageshadow="2"
     inkscape:pageopacity="0.0"
     inkscape:pagecheckerboard="0"
     inkscape:deskcolor="#d1d1d1"
     inkscape:zoom="33.166667"
     inkscape:cx="12"
     inkscape:cy="12"
     inkscape:window-width="1920"
     inkscape:window-height="1015"
     inkscape:window-x="0"
     inkscape:window-y="0"
     inkscape:window-maximized="1"
     inkscape:current-layer="svg2" />
  <g
     transform="translate(4,4)"
     color="#000000"
     fill="#363636"
     id="g2"
     style="fill:#f0f0f0;fill-opacity:1">
    <path
       d="m3.994 2c-1.258 0.015-2.179-0.03-2.931 0.385a1.88 1.88 0 0 0-0.838 0.998c-0.165 0.437-0.225 0.96-0.225 1.617v6c0 0.658 0.06 1.179 0.225 1.617 0.164 0.439 0.461 0.79 0.838 0.998 0.752 0.416 1.673 0.37 2.931 0.385h8.012c1.258-0.015 2.179 0.03 2.932-0.385a1.88 1.88 0 0 0 0.838-0.998c0.164-0.438 0.224-0.96 0.224-1.617v-6c0-0.658-0.06-1.179-0.225-1.617a1.88 1.88 0 0 0-0.838-0.998c-0.752-0.416-1.673-0.37-2.931-0.385h-1.006v1h1c1.259 0.015 2.087 0.06 2.453 0.262 0.184 0.1 0.29 0.212 0.387 0.472s0.16 0.674 0.16 1.266v6c0 0.592-0.063 1.006-0.16 1.266-0.098 0.26-0.203 0.371-0.387 0.472-0.366 0.202-1.194 0.247-2.453 0.262h-8c-1.259-0.015-2.09-0.06-2.455-0.262-0.183-0.1-0.287-0.212-0.385-0.472-0.097-0.26-0.16-0.674-0.16-1.266v-6c0-0.592 0.063-1.006 0.16-1.266 0.098-0.26 0.202-0.371 0.385-0.472 0.365-0.202 1.195-0.247 2.455-0.262h2.5v-1h-2.502z"
       font-family="sans-serif"
       font-weight="400"
       overflow="visible"
       style="font-feature-settings:normal;font-variant-alternates:normal;font-variant-caps:normal;font-variant-ligatures:normal;font-variant-numeric:normal;font-variant-position:normal;isolation:auto;mix-blend-mode:normal;shape-padding:0;text-decoration-color:#000000;text-decoration-line:none;text-decoration-style:solid;text-indent:0;text-orientation:mixed;text-transform:none;fill:#f0f0f0;fill-opacity:1"
       id="path1" />
    <path
       d="m5 0 1e-3 5c0.76-0.348 1.535-0.737 2.323-1.166a44.09 44.09 0 0 0 2.259-1.334 51.555 51.555 0 0 0-2.26-1.32 43.088 43.088 0 0 0-2.323-1.18z"
       overflow="visible"
       id="path2"
       style="fill:#f0f0f0;fill-opacity:1" />
  </g>
</svg>
