<?xml version="1.0" encoding="UTF-8" standalone="no"?>
<svg
   width="24"
   height="24"
   version="1.1"
   id="svg2"
   sodipodi:docname="stroke-cap-round-symbolic.svg"
   inkscape:version="1.3 (0e150ed6c4, 2023-07-21)"
   xmlns:inkscape="http://www.inkscape.org/namespaces/inkscape"
   xmlns:sodipodi="http://sodipodi.sourceforge.net/DTD/sodipodi-0.dtd"
   xmlns="http://www.w3.org/2000/svg"
   xmlns:svg="http://www.w3.org/2000/svg">
  <defs
     id="defs2" />
  <sodipodi:namedview
     id="namedview2"
     pagecolor="#ffffff"
     bordercolor="#000000"
     borderopacity="0.25"
     inkscape:showpageshadow="2"
     inkscape:pageopacity="0.0"
     inkscape:pagecheckerboard="0"
     inkscape:deskcolor="#d1d1d1"
     inkscape:zoom="33.166667"
     inkscape:cx="11.984925"
     inkscape:cy="12"
     inkscape:window-width="1920"
     inkscape:window-height="1015"
     inkscape:window-x="0"
     inkscape:window-y="0"
     inkscape:window-maximized="1"
     inkscape:current-layer="svg2" />
  <path
     d="m11.5 5a6.486 6.486 0 0 0-6.5 6.5v7.5h4v-9h5v9h4v-7.5c0-3.601-2.899-6.5-6.5-6.5zm0 1c3.047 0 5.5 2.453 5.5 5.5v6.5h-2v-9h-7v9h-2v-6.5c0-3.047 2.453-5.5 5.5-5.5z"
     fill="#363636"
     fill-rule="evenodd"
     stop-color="#000000"
     stroke-linecap="round"
     stroke-linejoin="round"
     stroke-width="2.6458"
     id="path1"
     style="fill:#f0f0f0;fill-opacity:1" />
  <path
     d="m11 11h1v1h-1zm0 2h1v1h-1zm0 2h1v1h-1zm0 2h1v1h-1zm0 2h1v1h-1z"
     fill="#363636"
     fill-rule="evenodd"
     stop-color="#000000"
     stroke-linecap="round"
     stroke-linejoin="round"
     id="path2"
     style="fill:#f0f0f0;fill-opacity:1" />
</svg>
