<?xml version="1.0" encoding="UTF-8" standalone="no"?>
<svg
   width="24"
   height="24"
   version="1.1"
   id="svg6"
   sodipodi:docname="stroke-join-bevel-symbolic.svg"
   inkscape:version="1.3 (0e150ed6c4, 2023-07-21)"
   xmlns:inkscape="http://www.inkscape.org/namespaces/inkscape"
   xmlns:sodipodi="http://sodipodi.sourceforge.net/DTD/sodipodi-0.dtd"
   xmlns="http://www.w3.org/2000/svg"
   xmlns:svg="http://www.w3.org/2000/svg">
  <defs
     id="defs6" />
  <sodipodi:namedview
     id="namedview6"
     pagecolor="#ffffff"
     bordercolor="#000000"
     borderopacity="0.25"
     inkscape:showpageshadow="2"
     inkscape:pageopacity="0.0"
     inkscape:pagecheckerboard="0"
     inkscape:deskcolor="#d1d1d1"
     inkscape:zoom="33.166667"
     inkscape:cx="11.984925"
     inkscape:cy="12"
     inkscape:window-width="1920"
     inkscape:window-height="1015"
     inkscape:window-x="0"
     inkscape:window-y="0"
     inkscape:window-maximized="1"
     inkscape:current-layer="svg6" />
  <g
     transform="translate(4,4)"
     fill="#363636"
     id="g6"
     style="fill:#f0f0f0;fill-opacity:1">
    <path
       d="m6 6h1v1h-1zm0 2h1v1h-1zm0 2h1v1h-1zm0 2h1v1h-1zm0 2h1v1h-1zm2-8h1v1h-1zm2 0h1v1h-1zm2 0h1v1h-1zm2 0h1v1h-1zm-6 2h1v7h-1z"
       fill-rule="evenodd"
       stop-color="#000000"
       stroke-linecap="round"
       stroke-linejoin="round"
       id="path1"
       style="fill:#f0f0f0;fill-opacity:1" />
    <path
       d="m8 8h7v1h-7zm3 3h1v4h-1z"
       fill-rule="evenodd"
       stop-color="#000000"
       stroke-linecap="round"
       stroke-linejoin="round"
       id="path2"
       style="fill:#f0f0f0;fill-opacity:1" />
    <path
       d="m11 11h4v1h-4z"
       fill-rule="evenodd"
       stop-color="#000000"
       stroke-linecap="round"
       stroke-linejoin="round"
       id="path3"
       style="fill:#f0f0f0;fill-opacity:1" />
    <path
       d="m14 8h1v4h-1zm-6 6h4v1h-4zm-4-10h1v11h-1zm1 0h10v1h-10zm0-3h10v1h-10zm-4 4h1v10h-1z"
       fill-rule="evenodd"
       stop-color="#000000"
       stroke-linecap="round"
       stroke-linejoin="round"
       id="path4"
       style="fill:#f0f0f0;fill-opacity:1" />
    <path
       d="m1 14h4v1h-4zm13-13h1v4h-1z"
       fill-rule="evenodd"
       stop-color="#000000"
       stroke-linecap="round"
       stroke-linejoin="round"
       id="path5"
       style="fill:#f0f0f0;fill-opacity:1" />
    <path
       d="m5 1-4 4 0.707 0.707 4-4z"
       color="#000000"
       style="-inkscape-stroke:none;fill:#f0f0f0;fill-opacity:1"
       id="path6" />
  </g>
</svg>
