<?xml version="1.0" encoding="UTF-8" standalone="no"?>
<svg
   width="24"
   height="24"
   version="1.1"
   id="svg3"
   sodipodi:docname="stroke-cap-square-symbolic.svg"
   inkscape:version="1.3 (0e150ed6c4, 2023-07-21)"
   xmlns:inkscape="http://www.inkscape.org/namespaces/inkscape"
   xmlns:sodipodi="http://sodipodi.sourceforge.net/DTD/sodipodi-0.dtd"
   xmlns="http://www.w3.org/2000/svg"
   xmlns:svg="http://www.w3.org/2000/svg">
  <defs
     id="defs3" />
  <sodipodi:namedview
     id="namedview3"
     pagecolor="#ffffff"
     bordercolor="#000000"
     borderopacity="0.25"
     inkscape:showpageshadow="2"
     inkscape:pageopacity="0.0"
     inkscape:pagecheckerboard="0"
     inkscape:deskcolor="#d1d1d1"
     inkscape:zoom="33.166667"
     inkscape:cx="11.984925"
     inkscape:cy="12"
     inkscape:window-width="1920"
     inkscape:window-height="1015"
     inkscape:window-x="0"
     inkscape:window-y="0"
     inkscape:window-maximized="1"
     inkscape:current-layer="svg3" />
  <g
     transform="translate(4,4)"
     fill="#363636"
     fill-rule="evenodd"
     stroke-linecap="round"
     stroke-linejoin="round"
     id="g3"
     style="fill:#f0f0f0;fill-opacity:1">
    <path
       d="m7 6h1v1h-1zm0 2h1v1h-1zm0 2h1v1h-1zm0 2h1v1h-1zm0 2h1v1h-1zm-6-13h13v1h-13z"
       stop-color="#000000"
       id="path1"
       style="fill:#f0f0f0;fill-opacity:1" />
    <path
       d="m1 1h1v14h-1zm12 0h1v14h-1zm-9 3h1v11h-1zm6 0h1v11h-1z"
       stop-color="#000000"
       id="path2"
       style="fill:#f0f0f0;fill-opacity:1" />
    <path
       d="m4 4h7v1h-7zm-3 10h4v1h-4zm9 0h4v1h-4z"
       stop-color="#000000"
       id="path3"
       style="fill:#f0f0f0;fill-opacity:1" />
  </g>
</svg>
