<?xml version="1.0" encoding="UTF-8" standalone="no"?>
<svg
   width="24"
   height="24"
   version="1.1"
   viewBox="0 0 24 24"
   id="svg1"
   sodipodi:docname="trash-shot-symbolic.svg"
   inkscape:version="1.3 (0e150ed6c4, 2023-07-21)"
   xmlns:inkscape="http://www.inkscape.org/namespaces/inkscape"
   xmlns:sodipodi="http://sodipodi.sourceforge.net/DTD/sodipodi-0.dtd"
   xmlns="http://www.w3.org/2000/svg"
   xmlns:svg="http://www.w3.org/2000/svg">
  <sodipodi:namedview
     id="namedview1"
     pagecolor="#ffffff"
     bordercolor="#000000"
     borderopacity="0.25"
     inkscape:showpageshadow="2"
     inkscape:pageopacity="0.0"
     inkscape:pagecheckerboard="0"
     inkscape:deskcolor="#d1d1d1"
     inkscape:zoom="33.166667"
     inkscape:cx="11.984925"
     inkscape:cy="12"
     inkscape:window-width="1920"
     inkscape:window-height="1015"
     inkscape:window-x="0"
     inkscape:window-y="0"
     inkscape:window-maximized="1"
     inkscape:current-layer="svg1" />
  <defs
     id="defs1">
    <style
       id="current-color-scheme"
       type="text/css">.ColorScheme-Text { color:#363636; }</style>
  </defs>
  <path
     class="ColorScheme-Text"
     d="m10.002 3.9998c-0.554 0-1 0.446-1 1v1h-4.5c-0.277 0-0.5 0.223-0.5 0.5s0.223 0.5 0.5 0.5h0.49805l0.54688 11.061c0.0612 1.0155 0.90615 1.9395 1.998 1.9395h7.9141c1.0919 0 1.9368-0.92391 1.998-1.9395l0.54688-11.061h0.49805c0.277 0 0.5-0.223 0.5-0.5s-0.223-0.5-0.5-0.5h-4.5v-1c0-0.554-0.446-1-1-1h-3zm0 1h3v1h-3zm-4 2h11l-0.54297 11c-0.03333 0.553-0.446 1-1 1h-7.9141c-0.554 0-0.96667-0.447-1-1l-0.54297-11zm2.5 2c-0.277 0-0.5 0.223-0.5 0.5v7c0 0.277 0.223 0.5 0.5 0.5s0.5-0.223 0.5-0.5v-7c0-0.277-0.223-0.5-0.5-0.5zm3 0c-0.277 0-0.5 0.223-0.5 0.5v7c0 0.277 0.223 0.5 0.5 0.5s0.5-0.223 0.5-0.5v-7c0-0.277-0.223-0.5-0.5-0.5zm3 0c-0.277 0-0.5 0.223-0.5 0.5v7c0 0.277 0.223 0.5 0.5 0.5s0.5-0.223 0.5-0.5v-7c0-0.277-0.223-0.5-0.5-0.5z"
     fill="currentColor"
     id="path1"
     style="fill:#f0f0f0;fill-opacity:1" />
</svg>
