<?xml version="1.0" encoding="UTF-8" standalone="no"?>
<svg
   width="16"
   height="16"
   viewBox="0 0 16 16"
   version="1.1"
   id="svg7"
   sodipodi:docname="align-horizontal-node.svg"
   inkscape:version="1.1.2 (0a00cf5339, 2022-02-04, custom)"
   xmlns:inkscape="http://www.inkscape.org/namespaces/inkscape"
   xmlns:sodipodi="http://sodipodi.sourceforge.net/DTD/sodipodi-0.dtd"
   xmlns="http://www.w3.org/2000/svg"
   xmlns:svg="http://www.w3.org/2000/svg">
  <sodipodi:namedview
     id="namedview9"
     pagecolor="#ffffff"
     bordercolor="#666666"
     borderopacity="1.0"
     inkscape:pageshadow="2"
     inkscape:pageopacity="0.0"
     inkscape:pagecheckerboard="0"
     showgrid="false"
     inkscape:zoom="6.4369128"
     inkscape:cx="-6.524867"
     inkscape:cy="-1.0874778"
     inkscape:window-width="1366"
     inkscape:window-height="703"
     inkscape:window-x="0"
     inkscape:window-y="37"
     inkscape:window-maximized="1"
     inkscape:current-layer="svg7" />
  <defs
     id="defs3">
    <style
       id="current-color-scheme"
       type="text/css">
   .ColorScheme-Text { color:#f1f8f8; } .ColorScheme-Highlight { color:#f1f8f8; }
  </style>
  </defs>
  <g
     id="g919"
     transform="matrix(0.94117645,0,0,0.94117645,-4.3455318,-7.2604487)">
    <path
       style="color:#dedede;fill:currentColor;fill-opacity:1;stroke:none"
       d="m 4.6171276,8.2142272 v 3.9999998 h 4 V 8.2142272 Z m 8.0000004,0 v 1 h 1 v -1 z m -7.0000004,1 h 2 v 1.9999998 h -2 z m 7.0000004,1.9999998 v 1 h 1 v -1 z m 0,3 v 1 h 1 v -1 z m 5,0 v 4 h 4 v -4 z m 1,1 h 2 v 2 h -2 z m -6,2 v 1 h 1 v -1 z m -8.0000004,3 v 4 h 4 v -4 z m 8.0000004,0 v 1 h 1 v -1 z m -7.0000004,1 h 2 v 2 h -2 z m 7.0000004,2 v 1 h 1 v -1 z"
       class="ColorScheme-Text"
       id="path4" />
    <path
       style="color:#3daee9;fill:currentColor;fill-opacity:1;stroke:none"
       d="m 9.6171276,8.2142272 v 3.9999998 l 3.0000004,-2 z m 7.0000004,5.9999998 -3,2 3,2 z m -7.0000004,6 v 4 l 3.0000004,-2 z"
       class="ColorScheme-Highlight"
       id="path6" />
  </g>
</svg>
