<?xml version="1.0" encoding="UTF-8" standalone="no"?>
<svg
   style="fill-rule:evenodd;clip-rule:evenodd;stroke-linejoin:round;stroke-miterlimit:2"
   width="100%"
   height="100%"
   viewBox="0 0 16 16"
   xml:space="preserve"
   version="1.1"
   id="svg9"
   sodipodi:docname="align-vertical-node.svg"
   inkscape:version="1.1.2 (0a00cf5339, 2022-02-04, custom)"
   xmlns:inkscape="http://www.inkscape.org/namespaces/inkscape"
   xmlns:sodipodi="http://sodipodi.sourceforge.net/DTD/sodipodi-0.dtd"
   xmlns="http://www.w3.org/2000/svg"
   xmlns:svg="http://www.w3.org/2000/svg"><sodipodi:namedview
   id="namedview11"
   pagecolor="#ffffff"
   bordercolor="#666666"
   borderopacity="1.0"
   inkscape:pageshadow="2"
   inkscape:pageopacity="0.0"
   inkscape:pagecheckerboard="0"
   showgrid="false"
   inkscape:zoom="13.75691"
   inkscape:cx="0.21807223"
   inkscape:cy="4.7248983"
   inkscape:window-width="1366"
   inkscape:window-height="703"
   inkscape:window-x="0"
   inkscape:window-y="37"
   inkscape:window-maximized="1"
   inkscape:current-layer="svg9" />
 <defs
   id="defs3">
  <style
   id="current-color-scheme"
   type="text/css">
   .ColorScheme-Text { color:#dfdfdf; } .ColorScheme-Highlight { color:#4285f4; } .ColorScheme-NeutralText { color:#ff9800; } .ColorScheme-PositiveText { color:#4caf50; } .ColorScheme-NegativeText { color:#f44336; }
  </style>
 </defs>
 
 
<g
   id="g919"
   transform="translate(-4.0000002,-4.0000001)"><path
     style="color:#dedede;fill:currentColor;fill-opacity:1;stroke:none;stroke-width:0.941176"
     d="M 10.117647,4.0000002 V 7.764706 h 3.764706 V 4.0000002 Z m 0.941176,0.9411764 h 1.882353 V 6.8235295 H 11.058823 Z M 4.4705885,11.529413 v 0.941176 h 0.941176 v -0.941176 z m 2.823529,0 v 0.941176 h 0.941177 v -0.941176 z m 2.8235305,0 v 0.941176 h 0.941175 v -0.941176 z m 2.823529,0 v 0.941176 h 0.941176 v -0.941176 z m 2.823529,0 v 0.941176 h 0.941177 v -0.941176 z m 2.823529,0 v 0.941176 h 0.941177 V 11.529413 Z M 4.4705885,16.235295 V 20 h 3.764706 v -3.764705 z m 11.2941165,0 V 20 h 3.764706 V 16.235295 Z M 5.4117645,17.176471 h 1.882353 v 1.882353 h -1.882353 z m 11.2941175,0 h 1.882353 v 1.882353 h -1.882353 z"
     class="ColorScheme-Text"
     id="path4" /><path
     style="color:#3daee9;fill:currentColor;fill-opacity:1;stroke:none;stroke-width:0.941176"
     d="M 10.117648,8.7058824 12,11.529413 13.882353,8.7058824 Z m -3.7647065,3.7647066 -1.882353,2.823529 h 3.764706 z m 11.2941165,0 -1.882352,2.823529 h 3.764706 z"
     class="ColorScheme-Highlight"
     id="path6" /></g></svg>
