<?xml version="1.0" encoding="UTF-8" standalone="no"?>
<svg
   width="16"
   height="16"
   viewBox="0 0 16 16"
   version="1.1"
   id="svg7"
   sodipodi:docname="blurfx.svg"
   inkscape:version="1.1.2 (0a00cf5339, 2022-02-04, custom)"
   xmlns:inkscape="http://www.inkscape.org/namespaces/inkscape"
   xmlns:sodipodi="http://sodipodi.sourceforge.net/DTD/sodipodi-0.dtd"
   xmlns="http://www.w3.org/2000/svg"
   xmlns:svg="http://www.w3.org/2000/svg">
  <sodipodi:namedview
     id="namedview9"
     pagecolor="#ffffff"
     bordercolor="#666666"
     borderopacity="1.0"
     inkscape:pageshadow="2"
     inkscape:pageopacity="0.0"
     inkscape:pagecheckerboard="0"
     showgrid="false"
     inkscape:zoom="6.4369128"
     inkscape:cx="-6.524867"
     inkscape:cy="-1.0874778"
     inkscape:window-width="1366"
     inkscape:window-height="703"
     inkscape:window-x="0"
     inkscape:window-y="37"
     inkscape:window-maximized="1"
     inkscape:current-layer="svg7" />
  <defs
     id="defs3">
    <style
       id="current-color-scheme"
       type="text/css">
   .ColorScheme-Text { color:#f1f8f8; } .ColorScheme-Highlight { color:#f1f8f8; }
  </style>
  </defs>
  <g
     transform="translate(-4,-3)"
     id="g6">
    <path
       style="fill:currentColor;fill-opacity:1;stroke:none"
       d="M 10,3 C 9.02709,6.405 6.6455531,9.3322813 5.5957031,11.675781 5.2283031,12.372581 5,13.1546 5,14 c 0,2.77 2.23,5 5,5 2.77,0 5,-2.23 5,-5 0,-0.8454 -0.228303,-1.627419 -0.595703,-2.324219 C 13.354447,9.3322812 10.9729,6.405 10,3 Z m 6,0 -0.574219,1.6132812 -1.546875,-0.734375 0.734375,1.546875 L 13,6 14.613281,6.5742188 13.878906,8.1210938 15.425781,7.3867188 16,9 16.574219,7.3867188 18.121094,8.1210938 17.386719,6.5742188 19,6 17.386719,5.4257812 l 0.734375,-1.546875 -1.546875,0.734375 z m -3.716797,7.716797 C 13.320903,11.437997 14,12.6351 14,14 14,16.216 12.216,18 10,18 8.63504,18 7.4379969,17.321003 6.7167969,16.283203 7.3638369,16.732903 8.14892,17 9,17 c 2.216,0 4,-1.784 4,-4 0,-0.8511 -0.267087,-1.636203 -0.716797,-2.283203 z"
       class="ColorScheme-Text"
       id="path4" />
  </g>
</svg>
