<?xml version="1.0" encoding="UTF-8" standalone="no"?>
<svg
   width="16"
   height="16"
   viewBox="0 0 16 16"
   version="1.1"
   id="svg7"
   sodipodi:docname="colorneg.svg"
   inkscape:version="1.1.2 (0a00cf5339, 2022-02-04, custom)"
   xmlns:inkscape="http://www.inkscape.org/namespaces/inkscape"
   xmlns:sodipodi="http://sodipodi.sourceforge.net/DTD/sodipodi-0.dtd"
   xmlns="http://www.w3.org/2000/svg"
   xmlns:svg="http://www.w3.org/2000/svg">
  <sodipodi:namedview
     id="namedview9"
     pagecolor="#ffffff"
     bordercolor="#666666"
     borderopacity="1.0"
     inkscape:pageshadow="2"
     inkscape:pageopacity="0.0"
     inkscape:pagecheckerboard="0"
     showgrid="false"
     inkscape:zoom="13.842433"
     inkscape:cx="-1.3003495"
     inkscape:cy="-1.589316"
     inkscape:window-width="1366"
     inkscape:window-height="703"
     inkscape:window-x="0"
     inkscape:window-y="37"
     inkscape:window-maximized="1"
     inkscape:current-layer="svg7" />
  <defs
     id="defs3">
    <style
       id="current-color-scheme"
       type="text/css">
   .ColorScheme-Text { color:#f1f8f8; } .ColorScheme-Highlight { color:#f1f8f8; }
  </style>
  </defs>
  <g
     transform="translate(-3,-3)"
     id="g6"
     style="fill:#3daee9;fill-opacity:1">
    <path
       style="fill:#3daee9;fill-opacity:1;stroke:none"
       transform="translate(-1,-1)"
       d="M 4,4 V 20 H 20 V 4 H 4 M 19,5 V 19 H 5 L 8.46875,15.53125 C 7.563928,14.626428 7,13.380712 7,12 7,9.238576 9.238576,7 12,7 c 1.380712,0 2.626428,0.563928 3.53125,1.46875 L 19,5 m -3.46875,3.46875 -7.0625,7.0625 C 9.373572,16.436072 10.619288,17 12,17 c 2.761424,0 5,-2.238576 5,-5 0,-1.380712 -0.563928,-2.626428 -1.46875,-3.53125 z"
       class="ColorScheme-Highlight"
       id="path4" />
  </g>
</svg>
