<?xml version="1.0" encoding="UTF-8" standalone="no"?>
<svg
   width="16"
   height="16"
   viewBox="0 0 16 16"
   version="1.1"
   id="svg7"
   sodipodi:docname="distribute-horizontal-node.svg"
   inkscape:version="1.1.2 (0a00cf5339, 2022-02-04, custom)"
   xmlns:inkscape="http://www.inkscape.org/namespaces/inkscape"
   xmlns:sodipodi="http://sodipodi.sourceforge.net/DTD/sodipodi-0.dtd"
   xmlns="http://www.w3.org/2000/svg"
   xmlns:svg="http://www.w3.org/2000/svg">
  <sodipodi:namedview
     id="namedview9"
     pagecolor="#ffffff"
     bordercolor="#666666"
     borderopacity="1.0"
     inkscape:pageshadow="2"
     inkscape:pageopacity="0.0"
     inkscape:pagecheckerboard="0"
     showgrid="false"
     inkscape:zoom="7.8596266"
     inkscape:cx="-3.0535802"
     inkscape:cy="8.9062755"
     inkscape:window-width="1366"
     inkscape:window-height="703"
     inkscape:window-x="0"
     inkscape:window-y="37"
     inkscape:window-maximized="1"
     inkscape:current-layer="svg7" />
  <defs
     id="defs3">
    <style
       id="current-color-scheme"
       type="text/css">
   .ColorScheme-Text { color:#f1f8f8; } .ColorScheme-Highlight { color:#f1f8f8; }
  </style>
  </defs>
  <g
     id="g919"
     transform="translate(5.4553499,-3.4509258)">
    <path
       style="color:#dedede;fill:currentColor;fill-opacity:1;stroke:none"
       d="m 0.5446501,9.4509256 v 4.0000004 h 4 V 9.4509256 Z m 1,1.0000004 h 2 v 2 h -2 z m -7,5 v 4 h 4 v -4 z m 12,0 v 4 H 10.54465 v -4 z m -11,1 h 2 v 2 h -2 z m 12,0 h 2 v 2 h -2 z"
       class="ColorScheme-Text"
       id="path4" />
    <path
       style="color:#3daee9;fill:currentColor;fill-opacity:1;stroke:none"
       d="m -3.4553499,3.4509256 v 4 h 1 v -1 h 2 v 1 h 1 v -4 h -1 v 1 h -2 v -1 z m 8,0 v 4 h 1 v -1 h 2 v 1 h 1 v -4 h -1 v 1 h -2 v -1 z"
       class="ColorScheme-Highlight"
       id="path6" />
  </g>
</svg>
