<?xml version="1.0" encoding="UTF-8" standalone="no"?>
<svg
   width="16"
   height="16"
   viewBox="0 0 16 16"
   version="1.1"
   id="svg7"
   sodipodi:docname="distribute-graph.svg"
   inkscape:version="1.1.2 (0a00cf5339, 2022-02-04, custom)"
   xmlns:inkscape="http://www.inkscape.org/namespaces/inkscape"
   xmlns:sodipodi="http://sodipodi.sourceforge.net/DTD/sodipodi-0.dtd"
   xmlns="http://www.w3.org/2000/svg"
   xmlns:svg="http://www.w3.org/2000/svg">
  <sodipodi:namedview
     id="namedview9"
     pagecolor="#ffffff"
     bordercolor="#666666"
     borderopacity="1.0"
     inkscape:pageshadow="2"
     inkscape:pageopacity="0.0"
     inkscape:pagecheckerboard="0"
     showgrid="false"
     inkscape:zoom="13.66511"
     inkscape:cx="5.4152511"
     inkscape:cy="8.2692347"
     inkscape:window-width="1366"
     inkscape:window-height="703"
     inkscape:window-x="0"
     inkscape:window-y="37"
     inkscape:window-maximized="1"
     inkscape:current-layer="g839" />
  <defs
     id="defs3">
    <style
       id="current-color-scheme"
       type="text/css">
   .ColorScheme-Text { color:#f1f8f8; } .ColorScheme-Highlight { color:#f1f8f8; }
  </style>
  </defs>
  <g
     id="g839"
     transform="matrix(0.8,0,0,0.8,-1.6,-1.6)">
    <path
       style="fill:currentColor;fill-opacity:1;stroke:none"
       d="m 8.6875,5.6113281 -5,4 0.625,0.7792969 5,-4 z m 1.697266,0.070312 -0.7695316,0.6386719 4.9999996,6 0.769532,-0.638671 z m 9.199218,0.041016 -4,5.9999999 0.832032,0.554688 4,-6.0000003 z M 3,10.998047 v 7 h 1 v -7 z m 1,7 v 1 h 6 v -1 z m 10.609375,-5.308594 -4,5 0.78125,0.623047 4,-5 z m 1.78125,0 -0.78125,0.623047 4,5 0.78125,-0.623047 z"
       class="ColorScheme-Text"
       id="path4" />
    <path
       style="fill:currentColor;fill-opacity:1;stroke:none"
       d="M 9.5,4 A 1.4999959,1.5 0 0 0 8,5.5 1.4999959,1.5 0 0 0 9.5,7 1.4999959,1.5 0 0 0 11,5.5 1.4999959,1.5 0 0 0 9.5,4 Z m 11,0 A 1.4999959,1.5 0 0 0 19,5.5 1.4999959,1.5 0 0 0 20.5,7 1.4999959,1.5 0 0 0 22,5.5 1.4999959,1.5 0 0 0 20.5,4 Z M 3.5,9 A 1.4999959,1.5 0 0 0 2,10.5 1.4999959,1.5 0 0 0 3.5,12 1.4999959,1.5 0 0 0 5,10.5 1.4999959,1.5 0 0 0 3.5,9 Z m 12,2 A 1.4999959,1.5 0 0 0 14,12.5 1.4999959,1.5 0 0 0 15.5,14 1.4999959,1.5 0 0 0 17,12.5 1.4999959,1.5 0 0 0 15.5,11 Z m -12,6 A 1.4999959,1.5 0 0 0 2,18.5 1.4999959,1.5 0 0 0 3.5,20 1.4999959,1.5 0 0 0 5,18.5 1.4999959,1.5 0 0 0 3.5,17 Z m 7,0 A 1.4999959,1.5 0 0 0 9,18.5 1.4999959,1.5 0 0 0 10.5,20 1.4999959,1.5 0 0 0 12,18.5 1.4999959,1.5 0 0 0 10.5,17 Z m 10,0 A 1.4999959,1.5 0 0 0 19,18.5 1.4999959,1.5 0 0 0 20.5,20 1.4999959,1.5 0 0 0 22,18.5 1.4999959,1.5 0 0 0 20.5,17 Z"
       class="ColorScheme-Highlight"
       id="path6" />
    <path
       style="color:#3daee9;fill:currentColor;fill-opacity:1;stroke:none;stroke-width:1"
       d="m 9.5000001,4.0000001 a 1.4999959,1.5 0 0 0 -1.5,1.5 1.4999959,1.5 0 0 0 1.5,1.5 1.4999959,1.5 0 0 0 1.4999999,-1.5 1.4999959,1.5 0 0 0 -1.4999999,-1.5 z m 10.9999999,0 a 1.4999959,1.5 0 0 0 -1.5,1.5 1.4999959,1.5 0 0 0 1.5,1.5 1.4999959,1.5 0 0 0 1.5,-1.5 1.4999959,1.5 0 0 0 -1.5,-1.5 z M 3.5000001,9 a 1.4999959,1.5 0 0 0 -1.5000003,1.5 1.4999959,1.5 0 0 0 1.5000003,1.5 1.4999959,1.5 0 0 0 1.5,-1.5 1.4999959,1.5 0 0 0 -1.5,-1.5 z M 15.5,11 A 1.4999959,1.5 0 0 0 14,12.5 1.4999959,1.5 0 0 0 15.5,14 1.4999959,1.5 0 0 0 17,12.5 1.4999959,1.5 0 0 0 15.5,11 Z M 3.5000001,17 a 1.4999959,1.5 0 0 0 -1.5000003,1.5 1.4999959,1.5 0 0 0 1.5000003,1.5 1.4999959,1.5 0 0 0 1.5,-1.5 1.4999959,1.5 0 0 0 -1.5,-1.5 z M 10.5,17 A 1.4999959,1.5 0 0 0 9.0000001,18.5 1.4999959,1.5 0 0 0 10.5,20 1.4999959,1.5 0 0 0 12,18.5 1.4999959,1.5 0 0 0 10.5,17 Z m 10,0 A 1.4999959,1.5 0 0 0 19,18.5 1.4999959,1.5 0 0 0 20.5,20 1.4999959,1.5 0 0 0 22,18.5 1.4999959,1.5 0 0 0 20.5,17 Z"
       class="ColorScheme-Highlight"
       id="path6-3" />
  </g>
</svg>
