<?xml version="1.0" encoding="UTF-8" standalone="no"?>
<svg
   width="16"
   height="16"
   viewBox="0 0 16 16"
   version="1.1"
   id="svg7"
   sodipodi:docname="distribute-graph-directed.svg"
   inkscape:version="1.1.2 (0a00cf5339, 2022-02-04, custom)"
   xmlns:inkscape="http://www.inkscape.org/namespaces/inkscape"
   xmlns:sodipodi="http://sodipodi.sourceforge.net/DTD/sodipodi-0.dtd"
   xmlns="http://www.w3.org/2000/svg"
   xmlns:svg="http://www.w3.org/2000/svg">
  <sodipodi:namedview
     id="namedview9"
     pagecolor="#ffffff"
     bordercolor="#666666"
     borderopacity="1.0"
     inkscape:pageshadow="2"
     inkscape:pageopacity="0.0"
     inkscape:pagecheckerboard="0"
     showgrid="false"
     inkscape:zoom="8.8164169"
     inkscape:cx="-7.2591849"
     inkscape:cy="12.249874"
     inkscape:window-width="1366"
     inkscape:window-height="703"
     inkscape:window-x="0"
     inkscape:window-y="37"
     inkscape:window-maximized="1"
     inkscape:current-layer="svg7" />
  <defs
     id="defs3">
    <style
       id="current-color-scheme"
       type="text/css">
   .ColorScheme-Text { color:#f1f8f8; } .ColorScheme-Highlight { color:#f1f8f8; }
  </style>
  </defs>
  <g
     id="g839"
     transform="translate(-9.1271391,-21.03674)">
    <path
       style="color:#dedede;fill:currentColor;fill-opacity:1;stroke:none"
       d="m 21.908389,23.59924 -3.84375,4.1875 0.75,0.6875 3.84375,-4.1875 c -0.141664,-0.135392 -0.473397,-0.422808 -0.75,-0.6875 z m -9.5625,0.0625 -0.75,0.6875 3.808594,4.101562 0.753906,-0.695312 z m 4.28125,7.8125 v 2.125 h 1 v -2.125 c -0.397143,0.0044 -0.704794,6.96e-4 -1,0 z"
       class="ColorScheme-Text"
       id="path4" />
    <path
       style="color:#3daee9;fill:currentColor;fill-opacity:1;stroke:none"
       d="m 10.627139,21.03674 a 1.4999959,1.5 0 0 0 -1.4999997,1.5 1.4999959,1.5 0 0 0 1.4999997,1.5 1.4999959,1.5 0 0 0 1.5,-1.5 1.4999959,1.5 0 0 0 -1.5,-1.5 z m 13,0 a 1.4999959,1.5 0 0 0 -1.5,1.5 1.4999959,1.5 0 0 0 1.5,1.5 1.4999959,1.5 0 0 0 1.5,-1.5 1.4999959,1.5 0 0 0 -1.5,-1.5 z m -6.5,7 a 1.4999959,1.5 0 0 0 -1.5,1.5 1.4999959,1.5 0 0 0 1.5,1.5 1.4999959,1.5 0 0 0 1.5,-1.5 1.4999959,1.5 0 0 0 -1.5,-1.5 z m 0,6 a 1.4999959,1.5 0 0 0 -1.5,1.5 1.4999959,1.5 0 0 0 1.5,1.5 1.4999959,1.5 0 0 0 1.5,-1.5 1.4999959,1.5 0 0 0 -1.5,-1.5 z"
       class="ColorScheme-Highlight"
       id="path6" />
  </g>
</svg>
