<?xml version="1.0" encoding="UTF-8" standalone="no"?>
<svg
   width="16"
   height="16"
   viewBox="0 0 16 16"
   version="1.1"
   id="svg7"
   sodipodi:docname="exchange-positions-zorder.svg"
   inkscape:version="1.1.2 (0a00cf5339, 2022-02-04, custom)"
   xmlns:inkscape="http://www.inkscape.org/namespaces/inkscape"
   xmlns:sodipodi="http://sodipodi.sourceforge.net/DTD/sodipodi-0.dtd"
   xmlns="http://www.w3.org/2000/svg"
   xmlns:svg="http://www.w3.org/2000/svg">
  <sodipodi:namedview
     id="namedview9"
     pagecolor="#ffffff"
     bordercolor="#666666"
     borderopacity="1.0"
     inkscape:pageshadow="2"
     inkscape:pageopacity="0.0"
     inkscape:pagecheckerboard="0"
     showgrid="false"
     inkscape:object-paths="false"
     inkscape:zoom="4.3401995"
     inkscape:cx="-24.653244"
     inkscape:cy="-5.0688914"
     inkscape:window-width="1366"
     inkscape:window-height="703"
     inkscape:window-x="0"
     inkscape:window-y="37"
     inkscape:window-maximized="1"
     inkscape:current-layer="svg7" />
  <defs
     id="defs3">
    <style
       id="current-color-scheme"
       type="text/css">
   .ColorScheme-Text { color:#f1f8f8; } .ColorScheme-Highlight { color:#f1f8f8; }
  </style>
  </defs>
  <g
     id="g924"
     transform="translate(1.0878752,-23.795773)">
    <g
       id="g919">
      <path
         style="color:#dedede;fill:currentColor;fill-opacity:1;stroke:none"
         d="m -1.0878754,23.795773 v 7 h 8 v -7 z m 1,1 h 6 v 5 h -6 z m 8,0.07813 v 0.919922 0.0918 2.908203 h 1 V 26.15125 a 6,6 0 0 1 4.0000004,5.644531 h 1 A 7,7 0 0 0 7.9121246,24.873898 Z m -8,6.921875 a 7,7 0 0 0 6,6.921875 V 37.705929 34.79382 h -1 v 2.646484 a 6,6 0 0 1 -4,-5.644531 z"
         class="ColorScheme-Text"
         id="path4" />
      <path
         style="color:#3daee9;fill:currentColor;fill-opacity:1;stroke:none"
         d="m 8.9121246,32.795773 -0.207031,0.207031 -1.792969,1.792969 v 1.414062 l 1.5,-1.5 v 4.085938 h 1 v -4.085938 l 1.5000004,1.5 V 34.795773 L 9.1191556,33.002804 Z m 3.5000004,1 v 4.085938 l -1.5,-1.5 v 1.414062 l 1.792969,1.792969 0.207031,0.207031 0.207031,-0.207031 1.792969,-1.792969 v -1.414062 l -1.5,1.5 v -4.085938 z"
         class="ColorScheme-Highlight"
         id="path6" />
    </g>
  </g>
</svg>
