<?xml version="1.0" encoding="UTF-8" standalone="no"?>
<svg
   width="16"
   height="16"
   viewBox="0 0 16 16"
   version="1.1"
   id="svg7"
   sodipodi:docname="exchange-positions-clockwise.svg"
   inkscape:version="1.1.2 (0a00cf5339, 2022-02-04, custom)"
   xmlns:inkscape="http://www.inkscape.org/namespaces/inkscape"
   xmlns:sodipodi="http://sodipodi.sourceforge.net/DTD/sodipodi-0.dtd"
   xmlns="http://www.w3.org/2000/svg"
   xmlns:svg="http://www.w3.org/2000/svg">
  <sodipodi:namedview
     id="namedview9"
     pagecolor="#ffffff"
     bordercolor="#666666"
     borderopacity="1.0"
     inkscape:pageshadow="2"
     inkscape:pageopacity="0.0"
     inkscape:pagecheckerboard="0"
     showgrid="false"
     inkscape:zoom="10.718708"
     inkscape:cx="1.4927172"
     inkscape:cy="6.7172275"
     inkscape:window-width="1366"
     inkscape:window-height="703"
     inkscape:window-x="0"
     inkscape:window-y="37"
     inkscape:window-maximized="1"
     inkscape:current-layer="g1018" />
  <defs
     id="defs3">
    <style
       id="current-color-scheme"
       type="text/css">
   .ColorScheme-Text { color:#f1f8f8; } .ColorScheme-Highlight { color:#f1f8f8; }
  </style>
  </defs>
  <g
     id="g1018"
     transform="translate(-8.7930682,5.0145658)">
    <path
       style="color:#dedede;fill:currentColor;fill-opacity:1;stroke:none"
       d="m 8.7930684,-5.0145656 v 7 h 7.9999996 v -7 z m 1,1 h 5.9999996 v 5 H 9.7930684 Z m 7.9999996,0.078125 v 1.0117188 2.9101562 h 1 v -2.6445312 a 6,6 0 0 1 4,5.6445312 h 1 a 7,7 0 0 0 -6,-6.921875 z m -7.9999996,6.921875 a 7,7 0 0 0 5.9999996,6.921875 v -1.011719 -2.910156 h -1 v 2.644531 a 6,6 0 0 1 -4,-5.644531 z"
       class="ColorScheme-Text"
       id="path4" />
    <path
       style="color:#3daee9;fill:#3daee9;fill-opacity:1;stroke:none"
       d="m 21.293068,3.9854344 a 3.499991,3.499991 0 0 0 -3.5,3.5 3.499991,3.499991 0 0 0 0.699219,2.09375 l 0.716797,-0.716797 a 2.5,2.5 0 0 1 -0.416016,-1.376953 2.5,2.5 0 0 1 2.5,-2.5 2.5,2.5 0 0 1 1.376953,0.416016 l 0.716797,-0.716797 a 3.499991,3.499991 0 0 0 -2.09375,-0.699219 z m 2.800781,1.40625 -0.716797,0.716797 a 2.5,2.5 0 0 1 0.416016,1.376953 2.5,2.5 0 0 1 -2.5,2.5 2.5,2.5 0 0 1 -1.376953,-0.416016 l -0.716797,0.7167966 a 3.499991,3.499991 0 0 0 2.09375,0.699219 3.499991,3.499991 0 0 0 3.5,-3.4999996 3.499991,3.499991 0 0 0 -0.699219,-2.09375 z"
       class="ColorScheme-Highlight"
       id="path6" />
  </g>
</svg>
