<?xml version="1.0" encoding="UTF-8" standalone="no"?>
<svg
   width="16"
   height="16"
   viewBox="0 0 16 16"
   version="1.1"
   id="svg7"
   sodipodi:docname="format-node-curve.svg"
   inkscape:version="1.1.2 (0a00cf5339, 2022-02-04, custom)"
   xmlns:inkscape="http://www.inkscape.org/namespaces/inkscape"
   xmlns:sodipodi="http://sodipodi.sourceforge.net/DTD/sodipodi-0.dtd"
   xmlns="http://www.w3.org/2000/svg"
   xmlns:svg="http://www.w3.org/2000/svg">
  <sodipodi:namedview
     id="namedview9"
     pagecolor="#ffffff"
     bordercolor="#666666"
     borderopacity="1.0"
     inkscape:pageshadow="2"
     inkscape:pageopacity="0.0"
     inkscape:pagecheckerboard="0"
     showgrid="false"
     inkscape:zoom="32.25"
     inkscape:cx="8.496124"
     inkscape:cy="8.372093"
     inkscape:window-width="1366"
     inkscape:window-height="703"
     inkscape:window-x="0"
     inkscape:window-y="37"
     inkscape:window-maximized="1"
     inkscape:current-layer="svg7" />
  <defs
     id="defs3">
    <style
       id="current-color-scheme"
       type="text/css">
   .ColorScheme-Text { color:#f1f8f8; } .ColorScheme-Highlight { color:#f1f8f8; }
  </style>
  </defs>
  <path
     style="fill:#3daee9;fill-opacity:1"
     class="ColorScheme-Text"
     d="M 12,2 V 2.052734 C 9.4425919,2.2714746 7.0227044,3.3044619 5.0957031,5 L 6,5.5429688 C 7.70417,4.1291931 9.7953407,3.2626369 12,3.0566406 Z"
     id="path5"
     sodipodi:nodetypes="cccccc" />
  <path
     style="color:#f1f8f8;fill:#3daee9;fill-opacity:1"
     class="ColorScheme-Text"
     d="M 3.0000001,7.4140625 C 1.8970148,9.0849339 1.229614,11.005222 1.0585939,13 h 0.9921874 c 0.1661366,-1.783999 0.76554,-3.500411 1.7460938,-5 z"
     id="path5-5"
     sodipodi:nodetypes="ccccc" />
  <path
     style="color:#dedede;fill:currentColor;fill-opacity:1;stroke:none"
     d="m 0,13 v 3 h 3 v -3 z m 1,1 h 1 v 1 H 1 Z"
     class="ColorScheme-Text"
     id="path4"
     sodipodi:nodetypes="cccccccccc" />
  <path
     style="color:#dedede;fill:currentColor;fill-opacity:1;stroke:none"
     d="M 3,5 V 8 H 6 V 5 Z M 4,6 H 5 V 7 H 4 Z"
     class="ColorScheme-Text"
     id="path4-3"
     sodipodi:nodetypes="cccccccccc" />
  <path
     style="color:#dedede;fill:currentColor;fill-opacity:1;stroke:none"
     d="m 12,1 v 3 h 3 V 1 Z m 1,1 h 1 v 1 h -1 z"
     class="ColorScheme-Text"
     id="path4-6"
     sodipodi:nodetypes="cccccccccc" />
</svg>
