<?xml version="1.0" encoding="UTF-8" standalone="no"?>
<svg
   width="16"
   height="16"
   viewBox="0 0 16 16"
   version="1.1"
   id="svg7"
   sodipodi:docname="format-convert-to-path.svg"
   inkscape:version="1.1.2 (0a00cf5339, 2022-02-04, custom)"
   xmlns:inkscape="http://www.inkscape.org/namespaces/inkscape"
   xmlns:sodipodi="http://sodipodi.sourceforge.net/DTD/sodipodi-0.dtd"
   xmlns="http://www.w3.org/2000/svg"
   xmlns:svg="http://www.w3.org/2000/svg">
  <sodipodi:namedview
     id="namedview9"
     pagecolor="#ffffff"
     bordercolor="#666666"
     borderopacity="1.0"
     inkscape:pageshadow="2"
     inkscape:pageopacity="0.0"
     inkscape:pagecheckerboard="0"
     showgrid="false"
     inkscape:zoom="10.301227"
     inkscape:cx="12.911083"
     inkscape:cy="11.260794"
     inkscape:window-width="1366"
     inkscape:window-height="703"
     inkscape:window-x="0"
     inkscape:window-y="37"
     inkscape:window-maximized="1"
     inkscape:current-layer="svg7" />
  <defs
     id="defs3">
    <style
       id="current-color-scheme"
       type="text/css">
   .ColorScheme-Text { color:#f1f8f8; } .ColorScheme-Highlight { color:#f1f8f8; }
  </style>
  </defs>
  <g
     id="g839"
     transform="matrix(0.8,0,0,0.8,-20.501459,-14.909892)">
    <path
       style="color:#dedede;fill:currentColor;fill-opacity:1;stroke:none"
       d="m 31.376824,20.637365 c -2.41984,0 -3.973815,3.05944 -4.203125,7 h 0.992187 c 0.18843,-3.38783 1.323458,-6 3.210938,-6 1.88748,0 3.433253,2.61218 3.695312,6 h 0.996094 c -0.2953,-3.9406 -2.271556,-7 -4.691406,-7 z m 3.791016,9 c 0.29904,3.9976 2.316644,6.9968 4.708984,7 2.3916,0 3.95105,-3.0036 4.25,-7 h -1 c -0.26606,3.4408 -1.38759,5.9958 -3.25,6 -1.86241,0 -3.440971,-2.5592 -3.707031,-6 z"
       class="ColorScheme-Text"
       id="path4" />
    <path
       style="color:#3daee9;fill:currentColor;fill-opacity:1;stroke:none"
       d="m 25.626824,26.637365 v 4 h 4 v -4 z m 8,0 v 4 h 4 v -4 z m 8,0 v 4 h 4 v -4 z m -15,1 h 2 v 2 h -2 z m 8,0 h 2 v 2 h -2 z m 8,0 h 2 v 2 h -2 z"
       class="ColorScheme-Highlight"
       id="path6" />
  </g>
</svg>
