<?xml version="1.0" encoding="UTF-8" standalone="no"?>
<svg
   width="16"
   height="16"
   viewBox="0 0 16 16"
   version="1.1"
   id="svg7"
   sodipodi:docname="im-gadugadu.svg"
   inkscape:version="1.1.2 (0a00cf5339, 2022-02-04, custom)"
   xmlns:inkscape="http://www.inkscape.org/namespaces/inkscape"
   xmlns:sodipodi="http://sodipodi.sourceforge.net/DTD/sodipodi-0.dtd"
   xmlns="http://www.w3.org/2000/svg"
   xmlns:svg="http://www.w3.org/2000/svg">
  <sodipodi:namedview
     id="namedview9"
     pagecolor="#ffffff"
     bordercolor="#666666"
     borderopacity="1.0"
     inkscape:pageshadow="2"
     inkscape:pageopacity="0.0"
     inkscape:pagecheckerboard="0"
     showgrid="false"
     inkscape:zoom="15.891459"
     inkscape:cx="3.1463443"
     inkscape:cy="5.7263465"
     inkscape:window-width="1366"
     inkscape:window-height="703"
     inkscape:window-x="0"
     inkscape:window-y="37"
     inkscape:window-maximized="1"
     inkscape:current-layer="svg7" />
  <defs
     id="defs3">
    <style
       id="current-color-scheme"
       type="text/css">
   .ColorScheme-Text { color:#f1f8f8; } .ColorScheme-Highlight { color:#f1f8f8; }
  </style>
  </defs>
  <path
     style="color:#dedede;fill:currentColor;fill-opacity:1;stroke:none"
     d="M 6.9999998,2e-7 V 2.089844 c -0.913243,0.1522825 -1.754037,0.5060131 -2.476562,1.0195308 l -1.472656,-1.4726558 -1.414063,1.4140628 1.472656,1.472656 c -0.513518,0.722526 -0.867248,1.563319 -1.019531,2.476562 H 1.5e-7 v 2 H 2.0898438 c 0.152283,0.913243 0.506013,1.7540382 1.019531,2.4765622 l -1.472656,1.472657 1.414063,1.414062 1.472656,-1.472656 c 0.722525,0.513518 1.563319,0.867249 2.476562,1.019531 V 16 h 2 v -2.089844 c 0.9132431,-0.152282 1.7540382,-0.506013 2.4765622,-1.019531 l 1.472657,1.472656 1.414062,-1.414062 -1.472656,-1.472657 c 0.513518,-0.722523 0.867249,-1.5633192 1.019531,-2.4765622 H 16 v -2 H 13.910156 C 13.757874,6.0867568 13.404143,5.2459638 12.890625,4.5234378 L 14.363281,3.0507818 12.949219,1.636719 11.476562,3.1093748 C 10.754039,2.5958571 9.9132428,2.2421266 8.9999998,2.089844 V 2e-7 Z m 1,2.9999996 c 1.363958,0 2.5938082,0.544218 3.4941412,1.423829 l 0.08203,0.08203 C 12.455783,5.4061918 13,6.6360408 13,7.9999988 13,9.3639568 12.455782,10.593807 11.576172,11.49414 l -0.08203,0.08203 c -0.900335,0.879612 -2.1301842,1.423829 -3.4941422,1.423829 -1.363958,0 -2.593808,-0.544218 -3.49414,-1.423828 l -0.08203,-0.08203 c -0.879612,-0.900334 -1.42383,-2.1301832 -1.42383,-3.4941412 0,-1.363958 0.544218,-2.593808 1.423828,-3.49414 l 0.08203,-0.08203 c 0.900334,-0.879611 2.130183,-1.423829 3.494141,-1.423829 z m -2,3 c -0.554,0 -1,0.446 -1,1 0,0.554 0.446,1 1,1 0.554,0 1,-0.446 1,-1 0,-0.554 -0.446,-1 -1,-1 z m 4,0 c -0.554,0 -1,0.446 -1,1 0,0.554 0.446,1 1,1 0.5540002,0 1.0000002,-0.446 1.0000002,-1 0,-0.554 -0.446,-1 -1.0000002,-1 z m -4.908203,2.726562 -0.966797,0.242188 A 4,4 0 0 0 7.9999998,12 4,4 0 0 0 11.876953,8.9687498 L 10.90625,8.7265618 A 3,3 0 0 1 7.9999998,11 3,3 0 0 1 5.0917968,8.7265618 Z"
     class="ColorScheme-Text"
     id="path4" />
</svg>
