<?xml version="1.0" encoding="UTF-8" standalone="no"?>
<svg
   width="16"
   height="16"
   viewBox="0 0 16 16"
   version="1.1"
   id="svg7"
   sodipodi:docname="kstars_indi.svg"
   inkscape:version="1.1.2 (0a00cf5339, 2022-02-04, custom)"
   xmlns:inkscape="http://www.inkscape.org/namespaces/inkscape"
   xmlns:sodipodi="http://sodipodi.sourceforge.net/DTD/sodipodi-0.dtd"
   xmlns="http://www.w3.org/2000/svg"
   xmlns:svg="http://www.w3.org/2000/svg">
  <sodipodi:namedview
     id="namedview9"
     pagecolor="#ffffff"
     bordercolor="#666666"
     borderopacity="1.0"
     inkscape:pageshadow="2"
     inkscape:pageopacity="0.0"
     inkscape:pagecheckerboard="0"
     showgrid="false"
     inkscape:zoom="17.852083"
     inkscape:cx="6.4418252"
     inkscape:cy="8.8505077"
     inkscape:window-width="1366"
     inkscape:window-height="703"
     inkscape:window-x="0"
     inkscape:window-y="37"
     inkscape:window-maximized="1"
     inkscape:current-layer="svg7" />
  <defs
     id="defs3">
    <style
       id="current-color-scheme"
       type="text/css">
   .ColorScheme-Text { color:#f1f8f8; } .ColorScheme-Highlight { color:#f1f8f8; }
  </style>
  </defs>
  <g
     transform="matrix(0.8888559,0,0,0.8888559,-1.7773356,-2.2218429)"
     id="g10">
    <path
       style="fill:currentColor;fill-opacity:1;stroke:none"
       d="M 5,3 7.8125,18 H 13.25 L 17,3 Z M 6.5,4 A 0.5,0.5 0 0 1 7,4.5 0.5,0.5 0 0 1 6.5,5 0.5,0.5 0 0 1 6,4.5 0.5,0.5 0 0 1 6.5,4 Z m 7,0 A 0.5,0.5 0 0 1 14,4.5 0.5,0.5 0 0 1 13.5,5 0.5,0.5 0 0 1 13,4.5 0.5,0.5 0 0 1 13.5,4 Z M 10.904297,6.0019531 A 3,3 0 0 1 13.974609,8.6054688 3,3 0 0 1 11.394531,11.974609 3,3 0 0 1 8.0253906,9.3945312 3,3 0 0 1 10.605469,6.0253906 3,3 0 0 1 10.904297,6.0019531 Z M 12.5,13 A 0.5,0.5 0 0 1 13,13.5 0.5,0.5 0 0 1 12.5,14 0.5,0.5 0 0 1 12,13.5 0.5,0.5 0 0 1 12.5,13 Z m -3,2 A 0.5,0.5 0 0 1 10,15.5 0.5,0.5 0 0 1 9.5,16 0.5,0.5 0 0 1 9,15.5 0.5,0.5 0 0 1 9.5,15 Z"
       class="ColorScheme-Text"
       id="path4" />
    <path
       style="fill:currentColor;fill-opacity:0.5;stroke:none"
       d="M 19.417969,4 C 18.281035,3.9876345 15.66974,5.079043 12.939453,6.7148438 a 3,3 0 0 1 0.695313,0.8574218 c 1.941168,-1.2926695 3.386487,-1.9499976 3.8125,-1.5039062 0.3997,0.4186 -0.269486,1.4760721 -1.708985,3.0136718 0.071,0.1191002 0.113375,0.2655719 0.171875,0.3886719 2.182399,-2.177 4.547872,-4.7571062 4.013672,-5.3164062 C 19.826838,4.0526969 19.654397,4.0026 19.417969,4 Z M 8.2167969,10.113281 c -3.7893461,3.248141 -6.8243247,7.106978 -6.1132813,7.851563 0.1454999,0.1523 1.5517533,-0.233219 2.0019532,-0.449219 0.6868325,-0.2492 1.8083948,-0.710972 3.15625,-1.451172 l -0.083984,-0.451172 c -1.2961082,0.6445 -2.2110209,0.860544 -2.5292969,0.527344 -0.5743972,-0.60147 1.3760677,-2.580901 4.2734375,-4.980469 A 3,3 0 0 1 8.2167969,10.113281 Z M 2,19 v 1 h 18 v -1 z"
       class="ColorScheme-Text"
       id="path6" />
    <path
       style="fill:#fdbc4b;fill-opacity:1;stroke:none"
       d="M 6.5,4 A 0.5,0.5 0 0 0 6,4.5 0.5,0.5 0 0 0 6.5,5 0.5,0.5 0 0 0 7,4.5 0.5,0.5 0 0 0 6.5,4 Z m 7,0 A 0.5,0.5 0 0 0 13,4.5 0.5,0.5 0 0 0 13.5,5 0.5,0.5 0 0 0 14,4.5 0.5,0.5 0 0 0 13.5,4 Z M 10.904297,6.0019531 A 3,3 0 0 0 10.605469,6.0253906 3,3 0 0 0 8.0253906,9.3945312 3,3 0 0 0 11.394531,11.974609 3,3 0 0 0 13.974609,8.6054688 3,3 0 0 0 10.904297,6.0019531 Z M 12.5,13 A 0.5,0.5 0 0 0 12,13.5 0.5,0.5 0 0 0 12.5,14 0.5,0.5 0 0 0 13,13.5 0.5,0.5 0 0 0 12.5,13 Z m -3,2 A 0.5,0.5 0 0 0 9,15.5 0.5,0.5 0 0 0 9.5,16 0.5,0.5 0 0 0 10,15.5 0.5,0.5 0 0 0 9.5,15 Z"
       id="path8" />
  </g>
</svg>
