<?xml version="1.0" encoding="UTF-8" standalone="no"?>
<svg
   width="16"
   height="16"
   viewBox="0 0 16 16"
   version="1.1"
   id="svg7"
   sodipodi:docname="kstars_satellites.svg"
   inkscape:version="1.1.2 (0a00cf5339, 2022-02-04, custom)"
   xmlns:inkscape="http://www.inkscape.org/namespaces/inkscape"
   xmlns:sodipodi="http://sodipodi.sourceforge.net/DTD/sodipodi-0.dtd"
   xmlns="http://www.w3.org/2000/svg"
   xmlns:svg="http://www.w3.org/2000/svg">
  <sodipodi:namedview
     id="namedview9"
     pagecolor="#ffffff"
     bordercolor="#666666"
     borderopacity="1.0"
     inkscape:pageshadow="2"
     inkscape:pageopacity="0.0"
     inkscape:pagecheckerboard="0"
     showgrid="false"
     inkscape:zoom="12.696445"
     inkscape:cx="1.8115307"
     inkscape:cy="3.2292503"
     inkscape:window-width="1366"
     inkscape:window-height="703"
     inkscape:window-x="0"
     inkscape:window-y="37"
     inkscape:window-maximized="1"
     inkscape:current-layer="svg7" />
  <defs
     id="defs3">
    <style
       id="current-color-scheme"
       type="text/css">
   .ColorScheme-Text { color:#f1f8f8; } .ColorScheme-Highlight { color:#f1f8f8; }
  </style>
  </defs>
  <g
     transform="translate(-3,-3)"
     id="g6">
    <path
       style="fill:currentColor;fill-opacity:1;stroke:none"
       d="m 14,3 -5.2636719,7.177734 a 4.5,4.5 0 0 1 0.4492188,0.15625 C 8.6642326,10.122856 8.0970333,10 7.5,10 6.3069911,10.0012 5.1632886,10.476121 4.3203125,11.320312 a 4.5,4.5 0 0 0 -0.6269531,0.78711 l 2.09375,2.09375 -1.3964844,1.904297 a 3.5,3.5 0 0 0 1.5058594,1.501953 l 1.9023437,-1.394531 2.0957031,2.095703 A 4.5,4.5 0 0 0 10.679688,17.679688 C 11.523881,16.836711 11.998786,15.693009 12,14.5 c 10e-7,-0.581209 -0.11969,-1.132589 -0.320312,-1.642578 a 4.5,4.5 0 0 1 0.144531,0.404297 L 19,8 Z M 5.9140625,3.085937 3.0859375,5.9160151 6.7578125,9.585937 9.5859375,6.757812 Z M 14.117188,4.53125 17.46875,7.8828125 11.427734,12.314453 a 4.5,4.5 0 0 1 0.171875,0.347656 C 11.151345,11.664248 10.352692,10.863145 9.3574219,10.410156 a 4.5,4.5 0 0 1 0.3320312,0.160156 z M 7.5,11 c 1.9329966,0 3.5,1.567003 3.5,3.5 -0.0012,0.927807 -0.370696,1.817185 -1.0273438,2.472656 L 5.0273438,12.027344 C 5.6828146,11.370696 6.5721925,11.001176 7.5,11 Z m 7.742188,1.414062 -2.828126,2.830079 3.671876,3.671875 2.828124,-2.830078 z M 3.7480469,16.980469 3,18 4,19 5.0195312,18.251953 A 4.5,4.5 0 0 1 3.7480469,16.980469 Z"
       class="ColorScheme-Text"
       id="path4" />
  </g>
</svg>
