<?xml version="1.0" encoding="UTF-8" standalone="no"?>
<svg
   width="16"
   height="16"
   viewBox="0 0 16 16"
   version="1.1"
   id="svg7"
   sodipodi:docname="kt-stop-all.svg"
   inkscape:version="1.1.2 (0a00cf5339, 2022-02-04, custom)"
   xmlns:inkscape="http://www.inkscape.org/namespaces/inkscape"
   xmlns:sodipodi="http://sodipodi.sourceforge.net/DTD/sodipodi-0.dtd"
   xmlns="http://www.w3.org/2000/svg"
   xmlns:svg="http://www.w3.org/2000/svg">
  <sodipodi:namedview
     id="namedview9"
     pagecolor="#ffffff"
     bordercolor="#666666"
     borderopacity="1.0"
     inkscape:pageshadow="2"
     inkscape:pageopacity="0.0"
     inkscape:pagecheckerboard="0"
     showgrid="false"
     inkscape:zoom="18.381024"
     inkscape:cx="3.4818518"
     inkscape:cy="8.5414176"
     inkscape:window-width="1366"
     inkscape:window-height="703"
     inkscape:window-x="0"
     inkscape:window-y="37"
     inkscape:window-maximized="1"
     inkscape:current-layer="svg7" />
  <defs
     id="defs3">
    <style
       id="current-color-scheme"
       type="text/css">
   .ColorScheme-Text { color:#f1f8f8; } .ColorScheme-Highlight { color:#f1f8f8; }
  </style>
  </defs>
  <g
     transform="matrix(0.876601,0,0,0.876601,-1.642611,-1.642611)"
     id="g6">
    <path
       style="fill:currentColor;fill-opacity:1;stroke:none"
       d="m 11,3 c -4.432,0 -8,3.568 -8,8 0,4.432 3.568,8 8,8 0.339398,0 0.672624,-0.02356 1,-0.06641 V 17.925781 C 11.67354,17.973388 11.340107,18 11,18 7.122,18 4,14.878 4,11 4,7.122 7.122,4 11,4 c 3.878,0 7,3.122 7,7 0,0.6962 -0.105435,1.3662 -0.292969,2 h 1.033203 C 18.903948,12.3603 19,11.6921 19,11 19,6.568 15.432,3 11,3 Z M 8,8 v 6 h 6 V 8 Z m 7,6 v 1 h 4 v -1 z m -1,2 v 1 h 5 v -1 z m -1,2 v 1 h 1 5 v -1 h -5 z"
       class="ColorScheme-Text"
       id="path4" />
  </g>
</svg>
