<?xml version="1.0" encoding="UTF-8" standalone="no"?>
<svg
   style="enable-background:new"
   width="16"
   height="16"
   version="1.1"
   id="svg12"
   sodipodi:docname="object-move.svg"
   inkscape:version="1.1.2 (0a00cf5339, 2022-02-04, custom)"
   xmlns:inkscape="http://www.inkscape.org/namespaces/inkscape"
   xmlns:sodipodi="http://sodipodi.sourceforge.net/DTD/sodipodi-0.dtd"
   xmlns="http://www.w3.org/2000/svg"
   xmlns:svg="http://www.w3.org/2000/svg">
  <defs
     id="defs16" />
  <sodipodi:namedview
     id="namedview14"
     pagecolor="#ffffff"
     bordercolor="#666666"
     borderopacity="1.0"
     inkscape:pageshadow="2"
     inkscape:pageopacity="0.0"
     inkscape:pagecheckerboard="0"
     showgrid="false"
     inkscape:zoom="32.25"
     inkscape:cx="8"
     inkscape:cy="8"
     inkscape:window-width="1366"
     inkscape:window-height="703"
     inkscape:window-x="0"
     inkscape:window-y="37"
     inkscape:window-maximized="1"
     inkscape:current-layer="svg12" />
  <g
     transform="translate(-585.00291,59.000005)"
     id="g10"
     style="fill:#ffffff">
    <path
       style="fill-opacity:0.49803922;fill:#ffffff"
       d="m 593.0002,-43.481386 -3,-3.5 2,0 0,-2 2,0 0,2 2,0 z"
       id="path2" />
    <path
       style="fill-opacity:0.49803922;fill:#ffffff"
       d="m 593.0002,-58.481386 -3,3.5 2,0 0,2 2,0 0,-2 2,0 z"
       id="path4" />
    <path
       style="fill-opacity:0.49803922;fill:#ffffff"
       d="m 600.5002,-50.981386 -3.5,-3 0,2 -2,0 0,2 2,0 -4e-5,2 z"
       id="path6" />
    <path
       style="fill-opacity:0.49803922;fill:#ffffff"
       d="m 585.5002,-50.981386 3.5,-3 0,2 2,0 0,2 -1.99996,0 -4e-5,2 z"
       id="path8" />
  </g>
</svg>
