<?xml version="1.0" encoding="UTF-8" standalone="no"?>
<svg
   width="16"
   height="16"
   viewBox="0 0 16 16"
   version="1.1"
   id="svg7"
   sodipodi:docname="view-certificate-add.svg"
   inkscape:version="1.1.2 (0a00cf5339, 2022-02-04, custom)"
   xmlns:inkscape="http://www.inkscape.org/namespaces/inkscape"
   xmlns:sodipodi="http://sodipodi.sourceforge.net/DTD/sodipodi-0.dtd"
   xmlns="http://www.w3.org/2000/svg"
   xmlns:svg="http://www.w3.org/2000/svg">
  <sodipodi:namedview
     id="namedview9"
     pagecolor="#ffffff"
     bordercolor="#666666"
     borderopacity="1.0"
     inkscape:pageshadow="2"
     inkscape:pageopacity="0.0"
     inkscape:pagecheckerboard="0"
     showgrid="false"
     inkscape:zoom="22.436853"
     inkscape:cx="7.4431114"
     inkscape:cy="9.6270184"
     inkscape:window-width="1366"
     inkscape:window-height="703"
     inkscape:window-x="0"
     inkscape:window-y="37"
     inkscape:window-maximized="1"
     inkscape:current-layer="svg7" />
  <defs
     id="defs3">
    <style
       id="current-color-scheme"
       type="text/css">
   .ColorScheme-Text { color:#f1f8f8; } .ColorScheme-Highlight { color:#f1f8f8; }
  </style>
  </defs>
  <path
     style="color:#dedede;fill:currentColor;fill-opacity:1;stroke:none"
     d="M -2e-7,0.99999985 V 13 H 10 V 12 H 0.9999998 V 1.9999998 H 15 V 10 h 1 V 0.99999985 Z m 4.5,1.99999995 c -0.831,0 -1.5,0.669 -1.5,1.5 v 1.5 h -1 v 3 h 5 v -3 h -1 v -1.5 c 0,-0.831 -0.669,-1.5 -1.5,-1.5 z m 0,1 c 0.277,0 0.5,0.223 0.5,0.5 v 1.5 h -1 v -1.5 c 0,-0.277 0.223,-0.5 0.5,-0.5 z m 3.5,0 v 1 H 14 v -1 z m 0,2 v 1 H 13 v -1 z m 0,2 v 1 H 12 v -1 z M 13,10 v 2 h -2 v 1 h 2 v 2 h 1 v -2 h 2 v -1 h -2 v -2 z"
     class="ColorScheme-Text"
     id="path4" />
</svg>
