<?xml version="1.0" encoding="UTF-8" standalone="no"?>
<svg
   width="16"
   height="16"
   viewBox="0 0 16 16"
   version="1.1"
   id="svg7"
   sodipodi:docname="view-certificate-export-server.svg"
   inkscape:version="1.1.2 (0a00cf5339, 2022-02-04, custom)"
   xmlns:inkscape="http://www.inkscape.org/namespaces/inkscape"
   xmlns:sodipodi="http://sodipodi.sourceforge.net/DTD/sodipodi-0.dtd"
   xmlns="http://www.w3.org/2000/svg"
   xmlns:svg="http://www.w3.org/2000/svg">
  <sodipodi:namedview
     id="namedview9"
     pagecolor="#ffffff"
     bordercolor="#666666"
     borderopacity="1.0"
     inkscape:pageshadow="2"
     inkscape:pageopacity="0.0"
     inkscape:pagecheckerboard="0"
     showgrid="false"
     inkscape:zoom="10.1872"
     inkscape:cx="0.78529921"
     inkscape:cy="1.6687608"
     inkscape:window-width="1366"
     inkscape:window-height="703"
     inkscape:window-x="0"
     inkscape:window-y="37"
     inkscape:window-maximized="1"
     inkscape:current-layer="svg7" />
  <defs
     id="defs3">
    <style
       id="current-color-scheme"
       type="text/css">
   .ColorScheme-Text { color:#f1f8f8; } .ColorScheme-Highlight { color:#f1f8f8; }
  </style>
  </defs>
  <path
     style="color:#dedede;fill:currentColor;fill-opacity:1;stroke:none;stroke-width:0.888889"
     d="M 0,1.7777778 V 8.8888889 H 0.8888889 V 2.6666668 H 13.333333 v 4.4444443 h 0.888889 V 1.7777778 Z m 4,1.777778 c -0.7386667,0 -1.3333333,0.594666 -1.3333333,1.333333 v 1.333333 H 1.7777778 V 8.8888889 H 6.2222222 V 6.2222218 H 5.3333333 V 4.8888888 C 5.3333333,4.1502218 4.7386667,3.5555558 4,3.5555558 Z m 0,0.888889 c 0.2462222,0 0.4444444,0.198222 0.4444444,0.444444 v 1.333333 H 3.5555556 v -1.333333 c 0,-0.246222 0.1982222,-0.444444 0.4444444,-0.444444 z m 3.1111111,0 v 0.888889 h 5.3333329 v -0.888889 z m 0,1.777777 V 7.1111111 H 11.555556 V 6.2222218 Z M 7.1111111,8 V 8.8888889 H 10.666667 V 8 Z m 5.7777779,0 -0.628472,0.628472 2.038195,2.038195 H 10.482639 9.7777778 v 0.888889 h 4.5208342 l -2.038195,2.038194 0.628472,0.628472 2.482639,-2.482639 L 16,11.111111 15.371528,10.482639 Z M 0,9.7777778 V 14.222222 H 4.4444444 V 9.7777778 Z m 1.7777778,0.8888892 h 1.7777778 v 0.888889 H 1.7777778 Z m 3.5555555,0.888889 v 0.888889 h 3.5555556 v -0.888889 z m -4.4444444,0.888889 h 2.6666667 v 0.888888 H 0.8888889 Z"
     class="ColorScheme-Text"
     id="path4" />
</svg>
