<?xml version="1.0" encoding="UTF-8" standalone="no"?>
<svg
   width="16"
   height="16"
   viewBox="0 0 16 16"
   version="1.1"
   id="svg7"
   sodipodi:docname="view-certificate-server-configure.svg"
   inkscape:version="1.1.2 (0a00cf5339, 2022-02-04, custom)"
   xmlns:inkscape="http://www.inkscape.org/namespaces/inkscape"
   xmlns:sodipodi="http://sodipodi.sourceforge.net/DTD/sodipodi-0.dtd"
   xmlns="http://www.w3.org/2000/svg"
   xmlns:svg="http://www.w3.org/2000/svg">
  <sodipodi:namedview
     id="namedview9"
     pagecolor="#ffffff"
     bordercolor="#666666"
     borderopacity="1.0"
     inkscape:pageshadow="2"
     inkscape:pageopacity="0.0"
     inkscape:pagecheckerboard="0"
     showgrid="false"
     inkscape:zoom="13.052902"
     inkscape:cx="4.826513"
     inkscape:cy="3.6773433"
     inkscape:window-width="1366"
     inkscape:window-height="703"
     inkscape:window-x="0"
     inkscape:window-y="37"
     inkscape:window-maximized="1"
     inkscape:current-layer="svg7" />
  <defs
     id="defs3">
    <style
       id="current-color-scheme"
       type="text/css">
   .ColorScheme-Text { color:#f1f8f8; } .ColorScheme-Highlight { color:#f1f8f8; }
  </style>
  </defs>
  <path
     style="color:#dedede;fill:currentColor;fill-opacity:1;stroke:none"
     d="m -2e-7,1.0000003 v 8.0000005 h 1 V 2.0000003 H 15 v 5.0000004 h 1 V 1.0000003 Z m 4.5,2 c -0.831,0 -1.5,0.6689999 -1.5,1.4999999 v 1.5000005 h -1 V 9.0000008 H 7.0000002 V 6.0000007 H 5.9999998 V 4.5000003 c 0,-0.831 -0.669,-1.5 -1.5,-1.5 z m 0,0.9999999 c 0.277,0 0.5,0.223 0.5,0.5 v 1.5000005 h -1 V 4.5000003 c 0,-0.277 0.223,-0.5 0.5,-0.5000001 z m 3.5000004,0 v 1 H 14 v -1 z m 0,2.0000005 v 1 H 13 v -1 z m 0,2.0000001 v 1 H 12 v -1 z M -2e-7,10.000001 V 15 h 5 v -4.999999 z m 11.0000002,0 v 1 h 5 v -1 z m -9.0000002,1 h 2 V 12 h -2 z m 4,0.999999 v 1 H 10 V 12 Z M 11,12 v 1 h 5 V 12 Z M 0.9999998,13 h 3 v 1 h -3 z M 11,14 v 1 h 5 v -1 z"
     class="ColorScheme-Text"
     id="path4" />
</svg>
