<?xml version="1.0" encoding="UTF-8" standalone="no"?>
<svg
   width="16"
   height="16"
   viewBox="0 0 16 16"
   version="1.1"
   id="svg7"
   sodipodi:docname="view-certificate.svg"
   inkscape:version="1.1.2 (0a00cf5339, 2022-02-04, custom)"
   xmlns:inkscape="http://www.inkscape.org/namespaces/inkscape"
   xmlns:sodipodi="http://sodipodi.sourceforge.net/DTD/sodipodi-0.dtd"
   xmlns="http://www.w3.org/2000/svg"
   xmlns:svg="http://www.w3.org/2000/svg">
  <sodipodi:namedview
     id="namedview9"
     pagecolor="#ffffff"
     bordercolor="#666666"
     borderopacity="1.0"
     inkscape:pageshadow="2"
     inkscape:pageopacity="0.0"
     inkscape:pagecheckerboard="0"
     showgrid="false"
     inkscape:zoom="4.7494382"
     inkscape:cx="-1.4738585"
     inkscape:cy="5.4743317"
     inkscape:window-width="1366"
     inkscape:window-height="703"
     inkscape:window-x="0"
     inkscape:window-y="37"
     inkscape:window-maximized="1"
     inkscape:current-layer="svg7" />
  <defs
     id="defs3">
    <style
       id="current-color-scheme"
       type="text/css">
   .ColorScheme-Text { color:#f1f8f8; } .ColorScheme-Highlight { color:#f1f8f8; }
  </style>
  </defs>
  <path
     style="color:#dedede;fill:currentColor;fill-opacity:1;stroke:none"
     d="M -1e-7,2 V 14 H 16 V 2 Z m 1,1 H 15 V 13 H 0.9999999 Z m 3.5,1 c -0.831,0 -1.5,0.669 -1.5,1.5 v 1.4999999 h -1 V 10 h 5 V 6.9999999 h -1 V 5.5 c 0,-0.831 -0.669,-1.5 -1.5,-1.5 z m 0,1 c 0.277,0 0.5,0.223 0.5,0.5 v 1.4999999 h -1 V 5.5 c 0,-0.277 0.223,-0.5 0.5,-0.5 z M 8.0000001,5 V 6 H 14 V 5 Z m 0,1.9999999 v 1 H 13 v -1 z m 0,2.0000001 v 1 H 12 V 9 Z"
     class="ColorScheme-Text"
     id="path4" />
</svg>
