<?xml version="1.0" encoding="UTF-8" standalone="no"?>
<svg
   width="16"
   height="16"
   viewBox="0 0 16 16"
   version="1.1"
   id="svg7"
   sodipodi:docname="view-certificate-import.svg"
   inkscape:version="1.1.2 (0a00cf5339, 2022-02-04, custom)"
   xmlns:inkscape="http://www.inkscape.org/namespaces/inkscape"
   xmlns:sodipodi="http://sodipodi.sourceforge.net/DTD/sodipodi-0.dtd"
   xmlns="http://www.w3.org/2000/svg"
   xmlns:svg="http://www.w3.org/2000/svg">
  <sodipodi:namedview
     id="namedview9"
     pagecolor="#ffffff"
     bordercolor="#666666"
     borderopacity="1.0"
     inkscape:pageshadow="2"
     inkscape:pageopacity="0.0"
     inkscape:pagecheckerboard="0"
     showgrid="false"
     inkscape:zoom="17.122832"
     inkscape:cx="3.9129042"
     inkscape:cy="6.5993758"
     inkscape:window-width="1366"
     inkscape:window-height="703"
     inkscape:window-x="0"
     inkscape:window-y="37"
     inkscape:window-maximized="1"
     inkscape:current-layer="svg7" />
  <defs
     id="defs3">
    <style
       id="current-color-scheme"
       type="text/css">
   .ColorScheme-Text { color:#f1f8f8; } .ColorScheme-Highlight { color:#f1f8f8; }
  </style>
  </defs>
  <path
     style="color:#dedede;fill:currentColor;fill-opacity:1;stroke:none;stroke-width:0.888889"
     d="M 2.5e-7,1.7777775 V 12.444444 H 8.8888888 V 11.555556 H 0.88888915 V 2.6666664 H 13.333334 V 7.111111 h 0.888889 V 1.7777775 Z M 4.0000004,3.5555553 c -0.7386667,0 -1.3333334,0.5946667 -1.3333334,1.3333334 V 6.2222221 H 1.7777781 V 8.8888885 H 6.2222223 V 6.2222221 H 5.3333338 V 4.8888887 c 0,-0.7386667 -0.5946667,-1.3333334 -1.3333334,-1.3333334 z m 0,0.8888889 c 0.2462222,0 0.4444445,0.1982223 0.4444445,0.4444445 V 6.2222221 H 3.555556 V 4.8888887 c 0,-0.2462222 0.1982222,-0.4444445 0.4444444,-0.4444445 z m 3.1111104,0 v 0.888889 h 5.3333342 v -0.888889 z m 0,1.7777779 V 7.111111 H 11.555556 V 6.2222221 Z m 0,1.7777774 v 0.888889 h 3.5555562 v -0.888889 z m 5.7777782,0 -2.482638,2.4826395 -0.6284732,0.628473 0.6284732,0.628472 2.482638,2.482639 0.628472,-0.628472 -2.038194,-2.038195 H 16 v -0.888889 h -0.704861 -3.815972 l 2.038194,-2.0381955 z"
     class="ColorScheme-Text"
     id="path4" />
</svg>
