<?xml version="1.0" encoding="UTF-8" standalone="no"?>
<svg
   width="16"
   height="16"
   viewBox="0 0 16 16"
   version="1.1"
   id="svg9"
   sodipodi:docname="view-certificate-export-secret.svg"
   inkscape:version="1.1.2 (0a00cf5339, 2022-02-04, custom)"
   xmlns:inkscape="http://www.inkscape.org/namespaces/inkscape"
   xmlns:sodipodi="http://sodipodi.sourceforge.net/DTD/sodipodi-0.dtd"
   xmlns="http://www.w3.org/2000/svg"
   xmlns:svg="http://www.w3.org/2000/svg">
  <sodipodi:namedview
     id="namedview11"
     pagecolor="#ffffff"
     bordercolor="#666666"
     borderopacity="1.0"
     inkscape:pageshadow="2"
     inkscape:pageopacity="0.0"
     inkscape:pagecheckerboard="0"
     showgrid="false"
     inkscape:zoom="6.907391"
     inkscape:cx="-12.595204"
     inkscape:cy="-16.793606"
     inkscape:window-width="1366"
     inkscape:window-height="703"
     inkscape:window-x="0"
     inkscape:window-y="37"
     inkscape:window-maximized="1"
     inkscape:current-layer="svg9" />
  <defs
     id="defs3">
    <style
       id="current-color-scheme"
       type="text/css">
   .ColorScheme-Text { color:#f1f8f8; } .ColorScheme-Highlight { color:#f1f8f8; }
  </style>
  </defs>
  <g
     id="g1001"
     transform="translate(-2.581797,-3.383109)">
    <path
       style="color:#dedede;fill:currentColor;fill-opacity:1;stroke:none;stroke-width:0.888889"
       d="M 2.581797,5.1608869 V 15.827554 h 8.888889 V 14.938665 H 3.4706859 V 6.0497758 H 15.91513 V 10.49422 h 0.888889 V 5.1608869 Z m 4,1.7777778 c -0.7386667,0 -1.3333333,0.5946666 -1.3333333,1.3333333 V 9.6053314 H 4.3595748 V 12.271998 H 8.8040192 V 9.6053314 H 7.9151303 V 8.271998 c 0,-0.7386667 -0.5946666,-1.3333333 -1.3333333,-1.3333333 z m 0,0.8888889 c 0.2462222,0 0.4444444,0.1982222 0.4444444,0.4444444 V 9.6053314 H 6.1373526 V 8.271998 c 0,-0.2462222 0.1982222,-0.4444444 0.4444444,-0.4444444 z m 3.1111111,0 V 8.7164425 H 15.026241 V 7.8275536 Z m 0,1.7777778 V 10.49422 H 14.137353 V 9.6053314 Z m 0,1.7777776 v 0.888889 h 3.5555559 v -0.888889 z"
       class="ColorScheme-Text"
       id="path4" />
    <path
       style="color:#dedede;fill:currentColor;fill-opacity:0.5;stroke:none;stroke-width:0.888889"
       d="m 15.470686,11.383109 -0.628472,0.628472 2.038195,2.038195 h -3.815973 -0.704861 v 0.888889 h 4.520834 l -2.038195,2.038194 0.628472,0.628472 2.482639,-2.482639 0.628472,-0.628472 -0.628472,-0.628472 z"
       class="ColorScheme-Text"
       id="path6" />
  </g>
</svg>
