<?xml version="1.0" encoding="UTF-8" standalone="no"?>
<svg
   width="16"
   height="16"
   viewBox="0 0 16 16"
   version="1.1"
   id="svg7"
   sodipodi:docname="view-certificate-export.svg"
   inkscape:version="1.1.2 (0a00cf5339, 2022-02-04, custom)"
   xmlns:inkscape="http://www.inkscape.org/namespaces/inkscape"
   xmlns:sodipodi="http://sodipodi.sourceforge.net/DTD/sodipodi-0.dtd"
   xmlns="http://www.w3.org/2000/svg"
   xmlns:svg="http://www.w3.org/2000/svg">
  <sodipodi:namedview
     id="namedview9"
     pagecolor="#ffffff"
     bordercolor="#666666"
     borderopacity="1.0"
     inkscape:pageshadow="2"
     inkscape:pageopacity="0.0"
     inkscape:pagecheckerboard="0"
     showgrid="false"
     inkscape:zoom="9.8111361"
     inkscape:cx="3.4654499"
     inkscape:cy="-2.2423499"
     inkscape:window-width="1366"
     inkscape:window-height="703"
     inkscape:window-x="0"
     inkscape:window-y="37"
     inkscape:window-maximized="1"
     inkscape:current-layer="svg7" />
  <defs
     id="defs3">
    <style
       id="current-color-scheme"
       type="text/css">
   .ColorScheme-Text { color:#f1f8f8; } .ColorScheme-Highlight { color:#f1f8f8; }
  </style>
  </defs>
  <path
     style="color:#dedede;fill:currentColor;fill-opacity:1;stroke:none;stroke-width:0.888889"
     d="M 4.4999999e-8,1.7777779 V 12.444445 H 8.888889 V 11.555556 H 0.88888893 V 2.6666668 H 13.333333 v 4.4444445 h 0.888889 V 1.7777779 Z M 4.0000001,3.5555557 c -0.7386667,0 -1.3333333,0.5946667 -1.3333333,1.3333333 V 6.2222224 H 1.7777779 V 8.8888891 H 6.2222224 V 6.2222224 H 5.3333335 V 4.888889 c 0,-0.7386666 -0.5946667,-1.3333333 -1.3333334,-1.3333333 z m 0,0.8888889 c 0.2462222,0 0.4444445,0.1982222 0.4444445,0.4444444 V 6.2222224 H 3.5555557 V 4.888889 c 0,-0.2462222 0.1982222,-0.4444444 0.4444444,-0.4444444 z m 3.1111111,0 V 5.3333335 H 12.444445 V 4.4444446 Z m 0,1.7777778 V 7.1111113 H 11.555556 V 6.2222224 Z m 0,1.7777778 V 8.8888891 H 10.666667 V 8.0000002 Z m 5.7777778,0 -0.628472,0.6284721 2.038195,2.0381947 H 10.482639 9.7777778 v 0.888889 h 4.5208342 l -2.038195,2.038194 0.628472,0.628472 2.482639,-2.482639 L 16,11.111111 15.371528,10.482639 Z"
     class="ColorScheme-Text"
     id="path4" />
</svg>
