<?xml version="1.0" encoding="UTF-8" standalone="no"?>
<svg
   width="16"
   height="16"
   viewBox="0 0 16 16"
   version="1.1"
   id="svg7"
   sodipodi:docname="view-bank-account-savings.svg"
   inkscape:version="1.1.2 (0a00cf5339, 2022-02-04, custom)"
   xmlns:inkscape="http://www.inkscape.org/namespaces/inkscape"
   xmlns:sodipodi="http://sodipodi.sourceforge.net/DTD/sodipodi-0.dtd"
   xmlns="http://www.w3.org/2000/svg"
   xmlns:svg="http://www.w3.org/2000/svg">
  <sodipodi:namedview
     id="namedview9"
     pagecolor="#ffffff"
     bordercolor="#666666"
     borderopacity="1.0"
     inkscape:pageshadow="2"
     inkscape:pageopacity="0.0"
     inkscape:pagecheckerboard="0"
     showgrid="false"
     inkscape:zoom="13.570648"
     inkscape:cx="4.6423724"
     inkscape:cy="5.3792569"
     inkscape:window-width="1366"
     inkscape:window-height="703"
     inkscape:window-x="0"
     inkscape:window-y="37"
     inkscape:window-maximized="1"
     inkscape:current-layer="svg7" />
  <defs
     id="defs3">
    <style
       id="current-color-scheme"
       type="text/css">
   .ColorScheme-Text { color:#f1f8f8; } .ColorScheme-Highlight { color:#f1f8f8; }
  </style>
  </defs>
  <path
     style="color:#dedede;fill:currentColor;fill-opacity:1;stroke:none"
     d="M -5e-8,-9.9999999e-8 V 0.9999999 16 h 1 5.99999995 V 15 H 0.99999995 V 0.9999999 H 15 v 8.0000002 h 1 V 0.9999999 -9.9999999e-8 H 0.99999995 Z M 1.9999999,1.9999999 v 1 V 14 h 1 4 v -1 h -4 V 2.9999999 H 13 v 3 h -1 v 2 h 2 v -2 -4 z m 4,4 c -1.108,0 -2,0.892 -2,2 0,1.1080002 0.892,2.0000001 2,2.0000001 C 7.1079999,10 8,9.1080001 8,7.9999999 c 0,-1.108 -0.8920001,-2 -2.0000001,-2 z m 0,1 c 0.554,0 1,0.446 1,1 0,0.5540002 -0.446,1.0000002 -1,1.0000002 -0.554,0 -1,-0.446 -1,-1.0000002 0,-0.554 0.446,-1 1,-1 z M 8.0000001,10 v 6 H 16 v -6 z m 1,1 H 15 v 1 h -1 v 2 h 1 v 1 H 9.0000001 V 14 H 10 V 12 H 9.0000001 Z M 12,12 c -0.554,0 -1,0.446 -1,1 0,0.554 0.446,1 1,1 0.554,0 1,-0.446 1,-1 0,-0.554 -0.446,-1 -1,-1 z"
     class="ColorScheme-Text"
     id="path4" />
</svg>
