<?xml version="1.0" encoding="UTF-8" standalone="no"?>
<svg
   width="32"
   height="32"
   version="1.1"
   id="svg1"
   sodipodi:docname="start-here.svg"
   inkscape:version="1.3.2 (091e20ef0f, 2023-11-25, custom)"
   xmlns:inkscape="http://www.inkscape.org/namespaces/inkscape"
   xmlns:sodipodi="http://sodipodi.sourceforge.net/DTD/sodipodi-0.dtd"
   xmlns="http://www.w3.org/2000/svg"
   xmlns:svg="http://www.w3.org/2000/svg">
  <sodipodi:namedview
     id="namedview1"
     pagecolor="#ffffff"
     bordercolor="#000000"
     borderopacity="0.25"
     inkscape:showpageshadow="2"
     inkscape:pageopacity="0.0"
     inkscape:pagecheckerboard="0"
     inkscape:deskcolor="#d1d1d1"
     inkscape:zoom="25.34375"
     inkscape:cx="16"
     inkscape:cy="15.980271"
     inkscape:window-width="1920"
     inkscape:window-height="1015"
     inkscape:window-x="0"
     inkscape:window-y="0"
     inkscape:window-maximized="1"
     inkscape:current-layer="svg1" />
  <defs
     id="defs1">
    <style
       id="current-color-scheme"
       type="text/css">.ColorScheme-Text { color:#cccccc; }</style>
  </defs>
  <path
     d="M 24.648856,20.265873 C 24.713656,14.342703 25.323251,3.1515719 13.985728,4.0563688 2.7921909,4.9575598 5.7597718,16.782291 5.5929738,20.742267 c -0.147576,2.095188 -0.842396,4.655972 -1.825189,7.262358 h 3.02518 c 0.312018,-1.103993 0.539995,-2.197188 0.638401,-3.237581 0.18238,0.12722 0.37798,0.249595 0.586794,0.367221 0.338432,0.200416 0.629997,0.465604 0.938397,0.746394 0.719988,0.656391 1.5371892,1.401589 3.1331782,1.493993 0.10676,0.0064 0.21479,0.0096 0.320404,0.0096 1.615189,0 2.719182,-0.706794 3.607175,-1.274391 0.4248,-0.272374 0.791994,-0.507598 1.137595,-0.620396 0.982798,-0.307218 1.840787,-0.803997 2.481584,-1.435195 0.1008,-0.09838 0.19316,-0.200392 0.280806,-0.303586 0.357626,1.309191 0.847192,2.783982 1.389585,4.253977 h 6.460764 C 26.214835,25.609589 24.615244,23.261203 24.64884,20.266025 Z M 6.6765688,17.043887 v -0.0012 c -0.11162,-1.933186 0.813595,-3.557977 2.065184,-3.631179 1.251595,-0.0732 2.3567872,1.435193 2.4683852,3.367181 v 0.0012 c 0.0064,0.1044 0.0088,0.207616 0.0088,0.309594 -0.39601,0.0996 -0.754796,0.24479 -1.075196,0.413992 l -0.0036,-0.04314 v -0.0012 c -0.10678,-1.096797 -0.6923932,-1.924791 -1.3091912,-1.850393 -0.615601,0.0756 -1.028397,1.025996 -0.920397,2.122793 0.047,0.478787 0.18364,0.905991 0.375604,1.229993 -0.04798,0.03732 -0.18238,0.1356 -0.337172,0.249596 -0.11642,0.0852 -0.25919,0.18838 -0.429596,0.314393 -0.465603,-0.611995 -0.784795,-1.490392 -0.842393,-2.481584 z m 12.6827232,4.777177 c -0.0446,1.021189 -1.381197,1.982386 -2.61479,2.367582 l -0.0074,0.0024 c -0.513598,0.16682 -0.97079,0.459594 -1.455589,0.769194 -0.813596,0.520797 -1.655989,1.059597 -2.871582,1.059597 -0.08034,0 -0.16202,-0.0024 -0.242384,-0.0074 -1.113651,-0.06482 -1.634449,-0.538828 -2.2932462,-1.140023 -0.347978,-0.316818 -0.707994,-0.645596 -1.171196,-0.916794 l -0.011,-0.0064 c -1.000781,-0.565163 -1.622372,-1.267165 -1.661974,-1.88036 -0.0194,-0.303584 0.11642,-0.567594 0.403181,-0.782394 0.624098,-0.467929 1.042894,-0.773909 1.318895,-0.976709 0.30722,-0.224396 0.400758,-0.291614 0.469192,-0.357624 0.04918,-0.04556 0.10202,-0.09718 0.1596,-0.15358 0.572398,-0.556791 1.5311912,-1.489189 3.0035822,-1.489189 0.899993,0 1.895992,0.346816 2.95678,1.028394 0.499201,0.325197 0.934795,0.475199 1.485593,0.665997 0.377981,0.1308 0.807595,0.278384 1.382393,0.524398 l 0.0096,0.0046 c 0.535201,0.219606 1.168795,0.621595 1.139999,1.286393 z m -0.295204,-2.399986 c -0.1032,-0.05162 -0.211202,-0.1008 -0.322826,-0.14756 -0.518397,-0.22081 -0.933599,-0.37202 -1.277993,-0.492 0.1908,-0.37202 0.308384,-0.836393 0.319194,-1.341589 0.02666,-1.227595 -0.592798,-2.22479 -1.382393,-2.225986 -0.790792,-0.0024 -1.451995,0.991189 -1.478393,2.218784 -0.0012,0.04072 -0.0012,0.0804 0,0.12 -0.487206,-0.223192 -0.966003,-0.386414 -1.433999,-0.485996 -0.0024,-0.047 -0.0046,-0.09238 -0.0064,-0.13918 v -0.0012 c -0.04556,-2.235586 1.327191,-4.087177 3.064778,-4.133973 1.737594,-0.047 3.183581,1.726791 3.229183,3.963577 v 0.0012 c 0.0204,1.01159 -0.249595,1.941585 -0.711595,2.663985 z"
     fill="#eeeeee"
     fill-rule="nonzero"
     id="path27"
     sodipodi:nodetypes="cccccccccscccccccccsccccccccccccccccscccccccccsccccccccccccccccsccc"
     style="fill:#cccccc;fill-opacity:1;stroke-width:1.19999" />
</svg>
