<?xml version="1.0" encoding="UTF-8" standalone="no"?>
<svg
   width="22"
   height="22"
   version="1.1"
   id="svg1"
   sodipodi:docname="start-here-symbolic.svg"
   inkscape:version="1.3.2 (091e20ef0f, 2023-11-25, custom)"
   xmlns:inkscape="http://www.inkscape.org/namespaces/inkscape"
   xmlns:sodipodi="http://sodipodi.sourceforge.net/DTD/sodipodi-0.dtd"
   xmlns="http://www.w3.org/2000/svg"
   xmlns:svg="http://www.w3.org/2000/svg">
  <sodipodi:namedview
     id="namedview1"
     pagecolor="#ffffff"
     bordercolor="#000000"
     borderopacity="0.25"
     inkscape:showpageshadow="2"
     inkscape:pageopacity="0.0"
     inkscape:pagecheckerboard="0"
     inkscape:deskcolor="#d1d1d1"
     inkscape:zoom="36.863636"
     inkscape:cx="11"
     inkscape:cy="11.013564"
     inkscape:window-width="1920"
     inkscape:window-height="1015"
     inkscape:window-x="0"
     inkscape:window-y="0"
     inkscape:window-maximized="1"
     inkscape:current-layer="svg1" />
  <defs
     id="defs1">
    <style
       id="current-color-scheme"
       type="text/css">
   .ColorScheme-Text { color:#f2f2f2; } .ColorScheme-Highlight { color:#4285f4; }
  </style>
  </defs>
  <path
     d="m 16.180674,13.488426 c 0.0378,-3.455182 0.393398,-9.9833421 -6.2201585,-9.4555445 -6.5295624,0.525695 -4.798474,7.4234555 -4.895773,9.7334405 -0.086086,1.222193 -0.4913972,2.715984 -1.064693,4.236376 h 1.764688 c 0.182011,-0.643996 0.314998,-1.281693 0.372401,-1.888589 0.106388,0.07421 0.220488,0.145597 0.342296,0.214212 0.197419,0.11691 0.367499,0.271603 0.547399,0.435397 0.419992,0.382895 0.896693,0.817593 1.827687,0.871495 0.06228,0.0037 0.125294,0.0056 0.186902,0.0056 0.942193,0 1.5861895,-0.412296 2.1041855,-0.743394 0.2478,-0.158885 0.461997,-0.296099 0.663598,-0.361898 0.573298,-0.17921 1.073792,-0.468998 1.44759,-0.837197 0.0588,-0.05739 0.112677,-0.116895 0.163804,-0.177091 0.208615,0.763694 0.494195,1.623989 0.810591,2.481486 H 17.99997 C 17.094162,16.605594 16.161067,15.235702 16.180665,13.488515 Z M 5.6968405,11.608935 v -6.99e-4 c -0.06511,-1.127692 0.474597,-2.075488 1.20469,-2.1181891 0.730098,-0.0427 1.374792,0.8371971 1.439891,1.9641901 v 7.01e-4 c 0.0037,0.0609 0.0051,0.121109 0.0051,0.180597 -0.231006,0.0581 -0.440298,0.142794 -0.627198,0.241495 l -0.0021,-0.02517 v -7.01e-4 c -0.06225,-0.639794 -0.403862,-1.12279 -0.76366,-1.079391 -0.359101,0.0441 -0.599899,0.598497 -0.536899,1.238295 0.02742,0.279293 0.107123,0.528495 0.219102,0.717496 -0.02799,0.02177 -0.106388,0.0791 -0.196683,0.145598 -0.06791,0.0497 -0.151194,0.109888 -0.250598,0.183396 -0.271602,-0.356997 -0.457797,-0.869396 -0.491396,-1.44759 z m 7.3982545,2.786686 c -0.02602,0.595693 -0.805698,1.156392 -1.525294,1.381089 l -0.0043,0.0014 c -0.299599,0.09731 -0.566294,0.268096 -0.849094,0.448696 -0.474597,0.303799 -0.9659935,0.618099 -1.6750895,0.618099 -0.04687,0 -0.09451,-0.0014 -0.141391,-0.0043 -0.64963,-0.03781 -0.953428,-0.314316 -1.337727,-0.665013 -0.202987,-0.184811 -0.412996,-0.376598 -0.683197,-0.534797 l -0.0064,-0.0037 c -0.583789,-0.329679 -0.946384,-0.739179 -0.969485,-1.096877 -0.01132,-0.17709 0.06791,-0.331096 0.235189,-0.456396 0.364057,-0.272959 0.608355,-0.451447 0.769356,-0.569747 0.179211,-0.130898 0.233775,-0.170108 0.273695,-0.208614 0.02869,-0.02658 0.05951,-0.05669 0.0931,-0.08959 0.333898,-0.324795 0.893194,-0.868694 1.752089,-0.868694 0.524996,0 1.1059965,0.202309 1.7247885,0.599896 0.291201,0.189699 0.545298,0.2772 0.866596,0.388499 0.220489,0.0763 0.471097,0.16239 0.806396,0.305898 l 0.0056,0.0027 c 0.312201,0.128103 0.681797,0.362597 0.665,0.750396 z m -0.172202,-1.399992 c -0.0602,-0.03011 -0.123201,-0.0588 -0.188315,-0.08608 -0.302398,-0.128806 -0.544599,-0.217012 -0.745496,-0.287 0.1113,-0.217011 0.179891,-0.487896 0.186197,-0.782593 0.01555,-0.716097 -0.345799,-1.297795 -0.806396,-1.298492 -0.461295,-0.0014 -0.846997,0.578194 -0.862396,1.294291 -6.98e-4,0.02375 -6.98e-4,0.0469 0,0.07 -0.284203,-0.130196 -0.5635025,-0.225408 -0.8365005,-0.283498 -0.0014,-0.02742 -0.0027,-0.05389 -0.0037,-0.08119 v -7.02e-4 c -0.02658,-1.304092 0.7741955,-2.3841867 1.7877875,-2.4114855 1.013597,-0.027417 1.857089,1.0072955 1.883691,2.3120875 v 7e-4 c 0.0119,0.590094 -0.145598,1.132591 -0.415098,1.55399 z"
     fill="#eeeeee"
     fill-rule="nonzero"
     id="path27"
     sodipodi:nodetypes="cccccccccscccccccccsccccccccccccccccscccccccccsccccccccccccccccsccc"
     style="fill:#f2f2f2;fill-opacity:1;stroke-width:0.699996" />
</svg>
