<?xml version="1.0" encoding="UTF-8" standalone="no"?>
<svg
   width="64"
   height="64"
   version="1.1"
   id="svg25"
   sodipodi:docname="civ-vi.svg"
   xml:space="preserve"
   inkscape:version="1.2.1 (9c6d41e410, 2022-07-14)"
   xmlns:inkscape="http://www.inkscape.org/namespaces/inkscape"
   xmlns:sodipodi="http://sodipodi.sourceforge.net/DTD/sodipodi-0.dtd"
   xmlns:xlink="http://www.w3.org/1999/xlink"
   xmlns="http://www.w3.org/2000/svg"
   xmlns:svg="http://www.w3.org/2000/svg"><sodipodi:namedview
     id="namedview27"
     pagecolor="#505050"
     bordercolor="#ffffff"
     borderopacity="1"
     inkscape:showpageshadow="0"
     inkscape:pageopacity="0"
     inkscape:pagecheckerboard="1"
     inkscape:deskcolor="#505050"
     showgrid="false"
     inkscape:zoom="4.078125"
     inkscape:cx="-0.49042146"
     inkscape:cy="32.858238"
     inkscape:window-width="1366"
     inkscape:window-height="703"
     inkscape:window-x="0"
     inkscape:window-y="37"
     inkscape:window-maximized="1"
     inkscape:current-layer="svg25" /><defs
     id="defs12"><linearGradient
       id="linearGradient18490"
       x1="7.9373"
       x2="7.9373"
       y1="15.081"
       y2="1.852"
       gradientTransform="scale(3.7796)"
       gradientUnits="userSpaceOnUse"><stop
         stop-color="#0e71de"
         offset="0"
         id="stop18484"
         style="stop-color:#f7cea2;stop-opacity:1;" /><stop
         stop-color="#25c9ff"
         offset="1"
         id="stop18488"
         style="stop-color:#f7cea2;stop-opacity:0;" /></linearGradient><linearGradient
       id="linearGradient862-5"
       x1="7.9373"
       x2="7.9373"
       y1="15.081"
       y2="1.852"
       gradientTransform="scale(3.7796)"
       gradientUnits="userSpaceOnUse"><stop
         stop-color="#0e71de"
         offset="0"
         id="stop2"
         style="stop-color:#fee293;stop-opacity:1;" /><stop
         stop-color="#0e71de"
         offset="0.50817698"
         id="stop16994"
         style="stop-color:#fffad0;stop-opacity:1;" /><stop
         stop-color="#25c9ff"
         offset="1"
         id="stop4"
         style="stop-color:#fffaea;stop-opacity:1;" /></linearGradient><linearGradient
       id="linearGradient1062"
       x1="399.57"
       x2="399.57"
       y1="545.8"
       y2="517.8"
       gradientTransform="matrix(2.1429,0,0,2.1429,-826.36,-1107.5)"
       gradientUnits="userSpaceOnUse"><stop
         stop-color="#3889e9"
         offset="0"
         id="stop7" /><stop
         stop-color="#5ea5fb"
         offset="1"
         id="stop9" /></linearGradient><filter
       inkscape:collect="always"
       style="color-interpolation-filters:sRGB"
       id="filter10941"
       x="-0.048000003"
       y="-0.048000003"
       width="1.096"
       height="1.096"><feGaussianBlur
         inkscape:collect="always"
         stdDeviation="1.12004"
         id="feGaussianBlur10943" /></filter><linearGradient
       inkscape:collect="always"
       xlink:href="#linearGradient1389"
       id="linearGradient1391"
       x1="38"
       y1="19.467773"
       x2="38"
       y2="47.467773"
       gradientUnits="userSpaceOnUse"
       gradientTransform="translate(15.08046,4.2944317)" /><linearGradient
       inkscape:collect="always"
       id="linearGradient1389"><stop
         style="stop-color:#ffffff;stop-opacity:0"
         offset="0"
         id="stop1385" /><stop
         style="stop-color:#ffffff;stop-opacity:0.57254902;"
         offset="0.5"
         id="stop1969" /><stop
         style="stop-color:#ffffff;stop-opacity:0.00353621"
         offset="1"
         id="stop1387" /></linearGradient><linearGradient
       inkscape:collect="always"
       xlink:href="#linearGradient18490"
       id="linearGradient18481"
       gradientUnits="userSpaceOnUse"
       gradientTransform="matrix(3.7796,0,0,3.7796,-9.991366e-4,0.03040096)"
       x1="7.9373"
       y1="15.081"
       x2="7.9373"
       y2="1.852" /></defs><g
     id="app-background-blue"><rect
       width="64"
       height="64"
       rx="0"
       ry="0"
       fill="none"
       stroke-linecap="round"
       stroke-linejoin="round"
       stroke-width="1.4464"
       style="paint-order:stroke fill markers"
       id="rect14" /><rect
       x="3.9990005"
       y="3.9990005"
       width="56.001999"
       height="56.001999"
       rx="13.002"
       ry="13.002"
       fill="url(#linearGradient862-5)"
       stroke-width="3.7796"
       id="rect18-7"
       style="fill:#000000;fill-opacity:1;filter:url(#filter10941);opacity:0.5" /><rect
       x="4"
       y="3.9686"
       width="56.002"
       height="56.002"
       rx="13.002"
       ry="13.002"
       fill="url(#linearGradient862-5)"
       stroke-width="3.7796"
       id="rect18" /><rect
       x="3.9990005"
       y="3.9990005"
       width="56.001999"
       height="56.001999"
       rx="13.002"
       ry="13.002"
       fill="url(#linearGradient862-5)"
       stroke-width="3.7796"
       id="rect18-6"
       style="fill:url(#linearGradient18481)" /><circle
       cx="32.02"
       cy="32.044"
       r="30.001"
       fill-opacity="0"
       stroke-width="1.5715"
       id="circle20" /><circle
       cx="32.02"
       cy="32.044"
       r="0"
       fill="url(#linearGradient1062)"
       stroke-width="1.5715"
       id="circle22" /></g><g
     id="g13362"
     transform="translate(-15.08046,-5.7624525)"><path
       id="use32"
       style="fill:#9b371e;stroke-width:0.170902"
       d="m 27.08046,24.294432 v 0.346809 c 1.080098,0.309165 1.466524,0.927315 2.469717,3.125964 L 40.008572,51.230473 H 40.5867 l 9.841526,-22.227899 c 1.157348,-2.625052 1.505133,-3.743864 3.125965,-4.361333 v -0.346809 c -1.351152,0.07725 -2.855921,0.0771 -4.322945,0.0771 -0.848867,0 -1.813451,-0.03867 -2.662322,-0.0771 v 0.346809 c 0.694715,0.11554 1.003041,0.502035 1.003041,1.042768 0,0.847843 -0.23176,1.349866 -0.462633,1.890599 L 40.278275,43.667071 34.258656,29.195504 c -0.540393,-1.312354 -0.964657,-2.47011 -0.964657,-3.087579 0,-0.849211 0.424264,-1.273051 1.157261,-1.466684 v -0.346809 c -3.280456,0.07725 -5.826875,0.07725 -7.3708,0 z m 32.24267,6.46e-4 v 0.346809 c 1.582549,0.346583 1.929309,1.697749 1.929309,5.325994 v 14.432864 c 0,3.781372 -0.385383,4.899852 -1.929309,5.286603 v 0.34681 c 1.195971,-0.03878 2.546725,-0.07612 3.975122,-0.07612 1.272703,0 2.623835,0.03742 3.782207,0.07612 V 49.687352 C 65.575501,49.3006 65.111756,48.258857 65.111756,44.400749 V 29.967903 c 0,-3.666867 0.386325,-4.979403 1.968703,-5.325989 v -0.34681 c -1.312694,0.03844 -2.663845,0.0771 -3.859302,0.0771 -1.197165,0 -2.54705,-0.03866 -3.898027,-0.0771 z" /><path
       id="use32-3"
       style="opacity:0.5;fill:url(#linearGradient1391);fill-opacity:1;stroke-width:0.170902"
       d="m 27.08046,24.294432 v 0.347656 c 1.080098,0.309166 1.465558,0.926351 2.46875,3.125 l 10.458984,23.462891 h 0.578125 l 9.841797,-22.226563 c 1.157348,-2.625052 1.50612,-3.743859 3.126953,-4.361328 v -0.347656 c -1.351152,0.07725 -2.857195,0.07617 -4.324218,0.07617 -0.848867,0 -1.813239,-0.03773 -2.66211,-0.07617 v 0.347656 c 0.694715,0.11554 1.003906,0.500283 1.003907,1.041016 0,0.847842 -0.232019,1.349892 -0.462891,1.890625 l -6.832031,16.09375 -6.019532,-14.472656 c -0.540393,-1.312354 -0.964843,-2.468469 -0.964843,-3.085938 0,-0.849211 0.425205,-1.273164 1.158203,-1.466797 v -0.347656 c -3.280456,0.07725 -5.827168,0.07725 -7.371094,0 z m 32.242188,0 v 0.347656 c 1.582544,0.346583 1.929687,1.697928 1.929687,5.326172 v 14.431641 c 0,3.781372 -0.385762,4.900358 -1.929687,5.287109 v 0.347656 c 1.195971,-0.03878 2.548169,-0.07617 3.976562,-0.07617 1.272707,0 2.622878,0.03747 3.78125,0.07617 V 49.68701 C 65.575501,49.300262 65.11171,48.258009 65.11171,44.399901 V 29.96826 c 0,-3.666867 0.386375,-4.979585 1.96875,-5.326172 v -0.347656 c -1.312694,0.03844 -2.663918,0.07813 -3.859375,0.07813 -1.197162,0 -2.547464,-0.03969 -3.898437,-0.07813 z" /></g></svg>
