<?xml version="1.0" encoding="UTF-8" standalone="no"?>
<svg
   width="64"
   height="64"
   version="1.1"
   id="svg25"
   sodipodi:docname="project-zomboid.svg"
   xml:space="preserve"
   inkscape:version="1.2.1 (9c6d41e410, 2022-07-14)"
   xmlns:inkscape="http://www.inkscape.org/namespaces/inkscape"
   xmlns:sodipodi="http://sodipodi.sourceforge.net/DTD/sodipodi-0.dtd"
   xmlns="http://www.w3.org/2000/svg"
   xmlns:svg="http://www.w3.org/2000/svg"><sodipodi:namedview
     id="namedview27"
     pagecolor="#505050"
     bordercolor="#ffffff"
     borderopacity="1"
     inkscape:showpageshadow="0"
     inkscape:pageopacity="0"
     inkscape:pagecheckerboard="1"
     inkscape:deskcolor="#505050"
     showgrid="false"
     inkscape:zoom="9.2612723"
     inkscape:cx="13.227124"
     inkscape:cy="19.219821"
     inkscape:window-width="1366"
     inkscape:window-height="703"
     inkscape:window-x="0"
     inkscape:window-y="37"
     inkscape:window-maximized="1"
     inkscape:current-layer="svg25" /><defs
     id="defs12"><linearGradient
       id="linearGradient862-5"
       x1="7.9373"
       x2="7.9373"
       y1="15.081"
       y2="1.852"
       gradientTransform="scale(3.7796)"
       gradientUnits="userSpaceOnUse"><stop
         stop-color="#0e71de"
         offset="0"
         id="stop2"
         style="stop-color:#a0a3a9;stop-opacity:1;" /><stop
         stop-color="#25c9ff"
         offset="1"
         id="stop4"
         style="stop-color:#eeefef;stop-opacity:1;" /></linearGradient><linearGradient
       id="linearGradient1062"
       x1="399.57"
       x2="399.57"
       y1="545.8"
       y2="517.8"
       gradientTransform="matrix(2.1429,0,0,2.1429,-826.36,-1107.5)"
       gradientUnits="userSpaceOnUse"><stop
         stop-color="#3889e9"
         offset="0"
         id="stop7" /><stop
         stop-color="#5ea5fb"
         offset="1"
         id="stop9" /></linearGradient><filter
       inkscape:collect="always"
       style="color-interpolation-filters:sRGB"
       id="filter33422"
       x="-0.14781503"
       y="-0.1461939"
       width="1.2956301"
       height="1.2923878"><feGaussianBlur
         inkscape:collect="always"
         stdDeviation="2.1864308"
         id="feGaussianBlur33424" /></filter><filter
       inkscape:collect="always"
       style="color-interpolation-filters:sRGB"
       id="filter10941"
       x="-0.048000003"
       y="-0.048000003"
       width="1.096"
       height="1.096"><feGaussianBlur
         inkscape:collect="always"
         stdDeviation="1.12004"
         id="feGaussianBlur10943" /></filter></defs><g
     id="app-background-blue"><rect
       width="64"
       height="64"
       rx="0"
       ry="0"
       fill="none"
       stroke-linecap="round"
       stroke-linejoin="round"
       stroke-width="1.4464"
       style="paint-order:stroke fill markers"
       id="rect14" /><rect
       x="3.9990005"
       y="3.9990005"
       width="56.001999"
       height="56.001999"
       rx="13.002"
       ry="13.002"
       fill="url(#linearGradient862-5)"
       stroke-width="3.7796"
       id="rect18-7"
       style="fill:#000000;fill-opacity:1;filter:url(#filter10941);opacity:0.5" /><rect
       x="4"
       y="3.9686"
       width="56.002"
       height="56.002"
       rx="13.002"
       ry="13.002"
       fill="url(#linearGradient862-5)"
       stroke-width="3.7796"
       id="rect18" /><circle
       cx="32.02"
       cy="32.044"
       r="30.001"
       fill-opacity="0"
       stroke-width="1.5715"
       id="circle20" /><circle
       cx="32.02"
       cy="32.044"
       r="0"
       fill="url(#linearGradient1062)"
       stroke-width="1.5715"
       id="circle22" /></g><ellipse
     style="fill:#000000;fill-opacity:1;stroke-width:0.550388;stroke-linecap:round;stroke-linejoin:round;filter:url(#filter33422);opacity:0.6"
     id="path374-5"
     cx="32"
     cy="32"
     rx="17.75"
     ry="17.946829" /><ellipse
     style="fill:#880a0a;fill-opacity:1;stroke-width:0.550388;stroke-linecap:round;stroke-linejoin:round"
     id="path374"
     cx="32"
     cy="32"
     rx="17.75"
     ry="17.946829" /><path
     style="fill:#e7922a;fill-opacity:1;stroke:#412a0d;stroke-width:0.5;stroke-linecap:butt;stroke-linejoin:miter;stroke-dasharray:none;stroke-opacity:1"
     d="m 20.570805,20.676816 c -0.326799,-0.353078 -5.874311,0.107848 -5.692935,0.883809 1.090096,1.990418 0.216169,2.999039 3.664697,6.168413 0.363119,0.712865 0.704352,1.425132 0.897144,2.133338 0.0259,0.3008 0.05388,0.592402 0.06052,0.978317 -0.352482,-0.0057 -0.718693,-0.163763 -1.048662,0.08029 -0.287306,0.759837 0.4285,1.203495 0.902662,1.723318 -0.145372,-0.05716 -0.325471,0.01846 -0.545144,0.245396 -0.0346,0.831874 0.813154,1.111591 1.402783,1.552837 0.772286,1.24852 1.775996,1.44489 2.757132,1.743896 -0.45521,0.373624 -1.014697,0.578615 -1.57935,0.962062 -1.101265,1.068171 -1.066136,1.899277 -1.1414,3.032552 0.04812,0.610187 0.476338,0.612148 0.61616,1.392189 -0.392535,0.309138 -0.589803,0.833525 -0.91862,1.246086 2.124573,2.198322 2.604338,2.383684 3.99495,3.162622 l 1.94621,-2.552529 c 0.435037,0.01052 0.722118,0.206947 1.030399,0.249397 -0.597203,1.143744 -1.078533,2.10511 -1.631463,3.066479 9.112319,4.162059 20.645063,-0.799551 22.703907,-11.958322 -0.429467,-0.631965 -0.640122,-0.973361 -1.19592,-1.62584 -0.438818,-0.495473 -1.111962,-0.938049 -1.799299,-1.377421 -1.055251,-0.60184 -2.158808,-0.682984 -3.271197,-0.668913 0.220749,-0.56975 0.289667,-1.451716 0.232313,-1.930659 0.539939,0.05012 0.859825,-0.170086 1.006867,-0.602623 0.208431,-0.432933 -0.0076,-1.198951 0.03232,-1.27728 l 7.651028,-8.47269 -0.68796,-3.349142 -3.760648,-2.524548 -5.781084,6.807766 c -1.13489,-0.376068 -1.707501,-1.057757 -2.5366,-1.282656 -1.334657,-2.925508 -2.651671,-5.413188 -3.884233,-5.805309 -3.141097,0.851981 -3.923702,3.305003 -5.598436,5.152411 -2.803087,0.57402 -5.609854,1.140943 -7.826148,2.846754 z"
     id="path1051"
     sodipodi:nodetypes="cccccccccccccccccccccccccccccccccc" /><path
     style="fill:#6c5436;fill-opacity:1;stroke:none;stroke-width:1px;stroke-linecap:butt;stroke-linejoin:miter;stroke-opacity:1"
     d="m 46.252482,13.280245 -5.581522,6.51528 c 0.590127,0.531971 1.053999,0.86165 1.532516,1.656049 -0.354661,0.400507 -0.77721,0.437876 -1.260335,0.151227 0.731481,0.717972 1.659485,1.159331 1.944872,2.586342 l 6.724367,-8.63944 z"
     id="path29275"
     sodipodi:nodetypes="ccccccc" /><path
     style="fill:#525375;fill-opacity:1;stroke:#412a0d;stroke-width:0.5;stroke-linecap:round;stroke-linejoin:round;stroke-dasharray:none;stroke-opacity:1"
     d="m 32.622229,48.201709 c 0.212517,-0.634583 -0.344535,-1.034749 -0.641392,-1.514173 -0.538658,-0.386172 -1.077032,-0.772861 -1.432241,-1.495076 -0.124072,-0.697976 -0.547241,-1.303303 -0.922355,-1.923516 0.817935,-0.229578 1.72461,-0.417952 2.180391,-0.815691 1.250506,1.867574 2.604027,3.591737 5.509432,3.155471 -1.747837,-4.159746 -1.837577,-5.958031 -2.272198,-8.247496 -0.685813,-0.902718 -2.040472,-1.106168 -3.461238,-1.240505 1.202904,-0.430392 2.313708,-1.047328 3.771037,-0.962401 1.524443,-3.23093 3.89348,-3.751832 6.317458,-4.096443 1.968044,-0.0208 4.257533,0.181716 6.377376,3.819639 -0.194001,2.862024 -4.307266,13.053772 -15.42627,13.320191 z"
     id="path13153"
     sodipodi:nodetypes="cccccccccccc" /><path
     style="fill:#6988bc;fill-opacity:1;stroke:none;stroke-width:1px;stroke-linecap:butt;stroke-linejoin:miter;stroke-opacity:1"
     d="m 44.526964,31.754784 c -1.57921,-0.02276 -2.548118,0.59197 -3.612445,1.279354 -1.097541,0.761261 -1.481745,1.896195 -1.375478,3.364706 0.608415,3.266343 1.848371,5.379703 2.902007,7.833222 3.756883,-3.567701 4.661229,-6.355995 5.42686,-9.241563 -0.897123,-1.39265 -2.032082,-2.75439 -3.340944,-3.235719 z"
     id="path22271"
     sodipodi:nodetypes="cccccc" /><path
     style="fill:none;fill-opacity:1;stroke:#e4d7c7;stroke-width:0.5;stroke-linecap:round;stroke-linejoin:round;stroke-dasharray:none;stroke-opacity:1"
     d="m 40.834442,31.697781 c -5.304945,2.324968 -4.724333,7.714458 -0.87693,13.89384"
     id="path24136"
     sodipodi:nodetypes="cc" /><path
     style="fill:#6c5436;fill-opacity:1;stroke:none;stroke-width:1px;stroke-linecap:butt;stroke-linejoin:miter;stroke-opacity:1"
     d="m 23.94931,42.989442 -2.980024,-1.352066 -0.713571,1.161882 c 0.644454,0.707246 1.263542,1.433715 2.171716,1.982687 z"
     id="path11079"
     sodipodi:nodetypes="ccccc" /><path
     style="fill:#6c5436;fill-opacity:1;stroke:none;stroke-width:1px;stroke-linecap:butt;stroke-linejoin:miter;stroke-opacity:1"
     d="m 23.878882,45.657721 1.89169,-2.479756 -1.59982,-0.227143 -1.754539,2.018201 z"
     id="path13151"
     sodipodi:nodetypes="ccccc" /><path
     style="fill:#6c5436;fill-opacity:1;stroke:none;stroke-width:1px;stroke-linecap:butt;stroke-linejoin:miter;stroke-opacity:1"
     d="m 41.811255,24.897704 1.19271,2.116004 7.390572,-8.255646 -0.590037,-2.961368 -7.026726,8.925121 z"
     id="path30596"
     sodipodi:nodetypes="cccccc" /><path
     style="fill:none;fill-opacity:1;stroke:#412a0d;stroke-width:0.5;stroke-linecap:round;stroke-linejoin:round;stroke-dasharray:none;stroke-opacity:1"
     d="m 20.69667,41.536108 c 1.441853,0.657379 2.824557,1.432571 4.558552,1.508053 5.748661,0.257534 7.198348,-0.616672 8.230492,-1.6008"
     id="path9827"
     sodipodi:nodetypes="ccc" /><path
     style="fill:#e4d7c7;stroke:#412a0d;stroke-width:0.5;stroke-linecap:butt;stroke-linejoin:miter;stroke-dasharray:none;stroke-opacity:1;fill-opacity:1"
     d="m 24.761032,36.941423 c 0.521784,0.0088 1.030374,-0.02761 1.6232,0.224636 -0.892327,1.986201 -1.465423,3.916905 -1.146392,5.692512 0.738464,0.197387 1.47122,0.432242 2.286619,0.124573 -1.110632,-1.643355 -1.392097,-3.41452 -0.289493,-5.399029 0.63652,-0.336385 0.845708,-0.191121 1.046959,-0.03691 -0.807731,2.847853 0.766162,3.959672 1.482439,5.696632 -0.911343,0.03664 -1.726315,0.01911 -2.210017,-0.184645 -1.144568,-1.750823 -1.357498,-3.588635 -0.355635,-5.539873 -0.299798,-0.06543 -0.603934,-0.139118 -0.912886,-0.221981 -0.422203,1.289427 -0.886724,2.500146 -1.148363,4.088216 -0.76923,-1.24157 -0.563796,-2.846216 -0.376431,-4.444131 z"
     id="path1149"
     sodipodi:nodetypes="cccccccccccc" /><path
     style="fill:#e4d7c7;fill-opacity:1;stroke:none;stroke-width:0.5;stroke-linecap:round;stroke-linejoin:round;stroke-dasharray:none;stroke-opacity:1"
     d="m 25.503193,34.959306 c -0.692325,0.395146 -1.14634,0.525357 -2.692035,0.920503 -1.302054,-0.230917 -2.152199,-1.034455 -2.400117,-1.590504 -0.704355,-0.424851 -1.337355,-0.784018 -1.347544,-1.294932 0.120893,-0.101261 0.317509,-0.318588 0.481992,-0.515452 -0.862173,-0.635321 -1.017968,-1.214459 -0.911295,-1.387675 0.340293,-0.147617 1.033974,0.01511 1.120086,-0.0022 l -0.04521,-0.875501 c 0.813206,0.393213 2.280524,1.559888 4.251143,0.117544 0.856875,-0.975566 2.583633,-0.841572 3.990731,-0.990047 0.04767,-0.257792 0.126845,-0.546583 0.192569,-0.822139 0.265312,-0.215545 0.40405,0.08615 0.669363,0.248572 1.562643,-0.233809 3.44639,-1.56766 5.95611,-2.579661 0.134809,-0.432688 0.496331,-0.615766 0.88775,-0.875385 0.663103,0.09171 0.04319,0.820726 0.327704,1.339073 0.350222,-0.01806 0.413023,-0.407144 0.826326,-0.403551 0.42669,0.138851 -0.185884,2.269159 -0.43418,2.116598 -0.02235,0.296944 0.01135,0.554484 0.333195,0.609423 0.572047,-0.713861 0.677312,-0.848844 0.928362,-0.984235 0.150198,2.023975 -1.336342,2.933639 -2.240599,4.24038 -1.906264,1.523751 -3.655498,1.12159 -5.481054,1.655484 -0.621063,1.362506 -2.49519,1.244103 -4.413294,1.073727 z"
     id="path8644"
     sodipodi:nodetypes="cccccccccccccccccccccc" /><path
     style="fill:none;stroke:#412a0d;stroke-width:0.5;stroke-linecap:round;stroke-linejoin:round;stroke-dasharray:none;stroke-opacity:1"
     d="M 26.024881,33.484181 C 25.661667,33.279675 25.390962,33.296262 25.009597,33.31298"
     id="path8611"
     sodipodi:nodetypes="cc" /><path
     style="fill:#412a0d;fill-opacity:1;stroke:#412a0d;stroke-width:0.5;stroke-linecap:round;stroke-linejoin:round;stroke-dasharray:none;stroke-opacity:1"
     d="m 24.055809,31.143336 c 0.519935,-0.590503 1.159478,-1.178352 2.847173,-1.013014 0.121845,0.06315 0.283704,0.600863 0.186352,1.274718 -1.191692,1.748452 -2.995185,0.509748 -3.033525,-0.261704 z"
     id="path8615"
     sodipodi:nodetypes="cccc" /><path
     style="fill:#e4d7c7;fill-opacity:1;stroke:none;stroke-width:0.5;stroke-linecap:round;stroke-linejoin:round;stroke-dasharray:none;stroke-opacity:1"
     d="m 28.345345,26.361127 c -0.741252,0.41654 -1.2827,0.219161 -1.798752,-0.05625 0.06764,-0.09773 0.03528,-0.198031 0.639828,-0.281978 0.257351,-0.635813 1.227707,-0.830482 1.983603,-2.087607 2.495003,-4.100541 5.033285,-0.186363 5.105086,0.35299 l -3.916306,-0.02377 c -0.589582,0.816647 -1.117104,1.722897 -2.013459,2.096615 z"
     id="path8648"
     sodipodi:nodetypes="ccccccc" /><path
     style="fill:#412a0d;fill-opacity:1;stroke:#412a0d;stroke-width:0.5;stroke-linecap:round;stroke-linejoin:round;stroke-dasharray:none;stroke-opacity:1"
     d="m 28.177897,26.947072 c -0.140328,0.522858 -0.45174,1.20548 0.520448,1.481314 0.190732,0.371963 2.415632,-0.806634 5.683814,-2.357698 0.308892,-0.414091 0.290587,-0.661501 -0.215327,-1.3728 -0.629951,-0.70395 -1.36003,-0.986408 -2.125009,-1.121949 -1.214849,0.248728 -2.4764,1.874527 -3.863926,3.371133 z"
     id="path8617"
     sodipodi:nodetypes="cccccc" /><path
     style="fill:#e4d7c7;fill-opacity:1;stroke:none;stroke-width:0.5;stroke-linecap:round;stroke-linejoin:round;stroke-dasharray:none;stroke-opacity:1"
     d="m 23.560026,27.757898 c 0.343902,-0.128951 0.387483,-0.608875 0.51978,-0.98512 -0.213445,-0.05042 -0.172752,-0.215582 -0.838977,0.07454 -0.880312,-0.781872 -2.215016,-0.797901 -3.5176,-0.868067 -0.318733,0.325748 -0.822602,0.517378 -0.736007,1.136759 -0.502099,0.317782 -0.05034,0.850787 0.154323,1.318454 l 0.492206,-1.168476 z"
     id="path8646"
     sodipodi:nodetypes="cccccccc" /><path
     style="fill:#412a0d;fill-opacity:1;stroke:#412a0d;stroke-width:0.5;stroke-linecap:round;stroke-linejoin:round;stroke-dasharray:none;stroke-opacity:1"
     d="m 19.407479,29.354389 c -0.240267,-0.673455 0.04459,-1.387821 0.451865,-1.873806 1.395094,-0.03295 2.592533,0.06148 3.745947,0.579603 0.315763,0.868598 0.180988,1.688641 -0.07901,2.519379 -0.01399,0.108157 -2.16343,0.548538 -2.343622,0.401616 -0.960463,-0.388095 -1.341609,-0.926364 -1.775185,-1.626792 z"
     id="path8619"
     sodipodi:nodetypes="cccccc" /><path
     style="fill:#412a0d;fill-opacity:1;stroke:none;stroke-width:0.5;stroke-linecap:round;stroke-linejoin:round;stroke-dasharray:none;stroke-opacity:1"
     d="m 24.941396,36.797238 c -0.328384,-0.456026 -0.953798,-0.254954 -1.898901,-0.420142 -2.23121,0.269695 -2.397192,1.116885 -2.908354,3.727696 l 0.710013,1.548911 1.758511,0.737927 c -0.661224,-2.816911 0.800918,-4.322333 1.356929,-5.164318 0.48469,-0.05357 1.290645,-0.08946 0.981802,-0.430074 z"
     id="path8650"
     sodipodi:nodetypes="ccccccc" /><path
     style="fill:none;stroke:#412a0d;stroke-width:0.5;stroke-linecap:butt;stroke-linejoin:round;stroke-opacity:1;stroke-dasharray:none"
     d="m 22.416022,45.111044 1.817734,-2.217463"
     id="path11006" /><path
     style="fill:none;stroke:#412a0d;stroke-width:0.5;stroke-linecap:butt;stroke-linejoin:miter;stroke-opacity:1;stroke-dasharray:none;fill-opacity:1"
     d="m 37.191721,45.372877 1.063515,1.656173"
     id="path17849" /><path
     style="fill:none;stroke:#412a0d;stroke-width:0.5;stroke-linecap:butt;stroke-linejoin:miter;stroke-dasharray:none;stroke-opacity:1"
     d="m 32.370696,43.403386 c -1.100414,0.212515 -1.531101,0.740738 -1.76634,1.361095"
     id="path22267"
     sodipodi:nodetypes="cc" /><path
     style="fill:none;stroke:#412a0d;stroke-width:0.5;stroke-linecap:butt;stroke-linejoin:miter;stroke-opacity:1;stroke-dasharray:none"
     d="m 33.363269,44.623663 c -1.045746,0.478653 -1.443822,1.154626 -1.61637,1.899309"
     id="path22269"
     sodipodi:nodetypes="cc" /><path
     style="fill:#412a0d;fill-opacity:1;stroke:none;stroke-width:1px;stroke-linecap:butt;stroke-linejoin:miter;stroke-opacity:1"
     d="m 31.5334,18.128234 c 0.188534,-0.563251 0.532544,-1.126502 1.491512,-1.689753 0.854241,0.81564 0.968054,1.631281 1.045566,2.446921 -1.17781,0.148021 -1.850643,-0.312773 -2.537078,-0.757168 z"
     id="path26484"
     sodipodi:nodetypes="cccc" /><path
     style="fill:none;stroke:#412a0d;stroke-width:0.5;stroke-linecap:butt;stroke-linejoin:miter;stroke-dasharray:none;stroke-opacity:1"
     d="m 20.803345,20.510445 c -2.235054,2.169923 -1.866848,4.726676 -2.301332,7.164154"
     id="path27866"
     sodipodi:nodetypes="cc" /><path
     style="fill:#412a0d;fill-opacity:1;stroke:none;stroke-width:1px;stroke-linecap:butt;stroke-linejoin:miter;stroke-opacity:1"
     d="m 19.01216,23.773768 c -0.09333,-0.377725 -1.905264,-0.188405 -1.95759,0.03393 0.374345,0.51591 0.728836,1.508577 1.629257,1.904722 z"
     id="path27868"
     sodipodi:nodetypes="cccc" /><path
     style="fill:none;stroke:#412a0d;stroke-width:0.5;stroke-linecap:round;stroke-linejoin:round;stroke-dasharray:none;stroke-opacity:1"
     d="m 40.371662,19.821735 c 0.619293,0.557758 1.323328,0.944292 1.821026,1.747739 -0.323932,0.259909 -1.001441,0.118184 -1.715123,-0.06463 0.867078,0.724121 1.893101,0.782539 2.369863,3.141401 -0.340506,0.1667 -0.70746,0.199116 -1.091016,0.147243 0.181209,1.008497 0.826762,1.819495 1.274013,2.651057"
     id="path29181"
     sodipodi:nodetypes="cccccc" /><path
     style="fill:none;stroke:#412a0d;stroke-width:0.5;stroke-linecap:round;stroke-linejoin:miter;stroke-dasharray:none;stroke-opacity:1"
     d="m 49.925127,15.513383 -6.982252,8.968228"
     id="path29183"
     sodipodi:nodetypes="cc" /><path
     style="fill:#e4d7c7;fill-opacity:1;stroke:#412a0d;stroke-width:0.5;stroke-linecap:butt;stroke-linejoin:round;stroke-dasharray:none;stroke-opacity:1"
     d="m 45.20409,14.872616 0.860814,-0.108369 c -0.188157,-1.111042 -0.636396,-2.456706 -1.034071,-3.53519 0.07712,1.180513 0.06253,2.319193 0.173257,3.643559 z"
     id="path29185-6"
     sodipodi:nodetypes="cccc" /><path
     style="fill:#e4d7c7;fill-opacity:1;stroke:#412a0d;stroke-width:0.5;stroke-linecap:butt;stroke-linejoin:round;stroke-dasharray:none;stroke-opacity:1"
     d="m 46.912882,15.562 0.930538,-0.127073 c 0.317329,-1.471937 0.333502,-2.620001 0.415457,-4.092192 -0.515132,1.018854 -1.080513,2.67718 -1.345995,4.219265 z"
     id="path29185-7"
     sodipodi:nodetypes="cccc" /><path
     style="fill:#e4d7c7;fill-opacity:1;stroke:#412a0d;stroke-width:0.5;stroke-linecap:butt;stroke-linejoin:round;stroke-dasharray:none;stroke-opacity:1"
     d="m 45.25699,17.723308 0.860814,-0.108369 c -0.02226,-1.094684 -0.294733,-2.222337 -0.538348,-3.346187 -0.14707,1.139548 -0.443697,2.233863 -0.322466,3.454556 z"
     id="path29185"
     sodipodi:nodetypes="cccc" /><path
     style="fill:#e4d7c7;fill-opacity:1;stroke:#412a0d;stroke-width:0.5;stroke-linecap:butt;stroke-linejoin:round;stroke-dasharray:none;stroke-opacity:1"
     d="M 43.745686,17.026469 44.6065,16.9181 c -0.032,-1.100325 -0.476869,-2.422548 -0.841059,-3.514409 -0.03615,1.269185 -0.05914,2.343287 -0.01976,3.622778 z"
     id="path29185-3"
     sodipodi:nodetypes="cccc" /><path
     style="fill:none;stroke:#e4d7c7;stroke-width:0.5;stroke-linecap:round;stroke-linejoin:round;stroke-dasharray:none;stroke-opacity:1"
     d="m 22.34716,28.75552 0.0037,0.401111"
     id="path526"
     sodipodi:nodetypes="cc" /><path
     style="fill:none;stroke:#e4d7c7;stroke-width:0.5;stroke-linecap:round;stroke-linejoin:round;stroke-dasharray:none;stroke-opacity:1"
     d="m 30.95398,25.391261 -0.02883,0.558043"
     id="path528"
     sodipodi:nodetypes="cc" /></svg>
