<?xml version="1.0" encoding="UTF-8" standalone="no"?>
<!-- Created with Inkscape (http://www.inkscape.org/) -->

<svg
   width="64"
   height="64"
   viewBox="0 0 16.933333 16.933333"
   version="1.1"
   id="svg5"
   inkscape:version="1.1.1 (3bf5ae0d25, 2021-09-20, custom)"
   sodipodi:docname="stardew-valley.svg"
   xmlns:inkscape="http://www.inkscape.org/namespaces/inkscape"
   xmlns:sodipodi="http://sodipodi.sourceforge.net/DTD/sodipodi-0.dtd"
   xmlns:xlink="http://www.w3.org/1999/xlink"
   xmlns="http://www.w3.org/2000/svg"
   xmlns:svg="http://www.w3.org/2000/svg">
  <sodipodi:namedview
     id="namedview7"
     pagecolor="#ffffff"
     bordercolor="#666666"
     borderopacity="1.0"
     inkscape:pageshadow="2"
     inkscape:pageopacity="0.0"
     inkscape:pagecheckerboard="0"
     inkscape:document-units="px"
     showgrid="false"
     units="px"
     height="48px"
     inkscape:zoom="4.3586504"
     inkscape:cx="-32.808321"
     inkscape:cy="7.2270077"
     inkscape:window-width="1920"
     inkscape:window-height="1011"
     inkscape:window-x="0"
     inkscape:window-y="0"
     inkscape:window-maximized="1"
     inkscape:current-layer="svg5"
     inkscape:lockguides="true" />
  <defs
     id="defs2">
    <linearGradient
       inkscape:collect="always"
       xlink:href="#linearGradient37218"
       id="linearGradient1781"
       x1="2.8346456e-08"
       y1="2.2677165e-07"
       x2="64"
       y2="64"
       gradientUnits="userSpaceOnUse"
       gradientTransform="scale(0.26458333)" />
    <linearGradient
       inkscape:collect="always"
       id="linearGradient37218">
      <stop
         style="stop-color:#ffffff;stop-opacity:1"
         offset="0"
         id="stop37214" />
      <stop
         style="stop-color:#717171;stop-opacity:0.00392157"
         offset="0.49741825"
         id="stop37220" />
      <stop
         style="stop-color:#000000;stop-opacity:1"
         offset="1"
         id="stop37216" />
    </linearGradient>
    <linearGradient
       inkscape:collect="always"
       xlink:href="#linearGradient62939"
       id="linearGradient62941"
       x1="9.5250006"
       y1="-1.484558e-07"
       x2="9.5249996"
       y2="14.816667"
       gradientUnits="userSpaceOnUse"
       gradientTransform="translate(1.0583343,1.0583333)" />
    <linearGradient
       inkscape:collect="always"
       id="linearGradient62939">
      <stop
         style="stop-color:#160c4c;stop-opacity:1;"
         offset="0"
         id="stop62935" />
      <stop
         style="stop-color:#02519e;stop-opacity:1"
         offset="0.40000001"
         id="stop77136" />
      <stop
         style="stop-color:#0578e3;stop-opacity:1"
         offset="0.64204562"
         id="stop67103" />
      <stop
         style="stop-color:#55d0ee;stop-opacity:1"
         offset="1"
         id="stop62937" />
    </linearGradient>
    <radialGradient
       inkscape:collect="always"
       xlink:href="#linearGradient113843"
       id="radialGradient113845"
       cx="-11.406412"
       cy="1.633051"
       fx="-11.406412"
       fy="1.633051"
       r="0.46302083"
       gradientUnits="userSpaceOnUse"
       gradientTransform="matrix(1.1424876,-8.2997944e-8,-4.2892521e-7,1.1428566,15.98367,0.76803161)" />
    <linearGradient
       inkscape:collect="always"
       id="linearGradient113843">
      <stop
         style="stop-color:#f9fafb;stop-opacity:1;"
         offset="0"
         id="stop113839" />
      <stop
         style="stop-color:#f9fafb;stop-opacity:0;"
         offset="1"
         id="stop113841" />
    </linearGradient>
    <radialGradient
       inkscape:collect="always"
       xlink:href="#linearGradient113843"
       id="radialGradient113845-2"
       cx="-11.406412"
       cy="1.633051"
       fx="-11.406412"
       fy="1.633051"
       r="0.46302083"
       gradientUnits="userSpaceOnUse"
       gradientTransform="matrix(1.1424876,-8.2997944e-8,-4.2892521e-7,1.1428566,27.94813,5.4511568)" />
  </defs>
  <path
     id="rect58756"
     style="fill:url(#linearGradient62941);stroke-width:2.38125;stroke-linecap:round;stroke-linejoin:round"
     d="M 3.1750003,1.0583333 H 13.758333 c 1.172634,0 2.116667,0.9440334 2.116667,2.1166668 V 13.758333 c 0,1.172633 -0.944033,2.116667 -2.116667,2.116667 H 3.1750003 c -1.172633,0 -2.116667,-0.944034 -2.116667,-2.116667 V 3.1750001 c 0,-1.1726334 0.944034,-2.1166668 2.116667,-2.1166668 z" />
  <g
     id="g58351"
     transform="matrix(1.05,0,0,1.05,-5.9465387,-3.5146119)">
    <path
       id="rect858"
       style="opacity:1;fill:#703404;fill-opacity:1;stroke-width:0.754547;stroke-linecap:round;stroke-linejoin:round"
       d="m 12.403947,6.1190753 v 0.6614583 h 1.984375 V 7.441992 h 0.661459 V 6.1190753 Z m 1.984375,1.3229167 h -1.322916 v 0.6614583 h 0.661458 v 0.6614584 h 0.661458 z m 0,1.3229167 v 1.9843753 h 0.661459 v -0.661459 h 0.661458 V 9.426367 H 15.049781 V 8.7649087 Z m 1.322917,0.6614583 h 2.645833 V 8.7649087 h -2.645833 z m 2.645833,0 v 1.322917 h 0.661459 V 9.426367 Z m 0,1.322917 h -0.661458 v 0.661458 h 0.661458 z m 0,0.661458 v 1.322917 h 0.661459 v -1.322917 z m 0,1.322917 h -0.661458 v 1.322916 h 0.661458 z m -0.661458,1.322916 h -0.661458 v 1.322917 h 0.661458 z m -0.661458,1.322917 h -1.322917 v 0.661459 h 1.322917 z m -1.322917,0.661459 h -0.661458 v 0.661458 h 0.661458 z m -0.661458,0 v -0.661459 h -1.322917 v 0.661459 z M 13.726864,8.7649087 h -0.661458 v 1.9843753 h 0.661458 z M 12.403947,6.7805336 H 11.742489 V 7.441992 h 0.661458 z M 11.742489,7.441992 h -0.661458 v 0.6614583 h 0.661458 z m -0.661458,0.6614583 h -0.661459 v 0.6614584 h 0.661459 z m 0,0.6614584 v 1.3229163 h 0.661458 V 8.7649087 Z m -0.661459,0 H 9.7581138 V 10.087825 H 10.419572 Z M 9.7581138,10.087825 H 9.0966555 v 0.661459 h 0.6614583 z m 0,0.661459 v 0.661458 h 0.6614582 v -0.661458 z m 0,0.661458 H 9.0966555 V 12.0722 H 9.7581138 Z M 9.0966555,12.0722 H 8.4351971 v 1.984375 h 0.6614584 z m 0,1.984375 v 0.661459 h 0.6614583 v -0.661459 z m 0.6614583,0.661459 v 0.661458 h 0.6614582 v -0.661458 z m 0.6614582,0.661458 v 0.661459 h 1.322917 v -0.661459 z m 0,0.661459 H 9.7581138 v 0.661458 h 0.6614582 z m 3.96875,-3.968751 v 0.661459 h 0.661459 V 12.0722 Z m 0.661459,0.661459 v 0.661458 h 1.322916 v -0.661458 z m 1.322916,0 h 0.661459 V 12.0722 h -0.661459 z m -3.96875,3.307292 v 0.661458 h 0.661459 v -0.661458 z" />
    <path
       id="rect8073"
       style="opacity:1;fill:#ffe2ac;fill-opacity:1;stroke-width:2.38125;stroke-linecap:round;stroke-linejoin:round"
       d="m 11.742489,8.1034503 v 1.9843747 h 0.661458 v 0.661459 h -0.661458 v 0.661458 H 11.081031 V 12.0722 h -0.661459 v 0.661459 h 0.661459 v 0.661458 h 0.661458 v -0.661458 h 0.661458 v 0.661458 h 0.661459 v 0.661458 h -0.661459 v -0.661458 h -0.661458 v 0.661458 h -0.661458 v 0.661459 h 0.661458 v 0.661458 h 0.661458 v -0.661458 h 0.661459 v 0.661458 h 0.661458 v -0.661458 h 0.661458 v 0.661458 h 0.661459 v -0.661458 h 1.322916 v -0.661459 h 0.661459 V 13.395117 H 14.388322 V 12.733659 H 13.726864 V 12.0722 h -0.661458 v -0.661458 h 1.322916 v -1.322917 h -0.661458 v 0.661459 H 13.065406 V 8.7649087 H 12.403947 V 8.1034503 Z m 2.645833,3.3072917 V 12.0722 h 0.661459 v 0.661459 h 0.661458 V 12.0722 h 0.661458 v -0.661458 h 0.661459 v 1.984375 h 0.661458 v -2.645833 h -0.661458 v -0.661459 h 1.322916 V 9.426367 h -1.984375 v 0.661458 h -0.661458 v 0.661459 h -0.661458 v 0.661458 z m -3.307291,2.645833 v -0.661458 h -0.661459 v 0.661458 z" />
    <path
       id="rect14079"
       style="opacity:1;fill:#e2a052;fill-opacity:1;stroke-width:2.38125;stroke-linecap:round;stroke-linejoin:round"
       d="m 11.081031,8.1034503 v 0.6614584 h 0.661458 V 8.1034503 Z m 0,0.6614584 h -0.661459 v 1.3229163 h 0.661459 z m 1.322916,-0.6614584 v 0.6614584 h 1.322917 V 8.1034503 Z m 1.322917,0.6614584 v 1.3229163 h 0.661458 V 8.7649087 Z m 1.984375,0.6614583 v 0.661458 h 0.661458 V 9.426367 Z m 0,0.661458 h -0.661458 v 0.661459 h 0.661458 z m -0.661458,0.661459 h -0.661459 v 0.661458 h 0.661459 z m -0.661459,0.661458 H 13.065406 V 12.0722 h 0.661458 v 0.661459 h 0.661458 z m 0,1.322917 v 0.661458 h 0.661459 v -0.661458 z m -2.645833,-2.645834 v 0.661459 h 0.661458 v -0.661459 z m 0,0.661459 h -0.661458 v 0.661458 h 0.661458 z m -0.661458,0.661458 H 9.7581138 V 12.0722 H 9.0966555 v 1.984375 h 1.3229165 v -0.661458 h 0.661459 V 12.733659 H 10.419572 V 12.0722 h 0.661459 z m 0,1.984375 v 0.661458 h 0.661458 v -0.661458 z m 0.661458,0 h 0.661458 v -0.661458 h -0.661458 z m 0.661458,0 v 0.661458 h 0.661459 v -0.661458 z m -1.322916,0.661458 h -0.661459 v 0.661459 h 0.661459 z m 0,0.661459 v 0.661458 h 0.661458 v -0.661458 z m 5.953125,-4.630209 v 0.661459 h 1.322916 v -0.661459 z m -0.661459,1.322917 V 12.0722 h 0.661459 v -0.661458 z m 0,0.661458 h -0.661458 v 0.661459 h 0.661458 z m 0,0.661459 v 0.661458 h 0.661459 v -0.661458 z m 1.322917,-1.322917 v 1.322917 h 0.661458 v -1.322917 z m -1.322917,2.645833 v 0.661459 h 0.661459 v -0.661459 z m 0,0.661459 h -1.322916 v 0.661458 h 1.322916 z m -3.96875,0 v 0.661458 h 0.661459 v -0.661458 z m 1.322917,0 v 0.661458 h 0.661458 v -0.661458 z" />
    <path
       id="rect18298"
       style="opacity:1;fill:#9f4b00;fill-opacity:1;stroke-width:2.38125;stroke-linecap:round;stroke-linejoin:round"
       d="m 10.419572,10.749284 v 0.661458 h 0.661459 v -0.661458 z m 6.614584,2.645833 v 0.661458 h 0.661458 v -0.661458 z m -7.2760422,0.661458 v 0.661459 h 0.6614582 v -0.661459 z m 0.6614582,0.661459 v 0.661458 h 0.661459 v -0.661458 z m 5.953125,0 v 0.661458 h 0.661459 v -0.661458 z m -4.630208,0.661458 v 0.661459 h 1.984375 v -0.661459 z m 3.307292,0 v 0.661459 h 0.661458 v -0.661459 z" />
    <path
       id="rect23960"
       style="opacity:1;fill:#ffde00;fill-opacity:1;stroke-width:2.38125;stroke-linecap:round;stroke-linejoin:round"
       d="m 9.7581138,10.087825 v 0.661459 h 1.9843752 v -0.661459 z m 0.6614582,5.953126 v 0.661458 h 1.322917 v -0.661458 z m 3.307292,0 v 0.661458 h 1.322917 v -0.661458 z" />
    <path
       id="rect26915"
       style="opacity:1;fill:#e9922c;fill-opacity:1;stroke-width:2.38125;stroke-linecap:round;stroke-linejoin:round"
       d="m 11.742489,16.040951 v 0.661458 h 0.661458 v -0.661458 z m 1.322917,0 v 0.661458 h 0.661458 v -0.661458 z" />
    <path
       id="rect49962"
       style="opacity:1;fill:#cd0000;fill-opacity:1;stroke-width:2.38125;stroke-linecap:round;stroke-linejoin:round"
       d="M 13.726864,6.7805336 V 7.441992 h 0.661458 V 6.7805336 Z M 11.742489,7.441992 v 0.6614583 h 0.661458 V 7.441992 Z" />
    <path
       id="rect54420"
       style="opacity:1;fill:#ff2e00;stroke-width:2.38125;stroke-linecap:round;stroke-linejoin:round"
       d="m 12.403947,6.7805336 h 1.322916 V 7.441992 h -0.661457 l -10e-7,0.6614584 h -0.661458 z"
       sodipodi:nodetypes="ccccccc" />
  </g>
  <path
     id="rect103835"
     style="fill:#f9fafb;fill-opacity:1;stroke-width:0.900028;stroke-linecap:round;stroke-linejoin:round"
     d="M 12.779582,2.6985433 V 2.830835 h 0.132291 V 2.6985433 Z m 2.85719,1.561145 v 0.1322916 h 0.132291 V 4.2596883 Z M 4.3129153,4.7625001 v 0.1322916 h 0.132291 V 4.7625001 Z" />
  <path
     id="rect110957"
     style="opacity:0.3;fill:#f9fafb;fill-opacity:1;stroke-width:2.38125;stroke-linecap:round;stroke-linejoin:round"
     d="m 14.737085,4.2596883 v 0.1322916 h 0.132292 V 4.2596883 Z M 13.414168,5.8208334 V 5.9531251 H 13.54646 V 5.8208334 Z m 2.354895,7.3023966 v 0.132292 H 15.875 V 13.12323 Z M 3.5191653,13.758334 v 0.132291 h 0.132291 v -0.132291 z m 4.841565,0.529166 v 0.132292 h 0.132291 V 14.2875 Z" />
  <g
     id="g113500"
     transform="translate(14.588721,1.1111725)">
    <rect
       style="opacity:0.3;fill:#f9fafb;fill-opacity:1;stroke-width:2.38125;stroke-linecap:round;stroke-linejoin:round"
       id="rect113653"
       width="0.39687499"
       height="0.39687499"
       x="-11.842221"
       y="1.3229166" />
    <path
       id="rect111635"
       style="opacity:0.2;fill:#f9fafb;fill-opacity:1;stroke-width:2.38125;stroke-linecap:round;stroke-linejoin:round"
       d="m -11.710051,1.0583333 v 0.396875 h -0.396875 v 0.1322916 h 0.396875 v 0.396875 h 0.132291 v -0.396875 h 0.396875 V 1.4552083 h -0.396875 v -0.396875 z" />
    <path
       id="rect112153"
       style="opacity:0.2;fill:#f9fafb;fill-opacity:1;stroke-width:14.2303;stroke-linecap:round;stroke-linejoin:round"
       d="m -44.257812,4.5 v 1 h -1 V 6 h 1 v 1 h 0.5 V 6 h 1 V 5.5 h -1 v -1 z"
       transform="scale(0.26458334)" />
    <rect
       style="opacity:1;fill:#f9fafb;fill-opacity:1;stroke-width:2.38125;stroke-linecap:round;stroke-linejoin:round"
       id="rect111777"
       width="0.13229167"
       height="0.13229167"
       x="-11.710051"
       y="1.4552083" />
    <path
       id="rect112031"
       style="opacity:0.3;fill:#f9fafb;stroke-width:2.38125;stroke-linecap:round;stroke-linejoin:round"
       d="m -11.710051,1.3229166 h 0.132293 l -2e-6,0.1322917 h 0.132414 V 1.5875 l -0.132414,-10e-8 v 0.1322918 h -0.132293 l 2e-6,-0.1322918 -0.13217,10e-8 V 1.4552083 h 0.13217 z"
       sodipodi:nodetypes="ccccccccccccc" />
  </g>
  <g
     id="g113383"
     transform="translate(15.875,1.0583333)">
    <path
       id="rect112153-7"
       style="opacity:0.2;fill:#f9fafb;fill-opacity:1;stroke-width:3.7651;stroke-linecap:round;stroke-linejoin:round"
       d="m -14.022745,10.212917 v 0.264584 h -0.264584 v 0.132291 h 0.264584 v 0.264584 h 0.132291 v -0.264584 h 0.264584 v -0.132291 h -0.264584 v -0.264584 z" />
    <rect
       style="fill:#f9fafb;fill-opacity:1;stroke-width:2.38125;stroke-linecap:round;stroke-linejoin:round"
       id="rect111777-9"
       width="0.13229167"
       height="0.13229167"
       x="-14.022917"
       y="10.4775" />
    <path
       id="rect112031-2"
       style="opacity:0.3;fill:#f9fafb;stroke-width:2.38125;stroke-linecap:round;stroke-linejoin:round"
       d="m -14.022917,10.345209 h 0.132293 l -2e-6,0.132292 h 0.132414 v 0.132291 h -0.132414 v 0.132292 h -0.132293 l 2e-6,-0.132292 h -0.13217 v -0.132291 h 0.13217 z"
       sodipodi:nodetypes="ccccccccccccc" />
  </g>
  <g
     id="g113378"
     transform="translate(15.874833,1.0636302)">
    <rect
       style="opacity:0.3;fill:#f9fafb;fill-opacity:1;stroke-width:2.38125;stroke-linecap:round;stroke-linejoin:round"
       id="rect113273"
       width="0.397046"
       height="0.39687502"
       x="-3.2278254"
       y="13.488453" />
    <path
       id="rect111635-0"
       style="opacity:0.2;fill:#f9fafb;fill-opacity:1;stroke-width:2.38125;stroke-linecap:round;stroke-linejoin:round"
       d="m -3.0954579,13.22387 v 0.396875 h -0.396875 v 0.132291 h 0.396875 v 0.396875 h 0.132291 v -0.396875 h 0.396875 v -0.132291 h -0.396875 V 13.22387 Z" />
    <path
       id="rect112153-2"
       style="opacity:0.2;fill:#f9fafb;fill-opacity:1;stroke-width:3.7651;stroke-linecap:round;stroke-linejoin:round"
       d="m -3.0952869,13.356161 v 0.264584 h -0.264583 v 0.132291 h 0.264583 v 0.264584 h 0.132292 v -0.264584 h 0.264583 v -0.132291 h -0.264583 v -0.264584 z" />
    <rect
       style="fill:#f9fafb;fill-opacity:1;stroke-width:2.38125;stroke-linecap:round;stroke-linejoin:round"
       id="rect111777-3"
       width="0.13229167"
       height="0.13229167"
       x="-3.0954573"
       y="13.620745" />
    <path
       id="rect112031-7"
       style="opacity:0.3;fill:#f9fafb;stroke-width:2.38125;stroke-linecap:round;stroke-linejoin:round"
       d="m -3.0954579,13.488453 h 0.132293 l -2e-6,0.132292 h 0.132414 v 0.132291 h -0.132414 v 0.132292 h -0.132293 l 2e-6,-0.132292 h -0.13217 v -0.132291 h 0.13217 z"
       sodipodi:nodetypes="ccccccccccccc" />
  </g>
  <rect
     style="opacity:0.3;fill:url(#radialGradient113845);fill-opacity:1;stroke-width:3.06161;stroke-linecap:round;stroke-linejoin:round"
     id="rect113757"
     width="1.1906251"
     height="1.1906251"
     x="2.3494987"
     y="2.0372915" />
  <rect
     style="opacity:0.3;fill:url(#radialGradient113845-2);fill-opacity:1;stroke-width:3.06161;stroke-linecap:round;stroke-linejoin:round"
     id="rect113757-1"
     width="1.1906251"
     height="1.1906251"
     x="14.313958"
     y="6.720417" />
  <g
     id="g113494"
     transform="translate(15.901239,1.031875)">
    <path
       id="rect112153-9"
       style="opacity:0.2;fill:#f9fafb;fill-opacity:1;stroke-width:3.7651;stroke-linecap:round;stroke-linejoin:round"
       d="m -1.0581144,5.9531251 v 0.2645834 h -0.2645834 v 0.1322916 h 0.2645834 v 0.2645834 h 0.13229163 V 6.3500001 h 0.26458334 V 6.2177085 H -0.92582277 V 5.9531251 Z" />
    <rect
       style="fill:#f9fafb;fill-opacity:1;stroke-width:2.38125;stroke-linecap:round;stroke-linejoin:round"
       id="rect111777-2"
       width="0.13229167"
       height="0.13229167"
       x="-1.0582852"
       y="6.2177086" />
    <path
       id="rect112031-28"
       style="opacity:0.3;fill:#f9fafb;stroke-width:2.38125;stroke-linecap:round;stroke-linejoin:round"
       d="m -1.0582857,6.0854167 h 0.13229298 l -2e-6,0.1322917 h 0.132414 v 0.1322917 l -0.132414,-1e-7 V 6.4822918 H -1.0582877 l 2e-6,-0.1322918 -0.13217,1e-7 V 6.2177084 h 0.13217 z"
       sodipodi:nodetypes="ccccccccccccc" />
  </g>
  <path
     id="rect1345"
     style="opacity:0.3;fill:url(#linearGradient1781);fill-opacity:1;stroke-width:0.264583"
     d="m 3.1750003,1.0583333 c -1.172633,0 -2.116667,0.944034 -2.116667,2.116667 V 13.758333 c 0,1.172634 0.944034,2.116667 2.116667,2.116667 H 13.758334 c 1.172633,0 2.116666,-0.944033 2.116666,-2.116667 V 3.1750003 c 0,-1.172633 -0.944033,-2.116667 -2.116666,-2.116667 z m 0,0.264584 H 13.758334 c 1.026054,0 1.852083,0.826029 1.852083,1.852083 V 13.758333 c 0,1.026054 -0.826029,1.852084 -1.852083,1.852084 H 3.1750003 c -1.026054,0 -1.852083,-0.82603 -1.852083,-1.852084 V 3.1750003 c 0,-1.026054 0.826029,-1.852083 1.852083,-1.852083 z" />
</svg>
