<?xml version="1.0" encoding="UTF-8" standalone="no"?>
<svg
   width="16"
   height="16"
   version="1.1"
   id="svg4"
   sodipodi:docname="keepassxc-locked.svg"
   inkscape:version="1.1.2 (0a00cf5339, 2022-02-04, custom)"
   xmlns:inkscape="http://www.inkscape.org/namespaces/inkscape"
   xmlns:sodipodi="http://sodipodi.sourceforge.net/DTD/sodipodi-0.dtd"
   xmlns="http://www.w3.org/2000/svg"
   xmlns:svg="http://www.w3.org/2000/svg">
  <defs
     id="defs8" />
  <sodipodi:namedview
     id="namedview6"
     pagecolor="#ffffff"
     bordercolor="#666666"
     borderopacity="1.0"
     inkscape:pageshadow="2"
     inkscape:pageopacity="0.0"
     inkscape:pagecheckerboard="0"
     showgrid="false"
     inkscape:zoom="11.846151"
     inkscape:cx="6.4155859"
     inkscape:cy="13.675328"
     inkscape:window-width="1366"
     inkscape:window-height="703"
     inkscape:window-x="0"
     inkscape:window-y="37"
     inkscape:window-maximized="1"
     inkscape:current-layer="svg4" />
  <g
     id="g918"
     transform="matrix(0.94117647,0,0,0.94117647,-4.5490194,1.1709986)">
    <path
       style="color:#ffffff;fill:currentColor"
       class="ColorScheme-Text"
       d="m 11.833333,-1.244186 a 5,5 0 0 0 -4.9999997,5 5,5 0 0 0 3,4.576172 v 5.423828 l 1.9999997,2 1,-1 v -5 h 1.013672 c 0.0034,-0.279717 0.05612,-0.546251 0.130859,-0.804688 L 13.833333,8.806595 V 8.335892 a 5,5 0 0 0 0.582031,-0.30664 C 14.71652,7.604168 15.121459,7.261474 15.595052,7.039017 a 5,5 0 0 0 1.238281,-3.283203 5,5 0 0 0 -5,-5 z m 0,1 a 2.0000002,2.0000002 0 0 1 2,2 2.0000002,2.0000002 0 0 1 -2,2 2.0000002,2.0000002 0 0 1 -1.9999997,-2 2.0000002,2.0000002 0 0 1 1.9999997,-2 z m -1,9 h 1 v 4 h -1 z"
       id="path5" />
    <path
       style="color:#ffffff;fill:currentColor"
       class="ColorScheme-Text"
       d="m 16.833333,7.755814 c -1.108,0 -2,0.91085 -2,2.0312 v 0.96875 h -1 v 4 h 6 v -4 h -1 v -0.96875 c 0,-1.1199 -0.892,-2.0312 -2,-2.0312 z m 0,1 c 0.554,0 1,0.4424 1,1 v 1 h -2 v -1 c 0,-0.5576 0.446,-1 1,-1 z"
       id="path7" />
  </g>
</svg>
