<?xml version="1.0" encoding="UTF-8" standalone="no"?>
<svg
   width="16"
   height="16"
   version="1.1"
   id="svg1"
   sodipodi:docname="start-here-symbolic.svg"
   inkscape:version="1.3.2 (091e20ef0f, 2023-11-25, custom)"
   xmlns:inkscape="http://www.inkscape.org/namespaces/inkscape"
   xmlns:sodipodi="http://sodipodi.sourceforge.net/DTD/sodipodi-0.dtd"
   xmlns="http://www.w3.org/2000/svg"
   xmlns:svg="http://www.w3.org/2000/svg">
  <sodipodi:namedview
     id="namedview1"
     pagecolor="#ffffff"
     bordercolor="#000000"
     borderopacity="0.25"
     inkscape:showpageshadow="2"
     inkscape:pageopacity="0.0"
     inkscape:pagecheckerboard="0"
     inkscape:deskcolor="#d1d1d1"
     inkscape:zoom="50.6875"
     inkscape:cx="8"
     inkscape:cy="7.9901356"
     inkscape:window-width="1920"
     inkscape:window-height="1015"
     inkscape:window-x="0"
     inkscape:window-y="0"
     inkscape:window-maximized="1"
     inkscape:current-layer="svg1" />
  <defs
     id="defs1">
    <style
       id="current-color-scheme"
       type="text/css">.ColorScheme-Text { color:#f2f2f2; }</style>
  </defs>
  <path
     d="M 13.180232,10.485707 C 13.218032,7.0305248 13.57363,0.502365 6.9600743,1.0301626 0.43051185,1.5558576 2.1616003,8.4536179 2.0643013,10.763603 1.9782157,11.985796 1.5729041,13.479587 0.99960825,14.999979 H 2.7642963 c 0.182011,-0.643996 0.314998,-1.281693 0.372401,-1.888589 0.106388,0.07421 0.220488,0.145597 0.342296,0.214212 0.197419,0.11691 0.367499,0.271603 0.547399,0.435397 0.419992,0.382895 0.896693,0.817593 1.827687,0.871495 0.06228,0.0037 0.125294,0.0056 0.186902,0.0056 0.942193,0 1.586189,-0.412296 2.104185,-0.743394 0.2478,-0.158885 0.461997,-0.296099 0.663598,-0.361898 0.573298,-0.17921 1.073792,-0.468998 1.4475897,-0.837197 0.0588,-0.05739 0.112677,-0.116895 0.163804,-0.177091 0.208615,0.763694 0.494195,1.623989 0.810591,2.481486 h 3.768778 C 14.09372,13.602875 13.160625,12.232983 13.180223,10.485796 Z M 2.6963993,8.6062154 v -6.988e-4 c -0.06511,-1.1276922 0.474597,-2.0754876 1.20469,-2.1181887 0.730098,-0.0427 1.374792,0.8371967 1.439891,1.96419 v 7.011e-4 c 0.0037,0.0609 0.0051,0.1211093 0.0051,0.1805964 -0.231006,0.0581 -0.440298,0.1427941 -0.627198,0.2414951 l -0.0021,-0.025165 v -7.011e-4 c -0.06225,-0.6397983 -0.403862,-1.1227945 -0.76366,-1.0793957 -0.359101,0.0441 -0.599899,0.5984972 -0.536899,1.2382956 0.02742,0.2792928 0.107123,0.5284949 0.219102,0.7174959 -0.02799,0.02177 -0.106388,0.0791 -0.196683,0.1455976 -0.06791,0.0497 -0.151194,0.1098882 -0.250598,0.1833962 C 2.9164423,9.6968367 2.7302473,9.1844383 2.6966483,8.6062434 Z m 7.3982537,2.7866866 c -0.02602,0.595693 -0.8056977,1.156392 -1.5252937,1.381089 l -0.0043,0.0014 c -0.299598,0.09731 -0.566293,0.268096 -0.849093,0.448696 -0.474597,0.303799 -0.965994,0.618099 -1.67509,0.618099 -0.04686,0 -0.09451,-0.0014 -0.14139,-0.0043 -0.649647,-0.03781 -0.953446,-0.314313 -1.337744,-0.66501 -0.202987,-0.184811 -0.412996,-0.376598 -0.683197,-0.534797 l -0.0064,-0.0037 c -0.583806,-0.329682 -0.946401,-0.739182 -0.969502,-1.09688 -0.011317,-0.17709 0.067911,-0.331096 0.235189,-0.456396 0.364057,-0.272959 0.608355,-0.451447 0.769356,-0.569747 0.179211,-0.130898 0.233775,-0.170108 0.273695,-0.208614 0.02869,-0.02658 0.05951,-0.05669 0.0931,-0.08959 0.333898,-0.324795 0.893194,-0.8686935 1.752089,-0.8686935 0.524996,0 1.105996,0.2023092 1.724788,0.5998961 0.291201,0.1896984 0.545297,0.2771994 0.866596,0.3884984 0.220489,0.0763 0.471097,0.162391 0.806396,0.305899 l 0.0056,0.0027 c 0.312201,0.128103 0.6817967,0.362597 0.6649987,0.750396 z M 9.9224513,9.9929097 c -0.0602,-0.030112 -0.123201,-0.0588 -0.188315,-0.086077 -0.302399,-0.1288057 -0.5446,-0.2170115 -0.745496,-0.2869998 0.1113,-0.2170115 0.179891,-0.4878961 0.186196,-0.7825936 0.01555,-0.7160971 -0.345798,-1.2977943 -0.806395,-1.298492 -0.461295,-0.0014 -0.846997,0.5781938 -0.862396,1.2942909 -6.98e-4,0.023753 -6.98e-4,0.0469 0,0.07 -0.284204,-0.1301952 -0.563502,-0.225408 -0.8365,-0.2834974 -0.0014,-0.027417 -0.0027,-0.053888 -0.0037,-0.081188 v -7.023e-4 c -0.02658,-1.304092 0.774195,-2.3841862 1.787787,-2.411485 1.013597,-0.027417 1.8570887,1.0072954 1.8836897,2.3120874 v 7e-4 c 0.0119,0.5900937 -0.145597,1.1325909 -0.4150967,1.5539906 z"
     fill="#eeeeee"
     fill-rule="nonzero"
     id="path27"
     sodipodi:nodetypes="cccccccccscccccccccsccccccccccccccccscccccccccsccccccccccccccccsccc"
     style="fill:#f2f2f2;fill-opacity:1;stroke-width:0.699996" />
</svg>
